<svg id="Layer_1" data-name="Layer 1" xmlns="http://www.w3.org/2000/svg" viewBox="0 0 399 200"><defs><style>.cls-1,.cls-2,.cls-3,.cls-4,.cls-5,.cls-6,.cls-7{fill:none;stroke:#222f3c;}.cls-1,.cls-2,.cls-4{stroke-linecap:round;}.cls-1,.cls-2,.cls-4,.cls-5{stroke-linejoin:round;}.cls-1,.cls-6,.cls-7{stroke-width:0.5px;}.cls-2,.cls-3,.cls-5{stroke-width:0.4px;}.cls-3,.cls-6,.cls-7{stroke-miterlimit:10;}.cls-4{stroke-width:0.4px;}.cls-7{stroke-linecap:square;}.cls-8{fill:#333838;}</style></defs><line class="cls-1" x1="198.4218" y1="118.5362" x2="193.0177" y2="113.4331"/><path class="cls-1" d="M200.6136,118.5661l5.1462-5.45-6.1337-6.1338h0a.0644.0644,0,0,0-.0741-.0147h-.0009a.062.062,0,0,0-.0409.0629v10.4328"/><path class="cls-1" d="M199.4944,117.4637v-3.9143a.0663.0663,0,0,0-.02-.0459l.0006-.0006a.0731.0731,0,0,0-.0495-.0212l-6.4081-.0486"/><path class="cls-1" d="M201.644,119.6392h3.9888a.0677.0677,0,0,0,.0461-.02h0a.0725.0725,0,0,0,.0211-.0493l.0487-6.4277-5.1282,5.43"/><line class="cls-1" x1="192.9994" y1="113.4343" x2="193.0007" y2="113.433"/><path class="cls-1" d="M192.9994,113.4343l-6.12,6.12h0a.0681.0681,0,0,0-.0192.0336.07.07,0,0,0,.0043.04v.001a.0618.0618,0,0,0,.0631.0408H197.392"/><polyline class="cls-1" points="192.999 113.435 192.998 113.433 193 113.433"/><line class="cls-1" x1="192.9994" y1="113.4343" x2="198.4124" y2="118.5457"/><polyline class="cls-1" points="193.018 113.433 193.009 113.425 193 113.433"/><line class="cls-1" x1="193.0177" y1="113.4331" x2="193.0007" y2="113.433"/><line class="cls-1" x1="200.5457" y1="120.7376" x2="205.99" y2="125.8787"/><path class="cls-1" d="M198.43,120.7076l-5.1821,5.488,6.1336,6.1338h0a.0649.0649,0,0,0,.0742.0147h.0009c.0136-.0056.024,17.4784.031,17.4681s.01-17.5151.01-17.531V121.7745"/><path class="cls-1" d="M199.513,121.77v3.9925a.0659.0659,0,0,0,.02.0458v.0007a.0738.0738,0,0,0,.0494.0212l6.4081.0486"/><path class="cls-1" d="M198.4227,120.7l-5.1642,5.4686.0488-6.4277a.0725.0725,0,0,1,.0211-.0493h0a.0664.0664,0,0,1,.046-.02h4.02"/><line class="cls-1" x1="206.0083" y1="125.8776" x2="206.0071" y2="125.8788"/><path class="cls-1" d="M206.0083,125.8776l6.12-6.12h0a.0676.0676,0,0,0,.0193-.0336.07.07,0,0,0-.0045-.04v-.001a.0615.0615,0,0,0-.0629-.0408H201.641"/><polyline class="cls-1" points="206.008 125.878 206.01 125.879 206.007 125.879"/><line class="cls-1" x1="206.0083" y1="125.8776" x2="200.5552" y2="120.728"/><polyline class="cls-1" points="205.99 125.879 205.999 125.887 206.007 125.879"/><line class="cls-1" x1="205.99" y1="125.8787" x2="206.0071" y2="125.8788"/><line class="cls-1" x1="198.4301" y1="120.7076" x2="198.4227" y2="120.7003"/><line class="cls-1" x1="198.4218" y1="118.5362" x2="198.4124" y2="118.5457"/><line class="cls-1" x1="198.4227" y1="120.7003" x2="197.3951" y2="119.6727"/><line class="cls-1" x1="197.3917" y1="119.6693" x2="197.3951" y2="119.6727"/><polyline class="cls-1" points="201.644 119.639 201.666 119.618 200.621 118.573"/><polyline class="cls-1" points="199.513 121.77 199.503 121.781 199.497 121.775"/><line class="cls-1" x1="199.5134" y1="121.7699" x2="200.5457" y2="120.7376"/><polyline class="cls-1" points="199.494 117.463 199.503 117.455 199.511 117.463"/><line class="cls-1" x1="201.6407" y1="119.6425" x2="200.5552" y2="120.728"/><line class="cls-1" x1="198.4301" y1="120.7076" x2="199.4972" y2="121.7748"/><polyline class="cls-1" points="197.392 119.67 197.34 119.618 198.412 118.546"/><line class="cls-1" x1="199.4944" y1="117.4637" x2="198.4218" y2="118.5362"/><line class="cls-1" x1="200.6136" y1="118.5661" x2="199.5106" y2="117.463"/><line class="cls-1" x1="200.5457" y1="120.7376" x2="200.5552" y2="120.728"/><line class="cls-1" x1="201.6407" y1="119.6425" x2="201.644" y2="119.6392"/><line class="cls-1" x1="200.6136" y1="118.5661" x2="200.621" y2="118.5735"/><path class="cls-2" d="M74.3093,81.0422H72.0331a.5275.5275,0,0,1-.5275-.5274h0v-1.56a.5275.5275,0,0,1,.5275-.5274h5.9883"/><line class="cls-2" x1="70.9969" y1="95.3155" x2="72.6009" y2="95.3155"/><line class="cls-2" x1="73.0125" y1="85.3834" x2="73.0125" y2="81.7297"/><line class="cls-2" x1="72.4557" y1="95.3155" x2="70.4242" y2="95.3155"/><line class="cls-2" x1="69.5362" y1="93.9603" x2="69.5434" y2="93.9427"/><line class="cls-2" x1="69.5434" y1="93.9427" x2="73.0071" y2="85.4554"/><path class="cls-2" d="M69.5362,93.96a.98.98,0,0,0,.908,1.3538"/><path class="cls-2" d="M69.5362,93.96l.0072-.0176"/><line class="cls-2" x1="72.4557" y1="95.3155" x2="70.4242" y2="95.3155"/><line class="cls-2" x1="69.5362" y1="93.9603" x2="69.5434" y2="93.9427"/><line class="cls-2" x1="69.5434" y1="93.9427" x2="73.0071" y2="85.4554"/><path class="cls-2" d="M69.5362,93.96a.98.98,0,0,0,.908,1.3538"/><path class="cls-2" d="M69.5362,93.96l.0072-.0176"/><path class="cls-2" d="M78.2113,82.6269h3.17A.5076.5076,0,0,0,81.866,82.1V80.539a.5077.5077,0,0,0-.4847-.5275H75.3376a.5075.5075,0,0,0-.4848.5275V82.1a.5075.5075,0,0,0,.4848.5274h1.0455"/><line class="cls-2" x1="76.0516" y1="87.554" x2="76.0516" y2="83.9003"/><line class="cls-2" x1="82.6822" y1="97.486" x2="73.4632" y2="97.486"/><line class="cls-2" x1="72.5754" y1="96.1307" x2="72.5825" y2="96.1132"/><line class="cls-2" x1="72.5825" y1="96.1132" x2="76.0461" y2="87.6259"/><path class="cls-2" d="M72.5754,96.1307a.98.98,0,0,0,.9078,1.354"/><path class="cls-2" d="M72.5754,96.1307l.0071-.0175"/><line class="cls-2" x1="80.6667" y1="87.554" x2="80.6667" y2="83.9003"/><line class="cls-2" x1="73.6085" y1="97.486" x2="83.2551" y2="97.486"/><line class="cls-2" x1="84.1429" y1="96.1307" x2="84.1358" y2="96.1132"/><line class="cls-2" x1="84.1358" y1="96.1132" x2="80.6722" y2="87.6259"/><path class="cls-2" d="M84.1429,96.1307a.98.98,0,0,1-.9083,1.354"/><path class="cls-2" d="M84.1429,96.1307l-.0071-.0175"/><line class="cls-2" x1="73.6085" y1="97.486" x2="83.2551" y2="97.486"/><line class="cls-2" x1="84.1429" y1="96.1307" x2="84.1358" y2="96.1132"/><line class="cls-2" x1="84.1358" y1="96.1132" x2="80.6722" y2="87.6259"/><path class="cls-2" d="M84.1429,96.1307a.98.98,0,0,1-.9083,1.354"/><path class="cls-2" d="M84.1429,96.1307l-.0071-.0175"/><line class="cls-3" x1="79.1099" y1="84.7852" x2="80.7007" y2="84.7852"/><line class="cls-3" x1="79.1099" y1="83.8738" x2="80.7007" y2="83.8738"/><line class="cls-3" x1="79.1099" y1="85.7073" x2="80.7007" y2="85.7073"/><line class="cls-3" x1="79.1099" y1="86.6295" x2="80.7007" y2="86.6295"/><line class="cls-3" x1="79.1099" y1="87.5516" x2="80.7007" y2="87.5516"/><path class="cls-3" d="M75.6871,92.8618c0-.5233.9475-1.6623.9475-1.6623s.9475,1.139.9475,1.6623a.9475.9475,0,0,1-1.895,0Z"/><path class="cls-3" d="M77.6642,95.2072c0-.5234.9474-1.6623.9474-1.6623s.9475,1.1389.9475,1.6623a.9475.9475,0,0,1-1.8949,0Z"/><path class="cls-3" d="M78.1882,91.8484c0-.5233.9476-1.6623.9476-1.6623s.9475,1.139.9475,1.6623a.9476.9476,0,0,1-1.8951,0Z"/><path class="cls-3" d="M216.1932,59.3035l13.6138,12.81h0L220.37,82.1424a1.12,1.12,0,0,1-1.5831.0481L206.8042,70.916a1.12,1.12,0,0,1-.0482-1.5831h0l9.4366-10.0293Z"/><rect class="cls-4" x="216.0483" y="55.2298" width="9.5726" height="3.7384" transform="translate(27.9196 178.8037) rotate(-46.7436)"/><rect class="cls-4" x="219.022" y="58.3724" width="7.9772" height="3.7384" transform="translate(26.3158 181.3775) rotate(-46.7436)"/><rect class="cls-4" x="221.9958" y="61.5153" width="6.3818" height="3.7384" transform="translate(24.7117 183.9516) rotate(-46.7436)"/><rect class="cls-4" x="224.9694" y="64.6581" width="4.7863" height="3.7384" transform="translate(23.1076 186.5254) rotate(-46.7436)"/><rect class="cls-4" x="227.9434" y="67.8011" width="3.1909" height="3.7384" transform="translate(21.5036 189.0996) rotate(-46.7436)"/><polygon class="cls-5" points="233.914 65.02 231.336 66.246 232.848 67.668 233.914 65.02"/><polygon class="cls-5" points="231.336 66.246 229.273 67.226 231.995 69.787 232.848 67.668 231.336 66.246"/><polygon class="cls-5" points="232.284 61.296 229.706 62.522 231.218 63.945 232.284 61.296"/><polygon class="cls-5" points="229.706 62.522 227.643 63.502 230.366 66.063 231.218 63.945 229.706 62.522"/><polygon class="cls-5" points="230.655 57.572 228.076 58.798 229.589 60.221 230.655 57.572"/><polygon class="cls-5" points="228.076 58.798 226.013 59.778 228.736 62.339 229.589 60.221 228.076 58.798"/><polygon class="cls-5" points="229.026 53.849 226.447 55.074 227.96 56.497 229.026 53.849"/><polygon class="cls-5" points="226.447 55.074 224.385 56.054 227.108 58.616 227.96 56.497 226.447 55.074"/><polygon class="cls-5" points="227.397 50.125 224.818 51.351 226.33 52.773 227.397 50.125"/><polygon class="cls-5" points="224.818 51.351 222.755 52.331 225.478 54.892 226.33 52.773 224.818 51.351"/><line class="cls-1" x1="56.8205" y1="150.2446" x2="237.9689" y2="150.2446"/><path class="cls-6" d="M154.1459,101.5507a11.0631,11.0631,0,0,0,22.1062,0,9.5653,9.5653,0,0,0-.1217-1.8243"/><path class="cls-6" d="M168.2481,147.9652h3.9639a1.7533,1.7533,0,0,1,1.7533,1.7533v.4383h-5.7172Z"/><path class="cls-6" d="M162.15,150.1567h-5.717v-.4384a1.753,1.753,0,0,1,1.753-1.7532h3.964Z"/><path class="cls-6" d="M154.1459,101.5507c0-.12.0052-.2379.0094-.3565a2.007,2.007,0,0,0,.1812,4.01h.4844A10.1763,10.1763,0,0,1,154.1459,101.5507Z"/><path class="cls-6" d="M176.2427,101.1942c.0041.1186.0094.237.0094.3565a10.1807,10.1807,0,0,1-.675,3.6527h.4845a2.007,2.007,0,1,0,.1811-4.01h0Z"/><path class="cls-6" d="M171.6783,102.3726a1.24,1.24,0,0,1-2.4773,0"/><path class="cls-6" d="M161.197,102.3726a1.24,1.24,0,0,1-2.4774,0"/><path class="cls-6" d="M163.1027,107.4314a2.0982,2.0982,0,0,0,4.1926,0"/><path class="cls-6" d="M178.0236,116.8976a11.6285,11.6285,0,0,0-5.8456-5.57,3.1052,3.1052,0,0,0-1.1312-.4188,1.95,1.95,0,0,0-.4059-.0448c-.02,0-.04.0017-.0595.0023-.0156,0-.0307-.0023-.0464-.0023h-.0672a11.494,11.494,0,0,1-10.5368,0h-.0672c-.0157,0-.0307.002-.0464.0023-.02-.0006-.04-.0023-.0594-.0023a1.95,1.95,0,0,0-.4058.0448,3.1052,3.1052,0,0,0-1.1312.4188,11.6289,11.6289,0,0,0-5.8456,5.57c-.0985.2016-.1884.4065-.274.6119l3.7356.8325a7.8726,7.8726,0,0,1,.9779-1.4951v9.996h16.77v-9.996a7.863,7.863,0,0,1,.9779,1.4951l3.7355-.8325C178.212,117.3042,178.122,117.1,178.0236,116.8976Z"/><path class="cls-6" d="M159.8538,110.7133a5.3553,5.3553,0,0,0,10.7008,0"/><path class="cls-6" d="M175.4937,123.885a2.1578,2.1578,0,0,1,.93-.2105,2.1071,2.1071,0,0,1,1.8613,1.087,10.5783,10.5783,0,0,0-.4-7.16l-2.9033.6472A7.9,7.9,0,0,1,175.4937,123.885Z"/><ellipse class="cls-6" cx="176.4236" cy="125.6834" rx="2.0963" ry="2.0089"/><path class="cls-6" d="M151.25,123.05a3.0955,3.0955,0,0,0-1.1243-.22,8.2368,8.2368,0,0,0,2.3568-5.2528l2.9.6608a10.7863,10.7863,0,0,1-2.9717,6.58A2.0018,2.0018,0,0,0,151.25,123.05Z"/><ellipse class="cls-6" cx="150.3159" cy="124.8486" rx="2.0963" ry="2.0089"/><path class="cls-6" d="M165.2023,86.2279a11.1388,11.1388,0,0,0-4.0268.753,19.1594,19.1594,0,0,1-10.06-1.2992V89.23a9.4751,9.4751,0,0,0,2.622,6.4022h0a13.5476,13.5476,0,0,0-.2188,5.63,1.9079,1.9079,0,0,1,.6519-.1161h.0042a12.5164,12.5164,0,0,1,.835-4.3456,10.9925,10.9925,0,0,0,1.6584,1.0709,12.8261,12.8261,0,0,0,8.4632.7047,25.91,25.91,0,0,1,5.0215-.4891,19.504,19.504,0,0,1,5.88.9929,12.7424,12.7424,0,0,1,.1974,2.0664h.0041a1.9094,1.9094,0,0,1,.6518.1162,13.7,13.7,0,0,0,.1954-2.2331c0-.0224.0015-.0441.0015-.0664C177.0831,91.93,171.7639,86.2279,165.2023,86.2279Z"/><path class="cls-6" d="M165.2186,134.31v13.64h7.5835V134.174c.896-1.0411.8086-4.5414.8086-5.9845l-16.7964.0587"/><path class="cls-6" d="M165.2086,136.5275v11.4217H157.625v-13.776c-.896-1.0411-.8085-4.5414-.8085-5.9845l16.7963.0587"/><path class="cls-6" d="M146.4487,101.2618c.004.1186.0094.2368.0094.3565a10.18,10.18,0,0,1-.6751,3.6525h.4844a2.0066,2.0066,0,0,0,.1813-4.009Z"/><path class="cls-6" d="M141.8843,103.6272a1.24,1.24,0,0,0-2.4774,0"/><path class="cls-6" d="M131.4029,103.6272a1.24,1.24,0,0,0-2.4773,0"/><path class="cls-6" d="M133.3086,107.4989a2.0982,2.0982,0,0,0,4.1926,0"/><path class="cls-6" d="M149.3391,123.0483a3.1423,3.1423,0,0,1,1.1217-.2253,7.9341,7.9341,0,0,1-2.3072-5.1544l-2.8938.6728a10.3884,10.3884,0,0,0,2.91,6.4566A2.0082,2.0082,0,0,1,149.3391,123.0483Z"/><line class="cls-6" x1="127.1139" y1="113.3487" x2="145.6448" y2="113.3487"/><path class="cls-1" d="M142.034,111.1738a9.7,9.7,0,0,0,4.57-5.6553"/><path class="cls-6" d="M123.4629,101.324a2.0623,2.0623,0,0,0,0,3.661Z"/><path class="cls-6" d="M127.2979,112.34c0,2.9826-1.1648,3.8706-2.6669,5.7555l1.4111.3145a7.8853,7.8853,0,0,1,.9779-1.4953v10.0322h16.77V116.9142a7.8729,7.8729,0,0,1,.978,1.4953l3.7355-.8325c-.0855-.2055-.1909-.4032-.2739-.6118a11.9366,11.9366,0,0,0-7.44-6.1755"/><path class="cls-1" d="M147.209,101.2153V98.9322a11.83,11.83,0,0,0-23.66,0h0"/><path class="cls-6" d="M127.2979,111.9889v.3506c0,2.9826-1.15,3.8416-2.6516,5.7266"/><line class="cls-6" x1="127.2979" y1="111.9688" x2="127.2979" y2="111.9889"/><path class="cls-6" d="M130.0205,110.82a10.1733,10.1733,0,0,0-2.7226,1.1686"/><line class="cls-1" x1="123.5516" y1="117.8546" x2="123.5554" y2="115.3014"/><path class="cls-7" d="M123.5516,117.8546l-.0026,1.7407a17.8066,17.8066,0,0,1,1.0684-1.4944"/><line class="cls-1" x1="123.5554" y1="115.3014" x2="123.5797" y2="98.8045"/><path class="cls-6" d="M122.3,117.7711a16.1724,16.1724,0,0,1,1.2495-2.5336"/><path class="cls-1" d="M123.6009,98.963a11.8057,11.8057,0,0,1,23.6113-.0663"/><path class="cls-6" d="M146.321,100.08a13.9334,13.9334,0,0,1-1.651-.4447c-3.4207-1.245-5.4007-3.1087-6.2167-5.1927-3.2083,1.7772-7.2565,3.0622-8.28,4.0166-1.4737,1.3748-2.8758,3.3474-2.8758,5.3629v4.8956"/><path class="cls-6" d="M146.3307,100.0767l.0412.0088-.0413-.0091"/><line class="cls-6" x1="127.2979" y1="108.7175" x2="127.2979" y2="111.9688"/><path class="cls-6" d="M146.152,99.8954a5.2321,5.2321,0,0,1,.3213,1.6553A10.83,10.83,0,0,1,135.42,112.1431a11.2325,11.2325,0,0,1-8.1223-3.4256"/><line class="cls-6" x1="123.7207" y1="117.9042" x2="122.3522" y2="117.4893"/><path class="cls-6" d="M138.4233,147.9652h3.9639a1.7532,1.7532,0,0,1,1.7532,1.7533v.4383h-5.7171Z"/><path class="cls-6" d="M132.325,150.1567h-5.7171v-.4384a1.753,1.753,0,0,1,1.753-1.7532h3.9641Z"/><path class="cls-6" d="M135.393,134.31v13.64h7.5835V134.174c.896-1.0411.8087-4.5414.8087-5.9845l-16.7964.0587"/><path class="cls-6" d="M135.3837,136.5275v11.4217H127.8v-13.776c-.896-1.0411-.8086-4.5414-.8086-5.9845l16.7964.0587"/><path class="cls-6" d="M122.7359,117.577a8.235,8.235,0,0,1-2.3568,5.2528,3.1017,3.1017,0,0,1,1.1242.22,2.0018,2.0018,0,0,1,1.1607,1.7679,10.7858,10.7858,0,0,0,2.9718-6.58"/><ellipse class="cls-6" cx="120.5691" cy="124.8486" rx="2.0963" ry="2.0089"/><path class="cls-6" d="M112.1232,103.6272a1.24,1.24,0,0,0-2.4774,0"/><path class="cls-6" d="M101.6418,103.6272a1.24,1.24,0,0,0-2.4774,0"/><path class="cls-6" d="M103.5475,107.4989a2.0982,2.0982,0,0,0,4.1926,0"/><ellipse class="cls-6" cx="94.4192" cy="125.7509" rx="2.0963" ry="2.0089"/><path class="cls-6" d="M120.7,122.823a7.9353,7.9353,0,0,1-2.3072-5.1544l-2.8939.6728a10.3884,10.3884,0,0,0,2.91,6.4566"/><path class="cls-6" d="M94.87,118.095l1.4112.3145a7.88,7.88,0,0,1,.9778-1.4953v10.0322h16.77V116.9142a7.8773,7.8773,0,0,1,.9779,1.4953l3.7355-.8325c-.0856-.2055-.19-.4032-.2739-.6118a11.9375,11.9375,0,0,0-7.44-6.1755"/><path class="cls-6" d="M96.3056,118.41l-3.7356-.833c.0855-.2055.19-.4032.2738-.6118a11.9366,11.9366,0,0,1,7.44-6.1755"/><path class="cls-1" d="M93.0656,117.9194a12.4114,12.4114,0,0,0-.5076,6.91,2.1742,2.1742,0,0,1,2.791-.8764,8.034,8.034,0,0,1,.5122-5.6365"/><path class="cls-6" d="M108.6621,147.9652h3.9639a1.7533,1.7533,0,0,1,1.7532,1.7533v.4383h-5.7171Z"/><path class="cls-6" d="M102.5638,150.1567H96.8467v-.4384A1.7532,1.7532,0,0,1,98.6,147.9651h3.964Z"/><path class="cls-6" d="M105.6324,134.31v13.64h7.5835V134.174c.896-1.0411.8085-4.5414.8085-5.9845l-16.7963.0587"/><path class="cls-6" d="M105.6225,136.5275v11.4217H98.039v-13.776c-.896-1.0411-.8085-4.5414-.8085-5.9845l16.7963.0587"/><path class="cls-6" d="M96.4794,99.8434c3.2539-1.1749,5.1975-2.9079,6.0731-4.855,1.7846,2.584,5.8454,4.39,10.5746,4.39a23.1113,23.1113,0,0,0,3.3163-.255,10.9291,10.9291,0,1,1-21.6507,2.196c0-.3416.0178-.6789.049-1.0124A15.949,15.949,0,0,0,96.4794,99.8434Z"/><path class="cls-6" d="M90.2493,103.92V89.6338a6.7385,6.7385,0,0,1,13.0359-2.3358,7.6328,7.6328,0,0,0-1.5934-.168A7.5423,7.5423,0,0,0,94.12,94.6418a7.3863,7.3863,0,0,0,.0811,1.0733h0c.0286.1961.0622.3906.1056.5817l.013-.0475a11.521,11.521,0,0,0-.288,4.2438c.03.2576.071.5122.1174.7647a2,2,0,0,0,.644,3.9H95.5a10.8012,10.8012,0,0,0,1.4584,2.6363,5.05,5.05,0,0,1-10.0738-.4658V105.66A2.1392,2.1392,0,0,0,90.25,103.92Z"/><path class="cls-6" d="M105.73,87.4638a11.732,11.732,0,0,1,11.7735,11.475c.0013.07.0054.1395.0054.21a11.6581,11.6581,0,0,1-.1952,2.11,2.0282,2.0282,0,0,0-.6461-.1066h-.0044a10.7922,10.7922,0,0,0-.22-2.0291h.0008a23.107,23.107,0,0,1-3.3171.2551c-4.7292,0-8.79-1.8058-10.5746-4.39-.8756,1.9471-2.8191,3.68-6.0731,4.855,0,0-1.6546.4672-1.6376.4633q-.0393.4182-.0448.8455h-.004a2.023,2.023,0,0,0-.644.1058c-.0463-.2525-.0877-.5068-.1173-.7647A11.6657,11.6657,0,0,1,105.73,87.4639Z"/><path class="cls-6" d="M94.3063,96.2967a7.504,7.504,0,0,1,7.3855-9.1668,7.6144,7.6144,0,0,1,2.533.4321A11.7544,11.7544,0,0,0,94.3063,96.2967Z"/><path class="cls-6" d="M116.6679,101.3188c0-.056-.0035-.1111-.0044-.1669h.0044a2.0032,2.0032,0,0,1,.042,4.0062h-.7489A10.7464,10.7464,0,0,0,116.6679,101.3188Z"/><circle class="cls-6" cx="105.525" cy="119.3923" r="0.8297"/><circle class="cls-6" cx="105.525" cy="122.0659" r="0.8297"/><path class="cls-6" d="M130.6917,69.2008a4.96,4.96,0,0,0-4.96-4.96H67.8661a4.96,4.96,0,0,0-4.96,4.96v32.4464a4.96,4.96,0,0,0,4.96,4.96H84.8376"/><line class="cls-6" x1="130.6917" y1="69.2008" x2="130.6917" y2="85.8862"/><rect class="cls-6" x="88.326" y="64.3837" width="16.9463" height="5.6487"/><path class="cls-8" d="M238.5918,54.6531c.2773,0,1.0312.0772,1.4932.0772.4931,0,.97-.0464,1.247-.0464.17,0,.2461.0308.2461.0923,0,.0771-.0918.1235-.2461.1543-.3691.0766-.4619.1694-.4619.2768a1.6215,1.6215,0,0,0,.2617.5855c.2774.477,1.6319,2.8174,2.001,3.3252.0313.0156.1387.0928.1856.0156.5234-.8623,1.5087-2.479,1.832-3.0332a1.8035,1.8035,0,0,0,.3535-.8159c0-.1846-.1689-.3081-.5693-.3848-.1231-.0307-.2617-.0771-.2617-.1543,0-.0459.0927-.0766.247-.0766.4307,0,.6768.0615,1.1074.0615.37,0,.8633-.0772,1.0938-.0772.17,0,.2773.0308.2773.0923s-.0927.1236-.3388.1543a1.6986,1.6986,0,0,0-1.14.7852c-.8008,1.0312-1.8476,2.8481-2.3086,3.6025a1.7807,1.7807,0,0,0-.2168.6006c-.03.4927-.03,1.3857-.03,2.1094,0,.4,0,.6928.03,1.2163.0313.7236.1387.8926.6778,1.0005.2314.0307.3242.0771.3242.1538s-.1543.0928-.2774.0928c-.6162,0-.9082-.0772-1.4785-.0772-.5234,0-.8164.0615-1.247.0615-.2159,0-.3233-.0459-.3233-.123,0-.0615.1543-.1079.3389-.1387.6162-.0771.708-.2309.7549-.8315.03-.3076.0605-1.3238.0605-1.9859,0-.9546-.0156-1.2319-.03-1.4321a.8666.8666,0,0,0-.1084-.3384c-.5078-.9238-1.7851-3.0639-2.2324-3.6953-.4922-.6772-.7695-.9082-1.2305-1-.247-.0464-.3242-.1079-.3242-.1543C238.2988,54.6531,238.3916,54.6531,238.5918,54.6531Z"/><path class="cls-8" d="M251.4648,61.597a2.9485,2.9485,0,0,1-2.9257,2.9712,2.936,2.936,0,0,1-1.878-5.2344,3.16,3.16,0,0,1,1.8477-.647A2.89,2.89,0,0,1,251.4648,61.597Zm-4.8037-.2158a3.5207,3.5207,0,0,0,.6465,2.1093,1.8284,1.8284,0,0,0,1.4473.816,1.5181,1.5181,0,0,0,.97-.3848,3.0682,3.0682,0,0,0,.6465-2.063c0-1.4629-.7383-2.91-2.0938-2.91C247.4922,58.9485,246.6611,59.78,246.6611,61.3812Z"/><path class="cls-8" d="M253.2217,63.9681a1.6064,1.6064,0,0,1-.292-.94c0-.5078,0-3.11-.0313-3.3716a.6009.6009,0,0,0-.3388-.5083c-.1387-.0922-.1846-.1381-.1846-.1845s.0762-.0772.2461-.0772a5.3967,5.3967,0,0,0,1.293-.2c.0468-.0151.0927.0772.0781.1695-.0469.8779-.0625,2.9716-.0469,3.68a1.708,1.708,0,0,0,.2305,1.0162,1.1337,1.1337,0,0,0,.8633.3852,1.728,1.728,0,0,0,1.3086-.4927.9429.9429,0,0,0,.2763-.7085c.0313-.4155.0313-1.0161.0313-1.57,0-.2309-.0157-.9546-.0157-1.3549-.0156-.5235-.1689-.6-.6767-.7081-.17-.0307-.2471-.0771-.2471-.123,0-.062.1387-.0928.2315-.0928h.6465a8.1765,8.1765,0,0,0,1.0624-.0923c.0459,0,.0762.0616.0606.1695-.0762.7236-.1074,2.2632-.1074,4.0493a5.0817,5.0817,0,0,0,.0312.7851c.0313.1539.0762.1846.1992.1695a4.3188,4.3188,0,0,1,.6319-.1387.1843.1843,0,0,1,.1845.1694c0,.0616-.1386.0923-.2929.1231a6.9586,6.9586,0,0,0-1.585.4155c-.123.0615-.1543.0464-.1845,0s-.0313-.123-.0313-.2925c0-.1538.0156-.4926.0156-.6006,0-.0459-.0156-.1538-.0469-.1074a4.4276,4.4276,0,0,1-1.0615.7544,2.6421,2.6421,0,0,1-.9092.231A1.5132,1.5132,0,0,1,253.2217,63.9681Z"/><path class="cls-8" d="M262.4307,61.3353a2.5891,2.5891,0,0,0,.77,2.0014,2.1837,2.1837,0,0,0,1.4316.5386,2.0623,2.0623,0,0,0,1.6006-.585c.03-.0307.1084-.0459.1084,0a.4043.4043,0,0,1-.123.2466,2.6639,2.6639,0,0,1-2.125,1.0161,2.8069,2.8069,0,0,1-1.9249-.7544,2.9,2.9,0,0,1-.7695-2.0786,2.9454,2.9454,0,0,1,.9385-2.14,3.3769,3.3769,0,0,1,2.2793-.8931,2.34,2.34,0,0,1,1.4.3853.3525.3525,0,0,1,.2158.2925.5251.5251,0,0,1-.3848.4926.4771.4771,0,0,1-.2617-.1543,4.2228,4.2228,0,0,0-.8623-.6308,1.3823,1.3823,0,0,0-.585-.1236C263.4932,58.9485,262.4307,59.5648,262.4307,61.3353Z"/><path class="cls-8" d="M270.7461,59.4725a3.7359,3.7359,0,0,1,.2148,1.4009c0,.57-.0459,2.0322-.0459,2.4326a.5275.5275,0,0,0,.5694.5849.9861.9861,0,0,0,.4472-.1386c.0918-.0459.1534,0,.0918.1386a1.2967,1.2967,0,0,1-1.1855.6621,1.0344,1.0344,0,0,1-.9082-.6928.0542.0542,0,0,0-.0772-.0157,2.1544,2.1544,0,0,1-1.5087.6929,1.2774,1.2774,0,0,1-1.2315-1.3237,1.0852,1.0852,0,0,1,.5537-.8779c.37-.2,1.7715-.6158,2.0938-.7388a.2932.2932,0,0,0,.2011-.231,5.303,5.303,0,0,0,.03-.7085c0-.6308-.1084-1.062-.37-1.2622a1.17,1.17,0,0,0-.6465-.2466,1.0584,1.0584,0,0,0-.6152.1851.6146.6146,0,0,0-.2305.3691,1.5756,1.5756,0,0,0-.0156.293.19.19,0,0,1-.0625.1231,3.3066,3.3066,0,0,1-.7227.3388c-.0771.0152-.1543-.0771-.1543-.1386,0-.108.1074-.2466.293-.462a3.9806,3.9806,0,0,1,1.17-.893,2.0661,2.0661,0,0,1,.9238-.2774A1.2627,1.2627,0,0,1,270.7461,59.4725Zm-1.0313,4.2339a.64.64,0,0,0,.168-.37,10.8729,10.8729,0,0,0,.0781-1.4629c0-.0151-.0312-.0922-.0625-.0766a8.683,8.683,0,0,0-1.416.5234.7968.7968,0,0,0-.3847.77.8941.8941,0,0,0,.9238.8624A1.0588,1.0588,0,0,0,269.7148,63.7064Z"/><path class="cls-8" d="M277.3984,59.2108a3.216,3.216,0,0,1,.4922,2.0166c0,.8159.0156.9394.0156,1.7089.0157,1.0469.0616,1.1392.4766,1.2471.1387.0615.2315.0923.2315.1538,0,.0928-.1231.1079-.2764.1079-.2012,0-.6475-.0615-.9863-.0615-.5235,0-.7227.0615-.9541.0615-.1387,0-.2471-.0307-.2471-.0923s.0928-.123.293-.1694c.3691-.0923.4316-.2.4316-.6465V61.4432c0-1.2471-.1074-1.6167-.4932-1.9092a1.3679,1.3679,0,0,0-.8779-.2925,1.8372,1.8372,0,0,0-1.2.4927.7924.7924,0,0,0-.1846.4619c0,.1846.0157.97.0157,1.8936a12.4325,12.4325,0,0,0,.0918,1.6167c.0459.3383.23.4155.4765.4926.1856.0459.2617.0767.2617.1538,0,.0923-.1533.0923-.3066.0923-.123,0-.8779-.0615-1.2324-.0615-.2,0-.5235.0308-.8164.0308-.169,0-.292-.0308-.292-.1079,0-.0616.1387-.1231.3232-.1539.3848-.0771.4473-.1845.4619-.4926.03-1.1084.03-2.5249.03-3.772,0-.1538-.03-.3232-.4-.5234-.0918-.0616-.123-.0923-.123-.1387,0-.0308.0781-.0772.2168-.1231a5.7964,5.7964,0,0,0,1.2158-.5234c.0459-.0156.123.0459.1074.1231a7.0939,7.0939,0,0,0-.03.8159c0,.0307.0459.0771.0762.0464a5.2978,5.2978,0,0,1,1.0938-.6929,2.0764,2.0764,0,0,1,.9082-.1851A1.5738,1.5738,0,0,1,277.3984,59.2108Z"/><path class="cls-8" d="M285.5293,58.9949a1.1235,1.1235,0,0,0,.5391.0772c.292,0,.9082-.0308,1.1386-.0308.0772,0,.1387.1538.1387.3384,0,.1543-.1074.2773-.1689.2773-.2159,0-.7706-.0307-.94-.0307a.1385.1385,0,0,0-.0928.0923c0,.1079.0313.354.0313.6313a2.5475,2.5475,0,0,1-.97,2.0786,2.1241,2.1241,0,0,1-1.2012.4,3.7358,3.7358,0,0,1-.6465-.0766.2957.2957,0,0,0-.1846.0459,2.3474,2.3474,0,0,0-.539.5083.4894.4894,0,0,0-.17.3383c0,.4932.6309.647,1.4327.647.4765,0,1.3232-.0464,1.7548-.0464a1.59,1.59,0,0,1,1.7247,1.709,3.1084,3.1084,0,0,1-1.7247,2.51,3.6759,3.6759,0,0,1-1.8632.5078c-1.2315,0-2.2637-.585-2.2637-1.7241a.9819.9819,0,0,1,.2773-.6621c.1084-.1231.6778-.8467.9864-1.1856.0146-.0307.03-.123-.0157-.1387-.4316-.0922-1.248-.6313-1.248-1.247a.1931.1931,0,0,1,.0928-.1538,6.7666,6.7666,0,0,0,1.2783-1.1392c.0156-.0156,0-.0771-.0313-.0928a2.3231,2.3231,0,0,1-1.1855-1.9243,1.8594,1.8594,0,0,1,.6465-1.478,2.3706,2.3706,0,0,1,1.6328-.6314A3.4894,3.4894,0,0,1,285.5293,58.9949Zm-2.5713,8.9912a2.1053,2.1053,0,0,0,1.4629.462,2.3949,2.3949,0,0,0,1.4316-.3692,2.057,2.057,0,0,0,.8311-1.5859c0-.647-.4-1.2163-1.3857-1.2163-.585,0-1.3389.0151-1.7549.0307a.9493.9493,0,0,0-.5235.1387,1.9472,1.9472,0,0,0-.6621,1.37A1.576,1.576,0,0,0,282.958,67.9861Zm.1377-8.8374a2.1576,2.1576,0,0,0-.415,1.355,2.7942,2.7942,0,0,0,.4775,1.6475,1.2562,1.2562,0,0,0,.9541.4463c.708,0,1.17-.8467,1.17-1.5547a2.7555,2.7555,0,0,0-.4765-1.7246,1.0848,1.0848,0,0,0-.9239-.5235A1.1589,1.1589,0,0,0,283.0957,59.1487Z"/><path class="cls-8" d="M292.4893,60.2576a.181.181,0,0,1-.1543.169c-.1231-.0152-2.125-.0459-2.4786-.0459h-.831c-.0313,0-.1084.0771-.1387.123a2.1156,2.1156,0,0,0-.123.8467,2.76,2.76,0,0,0,.708,1.8633,2.0772,2.0772,0,0,0,1.539.6308,1.963,1.963,0,0,0,1.4629-.4926c.1231-.1231.1846-.0923.1846-.0152a.585.585,0,0,1-.1533.2461,2.7223,2.7223,0,0,1-2.1406.97,2.4855,2.4855,0,0,1-1.8321-.7851,3.0107,3.0107,0,0,1-.7392-2.063,3.21,3.21,0,0,1,.8935-2.2481,2.8632,2.8632,0,0,1,1.9239-.77A1.7769,1.7769,0,0,1,292.4893,60.2576Zm-3.1407-.7851a1.3435,1.3435,0,0,0-.3232.6308.0658.0658,0,0,0,.0615.0616l2.001-.0152c.3389,0,.3691-.1694.3691-.3081a.9921.9921,0,0,0-.2148-.6465,1.08,1.08,0,0,0-.7705-.2925A1.5961,1.5961,0,0,0,289.3486,59.4725Z"/><path class="cls-8" d="M294.0146,63.8138a1.7325,1.7325,0,0,1-.1845-.8775v-3.187c0-.1694-.0156-.2768-.0772-.3081a2.5369,2.5369,0,0,0-.3691-.0923c-.1231-.0307-.2-.0766-.2-.1381,0-.0313.0156-.0772.1846-.1543a3.2823,3.2823,0,0,0,1.2627-1.0313c.1386-.1543.2461-.1235.2461-.0464,0,.1387-.03.57-.0147.7544,0,.0464.0147.1387.0762.1387.2773,0,1.5556-.0464,1.8789-.0464.03,0,.0918.1079.0918.2158,0,.2617-.0762.3848-.1533.3848-.5391,0-1.294-.0156-1.709-.0156-.1846,0-.2158.0463-.2158.1386,0,.2618.0156,2.6792.0312,3.1563a1.5791,1.5791,0,0,0,.1689.8315,1.1379,1.1379,0,0,0,.9542.4156,1.508,1.508,0,0,0,.8476-.231c.1074-.0772.1533-.0615.1533,0,0,.0923-.1386.2466-.3388.4a2.1127,2.1127,0,0,1-1.2471.4A1.427,1.427,0,0,1,294.0146,63.8138Z"/><path class="cls-8" d="M300.4668,63.8138a1.7324,1.7324,0,0,1-.1846-.8775v-3.187c0-.1694-.0156-.2768-.0771-.3081a2.5389,2.5389,0,0,0-.3692-.0923c-.123-.0307-.2-.0766-.2-.1381,0-.0313.0157-.0772.1846-.1543a3.2808,3.2808,0,0,0,1.2627-1.0313c.1387-.1543.2461-.1235.2461-.0464,0,.1387-.03.57-.0146.7544,0,.0464.0146.1387.0761.1387.2774,0,1.5557-.0464,1.8789-.0464.03,0,.0918.1079.0918.2158,0,.2617-.0761.3848-.1533.3848-.5391,0-1.2939-.0156-1.709-.0156-.1845,0-.2158.0463-.2158.1386,0,.2618.0156,2.6792.0313,3.1563a1.5781,1.5781,0,0,0,.1689.8315,1.1379,1.1379,0,0,0,.9541.4156,1.5084,1.5084,0,0,0,.8477-.231c.1074-.0772.1533-.0615.1533,0,0,.0923-.1387.2466-.3389.4a2.11,2.11,0,0,1-1.2471.4A1.4269,1.4269,0,0,1,300.4668,63.8138Z"/><path class="cls-8" d="M305.6113,59.7957a.7726.7726,0,0,0-.1543.5694,30.3578,30.3578,0,0,0,.0772,3.3105.5436.5436,0,0,0,.4922.5234c.2314.0459.3388.0767.3388.1538,0,.0464-.0918.0923-.23.0923-.4317,0-.8321-.0615-1.2784-.0615-.4775,0-.708.0615-1.0009.0615-.169,0-.2461-.0307-.2461-.0923s.0615-.0922.2461-.1386c.4472-.1079.5547-.1538.57-.7388.0459-.6162.0615-2.0322.0615-4.48,0-2.3247.03-3.2641,0-3.8491-.0156-.4927-.123-.5386-.4619-.7236-.0615-.0459-.1084-.0767-.1084-.1231s.0928-.0923.2617-.1386a6.3508,6.3508,0,0,0,1.124-.37.3386.3386,0,0,1,.1543-.0615c.0459,0,.0928.1079.0772.3237-.0156.4156-.0772,5.1885-.0615,5.481,0,.0615.0459.0767.0615.0459a5.0583,5.0583,0,0,1,.9238-.6314,2.4211,2.4211,0,0,1,1.0772-.2617,1.64,1.64,0,0,1,1.3857.6929,2.97,2.97,0,0,1,.3389,1.6475c.0156,1.1547.0156,2.1093.0312,2.6943,0,.3081.0615.416.5235.4927.2.0464.246.0771.246.1386s-.1074.108-.246.108c-.4,0-.6934-.0772-1.1084-.0772-.5235,0-.6475.0615-1.001.0615-.1846,0-.2461-.0459-.2461-.0923,0-.0615.0762-.0922.2305-.123.416-.0923.4462-.2.5078-.647.0312-.354.0615-1.0312.0615-2.6323a2.4657,2.4657,0,0,0-.2305-1.1548,1.1524,1.1524,0,0,0-1.0625-.57A1.8586,1.8586,0,0,0,305.6113,59.7957Z"/><path class="cls-8" d="M315.4512,60.2576a.181.181,0,0,1-.1543.169c-.1231-.0152-2.125-.0459-2.4785-.0459h-.8311c-.0312,0-.1084.0771-.1387.123a2.1114,2.1114,0,0,0-.124.8467,2.7608,2.7608,0,0,0,.709,1.8633,2.0773,2.0773,0,0,0,1.5391.6308,1.9629,1.9629,0,0,0,1.4628-.4926c.1231-.1231.1846-.0923.1846-.0152a.585.585,0,0,1-.1533.2461,2.7223,2.7223,0,0,1-2.1406.97,2.4857,2.4857,0,0,1-1.8321-.7851,3.0107,3.0107,0,0,1-.7392-2.063,3.2108,3.2108,0,0,1,.8935-2.2481,2.8634,2.8634,0,0,1,1.9239-.77A1.7769,1.7769,0,0,1,315.4512,60.2576Zm-3.1407-.7851a1.3435,1.3435,0,0,0-.3232.6308.0658.0658,0,0,0,.0615.0616l2.001-.0152c.3389,0,.3691-.1694.3691-.3081a.9921.9921,0,0,0-.2148-.6465,1.08,1.08,0,0,0-.77-.2925A1.5961,1.5961,0,0,0,312.3105,59.4725Z"/><path class="cls-8" d="M239.8691,76.6727c0,.6465.586,1.0156.9707,1.247,1,.6465,1.4,1.0313,1.4,1.8164a1.5781,1.5781,0,0,1-.8007,1.293,2.5506,2.5506,0,0,1-1.2315.3389,3.1191,3.1191,0,0,1-1.2158-.2774c-.1231-.0459-.2315-.1533-.2315-.2461,0-.2158-.03-.6-.0459-.7695-.0312-.2.0157-.2461.0459-.2461.0459,0,.0928,0,.2.292a1.5028,1.5028,0,0,0,.6465.832,1.1856,1.1856,0,0,0,.6934.1846,1.0554,1.0554,0,0,0,1-1.0322c0-.585-.4-.9082-1.0156-1.293-.6622-.4306-1.2774-1.001-1.2774-1.6777a1.4614,1.4614,0,0,1,.584-1.2168,1.995,1.995,0,0,1,1.2939-.4307,3.7709,3.7709,0,0,1,1.0469.169.2558.2558,0,0,1,.0772.1386c.0156.169.0761.4776.0918.7237,0,.1689-.03.2461-.0762.2461-.0625,0-.0928-.0772-.1387-.1846a1.1685,1.1685,0,0,0-.37-.6309,1.2633,1.2633,0,0,0-.7236-.2314A.8975.8975,0,0,0,239.8691,76.6727Z"/><path class="cls-8" d="M243.8428,80.6141a1.7347,1.7347,0,0,1-.1846-.878V76.55c0-.17-.0156-.2773-.0771-.3086a2.5736,2.5736,0,0,0-.37-.0918c-.123-.0312-.1992-.0771-.1992-.1386,0-.0313.0156-.0772.1846-.1543a3.2834,3.2834,0,0,0,1.2627-1.0313c.1387-.1543.2461-.123.2461-.0469,0,.1387-.0313.57-.0156.7549,0,.0459.0156.1387.0771.1387.2764,0,1.5547-.0459,1.8779-.0459.0313,0,.0928.1074.0928.2148,0,.2618-.0771.3848-.1543.3848-.5381,0-1.293-.0146-1.709-.0146-.1845,0-.2158.0459-.2158.1386,0,.2617.0156,2.6787.0313,3.1563a1.5743,1.5743,0,0,0,.17.831,1.1382,1.1382,0,0,0,.9541.416,1.5026,1.5026,0,0,0,.8467-.2314c.1074-.0771.1543-.0615.1543,0,0,.0928-.1387.2461-.3389.4a2.1124,2.1124,0,0,1-1.2471.4A1.4273,1.4273,0,0,1,243.8428,80.6141Z"/><path class="cls-8" d="M253.082,78.3963a2.9485,2.9485,0,0,1-2.9258,2.9717,2.9365,2.9365,0,0,1-1.8789-5.2344,3.1645,3.1645,0,0,1,1.8477-.6465A2.89,2.89,0,0,1,253.082,78.3963Zm-4.8047-.2148a3.53,3.53,0,0,0,.6465,2.1093,1.8317,1.8317,0,0,0,1.4473.8155,1.5208,1.5208,0,0,0,.9707-.3848,3.0687,3.0687,0,0,0,.6465-2.0635c0-1.4619-.7393-2.9092-2.0938-2.9092C249.1094,75.7488,248.2773,76.58,248.2773,78.1815Z"/><path class="cls-8" d="M255.9473,76.6111a.8807.8807,0,0,0-.2618.5381,8.7819,8.7819,0,0,0-.0156.94c0,1.14.0313,1.94.0615,2.2637.0616.4765.2461.5849.8311.6464.2158.03.293.0616.293.1387s-.1387.1074-.3692.1074c-.2929,0-.8008-.0615-1.4472-.0615a8.26,8.26,0,0,0-.9395.0928c-.1855,0-.2617-.0313-.2617-.0928,0-.0459.1074-.123.2305-.1543a.6354.6354,0,0,0,.5546-.6308c.0313-.2618.0459-1.14.0459-2.1553V76.534c0-.1084-.1084-.1543-.4-.4-.1075-.0771-.1231-.123-.1231-.1543s.0928-.0918.2315-.1387a4.6047,4.6047,0,0,0,.9843-.3691.4926.4926,0,0,1,.2315-.0772c.03,0,.0615.0616.0615.2159,0,.1689-.0156.7539-.0156,1.0009,0,.0459.0312.0616.0771.0147a2.5148,2.5148,0,0,1,1.6631-1.1084.8986.8986,0,0,1,.5391.2.2712.2712,0,0,1,.1074.2158,1.0551,1.0551,0,0,1-.3389.5234c-.1377.1231-.2.1387-.2461.1387a.6932.6932,0,0,1-.2773-.1084,1.0789,1.0789,0,0,0-.5381-.1845A1.0465,1.0465,0,0,0,255.9473,76.6111Z"/><path class="cls-8" d="M260.69,75.6258c.1543,0,.2617.0459.2617.1074s-.1074.1074-.1992.1231c-.3389.1074-.3692.1845-.2305.5849.1992.5391,1.0469,2.6172,1.3535,3.2647.0312.0615.0781.0459.0928,0,.2-.5244,1.0625-2.7412,1.1855-3.0948a1.156,1.156,0,0,0,.0772-.4472c0-.1074-.0772-.23-.3389-.3076-.2314-.0459-.2764-.0918-.2764-.1387,0-.0615.0762-.0918.2149-.0918.1855,0,.5078.0459.7392.0459.2764,0,.4776-.0459.708-.0459.0918,0,.1856.0146.1856.0615s-.0625.1074-.2168.1533c-.3076.0928-.4609.2-.707.77-.1856.3848-1.1407,2.7559-1.3711,3.3409-.1846.5078-.3233.8623-.6465,1.6933-.3692.8926-.9551,2.4942-1.17,3.0176a2.1233,2.1233,0,0,1-.293.5693.578.578,0,0,1-.5078.2618.5119.5119,0,0,1-.5078-.5079.4538.4538,0,0,1,.4306-.4462c.1084,0,.2.03.3076.03a.3713.3713,0,0,0,.4-.2617c.1543-.3232.6016-1.585,1.125-2.9248a.6727.6727,0,0,0-.0156-.4932c-.0928-.2461-1.2168-3.0937-1.91-4.6025a.8224.8224,0,0,0-.5538-.416c-.1845-.0459-.2763-.1074-.2763-.1543,0-.0772.1377-.1074.2461-.1074.2773,0,.708.0615,1.0771.0615C260.09,75.6717,260.49,75.6258,260.69,75.6258Z"/><path class="cls-8" d="M272.9316,78.3963a2.9486,2.9486,0,0,1-2.9248,2.9717,2.9355,2.9355,0,0,1-1.8779-5.2344,3.1565,3.1565,0,0,1,1.8477-.6465A2.8882,2.8882,0,0,1,272.9316,78.3963Zm-4.8027-.2148a3.523,3.523,0,0,0,.6465,2.1093,1.8289,1.8289,0,0,0,1.4473.8155,1.5225,1.5225,0,0,0,.97-.3848,3.0687,3.0687,0,0,0,.6465-2.0635c0-1.4619-.7393-2.9092-2.0938-2.9092C268.959,75.7488,268.1289,76.58,268.1289,78.1815Z"/><path class="cls-8" d="M274.52,76.4412c0-.1074-.0156-.1845-.0771-.2-.0772,0-.2471,0-.4307-.0156-.1084-.0146-.2012-.0918-.2012-.123,0-.0459.0772-.0918.1856-.1534s.2305-.1386.3691-.2314a.3.3,0,0,0,.1543-.2158,9.7909,9.7909,0,0,1,.2617-2.5244,3.5455,3.5455,0,0,1,1.5547-2.0479,2.5207,2.5207,0,0,1,1.3858-.4155c.6308,0,1.0469.2617,1.0469.4927a.7575.7575,0,0,1-.3848.5078.2767.2767,0,0,1-.3076-.0308,1.8232,1.8232,0,0,0-1.0938-.5234c-.6933,0-1.2314.4467-1.3857,2.0942-.0459.4771-.0772,1.57-.0772,2.0479a4.4031,4.4031,0,0,0,.0157.4921.1213.1213,0,0,0,.123.0928c.1387,0,1.4473-.0312,1.6172-.0312.06,0,.123.0927.123.2773,0,.2158-.0312.2774-.2158.2774-.2461,0-1.3545-.0313-1.57-.0313-.0459,0-.0771.1231-.0771.1387,0,.5693.0312,3.372.0468,3.8183.045.585.169.708.3223.7539.123.0469.293.0469.4932.0928.1845.0459.2773.0772.2773.1387,0,.0771-.1084.1074-.2471.1074-.4453,0-.6923-.0459-1.4775-.0459-.3545,0-.6924.0459-.9541.0615-.1387,0-.2315-.03-.2315-.0927s.1084-.1075.3077-.1534c.37-.0927.4472-.3086.4472-.8623Z"/><path class="cls-8" d="M280.2637,71.4529c.4765,0,.97.0772,1.3847.0772.4776,0,.9082-.0615,1.2627-.0615.1846,0,.2471.0307.2471.0766,0,.0772-.0928.1236-.2158.1543-.6319.1231-.6621.2154-.708,1.2779-.0156.2617-.0313,1.6777-.0313,3.0791,0,1.4628.0157,3.0019.0313,3.2949a2.84,2.84,0,0,0,.2148,1.2158c.17.2314.586.3857,1.832.3857a6.7708,6.7708,0,0,0,1.3555-.0771c.3389-.0615.6768-.4473.9854-1.001.1074-.1846.1845-.2461.2461-.2461s.0459.2305-.0313.4307c-.0459.123-.3379.97-.3994,1.0781a.3665.3665,0,0,1-.3242.1533c-.1533,0-1.3233.0157-2.0781-.03-.77-.0313-1.879-.0772-2.417-.0772-.4776,0-1.1709.0772-1.3858.0772-.1845,0-.3232-.0157-.3232-.1084,0-.0616.1387-.1075.2763-.1231.6622-.123.7549-.3389.8008-.8154.0625-.6162.0625-1.6319.0625-3.7569,0-2.0937-.0156-3.1562-.0468-3.68-.0459-.8775-.0918-.97-.754-1.0933-.1855-.0308-.23-.0767-.23-.1387C280.0176,71.4993,280.1094,71.4529,280.2637,71.4529Z"/><path class="cls-8" d="M291.3662,76.2723a3.7347,3.7347,0,0,1,.2149,1.4c0,.57-.0459,2.0332-.0459,2.4326a.5272.5272,0,0,0,.5693.5849.99.99,0,0,0,.4473-.1376c.0918-.0469.1533,0,.0918.1376a1.2961,1.2961,0,0,1-1.1856.6622,1.0332,1.0332,0,0,1-.9082-.6924.0533.0533,0,0,0-.0771-.0157,2.1533,2.1533,0,0,1-1.5088.6934,1.2775,1.2775,0,0,1-1.2315-1.3242,1.0865,1.0865,0,0,1,.5537-.8779c.37-.2,1.7715-.6153,2.0948-.7393a.2907.2907,0,0,0,.2-.23,5.32,5.32,0,0,0,.03-.708c0-.6318-.1074-1.0625-.3691-1.2627a1.17,1.17,0,0,0-.6465-.2461,1.059,1.059,0,0,0-.6162.1846.6189.6189,0,0,0-.2315.3691,1.6762,1.6762,0,0,0-.0146.293.1945.1945,0,0,1-.0615.1231,3.355,3.355,0,0,1-.7237.3388c-.0771.0157-.1543-.0771-.1543-.1386,0-.1075.1075-.2461.293-.462a3.9692,3.9692,0,0,1,1.17-.8925,2.0536,2.0536,0,0,1,.9239-.2774A1.2621,1.2621,0,0,1,291.3662,76.2723Zm-1.0322,4.2334a.6391.6391,0,0,0,.17-.3692,11.0837,11.0837,0,0,0,.0772-1.4629c0-.0156-.0313-.0918-.0625-.0771a8.7747,8.7747,0,0,0-1.4161.5234.7981.7981,0,0,0-.3847.77.8943.8943,0,0,0,.9238.8623A1.0526,1.0526,0,0,0,290.334,80.5057Z"/><path class="cls-8" d="M294.3535,76.6727c0,.6465.585,1.0156.9707,1.247,1,.6465,1.4,1.0313,1.4,1.8164a1.5779,1.5779,0,0,1-.8008,1.293,2.55,2.55,0,0,1-1.2314.3389,3.1191,3.1191,0,0,1-1.2158-.2774c-.1231-.0459-.2315-.1533-.2315-.2461,0-.2158-.03-.6-.0459-.7695-.0312-.2.0156-.2461.0459-.2461.0459,0,.0928,0,.2.292a1.5067,1.5067,0,0,0,.6465.832,1.1835,1.1835,0,0,0,.6934.1846,1.0561,1.0561,0,0,0,1.0009-1.0322c0-.585-.4-.9082-1.0166-1.293-.6621-.4306-1.2783-1.001-1.2783-1.6777a1.46,1.46,0,0,1,.5859-1.2168,1.99,1.99,0,0,1,1.293-.4307,3.7646,3.7646,0,0,1,1.0469.169.2556.2556,0,0,1,.0771.1386c.0157.169.0772.4776.0918.7237,0,.1689-.03.2461-.0761.2461-.0625,0-.0928-.0772-.1387-.1846a1.1691,1.1691,0,0,0-.37-.6309,1.2636,1.2636,0,0,0-.7237-.2314A.8975.8975,0,0,0,294.3535,76.6727Z"/><path class="cls-8" d="M299.9746,71.4686c.3545.0151,1.293.0615,1.7861.0615.0616,0,.1387.0615.2.2153.6621,1.4629,2.833,5.7739,3.8028,7.59.0459.0927.0771.0312.1386-.0616.9082-1.7392,2.8633-5.5424,3.2334-6.2968a13.1757,13.1757,0,0,0,.462-1.2471c.0146-.0308.0761-.2.1533-.2.4316,0,1.247-.0923,1.6787-.0923.1533,0,.2461.0308.2461.0923s-.1231.123-.2315.1387c-.9082.2153-.97.3847-1.0156,1.2929-.0312.5235-.0459,2.3711-.0459,3.1407,0,1.6787.0615,3.2031.0918,3.6953.0615.8925.2315,1.0312.832,1.2168.1377.0459.2461.0918.2461.1689,0,.0615-.0927.0928-.2773.0928-.293,0-1.124-.0928-1.54-.0928-.6309,0-1.0469.0313-1.2774.0313-.1543,0-.3232-.0157-.3232-.1241,0-.0615.1533-.123.3076-.1377.6465-.17.7549-.416.8008-1.6943.0459-.831.0459-4.957.0459-5.65,0-.1543-.0459-.1543-.0772-.062-1.0312,2.0635-2.9248,5.7588-3.664,7.4062-.0772.1846-.1387.2764-.2305.2764-.0772,0-.1846-.2461-.3233-.5391-.7236-1.5546-2.7714-5.8349-3.3564-7.02-.0772-.1386-.1084-.1386-.1387.0767-.0615.8935-.2314,4.8808-.2314,5.5117a3.8456,3.8456,0,0,0,.0928,1.124.9012.9012,0,0,0,.7851.6162c.169.03.2617.0918.2617.1534,0,.0927-.1386.124-.3076.1084-.1855-.0157-.7392-.0772-1.2939-.0772s-.97.0928-1.1241.0928c-.1992,0-.2763-.0313-.2763-.1084,0-.0459.0615-.1074.2763-.1533a1.158,1.158,0,0,0,.8321-.4932,4.4218,4.4218,0,0,0,.3232-1.6631c.0928-.9082.3076-4.3262.3076-5.3115,0-.9233-.0918-1.1392-.3535-1.4468a1.3123,1.3123,0,0,0-.8476-.4c-.1377-.0307-.2461-.0923-.2461-.1543S299.8359,71.4529,299.9746,71.4686Z"/><path class="cls-8" d="M316.9141,77.0574a.1806.1806,0,0,1-.1543.169c-.1231-.0156-2.125-.0459-2.4786-.0459h-.831c-.0313,0-.1084.0771-.1387.123a2.1128,2.1128,0,0,0-.124.8467,2.76,2.76,0,0,0,.709,1.8633,2.0772,2.0772,0,0,0,1.539.6308,1.9668,1.9668,0,0,0,1.4629-.4921c.1231-.1231.1846-.0928.1846-.0157a.585.585,0,0,1-.1533.2461,2.7219,2.7219,0,0,1-2.1406.97,2.4837,2.4837,0,0,1-1.8321-.7852,3.0082,3.0082,0,0,1-.7392-2.0625,3.21,3.21,0,0,1,.8935-2.248,2.8628,2.8628,0,0,1,1.9239-.77A1.7765,1.7765,0,0,1,316.9141,77.0574Zm-3.1407-.7851a1.3414,1.3414,0,0,0-.3232.6308.0654.0654,0,0,0,.0615.0616l2.001-.0157c.3389,0,.3691-.1689.3691-.3076a.9921.9921,0,0,0-.2148-.6465,1.0779,1.0779,0,0,0-.77-.2929A1.5966,1.5966,0,0,0,313.7734,76.2723Z"/><path class="cls-8" d="M319.64,76.6111a.8866.8866,0,0,0-.2617.5381,9.054,9.054,0,0,0-.0156.94c0,1.14.0313,1.94.0615,2.2637.0616.4765.2471.5849.8321.6464.2148.03.292.0616.292.1387s-.1387.1074-.3692.1074c-.293,0-.8008-.0615-1.4473-.0615a8.2852,8.2852,0,0,0-.9394.0928c-.1846,0-.2617-.0313-.2617-.0928,0-.0459.1084-.123.2314-.1543a.6345.6345,0,0,0,.5537-.6308c.0313-.2618.0469-1.14.0469-2.1553V76.534c0-.1084-.1084-.1543-.4-.4-.1084-.0771-.123-.123-.123-.1543s.0918-.0918.23-.1387a4.6124,4.6124,0,0,0,.9854-.3691.4864.4864,0,0,1,.2314-.0772c.03,0,.0616.0616.0616.2159,0,.1689-.0157.7539-.0157,1.0009,0,.0459.03.0616.0772.0147a2.515,2.515,0,0,1,1.6621-1.1084.8965.8965,0,0,1,.5391.2.2694.2694,0,0,1,.1084.2158,1.0551,1.0551,0,0,1-.3389.5234c-.1387.1231-.2.1387-.2471.1387a.6919.6919,0,0,1-.2764-.1084,1.0848,1.0848,0,0,0-.539-.1845A1.0487,1.0487,0,0,0,319.64,76.6111Z"/><path class="cls-8" d="M323.06,78.1346a2.5887,2.5887,0,0,0,.7695,2.0019,2.1907,2.1907,0,0,0,1.4316.5391,2.0692,2.0692,0,0,0,1.6016-.585c.03-.0312.1074-.0468.1074,0a.396.396,0,0,1-.123.2461,2.6636,2.6636,0,0,1-2.125,1.0157,2.8061,2.8061,0,0,1-1.9238-.754,2.8994,2.8994,0,0,1-.7706-2.0781,2.9424,2.9424,0,0,1,.9395-2.1406,3.376,3.376,0,0,1,2.2783-.8926,2.3438,2.3438,0,0,1,1.4014.3848.3546.3546,0,0,1,.2158.292.5263.5263,0,0,1-.3848.4931.4708.4708,0,0,1-.2617-.1543,4.2512,4.2512,0,0,0-.8623-.6308,1.3764,1.3764,0,0,0-.5849-.1231C324.1211,75.7488,323.06,76.3641,323.06,78.1346Z"/><path class="cls-8" d="M332.3135,77.0574a.1806.1806,0,0,1-.1543.169c-.1231-.0156-2.125-.0459-2.4785-.0459H328.85c-.0312,0-.1084.0771-.1387.123a2.1169,2.1169,0,0,0-.123.8467,2.7593,2.7593,0,0,0,.708,1.8633,2.0773,2.0773,0,0,0,1.5391.6308,1.9671,1.9671,0,0,0,1.4629-.4921c.123-.1231.1845-.0928.1845-.0157a.585.585,0,0,1-.1533.2461,2.7219,2.7219,0,0,1-2.1406.97,2.4839,2.4839,0,0,1-1.8321-.7852,3.0082,3.0082,0,0,1-.7392-2.0625,3.21,3.21,0,0,1,.8935-2.248,2.8628,2.8628,0,0,1,1.9239-.77A1.7764,1.7764,0,0,1,332.3135,77.0574Zm-3.1406-.7851a1.3408,1.3408,0,0,0-.3233.6308.0654.0654,0,0,0,.0615.0616l2.001-.0157c.3389,0,.3691-.1689.3691-.3076a.9915.9915,0,0,0-.2148-.6465,1.0779,1.0779,0,0,0-.77-.2929A1.5962,1.5962,0,0,0,329.1729,76.2723Z"/><path class="cls-8" d="M337.4414,75.64c.0313.0157.0772-.0459.0772-.0761,0-.2774-.0157-3.003-.03-3.8189a.4137.4137,0,0,0-.0615-.2617.8427.8427,0,0,0-.4317-.2461c-.1074-.0308-.1846-.0771-.1846-.123s.0772-.0928.1846-.1079a6.477,6.477,0,0,0,1.3242-.37.5185.5185,0,0,1,.2159-.0771c.0459,0,.0771.0771.0615.2617-.0313.4619-.1084,5.4663-.1084,7.0366,0,1.3389.0156,2.4014.0312,2.8018a.1366.1366,0,0,0,.1075.1386,3.9774,3.9774,0,0,0,.7236-.17c.0928-.03.1387.0156.1387.0615,0,.1084-.1075.2471-.3848.293a8.67,8.67,0,0,0-1.6016.4c-.0615.0156-.1074-.0615-.1074-.1074a4.7816,4.7816,0,0,0,.0313-.6319c0-.03-.0313-.0615-.0616-.03a2.8927,2.8927,0,0,1-1.7558.7236,2.5071,2.5071,0,0,1-1.6319-.6475,2.9157,2.9157,0,0,1-.8007-2.0625,3.0615,3.0615,0,0,1,1.34-2.54,3.4589,3.4589,0,0,1,1.9092-.5859A4.2568,4.2568,0,0,1,337.4414,75.64Zm-2.2939.4161a2.7346,2.7346,0,0,0-.8467,2.2324c0,1.6631.9394,2.5254,1.8789,2.5254a1.61,1.61,0,0,0,1.0928-.4,1.0343,1.0343,0,0,0,.1689-.57,21.2679,21.2679,0,0,0-.0146-2.9707,1.035,1.035,0,0,0-.1387-.37,1.715,1.715,0,0,0-1.37-.708A1.14,1.14,0,0,0,335.1475,76.0565Z"/><path class="cls-8" d="M344.7109,77.0574a.18.18,0,0,1-.1543.169c-.123-.0156-2.125-.0459-2.4785-.0459h-.831c-.0313,0-.1084.0771-.1387.123a2.111,2.111,0,0,0-.124.8467,2.76,2.76,0,0,0,.709,1.8633,2.0772,2.0772,0,0,0,1.539.6308,1.9668,1.9668,0,0,0,1.4629-.4921c.1231-.1231.1846-.0928.1846-.0157a.585.585,0,0,1-.1533.2461,2.7219,2.7219,0,0,1-2.1407.97,2.4837,2.4837,0,0,1-1.832-.7852,3.0083,3.0083,0,0,1-.7393-2.0625,3.21,3.21,0,0,1,.8936-2.248,2.8623,2.8623,0,0,1,1.9238-.77A1.7764,1.7764,0,0,1,344.7109,77.0574Zm-3.1406-.7851a1.3414,1.3414,0,0,0-.3232.6308.0654.0654,0,0,0,.0615.0616l2.001-.0157c.3388,0,.3691-.1689.3691-.3076a.9921.9921,0,0,0-.2148-.6465,1.0779,1.0779,0,0,0-.7705-.2929A1.5964,1.5964,0,0,0,341.57,76.2723Z"/><path class="cls-8" d="M346.7129,76.6727c0,.6465.585,1.0156.9707,1.247,1,.6465,1.4,1.0313,1.4,1.8164a1.5779,1.5779,0,0,1-.8008,1.293,2.55,2.55,0,0,1-1.2314.3389,3.12,3.12,0,0,1-1.2159-.2774c-.123-.0459-.2314-.1533-.2314-.2461,0-.2158-.03-.6-.0459-.7695-.0313-.2.0156-.2461.0459-.2461.0459,0,.0928,0,.2.292a1.5062,1.5062,0,0,0,.6465.832,1.1834,1.1834,0,0,0,.6933.1846,1.0562,1.0562,0,0,0,1.001-1.0322c0-.585-.4-.9082-1.0166-1.293-.6621-.4306-1.2783-1.001-1.2783-1.6777a1.46,1.46,0,0,1,.5859-1.2168,1.99,1.99,0,0,1,1.293-.4307,3.7646,3.7646,0,0,1,1.0469.169.2563.2563,0,0,1,.0771.1386c.0156.169.0772.4776.0918.7237,0,.1689-.03.2461-.0762.2461-.0625,0-.0927-.0772-.1386-.1846a1.1691,1.1691,0,0,0-.37-.6309,1.2636,1.2636,0,0,0-.7237-.2314A.8975.8975,0,0,0,346.7129,76.6727Z"/><path class="cls-8" d="M239.0381,92.7332a7.6341,7.6341,0,0,0,1.1084-.4.6257.6257,0,0,1,.2305-.1074c.0468,0,.0781.0459.0625.2148-.0313.3086-.0313,1.2471-.0313,2.2325,0,1.2939,0,2.4326.0313,2.6943.03.3086.1845.3857.4306.4473.1543.03.2315.0615.2315.123,0,.0772-.1231.1074-.2461.1074-.1387,0-.709-.0615-1.125-.0615-.5078,0-.7539.0313-.9239.0313-.1074,0-.2148-.0313-.2148-.0928s.0762-.1074.293-.1387c.3379-.0928.4765-.2158.4922-.8467.0156-.4619.0459-3.2636.0459-3.4179,0-.2158-.0147-.3076-.4463-.5391-.0772-.0459-.1231-.0918-.1231-.123C238.8535,92.81,238.8994,92.7635,239.0381,92.7332Zm1.54-2.51a.5864.5864,0,0,1-.57.585.5477.5477,0,0,1-.5078-.5693.5713.5713,0,0,1,.5391-.6006A.5635.5635,0,0,1,240.5781,90.2234Z"/><path class="cls-8" d="M246.7363,92.81a3.1964,3.1964,0,0,1,.4932,2.0166c0,.8164.0156.9394.0156,1.7089.0147,1.0469.0615,1.14.4776,1.2471.1386.0615.23.0928.23.1543,0,.0918-.123.1074-.2773.1074-.1992,0-.6465-.0615-.9844-.0615-.5234,0-.7246.0615-.9551.0615-.1386,0-.2461-.03-.2461-.0927s.0918-.1231.292-.169c.37-.0928.4307-.2.4307-.6465V95.0428c0-1.2471-.1074-1.6172-.4922-1.9092a1.3684,1.3684,0,0,0-.8769-.293,1.8423,1.8423,0,0,0-1.2012.4932.8018.8018,0,0,0-.1856.4619c0,.1846.0157.97.0157,1.8936a12.7419,12.7419,0,0,0,.0927,1.6162c.0459.3388.2315.416.4776.4931.1845.0459.2617.0772.2617.1534,0,.0927-.1543.0927-.3086.0927-.1231,0-.877-.0615-1.2315-.0615-.2,0-.5234.0313-.8154.0313-.17,0-.293-.0313-.293-.1084,0-.0616.1387-.1231.3233-.1534.3848-.0771.4463-.1855.4619-.4931.0313-1.1084.0313-2.5254.0313-3.7725,0-.1533-.0313-.3232-.4-.5234-.0928-.0615-.1231-.0918-.1231-.1377,0-.0313.0762-.0772.2149-.124a5.7407,5.7407,0,0,0,1.2168-.5235c.0459-.0146.123.0469.1074.1231a7.1005,7.1005,0,0,0-.0313.8164c0,.0312.0469.0771.0782.0459a5.31,5.31,0,0,1,1.0927-.6924,2.0758,2.0758,0,0,1,.9082-.1846A1.5661,1.5661,0,0,1,246.7363,92.81Z"/><path d="M252.4355,94.8113a2.7253,2.7253,0,0,0,.6465,1.8936,2.039,2.039,0,0,0,1.34.5391,1.94,1.94,0,0,0,1.4931-.5235c.0772-.0615.1377-.0615.1377,0a.5438.5438,0,0,1-.123.2774,2.5725,2.5725,0,0,1-2.17,1.14,2.8332,2.8332,0,0,1-1.7715-5.02,3.8415,3.8415,0,0,1,2.2637-.8779,2.3611,2.3611,0,0,1,1.5087.416.4148.4148,0,0,1,.1846.2929.5694.5694,0,0,1-.4922.6006.6179.6179,0,0,1-.2617-.1387,6.7468,6.7468,0,0,0-.9707-.7236,1.1783,1.1783,0,0,0-.5693-.124C253.2363,92.5633,252.4355,93.0721,252.4355,94.8113Z"/><path d="M262.8135,95.15a3.0821,3.0821,0,0,1-1.2,2.417,3.2567,3.2567,0,0,1-1.8477.6006,2.9776,2.9776,0,0,1-3.0957-2.94,2.8309,2.8309,0,0,1,1.0938-2.2784,3.1324,3.1324,0,0,1,1.9707-.7089A2.9219,2.9219,0,0,1,262.8135,95.15Zm-4.5108-.3389a4.6189,4.6189,0,0,0,.4766,2.2637,1.4909,1.4909,0,0,0,1.1709.8467.9135.9135,0,0,0,.708-.3545,3.6371,3.6371,0,0,0,.5078-2.0938c0-1.7548-.4922-2.9716-1.57-2.9716C258.9336,92.5018,258.3027,93.4725,258.3027,94.8113Z"/><path d="M265.8027,94.242c0,2.001.0157,2.6172.0313,2.8945.0146.4922.1074.5537.5078.6465.0918.0156.1992.0615.1992.1387,0,.0615-.1533.1074-.3076.1074-.4619,0-1.0772-.0459-1.3086-.0459-.415,0-.7393.0313-1.1553.0313-.1533,0-.2763-.0313-.2763-.1084s.1074-.1075.2314-.1387c.415-.0772.5078-.169.5381-.8311.03-.6308.0928-3.4951.1084-4.9726,0-.8467.0156-2.48,0-3.0029,0-.3536-.0781-.462-.4316-.6465-.1075-.0616-.1543-.1231-.1543-.169s.0927-.0927.2314-.123a8.7482,8.7482,0,0,0,1.5547-.4317.6782.6782,0,0,1,.2158-.0615c.0313,0,.0615.0928.0615.17,0,.1075-.0459,2.6787-.0459,5.3418Z"/><path d="M273.4082,95.15a3.0791,3.0791,0,0,1-1.2,2.417,3.2564,3.2564,0,0,1-1.8476.6006,2.9774,2.9774,0,0,1-3.0948-2.94,2.8281,2.8281,0,0,1,1.0938-2.2784A3.13,3.13,0,0,1,270.33,92.24,2.921,2.921,0,0,1,273.4082,95.15Zm-4.51-.3389a4.6189,4.6189,0,0,0,.4766,2.2637,1.4882,1.4882,0,0,0,1.17.8467.914.914,0,0,0,.709-.3545,3.6454,3.6454,0,0,0,.5078-2.0938c0-1.7548-.4922-2.9716-1.57-2.9716C269.5293,92.5018,268.8984,93.4725,268.8984,94.8113Z"/><path d="M276.5508,93.5027a.6379.6379,0,0,0-.169.3545,10.2209,10.2209,0,0,0-.03,1.1856c0,1.0928.03,1.7392.06,2.0937.0625.4619.17.5694.74.6465.2149.0313.2764.0772.2764.1543s-.123.1074-.3232.1074c-.4317,0-.708-.0615-1.4473-.0615-.9238,0-.9082.0772-1.2773.0772-.2012,0-.293-.0459-.293-.1084s.0615-.1377.2305-.169c.3545-.0771.4775-.2.5234-.6308.0156-.2618.0312-1.14.0469-2.1563,0-.97.0156-1.37,0-1.5547,0-.0918-.0469-.123-.4-.4306-.0918-.0772-.1231-.1084-.1231-.1543s.1075-.1075.169-.1387a7.8127,7.8127,0,0,0,1.4775-.5078.5215.5215,0,0,1,.2617-.0928c.0313,0,.0782.0928.0782.17,0,.2764-.0313.708-.0313,1.0469,0,.0771.0615.0918.0772.0459.4306-.5693.9853-1.124,1.5849-1.124a.8623.8623,0,0,1,.5088.1543c.1533.1074.2158.1845.2158.3076a1.58,1.58,0,0,1-.4629.7392c-.1533.1543-.23.1846-.3066.1846a.4333.4333,0,0,1-.2617-.1074,1.2561,1.2561,0,0,0-.6016-.2471A.7263.7263,0,0,0,276.5508,93.5027Z"/><path d="M279.3545,92.7176a6.996,6.996,0,0,0,1.5088-.4619,1.3524,1.3524,0,0,1,.2305-.0918c.0468,0,.0771.0459.0624.2148-.0312.3233-.0312,1.1084-.0312,1.7559,0,1.7236,0,2.956.0312,3.1865a.4651.4651,0,0,0,.4151.4775c.1689.0459.2158.0918.2158.1534,0,.0771-.1074.1084-.2314.1084-.2618,0-.6162-.0772-1.2627-.0772-.6768,0-1.0313.0313-1.2012.0313-.1377,0-.2617-.0469-.2617-.1084,0-.0772.0937-.1075.2773-.1387.4-.0918.5088-.292.5088-.8311,0-.4619.0459-3.1406.0459-3.2949,0-.292,0-.3545-.4-.6308-.0762-.0616-.123-.1084-.123-.17C279.1387,92.81,279.1855,92.7635,279.3545,92.7176Zm1.832-2.4483a.7379.7379,0,0,1-.7549.7706.6977.6977,0,0,1-.6464-.709.7371.7371,0,0,1,.7236-.7852A.7243.7243,0,0,1,281.1865,90.2693Z"/><path d="M287.6533,92.7635a2.7329,2.7329,0,0,1,.5391,1.94c.0156.8926.0312,1.0469.0312,1.9092.0147.9541.0918,1.0771.5078,1.1855.0772.03.169.0616.169.1387,0,.0615-.0772.0918-.2158.0918-.3535,0-.8614-.0459-1.17-.0459a12.1141,12.1141,0,0,0-1.2773.0615c-.1543,0-.2617-.0459-.2617-.1074s.0918-.1084.2305-.1387c.416-.123.4931-.2314.4931-.5849V94.95c0-1.1855-.0928-1.5088-.4619-1.8008a1.2273,1.2273,0,0,0-.7236-.2158,1.3923,1.3923,0,0,0-.8321.292.4657.4657,0,0,0-.1533.3242c0,.292.0156,1.0156.0156,1.8008.0147.9551.0459,1.7246.0616,1.9092a.5191.5191,0,0,0,.4306.5234c.1846.0459.2461.0772.2461.1543,0,.0918-.1689.1074-.2763.1074-.1543,0-1.0323-.0615-1.3858-.0615-.2,0-.6006.0313-1.0625.0313-.1689,0-.293-.0469-.293-.1241,0-.0615.1387-.123.2774-.1533.4307-.0771.4619-.2.4775-.5547.0313-.8925.0459-2.2324.0459-3.6484,0-.1543-.0459-.2773-.3545-.4932-.1386-.0918-.123-.123-.123-.1533,0-.0469.0771-.0928.2158-.124a7.831,7.831,0,0,0,1.6318-.6309c.0459-.0156.1231.0459.1231.1231a6.1641,6.1641,0,0,0-.03.7695c0,.0313.0459.0469.0772.0156a4.3942,4.3942,0,0,1,.9082-.6006,2.2412,2.2412,0,0,1,.9082-.2A1.5965,1.5965,0,0,1,287.6533,92.7635Z"/><path d="M293.6914,92.5486a1.2945,1.2945,0,0,0,.5234.0772c.2764,0,.8311-.0313,1.0928-.0313.0615,0,.1074.1387.1074.3692,0,.1543-.0918.3232-.1533.3232-.2314,0-.6933-.03-.8623-.03-.0312,0-.0771.0615-.0771.0771.0156.123.0156.4.0156.6006a2.5552,2.5552,0,0,1-.94,2.0166,2.488,2.488,0,0,1-1.3086.4307,3.4522,3.4522,0,0,1-.7236-.0918.2811.2811,0,0,0-.1689.03,1.3109,1.3109,0,0,0-.37.3086.4372.4372,0,0,0-.123.292c0,.37.4463.585,1.293.585.4619,0,1.14-.0147,1.6943-.0147a1.864,1.864,0,0,1,1.293.4307,1.7448,1.7448,0,0,1,.539,1.3545,3.103,3.103,0,0,1-1.4941,2.3413,3.9875,3.9875,0,0,1-2.2324.7236c-1.3848,0-2.2627-.6621-2.2627-1.6631a.8431.8431,0,0,1,.3076-.6469c.1387-.17.6465-.6778.9238-.9395a.0953.0953,0,0,0-.03-.1074c-.293-.0928-1.2325-.6318-1.2325-1.3858,0-.1074.0313-.17.0616-.1845a11.6485,11.6485,0,0,0,1.34-1.1709c.0156-.0147,0-.0459-.03-.0615a2.1951,2.1951,0,0,1-1.2168-1.8623,1.8606,1.8606,0,0,1,.6465-1.5088,2.5126,2.5126,0,0,1,1.7246-.6621A3.852,3.852,0,0,1,293.6914,92.5486Zm-2.5869,8.7759a2.2768,2.2768,0,0,0,1.3545.416,2.606,2.606,0,0,0,1.4326-.3076,1.6449,1.6449,0,0,0,.7383-1.2632c0-.6005-.3389-1.14-1.3858-1.14-.5537,0-1.4316.0312-1.8623.0312a.957.957,0,0,0-.3847.0918,1.4511,1.4511,0,0,0-.5235,1.1241A1.4741,1.4741,0,0,0,291.1045,101.3245Zm.2617-8.6225a2.2825,2.2825,0,0,0-.3076,1.2324,3.2574,3.2574,0,0,0,.3848,1.6933,1.0354,1.0354,0,0,0,.8007.5235c.5694,0,.8623-.8311.8623-1.5244a3.2861,3.2861,0,0,0-.4472-1.7862c-.2764-.3691-.4463-.4619-.7237-.4619A.8013.8013,0,0,0,291.3662,92.702Z"/><path d="M303.3154,97.1053a3.62,3.62,0,0,1-2.5566,1.0625,5.0967,5.0967,0,0,1-1.8936-.4151c-.0771-.0312-.1689-.0312-.4463.0762-.0615.0313-.1074-.0615-.1074-.1074a12.189,12.189,0,0,0,.1231-1.709c.03-.831.0615-3.1865.0771-4.8037,0-1.2773-.0156-2.0781-.0615-2.3867-.0469-.2461-.0772-.3379-.4-.5381-.123-.0928-.17-.1387-.17-.17,0-.0459.0615-.1074.2471-.1387a10.6955,10.6955,0,0,0,1.5849-.4307.6838.6838,0,0,1,.2774-.0771c.0312,0,.0615.0615.0615.2314-.0459.97-.0918,3.5411-.0918,4.9112,0,.1074.0459.123.0918.1074a2.6171,2.6171,0,0,1,1.417-.4307,2.4978,2.4978,0,0,1,1.9394.8311,2.783,2.783,0,0,1,.708,1.8476A3.0612,3.0612,0,0,1,303.3154,97.1053Zm-.7705-1.6162a3.6149,3.6149,0,0,0-.5849-2.0323,1.8147,1.8147,0,0,0-1.3243-.6621,1.3033,1.3033,0,0,0-.5849.1387.4135.4135,0,0,0-.1074.2617c-.0616.2774-.0459,1.709-.0459,2.31a5.5847,5.5847,0,0,0,.2461,1.7549,1.19,1.19,0,0,0,.5234.4619,1.6632,1.6632,0,0,0,.6465.1387,1.0838,1.0838,0,0,0,.7851-.4932,3.935,3.935,0,0,0,.4317-1.8779Z"/><path d="M311.2148,95.15a3.08,3.08,0,0,1-1.2011,2.417,3.254,3.254,0,0,1-1.8467.6006,2.9767,2.9767,0,0,1-3.0947-2.94,2.8279,2.8279,0,0,1,1.0927-2.2784,3.1328,3.1328,0,0,1,1.9707-.7089A2.9218,2.9218,0,0,1,311.2148,95.15Zm-4.5107-.3389a4.61,4.61,0,0,0,.4775,2.2637,1.4883,1.4883,0,0,0,1.17.8467.9108.9108,0,0,0,.708-.3545,3.6379,3.6379,0,0,0,.5078-2.0938c0-1.7548-.4922-2.9716-1.57-2.9716C307.335,92.5018,306.7041,93.4725,306.7041,94.8113Z"/><path d="M318.3145,95.15a3.08,3.08,0,0,1-1.2012,2.417,3.254,3.254,0,0,1-1.8467.6006,2.9767,2.9767,0,0,1-3.0947-2.94,2.8279,2.8279,0,0,1,1.0927-2.2784,3.1329,3.1329,0,0,1,1.9708-.7089A2.9219,2.9219,0,0,1,318.3145,95.15Zm-4.5108-.3389a4.61,4.61,0,0,0,.4775,2.2637,1.4884,1.4884,0,0,0,1.17.8467.9108.9108,0,0,0,.708-.3545,3.6371,3.6371,0,0,0,.5078-2.0938c0-1.7548-.4922-2.9716-1.57-2.9716C314.4346,92.5018,313.8037,93.4725,313.8037,94.8113Z"/><path d="M323.4434,92.4256c.5693,0,1.0781-.0772,1.6171-.0772.169,0,.2618.0459.2618.0918,0,.0616-.0625.0928-.2471.1387a2.7046,2.7046,0,0,0-1.3389.6778,13.937,13.937,0,0,0-1.14,1.0312c-.03.0313,0,.0772.0156.1084.5537.7539,1.5859,2.0322,2.1865,2.6943.4463.4922.6.6309,1.0469.708.1533.03.2148.0772.2148.1387,0,.0772-.123.1231-.2919.1231-.878,0-1.3555-.0772-2.0323-.0772-.2929,0-.5234.0313-.7392.0313-.1846,0-.2617-.0313-.2617-.1084s.0615-.1075.2919-.169c.2471-.0771.3086-.1845.17-.4-.2315-.3076-1.0625-1.34-1.54-1.8935-.1533-.1856-.2617-.3086-.3076-.3086s-.0459.0469-.0615.123c-.0313.2471-.0156,1.0938,0,1.6172.03.7539.2305.8008.5693.8779.1543.03.2617.0918.2617.1534,0,.0927-.1845.123-.292.123-.4462,0-.9394-.0459-1.34-.0459-.6006,0-1.14.0615-1.2158.0615-.1231,0-.2617-.0459-.2617-.1074s.0918-.1084.2148-.1387c.4619-.1084.5234-.2617.5547-.7695.0615-1.124.0771-2.2793.0771-3.4648,0-.6465.03-3.3565.03-4.2188a3.2622,3.2622,0,0,0-.0615-.7383c0-.1084-.1387-.2158-.3691-.3388-.0616-.0459-.1387-.0928-.1387-.1387,0-.0615.1074-.123.293-.1543a5.3847,5.3847,0,0,0,1.4931-.4307.8465.8465,0,0,1,.2774-.0771.1455.1455,0,0,1,.0615.1074c-.0156.5391-.0928,2.0791-.0928,3.2334,0,.5234-.0771,3.1406-.0615,3.9111,0,.1387.03.2149.0771.2149a.7238.7238,0,0,0,.2618-.1377,8.1914,8.1914,0,0,0,1.6474-1.6016.5068.5068,0,0,0,.1387-.2461c0-.0771-.0928-.2158-.5547-.2773-.1543-.0313-.2461-.0615-.2461-.1387,0-.0615.1231-.1074.2617-.1074Z"/><path d="M328.1406,94.827c-.2-1.8018-.8164-3.4024-.832-4.5108,0-.6162.416-1.3554,1.0322-1.3554.6768,0,1.0156.7089,1.0156,1.3085,0,1.0166-.6464,3.0176-.831,4.5118-.0459.3847-.1231.4463-.1846.4463C328.248,95.2274,328.1865,95.15,328.1406,94.827Zm-.6933,2.417a.94.94,0,0,1,.9082-.9541.92.92,0,0,1,.8779.9541.8942.8942,0,1,1-1.7861,0Z"/></svg>