<svg xmlns="http://www.w3.org/2000/svg" width="399" height="200" viewBox="0 0 399 200">
  <g fill="none" fill-rule="evenodd" transform="translate(-20 -10)">
    <g fill-rule="nonzero" stroke="#222F3C" stroke-linecap="round" stroke-linejoin="round" stroke-width=".5" transform="translate(261.595 120.273)">
      <line x1="8.994" y1="11.108" y2="11.108"/>
      <line x1="35.765" x2="26.772" y1="11.108" y2="11.108"/>
      <line x1="25.792" x2="35.765" y1="7.63" y2="7.63"/>
      <line x2="9.973" y1="7.63" y2="7.63"/>
      <g transform="translate(5.307 32.582)">
        <line x2="2.284"/>
        <line x1="11.434" x2="13.718"/>
        <line x1="22.868" x2="25.152"/>
        <g transform="translate(5.718 3.148)">
          <line x2="2.284"/>
          <line x1="11.434" x2="13.718"/>
        </g>
      </g>
      <g transform="translate(0 20.662)">
        <path d="M0 7.57976355L5.96037231 5.26121972 11.9208283 7.57976355 16.1657225 5.92874608 16.1657225 0M35.7646643 7.57945708L29.804292 5.26091325 23.843836 7.57945708 19.5989418 5.92843961 19.5989418.00138861756"/>
      </g>
      <ellipse cx="17.883" cy="11.799" rx="9.013" ry="8.932" transform="rotate(-67.5 17.883 11.799)"/>
      <path d="M11.6622892 18.2653381L0 18.2653381 0 39.0888383 35.7649113 39.0888383 35.7649113 18.2653381 24.1026221 18.2653381M14.2348333 13.3884373C14.2348333 12.0276192 15.4507759 9.86649271 17.8826611 6.90505782 20.3145464 9.86649271 21.530489 12.0276192 21.530489 13.3884373 21.530489 15.4296644 19.8977601 17.0837331 17.8826611 17.0837331 15.8674785 17.0837331 14.2348333 15.4296644 14.2348333 13.3884373zM43.0979499 3.20492934L39.5116192 3.20492934 37.6715571 4.87221967 35.9339065 4.87221967 35.9339065 13.5585378 37.6715571 13.5585378 39.5116192 15.2258282 43.0979499 15.2258282"/>
    </g>
    <g fill-rule="nonzero" transform="translate(309.704 121.276)">
      <path fill="#333838" d="M9.71824975,9.87639091 C9.79490905,9.87639091 9.84090462,9.7857188 9.94822763,9.52881448 C10.6534931,7.86649246 11.8953736,5.010321 12.8612807,2.92486246 C13.8271877,0.778955855 14.1031612,0.46160347 14.7470992,0.295371268 C15.0230727,0.250035213 15.099732,0.189587139 15.099732,0.129139066 C15.099732,0.0686909925 15.0230727,0.0535789742 14.8237585,0.0535789742 C14.5477851,0.0535789742 14.1338249,0.114027048 13.7045329,0.114027048 C13.2445771,0.114027048 13.0299311,0.0535789742 12.6313028,0.0535789742 C12.4166568,0.0535789742 12.3706612,0.0838030109 12.3706612,0.144251084 C12.3706612,0.204699158 12.4626524,0.234923194 12.7079621,0.310483286 C13.2139134,0.46160347 13.2292453,0.718507782 13.152586,1.05097219 C12.830617,2.16926154 10.9754621,6.40062668 10.2395329,7.97227659 C10.1935374,8.0629487 10.1628736,8.07806072 10.1015462,7.97227659 C9.58026303,6.83887522 8.90566127,5.40323347 8.52236482,4.51162439 C8.4917011,4.4360643 8.4917011,4.36050421 8.50703296,4.33028017 C8.76767455,3.8618076 9.5189356,2.36571778 9.91756391,1.61011686 C10.4235152,0.7336198 10.7148205,0.416267415 11.2820993,0.295371268 C11.4967453,0.250035213 11.5734046,0.204699158 11.5734046,0.129139066 C11.5734046,0.0686909925 11.4967453,0.0535789742 11.312763,0.0535789742 C10.9601303,0.0535789742 10.7148205,0.114027048 10.1782055,0.114027048 C9.77957719,0.114027048 9.53426746,0.0686909925 9.150971,0.0686909925 C8.96698871,0.0686909925 8.87499756,0.0989150292 8.87499756,0.144251084 C8.87499756,0.204699158 8.92099313,0.265147231 9.19696658,0.325595305 C9.85623648,0.476715488 9.87156834,0.627835672 9.39628073,1.73101301 C9.07431171,2.47150191 8.75234269,3.16665476 8.3843781,3.90714366 C8.33838252,3.98270375 8.27705509,3.96759173 8.26172323,3.93736769 C7.75577191,2.7888543 7.29581617,1.76123705 7.05050644,1.12653228 C6.82052857,0.567387598 6.97384715,0.386043378 7.38780732,0.310483286 C7.58712147,0.265147231 7.67911262,0.219811176 7.67911262,0.144251084 C7.67911262,0.0838030109 7.57178962,0.0535789742 7.41847103,0.0535789742 C7.0658383,0.0535789742 6.71320556,0.114027048 6.16125867,0.114027048 C5.60931177,0.114027048 5.31800647,0.0535789742 4.87338258,0.0535789742 C4.67406843,0.0535789742 4.58207728,0.0989150292 4.58207728,0.144251084 C4.58207728,0.219811176 4.65873657,0.28025925 4.9040463,0.325595305 C5.3793339,0.446491451 5.50198877,0.627835672 5.94661265,1.56478081 C6.28391353,2.29015769 7.31114803,4.58718448 7.55645776,5.16144118 C7.55645776,5.19166522 7.55645776,5.29744934 7.52579404,5.3427854 C7.11183387,6.30995457 6.74386928,7.06555549 6.31457725,7.92694054 C6.26858167,8.00250063 6.20725424,8.03272467 6.16125867,7.92694054 C5.11869231,5.66013778 3.60083836,2.44127787 2.95690032,0.869627965 C2.84957731,0.597611635 2.84957731,0.416267415 3.27886934,0.340707323 C3.46285163,0.310483286 3.55484278,0.265147231 3.55484278,0.189587139 C3.55484278,0.129139066 3.46285163,0.0838030109 3.24820562,0.0838030109 C2.9262366,0.0838030109 2.558272,0.114027048 2.22097113,0.114027048 C1.76101538,0.114027048 1.1324092,0.0535789742 0.764444602,0.0535789742 C0.565130446,0.0535789742 0.457807439,0.114027048 0.457807439,0.159363103 C0.457807439,0.219811176 0.595794162,0.28025925 0.77977646,0.295371268 C1.36238707,0.37093136 1.48504193,0.64294769 2.03698883,1.82168512 C2.75758616,3.30266292 3.78482066,5.53924164 4.62807285,7.45846797 C4.82738701,7.91182852 5.30267461,9.01500586 5.50198877,9.51370247 C5.60931177,9.7857188 5.63997549,9.87639091 5.73196664,9.87639091 C5.79329407,9.87639091 5.88528522,9.75549476 5.97727637,9.51370247 C6.31457725,8.6372054 7.12716573,6.86909925 7.70977634,5.75080989 C7.74044006,5.70547384 7.78643563,5.70547384 7.81709935,5.76592191 C8.26172323,6.73309109 9.13563915,8.60698136 9.45760817,9.52881448 C9.54959932,9.77060678 9.61092675,9.87639091 9.71824975,9.87639091 Z M17.0315461,9.75549476 C17.5221655,9.75549476 17.9974531,9.52881448 18.2120992,9.10567797 C18.2734266,8.9696698 18.2120992,8.92433375 18.120108,8.9696698 C17.9514576,9.06034191 17.798139,9.10567797 17.6754841,9.10567797 C17.2461921,9.10567797 17.1082054,8.81854962 17.1082054,8.53142127 C17.1082054,8.13850879 17.154201,6.70286705 17.154201,6.14372237 C17.154201,5.6752498 17.0928735,5.05565705 16.9395549,4.7685287 C16.7555726,4.30005613 16.280285,3.99781577 15.7590019,3.99781577 C15.4983603,3.99781577 15.1917231,4.08848788 14.8390904,4.2698321 C14.5324532,4.42095228 14.0265019,4.73830466 13.6738692,5.14632916 C13.4898869,5.35789742 13.3825639,5.49390558 13.3825639,5.59968971 C13.3825639,5.66013778 13.4592231,5.75080989 13.5358824,5.73569788 C13.6432054,5.72058586 14.1031612,5.5090176 14.2564798,5.40323347 C14.2871435,5.37300944 14.3178072,5.32767338 14.3178072,5.28233733 C14.3178072,5.1765532 14.3178072,5.05565705 14.3331391,4.99520898 C14.3638028,4.82897677 14.4557939,4.72319265 14.5631169,4.63252054 C14.7930948,4.49651237 14.9464134,4.45117632 15.1763913,4.45117632 C15.3603736,4.45117632 15.6210151,4.54184843 15.8203293,4.69296861 C16.0809709,4.88942485 16.1882939,5.31256136 16.1882939,5.93215411 C16.1882939,6.14372237 16.1882939,6.44596274 16.1576302,6.62730696 C16.1576302,6.68775503 16.0809709,6.8237632 15.958316,6.85398723 C15.636347,6.97488338 14.2411479,7.38290788 13.8731833,7.57936412 C13.7351966,7.65492421 13.3212364,7.95716457 13.3212364,8.44074916 C13.3212364,9.22657412 13.9345107,9.74038274 14.5477851,9.74038274 C15.1303957,9.74038274 15.5903514,9.48347843 16.0503072,9.06034191 C16.065639,9.0452299 16.1116346,9.0452299 16.1269665,9.07545393 C16.2649532,9.42303036 16.6022541,9.75549476 17.0315461,9.75549476 Z M15.2223868,9.16612604 C14.7470992,9.16612604 14.3024753,8.81854962 14.3024753,8.31985302 C14.3024753,7.88160448 14.5017895,7.65492421 14.6857718,7.5642521 C15.0077408,7.3980199 15.8969886,7.08066751 16.0963027,7.05044347 C16.1269665,7.03533145 16.1576302,7.11089155 16.1576302,7.12600356 C16.1576302,7.70026026 16.1269665,8.304741 16.0809709,8.56164531 C16.065639,8.72787751 15.9736479,8.86388568 15.9123204,8.92433375 C15.74367,9.07545393 15.4830284,9.16612604 15.2223868,9.16612604 Z M20.6345327,9.72527072 C21.0638248,9.72527072 21.5391124,9.58926256 21.8764133,9.33235825 C22.0757274,9.18123806 22.2137141,9.03011788 22.2137141,8.93944577 C22.2137141,8.87899769 22.1677186,8.86388568 22.0603956,8.93944577 C21.9224088,9.03011788 21.6464354,9.16612604 21.2171434,9.16612604 C20.818515,9.16612604 20.496546,9.0452299 20.2665682,8.75810155 C20.1592451,8.60698136 20.1285814,8.42563714 20.0979177,7.94205256 C20.0825859,7.47357999 20.067254,5.10099311 20.067254,4.84408879 C20.067254,4.75341668 20.0979177,4.70808063 20.2819,4.70808063 C20.6958602,4.70808063 21.4471212,4.72319265 21.9837363,4.72319265 C22.0603956,4.72319265 22.1370548,4.6022965 22.1370548,4.34539219 C22.1370548,4.23960806 22.0757274,4.13382393 22.0450637,4.13382393 C21.7230947,4.13382393 20.4505505,4.17915999 20.174577,4.17915999 C20.1132496,4.17915999 20.0979177,4.08848788 20.0979177,4.04315182 C20.0825859,3.8618076 20.1132496,3.43867109 20.1132496,3.30266292 C20.1132496,3.22710283 20.0059266,3.19687879 19.8679398,3.34799898 C19.4999752,3.81647154 18.9940239,4.22449604 18.6107275,4.36050421 C18.442077,4.4360643 18.4267452,4.48140035 18.4267452,4.51162439 C18.4267452,4.57207246 18.5034045,4.61740852 18.6260593,4.64763255 L18.8387889,4.69296861 C18.9058657,4.70808063 18.9633602,4.72319265 18.9940239,4.73830466 C19.0553514,4.7685287 19.0706832,4.87431283 19.0706832,5.04054503 L19.0706832,8.16873283 C19.0706832,8.53142127 19.1320107,8.83366164 19.2546655,9.03011788 C19.5153071,9.51370247 19.9905947,9.72527072 20.6345327,9.72527072 Z M25.1267672,9.75549476 C26.0006831,9.75549476 26.6446211,9.45325439 27.2578955,8.8034376 C27.3498866,8.69765347 27.411214,8.60698136 27.411214,8.56164531 C27.411214,8.48608522 27.3498866,8.45586118 27.2272317,8.57675733 C26.8592672,8.92433375 26.3993114,9.06034191 25.7707052,9.06034191 C25.2647539,9.06034191 24.6514796,8.89410971 24.2375194,8.44074916 C23.8388911,8.00250063 23.5322539,7.38290788 23.5322539,6.61219494 C23.5322539,6.18905843 23.5782495,5.96237815 23.6549088,5.78103393 C23.6855725,5.73569788 23.7622318,5.66013778 23.7928955,5.66013778 L24.6208159,5.66013778 C24.9734486,5.66013778 26.9665902,5.69036182 27.089245,5.70547384 C27.1659043,5.70547384 27.2425636,5.61480173 27.2425636,5.53924164 C27.2425636,4.61740852 26.2766565,3.99781577 25.3720769,3.99781577 C24.5748203,3.99781577 23.8695548,4.36050421 23.4555946,4.75341668 C22.8116566,5.37300944 22.5663469,6.26461852 22.5663469,6.95977136 C22.5663469,7.77582035 22.8423203,8.50119724 23.3022761,8.98478182 C23.7622318,9.46836641 24.4061699,9.75549476 25.1267672,9.75549476 Z M23.854223,5.44856953 C23.8235592,5.44856953 23.7928955,5.41834549 23.7928955,5.38812145 C23.7928955,5.26722531 23.9308822,4.98009696 24.1148645,4.7685287 C24.4521654,4.42095228 24.8354619,4.20938402 25.2340902,4.20938402 C25.5867229,4.20938402 25.8473645,4.34539219 26.0006831,4.49651237 C26.1693335,4.67785659 26.2153291,4.94987292 26.2153291,5.13121714 C26.2153291,5.26722531 26.1846654,5.43345751 25.8473645,5.43345751 L23.854223,5.44856953 Z M28.1011477,9.67993467 C28.3157937,9.67993467 28.4844441,9.58926256 29.036391,9.58926256 C29.6803291,9.58926256 30.1862804,9.64971063 30.4775857,9.64971063 C30.7075635,9.64971063 30.8455503,9.61948659 30.8455503,9.5439265 C30.8455503,9.46836641 30.768891,9.43814237 30.554245,9.40791834 C29.9716344,9.34747026 29.7876521,9.24168613 29.7263246,8.77321357 C29.6956609,8.45586118 29.6649972,7.67003623 29.6649972,6.55174687 C29.6649972,6.2495065 29.6496653,5.81125797 29.6803291,5.62991375 C29.6956609,5.44856953 29.7723202,5.28233733 29.9409706,5.10099311 C30.1402848,4.91964888 30.3855945,4.79875274 30.6155724,4.79875274 C30.7842228,4.79875274 30.983537,4.87431283 31.1521874,4.98009696 C31.3208379,5.07076907 31.3974972,5.08588109 31.4281609,5.08588109 C31.4741565,5.08588109 31.5354839,5.07076907 31.6734706,4.94987292 C31.8574529,4.78364072 32.0107715,4.54184843 32.0107715,4.4360643 C32.0107715,4.36050421 31.9801078,4.28494411 31.9034485,4.22449604 C31.7501299,4.10359989 31.5508157,4.0280398 31.3668334,4.0280398 C30.7535591,4.0280398 30.1402848,4.58718448 29.7109928,5.11610512 C29.6649972,5.16144118 29.6343335,5.14632916 29.6343335,5.10099311 C29.6343335,4.85920081 29.6496653,4.28494411 29.6496653,4.11871191 C29.6496653,3.96759173 29.6190016,3.90714366 29.5883379,3.90714366 C29.5423423,3.90714366 29.465683,3.92225567 29.35836,3.98270375 C29.1130503,4.11871191 28.6837583,4.2698321 28.3771211,4.34539219 C28.2391344,4.39072824 28.1471432,4.45117632 28.1471432,4.48140035 C28.1471432,4.51162439 28.1624751,4.55696044 28.2697981,4.63252054 C28.5611034,4.87431283 28.6684264,4.91964888 28.6684264,5.02543301 L28.6684264,6.70286705 C28.6684264,7.70026026 28.6530946,8.56164531 28.6224308,8.81854962 C28.5611034,9.22657412 28.392453,9.36258228 28.0704839,9.43814237 C27.9478291,9.46836641 27.8405061,9.5439265 27.8405061,9.58926256 C27.8405061,9.64971063 27.9171654,9.67993467 28.1011477,9.67993467 Z M7.08117016,26.3471171 C8.32305066,26.3471171 9.150971,26.0297647 10.0708825,25.5159561 C10.1475418,25.47062 10.1935374,25.3799479 10.2242011,25.2892758 C10.2548648,25.1230436 10.4388471,24.3523307 10.4388471,24.0954264 C10.4388471,24.0047542 10.4081834,23.8687461 10.3468559,23.8687461 C10.2855285,23.8687461 10.2548648,23.9291942 10.1935374,24.1256504 C9.96355949,24.7452431 9.59559489,25.2741638 9.01298428,25.6066282 C8.59902411,25.8635325 8.06240908,26.0297647 7.18849316,26.0297647 C6.37590468,26.0297647 5.31800647,25.7124123 4.56674542,24.9114754 C3.7694888,24.0652023 3.15621447,22.6144486 3.15621447,21.2543669 C3.15621447,19.8036131 3.66216579,18.4586435 4.32143569,17.7483786 C4.95004187,17.1136739 5.83928965,16.5696412 6.98917901,16.5696412 C7.87842678,16.5696412 8.76767455,16.8114335 9.3349533,17.3252421 C9.61092675,17.5368104 9.94822763,18.020395 10.0708825,18.5342036 C10.1015462,18.6550998 10.1475418,18.7306598 10.2088692,18.7306598 C10.2395329,18.7306598 10.3008604,18.6399877 10.3008604,18.4888675 C10.3008604,18.3377474 10.2242011,17.6879306 10.2548648,17.3252421 C10.2701966,17.249682 10.2242011,17.1438979 10.1015462,17.0683378 C9.59559489,16.7963215 8.33838252,16.3278489 7.09650201,16.3278489 C5.68597106,16.3278489 4.33676755,16.8567696 3.52417907,17.5821464 C2.54294015,18.4586435 1.80701096,19.5920449 1.80701096,21.4054871 C1.80701096,22.7051207 2.450949,24.0954264 3.09488704,24.7452431 C4.04546224,25.6821883 5.24134718,26.3471171 7.08117016,26.3471171 Z M15.0690682,26.241333 C15.5596877,26.241333 16.0349753,26.0146527 16.2496213,25.5915162 C16.3109488,25.455508 16.2496213,25.410172 16.1576302,25.455508 C15.9889797,25.5461801 15.8356612,25.5915162 15.7130063,25.5915162 C15.2837143,25.5915162 15.1457275,25.3043878 15.1457275,25.0172595 C15.1457275,24.624347 15.1917231,23.1887053 15.1917231,22.6295606 C15.1917231,22.161088 15.1303957,21.5414953 14.9770771,21.2543669 C14.7930948,20.7858943 14.3178072,20.483654 13.796524,20.483654 C13.5358824,20.483654 13.2292453,20.5743261 12.8766125,20.7556703 C12.5699754,20.9067905 12.0640241,21.2241429 11.7113913,21.6321674 C11.527409,21.8437356 11.420086,21.9797438 11.420086,22.0855279 C11.420086,22.145976 11.4967453,22.2366481 11.5734046,22.2215361 C11.6807276,22.2064241 12.1406833,21.9948558 12.2940019,21.8890717 C12.3246656,21.8588476 12.3553294,21.8135116 12.3553294,21.7681755 C12.3553294,21.6623914 12.3553294,21.5414953 12.3706612,21.4810472 C12.4013249,21.314815 12.4933161,21.2090309 12.6006391,21.1183587 C12.830617,20.9823506 12.9839355,20.9370145 13.2139134,20.9370145 C13.3978957,20.9370145 13.6585373,21.0276866 13.8578515,21.1788068 C14.118493,21.3752631 14.225816,21.7983996 14.225816,22.4179923 C14.225816,22.6295606 14.225816,22.9318009 14.1951523,23.1131452 C14.1951523,23.1735932 14.118493,23.3096014 13.9958382,23.3398254 C13.6738692,23.4607216 12.2786701,23.8687461 11.9107055,24.0652023 C11.7727187,24.1407624 11.3587586,24.4430028 11.3587586,24.9265874 C11.3587586,25.7124123 11.9720329,26.2262209 12.5853072,26.2262209 C13.1679178,26.2262209 13.6278736,25.9693166 14.0878293,25.5461801 C14.1031612,25.5310681 14.1491568,25.5310681 14.1644886,25.5612921 C14.3024753,25.9088686 14.6397762,26.241333 15.0690682,26.241333 Z M13.259909,25.6519643 C12.7846214,25.6519643 12.3399975,25.3043878 12.3399975,24.8056912 C12.3399975,24.3674427 12.5393117,24.1407624 12.723294,24.0500903 C13.045263,23.8838581 13.9345107,23.5665057 14.1338249,23.5362817 C14.1644886,23.5211697 14.1951523,23.5967298 14.1951523,23.6118418 C14.1951523,24.1860985 14.1644886,24.7905792 14.118493,25.0474835 C14.1031612,25.2137157 14.01117,25.3497239 13.9498426,25.410172 C13.7811922,25.5612921 13.5205506,25.6519643 13.259909,25.6519643 Z M22.5356832,26.1355488 C22.6890017,26.1355488 22.8116566,26.1204368 22.8116566,26.0297647 C22.8116566,25.9693166 22.7196655,25.9390926 22.5816787,25.8786445 C22.1677186,25.7728604 22.121723,25.6821883 22.1063911,24.654571 C22.1063911,23.8989701 22.0910593,23.778074 22.0910593,22.977137 C22.0757274,22.115752 21.9530725,21.360151 21.6004398,20.9974626 C21.4011257,20.7858943 21.0331611,20.483654 20.4045549,20.483654 C20.1439133,20.483654 19.8219443,20.513878 19.4999752,20.6649982 C19.1626744,20.8010064 18.7947098,21.0579107 18.4114133,21.345039 C18.3807496,21.3752631 18.334754,21.329927 18.334754,21.299703 C18.3194222,21.0881347 18.3500859,20.6801102 18.3654177,20.498766 C18.3807496,20.4232059 18.3040903,20.3627578 18.2580947,20.3778698 C17.9974531,20.544102 17.3841788,20.8010064 17.0468779,20.8916785 C16.9088912,20.9370145 16.8322319,20.9823506 16.8322319,21.0125746 C16.8322319,21.0579107 16.8628956,21.0881347 16.9548868,21.1485828 C17.3228514,21.345039 17.3535151,21.5112712 17.3535151,21.6623914 C17.3535151,22.8864649 17.3535151,24.2767706 17.3228514,25.3648359 C17.3075195,25.6670763 17.2461921,25.7728604 16.8628956,25.8484205 C16.6789133,25.8786445 16.5409266,25.9390926 16.5409266,25.9995407 C16.5409266,26.0751008 16.6635815,26.1053248 16.8322319,26.1053248 C17.1235372,26.1053248 17.4455063,26.0751008 17.6448204,26.0751008 C17.9974531,26.0751008 18.7487142,26.1355488 18.8713691,26.1355488 C19.0246876,26.1355488 19.1780062,26.1355488 19.1780062,26.0448767 C19.1780062,25.9693166 19.1013469,25.9390926 18.9173646,25.8937565 C18.6720549,25.8181965 18.4880726,25.7426364 18.442077,25.410172 C18.4114133,25.1986037 18.3654177,24.8056912 18.3500859,23.82341 C18.3500859,22.9166889 18.334754,22.145976 18.334754,21.9646318 C18.334754,21.8437356 18.4114133,21.6170553 18.5187363,21.5112712 C18.9173646,21.1788068 19.3159929,21.0276866 19.7146213,21.0276866 C20.067254,21.0276866 20.3585593,21.1334708 20.5885372,21.314815 C20.9718336,21.6019433 21.0791566,21.9646318 21.0791566,23.1887053 L21.0791566,25.2439398 C21.0791566,25.6821883 21.0178292,25.7879724 20.6498646,25.8786445 C20.4505505,25.9239806 20.3585593,25.9844287 20.3585593,26.0448767 C20.3585593,26.1053248 20.4658823,26.1355488 20.603869,26.1355488 C20.8338469,26.1355488 21.0331611,26.0751008 21.5544442,26.0751008 C21.8917451,26.0751008 22.336369,26.1355488 22.5356832,26.1355488 Z M27.1659043,26.241333 C27.6565238,26.241333 28.1318114,26.0146527 28.3464574,25.5915162 C28.4077848,25.455508 28.3464574,25.410172 28.2544662,25.455508 C28.0858158,25.5461801 27.9324972,25.5915162 27.8098424,25.5915162 C27.3805503,25.5915162 27.2425636,25.3043878 27.2425636,25.0172595 C27.2425636,24.624347 27.2885592,23.1887053 27.2885592,22.6295606 C27.2885592,22.161088 27.2272317,21.5414953 27.0739132,21.2543669 C26.8899309,20.7858943 26.4146433,20.483654 25.8933601,20.483654 C25.6327185,20.483654 25.3260813,20.5743261 24.9734486,20.7556703 C24.6668114,20.9067905 24.1608601,21.2241429 23.8082274,21.6321674 C23.6242451,21.8437356 23.5169221,21.9797438 23.5169221,22.0855279 C23.5169221,22.145976 23.5935814,22.2366481 23.6702407,22.2215361 C23.7775637,22.2064241 24.2375194,21.9948558 24.390838,21.8890717 C24.4215017,21.8588476 24.4521654,21.8135116 24.4521654,21.7681755 C24.4521654,21.6623914 24.4521654,21.5414953 24.4674973,21.4810472 C24.498161,21.314815 24.5901521,21.2090309 24.6974752,21.1183587 C24.927453,20.9823506 25.0807716,20.9370145 25.3107495,20.9370145 C25.4947318,20.9370145 25.7553734,21.0276866 25.9546875,21.1788068 C26.2153291,21.3752631 26.3226521,21.7983996 26.3226521,22.4179923 C26.3226521,22.6295606 26.3226521,22.9318009 26.2919884,23.1131452 C26.2919884,23.1735932 26.2153291,23.3096014 26.0926742,23.3398254 C25.7707052,23.4607216 24.3755061,23.8687461 24.0075415,24.0652023 C23.8695548,24.1407624 23.4555946,24.4430028 23.4555946,24.9265874 C23.4555946,25.7124123 24.068869,26.2262209 24.6821433,26.2262209 C25.2647539,26.2262209 25.7247097,25.9693166 26.1846654,25.5461801 C26.1999973,25.5310681 26.2459928,25.5310681 26.2613247,25.5612921 C26.3993114,25.9088686 26.7366123,26.241333 27.1659043,26.241333 Z M25.3567451,25.6519643 C24.8814575,25.6519643 24.4368336,25.3043878 24.4368336,24.8056912 C24.4368336,24.3674427 24.6361477,24.1407624 24.82013,24.0500903 C25.142099,23.8838581 26.0313468,23.5665057 26.230661,23.5362817 C26.2613247,23.5211697 26.2919884,23.5967298 26.2919884,23.6118418 C26.2919884,24.1860985 26.2613247,24.7905792 26.2153291,25.0474835 C26.1999973,25.2137157 26.1080061,25.3497239 26.0466787,25.410172 C25.8780282,25.5612921 25.6173866,25.6519643 25.3567451,25.6519643 Z M30.9528733,26.1053248 C31.1521874,26.1053248 31.2595104,26.0599887 31.2595104,25.9995407 C31.2595104,25.9542046 31.1521874,25.9088686 31.0601963,25.8937565 C30.6309043,25.8181965 30.5389131,25.7124123 30.5235812,25.3043878 C30.510955,25.0679292 30.4983288,24.5444991 30.4942657,23.3036403 L30.4941242,20.2287174 C30.5027129,18.1158945 30.554245,15.9110091 30.554245,15.8140403 C30.554245,15.7384802 30.5389131,15.6478081 30.5082494,15.6478081 C30.446922,15.6478081 30.3702627,15.6780321 30.3242671,15.6931442 C29.9869662,15.8140403 29.6190016,15.9500485 29.1743777,16.0407206 C29.036391,16.0709446 28.9443999,16.1162807 28.9443999,16.1616167 C28.9443999,16.2069528 28.9903954,16.2371768 29.0977184,16.2976249 C29.4963468,16.5394172 29.5270105,16.6149773 29.5270105,16.9474417 C29.5423423,17.6123705 29.5270105,18.851556 29.5270105,20.0756295 C29.5116786,21.8890717 29.4503512,24.4430028 29.4196875,25.0021475 C29.35836,25.6670763 29.2663689,25.8030844 28.8830724,25.8786445 C28.6837583,25.9239806 28.607099,25.9390926 28.607099,26.0146527 C28.607099,26.0902128 28.6837583,26.1053248 28.8677406,26.1053248 C29.0977184,26.1053248 29.4963468,26.0751008 29.8949751,26.0751008 C30.1556167,26.0751008 30.7075635,26.1053248 30.9528733,26.1053248 Z" transform="translate(14.818 27.472)"/>
      <g stroke="#222F3C" stroke-linecap="round">
        <g stroke-linejoin="round" stroke-width=".5">
          <line x1="61.139" y1=".221"/>
          <line x2="61.139" y1=".221" transform="translate(0 16.598)"/>
          <line x2="61.139" y1=".221" transform="translate(0 16.598)"/>
        </g>
        <g stroke-width=".4" transform="translate(21.913 3.904)">
          <g transform="translate(2.28 2.724)">
            <path d="M.162998487 2.03737484L.997389949 3.01306867.0822596811 4.03840248M.0808745017 4.06513294L.915265963 5.04082677 0 6.06616058M.245393864 0L1.07964963.975358429.164519362 2.00102764"/>
          </g>
          <path d="M.162998487 2.03737484L.997389949 3.01306867.0822596811 4.03840248M.0808745017 4.06513294L.915130268 5.04082677 0 6.06616058M.245258168 0L1.07964963.975358429.164519362 2.00102764"/>
          <g transform="translate(5.545)">
            <g transform="translate(2.28 2.724)">
              <path d="M.163134183 2.03737484L.997389949 3.01306867.0822596811 4.03840248M.0807388062 4.06513294L.915130268 5.04082677 0 6.06616058M.245393864 0L1.07964963.975358429.164519362 2.00102764"/>
            </g>
            <path d="M.162998487 2.03737484L.997389949 3.01306867.0822596811 4.03840248M.0808745017 4.06513294L.915265963 5.04082677 0 6.06616058M.245393864 0L1.07964963.975358429.164519362 2.00102764"/>
          </g>
          <g transform="translate(11.09)">
            <g transform="translate(2.279 2.724)">
              <path d="M.163134183 2.03737484L.997389949 3.01306867.0822596811 4.03840248M.0807388062 4.06513294L.915130268 5.04082677 0 6.06616058M.245393864 0L1.07978533.975358429.164519362 2.00102764"/>
            </g>
            <path d="M.160910948 2.03737484L.995166714 3.01306867.0800364465 4.03840248M.0807388062 4.06513294L.915130268 5.04082677 0 6.06616058M.243170629 0L1.0774264.975358429.162296128 2.00102764"/>
          </g>
          <g transform="translate(16.635)">
            <path d="M.163134183 2.03737484L.997389949 3.01306867.0822596811 4.03840248M.0807388062 4.06513294L.915130268 5.04082677 0 6.06616058M.245393864 0L1.07978533.975358429.164519362 2.00102764"/>
          </g>
        </g>
      </g>
    </g>
    <path fill="#333838" fill-rule="nonzero" d="M269.827983,83.0134694 C269.904438,83.0134694 269.950311,82.9225724 270.057348,82.6650307 C270.760731,80.9985844 271.999297,78.1353268 272.962626,76.0446942 C273.925956,73.8934636 274.201193,73.5753238 274.843412,73.4086792 C275.118649,73.3632307 275.195104,73.3026326 275.195104,73.2420346 C275.195104,73.1814365 275.118649,73.166287 274.919867,73.166287 C274.64463,73.166287 274.231774,73.2268851 273.803628,73.2268851 C273.3449,73.2268851 273.130827,73.166287 272.733262,73.166287 C272.519189,73.166287 272.473316,73.196586 272.473316,73.2571841 C272.473316,73.3177821 272.565062,73.3480812 272.809717,73.4238287 C273.314318,73.5753238 273.329609,73.8328655 273.253154,74.1661548 C272.932044,75.2872186 271.081841,79.5290818 270.347875,81.104631 C270.302003,81.1955281 270.271421,81.2106776 270.210257,81.104631 C269.690365,79.9684177 269.017564,78.5292141 268.63529,77.6353929 C268.604708,77.5596453 268.604708,77.4838978 268.619999,77.4535988 C268.879945,76.9839639 269.629201,75.4841623 270.026766,74.7266867 C270.531367,73.848015 270.821895,73.5298753 271.387659,73.4086792 C271.601733,73.3632307 271.678187,73.3177821 271.678187,73.2420346 C271.678187,73.1814365 271.601733,73.166287 271.418241,73.166287 C271.06655,73.166287 270.821895,73.2268851 270.286712,73.2268851 C269.889147,73.2268851 269.644492,73.1814365 269.262219,73.1814365 C269.078727,73.1814365 268.986982,73.2117356 268.986982,73.2571841 C268.986982,73.3177821 269.032855,73.3783802 269.308091,73.4389782 C269.965602,73.5904733 269.980893,73.7419685 269.506874,74.8478828 C269.185764,75.5902088 268.864654,76.2870864 268.497672,77.0294124 C268.451799,77.10516 268.390635,77.0900105 268.375344,77.0597115 C267.870743,75.9083486 267.412015,74.8781818 267.16736,74.2419023 C266.937996,73.6813704 267.090905,73.4995763 267.50376,73.4238287 C267.702543,73.3783802 267.794288,73.3329316 267.794288,73.2571841 C267.794288,73.196586 267.687252,73.166287 267.534342,73.166287 C267.182651,73.166287 266.830959,73.2268851 266.280485,73.2268851 C265.730011,73.2268851 265.439483,73.166287 264.996046,73.166287 C264.797264,73.166287 264.705518,73.2117356 264.705518,73.2571841 C264.705518,73.3329316 264.781973,73.3935297 265.026628,73.4389782 C265.500647,73.5601743 265.622975,73.7419685 266.066412,74.6812382 C266.402813,75.4084147 267.427306,77.7111404 267.671961,78.2868219 C267.671961,78.3171209 267.671961,78.4231675 267.641379,78.468616 C267.228524,79.4381848 266.861541,80.1956603 266.433395,81.0591825 C266.387522,81.13493 266.326358,81.1652291 266.280485,81.0591825 C265.240701,78.7867558 263.726898,75.5599098 263.084679,73.9843606 C262.977642,73.7116694 262.977642,73.5298753 263.405788,73.4541277 C263.58928,73.4238287 263.681025,73.3783802 263.681025,73.3026326 C263.681025,73.2420346 263.58928,73.196586 263.375206,73.196586 C263.054097,73.196586 262.687114,73.2268851 262.350713,73.2268851 C261.891985,73.2268851 261.265057,73.166287 260.898074,73.166287 C260.699292,73.166287 260.592255,73.2268851 260.592255,73.2723336 C260.592255,73.3329316 260.729874,73.3935297 260.913365,73.4086792 C261.494421,73.4844268 261.616748,73.757118 262.167222,74.9387799 C262.885896,76.423432 263.910389,78.6655597 264.751391,80.5895476 C264.950173,81.044033 265.424192,82.1499473 265.622975,82.6498812 C265.730011,82.9225724 265.760593,83.0134694 265.852339,83.0134694 C265.913503,83.0134694 266.005248,82.8922734 266.096994,82.6498812 C266.433395,81.7712095 267.243814,79.9987167 267.82487,78.8776528 C267.855452,78.8322043 267.901325,78.8322043 267.931907,78.8928023 C268.375344,79.8623711 269.246928,81.7409105 269.568037,82.6650307 C269.659783,82.9074229 269.720947,83.0134694 269.827983,83.0134694 Z M277.121762,82.8922734 C277.611072,82.8922734 278.085092,82.6650307 278.299165,82.2408444 C278.360329,82.1044988 278.299165,82.0590502 278.207419,82.1044988 C278.039219,82.1953958 277.886309,82.2408444 277.763982,82.2408444 C277.335835,82.2408444 277.198217,81.9530036 277.198217,81.6651629 C277.198217,81.2712756 277.24409,79.832072 277.24409,79.2715401 C277.24409,78.8019053 277.182926,78.1807753 277.030017,77.8929346 C276.846525,77.4232997 276.372506,77.1203095 275.852614,77.1203095 C275.592668,77.1203095 275.286849,77.2112066 274.935158,77.3930007 C274.629339,77.5444958 274.124738,77.8626356 273.773046,78.2716724 C273.589555,78.4837655 273.482518,78.6201111 273.482518,78.7261577 C273.482518,78.7867558 273.558973,78.8776528 273.635428,78.8625033 C273.742464,78.8473538 274.201193,78.6352606 274.354102,78.5292141 C274.384684,78.498915 274.415266,78.4534665 274.415266,78.408018 C274.415266,78.3019714 274.415266,78.1807753 274.430557,78.1201773 C274.461139,77.9535326 274.552884,77.847486 274.659921,77.756589 C274.889285,77.6202434 275.042194,77.5747948 275.271558,77.5747948 C275.45505,77.5747948 275.714996,77.6656919 275.913778,77.817187 C276.173724,78.0141307 276.280761,78.438317 276.280761,79.059447 C276.280761,79.2715401 276.280761,79.5745304 276.250179,79.7563245 C276.250179,79.8169225 276.173724,79.9532681 276.051396,79.9835672 C275.730287,80.1047633 274.338811,80.5138001 273.971828,80.7107437 C273.83421,80.7864913 273.421355,81.0894815 273.421355,81.5742659 C273.421355,82.3620405 274.032992,82.8771238 274.64463,82.8771238 C275.225686,82.8771238 275.684414,82.6195822 276.143142,82.1953958 C276.158433,82.1802463 276.204306,82.1802463 276.219597,82.2105453 C276.357215,82.5589841 276.693616,82.8922734 277.121762,82.8922734 Z M275.317431,82.3014424 C274.843412,82.3014424 274.399975,81.9530036 274.399975,81.4530698 C274.399975,81.0137339 274.598757,80.7864913 274.782248,80.6955942 C275.103358,80.5289496 275.990233,80.2108098 276.189015,80.1805108 C276.219597,80.1653613 276.250179,80.2411089 276.250179,80.2562584 C276.250179,80.8319398 276.219597,81.4379203 276.173724,81.695462 C276.158433,81.8621066 276.066687,81.9984522 276.005524,82.0590502 C275.837323,82.2105453 275.577377,82.3014424 275.317431,82.3014424 Z M280.715133,82.8619743 C281.14328,82.8619743 281.617299,82.7256287 281.9537,82.468087 C282.152482,82.3165919 282.2901,82.1650968 282.2901,82.0741997 C282.2901,82.0136017 282.244228,81.9984522 282.137191,82.0741997 C281.999572,82.1650968 281.724336,82.3014424 281.296189,82.3014424 C280.898625,82.3014424 280.577515,82.1802463 280.348151,81.8924056 C280.241114,81.7409105 280.210532,81.5591164 280.179951,81.074332 C280.16466,80.6046971 280.149369,78.2262238 280.149369,77.9686821 C280.149369,77.8777851 280.179951,77.8323365 280.363442,77.8323365 C280.776297,77.8323365 281.525553,77.847486 282.060736,77.847486 C282.137191,77.847486 282.213646,77.72629 282.213646,77.4687483 C282.213646,77.3627017 282.152482,77.2566551 282.1219,77.2566551 C281.80079,77.2566551 280.531642,77.3021036 280.256405,77.3021036 C280.195241,77.3021036 280.179951,77.2112066 280.179951,77.165758 C280.16466,76.9839639 280.195241,76.5597776 280.195241,76.423432 C280.195241,76.3476844 280.088205,76.3173854 279.950586,76.4688805 C279.583604,76.9385154 279.079003,77.3475522 278.696729,77.4838978 C278.528529,77.5596453 278.513238,77.6050939 278.513238,77.6353929 C278.513238,77.6959909 278.589693,77.7414395 278.71202,77.7717385 C278.849639,77.8020375 279.017839,77.8323365 279.079003,77.8626356 C279.140167,77.8929346 279.155457,77.9989812 279.155457,78.1656258 L279.155457,81.3015747 C279.155457,81.6651629 279.216621,81.9681532 279.338949,82.1650968 C279.598895,82.6498812 280.072914,82.8619743 280.715133,82.8619743 Z M285.195379,82.8922734 C286.066963,82.8922734 286.709182,82.5892831 287.32082,81.9378541 C287.412566,81.8318076 287.473729,81.7409105 287.473729,81.695462 C287.473729,81.6197144 287.412566,81.5894154 287.290238,81.7106115 C286.923255,82.0590502 286.464527,82.1953958 285.837599,82.1953958 C285.332998,82.1953958 284.72136,82.0287512 284.308505,81.5742659 C283.91094,81.13493 283.605121,80.5138001 283.605121,79.741175 C283.605121,79.3169887 283.650994,79.089746 283.727449,78.9079519 C283.758031,78.8625033 283.834485,78.7867558 283.865067,78.7867558 L284.690778,78.7867558 C285.04247,78.7867558 287.030292,78.8170548 287.15262,78.8322043 C287.229074,78.8322043 287.305529,78.7413072 287.305529,78.6655597 C287.305529,77.7414395 286.3422,77.1203095 285.440034,77.1203095 C284.644905,77.1203095 283.941522,77.4838978 283.528667,77.8777851 C282.886447,78.498915 282.641792,79.3927362 282.641792,80.0896137 C282.641792,80.9076874 282.917029,81.6348639 283.375757,82.1196483 C283.834485,82.6044326 284.476705,82.8922734 285.195379,82.8922734 Z M283.926231,78.5746626 C283.895649,78.5746626 283.865067,78.5443636 283.865067,78.5140646 C283.865067,78.3928685 284.002686,78.1050277 284.186177,77.8929346 C284.522578,77.5444958 284.904851,77.3324027 285.302416,77.3324027 C285.654107,77.3324027 285.914053,77.4687483 286.066963,77.6202434 C286.235163,77.8020375 286.281036,78.0747287 286.281036,78.2565229 C286.281036,78.3928685 286.250454,78.5595131 285.914053,78.5595131 L283.926231,78.5746626 Z M288.161822,82.8165258 C288.375895,82.8165258 288.544095,82.7256287 289.094569,82.7256287 C289.736789,82.7256287 290.24139,82.7862268 290.531918,82.7862268 C290.761282,82.7862268 290.8989,82.7559278 290.8989,82.6801802 C290.8989,82.6044326 290.822445,82.5741336 290.608372,82.5438346 C290.027316,82.4832365 289.843825,82.37719 289.782661,81.9075551 C289.75208,81.5894154 289.721498,80.8016408 289.721498,79.6805769 C289.721498,79.3775867 289.706207,78.9382509 289.736789,78.7564567 C289.75208,78.5746626 289.828534,78.408018 289.996735,78.2262238 C290.195517,78.0444297 290.440172,77.9232336 290.669536,77.9232336 C290.837736,77.9232336 291.036519,77.9989812 291.204719,78.1050277 C291.372919,78.1959248 291.449374,78.2110743 291.479956,78.2110743 C291.525829,78.2110743 291.586992,78.1959248 291.724611,78.0747287 C291.908102,77.9080841 292.061012,77.6656919 292.061012,77.5596453 C292.061012,77.4838978 292.03043,77.4081502 291.953975,77.3475522 C291.801066,77.2263561 291.602283,77.1506085 291.418792,77.1506085 C290.807154,77.1506085 290.195517,77.7111404 289.76737,78.2413733 C289.721498,78.2868219 289.690916,78.2716724 289.690916,78.2262238 C289.690916,77.9838317 289.706207,77.4081502 289.706207,77.2415056 C289.706207,77.0900105 289.675625,77.0294124 289.645043,77.0294124 C289.59917,77.0294124 289.522715,77.0445619 289.415679,77.10516 C289.171024,77.2415056 288.742877,77.3930007 288.437059,77.4687483 C288.29944,77.5141968 288.207695,77.5747948 288.207695,77.6050939 C288.207695,77.6353929 288.222985,77.6808414 288.330022,77.756589 C288.62055,77.9989812 288.727587,78.0444297 288.727587,78.1504763 L288.727587,79.832072 C288.727587,80.8319398 288.712296,81.695462 288.681714,81.9530036 C288.62055,82.3620405 288.45235,82.4983861 288.13124,82.5741336 C288.008912,82.6044326 287.901876,82.6801802 287.901876,82.7256287 C287.901876,82.7862268 287.97833,82.8165258 288.161822,82.8165258 Z M266.326358,97.9660372 C266.52514,97.9660372 266.632177,97.9508877 266.632177,97.8599907 C266.632177,97.7842431 266.555722,97.7539441 266.372231,97.7084955 C265.852339,97.5570004 265.699429,97.4509538 265.638266,96.9358705 C265.592393,96.4662356 265.531229,94.5876962 265.54652,93.7393235 L265.547569,93.428104 C265.552938,92.3552941 265.577102,89.5109266 265.577102,89.012676 C265.577102,88.9066294 265.592393,88.7854333 265.668848,88.7702838 C265.852339,88.7475595 266.328269,88.7418785 266.754743,88.7404582 L267.152069,88.7399848 C268.222435,88.7399848 268.421217,88.8005828 268.558835,88.9217789 C268.681163,89.042975 268.80349,89.3611147 268.834072,89.6338059 C268.849363,89.7095535 268.895236,89.8458991 268.9564,89.8458991 C269.002273,89.8458991 269.078727,89.7398525 269.078727,89.5126099 C269.063436,88.9975265 269.063436,88.5430411 269.1246,88.361247 C269.139891,88.2400509 269.1246,88.2097519 269.109309,88.1643033 C269.094018,88.1340043 269.048145,88.1491538 268.986982,88.1946024 C268.727036,88.330948 268.451799,88.361247 267.733125,88.361247 L265.103083,88.3763965 C263.528116,88.3763965 262.014313,88.330948 261.769658,88.3157985 C261.555584,88.3006489 261.341511,88.2400509 261.280347,88.1643033 C261.234475,88.1188548 261.188602,88.0885558 261.15802,88.1037053 C261.081565,88.1340043 261.081565,88.2097519 261.066274,88.330948 C261.066274,88.7248353 260.943947,89.1793206 260.867492,89.6338059 C260.852201,89.7398525 260.852201,89.8610486 260.913365,89.8610486 C260.974529,89.8610486 261.050983,89.7853011 261.127438,89.6035069 C261.341511,89.012676 261.540293,88.8308818 261.830821,88.7702838 C262.13664,88.7399848 262.503623,88.7096857 263.130551,88.7096857 C263.833935,88.7096857 264.185626,88.7399848 264.277372,88.7551343 C264.323245,88.7551343 264.369118,88.8005828 264.384408,88.9369284 C264.41499,89.1490216 264.41499,95.1785271 264.307954,96.6480297 C264.262081,97.3449073 264.170335,97.5872995 263.43637,97.693346 C263.26817,97.7236451 263.130551,97.7690936 263.130551,97.8296916 C263.130551,97.9054392 263.207006,97.9660372 263.405788,97.9660372 C263.650443,97.9660372 264.109172,97.8751402 264.88901,97.8751402 C265.500647,97.8751402 265.974666,97.9660372 266.326358,97.9660372 Z M268.069525,97.9660372 C268.283598,97.9660372 268.451799,97.8751402 269.002273,97.8751402 C269.644492,97.8751402 270.149093,97.9357382 270.439621,97.9357382 C270.668985,97.9357382 270.806604,97.9054392 270.806604,97.8296916 C270.806604,97.7539441 270.730149,97.7236451 270.516076,97.693346 C269.93502,97.632748 269.751529,97.5267014 269.690365,97.0570666 C269.659783,96.7389268 269.629201,95.9511522 269.629201,94.8300884 C269.629201,94.5270981 269.61391,94.0877623 269.644492,93.9059682 C269.659783,93.724174 269.736238,93.5575294 269.904438,93.3757353 C270.10322,93.1939411 270.347875,93.072745 270.57724,93.072745 C270.74544,93.072745 270.944222,93.1484926 271.112423,93.2545392 C271.280623,93.3454362 271.357078,93.3605858 271.387659,93.3605858 C271.433532,93.3605858 271.494696,93.3454362 271.632315,93.2242402 C271.815806,93.0575955 271.968715,92.8152033 271.968715,92.7091568 C271.968715,92.6334092 271.938133,92.5576617 271.861679,92.4970636 C271.708769,92.3758675 271.509987,92.30012 271.326496,92.30012 C270.714858,92.30012 270.10322,92.8606519 269.675074,93.3908848 C269.629201,93.4363333 269.598619,93.4211838 269.598619,93.3757353 C269.598619,93.1333431 269.61391,92.5576617 269.61391,92.391017 C269.61391,92.2395219 269.583328,92.1789239 269.552747,92.1789239 C269.506874,92.1789239 269.430419,92.1940734 269.323382,92.2546714 C269.078727,92.391017 268.650581,92.5425121 268.344762,92.6182597 C268.207144,92.6637082 268.115398,92.7243063 268.115398,92.7546053 C268.115398,92.7849043 268.130689,92.8303529 268.237726,92.9061004 C268.528253,93.1484926 268.63529,93.1939411 268.63529,93.2999877 L268.634016,95.467981 C268.629768,96.2524592 268.614902,96.887897 268.589417,97.1025151 C268.528253,97.5115519 268.360053,97.6478975 268.038943,97.7236451 C267.916616,97.7539441 267.809579,97.8296916 267.809579,97.8751402 C267.809579,97.9357382 267.886034,97.9660372 268.069525,97.9660372 Z M274.828121,98.0417848 C275.699705,98.0417848 276.341924,97.7387946 276.953562,97.0873656 C277.045308,96.981319 277.106471,96.8904219 277.106471,96.8449734 C277.106471,96.7692258 277.045308,96.7389268 276.92298,96.8601229 C276.555997,97.2085617 276.097269,97.3449073 275.470341,97.3449073 C274.96574,97.3449073 274.354102,97.1782626 273.941247,96.7237773 C273.543682,96.2844415 273.237863,95.6633115 273.237863,94.8906864 C273.237863,94.4665001 273.283736,94.2392574 273.360191,94.0574633 C273.390773,94.0120148 273.467227,93.9362672 273.497809,93.9362672 L274.32352,93.9362672 C274.675212,93.9362672 276.663034,93.9665662 276.785362,93.9817157 C276.861816,93.9817157 276.938271,93.8908187 276.938271,93.8150711 C276.938271,92.8909509 275.974942,92.2698209 275.072776,92.2698209 C274.277647,92.2698209 273.574264,92.6334092 273.161409,93.0272965 C272.519189,93.6484265 272.274534,94.5422477 272.274534,95.2391252 C272.274534,96.0571988 272.549771,96.7843753 273.008499,97.2691597 C273.467227,97.7539441 274.109447,98.0417848 274.828121,98.0417848 Z M273.558973,93.724174 C273.528391,93.724174 273.497809,93.693875 273.497809,93.663576 C273.497809,93.5423799 273.635428,93.2545392 273.818919,93.042446 C274.15532,92.6940073 274.537593,92.4819141 274.935158,92.4819141 C275.286849,92.4819141 275.546795,92.6182597 275.699705,92.7697548 C275.867905,92.951549 275.913778,93.2242402 275.913778,93.4060343 C275.913778,93.5423799 275.883196,93.7090245 275.546795,93.7090245 L273.558973,93.724174 Z M281.540844,98.0417848 C282.030154,98.0417848 282.504174,97.8145421 282.718247,97.3903558 C282.77941,97.2540102 282.718247,97.2085617 282.626501,97.2540102 C282.458301,97.3449073 282.305391,97.3903558 282.183064,97.3903558 C281.754917,97.3903558 281.617299,97.1025151 281.617299,96.8146744 C281.617299,96.4207871 281.663172,94.9815835 281.663172,94.4210516 C281.663172,93.9514167 281.602008,93.3302867 281.449099,93.042446 C281.265607,92.5728112 280.791588,92.2698209 280.271696,92.2698209 C280.01175,92.2698209 279.705931,92.360718 279.35424,92.5425121 C279.048421,92.6940073 278.54382,93.012147 278.192128,93.4211838 C278.008637,93.633277 277.9016,93.7696226 277.9016,93.8756691 C277.9016,93.9362672 277.978055,94.0271643 278.05451,94.0120148 C278.161546,93.9968652 278.620275,93.7847721 278.773184,93.6787255 C278.803766,93.6484265 278.834348,93.6029779 278.834348,93.5575294 C278.834348,93.4514828 278.834348,93.3302867 278.849639,93.2696887 C278.880221,93.1030441 278.971966,92.9969975 279.079003,92.9061004 C279.308367,92.7697548 279.461276,92.7243063 279.69064,92.7243063 C279.874132,92.7243063 280.134078,92.8152033 280.33286,92.9666985 C280.592806,93.1636421 280.699843,93.5878284 280.699843,94.2089584 C280.699843,94.4210516 280.699843,94.7240418 280.669261,94.9058359 C280.669261,94.966434 280.592806,95.1027796 280.470478,95.1330786 C280.149369,95.2542747 278.757893,95.6633115 278.39091,95.8602551 C278.253292,95.9360027 277.840437,96.2389929 277.840437,96.7237773 C277.840437,97.5115519 278.452074,98.0266353 279.063712,98.0266353 C279.644768,98.0266353 280.103496,97.7690936 280.562224,97.3449073 C280.577515,97.3297578 280.623388,97.3297578 280.638679,97.3600568 C280.776297,97.7084955 281.112698,98.0417848 281.540844,98.0417848 Z M279.736513,97.4509538 C279.262494,97.4509538 278.819057,97.1025151 278.819057,96.6025812 C278.819057,96.1632454 279.017839,95.9360027 279.20133,95.8451056 C279.52244,95.678461 280.409315,95.3603213 280.608097,95.3300222 C280.638679,95.3148727 280.669261,95.3906203 280.669261,95.4057698 C280.669261,95.9814512 280.638679,96.5874317 280.592806,96.8449734 C280.577515,97.011618 280.485769,97.1479636 280.424606,97.2085617 C280.256405,97.3600568 279.996459,97.4509538 279.736513,97.4509538 Z M285.134215,98.0114858 C285.562362,98.0114858 286.036381,97.8751402 286.372782,97.6175985 C286.571564,97.4661034 286.709182,97.3146082 286.709182,97.2237112 C286.709182,97.1631131 286.663309,97.1479636 286.556273,97.2237112 C286.418654,97.3146082 286.143417,97.4509538 285.715271,97.4509538 C285.317707,97.4509538 284.996597,97.3297578 284.767233,97.041917 C284.660196,96.8904219 284.629614,96.7086278 284.599032,96.2238434 C284.583742,95.7542086 284.568451,93.3757353 284.568451,93.1181936 C284.568451,93.0272965 284.599032,92.981848 284.782524,92.981848 C285.195379,92.981848 285.944635,92.9969975 286.479818,92.9969975 C286.556273,92.9969975 286.632728,92.8758014 286.632728,92.6182597 C286.632728,92.5122131 286.571564,92.4061665 286.540982,92.4061665 C286.219872,92.4061665 284.950724,92.4516151 284.675487,92.4516151 C284.614323,92.4516151 284.599032,92.360718 284.599032,92.3152695 C284.583742,92.1334753 284.614323,91.709289 284.614323,91.5729434 C284.614323,91.4971959 284.507287,91.4668968 284.369668,91.6183919 C284.002686,92.0880268 283.498085,92.4970636 283.115811,92.6334092 C282.947611,92.7091568 282.93232,92.7546053 282.93232,92.7849043 C282.93232,92.8455024 283.008775,92.8909509 283.131102,92.9212499 C283.268721,92.951549 283.436921,92.981848 283.498085,93.012147 C283.559248,93.042446 283.574539,93.1484926 283.574539,93.3151372 L283.574539,96.4510861 C283.574539,96.8146744 283.635703,97.1176646 283.758031,97.3146082 C284.017977,97.7993926 284.491996,98.0114858 285.134215,98.0114858 Z M294.859254,97.9205887 C295.088618,97.9205887 295.425019,97.8751402 295.792001,97.8751402 C296.143693,97.8751402 296.678876,97.9054392 296.847076,97.9054392 C297.030567,97.9054392 297.107022,97.8751402 297.107022,97.7993926 C297.107022,97.7539441 297.045858,97.7084955 296.831785,97.663047 C296.495385,97.602449 296.403639,97.4964024 296.388348,96.9964685 L296.327184,94.8149389 C296.327184,94.2544069 296.250729,93.6787255 296.143693,93.3757353 C295.944911,92.7849043 295.44031,92.2698209 294.599308,92.2698209 C293.834761,92.2698209 293.131378,92.6788577 292.504449,93.2848382 C292.473867,93.2999877 292.412703,93.2848382 292.397412,93.2545392 C292.061012,92.6031102 291.571702,92.2849704 290.868318,92.2849704 C290.210808,92.2849704 289.476843,92.7243063 288.972242,93.1787916 C288.911078,93.2242402 288.895787,93.1333431 288.895787,93.0878946 C288.880496,92.9212499 288.895787,92.5273626 288.895787,92.360718 C288.895787,92.2698209 288.865205,92.2092229 288.819332,92.2092229 C288.758168,92.2092229 288.681714,92.2395219 288.589968,92.30012 C288.345313,92.4970636 287.871294,92.6788577 287.550184,92.7546053 C287.427857,92.7849043 287.366693,92.8152033 287.366693,92.8606519 L287.381984,92.8606519 C287.381984,92.9363994 287.412566,92.9666985 287.519602,93.0272965 C287.764257,93.1636421 287.856003,93.2999877 287.871294,93.5575294 C287.901876,93.8453701 287.886585,94.2241079 287.886585,94.7846398 L287.885629,95.4893288 C287.882762,96.220056 287.871294,96.9699569 287.825421,97.2085617 C287.794839,97.3903558 287.794839,97.5570004 287.32082,97.663047 C287.106747,97.693346 287.015001,97.7387946 287.015001,97.7993926 C287.015001,97.8599907 287.15262,97.9054392 287.290238,97.9054392 C287.48902,97.9054392 287.81013,97.8751402 288.284149,97.8751402 C288.651132,97.8751402 289.155733,97.9054392 289.446261,97.9054392 C289.553297,97.9054392 289.675625,97.8751402 289.675625,97.7993926 C289.675625,97.7539441 289.614461,97.7084955 289.446261,97.6781965 C289.079278,97.602449 288.987533,97.4206548 288.956951,97.1782626 C288.926369,96.9055714 288.865205,95.8451056 288.865205,94.7240418 C288.865205,94.2089584 288.911078,93.8605196 288.926369,93.693875 C288.94166,93.5878284 288.972242,93.4363333 289.10986,93.3151372 C289.339224,93.1030441 289.721498,92.8455024 290.256681,92.8455024 C290.7307,92.8455024 290.975355,92.981848 291.189428,93.1939411 C291.495247,93.5272304 291.571702,93.8756691 291.571702,94.7088923 L291.556411,97.1631131 C291.556411,97.5267014 291.403501,97.602449 291.082391,97.663047 C290.883609,97.7084955 290.807154,97.7690936 290.807154,97.8145421 C290.807154,97.8751402 290.883609,97.9054392 291.05181,97.9054392 C291.22001,97.9054392 291.586992,97.8751402 291.923393,97.8751402 C292.36683,97.8751402 292.825559,97.9054392 293.100796,97.9054392 C293.268996,97.9054392 293.360742,97.8751402 293.360742,97.8145421 C293.360742,97.7539441 293.284287,97.7387946 293.116087,97.6781965 C292.733813,97.5872995 292.68794,97.4812529 292.642067,97.0570666 C292.611486,96.6480297 292.565613,94.3301545 292.535031,93.9059682 C292.535031,93.633277 292.580904,93.4666323 292.642067,93.4060343 C292.902013,93.1484926 293.376033,92.8455024 293.941797,92.8455024 C294.691053,92.8455024 295.088618,93.2242402 295.226236,93.9968652 C295.2874,94.4513506 295.363855,95.1785271 295.333273,96.9964685 C295.333273,97.4509538 295.256818,97.5872995 294.813381,97.6781965 C294.691053,97.7084955 294.553435,97.7539441 294.553435,97.8296916 C294.553435,97.8902897 294.660472,97.9205887 294.859254,97.9205887 Z M300.394574,98.0417848 C301.266158,98.0417848 301.908378,97.7387946 302.520015,97.0873656 C302.611761,96.981319 302.672925,96.8904219 302.672925,96.8449734 C302.672925,96.7692258 302.611761,96.7389268 302.489433,96.8601229 C302.122451,97.2085617 301.663723,97.3449073 301.036794,97.3449073 C300.532193,97.3449073 299.920555,97.1782626 299.5077,96.7237773 C299.110135,96.2844415 298.804317,95.6633115 298.804317,94.8906864 C298.804317,94.4665001 298.850189,94.2392574 298.926644,94.0574633 C298.957226,94.0120148 299.033681,93.9362672 299.064263,93.9362672 L299.889973,93.9362672 C300.241665,93.9362672 302.229487,93.9665662 302.351815,93.9817157 C302.42827,93.9817157 302.504724,93.8908187 302.504724,93.8150711 C302.504724,92.8909509 301.541395,92.2698209 300.63923,92.2698209 C299.844101,92.2698209 299.140717,92.6334092 298.727862,93.0272965 C298.085642,93.6484265 297.840987,94.5422477 297.840987,95.2391252 C297.840987,96.0571988 298.116224,96.7843753 298.574952,97.2691597 C299.033681,97.7539441 299.6759,98.0417848 300.394574,98.0417848 Z M299.125426,93.724174 C299.094844,93.724174 299.064263,93.693875 299.064263,93.663576 C299.064263,93.5423799 299.201881,93.2545392 299.385372,93.042446 C299.721773,92.6940073 300.104047,92.4819141 300.501611,92.4819141 C300.853303,92.4819141 301.113249,92.6182597 301.266158,92.7697548 C301.434358,92.951549 301.480231,93.2242402 301.480231,93.4060343 C301.480231,93.5423799 301.449649,93.7090245 301.113249,93.7090245 L299.125426,93.724174 Z M309.09512,97.9357382 C309.248029,97.9357382 309.370357,97.9205887 309.370357,97.8296916 C309.370357,97.7690936 309.278611,97.7387946 309.140993,97.6781965 C308.728137,97.5721499 308.682264,97.4812529 308.666974,96.4510861 C308.666974,95.6936105 308.651683,95.5724144 308.651683,94.7694903 C308.636392,93.9059682 308.514064,93.1484926 308.162372,92.7849043 C307.96359,92.5728112 307.596608,92.2698209 306.969679,92.2698209 C306.709733,92.2698209 306.388623,92.30012 306.067514,92.4516151 C305.731113,92.5879607 305.36413,92.8455024 304.981857,93.1333431 C304.951275,93.1636421 304.905402,93.1181936 304.905402,93.0878946 C304.890111,92.8758014 304.920693,92.4667646 304.935984,92.2849704 C304.951275,92.2092229 304.87482,92.1486248 304.828947,92.1637744 C304.569001,92.330419 303.957364,92.5879607 303.620963,92.6788577 C303.483345,92.7243063 303.40689,92.7697548 303.40689,92.8000538 C303.40689,92.8455024 303.437472,92.8758014 303.529217,92.9363994 C303.8962,93.1333431 303.926782,93.2999877 303.926782,93.4514828 L303.925649,94.7167476 C303.923384,95.5740977 303.916588,96.4359366 303.8962,97.1631131 C303.880909,97.4661034 303.819745,97.5721499 303.437472,97.6478975 C303.25398,97.6781965 303.116362,97.7387946 303.116362,97.7993926 C303.116362,97.8751402 303.238689,97.9054392 303.40689,97.9054392 C303.697418,97.9054392 304.018527,97.8751402 304.21731,97.8751402 C304.569001,97.8751402 305.318257,97.9357382 305.440585,97.9357382 C305.593494,97.9357382 305.746404,97.9357382 305.746404,97.8448411 C305.746404,97.7690936 305.669949,97.7387946 305.486458,97.693346 C305.241803,97.6175985 305.058311,97.5418509 305.012439,97.2085617 C304.981857,96.9964685 304.935984,96.6025812 304.920693,95.617863 L304.91936,95.1383143 C304.915638,94.4474693 304.905402,93.9032137 304.905402,93.7544731 C304.905402,93.633277 304.981857,93.4060343 305.088893,93.2999877 C305.486458,92.9666985 305.884022,92.8152033 306.281587,92.8152033 C306.633278,92.8152033 306.923806,92.9212499 307.15317,93.1030441 C307.535444,93.3908848 307.64248,93.7544731 307.64248,94.9815835 L307.64248,97.041917 C307.64248,97.4812529 307.581317,97.5872995 307.214334,97.6781965 C307.015552,97.7236451 306.923806,97.7842431 306.923806,97.8448411 C306.923806,97.9054392 307.030843,97.9357382 307.168461,97.9357382 C307.397825,97.9357382 307.596608,97.8751402 308.1165,97.8751402 C308.4529,97.8751402 308.896338,97.9357382 309.09512,97.9357382 Z M312.138017,98.0114858 C312.566163,98.0114858 313.040183,97.8751402 313.376583,97.6175985 C313.575366,97.4661034 313.712984,97.3146082 313.712984,97.2237112 C313.712984,97.1631131 313.667111,97.1479636 313.560075,97.2237112 C313.422456,97.3146082 313.147219,97.4509538 312.719073,97.4509538 C312.321508,97.4509538 312.000399,97.3297578 311.771035,97.041917 C311.663998,96.8904219 311.633416,96.7086278 311.602834,96.2238434 C311.587543,95.7542086 311.572252,93.3757353 311.572252,93.1181936 C311.572252,93.0272965 311.602834,92.981848 311.786325,92.981848 C312.199181,92.981848 312.948437,92.9969975 313.48362,92.9969975 C313.560075,92.9969975 313.636529,92.8758014 313.636529,92.6182597 C313.636529,92.5122131 313.575366,92.4061665 313.544784,92.4061665 C313.223674,92.4061665 311.954526,92.4516151 311.679289,92.4516151 C311.618125,92.4516151 311.602834,92.360718 311.602834,92.3152695 C311.587543,92.1334753 311.618125,91.709289 311.618125,91.5729434 C311.618125,91.4971959 311.511089,91.4668968 311.37347,91.6183919 C311.006488,92.0880268 310.501886,92.4970636 310.119613,92.6334092 C309.951413,92.7091568 309.936122,92.7546053 309.936122,92.7849043 C309.936122,92.8455024 310.012576,92.8909509 310.134904,92.9212499 C310.272522,92.951549 310.440723,92.981848 310.501886,93.012147 C310.56305,93.042446 310.578341,93.1484926 310.578341,93.3151372 L310.578341,96.4510861 C310.578341,96.8146744 310.639505,97.1176646 310.761832,97.3146082 C311.021778,97.7993926 311.495798,98.0114858 312.138017,98.0114858 Z M264.24679,113.115549 C264.399699,113.115549 264.5679,113.100399 264.5679,113.009502 C264.5679,112.948904 264.476154,112.903456 264.353827,112.873156 C263.650443,112.706512 263.558698,112.615615 263.543407,112.039933 C263.512825,111.358205 263.482243,108.994882 263.497534,108.72219 C263.497534,108.646443 263.619861,108.525247 263.650443,108.525247 L264.216091,108.526058 C265.853067,108.531155 266.074422,108.559874 266.295776,108.600994 C266.479267,108.646443 266.632177,108.797938 266.754504,109.131227 C266.84625,109.34332 266.907414,109.464516 266.968578,109.464516 C267.045032,109.464516 267.075614,109.403918 267.075614,109.206975 C267.060323,109.010031 267.01445,108.797938 267.01445,108.479798 C267.01445,108.161658 267.075614,107.707173 267.090905,107.540528 C267.106196,107.389033 267.075614,107.313286 267.01445,107.313286 C266.968578,107.313286 266.922705,107.373884 266.84625,107.525379 C266.616886,108.040462 266.402813,108.085911 266.18874,108.11621 C265.944084,108.146509 265.210119,108.161658 263.650443,108.161658 C263.619861,108.161658 263.512825,108.10106 263.512825,107.979864 C263.482243,106.23767 263.512825,104.495477 263.528116,104.07129 C263.528116,103.995543 263.635152,103.798599 263.742189,103.798599 L264.834646,103.799923 C265.522362,103.802902 265.941732,103.812583 266.280485,103.844048 C266.830959,103.889496 267.16736,104.116739 267.427306,104.70757 C267.50376,104.904513 267.549633,105.01056 267.610797,105.01056 C267.687252,105.01056 267.717834,104.874214 267.687252,104.722719 C267.65667,104.540925 267.610797,103.874347 267.580215,103.662254 C267.580215,103.556207 267.473179,103.480459 267.152069,103.480459 C266.571013,103.480459 264.950173,103.525908 263.344624,103.525908 C262.671823,103.525908 261.830821,103.46531 261.64733,103.46531 C261.509712,103.46531 261.417966,103.495609 261.417966,103.556207 C261.417966,103.631955 261.525003,103.677403 261.662621,103.707702 C262.213095,103.844048 262.258968,103.980393 262.28955,104.525776 C262.335422,105.449896 262.335422,106.374016 262.335422,107.979864 C262.335422,109.646311 262.335422,111.52485 262.28955,112.024784 C262.258968,112.585316 262.182513,112.706512 261.601457,112.827708 C261.402675,112.873156 261.32622,112.918605 261.32622,112.979203 C261.32622,113.054951 261.433257,113.08525 261.570875,113.08525 C261.784949,113.08525 262.167222,113.024652 262.748278,113.024652 C263.375206,113.024652 264.032717,113.115549 264.24679,113.115549 Z M271.55586,113.191296 C272.04517,113.191296 272.519189,112.964054 272.733262,112.539867 C272.794426,112.403522 272.733262,112.358073 272.641517,112.403522 C272.473316,112.494419 272.320407,112.539867 272.198079,112.539867 C271.769933,112.539867 271.632315,112.252027 271.632315,111.964186 C271.632315,111.570299 271.678187,110.131095 271.678187,109.570563 C271.678187,109.100928 271.617024,108.479798 271.464114,108.191957 C271.280623,107.722323 270.806604,107.419332 270.286712,107.419332 C270.026766,107.419332 269.720947,107.510229 269.369255,107.692024 C269.063436,107.843519 268.558835,108.161658 268.207144,108.570695 C268.023652,108.782788 267.916616,108.919134 267.916616,109.025181 C267.916616,109.085779 267.993071,109.176676 268.069525,109.161526 C268.176562,109.146377 268.63529,108.934284 268.788199,108.828237 C268.818781,108.797938 268.849363,108.752489 268.849363,108.707041 C268.849363,108.600994 268.849363,108.479798 268.864654,108.4192 C268.895236,108.252556 268.986982,108.146509 269.094018,108.055612 C269.323382,107.919266 269.476292,107.873818 269.705656,107.873818 C269.889147,107.873818 270.149093,107.964715 270.347875,108.11621 C270.607821,108.313154 270.714858,108.73734 270.714858,109.35847 C270.714858,109.570563 270.714858,109.873553 270.684276,110.055347 C270.684276,110.115945 270.607821,110.252291 270.485494,110.28259 C270.164384,110.403786 268.772909,110.812823 268.405926,111.009767 C268.268307,111.085514 267.855452,111.388504 267.855452,111.873289 C267.855452,112.661063 268.46709,113.176147 269.078727,113.176147 C269.659783,113.176147 270.118511,112.918605 270.57724,112.494419 C270.592531,112.479269 270.638403,112.479269 270.653694,112.509568 C270.791313,112.858007 271.127713,113.191296 271.55586,113.191296 Z M269.751529,112.600465 C269.27751,112.600465 268.834072,112.252027 268.834072,111.752093 C268.834072,111.312757 269.032855,111.085514 269.216346,110.994617 C269.537456,110.827972 270.42433,110.509833 270.623112,110.479534 C270.653694,110.464384 270.684276,110.540132 270.684276,110.555281 C270.684276,111.130963 270.653694,111.736943 270.607821,111.994485 C270.592531,112.161129 270.500785,112.297475 270.439621,112.358073 C270.271421,112.509568 270.011475,112.600465 269.751529,112.600465 Z M275.883196,113.191296 C277.014726,113.191296 277.718109,112.555017 277.993346,112.191428 C278.085092,112.085382 278.115673,112.009634 278.115673,111.949036 C278.115673,111.903588 278.039219,111.918737 278.008637,111.949036 C277.473454,112.418671 277.075889,112.524718 276.418379,112.524718 C275.959651,112.524718 275.393886,112.358073 274.996322,111.994485 C274.629339,111.676345 274.231774,111.040066 274.231774,110.025048 C274.231774,108.282855 275.286849,107.676874 275.929069,107.676874 C276.097269,107.676874 276.326633,107.707173 276.510125,107.79807 C276.739489,107.919266 277.121762,108.176808 277.366417,108.4192 C277.458163,108.510097 277.5652,108.570695 277.626363,108.570695 C277.7334,108.570695 278.008637,108.373752 278.008637,108.085911 C278.008637,108.010163 277.962764,107.888967 277.794564,107.79807 C277.534618,107.601127 277.060599,107.419332 276.403088,107.419332 C275.409177,107.419332 274.614048,107.858668 274.140029,108.298004 C273.681301,108.72219 273.207281,109.449367 273.207281,110.403786 C273.207281,111.237009 273.482518,111.964186 273.971828,112.44897 C274.47643,112.933755 275.195104,113.191296 275.883196,113.191296 Z M280.01175,105.964979 C280.210532,105.964979 280.577515,105.798335 280.577515,105.389298 C280.577515,105.131756 280.394024,104.813616 280.042332,104.813616 C279.797677,104.813616 279.507149,105.02571 279.507149,105.404447 C279.507149,105.707438 279.736513,105.964979 280.01175,105.964979 Z M280.852752,113.08525 C280.975079,113.08525 281.097407,113.054951 281.097407,112.979203 C281.097407,112.918605 281.020952,112.888306 280.868043,112.858007 C280.623388,112.797409 280.470478,112.721661 280.439897,112.418671 C280.409315,112.161129 280.409315,111.040066 280.409315,109.767507 C280.409315,108.797938 280.409315,107.873818 280.439897,107.570827 C280.455187,107.404183 280.424606,107.358734 280.378733,107.358734 C280.348151,107.358734 280.271696,107.389033 280.149369,107.464781 C279.828259,107.601127 279.461276,107.752622 279.048421,107.858668 C278.910802,107.888967 278.86493,107.934416 278.86493,107.979864 C278.86493,108.010163 278.910802,108.055612 278.987257,108.10106 C279.367832,108.303054 279.422199,108.397318 279.429583,108.564731 L279.429499,108.784965 C279.42371,109.399672 279.398314,111.593468 279.384822,111.994485 C279.369531,112.615615 279.231912,112.736811 278.895511,112.827708 C278.681438,112.858007 278.604984,112.903456 278.604984,112.964054 C278.604984,113.024652 278.71202,113.054951 278.819057,113.054951 C278.987257,113.054951 279.231912,113.024652 279.736513,113.024652 C280.149369,113.024652 280.715133,113.08525 280.852752,113.08525 Z M284.033268,113.054951 C284.23205,113.054951 284.339086,113.009502 284.339086,112.948904 C284.339086,112.903456 284.23205,112.858007 284.140304,112.842857 C283.712158,112.76711 283.620412,112.661063 283.605121,112.252027 C283.58983,111.964186 283.574539,111.252159 283.574539,109.34332 L283.574539,107.737472 C283.574539,105.465045 283.635703,102.84418 283.635703,102.738133 C283.635703,102.662386 283.620412,102.571489 283.58983,102.571489 C283.528667,102.571489 283.452212,102.601788 283.406339,102.616937 C283.069938,102.738133 282.702956,102.874479 282.259518,102.965376 C282.1219,102.995675 282.030154,103.041124 282.030154,103.086572 C282.030154,103.132021 282.076027,103.16232 282.183064,103.222918 C282.580628,103.46531 282.61121,103.541057 282.61121,103.874347 C282.626501,104.540925 282.61121,105.783185 282.61121,107.010296 C282.595919,108.828237 282.534755,111.388504 282.504174,111.949036 C282.44301,112.615615 282.351264,112.75196 281.968991,112.827708 C281.770208,112.873156 281.693754,112.888306 281.693754,112.964054 C281.693754,113.039801 281.770208,113.054951 281.9537,113.054951 C282.183064,113.054951 282.580628,113.024652 282.978193,113.024652 C283.238139,113.024652 283.788613,113.054951 284.033268,113.054951 Z M286.479818,105.964979 C286.6786,105.964979 287.045583,105.798335 287.045583,105.389298 C287.045583,105.131756 286.862092,104.813616 286.5104,104.813616 C286.265745,104.813616 285.975217,105.02571 285.975217,105.404447 C285.975217,105.707438 286.204581,105.964979 286.479818,105.964979 Z M287.32082,113.08525 C287.443147,113.08525 287.565475,113.054951 287.565475,112.979203 C287.565475,112.918605 287.48902,112.888306 287.336111,112.858007 C287.091456,112.797409 286.938546,112.721661 286.907965,112.418671 C286.877383,112.161129 286.877383,111.040066 286.877383,109.767507 C286.877383,108.797938 286.877383,107.873818 286.907965,107.570827 C286.923255,107.404183 286.892674,107.358734 286.846801,107.358734 C286.816219,107.358734 286.739764,107.389033 286.617437,107.464781 C286.296327,107.601127 285.929344,107.752622 285.516489,107.858668 C285.37887,107.888967 285.332998,107.934416 285.332998,107.979864 C285.332998,108.010163 285.37887,108.055612 285.455325,108.10106 C285.883471,108.328303 285.898762,108.4192 285.898762,108.631293 C285.898762,108.782788 285.868181,111.539999 285.85289,111.994485 C285.837599,112.615615 285.69998,112.736811 285.363579,112.827708 C285.149506,112.858007 285.073052,112.903456 285.073052,112.964054 C285.073052,113.024652 285.180088,113.054951 285.287125,113.054951 C285.455325,113.054951 285.69998,113.024652 286.204581,113.024652 C286.617437,113.024652 287.183201,113.08525 287.32082,113.08525 Z M290.379008,113.160997 C290.807154,113.160997 291.281174,113.024652 291.617574,112.76711 C291.816357,112.615615 291.953975,112.46412 291.953975,112.373223 C291.953975,112.312625 291.908102,112.297475 291.801066,112.373223 C291.663447,112.46412 291.38821,112.600465 290.960064,112.600465 C290.562499,112.600465 290.24139,112.479269 290.012026,112.191428 C289.904989,112.039933 289.874407,111.858139 289.843825,111.373355 C289.828534,110.90372 289.813243,108.525247 289.813243,108.267705 C289.813243,108.176808 289.843825,108.131359 290.027316,108.131359 C290.440172,108.131359 291.189428,108.146509 291.724611,108.146509 C291.801066,108.146509 291.87752,108.025313 291.87752,107.767771 C291.87752,107.661725 291.816357,107.555678 291.785775,107.555678 C291.464665,107.555678 290.195517,107.601127 289.92028,107.601127 C289.859116,107.601127 289.843825,107.510229 289.843825,107.464781 C289.828534,107.282987 289.859116,106.8588 289.859116,106.722455 C289.859116,106.646707 289.75208,106.616408 289.614461,106.767903 C289.247479,107.237538 288.742877,107.646575 288.360604,107.782921 C288.192404,107.858668 288.177113,107.904117 288.177113,107.934416 C288.177113,107.995014 288.253567,108.040462 288.375895,108.070761 C288.513513,108.10106 288.681714,108.131359 288.742877,108.161658 C288.804041,108.191957 288.819332,108.298004 288.819332,108.464649 L288.819332,111.600598 C288.819332,111.964186 288.880496,112.267176 289.002823,112.46412 C289.262769,112.948904 289.736789,113.160997 290.379008,113.160997 Z M293.284287,117.266515 C293.452487,117.266515 293.635979,117.221066 293.788888,117.008973 C293.895925,116.872628 293.972379,116.721132 294.079416,116.448441 C294.293489,115.933358 294.874545,114.357809 295.241527,113.479137 C295.562637,112.661063 295.700256,112.312625 295.883747,111.812691 C296.113111,111.237009 297.061149,108.903984 297.244641,108.525247 C297.489296,107.964715 297.642205,107.858668 297.948024,107.767771 C298.100933,107.722323 298.162097,107.661725 298.162097,107.616276 C298.162097,107.570827 298.070351,107.555678 297.978606,107.555678 C297.749242,107.555678 297.550459,107.601127 297.275223,107.601127 C297.045858,107.601127 296.724749,107.555678 296.541257,107.555678 C296.403639,107.555678 296.327184,107.585977 296.327184,107.646575 C296.327184,107.692024 296.373057,107.737472 296.602421,107.782921 C296.862367,107.858668 296.938822,107.979864 296.938822,108.085911 C296.938822,108.161658 296.938822,108.343453 296.862367,108.525247 C296.74004,108.873685 295.883747,111.055215 295.684965,111.570299 C295.669674,111.615747 295.623801,111.630897 295.593219,111.570299 C295.2874,110.934019 294.446398,108.888835 294.247616,108.358602 C294.109998,107.964715 294.14058,107.888967 294.47698,107.782921 C294.568726,107.767771 294.675763,107.722323 294.675763,107.661725 C294.675763,107.601127 294.568726,107.555678 294.415817,107.555678 C294.217034,107.555678 293.81947,107.601127 293.605397,107.601127 C293.238414,107.601127 292.810268,107.540528 292.535031,107.540528 C292.427994,107.540528 292.290376,107.570827 292.290376,107.646575 C292.290376,107.692024 292.382121,107.752622 292.565613,107.79807 C292.825559,107.858668 293.00905,108.010163 293.116087,108.207107 C293.804179,109.691759 294.782799,112.14598 295.012163,112.736811 C295.058036,112.873156 295.088618,113.024652 295.027454,113.221595 C294.507562,114.539603 294.064125,115.781863 293.911215,116.100002 C293.81947,116.312096 293.697142,116.357544 293.513651,116.357544 L293.207832,116.327245 L293.207832,116.327245 C292.978468,116.327245 292.779686,116.539338 292.779686,116.766581 C292.779686,117.069571 293.039632,117.266515 293.284287,117.266515 Z"/>
    <g fill-rule="nonzero" stroke-linecap="round" stroke-linejoin="round" transform="translate(69.157 65.148)">
      <g stroke="#222F3C" stroke-width=".5" transform="translate(22.76 19.565)">
        <g transform="translate(66.972 26.607)">
          <g transform="translate(0 7.139)">
            <line x1="29.184" x2="29.184" y1="5.929" y2="8.967"/>
            <g transform="translate(2.278 12.618)">
              <g transform="translate(14.481 1.41)">
                <line y2="5.014"/>
                <line x1="22.082" x2="22.082" y2="5.014"/>
              </g>
              <rect width="5.872" height="6.522" x="23.998" rx="1"/>
              <line y2="5.014" transform="translate(0 1.41)"/>
            </g>
            <path d="M4.44202837,11.9156623 L18.6431641,11.9156623 L29.1224369,0 L10.4792728,0 L0,11.9156623"/>
            <line x1="29.219" x2="39.699" y1=".016" y2="11.932"/>
          </g>
          <g transform="translate(18.869)">
            <line x1="25.055" x2="25.055" y1="5.93" y2="8.967"/>
            <g transform="translate(22.148 12.472)">
              <line y2="5.014" transform="translate(12.565 1.423)"/>
              <rect width="5.872" height="6.522" rx="1"/>
            </g>
            <path d="M14.5151057,11.9153248 L24.9943785,0 L6.35121443,0 L0,7.09249542"/>
            <line x1="25.091" x2="35.57" y1=".017" y2="11.932"/>
          </g>
        </g>
        <g transform="translate(47.337 20.252)">
          <g transform="translate(0 7.139)">
            <line x1="24.601" x2="24.601" y1="5.93" y2="8.967"/>
            <g transform="translate(12.176 12.47)">
              <line y2="5.014" transform="translate(0 1.558)"/>
              <path d="M9.5175188,3.31219367 L9.5175188,0.597031853 C9.5175188,0.268309962 9.78310816,0 10.1120291,0 L12.536855,0"/>
            </g>
            <path d="M4.44815994,11.9153248 L14.0601096,11.9153248 L24.5393824,0 L5.89621835,0 L0,6.74656119"/>
            <line x1="24.637" x2="30.083" y1=".017" y2="6.349"/>
          </g>
          <g transform="translate(14.286)">
            <line x1="25.055" x2="25.055" y1="5.93" y2="8.968"/>
            <path d="M0,1.10560552 L0,0.671789144 C0,0.300217634 0.266933273,0 0.594510292,0 L2.94222959,0" transform="translate(22.147 12.472)"/>
            <path d="M14.5151057,11.9156623 L24.9943785,0 L6.35113044,0 L0,7.09283292"/>
            <line x1="25.091" x2="30.625" y1=".017" y2="6.339"/>
          </g>
        </g>
        <g transform="translate(0 20.848)">
          <g transform="translate(17.673 12.898)">
            <line x1="10.652" x2="10.515" y1="5.929" y2="8.967"/>
            <g transform="translate(.857 12.47)">
              <g transform="translate(0 1.558)">
                <line x1="22.219" x2="22.082" y2="5.014"/>
                <line x1=".138" y2="5.014"/>
              </g>
              <path d="M7.69363959,7.00970438e-07 L11.5651512,7.00970438e-07 C12.117436,7.00970438e-07 12.5651512,0.447715951 12.5651512,1.0000007 L12.5651512,5.52195773 C12.5651512,6.07424248 12.117436,6.52195773 11.5651512,6.52195773 L7.69363959,6.52195773 C7.14135484,6.52195773 6.69363959,6.07424248 6.69363959,5.52195773 L6.69363959,1.0000007 C6.69363959,0.447715951 7.14135484,7.00970438e-07 7.69363959,7.00970438e-07 Z" transform="rotate(-180 9.63 3.261)"/>
              <line x1=".221" y2="5.014" transform="translate(36.563 1.558)"/>
            </g>
            <path d="M35.2563989,11.9156623 L21.0552632,11.9156623 L10.5759904,0 L29.2191545,0 L39.6984273,11.9156623"/>
            <line x1="10.479" y1=".016" y2="11.932"/>
          </g>
          <line x1="13.585" x2="13.447" y1="11.689" y2="14.726"/>
          <g transform="translate(3.79 18.304)">
            <line x1=".221" y2="5.014" transform="translate(0 1.483)"/>
            <path d="M7.69363959,7.00970436e-07 L11.5651512,7.00970436e-07 C12.117436,7.00970436e-07 12.5651512,0.447715951 12.5651512,1.0000007 L12.5651512,5.52195773 C12.5651512,6.07424248 12.117436,6.52195773 11.5651512,6.52195773 L7.69363959,6.52195773 C7.14135484,6.52195773 6.69363959,6.07424248 6.69363959,5.52195773 L6.69363959,1.0000007 C6.69363959,0.447715951 7.14135484,7.00970436e-07 7.69363959,7.00970436e-07 Z" transform="rotate(-180 9.63 3.261)"/>
          </g>
          <g transform="translate(2.933 5.759)">
            <path d="M21.0551772,11.9153248 L10.5759044,0 L29.2190684,0 L35.5702829,7.09249542"/>
            <line x1="10.479" y1=".017" y2="11.932"/>
          </g>
          <path d="M15.6072098,5.7094335 L10.5757948,0 L29.2189589,0 L32.6749805,3.92205041"/>
          <line x1="10.479" y1=".017" y2="11.932"/>
          <line x1="10.678" x2="10.54" y1="5.957" y2="8.995"/>
        </g>
        <g transform="translate(43.613 14.558)">
          <path d="M23.0992195,0 L10.4792728,0 L0,11.9153248" transform="translate(0 7.139)"/>
          <g transform="translate(18.867)">
            <path d="M19.7008179,5.6777088 L24.9943785,0 L6.35121443,0 L0,7.09249542"/>
            <line x1="25.092" x2="35.571" y1=".017" y2="11.932"/>
          </g>
        </g>
        <g transform="translate(48.03 5.744)">
          <path d="M19.4401002,0 L6.82023753,0 L0,7.68446482" transform="translate(0 7.139)"/>
          <g transform="translate(15.21)">
            <path d="M19.7008179,5.6777088 L24.9943785,0 L6.35121443,0 L0,7.09249542"/>
            <line x1="25.091" x2="35.57" y1=".017" y2="11.932"/>
          </g>
        </g>
        <path d="M21.0927682,0 L2.44960415,0 L0,3.06413352" transform="translate(31.3 23.552)"/>
        <line x1="98.057" x2="98.057" y1="19.73" y2="23.489"/>
        <g transform="translate(25.6 14.739)">
          <path d="M8.17835035,5.6777088 L2.88478971,0 L21.5279538,0 L24.4921899,3.29228136"/>
          <line x1="2.788" y1=".016" y2="3.071"/>
        </g>
        <g transform="translate(37.072 6.84)">
          <path d="M8.17875285,5.6777088 L2.88519221,0 L21.5283563,0 L24.4925084,3.29228136"/>
          <line x1="2.788" y1=".016" y2="3.071"/>
        </g>
        <g transform="translate(58.549)">
          <path d="M16.3138395,5.6777088 L21.6074001,0 L2.96423604,0 L0,3.29261886"/>
          <line x1="21.704" x2="24.492" y1=".016" y2="3.071"/>
        </g>
      </g>
      <g stroke="#222F3C" stroke-width=".5" transform="translate(0 65.167)">
        <line x2="134.476" y1="7.311" y2="7.311"/>
        <line x1="135.329" x2="185.421"/>
      </g>
      <path stroke="#222F3C" stroke-width=".5" d="M16.6639269,11.8552504 L1.50416648,11.8552504 C0.970215935,11.8552504 0,11.0992575 0,9.89776889 C0,8.69796774 0.970215935,7.94197489 2.16469614,7.94197489 L3.07023661,7.94197489 C2.85143196,7.94197489 2.72476884,6.9146346 2.72476884,6.35776487 C2.72476884,4.31860916 4.37071737,2.65002494 6.40194687,2.65002494 C7.3666192,2.65002494 8.2418378,3.02059643 8.89825175,3.63146565 C9.55466569,2.47587658 10.7918149,1.69052151 12.2120713,1.69052151 C12.8258162,1.69052151 13.4024358,1.83868261 13.9157237,2.09585518 C14.8473864,0.828217167 16.3418935,0 18.0304271,0 C20.8557369,0 23.1456682,2.32805298 23.1456682,5.16606364 C23.1456682,6.17787907 22.849757,7.45260451 22.3474722,7.94197489" transform="translate(47.768)"/>
      <path stroke="#222F3C" stroke-width=".5" d="M5.772999,0.197773129 C5.42207162,0.0664868712 5.0545974,0 4.67754785,0 C3.15691853,0 1.84543453,1.11711443 1.58673268,2.61391278 C0.619288554,3.07999587 0,4.06143659 0,5.14378885 C0,6.69222421 1.25369605,7.9514248 2.79498792,7.9514248 L8.32028829,7.9514248 C9.86158016,7.9514248 11.1151922,6.69222421 11.1151922,5.14378885 C11.1151922,3.59704098 9.86158016,2.33750289 8.32028829,2.33750289 C8.1220622,2.33750289 7.92257619,2.35842769 7.725778,2.40263978 C7.64867141,2.08876774 7.526208,1.79143306 7.35695987,1.51367318" transform="translate(64.338 7.746)"/>
      <g stroke="#222F3C" stroke-width=".5" transform="translate(154.715 43.472)">
        <path d="M11.9960384,3.98111235 C11.8680314,1.76240833 9.95926531,0 7.61843353,0 C5.27760175,0 3.37026356,1.76240833 3.24091263,3.98111235 C1.37481555,4.46643276 0,6.1005923 0,8.04828638 C0,9.99328048 1.37204374,11.6271025 3.23679692,12.1137729 C3.23536902,12.1650724 3.22848151,12.2146845 3.22848151,12.265984 C3.22848151,14.595387 5.19369164,16.4836816 7.61843353,16.4836816 C10.0432594,16.4836816 12.0083856,14.595387 12.0083856,12.265984 C12.0083856,12.2146845 12.001498,12.1650724 12.0001541,12.1137729"/>
        <line x1="7.67" x2="11.107" y1="9.243" y2="6.127"/>
        <line x1="7.428" x2="4.481" y1="11.07" y2="7.179"/>
        <line x1="7.526" x2="7.526" y1="6.861" y2="21.617"/>
        <g transform="translate(12.072 4.883)">
          <path d="M0,7.21196929 C0.34681167,8.26664682 1.22614598,9.09486398 2.3504911,9.38646122 C2.3490632,9.42662334 2.34494749,9.46509798 2.34494749,9.50391011 C2.34494749,11.3091805 3.87935184,12.7718917 5.772999,12.7718917 C7.66656215,12.7718917 9.20239441,11.3091805 9.20239441,9.50391011 C9.20239441,9.46509798 9.1968508,9.42662334 9.19550689,9.38646122 C10.6528047,9.00913979 11.7248214,7.74420176 11.7248214,6.23592852 C11.7248214,4.72765529 10.6501168,3.46136726 9.19273509,3.08539582 C9.09227813,1.36584958 7.60188669,0 5.772999,0 C4.53030618,0 3.45417367,0.637193974 2.85411977,1.58286003"/>
          <line x1="5.809" x2="8.498" y1="7.449" y2="4.748"/>
          <line x1="5.625" x2="3.322" y1="8.578" y2="5.563"/>
          <line x1="5.701" x2="5.701" y1="5.317" y2="16.75"/>
        </g>
      </g>
      <g stroke="#222F3C" stroke-width=".5" transform="translate(2.673 41.41)">
        <path d="M17.2487779,5.72428336 C17.0643269,2.53392603 14.3216673,0 10.9556034,0 C7.58811166,0 4.84545207,2.53392603 4.66100101,5.72428336 C1.97755726,6.42256426 0,8.77255453 0,11.5717531 C0,14.3699391 1.97478546,16.7185794 4.65554139,17.4178728 C4.65276959,17.4911096 4.64311026,17.5629964 4.64311026,17.6365707 C4.64311026,20.985889 7.46976396,23.7010508 10.9556034,23.7010508 C14.4414429,23.7010508 17.2666687,20.985889 17.2666687,17.6365707 C17.2666687,17.5629964 17.2584372,17.4911096 17.2556654,17.4178728"/>
        <line x1="11.029" x2="13.221" y1="13.291" y2="10.873"/>
        <line x1="10.682" x2="6.656" y1="15.917" y2="11.874"/>
        <line x1="10.822" x2="10.822" y1="7.135" y2="30.891"/>
        <line x1="10.677" x2="9.083" y1="11.179" y2="9.578"/>
      </g>
      <path stroke="#222F3C" stroke-width=".5" d="M0,0 C1.5564948,0.164360945 1.65829566,1.74857096 1.66106747,1.81640782 L1.69962076,2.54202596 L2.27346851,2.09990514 C4.13402198,0.655081304 6.53541351,1.25380064 6.55884787,1.26055058" transform="translate(172.526 39.738)"/>
      <path stroke="#222F3C" stroke-width=".5" d="M0,0 C1.5564948,0.164698442 1.65695176,1.74890846 1.66106747,1.81505783 L1.69953677,2.54236345 L2.27204061,2.09855515 C4.13259408,0.654068814 6.53541351,1.25413814 6.55876387,1.25953809" transform="translate(170.963 29.28)"/>
      <g stroke="#231F20" stroke-width=".4" transform="translate(73.378 90.434)">
        <g transform="translate(12.275)">
          <path d="M17.7620659,14.5980869 C17.84606,14.5980869 17.9120794,14.5302501 17.9120794,14.4458759 L17.9120794,0.150861073 C17.9120794,0.0664868712 17.84606,0 17.7620659,0 L5.93678751,0 C5.90789353,0 5.87899956,0.00708743297 5.8555652,0.0236247766 C5.73721751,0.0995615584 2.98078288,1.8926821 2.11925532,4.1971103 C1.85366596,4.20251025 1.0747886,4.17753549 0.544953769,3.69390256 C0.18302316,3.36349319 0,2.87682279 0,2.24637875" transform="translate(3.388)"/>
          <g transform="translate(0 4.493)">
            <path d="M9.45559162,10.1051809 C9.53815783,10.1051809 9.6056051,10.0373441 9.6056051,9.95296987 L9.6056051,6.20000536"/>
            <path d="M2.72199704,0 L0.0261221674,4.06143659 C0.00957532824,4.08641135 0,4.11543608 0,4.1444608 L0,5.97875595 C0,6.06313016 0.0673632741,6.13096701 0.150013476,6.13096701 L6.30417773,6.13096701 L6.30417773,9.95311836 C6.30417773,10.0374926 6.371625,10.1053294 6.45553511,10.1053294 L8.02026134,10.1053294 C8.10282755,10.1053294 8.17019082,10.0374926 8.17019082,9.95311836 L8.17019082,6.17382911 L10.3610931,6.17382911"/>
          </g>
          <path d="M0,2.36112767 L0,3.8278888 C0,3.90922553 0.0646754627,3.9757124 0.145897765,3.9757124 L1.6706428,3.9757124 C1.7518651,3.9757124 1.81654056,3.90922553 1.81654056,3.8278888 L1.81654056,0" transform="translate(18.025 10.622)"/>
          <path d="M0,0 L5.58863193,0 C5.62298552,1.36584958 6.74044313,2.46743916 8.10837116,2.46743916" transform="translate(9.456 10.662)"/>
          <path d="M0.893926036,5.54608505 L0.893926036,4.40433334 C0.893926036,4.36417122 0.86967484,4.32535909 0.823328109,4.29768435 L0,3.78063924 L0,0" transform="translate(22.345 1.475)"/>
          <g transform="translate(2.5 6.584)">
            <path d="M0,0 C0,0.134421765 0.0674472683,0.242930901 0.150013476,0.242930901 L1.04589463,0.242930901 C1.12988873,0.242930901 1.1959081,0.134421765 1.1959081,0"/>
          </g>
          <g transform="translate(12.194 14.597)">
            <line x2="10.558" y2=".221"/>
          </g>
          <g transform="translate(0 14.446)">
            <path d="M0,0 C0,0.134961612 0.0673632741,0.243470748 0.150013476,0.243470748 L10.0899601,0.243470748"/>
          </g>
        </g>
        <g transform="translate(0 11.307)">
          <line x1="3.215" x2="3.077" y1="1.796" y2="3.117"/>
          <line x1="4.693" x2="4.556" y2="3.117"/>
          <line x1="6.271" x2="6.133" y1="1.796" y2="3.117"/>
          <g>
            <line x1=".138" y1="1.796" y2="3.117"/>
            <line x1="1.616" x2="1.478" y2="3.117"/>
            <line x1="3.194" x2="3.056" y1="1.796" y2="3.117"/>
          </g>
          <line x1="9.344" x2="9.207" y1="1.796" y2="3.117"/>
          <line x1="10.823" x2="10.685" y2="3.117"/>
          <line x1="12.4" x2="12.263" y1="1.796" y2="3.117"/>
          <line x1="6.267" x2="6.129" y1="1.796" y2="3.117"/>
          <line x1="7.745" x2="7.608" y2="3.117"/>
          <line x1="9.323" x2="9.185" y1="1.796" y2="3.117"/>
        </g>
      </g>
      <g stroke="#222F3C" stroke-width=".4" transform="translate(58.964 80.422)">
        <g transform="translate(2.959)">
          <g transform="translate(0 1.718)">
            <path d="M3.48852726,11.7546763 L1.82065627,10.1053294 L0.0495565234,8.77120454 C0.0178907449,8.74791726 0,8.71045512 0,8.67198048 L0,8.01521169 C0,7.96256219 0.0330096842,7.91565013 0.0825662076,7.8977628 L1.68996144,7.3267182 C3.13491207,6.81237307 4.64453816,6.55115054 6.17759861,6.55115054 L7.50420154,6.55115054 L7.50554545,0.124536322 C7.50554545,0.0553494765 7.56064558,0 7.62800886,0 L9.84914904,0 C9.88081481,0 9.91113669,0.0124873819 9.93314314,0.033412184 L10.904703,0.947016043 L11.3643187,1.10732703 C11.3822095,1.11306447 11.3973284,1.12386437 11.4111035,1.13635175 L12.0812924,1.80965788 C12.1171824,1.84543255 12.1267333,1.89808205 12.1074146,1.9449941 C12.08818,1.99089367 12.044167,2.02126838 11.9946105,2.02126838 L9.63311619,2.02126838 L9.60699402,5.46879828 L10.3033052,7.15256985 C10.3101927,7.16775721 10.3129645,7.18429455 10.3129645,7.2008319 L10.3129645,9.53867228 C10.3129645,9.57579693 10.2964177,9.6105591 10.2688676,9.63384638 L7.70645936,11.7614263 C7.6844529,11.7793136 7.65555893,11.789101 7.62800886,11.789101 L3.57529318,11.789101 C3.5421995,11.789101 3.51061771,11.7766136 3.48852726,11.7546763 Z M7.50420154,8.31389637 L7.50420154,7.53394124"/>
            <line x1=".221" y2="2.316" transform="translate(4.562 11.81)"/>
            <path d="M1.52844077,1.74958345 L0,0.699293386 L0,0" transform="translate(5.542 12.44)"/>
            <path d="M4.88224149,0 L3.36606385,1.60243484 L0,1.60243484" transform="translate(2.589 8.337)"/>
            <g transform="translate(9.647 2.564)">
              <line x2="1.539" y2=".221"/>
            </g>
          </g>
          <path d="M2.06146738,1.70570887 L2.06146738,0.123186335 C2.06146738,0.0553494765 2.00645124,0 1.93757607,0 L1.36095652,0 C1.32937474,0 1.29770896,0.0124873819 1.2742746,0.0357746616 L0.832549593,0.478232977 L0.496741151,0.478232977 C0.463731467,0.478232977 0.432065689,0.492070346 0.410059232,0.515695123 L0.0357814898,0.89031658 C0.0123471338,0.913603859 0,0.945666056 0,0.978740743 L0,1.70570887" transform="translate(7.661)"/>
          <path d="M0,2.04995561 L0.969878684,2.04995561 C1.04278073,2.04995561 1.10369888,1.99460614 1.10369888,1.92676928 L1.10369888,1.11272698 C1.10369888,1.09753962 1.1007937,1.08370225 1.09480175,1.07121487 L0.66792076,0" transform="translate(9.634 4.3)"/>
        </g>
        <line x1="20.554" y1=".221" transform="translate(0 15.925)"/>
        <line x2=".221" y1="1.147" transform="translate(15.168 14.698)"/>
        <line x1=".221" y2=".785" transform="translate(14.287 15.354)"/>
        <line x2=".221" y1="1.686" transform="translate(13.42 14.158)"/>
        <line x2=".221" y1=".899" transform="translate(5.546 15.36)"/>
        <line x2=".221" y1="1.106" transform="translate(4.7 14.786)"/>
      </g>
    </g>
    <rect width="440" height="220.501" stroke="#979797"/>
  </g>
</svg>
