<svg xmlns="http://www.w3.org/2000/svg" width="399" height="200" viewBox="0 0 399 200">
  <g fill="none" fill-rule="evenodd" transform="translate(-18 -9)">
    <g fill-rule="nonzero" transform="translate(93 75)">
      <line x1="18.861" x2="91.272" y1="63.458" y2="63.458" stroke="#222F3C" stroke-linecap="round" stroke-linejoin="round" stroke-width=".5"/>
      <line x1="92.622" x2="142.335" y1="56.465" y2="56.465" stroke="#222F3C" stroke-linecap="round" stroke-linejoin="round" stroke-width=".5"/>
      <g stroke="#222F3C" stroke-linecap="round" stroke-linejoin="round" stroke-width=".5" transform="translate(18.861 35.008)">
        <g transform="translate(27.998 2.942)">
          <g transform="translate(0 6.962)">
            <line x1="28.963" x2="28.963" y1="5.782" y2="8.745"/>
            <g transform="translate(2.26 12.19)">
              <g transform="translate(14.372 1.438)">
                <line y2="4.89"/>
                <line x1="21.915" x2="21.915" y2="4.89"/>
              </g>
              <rect width="5.827" height="6.361" x="23.817" rx="1"/>
              <line y2="4.89" transform="translate(0 1.438)"/>
            </g>
            <path d="M4.40869628,11.6209716 L18.5023867,11.6209716 L28.9022685,0 L10.4002152,0 L0,11.6209716"/>
            <line x1="28.998" x2="39.398" y1=".015" y2="11.636"/>
          </g>
          <g transform="translate(18.726)">
            <line x1="24.866" x2="24.866" y1="5.783" y2="8.745"/>
            <g transform="translate(21.98 12.162)">
              <line y2="4.89" transform="translate(12.47 1.303)"/>
              <rect width="5.827" height="6.361" rx="1"/>
            </g>
            <path d="M14.4054535,11.6209716 L24.8053352,0 L6.303282,0 L0,6.91735079"/>
            <line x1="24.901" x2="35.301" y1=".016" y2="11.637"/>
          </g>
        </g>
        <line x2="72.411" y1="28.45" y2="28.45"/>
        <g transform="translate(79.714)">
          <g transform="translate(5.78 4.499)">
            <line x1="2.363" x2="2.227" y2="2.329"/>
            <path d="M2.06363797,5.00051834 L4.06592365,5.00051834 C4.35001147,5.00051834 4.58074947,4.77257871 4.58074947,4.49213889 L4.58074947,0.508214871 C4.58074947,0.227775059 4.35001147,0 4.06592365,0 L0.516493007,0 C0.231071436,0 0,0.227775059 0,0.508214871 L0,2.77855948" transform="translate(0 5.1)"/>
          </g>
          <path d="M13.8458591,6.59198136 L8.24579452,0 L22.7822885,0 L27.7341527,5.43450883"/>
          <line x1="8.171" y1=".013" y2="9.143"/>
        </g>
      </g>
      <g stroke="#222F3C" stroke-linecap="round" stroke-linejoin="round" stroke-width=".5" transform="translate(26.617 48.742)">
        <path d="M8.33257602,2.71799501 C8.24221475,1.20256673 6.91747187,0 5.29096904,0 C3.66579995,0 2.34105707,1.20256673 2.2506958,2.71799501 C0.954628457,3.04830176 0,4.16462996 0,5.49392125 C0,6.82057931 0.953294711,7.93559088 2.24802831,8.26853087 C2.24669457,8.30358585 2.24269333,8.33732421 2.24269333,8.37237918 C2.24269333,9.96186728 3.60844889,11.2508371 5.29096904,11.2508371 C6.97482294,11.2508371 8.34057849,9.96186728 8.34057849,8.37237918 C8.34057849,8.33732421 8.33657726,8.30358585 8.33524351,8.26853087"/>
        <line x1="5.327" x2="7.714" y1="6.309" y2="4.182"/>
        <line x1="5.16" x2="3.112" y1="7.556" y2="4.9"/>
        <line x1="5.227" x2="5.227" y1="4.683" y2="14.755"/>
      </g>
      <g stroke="#222F3C" stroke-linecap="round" stroke-linejoin="round" stroke-width=".5" transform="translate(35.01 48.742)">
        <path d="M0.00966965604,2.71799501 C0.0983637425,1.20256673 1.42310662,0 3.04960945,0 C4.67511198,0 5.99985486,1.20256673 6.08988269,2.71799501 C7.38595004,3.04830176 8.34057849,4.16462996 8.34057849,5.49392125 C8.34057849,6.82057931 7.38728378,7.93559088 6.09255018,8.26853087 C6.09388393,8.30358585 6.0982186,8.33732421 6.0982186,8.37237918 C6.0982186,9.96186728 4.73379679,11.2508371 3.04960945,11.2508371 C1.36575556,11.2508371 0,9.96186728 0,8.37237918 C0,8.33732421 0.00400123698,8.30358585 0.00533498265,8.26853087"/>
        <line x1="3.013" x2=".626" y1="6.309" y2="4.182"/>
        <line x1="3.181" x2="5.229" y1="7.556" y2="4.9"/>
        <line x1="3.25" x2="3.114" y1="4.683" y2="14.755"/>
      </g>
      <g stroke="#231F20" stroke-linecap="round" stroke-linejoin="round" stroke-width=".4" transform="translate(120.998 61.596)">
        <path d="M0.148712641,14.2372578 C0.0670207195,14.2372578 0,14.1710977 0,14.0902902 L0,0.146967578 C0,0.0659955192 0.0670207195,0 0.148712641,0 L11.8846742,0 C11.9133497,0 11.9420252,0.00806429038 11.9653658,0.0228762523 C12.0827354,0.0971006392 14.8185812,1.84573503 15.6735121,4.09452001 C15.9369269,4.09863444 16.710166,4.07559361 17.2356617,3.60243372 C17.5951062,3.28019125 17.7764956,2.80571474 17.7764956,2.19085374" transform="translate(1.59)"/>
        <g transform="translate(12.447 4.382)">
          <path d="M0.898512442,9.85557005 C0.815153338,9.85557005 0.749799801,9.78940996 0.749799801,9.70860248 L0.749799801,6.04675634"/>
          <path d="M7.58134378,0 L10.2555038,3.96104777 C10.2718422,3.98540522 10.2815119,4.01371252 10.2815119,4.04333645 L10.2815119,5.83245687 C10.2815119,5.91326435 10.2144911,5.97942445 10.1324658,5.97942445 L4.02491097,5.97942445 L4.02491097,9.70858273 C4.02491097,9.78939021 3.95789025,9.8555503 3.87619833,9.8555503 L2.32171776,9.8555503 C2.24002584,9.8555503 2.17300512,9.78939021 2.17300512,9.70858273 L2.17300512,6.0212271 L0,6.0212271"/>
        </g>
        <path d="M1.80255726,2.30276635 L1.80255726,3.73327271 C1.80255726,3.81276357 1.73853747,3.87760705 1.65784586,3.87760705 L0.144711404,3.87760705 C0.0653535374,3.87760705 0,3.81276357 0,3.73327271 L0,0" transform="translate(3.037 10.36)"/>
        <path d="M8.04815476,0 L2.50043968,0 C2.46642916,1.33340573 1.35875339,2.40661466 0,2.40661466" transform="translate(5.298 10.399)"/>
        <path d="M0,5.41031596 L0,4.29546896 C0,4.25629955 0.0260857476,4.21861133 0.0697394477,4.19162064 L0.885318332,3.68735563 L0.885318332,0" transform="translate(0 1.439)"/>
        <g transform="translate(19.06 6.423)">
          <path d="M1.1867002,0 C1.1867002,0.129862467 1.12001292,0.23618571 1.03798756,0.23618571 L0.148712641,0.23618571 C0.0670207195,0.23618571 0,0.129862467 0,0"/>
        </g>
        <g transform="translate(.149 14.237)">
          <line x1="10.478"/>
        </g>
        <g transform="translate(12.715 14.09)">
          <path d="M10.0137624,0 C10.0137624,0.129862467 9.94674171,0.23618571 9.86471635,0.23618571 L0,0.23618571"/>
        </g>
        <g transform="translate(22.741 11.027)">
          <line x1="9.116" x2="9.116" y1="1.752" y2="3.04"/>
          <line x1="7.649" x2="7.649" y2="3.04"/>
          <line x1="6.083" x2="6.083" y1="1.752" y2="3.04"/>
          <g transform="translate(9.138)">
            <line x1="3.033" x2="3.033" y1="1.752" y2="3.04"/>
            <line x1="1.566" x2="1.566" y2="3.04"/>
            <line y1="1.752" y2="3.04"/>
          </g>
          <line x1="3.033" x2="3.033" y1="1.752" y2="3.04"/>
          <line x1="1.565" x2="1.565" y2="3.04"/>
          <line y1="1.752" y2="3.04"/>
          <line x1="6.087" x2="6.087" y1="1.752" y2="3.04"/>
          <line x1="4.62" x2="4.62" y2="3.04"/>
          <line x1="3.054" x2="3.054" y1="1.752" y2="3.04"/>
        </g>
      </g>
      <g stroke="#222F3C" stroke-width=".4" transform="translate(0 51.699)">
        <path d="M8.29689832,5.11018684 C9.20217819,5.93669432 9.01512036,7.64895712 8.91809036,8.36881847 L11.5815805,8.35268988 C11.7509661,7.68664533 12.1590923,7.12181585 12.522538,6.61886745 C12.9199942,6.07148317 13.2627669,5.59832328 13.2504297,5.1156179 C13.2230879,3.95617043 11.6496015,0.398172604 11.6345968,0.361801009 C11.5895829,0.260750513 11.6142572,0.143406859 11.6962826,0.0678658533 C11.7796417,-0.00619395628 11.8996788,-0.0210059182 11.9980425,0.0301776391 C14.7498933,1.49030793 16.5541177,5.94607523 16.6294743,6.13484545 C16.6621511,6.21450089 16.6511477,6.30468928 16.6021326,6.37628043 C16.5541177,6.44639039 16.4720924,6.48950965 16.3860658,6.48950965 C14.5751726,6.48950965 13.1030508,7.94289227 13.1030508,9.72921488 C13.1030508,9.87206802 12.9853478,9.98809506 12.8406364,9.98809506 L6.82744404,9.98809506 C6.6823992,9.98809506 6.56502958,9.87206802 6.56502958,9.72921488 C6.56502958,7.94289227 5.09290781,6.48950965 3.28301495,6.48950965 C1.47212177,6.48950965 0,7.94289227 0,9.72921488" transform="translate(.916)"/>
        <path d="M2.556457,5.04627085 C1.14702127,5.04627085 0,3.91381407 0,2.52247711 C0,1.13114016 1.14702127,0 2.556457,0 C3.96589272,0 5.11324743,1.13114016 5.11324743,2.52247711 C5.11324743,3.91381407 3.96589272,5.04627085 2.556457,5.04627085 Z" transform="translate(1.643 7.206)"/>
        <path d="M1.22771288,2.42274324 C0.550503522,2.42274324 0,1.87930881 0,1.21063102 C0,0.543269848 0.550503522,0 1.22771288,0 C1.90392193,0 2.45442545,0.543269848 2.45442545,1.21063102 C2.45442545,1.87930881 1.90392193,2.42274324 1.22771288,2.42274324 Z" transform="translate(2.972 8.518)"/>
        <path d="M2.556457,5.04627085 C1.14702127,5.04627085 0,3.91381407 0,2.52247711 C0,1.13114016 1.14702127,0 2.556457,0 C3.96589272,0 5.11324743,1.13114016 5.11324743,2.52247711 C5.11324743,3.91381407 3.96589272,5.04627085 2.556457,5.04627085 Z" transform="translate(14.746 7.206)"/>
        <path d="M1.22771288,2.42274324 C0.550503522,2.42274324 0,1.87930881 0,1.21063102 C0,0.543269848 0.550503522,0 1.22771288,0 C1.90392193,0 2.45442545,0.543269848 2.45442545,1.21063102 C2.45442545,1.87930881 1.90392193,2.42274324 1.22771288,2.42274324 Z" transform="translate(16.075 8.518)"/>
        <path d="M8.23287853,2.40250022 L1.00797828,2.40250022 C0.452139779,2.40250022 0,1.86318023 0,1.20125011 C0,0.539319991 0.452139779,0 1.00797828,0 L8.23287853,0 C8.78871704,0 9.24085681,0.539319991 9.24085681,1.20125011 C9.24085681,1.86318023 8.78871704,2.40250022 8.23287853,2.40250022 Z" transform="translate(0 4.04)"/>
        <g transform="translate(16.358 6.591)">
          <path/>
          <line x2="1.191" y2="3.051"/>
        </g>
        <line y2="3.353" transform="translate(4.196 6.377)"/>
        <line x2="1.824" transform="translate(10.967)"/>
      </g>
      <g stroke="#222F3C" stroke-linecap="round" stroke-linejoin="round" stroke-width=".5" transform="translate(111.048 39.937)">
        <path d="M11.0680884,3.61049801 C10.9490516,1.598869 9.19017448,0 7.02950651,0 C4.86883854,0 3.10962801,1.598869 2.99092465,3.61049801 C1.26872556,4.04991954 0,5.53160947 0,7.29785364 C0,9.06129999 1.26739181,10.5416733 2.98692341,10.9838926"/>
        <g transform="translate(2.98 3.61)">
          <path d="M8.07707837 0C9.79927745.439421537 11.0666693 1.92111146 11.0666693 3.68735563 11.0666693 5.45080198 9.8006112 6.93117529 8.0810796 7.37339464"/>
        </g>
        <line x1="7.077" x2="10.248" y1="7.897" y2="5.071"/>
        <line x1="6.854" x2="4.135" y1="9.553" y2="8.259"/>
        <line x1="6.944" x2="6.944" y1="5.737" y2="16.594"/>
      </g>
      <g stroke="#222F3C" stroke-linecap="round" stroke-linejoin="round" stroke-width=".5" transform="translate(35.433)">
        <g transform="translate(0 7.024)">
          <path d="M16.5377793,11.5610654 L1.49279483,11.5610654 C0.961297185,11.5610654 0,10.8249109 0,9.65328474 C0,8.48165855 0.961297185,7.74566862 2.14833082,7.74566862 L3.04694196,7.74566862 C2.82854111,7.74566862 2.70416933,6.74388626 2.70416933,6.20045184 C2.70416933,4.21054704 4.33767433,2.58468735 6.35196371,2.58468735 C7.31092684,2.58468735 8.1795287,2.94461803 8.82939628,3.54055263 C9.48226478,2.41336233 10.7103111,1.64890052 12.1197468,1.64890052 C12.727268,1.64890052 13.301112,1.79191824 13.8106029,2.04405074 C14.7352221,0.80626446 16.2170135,0 17.8941987,0 C20.6980655,0 22.9691009,2.27050918 22.9691009,5.03705452 C22.9691009,6.02534153 22.6770106,7.26839429 22.1771894,7.74566862"/>
          <path d="M15.5601438,1.18643815 C15.5601438,2.71404516 14.3064228,3.96252897 12.7589444,3.96252897 C12.0227168,3.96252897 11.3565109,3.68603901 10.8563562,3.22769108 C10.3552013,4.09320339 9.41291001,4.6810737 8.33124227,4.6810737 C7.86409786,4.6810737 7.42429522,4.57047772 7.03250744,4.37775763 C6.32228787,5.32687524 5.18460282,5.94700271 3.89653795,5.94700271 C1.74420589,5.94700271 0,4.20379937 0,2.07894114 C0,1.32139158 0.224069271,0.366842923 0.607854585,0" transform="translate(16.524 8.952)"/>
          <path d="M35.8317334,5.2054685 C35.8317334,8.01776633 33.5223528,10.298973 30.6721383,10.298973"/>
        </g>
        <g transform="translate(24.676)">
          <g transform="translate(3.748)">
            <path d="M22.9694343,0 C22.9694343,1.17162619 22.0078037,1.90778069 20.8211035,1.90778069 L19.9224924,1.90778069 C20.1408932,1.90778069 20.2665988,2.90956305 20.2665988,3.4528329 C20.2665988,5.44273769 18.63176,7.06876196 16.6174706,7.06876196 C15.6598412,7.06876196 14.7899056,6.70883128 14.1397046,6.11289668 C13.4868361,7.23992241 12.260457,8.00438422 10.8496875,8.00438422 C10.2418329,8.00438422 9.6683223,7.86153108 9.15883146,7.60939857 C8.23421228,8.84702027 6.75242085,9.65328474 5.07523568,9.65328474 C2.27270261,9.65328474 0,7.38294013 0,4.6163948 C0,3.62810778 0.292423736,2.38505502 0.792244923,1.90778069" transform="translate(9.115 5.246)"/>
            <path d="M0,4.76056456 C0,3.23312213 1.25372092,1.98463832 2.80119933,1.98463832 C3.53709349,1.98463832 4.20363289,2.2609637 4.70345407,2.71931163 C5.20494244,1.85379932 6.14723375,1.26592901 7.22890148,1.26592901 C7.6960459,1.26592901 8.13718228,1.37652499 8.52763632,1.56940965 C9.23785589,0.620127472 10.3755409,0 11.6636058,0 C13.8159379,0 15.5598103,1.74320334 15.5598103,3.86806157 C15.5598103,4.62577571 15.3360745,5.58032436 14.9522892,5.94700271"/>
          </g>
          <path d="M5.15992853,14.7872924 C2.30971405,14.7872924 0,12.5060857 0,9.69378788 C0,6.88000885 2.30971405,4.60011875 5.15992853,4.60011875"/>
        </g>
        <line x1="14.661" x2="14.661" y1="22.42" y2="25.334"/>
        <g transform="translate(11.179 24.58)">
          <line x1="6.964" x2="6.964" y2="2.698"/>
          <line y1="1.017" y2="3.931"/>
          <line x1="3.482" x2="3.482" y1="3.176" y2="5.874"/>
        </g>
        <line x1="4.366" x2="4.366" y1="19.88" y2="22.794"/>
        <g transform="translate(.885 22.038)">
          <line x1="6.964" x2="6.964" y2="2.698"/>
          <line y1="1.017" y2="3.931"/>
          <line x1="3.482" x2="3.482" y1="3.176" y2="5.874"/>
        </g>
        <line x1="50.843" x2="50.843" y1="14.649" y2="17.563"/>
        <g transform="translate(47.362 16.808)">
          <line x1="6.964" x2="6.964" y2="2.698"/>
          <line y1="1.017" y2="3.931"/>
          <line x1="3.482" x2="3.482" y1="3.175" y2="5.874"/>
        </g>
        <line x1="37.672" x2="37.672" y1="17.638" y2="20.552"/>
        <g transform="translate(34.19 19.796)">
          <line x1="6.964" x2="6.964" y2="2.698"/>
          <line y1="1.017" y2="3.931"/>
          <line x1="3.482" x2="3.482" y1="3.176" y2="5.874"/>
        </g>
      </g>
    </g>
    <g fill-rule="nonzero" transform="translate(237 92)">
      <path fill="#333838" d="M4.34846307,10.7672183 C4.78180741,10.7672183 5.18526593,10.6475716 5.52895281,10.4232341 C6.27609822,9.92969154 7.05312945,8.67340135 7.05312945,6.07108595 C7.05312945,4.3661207 6.4255273,1.64415862 4.39329179,1.64415862 C4.01971909,1.64415862 3.70591802,1.7189378 3.39211695,1.88345199 C2.19668429,2.57142042 1.58402506,4.00718064 1.58402506,6.35524683 C1.58402506,8.09012376 2.31622756,10.7672183 4.34846307,10.7672183 Z M4.43812052,10.5578366 C3.52660312,10.5578366 3.21280205,8.23968212 3.21280205,5.80188091 C3.21280205,3.79779894 3.51166021,2.79575796 3.78063256,2.24239204 C3.90017582,2.00309867 4.09443363,1.86849615 4.27374853,1.86849615 C5.06572266,1.86849615 5.45423827,4.14178316 5.45423827,6.43002601 C5.45423827,7.92560957 5.25998047,9.2417231 5.08066557,9.82500069 C4.87146485,10.4681016 4.64732123,10.5578366 4.43812052,10.5578366 Z M8.96582169,10.7821742 C9.32445149,10.7821742 9.77273873,10.4681016 9.77273873,9.89977987 C9.77273873,9.48101647 9.47388057,9.06225307 8.9807646,9.06225307 C8.53247735,9.06225307 8.15890465,9.43614896 8.15890465,9.9147357 C8.15890465,10.3634108 8.50259154,10.7821742 8.96582169,10.7821742 Z M15.2418431,10.6625275 C15.4361009,10.6625275 15.5257584,10.61766 15.5257584,10.5578366 C15.5257584,10.4980133 15.4510438,10.4381899 15.2866718,10.4082783 C14.6590697,10.3035874 14.5843552,10.2138524 14.5395264,9.28659061 C14.5096406,8.64348968 14.4797548,5.5027642 14.4946977,4.24647401 C14.5245835,3.2743447 14.5395264,1.94327533 14.5395264,1.74884947 C14.5395264,1.65911445 14.5096406,1.64415862 14.4797548,1.64415862 C14.4050403,1.64415862 14.285497,1.70398196 14.1510108,1.74884947 C13.7326094,1.92831949 12.9107494,2.04796618 12.2532615,2.13770119 C12.1337182,2.15265703 12.0440608,2.19752453 12.0440608,2.24239204 C12.0440608,2.30221538 12.1785469,2.34708289 12.2682044,2.36203873 C12.4176335,2.3919504 12.5222338,2.40690623 12.6417771,2.45177374 C12.7613204,2.51159708 12.821092,2.61628793 12.8360349,2.78080212 C12.8659207,3.15469801 12.8808636,3.64824059 12.8808636,5.45789669 C12.8808636,8.01534458 12.8509778,8.8229597 12.8061491,9.28659061 C12.7762633,10.1689849 12.6417771,10.3035874 11.9394604,10.4232341 C11.7900313,10.4531458 11.7003739,10.4830575 11.7003739,10.5428808 C11.7003739,10.6326158 11.8199171,10.6625275 11.9544033,10.6625275 C12.4774051,10.6625275 12.7613204,10.5877483 13.4935229,10.5877483 C14.0165246,10.5877483 14.4797548,10.6625275 15.2418431,10.6625275 Z M30.3640662,10.6774833 C30.5284382,10.6774833 30.6330385,10.6326158 30.6330385,10.5727925 C30.6330385,10.4980133 30.5284382,10.4531458 30.393952,10.4082783 C29.7812928,10.2288082 29.6318637,10.0493382 29.572092,9.19685559 L29.5580302,8.94283239 C29.5262583,8.33757969 29.475997,7.17333768 29.4684525,5.88657747 L29.4682986,4.73545506 C29.4701814,3.99790802 29.4764574,3.12478634 29.4973775,2.70602295 C29.5422062,1.88345199 29.572092,1.68902612 30.4387807,1.5095561 C30.5433811,1.49460026 30.6778672,1.43477692 30.6778672,1.35999774 C30.6778672,1.3001744 30.6031527,1.25530689 30.4088949,1.25530689 C29.4973775,1.25530689 29.0490903,1.34504191 28.3766594,1.34504191 C28.3019448,1.34504191 28.1973445,1.53946777 28.1973445,1.56937944 C28.107687,1.86849615 27.9732009,2.21248037 27.7341143,2.78080212 C27.4053704,3.51363807 25.6122214,7.20772946 25.1938199,7.95552124 C25.1639341,8.01534458 25.1191054,8.06021209 25.0892196,7.97047707 C24.5662178,7.0133036 22.4592678,2.73593462 21.9512089,1.53946777 C21.9063802,1.44973276 21.8316656,1.34504191 21.771894,1.34504191 C20.9649769,1.34504191 19.9936879,1.27026273 19.4258574,1.25530689 C19.3362,1.25530689 19.171828,1.28521856 19.171828,1.35999774 C19.171828,1.44973276 19.3063141,1.49460026 19.4109145,1.52451193 C19.6948297,1.58433528 19.9339163,1.62920278 20.1879457,1.88345199 C20.471861,2.1825687 20.5166897,2.37699456 20.5166897,3.2743447 C20.5166897,4.4109882 20.3224319,7.46197866 20.2327744,8.31446129 C20.1281741,9.37632562 20.0534595,9.72030984 19.8890876,9.95960321 C19.7396585,10.1839407 19.5155148,10.2736758 19.0821705,10.3933224 C18.8729698,10.4531458 18.8281411,10.5129691 18.8281411,10.5578366 C18.8281411,10.6326158 18.8879127,10.6625275 19.1120563,10.6625275 C19.2913712,10.6625275 19.7097727,10.5877483 20.1879457,10.5877483 C20.6960046,10.5877483 21.2190064,10.6625275 21.4879787,10.6475716 C21.6374078,10.6625275 21.771894,10.6326158 21.771894,10.527925 C21.771894,10.4681016 21.6822365,10.4082783 21.5328075,10.3783666 C21.0845202,10.2886316 20.800605,10.0642941 20.7408333,9.72030984 C20.7016082,9.51092814 20.6852644,9.33589813 20.6817913,8.89464256 L20.6810617,8.68835718 C20.6810617,7.65640453 20.8155479,4.09691566 20.8753195,3.46877056 C20.9052053,3.25938886 20.9350911,3.25938886 20.9948628,3.39399138 C21.3833784,4.156739 23.5501001,8.94260639 24.0880447,10.2288082 C24.1627593,10.3933224 24.2374738,10.61766 24.3271313,10.61766 C24.4167887,10.61766 24.4765604,10.5129691 24.5961036,10.2736758 C25.178877,8.86782721 26.7927111,5.51772004 27.7789431,3.46877056 C27.8088289,3.34912388 27.8536576,3.45381472 27.8536576,3.51363807 C27.8536576,4.33620902 27.8387147,7.95552124 27.793886,8.73322469 C27.7490572,9.88482403 27.6593998,10.2138524 27.0467406,10.3484549 C26.9421402,10.3783666 26.7927111,10.4531458 26.7927111,10.5129691 C26.7927111,10.61766 26.9570831,10.6326158 27.0616835,10.6326158 C27.2708842,10.6326158 28.0030867,10.5877483 28.5858601,10.5877483 C29.1686335,10.5877483 29.8261215,10.6774833 30.3640662,10.6774833 Z M32.665274,3.84266645 C32.994018,3.84266645 33.3974765,3.61832892 33.3974765,3.09487467 C33.3974765,2.75089045 33.1135613,2.3919504 32.7399886,2.3919504 C32.4261875,2.3919504 32.0376719,2.63124377 32.0376719,3.15469801 C32.0376719,3.54354974 32.351473,3.84266645 32.665274,3.84266645 Z M33.7561063,10.6625275 C33.8756496,10.6625275 33.9802499,10.6326158 33.9802499,10.5578366 C33.9802499,10.4980133 33.9354212,10.4531458 33.7710492,10.4082783 C33.4721911,10.3334991 33.3974765,10.1988966 33.3675907,9.94464737 C33.3470442,9.79041532 33.3406234,9.17670027 33.3386169,8.26387946 L33.3381719,6.36155632 C33.3395728,5.86731269 33.3451764,5.37937856 33.3675907,5.14382415 C33.3825336,4.97930996 33.3526478,4.93444245 33.3078191,4.93444245 C33.2629904,4.93444245 33.2032187,4.97930996 33.0836755,5.02417746 C32.5606737,5.23355916 32.2917013,5.33825001 31.6192705,5.47285253 C31.4548985,5.51772004 31.4100697,5.56258754 31.4100697,5.59249921 C31.4100697,5.65232256 31.4548985,5.69719006 31.529613,5.75701341 C31.9181286,6.02621845 31.9181286,6.08604179 31.9181286,6.37020267 C31.9181286,6.51976102 31.8732999,9.12207642 31.8732999,9.57075148 C31.8732999,10.0942057 31.7686995,10.2886316 31.3801839,10.3783666 C31.200869,10.4082783 31.1112116,10.4381899 31.1112116,10.5129691 C31.1112116,10.5727925 31.2307548,10.61766 31.365241,10.61766 C31.529613,10.61766 31.8732999,10.5877483 32.5307879,10.5877483 C33.15839,10.5877483 33.5020769,10.6625275 33.7561063,10.6625275 Z M37.1332036,10.6326158 C37.2826326,10.6326158 37.4320617,10.5877483 37.4320617,10.527925 C37.4320617,10.4531458 37.3274614,10.4082783 37.2378039,10.3933224 C36.8492883,10.3035874 36.7596309,10.2437641 36.744688,9.76517735 C36.7322355,9.54083981 36.7197831,9.08801035 36.7159782,7.81814912 L36.7156169,5.16886093 C36.7216878,2.81526037 36.7596309,0.693565707 36.7596309,0.597250126 C36.7596309,0.522470948 36.729745,0.432735935 36.6998592,0.432735935 C36.6400876,0.432735935 36.5653731,0.462647606 36.4906585,0.492559277 C36.1768574,0.597250126 35.594084,0.82158766 34.9814248,0.911322674 C34.8469386,0.941234345 34.7572812,0.986101852 34.7572812,1.03096936 C34.7572812,1.07583687 34.8021099,1.13566021 34.9067103,1.19548355 C35.2503971,1.37495358 35.3251117,1.47964443 35.3251117,1.82362864 C35.3400546,2.33212706 35.3251117,3.91744563 35.3251117,4.74001659 C35.3101688,6.1757768 35.2503971,8.95756222 35.2205113,9.57075148 C35.1906255,10.2138524 35.1009681,10.3035874 34.6975095,10.3783666 C34.5779663,10.4082783 34.4733659,10.4381899 34.4733659,10.5129691 C34.4733659,10.5877483 34.5929092,10.61766 34.7423383,10.61766 C35.1457968,10.61766 35.4595979,10.5877483 35.8630564,10.5877483 C36.0872,10.5877483 36.6849163,10.6326158 37.1332036,10.6326158 Z M40.7045586,10.7672183 C41.6758476,10.7672183 42.437936,10.2886316 42.9011661,9.63057483 C42.9758807,9.52588398 43.0057665,9.48101647 43.0057665,9.40623729 C43.0057665,9.33145811 42.9459948,9.30154644 42.8413945,9.42119313 C42.4678218,9.78013318 42.0045916,9.86986819 41.451704,9.86986819 C41.0781313,9.86986819 40.5103008,9.69039817 40.151671,9.28659061 C39.7482125,8.85287137 39.4941831,8.29950546 39.4941831,7.52180201 C39.4941831,7.29746447 39.5240689,7.04321527 39.5688976,6.90861275 C39.5987834,6.86374524 39.658555,6.78896606 39.7033838,6.78896606 L40.2413285,6.78896606 C40.644787,6.78896606 42.4977076,6.81887773 42.6620796,6.83383357 C42.7367941,6.83383357 42.8413945,6.72914272 42.8413945,6.62445187 C42.8413945,5.77196924 42.0494204,5.00922163 40.9585881,5.00922163 C40.1666139,5.00922163 39.5390118,5.33825001 39.1355533,5.68223423 C38.4631224,6.25055598 38.1343784,7.16286195 38.1343784,7.97047707 C38.1343784,8.74818053 38.3884079,9.49597231 38.851638,9.98951488 C39.3148682,10.4830575 39.9424703,10.7672183 40.7045586,10.7672183 Z M39.7183267,6.56462853 C39.673498,6.56462853 39.6436121,6.50480519 39.6436121,6.47489351 C39.6436121,6.32533516 39.7930412,5.95143927 39.9723561,5.7121459 C40.2263856,5.42798502 40.480415,5.21860332 40.809159,5.21860332 C41.0631884,5.21860332 41.2574462,5.35320585 41.3620466,5.47285253 C41.5114757,5.68223423 41.5712473,5.90657176 41.5712473,6.19073264 C41.5712473,6.32533516 41.5413615,6.54967269 41.137903,6.54967269 L39.7183267,6.56462853 Z M6.76921419,27.0976312 C6.81404292,27.0976312 6.87381455,27.0378078 6.963472,26.8134703 C7.14278689,26.3348836 7.41175924,25.661871 7.66578868,25.0636375 C8.12901883,24.0017732 8.57730608,22.9698206 8.84627842,22.4314105 C9.04053623,22.0276029 9.21985113,21.8182212 9.48882348,21.743442 C9.7129671,21.6836187 9.75779582,21.6387512 9.75779582,21.5789278 C9.75779582,21.5191045 9.68308128,21.5041487 9.54859511,21.5041487 C9.32445149,21.5041487 8.95087878,21.5490162 8.8014497,21.5490162 C8.56236317,21.5490162 8.29339082,21.5041487 8.03936138,21.5041487 C7.93476103,21.5041487 7.84510358,21.5340603 7.84510358,21.5938837 C7.84510358,21.6387512 7.8899323,21.6836187 8.08419011,21.743442 C8.47270572,21.8481329 8.53247735,21.9827354 8.53247735,22.1173379 C8.53247735,22.2220288 8.427877,22.4912338 8.29339082,22.835218 C8.11407593,23.3437164 7.39681633,25.0486817 7.21750144,25.4225776 C7.21750144,25.4524893 7.18761562,25.5123126 7.14278689,25.4375334 C6.93358618,24.9739025 6.14161205,22.8053064 5.97724006,22.3416755 C5.79792516,21.8780446 5.88758261,21.8182212 6.2312695,21.743442 C6.35081276,21.7135304 6.45541312,21.653707 6.45541312,21.5938837 C6.45541312,21.5490162 6.39564149,21.5191045 6.2312695,21.5191045 C5.96229715,21.5191045 5.78298225,21.5490162 5.34963792,21.5490162 C5.03583684,21.5490162 4.64732123,21.4891928 4.33352016,21.4891928 C4.18409108,21.4891928 4.10937654,21.5340603 4.10937654,21.5938837 C4.10937654,21.653707 4.18409108,21.6836187 4.31857725,21.7135304 C4.63237832,21.7883095 4.7668645,21.9528237 4.88640776,22.2070729 L5.1404372,22.8202622 C5.17032302,22.8950414 5.12549429,22.9997322 5.11055139,23.0745114 C4.9611223,23.4633631 4.30363434,24.9140792 4.06454781,25.4225776 C4.04960491,25.4674451 3.98983327,25.4524893 3.97489037,25.4076218 C3.63120348,24.570095 2.98865843,22.8651297 2.7645148,22.1771613 C2.70474317,21.9378679 2.68980026,21.8032654 3.04843006,21.743442 C3.15303042,21.7284862 3.3024595,21.6686629 3.3024595,21.6237954 C3.3024595,21.5490162 3.18291623,21.5041487 3.04843006,21.5041487 C2.7495719,21.5041487 2.45071373,21.5490162 2.18174139,21.5490162 C1.76333996,21.5490162 1.31505271,21.4891928 1.12079491,21.4891928 C0.956422917,21.4891928 0.85182256,21.5191045 0.85182256,21.5938837 C0.85182256,21.653707 0.941480009,21.6985745 1.06102327,21.7284862 C1.43459598,21.8182212 1.61391088,22.0276029 1.71851123,22.3117638 C1.88288322,22.5809688 2.73462899,24.7944325 3.00360134,25.5422243 C3.25763077,26.2451485 3.34728822,26.6190444 3.42200276,26.8284261 C3.46683149,26.9929403 3.51166021,27.0976312 3.57143185,27.0976312 C3.63120348,27.0976312 3.70591802,27.0078962 3.78063256,26.8134703 C3.94500455,26.3647952 4.07949072,26.0357669 4.30363434,25.5422243 C4.51283506,25.01877 5.1404372,23.6278773 5.27492338,23.3586723 C5.30480919,23.2838931 5.33469501,23.3138048 5.34963792,23.3586723 L6.24621241,25.7964735 L6.6048422,26.8284261 C6.66461383,27.0378078 6.70944256,27.0976312 6.76921419,27.0976312 Z M13.5532945,27.0677195 C14.0314676,27.0677195 14.4946977,26.843382 14.7038984,26.4246186 C14.7636701,26.2900161 14.7038984,26.2451485 14.614241,26.2900161 C14.449869,26.3797511 14.3004399,26.4246186 14.1808966,26.4246186 C13.7624952,26.4246186 13.628009,26.1404577 13.628009,25.8562968 C13.628009,25.4674451 13.6728378,24.0466407 13.6728378,23.4932748 C13.6728378,23.0296439 13.6130661,22.4164546 13.463637,22.1322938 C13.2843221,21.6686629 12.821092,21.3695461 12.3130331,21.3695461 C12.0590037,21.3695461 11.7601455,21.4592812 11.4164586,21.6387512 C11.1176005,21.7883095 10.6244845,22.1023821 10.2807976,22.5061897 C10.1014827,22.7155713 9.99688235,22.8501739 9.99688235,22.9548647 C9.99688235,23.0146881 10.0715969,23.1044231 10.1463114,23.0894672 C10.2509118,23.0745114 10.699199,22.8651297 10.8486281,22.7604389 C10.8785139,22.7305272 10.9083998,22.6856597 10.9083998,22.6407922 C10.9083998,22.5361013 10.9083998,22.4164546 10.9233427,22.3566313 C10.9532285,22.1921171 11.0428859,22.0874263 11.1474863,21.9976912 C11.3716299,21.8630887 11.521059,21.8182212 11.7452026,21.8182212 C11.9245175,21.8182212 12.1785469,21.9079562 12.3728048,22.0575146 C12.6268342,22.2519404 12.7314345,22.6707038 12.7314345,23.2838931 C12.7314345,23.4932748 12.7314345,23.7923915 12.7015487,23.9718615 C12.7015487,24.0316849 12.6268342,24.1662874 12.5072909,24.1961991 C12.1934899,24.3158458 10.8336852,24.7196533 10.4750554,24.9140792 C10.3405692,24.9888584 9.93711072,25.2879751 9.93711072,25.7665618 C9.93711072,26.5442653 10.534827,27.0527637 11.1325434,27.0527637 C11.7003739,27.0527637 12.1486611,26.7985145 12.5969484,26.3797511 C12.6118913,26.3647952 12.65672,26.3647952 12.6716629,26.3947069 C12.8061491,26.7386911 13.1348931,27.0677195 13.5532945,27.0677195 Z M11.7900313,26.4844419 C11.3268012,26.4844419 10.8934568,26.1404577 10.8934568,25.6469151 C10.8934568,25.2131959 11.0877146,24.9888584 11.2670295,24.8991233 C11.5808306,24.7346092 12.4475193,24.4205366 12.6417771,24.3906249 C12.6716629,24.3756691 12.7015487,24.4504483 12.7015487,24.4654041 C12.7015487,25.0337259 12.6716629,25.6319593 12.6268342,25.8862085 C12.6118913,26.0507227 12.5222338,26.1853252 12.4624622,26.2451485 C12.2980902,26.3947069 12.0440608,26.4844419 11.7900313,26.4844419 Z M17.2441928,26.933117 C17.4384506,26.933117 17.543051,26.8882495 17.543051,26.8284261 C17.543051,26.7835586 17.4384506,26.7386911 17.3487932,26.7237353 C16.9303917,26.6489561 16.8407343,26.5442653 16.8257914,26.1404577 C16.8134855,25.9064429 16.8011795,25.3884224 16.7972195,24.1603879 L16.7970816,21.1172443 C16.8054524,19.0262575 16.8556772,16.8441596 16.8556772,16.7481929 C16.8556772,16.6734138 16.8407343,16.5836788 16.8108485,16.5836788 C16.7510768,16.5836788 16.6763623,16.6135904 16.6315336,16.6285463 C16.3027896,16.7481929 15.9441598,16.8827955 15.5108155,16.9725305 C15.3763293,17.0024422 15.2866718,17.0473097 15.2866718,17.0921772 C15.2866718,17.1370447 15.3315006,17.1669563 15.4361009,17.2267797 C15.8246165,17.4660731 15.8545024,17.5408522 15.8545024,17.8698806 C15.8694453,18.5279374 15.8545024,19.7543159 15.8545024,20.9657386 C15.8395594,22.7604389 15.7797878,25.2879751 15.749902,25.841341 C15.6901304,26.4993978 15.6004729,26.6340003 15.2269002,26.7087795 C15.0326424,26.753647 14.9579279,26.7686028 14.9579279,26.843382 C14.9579279,26.9181612 15.0326424,26.933117 15.2119573,26.933117 C15.4361009,26.933117 15.8246165,26.9032053 16.2131321,26.9032053 C16.4671616,26.9032053 17.0051063,26.933117 17.2441928,26.933117 Z M24.2374738,26.9779845 C24.3570171,26.9779845 24.4915033,26.9630287 24.4915033,26.8732936 C24.4915033,26.8134703 24.4018458,26.7686028 24.2673596,26.7386911 C23.8190724,26.6340003 23.6098717,26.4694861 23.1914703,26.0357669 C22.4891536,25.3178867 21.4132642,24.1662874 20.9649769,23.6428332 C20.950034,23.6129215 20.9201482,23.568054 20.950034,23.5381423 C21.2339493,23.2689373 21.9661518,22.6258363 22.3546674,22.3416755 C22.9673266,21.8630887 23.2213561,21.7733537 23.729415,21.6836187 C23.9087298,21.653707 23.9535586,21.5938837 23.9535586,21.563972 C23.9535586,21.5041487 23.8937869,21.4592812 23.729415,21.4592812 C23.3408993,21.4592812 22.743183,21.5490162 22.414439,21.5490162 C22.250067,21.5490162 21.9063802,21.5340603 21.6672936,21.5340603 C21.5328075,21.5340603 21.4282071,21.5789278 21.4282071,21.6387512 C21.4282071,21.6985745 21.5477504,21.743442 21.6822365,21.7583979 C22.0109805,21.8182212 22.1155809,21.9079562 22.1155809,21.9976912 C22.1155809,22.0575146 22.0408663,22.1622054 21.9512089,22.2519404 C21.6822365,22.6108805 20.9350911,23.2838931 20.3373748,23.7624798 C20.2178315,23.8522149 20.0982883,23.926994 20.0385166,23.926994 C19.9936879,23.926994 19.9638021,23.8522149 19.9638021,23.6877007 C19.9638021,22.0425587 20.0385166,20.0683884 20.0385166,19.6047575 C20.0385166,18.4980257 20.0833454,17.1819122 20.1132312,16.6883696 C20.1132312,16.6135904 20.0833454,16.5687229 20.0684025,16.5687229 C20.0086308,16.5687229 19.9339163,16.5986346 19.8293159,16.6435021 C19.7546014,16.6734138 19.3660858,16.837928 18.7683694,17.0024422 C18.6189404,17.0473097 18.5292829,17.0772213 18.5292829,17.1370447 C18.5292829,17.1669563 18.5890545,17.196868 18.6637691,17.2417355 C18.843084,17.3314705 18.9775702,17.4212055 19.007456,17.5408522 C19.0522847,17.7053664 19.0672276,17.8848365 19.0672276,18.2288207 C19.0672276,19.3953758 19.0223989,21.3097228 19.007456,22.476278 C19.007456,23.6428332 18.9925131,24.8991233 18.9327414,25.9908993 C18.9028556,26.4844419 18.7982553,26.6190444 18.3350251,26.7386911 C18.2304247,26.753647 18.1407673,26.7985145 18.1407673,26.843382 C18.1407673,26.9032053 18.2304247,26.9480728 18.3798538,26.9480728 C18.5591687,26.9480728 18.8729698,26.9032053 19.3511429,26.9032053 C19.7396585,26.9032053 20.0534595,26.9480728 20.471861,26.9480728 C20.636233,26.9480728 20.7557762,26.9181612 20.7557762,26.843382 C20.7557762,26.7835586 20.6810617,26.753647 20.5316326,26.7087795 C20.0684025,26.6040886 19.9488592,26.5592211 19.9488592,25.841341 C19.9339163,25.01877 19.9488592,24.5252275 19.9638021,24.2560224 C19.9638021,24.1961991 19.978745,24.1064641 20.0235737,24.1064641 C20.071391,24.1064641 20.1478987,24.1734662 20.2377953,24.2615262 L20.307489,24.3308016 C20.7557762,24.7794767 21.8167227,25.9011643 22.1305238,26.2601044 C22.26501,26.4694861 22.2351241,26.6040886 21.9810947,26.6639119 C21.7121223,26.7237353 21.6374078,26.753647 21.6374078,26.8284261 C21.6374078,26.9181612 21.7420082,26.9181612 21.9063802,26.9181612 C22.1305238,26.9181612 22.3247816,26.9032053 22.578811,26.9032053 C23.1615844,26.9032053 23.729415,26.9779845 24.2374738,26.9779845 Z M26.5536246,24.4354924 C26.6283391,24.4354924 26.6881108,24.3008899 26.7179966,23.9868174 C26.7777682,23.2091139 27.2111126,19.9188301 27.2111126,19.2308617 C27.2111126,18.7074074 26.972026,18.1839532 26.5386817,18.1839532 C26.1352232,18.1839532 25.8662508,18.8420099 25.8811937,19.290685 C25.9110795,20.2179468 26.2398235,22.6407922 26.3743097,24.0316849 C26.4041955,24.3457574 26.4639671,24.4354924 26.5536246,24.4354924 Z M26.5685675,27.0527637 C26.7927111,27.0527637 27.1662838,26.8284261 27.1662838,26.4096627 C27.1662838,26.200281 27.0168547,25.6917826 26.5685675,25.6917826 C26.2398235,25.6917826 25.8811937,25.9908993 25.8811937,26.3947069 C25.8811937,26.843382 26.2846522,27.0527637 26.5685675,27.0527637 Z" transform="translate(.12)"/>
      <line x1="1.091" x2="45.105" y1="40.867" y2="40.867" stroke="#222F3C" stroke-dasharray="0 3 0 3" stroke-linecap="round"/>
      <path stroke="#222F3C" stroke-linecap="round" stroke-width=".5" d="M41.0287152,36.5089306 L45.4708608,40.9549192 L41.0287152,45.4009078"/>
      <g transform="translate(47.321 32.351)">
        <path fill="#333838" d="M9.46421785,9.7969585 C9.53893239,9.7969585 9.58376112,9.70722348 9.68836148,9.45297428 C10.3757353,7.80783236 11.5861108,4.98117943 12.527514,2.91727412 C13.4689172,0.793545468 13.7378896,0.479472921 14.3654917,0.314958729 C14.6344641,0.270091223 14.7091786,0.21026788 14.7091786,0.150444538 C14.7091786,0.0906211954 14.6344641,0.0756653598 14.4402063,0.0756653598 C14.1712339,0.0756653598 13.7677754,0.135488702 13.349374,0.135488702 C12.9010867,0.135488702 12.691886,0.0756653598 12.3033704,0.0756653598 C12.0941697,0.0756653598 12.049341,0.105577031 12.049341,0.165400373 C12.049341,0.225223716 12.1389984,0.255135387 12.3780849,0.329914565 C12.8712009,0.479472921 12.8861438,0.733722126 12.8114293,1.06275051 C12.4976282,2.16948234 10.6895363,6.35711631 9.97227673,7.91252321 C9.92744801,8.00225823 9.89756219,8.01721406 9.83779056,7.91252321 C9.32973168,6.79083554 8.67224372,5.37003116 8.29867102,4.48763686 C8.2687852,4.41285768 8.2687852,4.3380785 8.28372811,4.30816683 C8.53775755,3.84453593 9.26996005,2.36390821 9.65847566,1.61611643 C10.1515916,0.748677962 10.4355069,0.434605414 10.9883945,0.314958729 C11.1975952,0.270091223 11.2723097,0.225223716 11.2723097,0.150444538 C11.2723097,0.0906211954 11.1975952,0.0756653598 11.0182803,0.0756653598 C10.6745934,0.0756653598 10.4355069,0.135488702 9.9125051,0.135488702 C9.52398949,0.135488702 9.28490296,0.0906211954 8.91133025,0.0906211954 C8.73201535,0.0906211954 8.6423579,0.120532867 8.6423579,0.165400373 C8.6423579,0.225223716 8.68718663,0.285047058 8.95615898,0.3448704 C9.59870403,0.494428756 9.61364694,0.643987112 9.15041678,1.73576311 C8.83661571,2.46859905 8.52281464,3.15656749 8.16418484,3.88940344 C8.11935612,3.96418261 8.05958449,3.94922678 8.04464158,3.91931511 C7.55152561,2.7826716 7.10323836,1.76567478 6.86415183,1.13752969 C6.64000821,0.58416377 6.78943729,0.404693743 7.19289581,0.329914565 C7.38715362,0.285047058 7.47681107,0.240179551 7.47681107,0.165400373 C7.47681107,0.105577031 7.37221071,0.0756653598 7.22278163,0.0756653598 C6.87909474,0.0756653598 6.53540785,0.135488702 5.99746316,0.135488702 C5.45951847,0.135488702 5.17560321,0.0756653598 4.74225888,0.0756653598 C4.54800107,0.0756653598 4.45834362,0.120532867 4.45834362,0.165400373 C4.45834362,0.240179551 4.53305816,0.300002894 4.77214469,0.3448704 C5.23537484,0.464517085 5.35491811,0.643987112 5.78826245,1.57124892 C6.11700643,2.28912903 7.11818127,4.56241604 7.3572678,5.13073779 C7.3572678,5.16064946 7.3572678,5.26534031 7.32738199,5.31020782 C6.92392347,6.2673813 6.56529367,7.01517308 6.14689224,7.8676557 C6.10206352,7.94243488 6.04229189,7.97234655 5.99746316,7.8676557 C4.98134541,5.62428037 3.5019975,2.43868738 2.87439536,0.883280482 C2.769795,0.614075441 2.769795,0.434605414 3.18819643,0.359826236 C3.36751132,0.329914565 3.45716877,0.285047058 3.45716877,0.21026788 C3.45716877,0.150444538 3.36751132,0.105577031 3.15831061,0.105577031 C2.84450954,0.105577031 2.48587974,0.135488702 2.15713576,0.135488702 C1.70884852,0.135488702 1.09618928,0.0756653598 0.737559489,0.0756653598 C0.543301683,0.0756653598 0.438701326,0.135488702 0.438701326,0.180356209 C0.438701326,0.240179551 0.573187499,0.300002894 0.752502397,0.314958729 C1.32033291,0.389737907 1.43987617,0.658942948 1.97782087,1.82549812 C2.68013755,3.29117001 3.6813124,5.50463368 4.50317235,7.4040248 C4.69743015,7.85269987 5.1606603,8.94447587 5.35491811,9.43801844 C5.45951847,9.70722348 5.48940428,9.7969585 5.57906173,9.7969585 C5.63883337,9.7969585 5.72849081,9.67731181 5.81814826,9.43801844 C6.14689224,8.57057998 6.93886637,6.82074721 7.50669688,5.71401538 C7.5365827,5.66914787 7.58141143,5.66914787 7.61129724,5.72897121 C8.04464158,6.68614469 8.89638734,8.54066831 9.21018841,9.45297428 C9.29984586,9.69226765 9.3596175,9.7969585 9.46421785,9.7969585 Z M16.591985,9.67731181 C17.0701581,9.67731181 17.5333883,9.45297428 17.742589,9.03421088 C17.8023606,8.89960836 17.742589,8.85474085 17.6529315,8.89960836 C17.4885595,8.98934337 17.3391305,9.03421088 17.2195872,9.03421088 C16.8011858,9.03421088 16.6666996,8.75005 16.6666996,8.46588913 C16.6666996,8.0770374 16.7115283,6.65623302 16.7115283,6.1028671 C16.7115283,5.6392362 16.6517567,5.02604694 16.5023276,4.74188607 C16.3230127,4.27825516 15.8597825,3.97913845 15.3517237,3.97913845 C15.0976942,3.97913845 14.7988361,4.06887346 14.4551492,4.24834349 C14.156291,4.39790185 13.663175,4.71197439 13.3194882,5.11578196 C13.1401733,5.32516365 13.0355729,5.45976617 13.0355729,5.56445702 C13.0355729,5.62428037 13.1102874,5.71401538 13.185002,5.69905954 C13.2896023,5.68410371 13.7378896,5.47472201 13.8873187,5.37003116 C13.9172045,5.34011949 13.9470903,5.29525198 13.9470903,5.25038448 C13.9470903,5.14569363 13.9470903,5.02604694 13.9620332,4.9662236 C13.991919,4.80170941 14.0815765,4.69701856 14.1861768,4.60728355 C14.4103205,4.47268102 14.5597495,4.42781352 14.7838932,4.42781352 C14.9632081,4.42781352 15.2172375,4.51754853 15.4114953,4.66710689 C15.6655247,4.86153275 15.7701251,5.28029615 15.7701251,5.89348541 C15.7701251,6.1028671 15.7701251,6.40198382 15.7402393,6.58145384 C15.7402393,6.64127719 15.6655247,6.77587971 15.5459815,6.80579138 C15.2321804,6.92543806 13.8723758,7.32924562 13.513746,7.52367149 C13.3792598,7.59845066 12.9758013,7.89756738 12.9758013,8.37615411 C12.9758013,9.15385757 13.5735176,9.66235598 14.1712339,9.66235598 C14.7390644,9.66235598 15.1873517,9.40810677 15.6356389,8.98934337 C15.6505818,8.97438754 15.6954106,8.97438754 15.7103535,9.00429921 C15.8448396,9.34828343 16.1735836,9.67731181 16.591985,9.67731181 Z M14.8287219,9.09403422 C14.3654917,9.09403422 13.9321474,8.75005 13.9321474,8.25650743 C13.9321474,7.8227882 14.1264052,7.59845066 14.3057201,7.50871565 C14.6195212,7.34420146 15.4862098,7.03012891 15.6804676,7.00021724 C15.7103535,6.9852614 15.7402393,7.06004058 15.7402393,7.07499642 C15.7402393,7.64331817 15.7103535,8.24155159 15.6655247,8.4958008 C15.6505818,8.66031499 15.5609244,8.79491751 15.5011527,8.85474085 C15.3367808,9.00429921 15.0827513,9.09403422 14.8287219,9.09403422 Z M20.1035685,9.64740014 C20.5219699,9.64740014 20.9852,9.51279762 21.313944,9.25854841 C21.5082018,9.10899006 21.642688,8.9594317 21.642688,8.86969669 C21.642688,8.80987335 21.5978593,8.79491751 21.4932589,8.86969669 C21.3587727,8.9594317 21.0898004,9.09403422 20.671399,9.09403422 C20.2828834,9.09403422 19.9690823,8.97438754 19.7449387,8.69022666 C19.6403383,8.54066831 19.6104525,8.36119828 19.5805667,7.88261154 C19.5656238,7.41898064 19.5506809,5.07091445 19.5506809,4.81666524 C19.5506809,4.72693023 19.5805667,4.68206272 19.7598816,4.68206272 C20.1633401,4.68206272 20.8955426,4.69701856 21.4185444,4.69701856 C21.4932589,4.69701856 21.5679735,4.57737187 21.5679735,4.32312267 C21.5679735,4.21843182 21.5082018,4.11374097 21.478316,4.11374097 C21.1645149,4.11374097 19.9242536,4.15860848 19.6552812,4.15860848 C19.5955096,4.15860848 19.5805667,4.06887346 19.5805667,4.02400596 C19.5656238,3.84453593 19.5955096,3.42577253 19.5955096,3.29117001 C19.5955096,3.21639083 19.4909092,3.18647916 19.3564231,3.33603752 C18.9977933,3.79966842 18.5046773,4.20347598 18.1311046,4.3380785 C17.9667326,4.41285768 17.9517897,4.45772519 17.9517897,4.48763686 C17.9517897,4.5474602 18.0265042,4.59232771 18.1460475,4.62223938 L18.3533803,4.66710689 C18.4187556,4.68206272 18.4747915,4.69701856 18.5046773,4.71197439 C18.5644489,4.74188607 18.5793918,4.84657691 18.5793918,5.01109111 L18.5793918,8.10694907 C18.5793918,8.46588913 18.6391635,8.76500584 18.7587067,8.9594317 C19.0127362,9.43801844 19.4759663,9.64740014 20.1035685,9.64740014 Z M24.4818406,9.67731181 C25.3335863,9.67731181 25.9611885,9.3781951 26.5589048,8.73509417 C26.6485622,8.63040332 26.7083339,8.54066831 26.7083339,8.4958008 C26.7083339,8.42102162 26.6485622,8.39110995 26.529019,8.51075664 C26.1703892,8.85474085 25.7221019,8.98934337 25.1094427,8.98934337 C24.6163267,8.98934337 24.0186104,8.82482918 23.6151519,8.37615411 C23.2266363,7.94243488 22.9277781,7.32924562 22.9277781,6.56649801 C22.9277781,6.14773461 22.9726068,5.92339708 23.0473214,5.74392705 C23.0772072,5.69905954 23.1519217,5.62428037 23.1818075,5.62428037 L23.9887246,5.62428037 C24.3324115,5.62428037 26.2749895,5.65419204 26.3945328,5.66914787 C26.4692473,5.66914787 26.5439619,5.57941286 26.5439619,5.50463368 C26.5439619,4.59232771 25.6025587,3.97913845 24.7209271,3.97913845 C23.9438959,3.97913845 23.2565221,4.3380785 22.8530636,4.72693023 C22.2254614,5.34011949 21.9863749,6.22251379 21.9863749,6.91048223 C21.9863749,7.71809735 22.2553472,8.43597746 22.7036345,8.9145642 C23.1519217,9.39315094 23.7795239,9.67731181 24.4818406,9.67731181 Z M23.2415792,5.41489867 C23.2116934,5.41489867 23.1818075,5.384987 23.1818075,5.35507532 C23.1818075,5.23542864 23.3162937,4.95126776 23.4956086,4.74188607 C23.8243526,4.39790185 24.1979253,4.18852015 24.5864409,4.18852015 C24.9301278,4.18852015 25.1841572,4.32312267 25.3335863,4.47268102 C25.4979583,4.65215105 25.542787,4.92135609 25.542787,5.10082612 C25.542787,5.23542864 25.5129012,5.39994283 25.1841572,5.39994283 L23.2415792,5.41489867 Z M27.3807647,9.60253263 C27.5899654,9.60253263 27.7543374,9.51279762 28.2922821,9.51279762 C28.9198843,9.51279762 29.4130002,9.57262096 29.6969155,9.57262096 C29.9210591,9.57262096 30.0555453,9.54270929 30.0555453,9.46793011 C30.0555453,9.39315094 29.9808308,9.36323926 29.77163,9.33332759 C29.2037995,9.27350425 29.0244846,9.1688134 28.964713,8.7051825 C28.9348272,8.39110995 28.9049414,7.6134065 28.9049414,6.50667467 C28.9049414,6.20755795 28.8899985,5.77383872 28.9198843,5.59436869 C28.9348272,5.41489867 29.0095417,5.25038448 29.1739137,5.07091445 C29.3681715,4.89144442 29.6072581,4.77179774 29.8314017,4.77179774 C29.9957737,4.77179774 30.1900315,4.84657691 30.3544035,4.95126776 C30.5187754,5.04100278 30.59349,5.05595861 30.6233758,5.05595861 C30.6682045,5.05595861 30.7279762,5.04100278 30.8624623,4.92135609 C31.0417772,4.7568419 31.1912063,4.51754853 31.1912063,4.41285768 C31.1912063,4.3380785 31.1613205,4.26329933 31.086606,4.20347598 C30.9371769,4.0838293 30.7429191,4.00905012 30.5636042,4.00905012 C29.9658878,4.00905012 29.3681715,4.56241604 28.9497701,5.08587028 C28.9049414,5.13073779 28.8750556,5.11578196 28.8750556,5.07091445 C28.8750556,4.83162108 28.8899985,4.26329933 28.8899985,4.09878513 C28.8899985,3.94922678 28.8601126,3.88940344 28.8302268,3.88940344 C28.7853981,3.88940344 28.7106836,3.90435927 28.6060832,3.96418261 C28.3669967,4.09878513 27.9485952,4.24834349 27.6497371,4.32312267 C27.5152509,4.36799018 27.4255935,4.42781352 27.4255935,4.45772519 C27.4255935,4.48763686 27.4405364,4.53250437 27.5451367,4.60728355 C27.829052,4.84657691 27.9336523,4.89144442 27.9336523,4.99613527 L27.9336523,6.65623302 C27.9336523,7.64331817 27.9187094,8.4958008 27.8888236,8.75005 C27.829052,9.15385757 27.66468,9.28846009 27.3508789,9.36323926 C27.2313357,9.39315094 27.1267353,9.46793011 27.1267353,9.51279762 C27.1267353,9.57262096 27.2014498,9.60253263 27.3807647,9.60253263 Z M6.89403765,26.0974597 C8.10441321,26.0974597 8.91133025,25.7833871 9.80790474,25.2748887 C9.88261928,25.2300212 9.92744801,25.1402862 9.95733382,25.0505512 C9.98721964,24.886037 10.1665345,24.1232894 10.1665345,23.8690402 C10.1665345,23.7793052 10.1366487,23.6447026 10.0768771,23.6447026 C10.0171055,23.6447026 9.98721964,23.704526 9.92744801,23.8989518 C9.70330438,24.5121411 9.34467459,25.0355953 8.77684408,25.3646237 C8.37338556,25.6188729 7.85038377,25.7833871 6.99863801,25.7833871 C6.20666388,25.7833871 5.17560321,25.4693146 4.44340071,24.6766553 C3.66636949,23.8391285 3.06865316,22.4033683 3.06865316,21.0573431 C3.06865316,19.6215829 3.56176913,18.2905135 4.20431418,17.5875892 C4.81697342,16.9594441 5.68366209,16.421034 6.8043802,16.421034 C7.67106887,16.421034 8.53775755,16.6603274 9.09064515,17.1688258 C9.3596175,17.3782075 9.68836148,17.8567943 9.80790474,18.3652927 C9.83779056,18.4849394 9.88261928,18.5597185 9.94239091,18.5597185 C9.97227673,18.5597185 10.0320484,18.4699835 10.0320484,18.3204252 C10.0320484,18.1708668 9.95733382,17.5277659 9.98721964,17.1688258 C10.0021625,17.0940466 9.95733382,16.9893558 9.83779056,16.9145766 C9.34467459,16.6453716 8.11935612,16.1817407 6.90898056,16.1817407 C5.53423301,16.1817407 4.21925709,16.7051949 3.42728296,17.423075 C2.47093684,18.2905135 1.75367724,19.4122012 1.75367724,21.2069014 C1.75367724,22.4931033 2.38127939,23.8690402 3.00888153,24.5121411 C3.93534184,25.4394029 5.10088867,26.0974597 6.89403765,26.0974597 Z M14.6792928,25.9927688 C15.1574659,25.9927688 15.620696,25.7684313 15.8298967,25.3496679 C15.8896684,25.2150654 15.8298967,25.1701979 15.7402393,25.2150654 C15.5758673,25.3048004 15.4264382,25.3496679 15.3068949,25.3496679 C14.8884935,25.3496679 14.7540073,25.065507 14.7540073,24.7813461 C14.7540073,24.3924944 14.7988361,22.97169 14.7988361,22.4183241 C14.7988361,21.9546932 14.7390644,21.341504 14.5896354,21.0573431 C14.4103205,20.5937122 13.9470903,20.2945955 13.4390314,20.2945955 C13.185002,20.2945955 12.8861438,20.3843305 12.5424569,20.5638005 C12.2435988,20.7133589 11.7504828,21.0274314 11.4067959,21.431239 C11.227481,21.6406207 11.1228807,21.7752232 11.1228807,21.879914 C11.1228807,21.9397374 11.1975952,22.0294724 11.2723097,22.0145166 C11.3769101,21.9995607 11.8251973,21.790179 11.9746264,21.6854882 C12.0045122,21.6555765 12.0343981,21.610709 12.0343981,21.5658415 C12.0343981,21.4611506 12.0343981,21.341504 12.049341,21.2816806 C12.0792268,21.1171664 12.1688842,21.0124756 12.2734846,20.9227406 C12.4976282,20.788138 12.6470573,20.7432705 12.8712009,20.7432705 C13.0505158,20.7432705 13.3045453,20.8330055 13.4988031,20.9825639 C13.7528325,21.1769898 13.8574329,21.5957532 13.8574329,22.2089424 C13.8574329,22.4183241 13.8574329,22.7174408 13.827547,22.8969109 C13.827547,22.9567342 13.7528325,23.0913367 13.6332892,23.1212484 C13.3194882,23.2408951 11.9596835,23.6447026 11.6010537,23.8391285 C11.4665675,23.9139077 11.063109,24.2130244 11.063109,24.6916111 C11.063109,25.4693146 11.6608254,25.977813 12.2585417,25.977813 C12.8263722,25.977813 13.2746594,25.7235638 13.7229467,25.3048004 C13.7378896,25.2898446 13.7827183,25.2898446 13.7976612,25.3197562 C13.9321474,25.6637404 14.2608914,25.9927688 14.6792928,25.9927688 Z M12.9160296,25.4094912 C12.4527995,25.4094912 12.0194551,25.065507 12.0194551,24.5719644 C12.0194551,24.1382452 12.213713,23.9139077 12.3930279,23.8241727 C12.7068289,23.6596585 13.5735176,23.3455859 13.7677754,23.3156743 C13.7976612,23.3007184 13.827547,23.3754976 13.827547,23.3904534 C13.827547,23.9587752 13.7976612,24.5570086 13.7528325,24.8112578 C13.7378896,24.975772 13.6482321,25.1103745 13.5884605,25.1701979 C13.4240885,25.3197562 13.1700591,25.4094912 12.9160296,25.4094912 Z M21.9564891,25.888078 C22.1059182,25.888078 22.2254614,25.8731221 22.2254614,25.7833871 C22.2254614,25.7235638 22.135804,25.6936521 22.0013178,25.6338288 C21.5978593,25.5291379 21.5530306,25.4394029 21.5380876,24.4224061 C21.5380876,23.6746143 21.5231447,23.5549676 21.5231447,22.7623083 C21.5082018,21.9098257 21.3886586,21.1620339 21.0449717,20.8030939 C20.8507139,20.5937122 20.4920841,20.2945955 19.8794248,20.2945955 C19.6253954,20.2945955 19.3115943,20.3245071 18.9977933,20.4740655 C18.6690493,20.608668 18.3104195,20.8629172 17.9368468,21.1470781 C17.906961,21.1769898 17.8621322,21.1321223 17.8621322,21.1022106 C17.8471893,20.8928289 17.8770751,20.4890213 17.8920181,20.3095513 C17.906961,20.2347721 17.8322464,20.1749488 17.7874177,20.1899046 C17.5333883,20.3544188 16.9356719,20.608668 16.606928,20.698403 C16.4724418,20.7432705 16.3977272,20.788138 16.3977272,20.8180497 C16.3977272,20.8629172 16.4276131,20.8928289 16.5172705,20.9526522 C16.8759003,21.1470781 16.9057861,21.3115923 16.9057861,21.4611506 C16.9057861,22.6725733 16.9057861,24.0485102 16.8759003,25.1253304 C16.8609574,25.4244471 16.8011858,25.5291379 16.4276131,25.6039171 C16.2482982,25.6338288 16.113812,25.6936521 16.113812,25.7534755 C16.113812,25.8282546 16.2333552,25.8581663 16.3977272,25.8581663 C16.6816425,25.8581663 16.9954436,25.8282546 17.1897014,25.8282546 C17.5333883,25.8282546 18.2655908,25.888078 18.385134,25.888078 C18.5345631,25.888078 18.6839922,25.888078 18.6839922,25.798343 C18.6839922,25.7235638 18.6092776,25.6936521 18.4299627,25.6487846 C18.1908762,25.5740054 18.0115613,25.4992262 17.9667326,25.1701979 C17.9368468,24.9608162 17.8920181,24.5719644 17.8770751,23.5998351 C17.8770751,22.702485 17.8621322,21.9397374 17.8621322,21.7602674 C17.8621322,21.6406207 17.9368468,21.4162831 18.0414471,21.3115923 C18.4299627,20.9825639 18.8184784,20.8330055 19.206994,20.8330055 C19.5506809,20.8330055 19.8345961,20.9376964 20.0587397,21.1171664 C20.4323124,21.4013273 20.5369128,21.7602674 20.5369128,22.97169 L20.5369128,25.0056837 C20.5369128,25.4394029 20.4771412,25.5440938 20.1185114,25.6338288 C19.9242536,25.6786963 19.8345961,25.7385196 19.8345961,25.798343 C19.8345961,25.8581663 19.9391965,25.888078 20.0736826,25.888078 C20.2978263,25.888078 20.4920841,25.8282546 21.000143,25.8282546 C21.3288869,25.8282546 21.7622313,25.888078 21.9564891,25.888078 Z M26.4692473,25.9927688 C26.9474204,25.9927688 27.4106506,25.7684313 27.6198513,25.3496679 C27.6796229,25.2150654 27.6198513,25.1701979 27.5301938,25.2150654 C27.3658218,25.3048004 27.2163927,25.3496679 27.0968495,25.3496679 C26.6784481,25.3496679 26.5439619,25.065507 26.5439619,24.7813461 C26.5439619,24.3924944 26.5887906,22.97169 26.5887906,22.4183241 C26.5887906,21.9546932 26.529019,21.341504 26.3795899,21.0573431 C26.200275,20.5937122 25.7370448,20.2945955 25.228986,20.2945955 C24.9749565,20.2945955 24.6760984,20.3843305 24.3324115,20.5638005 C24.0335533,20.7133589 23.5404373,21.0274314 23.1967505,21.431239 C23.0174356,21.6406207 22.9128352,21.7752232 22.9128352,21.879914 C22.9128352,21.9397374 22.9875497,22.0294724 23.0622643,22.0145166 C23.1668646,21.9995607 23.6151519,21.790179 23.764581,21.6854882 C23.7944668,21.6555765 23.8243526,21.610709 23.8243526,21.5658415 C23.8243526,21.4611506 23.8243526,21.341504 23.8392955,21.2816806 C23.8691813,21.1171664 23.9588388,21.0124756 24.0634391,20.9227406 C24.2875827,20.788138 24.4370118,20.7432705 24.6611555,20.7432705 C24.8404703,20.7432705 25.0944998,20.8330055 25.2887576,20.9825639 C25.542787,21.1769898 25.6473874,21.5957532 25.6473874,22.2089424 C25.6473874,22.4183241 25.6473874,22.7174408 25.6175016,22.8969109 C25.6175016,22.9567342 25.542787,23.0913367 25.4232438,23.1212484 C25.1094427,23.2408951 23.7496381,23.6447026 23.3910083,23.8391285 C23.2565221,23.9139077 22.8530636,24.2130244 22.8530636,24.6916111 C22.8530636,25.4693146 23.4507799,25.977813 24.0484962,25.977813 C24.6163267,25.977813 25.064614,25.7235638 25.5129012,25.3048004 C25.5278441,25.2898446 25.5726728,25.2898446 25.5876158,25.3197562 C25.7221019,25.6637404 26.0508459,25.9927688 26.4692473,25.9927688 Z M24.7059842,25.4094912 C24.242754,25.4094912 23.8094097,25.065507 23.8094097,24.5719644 C23.8094097,24.1382452 24.0036675,23.9139077 24.1829824,23.8241727 C24.4967835,23.6596585 25.3634721,23.3455859 25.5577299,23.3156743 C25.5876158,23.3007184 25.6175016,23.3754976 25.6175016,23.3904534 C25.6175016,23.9587752 25.5876158,24.5570086 25.542787,24.8112578 C25.5278441,24.975772 25.4381867,25.1103745 25.378415,25.1701979 C25.2140431,25.3197562 24.9600136,25.4094912 24.7059842,25.4094912 Z M30.1601457,25.8581663 C30.3544035,25.8581663 30.4590038,25.8132988 30.4590038,25.7534755 C30.4590038,25.7086079 30.3544035,25.6637404 30.264746,25.6487846 C29.8463446,25.5740054 29.7566871,25.4693146 29.7417442,25.065507 C29.7294383,24.8314922 29.7171324,24.3134717 29.7131723,23.0854372 L29.7130345,20.0422936 C29.7214053,17.9513068 29.77163,15.7692089 29.77163,15.6732423 C29.77163,15.5984631 29.7566871,15.5087281 29.7268013,15.5087281 C29.6670297,15.5087281 29.5923151,15.5386397 29.5474864,15.5535956 C29.2187424,15.6732423 28.8601126,15.8078448 28.4267683,15.8975798 C28.2922821,15.9274915 28.2026247,15.972359 28.2026247,16.0172265 C28.2026247,16.062094 28.2474534,16.0920057 28.3520538,16.151829 C28.7405694,16.3911224 28.7704552,16.4659016 28.7704552,16.7949299 C28.7853981,17.4529867 28.7704552,18.6793652 28.7704552,19.8907879 C28.7555123,21.6854882 28.6957407,24.2130244 28.6658548,24.7663903 C28.6060832,25.4244471 28.5164258,25.5590496 28.1428531,25.6338288 C27.9485952,25.6786963 27.8738807,25.6936521 27.8738807,25.7684313 C27.8738807,25.8432105 27.9485952,25.8581663 28.1279101,25.8581663 C28.3520538,25.8581663 28.7405694,25.8282546 29.129085,25.8282546 C29.3831144,25.8282546 29.9210591,25.8581663 30.1601457,25.8581663 Z" transform="translate(13.394 27.187)"/>
        <g stroke="#222F3C" stroke-linecap="round">
          <g stroke-linejoin="round" stroke-width=".5">
            <line x1="59.588" y1=".218"/>
            <line x2="59.588" y1=".218" transform="translate(0 16.427)"/>
            <line x2="59.588" y1=".218" transform="translate(0 16.427)"/>
          </g>
          <g stroke-width=".4" transform="translate(21.357 3.864)">
            <g transform="translate(2.222 2.696)">
              <path d="M.16009517 2.01631856L.978809659 2.98176263.0807272727 3.99666558M.0793678977 4.02311977L.898082386 4.98856384 0 6.00346679M.240289773 0L1.05953693.965444066.161454545 1.98018105"/>
            </g>
            <path d="M.16009517 2.01631856L.978809659 2.98176263.0807272727 3.99666558M.0793678977 4.02311977L.898082386 4.98856384 0 6.00346679M.240822443 0L1.05953693.965444066.161454545 1.98034702"/>
            <g transform="translate(5.404)">
              <g transform="translate(2.222 2.696)">
                <path d="M.16009517 2.01631856L.978809659 2.98176263.0807272727 3.99666558M.0793678977 4.02311977L.898082386 4.98856384 0 6.00346679M.240822443 0L1.05953693.965444066.161454545 1.98018105"/>
              </g>
              <path d="M.1595625 2.01631856L.978809659 2.98176263.0807272727 3.99666558M.0793678977 4.02311977L.898082386 4.98856384 0 6.00346679M.240822443 0L1.05953693.965444066.161454545 1.98034702"/>
            </g>
            <g transform="translate(10.808)">
              <g transform="translate(2.222 2.696)">
                <path d="M.16009517 2.01631856L.978809659 2.98176263.0807272727 3.99666558M.0793678977 4.02311977L.898082386 4.98856384 0 6.00346679M.240822443 0L1.05953693.965444066.161454545 1.98018105"/>
              </g>
              <path d="M.16009517 2.01631856L.978809659 2.98176263.0807272727 3.99666558M.0793678977 4.02311977L.898615057 4.98856384 0 6.00346679M.240822443 0L1.05953693.965444066.161454545 1.98034702"/>
            </g>
            <g transform="translate(16.213)">
              <path d="M.157913352 2.01631856L.976627841 2.98176263.0785454545 3.99666558M.0793678977 4.02311977L.898082386 4.98856384 0 6.00346679M.240822443 0L1.05953693.965444066.161454545 1.98034702"/>
            </g>
          </g>
        </g>
      </g>
    </g>
    <rect width="435" height="218" stroke="#979797"/>
  </g>
</svg>
