<svg xmlns="http://www.w3.org/2000/svg" width="399" height="200" viewBox="0 0 399 200">
  <g fill="none" fill-rule="evenodd" transform="translate(-20 -10)">
    <g fill-rule="nonzero" stroke="#222F3C" stroke-linecap="round" stroke-linejoin="round" stroke-width=".5" transform="translate(254.579 120.273)">
      <line x1="8.994" x2=".001" y1="11.108" y2="11.108"/>
      <line x1="35.764" x2="26.771" y1="11.108" y2="11.108"/>
      <line x1="25.792" x2="35.764" y1="7.63" y2="7.63"/>
      <line x1=".001" x2="9.974" y1="7.63" y2="7.63"/>
      <g transform="translate(5.306 32.582)">
        <line x2="2.284"/>
        <line x1="11.434" x2="13.718"/>
        <line x1="22.868" x2="25.151"/>
        <g transform="translate(5.718 3.148)">
          <line x2="2.284"/>
          <line x1="11.434" x2="13.718"/>
        </g>
      </g>
      <g transform="translate(0 20.662)">
        <path d="M0 7.5797635L5.96017695 5.26121968 11.9204376 7.5797635 16.1651926 5.92874604 16.1651926 0M35.7648628 7.57945703L29.8046859 5.26091321 23.8444044 7.57945703 19.5996702 5.92843957 19.5996702.00138861755"/>
      </g>
      <ellipse cx="17.882" cy="11.799" rx="9.013" ry="8.932" transform="rotate(-67.5 17.882 11.799)"/>
      <path d="M11.6618233 18.2653383L0 18.2653383 0 39.0888383 35.7636972 39.0888383 35.7636972 18.2653383 24.1018321 18.2653383M14.2343667 13.3884375C14.2343667 12.0276194 15.4502695 9.86649291 17.882075 6.90505804 20.3138666 9.86649291 21.5297624 12.0276194 21.5297624 13.3884375 21.5297624 15.4296646 19.8971288 17.0837332 17.882075 17.0837332 15.8683598 17.0837332 14.2343667 15.4296646 14.2343667 13.3884375zM43.0979499 3.20492932L39.5117368 3.20492932 37.6717349 4.87221963 35.9340995 4.87221963 35.9340995 13.5585377 37.6717349 13.5585377 39.5117368 15.2258281 43.0979499 15.2258281"/>
    </g>
    <g fill-rule="nonzero" stroke-linecap="round" stroke-linejoin="round" transform="translate(77.175 77.175)">
      <line x1="38.736" x2="105.06" y1="59.673" y2="59.673" stroke="#222F3C" stroke-width=".5"/>
      <line x1="106.425" x2="170.523" y1="52.563" y2="52.563" stroke="#222F3C" stroke-width=".5"/>
      <g stroke="#222F3C" stroke-width=".5" transform="translate(46.063 38.13)">
        <path d="M0,4.39308702 C0.129825199,2.19319716 2.3466537,0 4.69608936,0 C7.04689494,0 8.96124759,1.74746347 9.08970288,3.94735333 C10.9626211,4.42855832 12.3424353,6.04886052 12.3424353,7.98003855 C12.3424353,9.90853951 10.9653819,11.5271685 9.09385475,12.0110506 C9.09661565,12.0619151 9.10213743,12.1111064 9.10213743,12.1619709 C9.10213743,14.4716211 7.12976388,16.3439033 4.69608936,16.3439033 C2.26378476,16.3439033 0.290041297,14.4716211 0.290041297,12.1619709 C0.290041297,12.1111064 0.296954067,12.0619151 0.298323976,12.0110506"/>
        <line x1="4.645" x2="1.195" y1="9.165" y2="6.075"/>
        <line x1="4.887" x2="7.846" y1="10.976" y2="7.118"/>
        <line x1="4.927" x2="4.789" y1="6.802" y2="21.433"/>
      </g>
      <g stroke="#222F3C" stroke-width=".5" transform="translate(23.655 25.397)">
        <g transform="translate(36.49 8.342)">
          <g transform="translate(0 7.078)">
            <line x1="29.291" x2="29.291" y1="5.879" y2="8.891"/>
            <g transform="translate(2.287 12.392)">
              <g transform="translate(14.533 1.462)">
                <line y2="4.972"/>
                <line x1="22.163" x2="22.163" y2="4.972"/>
              </g>
              <rect width="5.893" height="6.467" x="24.085" rx="1"/>
              <line y2="4.972" transform="translate(0 1.462)"/>
            </g>
            <path d="M4.45831536,11.8146199 L18.7115415,11.8146199 L29.2292373,0 L10.5176958,0 L0,11.8146199"/>
            <line x1="29.327" x2="39.844" y1=".016" y2="11.831"/>
          </g>
          <g transform="translate(18.938)">
            <line x1="25.147" x2="25.147" y1="5.88" y2="8.891"/>
            <g transform="translate(22.23 12.366)">
              <line y2="4.972" transform="translate(12.61 1.325)"/>
              <rect width="5.893" height="6.467" rx="1"/>
            </g>
            <path d="M14.5683263,11.8142853 L25.086022,0 L6.3744805,0 L0,7.03235251"/>
            <line x1="25.183" x2="35.701" y1=".017" y2="11.831"/>
          </g>
        </g>
        <line x1=".274" x2="81.405" y1="34.276" y2="34.276"/>
        <g transform="translate(84.825)">
          <g transform="translate(10.902 8.282)">
            <line x1="10.692" x2="10.554" y1="5.879" y2="8.891"/>
            <g transform="translate(.86 12.392)">
              <g transform="translate(0 1.462)">
                <line x1="22.301" x2="22.163" y2="4.972"/>
                <line x1=".138" y2="4.972"/>
              </g>
              <path d="M7.71956346,7.1047473e-07 L11.6126034,7.1047473e-07 C12.1648881,7.1047473e-07 12.6126034,0.447715961 12.6126034,1.00000071 L12.6126034,5.46665286 C12.6126034,6.01893761 12.1648881,6.46665286 11.6126034,6.46665286 L7.71956346,6.46665286 C7.16727871,6.46665286 6.71956346,6.01893761 6.71956346,5.46665286 L6.71956346,1.00000071 C6.71956346,0.447715961 7.16727871,7.1047473e-07 7.71956346,7.1047473e-07 Z" transform="rotate(-180 9.666 3.233)"/>
              <line x1=".221" y2="4.972" transform="translate(36.697 1.462)"/>
            </g>
            <path d="M35.3862989,11.8146199 L21.1330938,11.8146199 L10.615398,0 L29.3269185,0 L39.8446142,11.8146199"/>
            <line x1="10.518" y1=".016" y2="11.831"/>
          </g>
          <line x1="7.048" x2="6.91" y1="4.76" y2="7.198"/>
          <path d="M2.14915501,5.2346938 L4.23339741,5.2346938 C4.53035148,5.2346938 4.77067563,4.99609912 4.77067563,4.70295894 L4.77067563,0.533408037 C4.77067563,0.238594687 4.53035148,0 4.23339741,0 L0.537299289,0 C0.240324147,0 0,0.238594687 0,0.533408037 L0,2.90864659" transform="translate(4.591 10.1)"/>
          <path d="M15.474982,9.56420019 L6.96051431,0 L22.1082066,0 L27.2685897,5.69314362"/>
          <line x1="6.882" y1=".014" y2="7.958"/>
        </g>
      </g>
      <g stroke="#222F3C" stroke-width=".5" transform="translate(36 40.851)">
        <path d="M10.5123637,3.44573561 C10.4004737,1.52526589 8.72783621,0 6.67674559,0 C4.62428507,0 2.95301746,1.52526589 2.83975762,3.44573561 C1.20442378,3.86637168 0,5.28087342 0,6.9670987 C0,8.65165081 1.20303279,10.0661525 2.83699673,10.4867886 C2.83423584,10.5319643 2.83010504,10.574463 2.83010504,10.6183001 C2.83010504,12.6361486 4.5524597,14.2711747 6.67674559,14.2711747 C8.80105256,14.2711747 10.5234072,12.6361486 10.5234072,10.6183001 C10.5234072,10.574463 10.5178854,10.5319643 10.5164945,10.4867886"/>
        <line x1="6.721" x2="9.734" y1="8.002" y2="5.304"/>
        <line x1="6.51" x2="3.927" y1="9.584" y2="6.215"/>
        <line x1="6.595" x2="6.733" y1="5.94" y2="18.715"/>
      </g>
      <g stroke="#222F3C" stroke-width=".4" transform="translate(51.813 65.446)">
        <g transform="translate(5.497)">
          <g transform="translate(0 1.705)">
            <path d="M8.57431808,11.6887972 L4.50665855,11.6887972 C4.47765864,11.6887972 4.45002863,11.6794274 4.42794149,11.6613571 L1.85613802,9.55215333 C1.82711703,9.52872889 1.81055167,9.49325759 1.81055167,9.45745166 L1.81055167,7.13843177 C1.81055167,7.1233732 1.81470355,7.10664146 1.82022533,7.09158288 L2.51911063,5.42208935 L2.49424151,2.0037938 L0.124109688,2.0037938 C0.0743714622,2.0037938 0.0288061895,1.97367666 0.00945886275,1.92716241 C-0.00986738846,1.88165206 0.00117618366,1.82844512 0.0356978843,1.79397772 L0.708344159,1.12671572 C0.722169699,1.11299569 0.738735058,1.10329128 0.755300416,1.09626395 L1.21662246,0.938650906 L2.19176566,0.0327942206 C2.21524379,0.0120468565 2.24563469,0 2.27602559,0 L4.50528864,0 C4.57296214,0 4.62959206,0.0545454893 4.62959206,0.121807105 L4.62959206,6.49559812 L5.96108014,6.49559812 C7.50111049,6.49559812 9.0162928,6.75460554 10.4665625,7.26291596 L12.0798092,7.83045675 C12.1295264,7.8481924 12.1613082,7.89504129 12.1613082,7.9469097 L12.1613082,8.59810922 C12.1613082,8.63659224 12.1433519,8.67206354 12.112961,8.69548798 L10.3339764,10.0179651 L8.6613389,11.6533259 C8.6378397,11.6764157 8.60607889,11.6887972 8.57431808,11.6887972 Z M4.62959206,7.47005496 L4.62959206,8.24306159"/>
            <line y2="2.297" transform="translate(7.583 11.71)"/>
            <path d="M0,1.73474734 L1.53406598,0.693698156 L1.53406598,0" transform="translate(5.066 12.335)"/>
            <path d="M0,0 L1.52167357,1.58884652 L4.90010039,1.58884652" transform="translate(4.663 8.266)"/>
            <g transform="translate(.935 2.543)">
              <line x1="1.545"/>
            </g>
          </g>
          <path d="M0,1.69157944 L0,0.12348028 C0,0.0548801242 0.0552389361,0 0.124303413,0 L0.703037173,0 C0.736188965,0 0.767949773,0.0137200311 0.790057992,0.0358059347 L1.23342369,0.475516199 L1.57042125,0.475516199 C1.60357304,0.475516199 1.63535492,0.48789769 1.65883305,0.511322133 L2.03313427,0.884105416 C2.0566124,0.907529859 2.07041687,0.937647001 2.07041687,0.970441221 L2.07041687,1.69157944" transform="translate(2.403)"/>
          <path d="M1.10573885,2.03391095 L0.132815261,2.03391095 C0.0596792044,2.03391095 0,1.97903082 0,1.9107653 L0,1.10329128 C0,1.08957125 0.00298282174,1.07585122 0.00746843916,1.06213119 L0.437222466,0" transform="translate(1.468 4.264)"/>
        </g>
        <line x2="20.629" transform="translate(0 15.79)"/>
        <line y1="1.138" transform="translate(5.405 14.574)"/>
        <line y2=".781" transform="translate(6.289 15.225)"/>
        <line y1="1.672" transform="translate(7.159 14.04)"/>
        <line y1=".895" transform="translate(15.062 15.23)"/>
        <line y1="1.1" transform="translate(15.913 14.66)"/>
      </g>
      <g stroke="#222F3C" stroke-width=".4" transform="translate(41.938 65.446)">
        <g transform="translate(2.97)">
          <g transform="translate(0 1.705)">
            <path d="M3.50136033,11.6533259 L1.82733183,10.0179651 L0.0497171501,8.69548798 C0.0179563425,8.67206354 0,8.63659224 0,8.59810922 L0,7.9469097 C0,7.89504129 0.0331517919,7.8481924 0.0828689419,7.83045675 L1.69611564,7.26291596 C3.14499437,6.75460554 4.66156766,6.49559812 6.2002281,6.49559812 L7.53171619,6.49559812 L7.53308609,0.121807105 C7.53308609,0.0545454893 7.58834611,0 7.6560196,0 L9.88528265,0 C9.91704346,0 9.94606445,0.0120468565 9.96954258,0.0327942206 L10.9446647,0.938650906 L11.4059868,1.09626395 C11.4239431,1.10329128 11.4391385,1.11299569 11.4529641,1.12671572 L12.1256104,1.79397772 C12.1601321,1.82844512 12.1711756,1.88165206 12.1518494,1.92716241 C12.1325021,1.97367666 12.0883067,2.0037938 12.0385895,2.0037938 L9.66704565,2.0037938 L9.64219761,5.42208935 L10.3410829,7.09158288 C10.3479957,7.10664146 10.3507566,7.1233732 10.3507566,7.13843177 L10.3507566,9.45745166 C10.3507566,9.49325759 10.3341701,9.52872889 10.3065612,9.55215333 L7.73475774,11.6613571 C7.71264952,11.6794274 7.6836496,11.6887972 7.6560196,11.6887972 L3.58699016,11.6887972 C3.55522935,11.6887972 3.52344747,11.6764157 3.50136033,11.6533259 Z M7.53171619,8.24306159 L7.53171619,7.47005496"/>
            <line x1=".221" y2="2.297" transform="translate(4.579 11.71)"/>
            <path d="M1.53406598,1.73474734 L0,0.693698156 L0,0" transform="translate(5.562 12.335)"/>
            <path d="M4.90010039,0 L3.37840575,1.58884652 L0,1.58884652" transform="translate(2.598 8.266)"/>
            <g transform="translate(9.682 2.543)">
              <line x2="1.545" y2=".22"/>
            </g>
          </g>
          <path d="M2.06904696,1.69157944 L2.06904696,0.12348028 C2.06904696,0.0548801242 2.01378695,0 1.94474354,0 L1.36600978,0 C1.33424898,0 1.30246709,0.0137200311 1.27898897,0.0358059347 L0.835623265,0.475516199 L0.498604636,0.475516199 C0.46547392,0.475516199 0.433692036,0.48789769 0.411604892,0.511322133 L0.0359126849,0.884105416 C0.0124345564,0.907529859 0,0.937647001 0,0.970441221 L0,1.69157944" transform="translate(7.69)"/>
          <path d="M0,2.03391095 L0.971623075,2.03391095 C1.04463863,2.03391095 1.10573885,1.97903082 1.10573885,1.9107653 L1.10573885,1.10329128 C1.10573885,1.08957125 1.10276001,1.07585122 1.09680235,1.06213119 L0.669100821,0" transform="translate(9.67 4.264)"/>
        </g>
        <line x1="20.629" y1=".22" transform="translate(0 15.79)"/>
        <line x2=".221" y1="1.138" transform="translate(15.224 14.574)"/>
        <line x1=".221" y2=".781" transform="translate(14.34 15.225)"/>
        <line x2=".221" y1="1.672" transform="translate(13.47 14.04)"/>
        <line x2=".221" y1=".895" transform="translate(5.566 15.23)"/>
        <line x2=".221" y1="1.1" transform="translate(4.717 14.66)"/>
      </g>
      <g stroke="#222F3C" stroke-width=".4" transform="translate(74.399 72.216)">
        <g transform="translate(2.982)">
          <g transform="translate(0 1.704)">
            <path d="M8.57426204,11.6887972 L4.50662359,11.6887972 C4.47762367,11.6887972 4.44999367,11.6794274 4.42788545,11.6613571 L1.85608197,9.55215333 C1.82708206,9.52872889 1.8105167,9.49459613 1.8105167,9.45745166 L1.8105167,7.13977031 C1.8105167,7.1233732 1.8146475,7.10664146 1.82016929,7.09158288 L2.51907566,5.42208935 L2.49420655,2.0037938 L0.124053647,2.0037938 C0.0743364966,2.0037938 0.0287501483,1.97367666 0.00942389707,1.92850095 C-0.00992342966,1.88165206 0.00112014246,1.82978365 0.0370328274,1.79397772 L0.708309193,1.12671572 C0.722113658,1.11433423 0.738700092,1.10329128 0.756656434,1.09793712 L1.21658749,0.938650906 L2.1917307,0.0327942206 C2.21520882,0.0123814914 2.24557865,0 2.27736053,0 L4.5052326,0 C4.57429708,0 4.62955709,0.0545454893 4.62955709,0.123145645 L4.62955709,6.49559812 L5.9610241,6.49559812 C7.50107552,6.49559812 9.01625783,6.75460554 10.4665275,7.26425449 L12.0797742,7.83179529 C12.1294914,7.8481924 12.1626432,7.89504129 12.1626432,7.9469097 L12.1626432,8.59810922 C12.1626432,8.63659224 12.1432959,8.67340208 12.112926,8.69682652 L10.3339204,10.0193037 L8.66128286,11.6546644 C8.63780473,11.6764157 8.60604392,11.6887972 8.57426204,11.6887972 Z M4.62955709,7.47005496 L4.62955709,8.24306159"/>
            <line y2="2.297" transform="translate(7.583 11.71)"/>
            <path d="M0,1.73474734 L1.53406598,0.693363521 L1.53406598,0" transform="translate(5.066 12.335)"/>
            <path d="M0,0 L1.52167357,1.58884652 L4.90010039,1.58884652" transform="translate(4.663 8.266)"/>
            <g transform="translate(.935 2.543)">
              <line x1="1.545"/>
            </g>
          </g>
          <path d="M0,1.69157944 L0,0.12214174 C0,0.0548801242 0.0566299204,0 0.124303413,0 L0.703016098,0 C0.73616789,0 0.767949773,0.0123814914 0.790036917,0.0358059347 L1.23340262,0.474512294 L1.57181223,0.474512294 C1.60357304,0.474512294 1.63533385,0.488232325 1.65881197,0.511322133 L2.03450418,0.882766877 C2.0566124,0.90619132 2.07041687,0.937647001 2.07041687,0.970441221 L2.07041687,1.69157944" transform="translate(2.403)"/>
          <path d="M1.10573885,2.03257241 L0.132792491,2.03257241 C0.0596792044,2.03257241 0,1.97802692 0,1.9107653 L0,1.10329128 C0,1.08823271 0.00298282174,1.07451268 0.00744566953,1.06213119 L0.437222466,0" transform="translate(1.468 4.264)"/>
        </g>
        <line x2="18.114" transform="translate(0 15.789)"/>
        <line y1="1.138" transform="translate(2.89 14.573)"/>
        <line y2=".781" transform="translate(3.775 15.224)"/>
        <line y1="1.672" transform="translate(4.645 14.038)"/>
        <line y1=".895" transform="translate(12.547 15.23)"/>
        <line y1="1.1" transform="translate(13.398 14.66)"/>
      </g>
      <g stroke="#231F20" stroke-width=".4" transform="translate(0 46.205)">
        <path d="M5.0814447,10.0838882 C2.27898021,10.0838882 0,7.82209088 0,5.04127483 C0,2.26146268 2.27898021,0 5.0814447,0 C7.88252874,0 10.1628999,2.26146268 10.1628999,5.04127483 C10.1628999,7.82209088 7.88252874,10.0838882 5.0814447,10.0838882 Z" transform="translate(2.081 3.542)"/>
        <path d="M3.86460744,7.66882809 C1.73340877,7.66882809 0,5.94847005 0,3.83357746 C0,1.72002341 1.73340877,0 3.86460744,0 C5.9958061,0 7.72922542,1.72002341 7.72922542,3.83357746 C7.72922542,5.94847005 5.9958061,7.66882809 3.86460744,7.66882809 Z" transform="translate(18.369 5.957)"/>
        <path d="M3.07041864,0 C4.76378393,0 6.14084783,1.36798749 6.14084783,3.04718544 C6.14084783,4.72738729 4.76378393,6.09403624 3.07041864,6.09403624 C1.37706389,6.09403624 0,4.72738729 0,3.04718544 C0,2.46458607 0.167128868,1.89704527 0.482049815,1.40780904" transform="translate(4.093 5.536)"/>
        <path d="M1.85910317,3.68834591 C0.834253356,3.68834591 0,2.86045916 0,1.84350369 C0,0.826548213 0.834253356,0 1.85910317,0 C2.88395299,0 3.71820634,0.826548213 3.71820634,1.84350369 C3.71820634,2.86045916 2.88395299,3.68834591 1.85910317,3.68834591 Z" transform="translate(20.374 7.947)"/>
        <line x1="6.845" transform="translate(11.686 10.894)"/>
        <line x1="2.317" y1=".22" transform="translate(16.097 9.189)"/>
        <path d="M0.182324318,5.00848061 C0.0814990332,5.00848061 0,4.92749896 0,4.8291163 L0,0.179698943 C0,0.0809816468 0.0814990332,0 0.182324318,0 L10.3576588,0 C10.9681534,0 11.4653881,0.492247944 11.4653881,1.09927566 L11.4653881,4.69191599 C11.4653881,5.29760516 10.9681534,5.79119165 10.3576588,5.79119165 L10.1560082,5.79119165" transform="translate(15.927 4.18)"/>
        <path d="M2.06352517,8.19688197 L1.1077293,8.19688197 C0.497234727,8.19688197 0,7.70329549 0,7.09760631 L0,1.09927566 C0,0.493586483 0.497234727,0 1.1077293,0 L2.26379529,0" transform="translate(0 1.027)"/>
        <path d="M0,0 L3.76793403,0 C4.22511473,0 4.64085043,0.443354811 4.80383796,1.10006111" transform="translate(4.784 1.027)"/>
        <path d="M1.56905134,2.20524402 L0.180933333,2.20524402 C0.0801080489,2.20524402 0,2.13530532 0,2.05030806 L0,0.154935961 C0,0.0686001553 0.0801080489,0 0.180933333,0 L1.56905134,0 C1.66849618,0 1.74998467,0.0686001553 1.74998467,0.154935961 L1.74998467,2.05030806 C1.74998467,2.13530532 1.66849618,2.20524402 1.56905134,2.20524402 Z" transform="translate(19.699 1.975)"/>
        <line y1="1.973" transform="translate(20.392)"/>
        <line y2="2.005" transform="translate(23.68 2.155)"/>
        <line x2="1.106" y2="1.1" transform="translate(15.073 3.318)"/>
        <line x1="2.064" y2="2.049" transform="translate(13.914 2.427)"/>
        <path d="M0,0 L1.67855974,4.3679894 L3.57339645,4.3679894" transform="translate(9.077 .306)"/>
        <line y1="1.397" transform="translate(16.967 5.473)"/>
        <line y1="1.397" transform="translate(17.791 5.473)"/>
        <line y1="1.397" transform="translate(18.616 5.473)"/>
      </g>
      <g stroke="#222F3C" stroke-width=".5" transform="translate(62.017)">
        <path d="M16.7250052,11.7533817 L1.50966052,11.7533817 C0.972361235,11.7533817 0,11.0034649 0,9.81383783 C0,8.6228722 0.972361235,7.87295539 2.17263313,7.87295539 L3.08147275,7.87295539 C2.86047486,7.87295539 2.73478046,6.85466137 2.73478046,6.30351769 C2.73478046,4.28031506 4.38670074,2.62755327 6.42398689,2.62755327 C7.39358723,2.62755327 8.27203595,2.99330922 8.93087776,3.59933303 C9.5896985,2.45320848 10.8314049,1.67484769 12.2568055,1.67484769 C12.8714519,1.67484769 13.4515556,1.82141778 13.9667466,2.07774812 C14.9018253,0.81952088 16.4004212,0 18.0965579,0 C20.9321636,0 23.2304912,2.30797693 23.2304912,5.1205833 C23.2304912,6.12415338 22.9335371,7.38907331 22.4280197,7.87295539" transform="translate(0 7.1)"/>
        <path d="M13.7312827,8.83087526 C13.2216134,5.34397956 15.4660719,0.875599692 19.9356627,0.110624301 C24.0751265,-0.596459251 28.008809,2.15992845 28.7228897,6.2675719 C29.4908395,10.6934531 26.0171092,14.298475 22.5185097,14.9878229"/>
        <path d="M15.7360786,1.20468565 C15.7360786,2.75772624 14.4681333,4.02833497 12.9032127,4.02833497 C12.1601321,4.02833497 11.4847249,3.74590311 10.9792075,3.28142987 C10.4722991,4.16151967 9.51926411,4.75884297 8.42536036,4.75884297 C7.95297367,4.75884297 7.50823806,4.64674028 7.11182861,4.45064422 C6.39498698,5.41539665 5.24306232,6.04618344 3.94057415,6.04618344 C1.76381021,6.04618344 0,4.27362236 0,2.11355405 C0,1.34188596 0.22788959,0.371444743 0.614646445,0" transform="translate(16.711 16.201)"/>
        <path d="M31.0191071,7.21380761 C33.9016902,7.21380761 36.2373003,9.5328275 36.2373003,12.3919481 C36.2373003,15.2514034 33.9016902,17.5704233 31.0191071,17.5704233"/>
      </g>
    </g>
    <g fill-rule="nonzero" transform="translate(302.688 121.276)">
      <path fill="#333838" d="M9.71824975,9.87639091 C9.79490905,9.87639091 9.84090462,9.7857188 9.94822763,9.52881448 C10.6534931,7.86649246 11.8953736,5.010321 12.8612807,2.92486246 C13.8271877,0.778955855 14.1031612,0.46160347 14.7470992,0.295371268 C15.0230727,0.250035213 15.099732,0.189587139 15.099732,0.129139066 C15.099732,0.0686909925 15.0230727,0.0535789742 14.8237585,0.0535789742 C14.5477851,0.0535789742 14.1338249,0.114027048 13.7045329,0.114027048 C13.2445771,0.114027048 13.0299311,0.0535789742 12.6313028,0.0535789742 C12.4166568,0.0535789742 12.3706612,0.0838030109 12.3706612,0.144251084 C12.3706612,0.204699158 12.4626524,0.234923194 12.7079621,0.310483286 C13.2139134,0.46160347 13.2292453,0.718507782 13.152586,1.05097219 C12.830617,2.16926154 10.9754621,6.40062668 10.2395329,7.97227659 C10.1935374,8.0629487 10.1628736,8.07806072 10.1015462,7.97227659 C9.58026303,6.83887522 8.90566127,5.40323347 8.52236482,4.51162439 C8.4917011,4.4360643 8.4917011,4.36050421 8.50703296,4.33028017 C8.76767455,3.8618076 9.5189356,2.36571778 9.91756391,1.61011686 C10.4235152,0.7336198 10.7148205,0.416267415 11.2820993,0.295371268 C11.4967453,0.250035213 11.5734046,0.204699158 11.5734046,0.129139066 C11.5734046,0.0686909925 11.4967453,0.0535789742 11.312763,0.0535789742 C10.9601303,0.0535789742 10.7148205,0.114027048 10.1782055,0.114027048 C9.77957719,0.114027048 9.53426746,0.0686909925 9.150971,0.0686909925 C8.96698871,0.0686909925 8.87499756,0.0989150292 8.87499756,0.144251084 C8.87499756,0.204699158 8.92099313,0.265147231 9.19696658,0.325595305 C9.85623648,0.476715488 9.87156834,0.627835672 9.39628073,1.73101301 C9.07431171,2.47150191 8.75234269,3.16665476 8.3843781,3.90714366 C8.33838252,3.98270375 8.27705509,3.96759173 8.26172323,3.93736769 C7.75577191,2.7888543 7.29581617,1.76123705 7.05050644,1.12653228 C6.82052857,0.567387598 6.97384715,0.386043378 7.38780732,0.310483286 C7.58712147,0.265147231 7.67911262,0.219811176 7.67911262,0.144251084 C7.67911262,0.0838030109 7.57178962,0.0535789742 7.41847103,0.0535789742 C7.0658383,0.0535789742 6.71320556,0.114027048 6.16125867,0.114027048 C5.60931177,0.114027048 5.31800647,0.0535789742 4.87338258,0.0535789742 C4.67406843,0.0535789742 4.58207728,0.0989150292 4.58207728,0.144251084 C4.58207728,0.219811176 4.65873657,0.28025925 4.9040463,0.325595305 C5.3793339,0.446491451 5.50198877,0.627835672 5.94661265,1.56478081 C6.28391353,2.29015769 7.31114803,4.58718448 7.55645776,5.16144118 C7.55645776,5.19166522 7.55645776,5.29744934 7.52579404,5.3427854 C7.11183387,6.30995457 6.74386928,7.06555549 6.31457725,7.92694054 C6.26858167,8.00250063 6.20725424,8.03272467 6.16125867,7.92694054 C5.11869231,5.66013778 3.60083836,2.44127787 2.95690032,0.869627965 C2.84957731,0.597611635 2.84957731,0.416267415 3.27886934,0.340707323 C3.46285163,0.310483286 3.55484278,0.265147231 3.55484278,0.189587139 C3.55484278,0.129139066 3.46285163,0.0838030109 3.24820562,0.0838030109 C2.9262366,0.0838030109 2.558272,0.114027048 2.22097113,0.114027048 C1.76101538,0.114027048 1.1324092,0.0535789742 0.764444602,0.0535789742 C0.565130446,0.0535789742 0.457807439,0.114027048 0.457807439,0.159363103 C0.457807439,0.219811176 0.595794162,0.28025925 0.77977646,0.295371268 C1.36238707,0.37093136 1.48504193,0.64294769 2.03698883,1.82168512 C2.75758616,3.30266292 3.78482066,5.53924164 4.62807285,7.45846797 C4.82738701,7.91182852 5.30267461,9.01500586 5.50198877,9.51370247 C5.60931177,9.7857188 5.63997549,9.87639091 5.73196664,9.87639091 C5.79329407,9.87639091 5.88528522,9.75549476 5.97727637,9.51370247 C6.31457725,8.6372054 7.12716573,6.86909925 7.70977634,5.75080989 C7.74044006,5.70547384 7.78643563,5.70547384 7.81709935,5.76592191 C8.26172323,6.73309109 9.13563915,8.60698136 9.45760817,9.52881448 C9.54959932,9.77060678 9.61092675,9.87639091 9.71824975,9.87639091 Z M17.0315461,9.75549476 C17.5221655,9.75549476 17.9974531,9.52881448 18.2120992,9.10567797 C18.2734266,8.9696698 18.2120992,8.92433375 18.120108,8.9696698 C17.9514576,9.06034191 17.798139,9.10567797 17.6754841,9.10567797 C17.2461921,9.10567797 17.1082054,8.81854962 17.1082054,8.53142127 C17.1082054,8.13850879 17.154201,6.70286705 17.154201,6.14372237 C17.154201,5.6752498 17.0928735,5.05565705 16.9395549,4.7685287 C16.7555726,4.30005613 16.280285,3.99781577 15.7590019,3.99781577 C15.4983603,3.99781577 15.1917231,4.08848788 14.8390904,4.2698321 C14.5324532,4.42095228 14.0265019,4.73830466 13.6738692,5.14632916 C13.4898869,5.35789742 13.3825639,5.49390558 13.3825639,5.59968971 C13.3825639,5.66013778 13.4592231,5.75080989 13.5358824,5.73569788 C13.6432054,5.72058586 14.1031612,5.5090176 14.2564798,5.40323347 C14.2871435,5.37300944 14.3178072,5.32767338 14.3178072,5.28233733 C14.3178072,5.1765532 14.3178072,5.05565705 14.3331391,4.99520898 C14.3638028,4.82897677 14.4557939,4.72319265 14.5631169,4.63252054 C14.7930948,4.49651237 14.9464134,4.45117632 15.1763913,4.45117632 C15.3603736,4.45117632 15.6210151,4.54184843 15.8203293,4.69296861 C16.0809709,4.88942485 16.1882939,5.31256136 16.1882939,5.93215411 C16.1882939,6.14372237 16.1882939,6.44596274 16.1576302,6.62730696 C16.1576302,6.68775503 16.0809709,6.8237632 15.958316,6.85398723 C15.636347,6.97488338 14.2411479,7.38290788 13.8731833,7.57936412 C13.7351966,7.65492421 13.3212364,7.95716457 13.3212364,8.44074916 C13.3212364,9.22657412 13.9345107,9.74038274 14.5477851,9.74038274 C15.1303957,9.74038274 15.5903514,9.48347843 16.0503072,9.06034191 C16.065639,9.0452299 16.1116346,9.0452299 16.1269665,9.07545393 C16.2649532,9.42303036 16.6022541,9.75549476 17.0315461,9.75549476 Z M15.2223868,9.16612604 C14.7470992,9.16612604 14.3024753,8.81854962 14.3024753,8.31985302 C14.3024753,7.88160448 14.5017895,7.65492421 14.6857718,7.5642521 C15.0077408,7.3980199 15.8969886,7.08066751 16.0963027,7.05044347 C16.1269665,7.03533145 16.1576302,7.11089155 16.1576302,7.12600356 C16.1576302,7.70026026 16.1269665,8.304741 16.0809709,8.56164531 C16.065639,8.72787751 15.9736479,8.86388568 15.9123204,8.92433375 C15.74367,9.07545393 15.4830284,9.16612604 15.2223868,9.16612604 Z M20.6345327,9.72527072 C21.0638248,9.72527072 21.5391124,9.58926256 21.8764133,9.33235825 C22.0757274,9.18123806 22.2137141,9.03011788 22.2137141,8.93944577 C22.2137141,8.87899769 22.1677186,8.86388568 22.0603956,8.93944577 C21.9224088,9.03011788 21.6464354,9.16612604 21.2171434,9.16612604 C20.818515,9.16612604 20.496546,9.0452299 20.2665682,8.75810155 C20.1592451,8.60698136 20.1285814,8.42563714 20.0979177,7.94205256 C20.0825859,7.47357999 20.067254,5.10099311 20.067254,4.84408879 C20.067254,4.75341668 20.0979177,4.70808063 20.2819,4.70808063 C20.6958602,4.70808063 21.4471212,4.72319265 21.9837363,4.72319265 C22.0603956,4.72319265 22.1370548,4.6022965 22.1370548,4.34539219 C22.1370548,4.23960806 22.0757274,4.13382393 22.0450637,4.13382393 C21.7230947,4.13382393 20.4505505,4.17915999 20.174577,4.17915999 C20.1132496,4.17915999 20.0979177,4.08848788 20.0979177,4.04315182 C20.0825859,3.8618076 20.1132496,3.43867109 20.1132496,3.30266292 C20.1132496,3.22710283 20.0059266,3.19687879 19.8679398,3.34799898 C19.4999752,3.81647154 18.9940239,4.22449604 18.6107275,4.36050421 C18.442077,4.4360643 18.4267452,4.48140035 18.4267452,4.51162439 C18.4267452,4.57207246 18.5034045,4.61740852 18.6260593,4.64763255 L18.8387889,4.69296861 C18.9058657,4.70808063 18.9633602,4.72319265 18.9940239,4.73830466 C19.0553514,4.7685287 19.0706832,4.87431283 19.0706832,5.04054503 L19.0706832,8.16873283 C19.0706832,8.53142127 19.1320107,8.83366164 19.2546655,9.03011788 C19.5153071,9.51370247 19.9905947,9.72527072 20.6345327,9.72527072 Z M25.1267672,9.75549476 C26.0006831,9.75549476 26.6446211,9.45325439 27.2578955,8.8034376 C27.3498866,8.69765347 27.411214,8.60698136 27.411214,8.56164531 C27.411214,8.48608522 27.3498866,8.45586118 27.2272317,8.57675733 C26.8592672,8.92433375 26.3993114,9.06034191 25.7707052,9.06034191 C25.2647539,9.06034191 24.6514796,8.89410971 24.2375194,8.44074916 C23.8388911,8.00250063 23.5322539,7.38290788 23.5322539,6.61219494 C23.5322539,6.18905843 23.5782495,5.96237815 23.6549088,5.78103393 C23.6855725,5.73569788 23.7622318,5.66013778 23.7928955,5.66013778 L24.6208159,5.66013778 C24.9734486,5.66013778 26.9665902,5.69036182 27.089245,5.70547384 C27.1659043,5.70547384 27.2425636,5.61480173 27.2425636,5.53924164 C27.2425636,4.61740852 26.2766565,3.99781577 25.3720769,3.99781577 C24.5748203,3.99781577 23.8695548,4.36050421 23.4555946,4.75341668 C22.8116566,5.37300944 22.5663469,6.26461852 22.5663469,6.95977136 C22.5663469,7.77582035 22.8423203,8.50119724 23.3022761,8.98478182 C23.7622318,9.46836641 24.4061699,9.75549476 25.1267672,9.75549476 Z M23.854223,5.44856953 C23.8235592,5.44856953 23.7928955,5.41834549 23.7928955,5.38812145 C23.7928955,5.26722531 23.9308822,4.98009696 24.1148645,4.7685287 C24.4521654,4.42095228 24.8354619,4.20938402 25.2340902,4.20938402 C25.5867229,4.20938402 25.8473645,4.34539219 26.0006831,4.49651237 C26.1693335,4.67785659 26.2153291,4.94987292 26.2153291,5.13121714 C26.2153291,5.26722531 26.1846654,5.43345751 25.8473645,5.43345751 L23.854223,5.44856953 Z M28.1011477,9.67993467 C28.3157937,9.67993467 28.4844441,9.58926256 29.036391,9.58926256 C29.6803291,9.58926256 30.1862804,9.64971063 30.4775857,9.64971063 C30.7075635,9.64971063 30.8455503,9.61948659 30.8455503,9.5439265 C30.8455503,9.46836641 30.768891,9.43814237 30.554245,9.40791834 C29.9716344,9.34747026 29.7876521,9.24168613 29.7263246,8.77321357 C29.6956609,8.45586118 29.6649972,7.67003623 29.6649972,6.55174687 C29.6649972,6.2495065 29.6496653,5.81125797 29.6803291,5.62991375 C29.6956609,5.44856953 29.7723202,5.28233733 29.9409706,5.10099311 C30.1402848,4.91964888 30.3855945,4.79875274 30.6155724,4.79875274 C30.7842228,4.79875274 30.983537,4.87431283 31.1521874,4.98009696 C31.3208379,5.07076907 31.3974972,5.08588109 31.4281609,5.08588109 C31.4741565,5.08588109 31.5354839,5.07076907 31.6734706,4.94987292 C31.8574529,4.78364072 32.0107715,4.54184843 32.0107715,4.4360643 C32.0107715,4.36050421 31.9801078,4.28494411 31.9034485,4.22449604 C31.7501299,4.10359989 31.5508157,4.0280398 31.3668334,4.0280398 C30.7535591,4.0280398 30.1402848,4.58718448 29.7109928,5.11610512 C29.6649972,5.16144118 29.6343335,5.14632916 29.6343335,5.10099311 C29.6343335,4.85920081 29.6496653,4.28494411 29.6496653,4.11871191 C29.6496653,3.96759173 29.6190016,3.90714366 29.5883379,3.90714366 C29.5423423,3.90714366 29.465683,3.92225567 29.35836,3.98270375 C29.1130503,4.11871191 28.6837583,4.2698321 28.3771211,4.34539219 C28.2391344,4.39072824 28.1471432,4.45117632 28.1471432,4.48140035 C28.1471432,4.51162439 28.1624751,4.55696044 28.2697981,4.63252054 C28.5611034,4.87431283 28.6684264,4.91964888 28.6684264,5.02543301 L28.6684264,6.70286705 C28.6684264,7.70026026 28.6530946,8.56164531 28.6224308,8.81854962 C28.5611034,9.22657412 28.392453,9.36258228 28.0704839,9.43814237 C27.9478291,9.46836641 27.8405061,9.5439265 27.8405061,9.58926256 C27.8405061,9.64971063 27.9171654,9.67993467 28.1011477,9.67993467 Z M7.08117016,26.3471171 C8.32305066,26.3471171 9.150971,26.0297647 10.0708825,25.5159561 C10.1475418,25.47062 10.1935374,25.3799479 10.2242011,25.2892758 C10.2548648,25.1230436 10.4388471,24.3523307 10.4388471,24.0954264 C10.4388471,24.0047542 10.4081834,23.8687461 10.3468559,23.8687461 C10.2855285,23.8687461 10.2548648,23.9291942 10.1935374,24.1256504 C9.96355949,24.7452431 9.59559489,25.2741638 9.01298428,25.6066282 C8.59902411,25.8635325 8.06240908,26.0297647 7.18849316,26.0297647 C6.37590468,26.0297647 5.31800647,25.7124123 4.56674542,24.9114754 C3.7694888,24.0652023 3.15621447,22.6144486 3.15621447,21.2543669 C3.15621447,19.8036131 3.66216579,18.4586435 4.32143569,17.7483786 C4.95004187,17.1136739 5.83928965,16.5696412 6.98917901,16.5696412 C7.87842678,16.5696412 8.76767455,16.8114335 9.3349533,17.3252421 C9.61092675,17.5368104 9.94822763,18.020395 10.0708825,18.5342036 C10.1015462,18.6550998 10.1475418,18.7306598 10.2088692,18.7306598 C10.2395329,18.7306598 10.3008604,18.6399877 10.3008604,18.4888675 C10.3008604,18.3377474 10.2242011,17.6879306 10.2548648,17.3252421 C10.2701966,17.249682 10.2242011,17.1438979 10.1015462,17.0683378 C9.59559489,16.7963215 8.33838252,16.3278489 7.09650201,16.3278489 C5.68597106,16.3278489 4.33676755,16.8567696 3.52417907,17.5821464 C2.54294015,18.4586435 1.80701096,19.5920449 1.80701096,21.4054871 C1.80701096,22.7051207 2.450949,24.0954264 3.09488704,24.7452431 C4.04546224,25.6821883 5.24134718,26.3471171 7.08117016,26.3471171 Z M15.0690682,26.241333 C15.5596877,26.241333 16.0349753,26.0146527 16.2496213,25.5915162 C16.3109488,25.455508 16.2496213,25.410172 16.1576302,25.455508 C15.9889797,25.5461801 15.8356612,25.5915162 15.7130063,25.5915162 C15.2837143,25.5915162 15.1457275,25.3043878 15.1457275,25.0172595 C15.1457275,24.624347 15.1917231,23.1887053 15.1917231,22.6295606 C15.1917231,22.161088 15.1303957,21.5414953 14.9770771,21.2543669 C14.7930948,20.7858943 14.3178072,20.483654 13.796524,20.483654 C13.5358824,20.483654 13.2292453,20.5743261 12.8766125,20.7556703 C12.5699754,20.9067905 12.0640241,21.2241429 11.7113913,21.6321674 C11.527409,21.8437356 11.420086,21.9797438 11.420086,22.0855279 C11.420086,22.145976 11.4967453,22.2366481 11.5734046,22.2215361 C11.6807276,22.2064241 12.1406833,21.9948558 12.2940019,21.8890717 C12.3246656,21.8588476 12.3553294,21.8135116 12.3553294,21.7681755 C12.3553294,21.6623914 12.3553294,21.5414953 12.3706612,21.4810472 C12.4013249,21.314815 12.4933161,21.2090309 12.6006391,21.1183587 C12.830617,20.9823506 12.9839355,20.9370145 13.2139134,20.9370145 C13.3978957,20.9370145 13.6585373,21.0276866 13.8578515,21.1788068 C14.118493,21.3752631 14.225816,21.7983996 14.225816,22.4179923 C14.225816,22.6295606 14.225816,22.9318009 14.1951523,23.1131452 C14.1951523,23.1735932 14.118493,23.3096014 13.9958382,23.3398254 C13.6738692,23.4607216 12.2786701,23.8687461 11.9107055,24.0652023 C11.7727187,24.1407624 11.3587586,24.4430028 11.3587586,24.9265874 C11.3587586,25.7124123 11.9720329,26.2262209 12.5853072,26.2262209 C13.1679178,26.2262209 13.6278736,25.9693166 14.0878293,25.5461801 C14.1031612,25.5310681 14.1491568,25.5310681 14.1644886,25.5612921 C14.3024753,25.9088686 14.6397762,26.241333 15.0690682,26.241333 Z M13.259909,25.6519643 C12.7846214,25.6519643 12.3399975,25.3043878 12.3399975,24.8056912 C12.3399975,24.3674427 12.5393117,24.1407624 12.723294,24.0500903 C13.045263,23.8838581 13.9345107,23.5665057 14.1338249,23.5362817 C14.1644886,23.5211697 14.1951523,23.5967298 14.1951523,23.6118418 C14.1951523,24.1860985 14.1644886,24.7905792 14.118493,25.0474835 C14.1031612,25.2137157 14.01117,25.3497239 13.9498426,25.410172 C13.7811922,25.5612921 13.5205506,25.6519643 13.259909,25.6519643 Z M22.5356832,26.1355488 C22.6890017,26.1355488 22.8116566,26.1204368 22.8116566,26.0297647 C22.8116566,25.9693166 22.7196655,25.9390926 22.5816787,25.8786445 C22.1677186,25.7728604 22.121723,25.6821883 22.1063911,24.654571 C22.1063911,23.8989701 22.0910593,23.778074 22.0910593,22.977137 C22.0757274,22.115752 21.9530725,21.360151 21.6004398,20.9974626 C21.4011257,20.7858943 21.0331611,20.483654 20.4045549,20.483654 C20.1439133,20.483654 19.8219443,20.513878 19.4999752,20.6649982 C19.1626744,20.8010064 18.7947098,21.0579107 18.4114133,21.345039 C18.3807496,21.3752631 18.334754,21.329927 18.334754,21.299703 C18.3194222,21.0881347 18.3500859,20.6801102 18.3654177,20.498766 C18.3807496,20.4232059 18.3040903,20.3627578 18.2580947,20.3778698 C17.9974531,20.544102 17.3841788,20.8010064 17.0468779,20.8916785 C16.9088912,20.9370145 16.8322319,20.9823506 16.8322319,21.0125746 C16.8322319,21.0579107 16.8628956,21.0881347 16.9548868,21.1485828 C17.3228514,21.345039 17.3535151,21.5112712 17.3535151,21.6623914 C17.3535151,22.8864649 17.3535151,24.2767706 17.3228514,25.3648359 C17.3075195,25.6670763 17.2461921,25.7728604 16.8628956,25.8484205 C16.6789133,25.8786445 16.5409266,25.9390926 16.5409266,25.9995407 C16.5409266,26.0751008 16.6635815,26.1053248 16.8322319,26.1053248 C17.1235372,26.1053248 17.4455063,26.0751008 17.6448204,26.0751008 C17.9974531,26.0751008 18.7487142,26.1355488 18.8713691,26.1355488 C19.0246876,26.1355488 19.1780062,26.1355488 19.1780062,26.0448767 C19.1780062,25.9693166 19.1013469,25.9390926 18.9173646,25.8937565 C18.6720549,25.8181965 18.4880726,25.7426364 18.442077,25.410172 C18.4114133,25.1986037 18.3654177,24.8056912 18.3500859,23.82341 C18.3500859,22.9166889 18.334754,22.145976 18.334754,21.9646318 C18.334754,21.8437356 18.4114133,21.6170553 18.5187363,21.5112712 C18.9173646,21.1788068 19.3159929,21.0276866 19.7146213,21.0276866 C20.067254,21.0276866 20.3585593,21.1334708 20.5885372,21.314815 C20.9718336,21.6019433 21.0791566,21.9646318 21.0791566,23.1887053 L21.0791566,25.2439398 C21.0791566,25.6821883 21.0178292,25.7879724 20.6498646,25.8786445 C20.4505505,25.9239806 20.3585593,25.9844287 20.3585593,26.0448767 C20.3585593,26.1053248 20.4658823,26.1355488 20.603869,26.1355488 C20.8338469,26.1355488 21.0331611,26.0751008 21.5544442,26.0751008 C21.8917451,26.0751008 22.336369,26.1355488 22.5356832,26.1355488 Z M27.1659043,26.241333 C27.6565238,26.241333 28.1318114,26.0146527 28.3464574,25.5915162 C28.4077848,25.455508 28.3464574,25.410172 28.2544662,25.455508 C28.0858158,25.5461801 27.9324972,25.5915162 27.8098424,25.5915162 C27.3805503,25.5915162 27.2425636,25.3043878 27.2425636,25.0172595 C27.2425636,24.624347 27.2885592,23.1887053 27.2885592,22.6295606 C27.2885592,22.161088 27.2272317,21.5414953 27.0739132,21.2543669 C26.8899309,20.7858943 26.4146433,20.483654 25.8933601,20.483654 C25.6327185,20.483654 25.3260813,20.5743261 24.9734486,20.7556703 C24.6668114,20.9067905 24.1608601,21.2241429 23.8082274,21.6321674 C23.6242451,21.8437356 23.5169221,21.9797438 23.5169221,22.0855279 C23.5169221,22.145976 23.5935814,22.2366481 23.6702407,22.2215361 C23.7775637,22.2064241 24.2375194,21.9948558 24.390838,21.8890717 C24.4215017,21.8588476 24.4521654,21.8135116 24.4521654,21.7681755 C24.4521654,21.6623914 24.4521654,21.5414953 24.4674973,21.4810472 C24.498161,21.314815 24.5901521,21.2090309 24.6974752,21.1183587 C24.927453,20.9823506 25.0807716,20.9370145 25.3107495,20.9370145 C25.4947318,20.9370145 25.7553734,21.0276866 25.9546875,21.1788068 C26.2153291,21.3752631 26.3226521,21.7983996 26.3226521,22.4179923 C26.3226521,22.6295606 26.3226521,22.9318009 26.2919884,23.1131452 C26.2919884,23.1735932 26.2153291,23.3096014 26.0926742,23.3398254 C25.7707052,23.4607216 24.3755061,23.8687461 24.0075415,24.0652023 C23.8695548,24.1407624 23.4555946,24.4430028 23.4555946,24.9265874 C23.4555946,25.7124123 24.068869,26.2262209 24.6821433,26.2262209 C25.2647539,26.2262209 25.7247097,25.9693166 26.1846654,25.5461801 C26.1999973,25.5310681 26.2459928,25.5310681 26.2613247,25.5612921 C26.3993114,25.9088686 26.7366123,26.241333 27.1659043,26.241333 Z M25.3567451,25.6519643 C24.8814575,25.6519643 24.4368336,25.3043878 24.4368336,24.8056912 C24.4368336,24.3674427 24.6361477,24.1407624 24.82013,24.0500903 C25.142099,23.8838581 26.0313468,23.5665057 26.230661,23.5362817 C26.2613247,23.5211697 26.2919884,23.5967298 26.2919884,23.6118418 C26.2919884,24.1860985 26.2613247,24.7905792 26.2153291,25.0474835 C26.1999973,25.2137157 26.1080061,25.3497239 26.0466787,25.410172 C25.8780282,25.5612921 25.6173866,25.6519643 25.3567451,25.6519643 Z M30.9528733,26.1053248 C31.1521874,26.1053248 31.2595104,26.0599887 31.2595104,25.9995407 C31.2595104,25.9542046 31.1521874,25.9088686 31.0601963,25.8937565 C30.6309043,25.8181965 30.5389131,25.7124123 30.5235812,25.3043878 C30.510955,25.0679292 30.4983288,24.5444991 30.4942657,23.3036403 L30.4941242,20.2287174 C30.5027129,18.1158945 30.554245,15.9110091 30.554245,15.8140403 C30.554245,15.7384802 30.5389131,15.6478081 30.5082494,15.6478081 C30.446922,15.6478081 30.3702627,15.6780321 30.3242671,15.6931442 C29.9869662,15.8140403 29.6190016,15.9500485 29.1743777,16.0407206 C29.036391,16.0709446 28.9443999,16.1162807 28.9443999,16.1616167 C28.9443999,16.2069528 28.9903954,16.2371768 29.0977184,16.2976249 C29.4963468,16.5394172 29.5270105,16.6149773 29.5270105,16.9474417 C29.5423423,17.6123705 29.5270105,18.851556 29.5270105,20.0756295 C29.5116786,21.8890717 29.4503512,24.4430028 29.4196875,25.0021475 C29.35836,25.6670763 29.2663689,25.8030844 28.8830724,25.8786445 C28.6837583,25.9239806 28.607099,25.9390926 28.607099,26.0146527 C28.607099,26.0902128 28.6837583,26.1053248 28.8677406,26.1053248 C29.0977184,26.1053248 29.4963468,26.0751008 29.8949751,26.0751008 C30.1556167,26.0751008 30.7075635,26.1053248 30.9528733,26.1053248 Z" transform="translate(14.237 27.472)"/>
      <g stroke="#222F3C" stroke-linecap="round">
        <g stroke-linejoin="round" stroke-width=".5">
          <line x1="61.139" y1=".221"/>
          <line x2="61.139" y1=".221" transform="translate(0 16.598)"/>
          <line x2="61.139" y1=".221" transform="translate(0 16.598)"/>
        </g>
        <g stroke-width=".4" transform="translate(21.915 3.904)">
          <g transform="translate(2.279 2.724)">
            <path d="M.163066335 2.03737484L.997389949 3.01306867.0822596811 4.03840248M.080806654 4.06513294L.915130268 5.04082677 0 6.06616058M.245326016 0L1.07971748.975358429.164519362 2.00102764"/>
          </g>
          <path d="M.1608431 2.03737484L.995166714 3.01306867.0800364465 4.03840248M.080806654 4.06513294L.915130268 5.04082677 0 6.06616058M.243102782 0L1.0774264.975358429.162296128 2.00102764"/>
          <g transform="translate(5.545)">
            <g transform="translate(2.28 2.724)">
              <path d="M.1608431 2.03737484L.995166714 3.01306867.0800364465 4.03840248M.080806654 4.06513294L.915198115 5.04082677 0 6.06616058M.243034934 0L1.0774264.975358429.162296128 2.00102764"/>
            </g>
            <path d="M.163066335 2.03737484L.997389949 3.01306867.0822596811 4.03840248M.080806654 4.06513294L.915130268 5.04082677 0 6.06616058M.245326016 0L1.07971748.975358429.164519362 2.00102764"/>
          </g>
          <g transform="translate(11.09)">
            <g transform="translate(2.28 2.724)">
              <path d="M.163066335 2.03737484L.997457796 3.01306867.0822596811 4.03840248M.080806654 4.06513294L.915130268 5.04082677 0 6.06616058M.245326016 0L1.07964963.975358429.164519362 2.00102764"/>
            </g>
            <path d="M.163066335 2.03737484L.997389949 3.01306867.0822596811 4.03840248M.080806654 4.06513294L.915198115 5.04082677 0 6.06616058M.245326016 0L1.07964963.975358429.164519362 2.00102764"/>
          </g>
          <g transform="translate(16.634)">
            <path d="M.163066335 2.03737484L.997457796 3.01306867.0822596811 4.03840248M.080806654 4.06513294L.915130268 5.04082677 0 6.06616058M.245326016 0L1.07964963.975358429.164519362 2.00102764"/>
          </g>
        </g>
      </g>
    </g>
    <path fill="#333838" fill-rule="nonzero" d="M262.812038,83.0134694 C262.888493,83.0134694 262.934366,82.9225724 263.041402,82.6650307 C263.744786,80.9985844 264.983352,78.1353268 265.946681,76.0446942 C266.91001,73.8934636 267.185247,73.5753238 267.827467,73.4086792 C268.102704,73.3632307 268.179158,73.3026326 268.179158,73.2420346 C268.179158,73.1814365 268.102704,73.166287 267.903921,73.166287 C267.628685,73.166287 267.215829,73.2268851 266.787683,73.2268851 C266.328955,73.2268851 266.114881,73.166287 265.717317,73.166287 C265.503244,73.166287 265.457371,73.196586 265.457371,73.2571841 C265.457371,73.3177821 265.549117,73.3480812 265.793772,73.4238287 C266.298373,73.5753238 266.313664,73.8328655 266.237209,74.1661548 C265.916099,75.2872186 264.065895,79.5290818 263.33193,81.104631 C263.286057,81.1955281 263.255475,81.2106776 263.194312,81.104631 C262.67442,79.9684177 262.001618,78.5292141 261.619345,77.6353929 C261.588763,77.5596453 261.588763,77.4838978 261.604054,77.4535988 C261.864,76.9839639 262.613256,75.4841623 263.01082,74.7266867 C263.515421,73.848015 263.805949,73.5298753 264.371714,73.4086792 C264.585787,73.3632307 264.662242,73.3177821 264.662242,73.2420346 C264.662242,73.1814365 264.585787,73.166287 264.402296,73.166287 C264.050604,73.166287 263.805949,73.2268851 263.270766,73.2268851 C262.873202,73.2268851 262.628547,73.1814365 262.246273,73.1814365 C262.062782,73.1814365 261.971036,73.2117356 261.971036,73.2571841 C261.971036,73.3177821 262.016909,73.3783802 262.292146,73.4389782 C262.949657,73.5904733 262.964948,73.7419685 262.490928,74.8478828 C262.169819,75.5902088 261.848709,76.2870864 261.481726,77.0294124 C261.435853,77.10516 261.37469,77.0900105 261.359399,77.0597115 C260.854798,75.9083486 260.396069,74.8781818 260.151414,74.2419023 C259.92205,73.6813704 260.07496,73.4995763 260.487815,73.4238287 C260.686597,73.3783802 260.778343,73.3329316 260.778343,73.2571841 C260.778343,73.196586 260.671306,73.166287 260.518397,73.166287 C260.166705,73.166287 259.815014,73.2268851 259.26454,73.2268851 C258.714066,73.2268851 258.423538,73.166287 257.980101,73.166287 C257.781319,73.166287 257.689573,73.2117356 257.689573,73.2571841 C257.689573,73.3329316 257.766028,73.3935297 258.010683,73.4389782 C258.484702,73.5601743 258.607029,73.7419685 259.050467,74.6812382 C259.386867,75.4084147 260.41136,77.7111404 260.656015,78.2868219 C260.656015,78.3171209 260.656015,78.4231675 260.625434,78.468616 C260.212578,79.4381848 259.845596,80.1956603 259.417449,81.0591825 C259.371576,81.13493 259.310413,81.1652291 259.26454,81.0591825 C258.224756,78.7867558 256.710953,75.5599098 256.068733,73.9843606 C255.961697,73.7116694 255.961697,73.5298753 256.389843,73.4541277 C256.573334,73.4238287 256.66508,73.3783802 256.66508,73.3026326 C256.66508,73.2420346 256.573334,73.196586 256.359261,73.196586 C256.038151,73.196586 255.671169,73.2268851 255.334768,73.2268851 C254.87604,73.2268851 254.249111,73.166287 253.882129,73.166287 C253.683346,73.166287 253.57631,73.2268851 253.57631,73.2723336 C253.57631,73.3329316 253.713928,73.3935297 253.89742,73.4086792 C254.478475,73.4844268 254.600803,73.757118 255.151277,74.9387799 C255.869951,76.423432 256.894444,78.6655597 257.735446,80.5895476 C257.934228,81.044033 258.408247,82.1499473 258.607029,82.6498812 C258.714066,82.9225724 258.744648,83.0134694 258.836393,83.0134694 C258.897557,83.0134694 258.989303,82.8922734 259.081049,82.6498812 C259.417449,81.7712095 260.227869,79.9987167 260.808925,78.8776528 C260.839507,78.8322043 260.88538,78.8322043 260.915961,78.8928023 C261.359399,79.8623711 262.230982,81.7409105 262.552092,82.6650307 C262.643838,82.9074229 262.705002,83.0134694 262.812038,83.0134694 Z M270.105817,82.8922734 C270.595127,82.8922734 271.069146,82.6650307 271.283219,82.2408444 C271.344383,82.1044988 271.283219,82.0590502 271.191474,82.1044988 C271.023273,82.1953958 270.870364,82.2408444 270.748037,82.2408444 C270.31989,82.2408444 270.182272,81.9530036 270.182272,81.6651629 C270.182272,81.2712756 270.228145,79.832072 270.228145,79.2715401 C270.228145,78.8019053 270.166981,78.1807753 270.014071,77.8929346 C269.83058,77.4232997 269.356561,77.1203095 268.836669,77.1203095 C268.576723,77.1203095 268.270904,77.2112066 267.919212,77.3930007 C267.613394,77.5444958 267.108793,77.8626356 266.757101,78.2716724 C266.57361,78.4837655 266.466573,78.6201111 266.466573,78.7261577 C266.466573,78.7867558 266.543028,78.8776528 266.619482,78.8625033 C266.726519,78.8473538 267.185247,78.6352606 267.338157,78.5292141 C267.368739,78.498915 267.39932,78.4534665 267.39932,78.408018 C267.39932,78.3019714 267.39932,78.1807753 267.414611,78.1201773 C267.445193,77.9535326 267.536939,77.847486 267.643975,77.756589 C267.87334,77.6202434 268.026249,77.5747948 268.255613,77.5747948 C268.439104,77.5747948 268.69905,77.6656919 268.897833,77.817187 C269.157779,78.0141307 269.264815,78.438317 269.264815,79.059447 C269.264815,79.2715401 269.264815,79.5745304 269.234233,79.7563245 C269.234233,79.8169225 269.157779,79.9532681 269.035451,79.9835672 C268.714341,80.1047633 267.322866,80.5138001 266.955883,80.7107437 C266.818265,80.7864913 266.405409,81.0894815 266.405409,81.5742659 C266.405409,82.3620405 267.017047,82.8771238 267.628685,82.8771238 C268.20974,82.8771238 268.668469,82.6195822 269.127197,82.1953958 C269.142488,82.1802463 269.188361,82.1802463 269.203651,82.2105453 C269.34127,82.5589841 269.677671,82.8922734 270.105817,82.8922734 Z M268.301486,82.3014424 C267.827467,82.3014424 267.384029,81.9530036 267.384029,81.4530698 C267.384029,81.0137339 267.582812,80.7864913 267.766303,80.6955942 C268.087413,80.5289496 268.974287,80.2108098 269.17307,80.1805108 C269.203651,80.1653613 269.234233,80.2411089 269.234233,80.2562584 C269.234233,80.8319398 269.203651,81.4379203 269.157779,81.695462 C269.142488,81.8621066 269.050742,81.9984522 268.989578,82.0590502 C268.821378,82.2105453 268.561432,82.3014424 268.301486,82.3014424 Z M273.699188,82.8619743 C274.127334,82.8619743 274.601354,82.7256287 274.937754,82.468087 C275.136537,82.3165919 275.274155,82.1650968 275.274155,82.0741997 C275.274155,82.0136017 275.228282,81.9984522 275.121246,82.0741997 C274.983627,82.1650968 274.70839,82.3014424 274.280244,82.3014424 C273.882679,82.3014424 273.56157,82.1802463 273.332206,81.8924056 C273.225169,81.7409105 273.194587,81.5591164 273.164005,81.074332 C273.148714,80.6046971 273.133423,78.2262238 273.133423,77.9686821 C273.133423,77.8777851 273.164005,77.8323365 273.347496,77.8323365 C273.760352,77.8323365 274.509608,77.847486 275.044791,77.847486 C275.121246,77.847486 275.1977,77.72629 275.1977,77.4687483 C275.1977,77.3627017 275.136537,77.2566551 275.105955,77.2566551 C274.784845,77.2566551 273.515697,77.3021036 273.24046,77.3021036 C273.179296,77.3021036 273.164005,77.2112066 273.164005,77.165758 C273.148714,76.9839639 273.179296,76.5597776 273.179296,76.423432 C273.179296,76.3476844 273.07226,76.3173854 272.934641,76.4688805 C272.567658,76.9385154 272.063057,77.3475522 271.680784,77.4838978 C271.512584,77.5596453 271.497293,77.6050939 271.497293,77.6353929 C271.497293,77.6959909 271.573747,77.7414395 271.696075,77.7717385 C271.833693,77.8020375 272.001894,77.8323365 272.063057,77.8626356 C272.124221,77.8929346 272.139512,77.9989812 272.139512,78.1656258 L272.139512,81.3015747 C272.139512,81.6651629 272.200676,81.9681532 272.323003,82.1650968 C272.582949,82.6498812 273.056969,82.8619743 273.699188,82.8619743 Z M278.179434,82.8922734 C279.051017,82.8922734 279.693237,82.5892831 280.304875,81.9378541 C280.39662,81.8318076 280.457784,81.7409105 280.457784,81.695462 C280.457784,81.6197144 280.39662,81.5894154 280.274293,81.7106115 C279.90731,82.0590502 279.448582,82.1953958 278.821653,82.1953958 C278.317052,82.1953958 277.705415,82.0287512 277.292559,81.5742659 C276.894995,81.13493 276.589176,80.5138001 276.589176,79.741175 C276.589176,79.3169887 276.635049,79.089746 276.711503,78.9079519 C276.742085,78.8625033 276.81854,78.7867558 276.849122,78.7867558 L277.674833,78.7867558 C278.026524,78.7867558 280.014347,78.8170548 280.136674,78.8322043 C280.213129,78.8322043 280.289584,78.7413072 280.289584,78.6655597 C280.289584,77.7414395 279.326254,77.1203095 278.424089,77.1203095 C277.62896,77.1203095 276.925577,77.4838978 276.512721,77.8777851 C275.870502,78.498915 275.625847,79.3927362 275.625847,80.0896137 C275.625847,80.9076874 275.901084,81.6348639 276.359812,82.1196483 C276.81854,82.6044326 277.46076,82.8922734 278.179434,82.8922734 Z M276.910286,78.5746626 C276.879704,78.5746626 276.849122,78.5443636 276.849122,78.5140646 C276.849122,78.3928685 276.98674,78.1050277 277.170232,77.8929346 C277.506632,77.5444958 277.888906,77.3324027 278.28647,77.3324027 C278.638162,77.3324027 278.898108,77.4687483 279.051017,77.6202434 C279.219218,77.8020375 279.265091,78.0747287 279.265091,78.2565229 C279.265091,78.3928685 279.234509,78.5595131 278.898108,78.5595131 L276.910286,78.5746626 Z M281.145876,82.8165258 C281.35995,82.8165258 281.52815,82.7256287 282.078624,82.7256287 C282.720843,82.7256287 283.225444,82.7862268 283.515972,82.7862268 C283.745336,82.7862268 283.882955,82.7559278 283.882955,82.6801802 C283.882955,82.6044326 283.8065,82.5741336 283.592427,82.5438346 C283.011371,82.4832365 282.82788,82.37719 282.766716,81.9075551 C282.736134,81.5894154 282.705552,80.8016408 282.705552,79.6805769 C282.705552,79.3775867 282.690261,78.9382509 282.720843,78.7564567 C282.736134,78.5746626 282.812589,78.408018 282.980789,78.2262238 C283.179572,78.0444297 283.424227,77.9232336 283.653591,77.9232336 C283.821791,77.9232336 284.020573,77.9989812 284.188774,78.1050277 C284.356974,78.1959248 284.433429,78.2110743 284.464011,78.2110743 C284.509883,78.2110743 284.571047,78.1959248 284.708666,78.0747287 C284.892157,77.9080841 285.045066,77.6656919 285.045066,77.5596453 C285.045066,77.4838978 285.014484,77.4081502 284.93803,77.3475522 C284.78512,77.2263561 284.586338,77.1506085 284.402847,77.1506085 C283.791209,77.1506085 283.179572,77.7111404 282.751425,78.2413733 C282.705552,78.2868219 282.67497,78.2716724 282.67497,78.2262238 C282.67497,77.9838317 282.690261,77.4081502 282.690261,77.2415056 C282.690261,77.0900105 282.65968,77.0294124 282.629098,77.0294124 C282.583225,77.0294124 282.50677,77.0445619 282.399734,77.10516 C282.155078,77.2415056 281.726932,77.3930007 281.421113,77.4687483 C281.283495,77.5141968 281.191749,77.5747948 281.191749,77.6050939 C281.191749,77.6353929 281.20704,77.6808414 281.314077,77.756589 C281.604605,77.9989812 281.711641,78.0444297 281.711641,78.1504763 L281.711641,79.832072 C281.711641,80.8319398 281.69635,81.695462 281.665768,81.9530036 C281.604605,82.3620405 281.436404,82.4983861 281.115294,82.5741336 C280.992967,82.6044326 280.88593,82.6801802 280.88593,82.7256287 C280.88593,82.7862268 280.962385,82.8165258 281.145876,82.8165258 Z M259.310413,97.9660372 C259.509195,97.9660372 259.616231,97.9508877 259.616231,97.8599907 C259.616231,97.7842431 259.539777,97.7539441 259.356285,97.7084955 C258.836393,97.5570004 258.683484,97.4509538 258.62232,96.9358705 C258.576447,96.4662356 258.515284,94.5876962 258.530575,93.7393235 L258.531623,93.428104 C258.536993,92.3552941 258.561157,89.5109266 258.561157,89.012676 C258.561157,88.9066294 258.576447,88.7854333 258.652902,88.7702838 C258.836393,88.7475595 259.312324,88.7418785 259.738798,88.7404582 L260.136123,88.7399848 C261.206489,88.7399848 261.405272,88.8005828 261.54289,88.9217789 C261.665218,89.042975 261.787545,89.3611147 261.818127,89.6338059 C261.833418,89.7095535 261.879291,89.8458991 261.940455,89.8458991 C261.986327,89.8458991 262.062782,89.7398525 262.062782,89.5126099 C262.047491,88.9975265 262.047491,88.5430411 262.108655,88.361247 C262.123946,88.2400509 262.108655,88.2097519 262.093364,88.1643033 C262.078073,88.1340043 262.0322,88.1491538 261.971036,88.1946024 C261.71109,88.330948 261.435853,88.361247 260.717179,88.361247 L258.087137,88.3763965 C256.51217,88.3763965 254.998367,88.330948 254.753712,88.3157985 C254.539639,88.3006489 254.325566,88.2400509 254.264402,88.1643033 C254.218529,88.1188548 254.172656,88.0885558 254.142075,88.1037053 C254.06562,88.1340043 254.06562,88.2097519 254.050329,88.330948 C254.050329,88.7248353 253.928001,89.1793206 253.851547,89.6338059 C253.836256,89.7398525 253.836256,89.8610486 253.89742,89.8610486 C253.958583,89.8610486 254.035038,89.7853011 254.111493,89.6035069 C254.325566,89.012676 254.524348,88.8308818 254.814876,88.7702838 C255.120695,88.7399848 255.487677,88.7096857 256.114606,88.7096857 C256.817989,88.7096857 257.169681,88.7399848 257.261427,88.7551343 C257.307299,88.7551343 257.353172,88.8005828 257.368463,88.9369284 C257.399045,89.1490216 257.399045,95.1785271 257.292008,96.6480297 C257.246136,97.3449073 257.15439,97.5872995 256.420425,97.693346 C256.252224,97.7236451 256.114606,97.7690936 256.114606,97.8296916 C256.114606,97.9054392 256.191061,97.9660372 256.389843,97.9660372 C256.634498,97.9660372 257.093226,97.8751402 257.873064,97.8751402 C258.484702,97.8751402 258.958721,97.9660372 259.310413,97.9660372 Z M261.05358,97.9660372 C261.267653,97.9660372 261.435853,97.8751402 261.986327,97.8751402 C262.628547,97.8751402 263.133148,97.9357382 263.423676,97.9357382 C263.65304,97.9357382 263.790658,97.9054392 263.790658,97.8296916 C263.790658,97.7539441 263.714204,97.7236451 263.50013,97.693346 C262.919075,97.632748 262.735583,97.5267014 262.67442,97.0570666 C262.643838,96.7389268 262.613256,95.9511522 262.613256,94.8300884 C262.613256,94.5270981 262.597965,94.0877623 262.628547,93.9059682 C262.643838,93.724174 262.720292,93.5575294 262.888493,93.3757353 C263.087275,93.1939411 263.33193,93.072745 263.561294,93.072745 C263.729495,93.072745 263.928277,93.1484926 264.096477,93.2545392 C264.264678,93.3454362 264.341132,93.3605858 264.371714,93.3605858 C264.417587,93.3605858 264.478751,93.3454362 264.616369,93.2242402 C264.79986,93.0575955 264.95277,92.8152033 264.95277,92.7091568 C264.95277,92.6334092 264.922188,92.5576617 264.845733,92.4970636 C264.692824,92.3758675 264.494042,92.30012 264.31055,92.30012 C263.698913,92.30012 263.087275,92.8606519 262.659129,93.3908848 C262.613256,93.4363333 262.582674,93.4211838 262.582674,93.3757353 C262.582674,93.1333431 262.597965,92.5576617 262.597965,92.391017 C262.597965,92.2395219 262.567383,92.1789239 262.536801,92.1789239 C262.490928,92.1789239 262.414474,92.1940734 262.307437,92.2546714 C262.062782,92.391017 261.634636,92.5425121 261.328817,92.6182597 C261.191198,92.6637082 261.099453,92.7243063 261.099453,92.7546053 C261.099453,92.7849043 261.114744,92.8303529 261.22178,92.9061004 C261.512308,93.1484926 261.619345,93.1939411 261.619345,93.2999877 L261.618071,95.467981 C261.613823,96.2524592 261.598957,96.887897 261.573472,97.1025151 C261.512308,97.5115519 261.344108,97.6478975 261.022998,97.7236451 C260.900671,97.7539441 260.793634,97.8296916 260.793634,97.8751402 C260.793634,97.9357382 260.870089,97.9660372 261.05358,97.9660372 Z M267.812176,98.0417848 C268.683759,98.0417848 269.325979,97.7387946 269.937617,97.0873656 C270.029362,96.981319 270.090526,96.8904219 270.090526,96.8449734 C270.090526,96.7692258 270.029362,96.7389268 269.907035,96.8601229 C269.540052,97.2085617 269.081324,97.3449073 268.454395,97.3449073 C267.949794,97.3449073 267.338157,97.1782626 266.925301,96.7237773 C266.527737,96.2844415 266.221918,95.6633115 266.221918,94.8906864 C266.221918,94.4665001 266.267791,94.2392574 266.344246,94.0574633 C266.374827,94.0120148 266.451282,93.9362672 266.481864,93.9362672 L267.307575,93.9362672 C267.659266,93.9362672 269.647089,93.9665662 269.769416,93.9817157 C269.845871,93.9817157 269.922326,93.8908187 269.922326,93.8150711 C269.922326,92.8909509 268.958996,92.2698209 268.056831,92.2698209 C267.261702,92.2698209 266.558319,92.6334092 266.145463,93.0272965 C265.503244,93.6484265 265.258589,94.5422477 265.258589,95.2391252 C265.258589,96.0571988 265.533826,96.7843753 265.992554,97.2691597 C266.451282,97.7539441 267.093502,98.0417848 267.812176,98.0417848 Z M266.543028,93.724174 C266.512446,93.724174 266.481864,93.693875 266.481864,93.663576 C266.481864,93.5423799 266.619482,93.2545392 266.802974,93.042446 C267.139374,92.6940073 267.521648,92.4819141 267.919212,92.4819141 C268.270904,92.4819141 268.53085,92.6182597 268.683759,92.7697548 C268.85196,92.951549 268.897833,93.2242402 268.897833,93.4060343 C268.897833,93.5423799 268.867251,93.7090245 268.53085,93.7090245 L266.543028,93.724174 Z M274.524899,98.0417848 C275.014209,98.0417848 275.488228,97.8145421 275.702301,97.3903558 C275.763465,97.2540102 275.702301,97.2085617 275.610556,97.2540102 C275.442355,97.3449073 275.289446,97.3903558 275.167118,97.3903558 C274.738972,97.3903558 274.601354,97.1025151 274.601354,96.8146744 C274.601354,96.4207871 274.647226,94.9815835 274.647226,94.4210516 C274.647226,93.9514167 274.586063,93.3302867 274.433153,93.042446 C274.249662,92.5728112 273.775643,92.2698209 273.255751,92.2698209 C272.995805,92.2698209 272.689986,92.360718 272.338294,92.5425121 C272.032476,92.6940073 271.527874,93.012147 271.176183,93.4211838 C270.992692,93.633277 270.885655,93.7696226 270.885655,93.8756691 C270.885655,93.9362672 270.96211,94.0271643 271.038564,94.0120148 C271.145601,93.9968652 271.604329,93.7847721 271.757239,93.6787255 C271.78782,93.6484265 271.818402,93.6029779 271.818402,93.5575294 C271.818402,93.4514828 271.818402,93.3302867 271.833693,93.2696887 C271.864275,93.1030441 271.956021,92.9969975 272.063057,92.9061004 C272.292422,92.7697548 272.445331,92.7243063 272.674695,92.7243063 C272.858186,92.7243063 273.118132,92.8152033 273.316915,92.9666985 C273.576861,93.1636421 273.683897,93.5878284 273.683897,94.2089584 C273.683897,94.4210516 273.683897,94.7240418 273.653315,94.9058359 C273.653315,94.966434 273.576861,95.1027796 273.454533,95.1330786 C273.133423,95.2542747 271.741948,95.6633115 271.374965,95.8602551 C271.237347,95.9360027 270.824491,96.2389929 270.824491,96.7237773 C270.824491,97.5115519 271.436129,98.0266353 272.047766,98.0266353 C272.628822,98.0266353 273.08755,97.7690936 273.546279,97.3449073 C273.56157,97.3297578 273.607442,97.3297578 273.622733,97.3600568 C273.760352,97.7084955 274.096753,98.0417848 274.524899,98.0417848 Z M272.720568,97.4509538 C272.246549,97.4509538 271.803111,97.1025151 271.803111,96.6025812 C271.803111,96.1632454 272.001894,95.9360027 272.185385,95.8451056 C272.506495,95.678461 273.393369,95.3603213 273.592152,95.3300222 C273.622733,95.3148727 273.653315,95.3906203 273.653315,95.4057698 C273.653315,95.9814512 273.622733,96.5874317 273.576861,96.8449734 C273.56157,97.011618 273.469824,97.1479636 273.40866,97.2085617 C273.24046,97.3600568 272.980514,97.4509538 272.720568,97.4509538 Z M278.11827,98.0114858 C278.546416,98.0114858 279.020436,97.8751402 279.356836,97.6175985 C279.555619,97.4661034 279.693237,97.3146082 279.693237,97.2237112 C279.693237,97.1631131 279.647364,97.1479636 279.540328,97.2237112 C279.402709,97.3146082 279.127472,97.4509538 278.699326,97.4509538 C278.301761,97.4509538 277.980652,97.3297578 277.751287,97.041917 C277.644251,96.8904219 277.613669,96.7086278 277.583087,96.2238434 C277.567796,95.7542086 277.552505,93.3757353 277.552505,93.1181936 C277.552505,93.0272965 277.583087,92.981848 277.766578,92.981848 C278.179434,92.981848 278.92869,92.9969975 279.463873,92.9969975 C279.540328,92.9969975 279.616782,92.8758014 279.616782,92.6182597 C279.616782,92.5122131 279.555619,92.4061665 279.525037,92.4061665 C279.203927,92.4061665 277.934779,92.4516151 277.659542,92.4516151 C277.598378,92.4516151 277.583087,92.360718 277.583087,92.3152695 C277.567796,92.1334753 277.598378,91.709289 277.598378,91.5729434 C277.598378,91.4971959 277.491341,91.4668968 277.353723,91.6183919 C276.98674,92.0880268 276.482139,92.4970636 276.099866,92.6334092 C275.931665,92.7091568 275.916375,92.7546053 275.916375,92.7849043 C275.916375,92.8455024 275.992829,92.8909509 276.115157,92.9212499 C276.252775,92.951549 276.420976,92.981848 276.482139,93.012147 C276.543303,93.042446 276.558594,93.1484926 276.558594,93.3151372 L276.558594,96.4510861 C276.558594,96.8146744 276.619758,97.1176646 276.742085,97.3146082 C277.002031,97.7993926 277.476051,98.0114858 278.11827,98.0114858 Z M287.843309,97.9205887 C288.072673,97.9205887 288.409073,97.8751402 288.776056,97.8751402 C289.127748,97.8751402 289.66293,97.9054392 289.831131,97.9054392 C290.014622,97.9054392 290.091077,97.8751402 290.091077,97.7993926 C290.091077,97.7539441 290.029913,97.7084955 289.81584,97.663047 C289.479439,97.602449 289.387694,97.4964024 289.372403,96.9964685 L289.311239,94.8149389 C289.311239,94.2544069 289.234784,93.6787255 289.127748,93.3757353 C288.928965,92.7849043 288.424364,92.2698209 287.583363,92.2698209 C286.818815,92.2698209 286.115432,92.6788577 285.488504,93.2848382 C285.457922,93.2999877 285.396758,93.2848382 285.381467,93.2545392 C285.045066,92.6031102 284.555756,92.2849704 283.852373,92.2849704 C283.194862,92.2849704 282.460897,92.7243063 281.956296,93.1787916 C281.895132,93.2242402 281.879842,93.1333431 281.879842,93.0878946 C281.864551,92.9212499 281.879842,92.5273626 281.879842,92.360718 C281.879842,92.2698209 281.84926,92.2092229 281.803387,92.2092229 C281.742223,92.2092229 281.665768,92.2395219 281.574023,92.30012 C281.329368,92.4970636 280.855348,92.6788577 280.534239,92.7546053 C280.411911,92.7849043 280.350747,92.8152033 280.350747,92.8606519 L280.366038,92.8606519 C280.366038,92.9363994 280.39662,92.9666985 280.503657,93.0272965 C280.748312,93.1636421 280.840058,93.2999877 280.855348,93.5575294 C280.88593,93.8453701 280.870639,94.2241079 280.870639,94.7846398 L280.869684,95.4893288 C280.866817,96.220056 280.855348,96.9699569 280.809476,97.2085617 C280.778894,97.3903558 280.778894,97.5570004 280.304875,97.663047 C280.090801,97.693346 279.999056,97.7387946 279.999056,97.7993926 C279.999056,97.8599907 280.136674,97.9054392 280.274293,97.9054392 C280.473075,97.9054392 280.794185,97.8751402 281.268204,97.8751402 C281.635186,97.8751402 282.139788,97.9054392 282.430315,97.9054392 C282.537352,97.9054392 282.65968,97.8751402 282.65968,97.7993926 C282.65968,97.7539441 282.598516,97.7084955 282.430315,97.6781965 C282.063333,97.602449 281.971587,97.4206548 281.941005,97.1782626 C281.910423,96.9055714 281.84926,95.8451056 281.84926,94.7240418 C281.84926,94.2089584 281.895132,93.8605196 281.910423,93.693875 C281.925714,93.5878284 281.956296,93.4363333 282.093915,93.3151372 C282.323279,93.1030441 282.705552,92.8455024 283.240735,92.8455024 C283.714754,92.8455024 283.95941,92.981848 284.173483,93.1939411 C284.479301,93.5272304 284.555756,93.8756691 284.555756,94.7088923 L284.540465,97.1631131 C284.540465,97.5267014 284.387556,97.602449 284.066446,97.663047 C283.867664,97.7084955 283.791209,97.7690936 283.791209,97.8145421 C283.791209,97.8751402 283.867664,97.9054392 284.035864,97.9054392 C284.204065,97.9054392 284.571047,97.8751402 284.907448,97.8751402 C285.350885,97.8751402 285.809613,97.9054392 286.08485,97.9054392 C286.253051,97.9054392 286.344796,97.8751402 286.344796,97.8145421 C286.344796,97.7539441 286.268342,97.7387946 286.100141,97.6781965 C285.717868,97.5872995 285.671995,97.4812529 285.626122,97.0570666 C285.59554,96.6480297 285.549667,94.3301545 285.519085,93.9059682 C285.519085,93.633277 285.564958,93.4666323 285.626122,93.4060343 C285.886068,93.1484926 286.360087,92.8455024 286.925852,92.8455024 C287.675108,92.8455024 288.072673,93.2242402 288.210291,93.9968652 C288.271455,94.4513506 288.34791,95.1785271 288.317328,96.9964685 C288.317328,97.4509538 288.240873,97.5872995 287.797436,97.6781965 C287.675108,97.7084955 287.53749,97.7539441 287.53749,97.8296916 C287.53749,97.8902897 287.644526,97.9205887 287.843309,97.9205887 Z M293.378629,98.0417848 C294.250213,98.0417848 294.892432,97.7387946 295.50407,97.0873656 C295.595816,96.981319 295.656979,96.8904219 295.656979,96.8449734 C295.656979,96.7692258 295.595816,96.7389268 295.473488,96.8601229 C295.106505,97.2085617 294.647777,97.3449073 294.020849,97.3449073 C293.516248,97.3449073 292.90461,97.1782626 292.491755,96.7237773 C292.09419,96.2844415 291.788371,95.6633115 291.788371,94.8906864 C291.788371,94.4665001 291.834244,94.2392574 291.910699,94.0574633 C291.941281,94.0120148 292.017735,93.9362672 292.048317,93.9362672 L292.874028,93.9362672 C293.22572,93.9362672 295.213542,93.9665662 295.33587,93.9817157 C295.412324,93.9817157 295.488779,93.8908187 295.488779,93.8150711 C295.488779,92.8909509 294.52545,92.2698209 293.623284,92.2698209 C292.828155,92.2698209 292.124772,92.6334092 291.711917,93.0272965 C291.069697,93.6484265 290.825042,94.5422477 290.825042,95.2391252 C290.825042,96.0571988 291.100279,96.7843753 291.559007,97.2691597 C292.017735,97.7539441 292.659955,98.0417848 293.378629,98.0417848 Z M292.109481,93.724174 C292.078899,93.724174 292.048317,93.693875 292.048317,93.663576 C292.048317,93.5423799 292.185936,93.2545392 292.369427,93.042446 C292.705828,92.6940073 293.088101,92.4819141 293.485666,92.4819141 C293.837357,92.4819141 294.097303,92.6182597 294.250213,92.7697548 C294.418413,92.951549 294.464286,93.2242402 294.464286,93.4060343 C294.464286,93.5423799 294.433704,93.7090245 294.097303,93.7090245 L292.109481,93.724174 Z M302.079175,97.9357382 C302.232084,97.9357382 302.354411,97.9205887 302.354411,97.8296916 C302.354411,97.7690936 302.262666,97.7387946 302.125047,97.6781965 C301.712192,97.5721499 301.666319,97.4812529 301.651028,96.4510861 C301.651028,95.6936105 301.635737,95.5724144 301.635737,94.7694903 C301.620446,93.9059682 301.498119,93.1484926 301.146427,92.7849043 C300.947645,92.5728112 300.580662,92.2698209 299.953734,92.2698209 C299.693788,92.2698209 299.372678,92.30012 299.051568,92.4516151 C298.715168,92.5879607 298.348185,92.8455024 297.965911,93.1333431 C297.93533,93.1636421 297.889457,93.1181936 297.889457,93.0878946 C297.874166,92.8758014 297.904748,92.4667646 297.920039,92.2849704 C297.93533,92.2092229 297.858875,92.1486248 297.813002,92.1637744 C297.553056,92.330419 296.941418,92.5879607 296.605018,92.6788577 C296.467399,92.7243063 296.390945,92.7697548 296.390945,92.8000538 C296.390945,92.8455024 296.421526,92.8758014 296.513272,92.9363994 C296.880255,93.1333431 296.910837,93.2999877 296.910837,93.4514828 L296.909704,94.7167476 C296.907439,95.5740977 296.900643,96.4359366 296.880255,97.1631131 C296.864964,97.4661034 296.8038,97.5721499 296.421526,97.6478975 C296.238035,97.6781965 296.100417,97.7387946 296.100417,97.7993926 C296.100417,97.8751402 296.222744,97.9054392 296.390945,97.9054392 C296.681472,97.9054392 297.002582,97.8751402 297.201364,97.8751402 C297.553056,97.8751402 298.302312,97.9357382 298.42464,97.9357382 C298.577549,97.9357382 298.730458,97.9357382 298.730458,97.8448411 C298.730458,97.7690936 298.654004,97.7387946 298.470512,97.693346 C298.225857,97.6175985 298.042366,97.5418509 297.996493,97.2085617 C297.965911,96.9964685 297.920039,96.6025812 297.904748,95.617863 L297.903415,95.1383143 C297.899693,94.4474693 297.889457,93.9032137 297.889457,93.7544731 C297.889457,93.633277 297.965911,93.4060343 298.072948,93.2999877 C298.470512,92.9666985 298.868077,92.8152033 299.265641,92.8152033 C299.617333,92.8152033 299.907861,92.9212499 300.137225,93.1030441 C300.519499,93.3908848 300.626535,93.7544731 300.626535,94.9815835 L300.626535,97.041917 C300.626535,97.4812529 300.565371,97.5872995 300.198389,97.6781965 C299.999607,97.7236451 299.907861,97.7842431 299.907861,97.8448411 C299.907861,97.9054392 300.014898,97.9357382 300.152516,97.9357382 C300.38188,97.9357382 300.580662,97.8751402 301.100554,97.8751402 C301.436955,97.8751402 301.880392,97.9357382 302.079175,97.9357382 Z M305.122072,98.0114858 C305.550218,98.0114858 306.024237,97.8751402 306.360638,97.6175985 C306.55942,97.4661034 306.697039,97.3146082 306.697039,97.2237112 C306.697039,97.1631131 306.651166,97.1479636 306.544129,97.2237112 C306.406511,97.3146082 306.131274,97.4509538 305.703128,97.4509538 C305.305563,97.4509538 304.984453,97.3297578 304.755089,97.041917 C304.648053,96.8904219 304.617471,96.7086278 304.586889,96.2238434 C304.571598,95.7542086 304.556307,93.3757353 304.556307,93.1181936 C304.556307,93.0272965 304.586889,92.981848 304.77038,92.981848 C305.183236,92.981848 305.932492,92.9969975 306.467675,92.9969975 C306.544129,92.9969975 306.620584,92.8758014 306.620584,92.6182597 C306.620584,92.5122131 306.55942,92.4061665 306.528838,92.4061665 C306.207729,92.4061665 304.938581,92.4516151 304.663344,92.4516151 C304.60218,92.4516151 304.586889,92.360718 304.586889,92.3152695 C304.571598,92.1334753 304.60218,91.709289 304.60218,91.5729434 C304.60218,91.4971959 304.495143,91.4668968 304.357525,91.6183919 C303.990542,92.0880268 303.485941,92.4970636 303.103668,92.6334092 C302.935467,92.7091568 302.920176,92.7546053 302.920176,92.7849043 C302.920176,92.8455024 302.996631,92.8909509 303.118959,92.9212499 C303.256577,92.951549 303.424777,92.981848 303.485941,93.012147 C303.547105,93.042446 303.562396,93.1484926 303.562396,93.3151372 L303.562396,96.4510861 C303.562396,96.8146744 303.62356,97.1176646 303.745887,97.3146082 C304.005833,97.7993926 304.479852,98.0114858 305.122072,98.0114858 Z M257.230845,113.115549 C257.383754,113.115549 257.551954,113.100399 257.551954,113.009502 C257.551954,112.948904 257.460209,112.903456 257.337881,112.873156 C256.634498,112.706512 256.542752,112.615615 256.527461,112.039933 C256.49688,111.358205 256.466298,108.994882 256.481589,108.72219 C256.481589,108.646443 256.603916,108.525247 256.634498,108.525247 L257.200146,108.526058 C258.837122,108.531155 259.058476,108.559874 259.279831,108.600994 C259.463322,108.646443 259.616231,108.797938 259.738559,109.131227 C259.830305,109.34332 259.891468,109.464516 259.952632,109.464516 C260.029087,109.464516 260.059669,109.403918 260.059669,109.206975 C260.044378,109.010031 259.998505,108.797938 259.998505,108.479798 C259.998505,108.161658 260.059669,107.707173 260.07496,107.540528 C260.090251,107.389033 260.059669,107.313286 259.998505,107.313286 C259.952632,107.313286 259.906759,107.373884 259.830305,107.525379 C259.600941,108.040462 259.386867,108.085911 259.172794,108.11621 C258.928139,108.146509 258.194174,108.161658 256.634498,108.161658 C256.603916,108.161658 256.49688,108.10106 256.49688,107.979864 C256.466298,106.23767 256.49688,104.495477 256.51217,104.07129 C256.51217,103.995543 256.619207,103.798599 256.726244,103.798599 L257.8187,103.799923 C258.506417,103.802902 258.925787,103.812583 259.26454,103.844048 C259.815014,103.889496 260.151414,104.116739 260.41136,104.70757 C260.487815,104.904513 260.533688,105.01056 260.594852,105.01056 C260.671306,105.01056 260.701888,104.874214 260.671306,104.722719 C260.640725,104.540925 260.594852,103.874347 260.56427,103.662254 C260.56427,103.556207 260.457233,103.480459 260.136123,103.480459 C259.555068,103.480459 257.934228,103.525908 256.328679,103.525908 C255.655878,103.525908 254.814876,103.46531 254.631385,103.46531 C254.493766,103.46531 254.402021,103.495609 254.402021,103.556207 C254.402021,103.631955 254.509057,103.677403 254.646676,103.707702 C255.19715,103.844048 255.243022,103.980393 255.273604,104.525776 C255.319477,105.449896 255.319477,106.374016 255.319477,107.979864 C255.319477,109.646311 255.319477,111.52485 255.273604,112.024784 C255.243022,112.585316 255.166568,112.706512 254.585512,112.827708 C254.38673,112.873156 254.310275,112.918605 254.310275,112.979203 C254.310275,113.054951 254.417312,113.08525 254.55493,113.08525 C254.769003,113.08525 255.151277,113.024652 255.732332,113.024652 C256.359261,113.024652 257.016772,113.115549 257.230845,113.115549 Z M264.539914,113.191296 C265.029225,113.191296 265.503244,112.964054 265.717317,112.539867 C265.778481,112.403522 265.717317,112.358073 265.625571,112.403522 C265.457371,112.494419 265.304462,112.539867 265.182134,112.539867 C264.753988,112.539867 264.616369,112.252027 264.616369,111.964186 C264.616369,111.570299 264.662242,110.131095 264.662242,109.570563 C264.662242,109.100928 264.601078,108.479798 264.448169,108.191957 C264.264678,107.722323 263.790658,107.419332 263.270766,107.419332 C263.01082,107.419332 262.705002,107.510229 262.35331,107.692024 C262.047491,107.843519 261.54289,108.161658 261.191198,108.570695 C261.007707,108.782788 260.900671,108.919134 260.900671,109.025181 C260.900671,109.085779 260.977125,109.176676 261.05358,109.161526 C261.160617,109.146377 261.619345,108.934284 261.772254,108.828237 C261.802836,108.797938 261.833418,108.752489 261.833418,108.707041 C261.833418,108.600994 261.833418,108.479798 261.848709,108.4192 C261.879291,108.252556 261.971036,108.146509 262.078073,108.055612 C262.307437,107.919266 262.460346,107.873818 262.689711,107.873818 C262.873202,107.873818 263.133148,107.964715 263.33193,108.11621 C263.591876,108.313154 263.698913,108.73734 263.698913,109.35847 C263.698913,109.570563 263.698913,109.873553 263.668331,110.055347 C263.668331,110.115945 263.591876,110.252291 263.469549,110.28259 C263.148439,110.403786 261.756963,110.812823 261.389981,111.009767 C261.252362,111.085514 260.839507,111.388504 260.839507,111.873289 C260.839507,112.661063 261.451144,113.176147 262.062782,113.176147 C262.643838,113.176147 263.102566,112.918605 263.561294,112.494419 C263.576585,112.479269 263.622458,112.479269 263.637749,112.509568 C263.775367,112.858007 264.111768,113.191296 264.539914,113.191296 Z M262.735583,112.600465 C262.261564,112.600465 261.818127,112.252027 261.818127,111.752093 C261.818127,111.312757 262.016909,111.085514 262.200401,110.994617 C262.52151,110.827972 263.408385,110.509833 263.607167,110.479534 C263.637749,110.464384 263.668331,110.540132 263.668331,110.555281 C263.668331,111.130963 263.637749,111.736943 263.591876,111.994485 C263.576585,112.161129 263.48484,112.297475 263.423676,112.358073 C263.255475,112.509568 262.995529,112.600465 262.735583,112.600465 Z M268.867251,113.191296 C269.99878,113.191296 270.702164,112.555017 270.977401,112.191428 C271.069146,112.085382 271.099728,112.009634 271.099728,111.949036 C271.099728,111.903588 271.023273,111.918737 270.992692,111.949036 C270.457509,112.418671 270.059944,112.524718 269.402434,112.524718 C268.943705,112.524718 268.377941,112.358073 267.980376,111.994485 C267.613394,111.676345 267.215829,111.040066 267.215829,110.025048 C267.215829,108.282855 268.270904,107.676874 268.913124,107.676874 C269.081324,107.676874 269.310688,107.707173 269.494179,107.79807 C269.723543,107.919266 270.105817,108.176808 270.350472,108.4192 C270.442218,108.510097 270.549254,108.570695 270.610418,108.570695 C270.717455,108.570695 270.992692,108.373752 270.992692,108.085911 C270.992692,108.010163 270.946819,107.888967 270.778618,107.79807 C270.518672,107.601127 270.044653,107.419332 269.387143,107.419332 C268.393232,107.419332 267.598103,107.858668 267.124083,108.298004 C266.665355,108.72219 266.191336,109.449367 266.191336,110.403786 C266.191336,111.237009 266.466573,111.964186 266.955883,112.44897 C267.460484,112.933755 268.179158,113.191296 268.867251,113.191296 Z M272.995805,105.964979 C273.194587,105.964979 273.56157,105.798335 273.56157,105.389298 C273.56157,105.131756 273.378078,104.813616 273.026387,104.813616 C272.781732,104.813616 272.491204,105.02571 272.491204,105.404447 C272.491204,105.707438 272.720568,105.964979 272.995805,105.964979 Z M273.836807,113.08525 C273.959134,113.08525 274.081462,113.054951 274.081462,112.979203 C274.081462,112.918605 274.005007,112.888306 273.852098,112.858007 C273.607442,112.797409 273.454533,112.721661 273.423951,112.418671 C273.393369,112.161129 273.393369,111.040066 273.393369,109.767507 C273.393369,108.797938 273.393369,107.873818 273.423951,107.570827 C273.439242,107.404183 273.40866,107.358734 273.362787,107.358734 C273.332206,107.358734 273.255751,107.389033 273.133423,107.464781 C272.812314,107.601127 272.445331,107.752622 272.032476,107.858668 C271.894857,107.888967 271.848984,107.934416 271.848984,107.979864 C271.848984,108.010163 271.894857,108.055612 271.971312,108.10106 C272.351886,108.303054 272.406254,108.397318 272.413637,108.564731 L272.413554,108.784965 C272.407765,109.399672 272.382368,111.593468 272.368876,111.994485 C272.353585,112.615615 272.215967,112.736811 271.879566,112.827708 C271.665493,112.858007 271.589038,112.903456 271.589038,112.964054 C271.589038,113.024652 271.696075,113.054951 271.803111,113.054951 C271.971312,113.054951 272.215967,113.024652 272.720568,113.024652 C273.133423,113.024652 273.699188,113.08525 273.836807,113.08525 Z M277.017322,113.054951 C277.216105,113.054951 277.323141,113.009502 277.323141,112.948904 C277.323141,112.903456 277.216105,112.858007 277.124359,112.842857 C276.696213,112.76711 276.604467,112.661063 276.589176,112.252027 C276.573885,111.964186 276.558594,111.252159 276.558594,109.34332 L276.558594,107.737472 C276.558594,105.465045 276.619758,102.84418 276.619758,102.738133 C276.619758,102.662386 276.604467,102.571489 276.573885,102.571489 C276.512721,102.571489 276.436267,102.601788 276.390394,102.616937 C276.053993,102.738133 275.68701,102.874479 275.243573,102.965376 C275.105955,102.995675 275.014209,103.041124 275.014209,103.086572 C275.014209,103.132021 275.060082,103.16232 275.167118,103.222918 C275.564683,103.46531 275.595265,103.541057 275.595265,103.874347 C275.610556,104.540925 275.595265,105.783185 275.595265,107.010296 C275.579974,108.828237 275.51881,111.388504 275.488228,111.949036 C275.427064,112.615615 275.335319,112.75196 274.953045,112.827708 C274.754263,112.873156 274.677808,112.888306 274.677808,112.964054 C274.677808,113.039801 274.754263,113.054951 274.937754,113.054951 C275.167118,113.054951 275.564683,113.024652 275.962247,113.024652 C276.222193,113.024652 276.772667,113.054951 277.017322,113.054951 Z M279.463873,105.964979 C279.662655,105.964979 280.029638,105.798335 280.029638,105.389298 C280.029638,105.131756 279.846146,104.813616 279.494455,104.813616 C279.2498,104.813616 278.959272,105.02571 278.959272,105.404447 C278.959272,105.707438 279.188636,105.964979 279.463873,105.964979 Z M280.304875,113.08525 C280.427202,113.08525 280.54953,113.054951 280.54953,112.979203 C280.54953,112.918605 280.473075,112.888306 280.320166,112.858007 C280.07551,112.797409 279.922601,112.721661 279.892019,112.418671 C279.861437,112.161129 279.861437,111.040066 279.861437,109.767507 C279.861437,108.797938 279.861437,107.873818 279.892019,107.570827 C279.90731,107.404183 279.876728,107.358734 279.830855,107.358734 C279.800274,107.358734 279.723819,107.389033 279.601491,107.464781 C279.280382,107.601127 278.913399,107.752622 278.500544,107.858668 C278.362925,107.888967 278.317052,107.934416 278.317052,107.979864 C278.317052,108.010163 278.362925,108.055612 278.43938,108.10106 C278.867526,108.328303 278.882817,108.4192 278.882817,108.631293 C278.882817,108.782788 278.852235,111.539999 278.836944,111.994485 C278.821653,112.615615 278.684035,112.736811 278.347634,112.827708 C278.133561,112.858007 278.057106,112.903456 278.057106,112.964054 C278.057106,113.024652 278.164143,113.054951 278.271179,113.054951 C278.43938,113.054951 278.684035,113.024652 279.188636,113.024652 C279.601491,113.024652 280.167256,113.08525 280.304875,113.08525 Z M283.363063,113.160997 C283.791209,113.160997 284.265228,113.024652 284.601629,112.76711 C284.800411,112.615615 284.93803,112.46412 284.93803,112.373223 C284.93803,112.312625 284.892157,112.297475 284.78512,112.373223 C284.647502,112.46412 284.372265,112.600465 283.944119,112.600465 C283.546554,112.600465 283.225444,112.479269 282.99608,112.191428 C282.889044,112.039933 282.858462,111.858139 282.82788,111.373355 C282.812589,110.90372 282.797298,108.525247 282.797298,108.267705 C282.797298,108.176808 282.82788,108.131359 283.011371,108.131359 C283.424227,108.131359 284.173483,108.146509 284.708666,108.146509 C284.78512,108.146509 284.861575,108.025313 284.861575,107.767771 C284.861575,107.661725 284.800411,107.555678 284.769829,107.555678 C284.44872,107.555678 283.179572,107.601127 282.904335,107.601127 C282.843171,107.601127 282.82788,107.510229 282.82788,107.464781 C282.812589,107.282987 282.843171,106.8588 282.843171,106.722455 C282.843171,106.646707 282.736134,106.616408 282.598516,106.767903 C282.231533,107.237538 281.726932,107.646575 281.344659,107.782921 C281.176458,107.858668 281.161167,107.904117 281.161167,107.934416 C281.161167,107.995014 281.237622,108.040462 281.35995,108.070761 C281.497568,108.10106 281.665768,108.131359 281.726932,108.161658 C281.788096,108.191957 281.803387,108.298004 281.803387,108.464649 L281.803387,111.600598 C281.803387,111.964186 281.864551,112.267176 281.986878,112.46412 C282.246824,112.948904 282.720843,113.160997 283.363063,113.160997 Z M286.268342,117.266515 C286.436542,117.266515 286.620033,117.221066 286.772943,117.008973 C286.879979,116.872628 286.956434,116.721132 287.063471,116.448441 C287.277544,115.933358 287.858599,114.357809 288.225582,113.479137 C288.546692,112.661063 288.68431,112.312625 288.867802,111.812691 C289.097166,111.237009 290.045204,108.903984 290.228695,108.525247 C290.47335,107.964715 290.62626,107.858668 290.932079,107.767771 C291.084988,107.722323 291.146152,107.661725 291.146152,107.616276 C291.146152,107.570827 291.054406,107.555678 290.96266,107.555678 C290.733296,107.555678 290.534514,107.601127 290.259277,107.601127 C290.029913,107.601127 289.708803,107.555678 289.525312,107.555678 C289.387694,107.555678 289.311239,107.585977 289.311239,107.646575 C289.311239,107.692024 289.357112,107.737472 289.586476,107.782921 C289.846422,107.858668 289.922876,107.979864 289.922876,108.085911 C289.922876,108.161658 289.922876,108.343453 289.846422,108.525247 C289.724094,108.873685 288.867802,111.055215 288.669019,111.570299 C288.653728,111.615747 288.607856,111.630897 288.577274,111.570299 C288.271455,110.934019 287.430453,108.888835 287.231671,108.358602 C287.094052,107.964715 287.124634,107.888967 287.461035,107.782921 C287.552781,107.767771 287.659817,107.722323 287.659817,107.661725 C287.659817,107.601127 287.552781,107.555678 287.399871,107.555678 C287.201089,107.555678 286.803525,107.601127 286.589451,107.601127 C286.222469,107.601127 285.794322,107.540528 285.519085,107.540528 C285.412049,107.540528 285.27443,107.570827 285.27443,107.646575 C285.27443,107.692024 285.366176,107.752622 285.549667,107.79807 C285.809613,107.858668 285.993105,108.010163 286.100141,108.207107 C286.788234,109.691759 287.766854,112.14598 287.996218,112.736811 C288.042091,112.873156 288.072673,113.024652 288.011509,113.221595 C287.491617,114.539603 287.04818,115.781863 286.89527,116.100002 C286.803525,116.312096 286.681197,116.357544 286.497706,116.357544 L286.191887,116.327245 L286.191887,116.327245 C285.962523,116.327245 285.763741,116.539338 285.763741,116.766581 C285.763741,117.069571 286.023687,117.266515 286.268342,117.266515 Z"/>
    <rect width="440" height="220.501" stroke="#979797"/>
  </g>
</svg>
