<svg id="Layer_1" data-name="Layer 1" xmlns="http://www.w3.org/2000/svg" viewBox="0 0 399 200"><defs><style>.cls-1,.cls-2,.cls-3{fill:none;stroke:#222f3c;stroke-width:0.5px;}.cls-1,.cls-3{stroke-miterlimit:10;}.cls-2,.cls-3{stroke-linecap:round;}.cls-2{stroke-linejoin:round;}.cls-4{fill:#333838;}</style></defs><path class="cls-1" d="M219.83,122.9689c0-13.4744,24.3975-42.8027,24.3975-42.8027s24.3974,29.3283,24.3974,42.8027a24.3975,24.3975,0,0,1-48.7949,0Z"/><rect class="cls-1" x="256.5943" y="115.9338" width="2.6469" height="7.6445" rx="0.9453" transform="translate(235.7983 403.2588) rotate(-110.445)"/><rect class="cls-1" x="238.198" y="99.9748" width="2.6469" height="7.6445" rx="0.9453" transform="translate(473.6928 -11.5637) rotate(130.344)"/><rect class="cls-1" x="237.1519" y="131.037" width="2.6469" height="7.6445" rx="0.9453" transform="translate(-27.8437 70.5813) rotate(-15.9192)"/><rect class="cls-1" x="245.4209" y="125.9433" width="2.6469" height="7.6445" rx="0.9453" transform="translate(-4.1282 251.3584) rotate(-53.5989)"/><rect class="cls-1" x="246.5848" y="135.2544" width="2.6469" height="7.6445" rx="0.9453" transform="translate(228.7203 422.6832) rotate(-115.4219)"/><circle class="cls-2" cx="232.4874" cy="112.2796" r="1.3629"/><path class="cls-2" d="M232.5208,107.52c.4743,1.2568-1.09,2.0592.1524,3.3387"/><path class="cls-2" d="M232.5208,113.7008c.4743,1.2569-1.09,2.0593.1524,3.3388"/><path class="cls-2" d="M227.7274,112.3062c1.2568-.4743,2.0592,1.09,3.3387-.1524"/><path class="cls-2" d="M233.9086,112.3062c1.2569-.4743,2.0593,1.09,3.3388-.1524"/><path class="cls-2" d="M229.1452,108.89c1.2241.5533.6851,2.2271,2.4686,2.2531"/><path class="cls-2" d="M233.516,113.2609c1.2241.5533.6851,2.2271,2.4686,2.2531"/><path class="cls-2" d="M229.14,115.6643c.5533-1.2242,2.2271-.6852,2.2531-2.4687"/><path class="cls-2" d="M233.5112,111.2934c.5533-1.2241,2.2271-.6851,2.2531-2.4686"/><circle class="cls-2" cx="258.1067" cy="129.6103" r="1.3629"/><path class="cls-2" d="M258.14,124.85c.4743,1.2569-1.09,2.0593.1524,3.3388"/><path class="cls-2" d="M258.14,131.0316c.4743,1.2568-1.09,2.0593.1524,3.3387"/><path class="cls-2" d="M253.3467,129.637c1.2568-.4743,2.0592,1.09,3.3387-.1524"/><path class="cls-2" d="M259.5279,129.637c1.2569-.4743,2.0593,1.09,3.3388-.1524"/><path class="cls-2" d="M254.7645,126.2209c1.2241.5533.6851,2.2271,2.4686,2.2531"/><path class="cls-2" d="M259.1353,130.5917c1.2241.5533.6851,2.2271,2.4686,2.2531"/><path class="cls-2" d="M254.76,132.995c.5533-1.2241,2.2271-.6852,2.2531-2.4686"/><path class="cls-2" d="M259.13,128.6242c.5533-1.2241,2.2271-.6852,2.2531-2.4686"/><circle class="cls-2" cx="229.0253" cy="126.9226" r="1.3629"/><path class="cls-2" d="M229.0587,122.1626c.4743,1.2568-1.09,2.0593.1524,3.3387"/><path class="cls-2" d="M229.0587,128.3439c.4743,1.2568-1.09,2.0592.1524,3.3387"/><path class="cls-2" d="M224.2653,126.9493c1.2568-.4744,2.0592,1.09,3.3387-.1524"/><path class="cls-2" d="M230.4465,126.9493c1.2569-.4744,2.0593,1.09,3.3388-.1524"/><path class="cls-2" d="M225.6831,123.5332c1.2241.5533.6851,2.227,2.4686,2.253"/><path class="cls-2" d="M230.0539,127.904c1.2241.5533.6851,2.227,2.4686,2.253"/><path class="cls-2" d="M225.6783,130.3073c.5533-1.2241,2.2271-.6852,2.2531-2.4686"/><path class="cls-2" d="M230.0491,125.9365c.5533-1.2242,2.2271-.6852,2.2531-2.4686"/><circle class="cls-2" cx="243.3928" cy="119.811" r="1.3629"/><path class="cls-2" d="M243.4262,115.051c.4743,1.2569-1.09,2.0593.1524,3.3388"/><path class="cls-2" d="M243.4262,121.2323c.4743,1.2568-1.09,2.0593.1524,3.3387"/><path class="cls-2" d="M238.6328,119.8377c1.2568-.4743,2.0592,1.09,3.3387-.1524"/><path class="cls-2" d="M244.814,119.8377c1.2569-.4743,2.0593,1.09,3.3388-.1524"/><path class="cls-2" d="M240.0506,116.4216c1.2241.5533.6851,2.2271,2.4686,2.2531"/><path class="cls-2" d="M244.4214,120.7924c1.2241.5533.6851,2.2271,2.4686,2.2531"/><path class="cls-2" d="M240.0458,123.1957c.5533-1.2241,2.2271-.6851,2.2531-2.4686"/><path class="cls-2" d="M244.4166,118.8249c.5533-1.2241,2.2271-.6851,2.2531-2.4686"/><circle class="cls-2" cx="252.4938" cy="110.4599" r="1.3629"/><path class="cls-2" d="M252.5272,105.7c.4744,1.2569-1.09,2.0593.1524,3.3388"/><path class="cls-2" d="M252.5272,111.8812c.4744,1.2568-1.09,2.0593.1524,3.3387"/><path class="cls-2" d="M247.7338,110.4866c1.2569-.4744,2.0593,1.09,3.3388-.1524"/><path class="cls-2" d="M253.9151,110.4866c1.2568-.4744,2.0593,1.09,3.3387-.1524"/><path class="cls-2" d="M249.1516,107.0705c1.2242.5533.6852,2.2271,2.4686,2.2531"/><path class="cls-2" d="M253.5224,111.4413c1.2242.5533.6852,2.2271,2.4687,2.2531"/><path class="cls-2" d="M249.1469,113.8446c.5533-1.2241,2.227-.6852,2.2531-2.4686"/><path class="cls-2" d="M253.5177,109.4738c.5533-1.2241,2.2271-.6852,2.2531-2.4686"/><circle class="cls-2" cx="247.1172" cy="97.1539" r="1.3629"/><path class="cls-2" d="M247.1506,92.3939c.4744,1.2568-1.09,2.0593.1524,3.3388"/><path class="cls-2" d="M247.1506,98.5752c.4744,1.2568-1.09,2.0592.1524,3.3387"/><path class="cls-2" d="M242.3572,97.1806c1.2569-.4744,2.0593,1.09,3.3388-.1524"/><path class="cls-2" d="M248.5385,97.1806c1.2568-.4744,2.0593,1.09,3.3387-.1524"/><path class="cls-2" d="M243.775,93.7645c1.2241.5533.6852,2.2271,2.4686,2.2531"/><path class="cls-2" d="M248.1458,98.1353c1.2241.5533.6852,2.2271,2.4686,2.2531"/><path class="cls-2" d="M243.77,100.5386c.5533-1.2241,2.2271-.6852,2.2531-2.4686"/><path class="cls-2" d="M248.1411,96.1678c.5533-1.2241,2.227-.6852,2.253-2.4686"/><path class="cls-2" d="M167.0554,124.8658h-5.44a1.26,1.26,0,0,1-1.26-1.26v-3.73a1.26,1.26,0,0,1,1.26-1.26h14.312"/><line class="cls-2" x1="159.139" y1="158.9787" x2="162.9725" y2="158.9787"/><line class="cls-2" x1="163.9562" y1="135.2414" x2="163.9562" y2="126.5091"/><line class="cls-2" x1="162.6253" y1="158.9787" x2="157.7699" y2="158.9787"/><line class="cls-2" x1="155.648" y1="155.7397" x2="155.6652" y2="155.6977"/><line class="cls-2" x1="155.6652" y1="155.6977" x2="163.9432" y2="135.4134"/><path class="cls-2" d="M155.648,155.74a2.3429,2.3429,0,0,0,2.17,3.2358"/><path class="cls-2" d="M155.648,155.74l.0172-.042"/><line class="cls-2" x1="162.6253" y1="158.9787" x2="157.7699" y2="158.9787"/><line class="cls-2" x1="155.648" y1="155.7397" x2="155.6652" y2="155.6977"/><line class="cls-2" x1="155.6652" y1="155.6977" x2="163.9432" y2="135.4134"/><path class="cls-2" d="M155.648,155.74a2.3429,2.3429,0,0,0,2.17,3.2358"/><path class="cls-2" d="M155.648,155.74l.0172-.042"/><path class="cls-2" d="M176.3813,128.6532h7.5746a1.2127,1.2127,0,0,0,1.1586-1.26v-3.73a1.2127,1.2127,0,0,0-1.1586-1.26H169.513a1.2128,1.2128,0,0,0-1.1586,1.26v3.73a1.2128,1.2128,0,0,0,1.1586,1.26h2.4989"/><line class="cls-2" x1="171.2194" y1="140.4288" x2="171.2194" y2="131.6966"/><line class="cls-2" x1="187.0666" y1="164.1662" x2="165.0332" y2="164.1662"/><line class="cls-2" x1="162.9113" y1="160.9272" x2="162.9284" y2="160.8852"/><line class="cls-2" x1="162.9284" y1="160.8852" x2="171.2064" y2="140.6008"/><path class="cls-2" d="M162.9113,160.9272a2.3427,2.3427,0,0,0,2.17,3.2358"/><path class="cls-2" d="M162.9113,160.9272l.0171-.042"/><line class="cls-2" x1="182.2495" y1="140.4288" x2="182.2495" y2="131.6966"/><line class="cls-2" x1="165.3803" y1="164.1662" x2="188.4357" y2="164.1662"/><line class="cls-2" x1="190.5576" y1="160.9272" x2="190.5405" y2="160.8852"/><line class="cls-2" x1="190.5405" y1="160.8852" x2="182.2625" y2="140.6008"/><path class="cls-2" d="M190.5576,160.9272a2.3429,2.3429,0,0,1-2.17,3.2358"/><path class="cls-2" d="M190.5576,160.9272l-.0171-.042"/><line class="cls-2" x1="165.3803" y1="164.1662" x2="188.4357" y2="164.1662"/><line class="cls-2" x1="190.5576" y1="160.9272" x2="190.5405" y2="160.8852"/><line class="cls-2" x1="190.5405" y1="160.8852" x2="182.2625" y2="140.6008"/><path class="cls-2" d="M190.5576,160.9272a2.3429,2.3429,0,0,1-2.17,3.2358"/><path class="cls-2" d="M190.5576,160.9272l-.0171-.042"/><line class="cls-1" x1="178.5288" y1="133.8117" x2="182.3308" y2="133.8117"/><line class="cls-1" x1="178.5288" y1="131.6332" x2="182.3308" y2="131.6332"/><line class="cls-1" x1="178.5288" y1="136.0155" x2="182.3308" y2="136.0155"/><line class="cls-1" x1="178.5288" y1="138.2194" x2="182.3308" y2="138.2194"/><line class="cls-1" x1="178.5288" y1="140.4232" x2="182.3308" y2="140.4232"/><path class="cls-1" d="M170.3482,153.1145c0-1.2507,2.2646-3.9729,2.2646-3.9729s2.2645,2.7222,2.2645,3.9729a2.2646,2.2646,0,0,1-4.5291,0Z"/><path class="cls-1" d="M175.0734,158.72c0-1.2507,2.2646-3.9729,2.2646-3.9729s2.2645,2.7222,2.2645,3.9729a2.2646,2.2646,0,0,1-4.5291,0Z"/><path class="cls-1" d="M176.326,150.6924c0-1.2506,2.2645-3.9728,2.2645-3.9728s2.2645,2.7222,2.2645,3.9728a2.2645,2.2645,0,0,1-4.529,0Z"/><line class="cls-3" x1="180.6044" y1="149.5129" x2="221.3307" y2="132.7129"/><path class="cls-4" d="M51.835,66.056a1.6317,1.6317,0,0,1,1.37-1.5088c.0771,0,.1387,0,.1387.0771,0,.0308-.0772.0767-.169.1075-.4619.2465-.8008.5541-.8008,1.0468,0,.3238.1543.5083.5694.6162a.3226.3226,0,0,1,.3086.3233.4447.4447,0,0,1-.462.4A.9956.9956,0,0,1,51.835,66.056Zm1.9091,0A1.6712,1.6712,0,0,1,55.13,64.5472c.0771,0,.1387.0307.1387.0771,0,.0308-.0616.0767-.1543.1075-.462.2465-.8155.57-.8155,1.0468,0,.3238.169.5083.585.6162a.333.333,0,0,1,.3076.3233.4716.4716,0,0,1-.4775.4A1.0072,1.0072,0,0,1,53.7441,66.056Z"/><path class="cls-4" d="M56.2852,65.2093c.3544,0,1.0009.0615,1.3554.0615.4922,0,1.1543-.0615,1.4317-.0615.23,0,.2929.0615.2929.0923,0,.0923-.1386.1386-.3086.1694-.3691.0459-.539.2461-.539.4312a2.3115,2.3115,0,0,0,.1855.7236c.2764.8159,2.1553,5.6811,2.5088,6.4048.0156.0459.0615.0923.0772.0307.2461-.5083,2.0478-5.1118,2.31-5.85a4.4667,4.4667,0,0,0,.3076-1.2164c0-.354-.2919-.4467-.7539-.57-.1543-.0151-.2617-.0766-.2617-.123,0-.0615.0772-.1079.3076-.1079.3389,0,.9551.0771,1.2784.0771.3535,0,.7695-.0615,1.0156-.0615.2,0,.2617.0308.2617.0615,0,.0615-.0615.1387-.3076.1846-.585.1694-.8164.4468-1.293,1.5244-.2929.6621-1.1855,2.8638-2.6484,6.4048-.3545.893-.5547,1.4472-.6162,1.6782-.03.1074-.0918.1846-.1231.1846-.0918,0-.123-.1231-.1845-.3233-.5079-1.5244-2.8487-7.4516-3.4336-8.7758a1.0222,1.0222,0,0,0-.8623-.6929c-.1846-.0308-.292-.0923-.292-.1538S56.1475,65.2093,56.2852,65.2093Z"/><path class="cls-4" d="M69.1738,65.1629a6.5032,6.5032,0,0,0,.4,1.2935c1.0781,2.8637,1.9092,4.9575,2.8633,7.1284.3857.9082.5391,1.0469.9238,1.1391.1856.0308.2617.0923.2617.1387,0,.0772-.1376.1079-.2763.1079-.293,0-.5391-.0464-1.34-.0464-.5693,0-1.1543.0616-1.5244.0616-.1689,0-.2617-.0308-.2617-.108,0-.0615.1387-.123.293-.1381.6152-.0928.708-.3545.6924-.6929-.03-.2617-.5538-1.6323-1.0772-2.9868-.0469-.1079-.1387-.1851-.2-.1851-.5849.0308-2.5254.0308-2.8642.0308-.0772,0-.169.1694-.23.2925-.1387.3388-.585,1.478-.8008,2.2324-.1689.5854-.1689.8779,0,1.0473a1.21,1.21,0,0,0,.6465.2618c.1543.0459.2314.1074.2314.1538,0,.0771-.1386.1079-.3086.1079-.292,0-.9238-.0772-1.4775-.0772-.3848,0-.6777.0772-1.0469.0772-.17,0-.2617-.0308-.2617-.1079s.1533-.1079.3076-.1387c.708-.1387.8467-.2769,1.4317-1.57.4463-.9546,1.8017-4.3262,2.6943-6.62a1.0813,1.0813,0,0,0,.0928-.4312c0-.0615.0156-.1543.0459-.1694a1.4627,1.4627,0,0,0,.5547-.8008c.03-.0615.0459-.1538.1074-.1538S69.1436,65.0706,69.1738,65.1629Zm.6162,5.0654c-.6162-1.74-1.0322-2.7251-1.2627-3.2485-.0459-.123-.0771-.0772-.123.0308-.3691.8774-1.001,2.6479-1.2168,3.2793-.0146.0307-.0146.1386.0469.1386.292.0152.6767.0152,1.2158.0152a7.3353,7.3353,0,0,0,1.34-.0616A.2308.2308,0,0,0,69.79,70.2283Z"/><path class="cls-4" d="M72.625,65.2093c.3545,0,1.001.0615,1.3545.0615.4932,0,1.1553-.0615,1.4316-.0615.2315,0,.293.0615.293.0923,0,.0923-.1387.1386-.3076.1694-.37.0459-.5391.2461-.5391.4312a2.3294,2.3294,0,0,0,.1846.7236c.2773.8159,2.1553,5.6811,2.51,6.4048.0156.0459.0615.0923.0771.0307.2461-.5083,2.0479-5.1118,2.31-5.85a4.5081,4.5081,0,0,0,.3076-1.2164c0-.354-.293-.4467-.7549-.57-.1533-.0151-.2617-.0766-.2617-.123,0-.0615.0771-.1079.3086-.1079.3389,0,.9541.0771,1.2773.0771.3545,0,.77-.0615,1.0166-.0615.2,0,.2618.0308.2618.0615,0,.0615-.0616.1387-.3086.1846-.585.1694-.8155.4468-1.293,1.5244-.292.6621-1.1856,2.8638-2.6484,6.4048-.3536.893-.5538,1.4472-.6153,1.6782-.0312.1074-.0928.1846-.123.1846-.0928,0-.1231-.1231-.1846-.3233-.5088-1.5244-2.8486-7.4516-3.4336-8.7758a1.0233,1.0233,0,0,0-.8623-.6929c-.1846-.0308-.293-.0923-.293-.1538S72.4863,65.2093,72.625,65.2093Z"/><path class="cls-4" d="M82.5264,65.2093c.3545,0,1.0009.0615,1.3554.0615.4922,0,1.1543-.0615,1.4317-.0615.23,0,.2929.0615.2929.0923,0,.0923-.1386.1386-.3085.1694-.3692.0459-.5391.2461-.5391.4312a2.3115,2.3115,0,0,0,.1855.7236c.2764.8159,2.1553,5.6811,2.5088,6.4048.0157.0459.0615.0923.0772.0307.2461-.5083,2.0478-5.1118,2.31-5.85a4.4676,4.4676,0,0,0,.3077-1.2164c0-.354-.292-.4467-.7539-.57-.1543-.0151-.2618-.0766-.2618-.123,0-.0615.0772-.1079.3077-.1079.3388,0,.955.0771,1.2783.0771.3535,0,.77-.0615,1.0156-.0615.2,0,.2617.0308.2617.0615,0,.0615-.0615.1387-.3076.1846-.585.1694-.8164.4468-1.293,1.5244-.2929.6621-1.1855,2.8638-2.6484,6.4048-.3545.893-.5547,1.4472-.6162,1.6782-.03.1074-.0918.1846-.1231.1846-.0918,0-.123-.1231-.1845-.3233-.5078-1.5244-2.8487-7.4516-3.4336-8.7758a1.0222,1.0222,0,0,0-.8623-.6929c-.1846-.0308-.292-.0923-.292-.1538S82.3887,65.2093,82.5264,65.2093Z"/><path class="cls-4" d="M96.2471,70.3362a.7781.7781,0,0,0-.1533.5694,30.3455,30.3455,0,0,0,.0771,3.31.5437.5437,0,0,0,.4922.5235c.2314.0459.3389.0766.3389.1538,0,.0464-.0928.0923-.2315.0923-.4307,0-.831-.0616-1.2773-.0616-.4776,0-.708.0616-1.001.0616-.169,0-.2461-.0308-.2461-.0923s.0615-.0923.2461-.1387c.4463-.1079.5547-.1538.5693-.7388.0469-.6162.0625-2.0322.0625-4.48,0-2.3247.03-3.2642,0-3.8492-.0156-.4926-.124-.5385-.4619-.7236-.0625-.0459-.1084-.0767-.1084-.123s.0928-.0923.2617-.1387a6.35,6.35,0,0,0,1.1241-.37.3384.3384,0,0,1,.1543-.0616c.0458,0,.0917.1079.0771.3238-.0156.4155-.0771,5.1884-.0615,5.4809,0,.0615.0459.0767.0615.0459a5.0582,5.0582,0,0,1,.9238-.6313,2.4166,2.4166,0,0,1,1.0772-.2617,1.64,1.64,0,0,1,1.3857.6928,2.9693,2.9693,0,0,1,.3389,1.6475c.0156,1.1548.0156,2.1094.03,2.6943,0,.3081.0615.416.5234.4927.2.0464.2471.0771.2471.1387s-.1084.1079-.2471.1079c-.3994,0-.6924-.0772-1.1084-.0772-.5234,0-.6465.0616-1,.0616-.1856,0-.2471-.0459-.2471-.0923,0-.0616.0772-.0923.2315-.1231.415-.0923.4463-.2.5078-.6469.0312-.3541.0615-1.0313.0615-2.6324a2.4659,2.4659,0,0,0-.23-1.1548,1.1526,1.1526,0,0,0-1.0625-.57A1.8628,1.8628,0,0,0,96.2471,70.3362Z"/><path class="cls-4" d="M104.917,70.013a3.7145,3.7145,0,0,1,.2158,1.4009c0,.57-.0459,2.0322-.0459,2.4326a.5275.5275,0,0,0,.5693.585.9782.9782,0,0,0,.4463-.1387c.0928-.0459.1543,0,.0928.1387a1.2979,1.2979,0,0,1-1.1855.6621,1.0343,1.0343,0,0,1-.9082-.6929.0541.0541,0,0,0-.0772-.0156,2.1547,2.1547,0,0,1-1.5088.6928,1.2767,1.2767,0,0,1-1.2314-1.3237,1.0852,1.0852,0,0,1,.5537-.8779c.37-.2,1.77-.6157,2.0937-.7388a.2916.2916,0,0,0,.2-.2309,5.1364,5.1364,0,0,0,.0313-.7085c0-.6309-.1084-1.0621-.37-1.2622a1.1714,1.1714,0,0,0-.6465-.2466,1.06,1.06,0,0,0-.6153.185.6161.6161,0,0,0-.2314.3692,1.5739,1.5739,0,0,0-.0156.2929.1886.1886,0,0,1-.0615.1231,3.2983,3.2983,0,0,1-.7237.3389c-.0761.0151-.1533-.0772-.1533-.1387,0-.1079.1074-.2466.292-.4619a4.0069,4.0069,0,0,1,1.17-.8931,2.0693,2.0693,0,0,1,.9238-.2773A1.2618,1.2618,0,0,1,104.917,70.013Zm-1.0313,4.2339a.6345.6345,0,0,0,.169-.37,10.9113,10.9113,0,0,0,.0771-1.4629c0-.0152-.03-.0923-.0615-.0767a8.6553,8.6553,0,0,0-1.416.5234.7968.7968,0,0,0-.3848.77.8941.8941,0,0,0,.9239.8623A1.0541,1.0541,0,0,0,103.8857,74.2469Z"/><path class="cls-4" d="M108.1367,69.366c.1533,0,.23.0308.23.0923s-.0918.1079-.2158.1387c-.3994.1079-.4307.2-.3076.6621.1386.4775,1.0624,2.8638,1.2626,3.2334.0157.0615.0459.0767.0616.0308.2-.37,1.0625-2.4175,1.247-2.9717a2.1374,2.1374,0,0,0,.169-.6314c0-.0923-.0918-.2617-.5078-.354-.1231-.0307-.1846-.0771-.1846-.1386,0-.0459.0615-.0616.1846-.0616.1845,0,.416.0464.7549.0464.246,0,.6464-.0464.7851-.0464.1074,0,.2149.0308.2149.0923s-.0918.0928-.2305.1387c-.3076.0771-.4776.2617-.6621.6929-.3545.77-1.14,2.4941-1.293,2.8637a16.3844,16.3844,0,0,0-.7393,1.7241c-.0771.231-.1386.2618-.1845.2618s-.1084-.0152-.17-.231c-.0772-.2305-.1846-.6-.4-1.1851-.2764-.7084-1.1856-3.11-1.4473-3.603a.9089.9089,0,0,0-.6924-.5386c-.1387-.0307-.2158-.0771-.2158-.1235,0-.0615.0771-.1074.2617-.1074.4317,0,.6934.0615,1.1553.0615C107.6279,69.4124,107.89,69.366,108.1367,69.366Z"/><path class="cls-4" d="M116.7285,70.7982a.1809.1809,0,0,1-.1543.1689c-.123-.0151-2.124-.0459-2.4785-.0459h-.8311c-.0312,0-.1084.0772-.1386.1231a2.1124,2.1124,0,0,0-.1231.8466,2.76,2.76,0,0,0,.708,1.8633,2.08,2.08,0,0,0,1.54.6309,1.9622,1.9622,0,0,0,1.4619-.4927c.123-.1231.1846-.0923.1846-.0151a.5862.5862,0,0,1-.1534.2461,2.7223,2.7223,0,0,1-2.1406.97,2.4855,2.4855,0,0,1-1.832-.7852,3.01,3.01,0,0,1-.7383-2.063,3.2089,3.2089,0,0,1,.8926-2.248,2.8652,2.8652,0,0,1,1.9248-.77A1.7764,1.7764,0,0,1,116.7285,70.7982Zm-3.1406-.7852a1.3524,1.3524,0,0,0-.3233.6309.0658.0658,0,0,0,.0616.0615l2.0009-.0152c.3389,0,.37-.1694.37-.3081a.9927.9927,0,0,0-.2159-.6464,1.0787,1.0787,0,0,0-.7695-.2925A1.5977,1.5977,0,0,0,113.5879,70.013Z"/><path class="cls-4" d="M120.5332,70.1819c0-.1074-.0146-.1845-.0762-.2-.0771,0-.247,0-.4316-.0152-.1074-.0156-.2-.0923-.2-.123,0-.0464.0771-.0923.1846-.1543s.2314-.1382.37-.231a.2986.2986,0,0,0,.1533-.2153,9.8328,9.8328,0,0,1,.2617-2.5249,3.5466,3.5466,0,0,1,1.5557-2.0479,2.52,2.52,0,0,1,1.3857-.4155c.6309,0,1.0469.2617,1.0469.4927a.7573.7573,0,0,1-.3848.5078.2786.2786,0,0,1-.3086-.0308,1.82,1.82,0,0,0-1.0927-.5234c-.6934,0-1.2315.4468-1.3858,2.0942-.0459.4771-.0771,1.57-.0771,2.0474a4.4344,4.4344,0,0,0,.0156.4927.1208.1208,0,0,0,.1231.0923c.1386,0,1.4472-.0308,1.6162-.0308.0615,0,.124.0923.124.2773,0,.2154-.0313.2769-.2158.2769-.2461,0-1.3555-.0308-1.57-.0308-.0469,0-.0772.1236-.0772.1387,0,.57.03,3.3716.0459,3.8184.0459.5849.17.708.3232.7544.1231.0463.293.0463.4932.0922.1846.0464.2774.0772.2774.1387,0,.0772-.1084.1079-.2471.1079-.4463,0-.6924-.0464-1.4776-.0464-.3544,0-.6933.0464-.955.0616-.1387,0-.23-.0308-.23-.0923s.1074-.1079.3076-.1538c.37-.0928.4463-.3081.4463-.8623Z"/><path class="cls-4" d="M129.5723,72.1375a2.9487,2.9487,0,0,1-2.9258,2.9712,2.936,2.936,0,0,1-1.8779-5.2344,3.1592,3.1592,0,0,1,1.8476-.6469A2.89,2.89,0,0,1,129.5723,72.1375Zm-4.8037-.2158a3.5209,3.5209,0,0,0,.6464,2.1094,1.8286,1.8286,0,0,0,1.4473.8159,1.52,1.52,0,0,0,.97-.3848,3.0682,3.0682,0,0,0,.6465-2.063c0-1.4629-.7392-2.91-2.0937-2.91C125.6,69.4891,124.7686,70.3206,124.7686,71.9217Z"/><path class="cls-4" d="M131.3281,74.5086a1.6142,1.6142,0,0,1-.292-.9394c0-.5079,0-3.11-.0312-3.3716a.5988.5988,0,0,0-.3389-.5083c-.1387-.0923-.1846-.1382-.1846-.1846s.0772-.0771.2461-.0771a5.4066,5.4066,0,0,0,1.294-.2c.0459-.0152.0918.0771.0771.1694-.0468.8779-.0625,2.9717-.0468,3.68a1.6972,1.6972,0,0,0,.2314,1.0161,1.1314,1.1314,0,0,0,.8623.3852,1.7281,1.7281,0,0,0,1.3086-.4926.9435.9435,0,0,0,.2764-.7085c.0312-.4156.0312-1.0161.0312-1.57,0-.231-.0156-.9546-.0156-1.355-.0156-.5235-.169-.6-.6768-.708-.17-.0308-.247-.0772-.247-.1231,0-.062.1386-.0927.2314-.0927H134.7a8.1768,8.1768,0,0,0,1.0625-.0923c.0459,0,.0771.0615.0615.1694-.0771.7236-.1084,2.2632-.1084,4.0493a5.067,5.067,0,0,0,.0313.7852c.0312.1538.0771.1845.2.1694a4.3359,4.3359,0,0,1,.6308-.1387.1854.1854,0,0,1,.1856.1695c0,.0615-.1387.0923-.293.123a6.9508,6.9508,0,0,0-1.5859.4155c-.1231.0616-.1543.0464-.1846,0s-.0313-.123-.0313-.2924c0-.1538.0157-.4927.0157-.6006,0-.0459-.0157-.1538-.0459-.1074a4.4339,4.4339,0,0,1-1.0625.7543,2.6327,2.6327,0,0,1-.9082.231A1.514,1.514,0,0,1,131.3281,74.5086Z"/><path class="cls-4" d="M142.0615,69.7513a3.2037,3.2037,0,0,1,.4922,2.0166c0,.8159.0156.9394.0156,1.709.0157,1.0468.0616,1.1391.4776,1.247.1386.0616.23.0923.23.1538,0,.0928-.123.108-.2763.108-.2,0-.6475-.0616-.9854-.0616-.5234,0-.7236.0616-.9551.0616-.1386,0-.246-.0308-.246-.0923s.0927-.1231.2919-.1695c.37-.0922.4317-.2.4317-.6464V71.9837c0-1.2471-.1074-1.6167-.4932-1.9092a1.3657,1.3657,0,0,0-.8769-.2925,1.842,1.842,0,0,0-1.2012.4927.799.799,0,0,0-.1846.4619c0,.1846.0157.97.0157,1.8936a12.6657,12.6657,0,0,0,.0917,1.6167c.0469.3384.2315.4155.4776.4927.1846.0459.2617.0766.2617.1538,0,.0923-.1543.0923-.3076.0923-.1231,0-.8779-.0616-1.2324-.0616-.2,0-.5235.0308-.8155.0308-.17,0-.2929-.0308-.2929-.1079,0-.0615.1386-.1231.3232-.1538.3848-.0772.4473-.1846.4619-.4927.0313-1.1084.0313-2.5249.0313-3.772,0-.1538-.0313-.3232-.4-.5234-.0928-.0615-.1231-.0923-.1231-.1387,0-.0307.0772-.0771.2159-.123a5.7989,5.7989,0,0,0,1.2158-.5235c.0459-.0156.123.0459.1074.1231a7.0956,7.0956,0,0,0-.03.8159c0,.0308.0459.0771.0772.0464a5.293,5.293,0,0,1,1.0927-.6929,2.0768,2.0768,0,0,1,.9083-.185A1.5707,1.5707,0,0,1,142.0615,69.7513Z"/><path class="cls-4" d="M148.2979,69.3817c.0312.0151.0771-.0464.0771-.0772,0-.2769-.0156-3.0024-.0312-3.8184a.4073.4073,0,0,0-.0616-.2617.8387.8387,0,0,0-.4306-.2461c-.1075-.0307-.1846-.0771-.1846-.123s.0771-.0928.1846-.1079a6.4811,6.4811,0,0,0,1.3242-.37.52.52,0,0,1,.2148-.0771c.0469,0,.0772.0771.0625.2617-.0312.4619-.1084,5.4658-.1084,7.0361,0,1.3394.0157,2.4019.0313,2.8023a.1366.1366,0,0,0,.1074.1387,4.0042,4.0042,0,0,0,.7236-.1695c.0928-.0307.1387.0152.1387.0616,0,.1079-.1074.2465-.3848.2924a8.6712,8.6712,0,0,0-1.6015.4c-.0615.0152-.1074-.0615-.1074-.1079a4.5712,4.5712,0,0,0,.03-.6313c0-.0308-.03-.0616-.0615-.0308a2.8886,2.8886,0,0,1-1.7549.7236,2.511,2.511,0,0,1-1.6318-.6464,2.9187,2.9187,0,0,1-.8008-2.063,3.0641,3.0641,0,0,1,1.34-2.5406,3.46,3.46,0,0,1,1.9092-.5849A4.2521,4.2521,0,0,1,148.2979,69.3817Zm-2.294.4155a2.7338,2.7338,0,0,0-.8467,2.2324c0,1.6631.94,2.5249,1.878,2.5249a1.6051,1.6051,0,0,0,1.0937-.4,1.0469,1.0469,0,0,0,.169-.5693,21.2843,21.2843,0,0,0-.0157-2.9717.9974.9974,0,0,0-.1386-.37,1.7136,1.7136,0,0,0-1.37-.708A1.1366,1.1366,0,0,0,146.0039,69.7972Z"/><path class="cls-4" d="M57.9023,83.0252a9.441,9.441,0,0,0,1.9551-.4,1.6162,1.6162,0,0,1,.3389-.1079c.0312,0,.0615.0156.0615.1079,0,.2-.0156,1.57-.0459,2.5713-.0156,1.293.0156,4.5264.0459,5.1885.0459.9546.1231,1.0469.7695,1.1548.17.0307.2471.0923.2471.1538s-.0928.1079-.293.1079c-.7851,0-1.2626-.0772-1.8007-.0772-.7549,0-1.0479.0772-1.586.0772-.1386,0-.2617-.0308-.2617-.1235,0-.0616.0918-.0923.2461-.1231.7236-.123.8623-.2617.8926-1.17.0469-.4776.0771-1.3086.0771-3.9414,0-1.8628-.0156-2.3711-.0459-2.7559a.3765.3765,0,0,0-.2-.3389,2.3449,2.3449,0,0,0-.3847-.0922c-.0928-.0157-.2315-.0616-.2315-.1231C57.6865,83.0867,57.7793,83.04,57.9023,83.0252Z"/><path class="cls-4" d="M64.5547,83.0252a9.4438,9.4438,0,0,0,1.9551-.4,1.6157,1.6157,0,0,1,.3388-.1079c.0313,0,.0616.0156.0616.1079,0,.2-.0157,1.57-.0459,2.5713-.0157,1.293.0156,4.5264.0459,5.1885.0459.9546.123,1.0469.7695,1.1548.17.0307.2471.0923.2471.1538s-.0928.1079-.293.1079c-.7852,0-1.2627-.0772-1.8008-.0772-.7549,0-1.0478.0772-1.5859.0772-.1387,0-.2617-.0308-.2617-.1235,0-.0616.0917-.0923.246-.1231.7237-.123.8624-.2617.8926-1.17.0469-.4776.0772-1.3086.0772-3.9414,0-1.8628-.0157-2.3711-.0459-2.7559a.3768.3768,0,0,0-.2-.3389,2.3487,2.3487,0,0,0-.3848-.0922c-.0928-.0157-.2314-.0616-.2314-.1231C64.3389,83.0867,64.4316,83.04,64.5547,83.0252Z"/><path class="cls-4" d="M72.5625,91.17a1.9191,1.9191,0,0,1-.1846-.9546V87.0589a.2659.2659,0,0,0-.1074-.2617,1.0418,1.0418,0,0,0-.2461-.0923c-.124-.0308-.2-.0772-.2-.1538,0-.0464.0762-.1235.2461-.2158a5.0867,5.0867,0,0,0,1.4473-1.0933c.23-.231.3388-.1694.3388-.0923,0,.1079-.0312.7544-.0156.8775,0,.0463.0156.1543.0772.1543.292-.0157,1.3242-.0464,1.57-.0308a.3.3,0,0,1,.123.2769c0,.3388-.1074.354-.1689.354H74.0869c-.1846,0-.2158.062-.2158.1386,0,.3389-.0147,2.8023,0,3.2027a1.1013,1.1013,0,0,0,.17.708.951.951,0,0,0,.7393.3388,1.2383,1.2383,0,0,0,.708-.185c.1533-.0923.2-.0459.2,0,0,.0928-.0772.2158-.3233.416a2.12,2.12,0,0,1-1.3857.4619A1.5109,1.5109,0,0,1,72.5625,91.17Z"/><path class="cls-4" d="M76.4287,86.4583a6.9682,6.9682,0,0,0,1.5088-.4619,1.3706,1.3706,0,0,1,.2305-.0923c.0459,0,.0771.0464.0615.2158-.03.3233-.03,1.1084-.03,1.7549,0,1.7246,0,2.9561.03,3.187a.4659.4659,0,0,0,.416.4776c.169.0459.2149.0923.2149.1538,0,.0771-.1075.1079-.23.1079-.2617,0-.6162-.0772-1.2627-.0772-.6768,0-1.0313.0308-1.2012.0308-.1377,0-.2617-.0464-.2617-.1079,0-.0767.0928-.1074.2773-.1382.4-.0928.5088-.293.5088-.8315,0-.462.0459-3.1407.0459-3.295,0-.2924,0-.354-.4-.6313-.0771-.0615-.123-.1074-.123-.169C76.2129,86.5511,76.2588,86.5047,76.4287,86.4583Zm1.832-2.4477a.7373.7373,0,0,1-.7548.77.6961.6961,0,0,1-.6465-.708.7365.7365,0,0,1,.7236-.7852A.7247.7247,0,0,1,78.2607,84.0106Z"/><path class="cls-4" d="M79.6621,86.6741c0-.0464.0928-.1079.2-.123a4.8517,4.8517,0,0,0,1.4014-.5547.5308.5308,0,0,1,.2763-.1074c.0625,0,.0772.0766.0772.1538,0,.1694,0,.5542-.0147.708,0,.0771.0147.1387.0762.0771a2.9512,2.9512,0,0,1,1.8789-.8315,1.5864,1.5864,0,0,1,1.4776.97.075.075,0,0,0,.1084.0152,2.9457,2.9457,0,0,1,2.0322-.97,1.611,1.611,0,0,1,1.539,1.1392,4.9537,4.9537,0,0,1,.1846,1.4321c.0156.5078.0469,1.7241.0615,2.2476s.17.6157.4473.6621c.1533.0464.2461.1079.2461.1387,0,.0766-.0928.1386-.293.1386-.1689,0-.8-.0464-1.1543-.0464-.3691,0-.9238.0616-1.1543.0616-.2,0-.2773-.0308-.2773-.1079s.123-.1231.23-.1539c.3232-.0771.416-.2461.416-.6928a21.0653,21.0653,0,0,0-.1074-3.0327c-.1387-.7857-.5391-1.0474-1.14-1.0474a1.4737,1.4737,0,0,0-.9394.4.5451.5451,0,0,0-.0616.3081c.0928.6006.0928,3.0176.1084,3.4331.0459.4311.0918.5234.4307.6162.1543.0615.23.1074.23.169s-.1075.0927-.23.0927c-.5234,0-.7549-.0464-1.4473-.0464-.3545,0-.7851.0464-.9541.0464-.2158,0-.2627-.0307-.2627-.0927,0-.0459.0625-.1075.2158-.1539.3233-.0771.462-.2.462-.57l.0459-2.4634c0-.8159-.0459-1.1391-.3536-1.478a1.1,1.1,0,0,0-.7851-.3076,1.2434,1.2434,0,0,0-.8779.3384,1.0237,1.0237,0,0,0-.1231.2622c-.0156.2-.03.5234-.03,1.185a22.323,22.323,0,0,0,.0762,2.6329c.0313.2158.1084.3081.4.3852.17.0615.2314.1074.2314.1538,0,.0772-.1084.1079-.2314.1079-.2773,0-.8623-.0464-1.2314-.0464-.6465,0-.9239.0464-1.293.0464-.1387,0-.2471-.0464-.2471-.1079,0-.0771.0928-.1079.2774-.1538.3847-.0928.4775-.231.4931-.5083.03-.2461.0459-2.0937.0459-2.6479,0-.3853.0156-.7852-.0156-1.0318,0-.1538-.0772-.2925-.3076-.4619-.0928-.0771-.1231-.1079-.1231-.1846Z"/><path class="cls-4" d="M95.1992,87.6439a.2317.2317,0,0,1-.1846.2158c-.1689-.0156-2.0781-.0464-2.4941-.0464h-.5547c-.0459,0-.1074.0771-.1387.123a2.3676,2.3676,0,0,0-.0761.6314,2.5294,2.5294,0,0,0,.6767,1.8169,2.074,2.074,0,0,0,2.7715.1387c.1084-.1236.17-.0928.17-.0157s-.0312.1231-.1084.231a2.7233,2.7233,0,0,1-2.2627,1.17,2.5387,2.5387,0,0,1-1.9091-.8A3.059,3.059,0,0,1,90.35,89.03a3.1431,3.1431,0,0,1,1.0313-2.3555,2.9044,2.9044,0,0,1,1.8789-.6928A1.8107,1.8107,0,0,1,95.1992,87.6439Zm-2.956-.939a1.8245,1.8245,0,0,0-.3389.7852c0,.0307.0312.0922.0771.0922l1.4629-.0151c.4161,0,.4463-.231.4463-.37a1.1965,1.1965,0,0,0-.2158-.7393.768.768,0,0,0-.5693-.2617A1.1976,1.1976,0,0,0,92.2432,86.7049Z"/><path class="cls-4" d="M97.3867,87.0589c0,.6006.5235.8931,1.1543,1.2935.9707.6464,1.34,1.0468,1.34,1.832a1.7172,1.7172,0,0,1-.708,1.2934,3.0124,3.0124,0,0,1-1.5088.4307,4.2681,4.2681,0,0,1-1.34-.2617c-.1074-.0459-.2617-.1846-.2617-.2925-.0156-.2153-.0615-.6929-.0771-.8467-.0147-.2.0156-.3081.0771-.3081.0469,0,.1084.0464.2.3238a1.94,1.94,0,0,0,.6465.9233,1.1421,1.1421,0,0,0,.77.2.9217.9217,0,0,0,.9238-.8618c0-.4468-.3242-.77-1.1094-1.2627a2.2855,2.2855,0,0,1-1.247-1.8013,1.5836,1.5836,0,0,1,.7549-1.37,2.31,2.31,0,0,1,1.3085-.37,3.5528,3.5528,0,0,1,1.2012.2.2039.2039,0,0,1,.0918.1538c0,.1538.0615.4311.0772.8315.0156.1694-.03.2461-.0918.2461s-.0928-.0767-.1387-.2a1.4129,1.4129,0,0,0-.3848-.708,1.2849,1.2849,0,0,0-.8008-.2773A.8873.8873,0,0,0,97.3867,87.0589Z"/><path class="cls-4" d="M105.01,86.9666a.5374.5374,0,0,0-.1543.4c-.0157,1.4932.03,3.0791.0771,3.6025.0459.2925.1231.4927.4922.57.17.0307.2773.0766.2773.1382,0,.0463-.0927.1235-.2773.1235-.4463,0-1.0625-.0772-1.3242-.0772-.6621,0-.8613.0616-1.2315.0616-.1689,0-.2773-.0459-.2773-.1079s.0615-.1075.2471-.1539c.4306-.0922.4922-.2.5078-.6928.03-.5386.0459-2.0015.0459-4.1109,0-2.3091.0156-3.4179-.0156-3.9257-.03-.4927-.0762-.5235-.462-.7085-.0615-.0459-.1074-.0923-.1074-.1382,0-.0616.0928-.1079.2617-.1543a11.04,11.04,0,0,0,1.586-.4927.7536.7536,0,0,1,.2-.0615c.0459,0,.0918.0464.0918.2925,0,.2309-.0918,4.9423-.0762,5.1733,0,.0308.0459.0767.0762.0459a4.0644,4.0644,0,0,1,.832-.5386,2.1666,2.1666,0,0,1,.9395-.2309,1.7149,1.7149,0,0,1,1.4472.6621,2.6351,2.6351,0,0,1,.3848,1.6162c.0146,1.0317.0146,1.9707.03,2.7563,0,.2617.0459.4463.4619.5235.2.0459.2617.0766.2617.1538s-.169.1079-.2617.1079c-.4619,0-.6465-.0772-1.2471-.0772-.77,0-.8008.0616-1.2773.0616-.1856,0-.2471-.0616-.2471-.1079,0-.0616.0771-.0923.2314-.1231.4463-.123.4619-.2617.5078-.77.0313-.3545.0616-1.1548.0616-2.4175a3.1167,3.1167,0,0,0-.2-1.2471.9981.9981,0,0,0-.94-.5078A1.4143,1.4143,0,0,0,105.01,86.9666Z"/><path class="cls-4" d="M114.8184,87.6439a.2318.2318,0,0,1-.1846.2158c-.169-.0156-2.0781-.0464-2.4942-.0464h-.5546c-.0459,0-.1075.0771-.1387.123a2.3671,2.3671,0,0,0-.0762.6314,2.529,2.529,0,0,0,.6768,1.8169,2.0739,2.0739,0,0,0,2.7715.1387c.1084-.1236.17-.0928.17-.0157s-.0313.1231-.1084.231a2.7234,2.7234,0,0,1-2.2627,1.17,2.5389,2.5389,0,0,1-1.9092-.8,3.0594,3.0594,0,0,1-.7392-2.0786A3.143,3.143,0,0,1,111,86.6741a2.9044,2.9044,0,0,1,1.8789-.6928A1.8108,1.8108,0,0,1,114.8184,87.6439Zm-2.9561-.939a1.8245,1.8245,0,0,0-.3389.7852c0,.0307.0313.0922.0772.0922l1.4629-.0151c.416,0,.4463-.231.4463-.37a1.1966,1.1966,0,0,0-.2159-.7393.768.768,0,0,0-.5693-.2617A1.1976,1.1976,0,0,0,111.8623,86.7049Z"/><path class="cls-4" d="M119.5615,86.6126a2.76,2.76,0,0,1,.3848,1.54c0,.7387-.03,2.0322-.03,2.4326a.4977.4977,0,0,0,.5078.4927.8418.8418,0,0,0,.4317-.1236c.0615-.0459.123.062.0761.1543a1.5756,1.5756,0,0,1-1.416.8,1.11,1.11,0,0,1-1.0312-.7236c0-.0152-.0469-.0308-.0772-.0152a1.9637,1.9637,0,0,1-1.4931.708,1.3254,1.3254,0,0,1-1.2471-1.3852,1.1045,1.1045,0,0,1,.5693-.9546c.4-.2,1.6778-.5239,2.0938-.6929a.3072.3072,0,0,0,.2-.2309,6.0245,6.0245,0,0,0,.0156-.7393,1.3688,1.3688,0,0,0-.3389-1.1084.945.945,0,0,0-.6006-.2617,1.16,1.16,0,0,0-.539.1387.3743.3743,0,0,0-.1533.2617c0,.0767.0146.3076.0146.4463a.278.278,0,0,1-.0918.123,5.3609,5.3609,0,0,1-.9394.4927.1849.1849,0,0,1-.1846-.1689,1.2613,1.2613,0,0,1,.4-.647,4.2578,4.2578,0,0,1,1.17-.8467,2.6259,2.6259,0,0,1,1.0313-.3232A1.4835,1.4835,0,0,1,119.5615,86.6126Zm-1.247,4.3721a.6325.6325,0,0,0,.1386-.3076,14.6078,14.6078,0,0,0,.0772-1.54c0-.0156-.03-.1079-.0928-.0923a5.2811,5.2811,0,0,0-.9854.3848.84.84,0,0,0-.4462.8.8765.8765,0,0,0,.832.9394A.6119.6119,0,0,0,118.3145,90.9847Z"/><path class="cls-4" d="M123.5039,87.9827c0,2.0015.0156,2.6172.0313,2.8946.0156.4926.1074.5542.5078.6464.0927.0157.2.0616.2.1387,0,.0615-.1534.1079-.3077.1079-.4619,0-1.0781-.0464-1.3085-.0464-.4161,0-.7393.0308-1.1553.0308-.1533,0-.2764-.0308-.2764-.1079s.1074-.1074.23-.1382c.416-.0771.5078-.1694.539-.8315.03-.6314.0928-3.4952.1075-4.9732,0-.8467.0156-2.4785,0-3.0019,0-.3545-.0772-.4619-.4307-.647-.1084-.0615-.1543-.1231-.1543-.169s.0928-.0927.2315-.1235a8.7768,8.7768,0,0,0,1.5546-.4311.6639.6639,0,0,1,.2159-.0616c.03,0,.0615.0923.0615.1695,0,.1079-.0469,2.6792-.0469,5.3423Z"/><path class="cls-4" d="M125.66,91.17a1.9191,1.9191,0,0,1-.1846-.9546V87.0589a.2659.2659,0,0,0-.1074-.2617,1.0418,1.0418,0,0,0-.2461-.0923c-.1241-.0308-.2-.0772-.2-.1538,0-.0464.0761-.1235.2461-.2158a5.0864,5.0864,0,0,0,1.4472-1.0933c.23-.231.3389-.1694.3389-.0923,0,.1079-.0312.7544-.0156.8775,0,.0463.0156.1543.0771.1543.292-.0157,1.3242-.0464,1.57-.0308a.3.3,0,0,1,.1231.2769c0,.3388-.1074.354-.169.354h-1.3554c-.1846,0-.2158.062-.2158.1386,0,.3389-.0147,2.8023,0,3.2027a1.1007,1.1007,0,0,0,.17.708.9507.9507,0,0,0,.7392.3388,1.2381,1.2381,0,0,0,.708-.185c.1534-.0923.2-.0459.2,0,0,.0928-.0771.2158-.3232.416a2.12,2.12,0,0,1-1.3858.4619A1.5108,1.5108,0,0,1,125.66,91.17Z"/><path class="cls-4" d="M131.2969,86.9666a.5374.5374,0,0,0-.1543.4c-.0156,1.4932.03,3.0791.0771,3.6025.0459.2925.1231.4927.4922.57.17.0307.2774.0766.2774.1382,0,.0463-.0928.1235-.2774.1235-.4463,0-1.0625-.0772-1.3242-.0772-.6621,0-.8613.0616-1.2315.0616-.1689,0-.2773-.0459-.2773-.1079s.0615-.1075.2471-.1539c.4306-.0922.4922-.2.5078-.6928.03-.5386.0459-2.0015.0459-4.1109,0-2.3091.0156-3.4179-.0156-3.9257-.03-.4927-.0762-.5235-.462-.7085-.0615-.0459-.1074-.0923-.1074-.1382,0-.0616.0928-.1079.2617-.1543a11.04,11.04,0,0,0,1.586-.4927.7536.7536,0,0,1,.2-.0615c.0459,0,.0918.0464.0918.2925,0,.2309-.0918,4.9423-.0762,5.1733,0,.0308.0459.0767.0762.0459a4.0644,4.0644,0,0,1,.832-.5386,2.1666,2.1666,0,0,1,.94-.2309,1.7149,1.7149,0,0,1,1.4472.6621,2.6351,2.6351,0,0,1,.3848,1.6162c.0146,1.0317.0146,1.9707.03,2.7563,0,.2617.0459.4463.4619.5235.2.0459.2617.0766.2617.1538s-.1689.1079-.2617.1079c-.4619,0-.6465-.0772-1.2471-.0772-.7695,0-.8008.0616-1.2773.0616-.1856,0-.2471-.0616-.2471-.1079,0-.0616.0771-.0923.2314-.1231.4463-.123.462-.2617.5079-.77.0312-.3545.0615-1.1548.0615-2.4175a3.1167,3.1167,0,0,0-.2-1.2471.998.998,0,0,0-.94-.5078A1.4143,1.4143,0,0,0,131.2969,86.9666Z"/><path class="cls-4" d="M140.6436,87.2435a.6353.6353,0,0,0-.169.3545,10.0045,10.0045,0,0,0-.0312,1.1855c0,1.0928.0312,1.74.0615,2.0938.0615.4619.17.5693.7392.6464.2159.0308.2774.0772.2774.1539s-.1231.1079-.3233.1079c-.4316,0-.708-.0616-1.4472-.0616-.9239,0-.9082.0772-1.2783.0772-.2,0-.292-.0464-.292-.1079s.0615-.1387.23-.1695c.3545-.0771.4776-.2.5235-.6313.0156-.2617.0312-1.1392.0468-2.1553,0-.97.0147-1.37,0-1.5552,0-.0922-.0468-.123-.4-.4311-.0928-.0767-.1241-.1074-.1241-.1538s.1084-.1079.17-.1387a7.9046,7.9046,0,0,0,1.4775-.5078.5173.5173,0,0,1,.2617-.0923c.0313,0,.0772.0923.0772.169,0,.2773-.03.7085-.03,1.0473,0,.0767.0615.0923.0771.0459.4307-.5693.9854-1.124,1.585-1.124a.8648.8648,0,0,1,.5088.1543c.1533.1074.2148.1846.2148.3076a1.5772,1.5772,0,0,1-.4619.7393c-.1533.1538-.2305.1845-.3076.1845a.436.436,0,0,1-.2617-.1079,1.2482,1.2482,0,0,0-.6006-.2461A.7223.7223,0,0,0,140.6436,87.2435Z"/><path class="cls-4" d="M143.4473,86.4583a6.97,6.97,0,0,0,1.5088-.4619,1.3361,1.3361,0,0,1,.2314-.0923c.0459,0,.0762.0464.0615.2158-.0312.3233-.0312,1.1084-.0312,1.7549,0,1.7246,0,2.9561.0312,3.187a.4652.4652,0,0,0,.4151.4776c.17.0459.2158.0923.2158.1538,0,.0771-.1074.1079-.2315.1079-.2617,0-.6152-.0772-1.2617-.0772-.6777,0-1.0322.0308-1.2012.0308-.1386,0-.2617-.0464-.2617-.1079,0-.0767.0928-.1074.2774-.1382.4-.0928.5078-.293.5078-.8315,0-.462.0459-3.1407.0459-3.295,0-.2924,0-.354-.4-.6313-.0762-.0615-.1231-.1074-.1231-.169C143.2314,86.5511,143.2783,86.5047,143.4473,86.4583Zm1.832-2.4477a.7371.7371,0,0,1-.7539.77.6969.6969,0,0,1-.6475-.708.7366.7366,0,0,1,.7237-.7852A.7241.7241,0,0,1,145.2793,84.0106Z"/><path class="cls-4" d="M147.9287,87.0589c0,.6006.5234.8931,1.1543,1.2935.97.6464,1.34,1.0468,1.34,1.832a1.7178,1.7178,0,0,1-.709,1.2934,3.0124,3.0124,0,0,1-1.5088.4307,4.2677,4.2677,0,0,1-1.3389-.2617c-.1084-.0459-.2617-.1846-.2617-.2925-.0156-.2153-.0615-.6929-.0772-.8467-.0156-.2.0157-.3081.0772-.3081.0459,0,.1074.0464.2.3238a1.9335,1.9335,0,0,0,.6465.9233,1.1409,1.1409,0,0,0,.7695.2.9217.9217,0,0,0,.9238-.8618c0-.4468-.3232-.77-1.1084-1.2627a2.2855,2.2855,0,0,1-1.247-1.8013,1.5849,1.5849,0,0,1,.7539-1.37,2.3137,2.3137,0,0,1,1.3095-.37,3.546,3.546,0,0,1,1.2.2.2022.2022,0,0,1,.0928.1538c0,.1538.0615.4311.0772.8315.0146.1694-.0313.2461-.0928.2461s-.0928-.0767-.1387-.2a1.4121,1.4121,0,0,0-.3848-.708,1.2848,1.2848,0,0,0-.8007-.2773A.8865.8865,0,0,0,147.9287,87.0589Z"/><path class="cls-4" d="M155.3652,86.1658c.57,0,1.0782-.0766,1.6172-.0766.169,0,.2617.0459.2617.0923,0,.0615-.0615.0922-.2461.1386a2.714,2.714,0,0,0-1.34.6773,13.8479,13.8479,0,0,0-1.14,1.0312c-.03.0313,0,.0772.0156.1079.5547.7544,1.5859,2.0323,2.1865,2.6944.4463.4926.6006.6313,1.0469.7085.1543.0307.2158.0766.2158.1382,0,.0771-.124.1235-.293.1235-.8779,0-1.3545-.0772-2.0322-.0772-.293,0-.5234.0308-.7393.0308-.1845,0-.2617-.0308-.2617-.1079s.0616-.1074.293-.169c.2461-.0771.3076-.185.1689-.4-.23-.3082-1.0625-1.34-1.539-1.8941-.1543-.1846-.2617-.3076-.3086-.3076s-.0459.0459-.0615.123c-.03.2461-.0157,1.0933,0,1.6167.0312.7544.2314.8.57.8775.1533.0307.2617.0923.2617.1538,0,.0928-.1856.1235-.293.1235-.4463,0-.9394-.0464-1.34-.0464-.6,0-1.1387.0616-1.2158.0616-.1231,0-.2618-.0459-.2618-.1079s.0928-.1075.2159-.1382c.4619-.1079.5234-.2618.5537-.77.0615-1.124.0771-2.2788.0771-3.4638,0-.647.0313-3.3565.0313-4.2188a3.2693,3.2693,0,0,0-.0625-.7392c0-.1074-.1377-.2154-.3692-.3384-.0615-.0464-.1386-.0923-.1386-.1387,0-.0615.1084-.123.2929-.1538a5.4181,5.4181,0,0,0,1.4932-.4311.84.84,0,0,1,.2773-.0772.1424.1424,0,0,1,.0616.1079c-.0157.5386-.0928,2.0786-.0928,3.2329,0,.5235-.0772,3.1411-.0615,3.9107,0,.1386.0312.2158.0771.2158a.7288.7288,0,0,0,.2617-.1387,8.19,8.19,0,0,0,1.6475-1.601.5075.5075,0,0,0,.1387-.2466c0-.0767-.0928-.2154-.5547-.2769-.1533-.0307-.2461-.0615-.2461-.1387,0-.0615.123-.1079.2617-.1079Z"/><path class="cls-4" d="M61.9668,103.5823a2.8407,2.8407,0,0,1,.6621,1.8477,3.1425,3.1425,0,0,1-2.2324,3.0635,3.0481,3.0481,0,0,1-1.0313.1845,4.1941,4.1941,0,0,1-.6777-.0761c-.0459,0-.0928.0761-.1084.1074a9.381,9.381,0,0,0-.0459,1.4775,14.4071,14.4071,0,0,0,.0772,1.586c.0458.4463.2617.57.7236.6621.1689.0469.23.0771.23.1543s-.169.0918-.3692.0918c-.2305,0-.831-.0616-1.5244-.0616-.4922,0-1.0625.1084-1.2314.1084-.2,0-.292-.0468-.292-.0927,0-.0772.0459-.1075.2148-.1533.4775-.1241.6006-.2315.6465-.6163,0-.2.0615-1.14.0615-2.4482,0-2.74-.03-4.4189-.0459-4.85-.03-.5547-.0615-.6621-.3535-.8623-.0928-.0459-.17-.1231-.17-.169,0-.0615.0771-.123.2158-.1543a14.8529,14.8529,0,0,0,1.5244-.6162c.1231-.0918.1846-.1377.2764-.1377.0312,0,.0771.03.0771.169,0,.0615-.0459.5234-.0459.6308,0,.0313.03.1084.0772.0772a2.9483,2.9483,0,0,1,1.7705-.6777A2.2512,2.2512,0,0,1,61.9668,103.5823Zm-1.5088,4.542a2.8189,2.8189,0,0,0,.6777-2.0634,2.7646,2.7646,0,0,0-.8164-2.2481,1.5353,1.5353,0,0,0-.9082-.3076,1.43,1.43,0,0,0-.7549.2.4251.4251,0,0,0-.123.2314c-.0459.4766-.03,2.9405,0,3.3555a1.4668,1.4668,0,0,0,.1846.4473,1.718,1.718,0,0,0,1.2168.6005A.8371.8371,0,0,0,60.458,108.1243Z"/><path class="cls-4" d="M69.7275,105.6917a3.0818,3.0818,0,0,1-1.2,2.417,3.2564,3.2564,0,0,1-1.8476.6006,2.9773,2.9773,0,0,1-3.0947-2.94,2.8342,2.8342,0,0,1,1.0927-2.2793,3.1394,3.1394,0,0,1,1.9707-.708A2.9213,2.9213,0,0,1,69.7275,105.6917Zm-4.5107-.3389a4.6208,4.6208,0,0,0,.4775,2.2637,1.4905,1.4905,0,0,0,1.17.8467.9108.9108,0,0,0,.708-.3545,3.6382,3.6382,0,0,0,.5088-2.0937c0-1.7549-.4932-2.9717-1.5713-2.9717C65.8486,103.0433,65.2168,104.013,65.2168,105.3528Z"/><path class="cls-4" d="M72.7168,104.7835c0,2.001.0156,2.6172.0312,2.8945.0147.4922.1075.5538.5079.6465.0918.0156.2.0615.2.1387,0,.0615-.1543.1074-.3086.1074-.462,0-1.0772-.0459-1.3086-.0459-.4151,0-.7383.03-1.1543.03-.1543,0-.2774-.03-.2774-.1074s.1084-.1075.2315-.1387c.415-.0771.5078-.1689.5381-.8311.0312-.6318.0927-3.4951.1084-4.9736,0-.8467.0156-2.4785,0-3.0019,0-.3545-.0772-.462-.4317-.647-.1074-.0615-.1533-.1231-.1533-.169s.0918-.0927.2305-.1235a8.7918,8.7918,0,0,0,1.5556-.4311.6523.6523,0,0,1,.2149-.0616c.0312,0,.0615.0923.0615.1695,0,.1079-.0459,2.68-.0459,5.3427Z"/><path class="cls-4" d="M76.3193,104.7835c0,2.001.0157,2.6172.0313,2.8945.0156.4922.1074.5538.5078.6465.0928.0156.2.0615.2.1387,0,.0615-.1533.1074-.3076.1074-.4619,0-1.0781-.0459-1.3086-.0459-.416,0-.7393.03-1.1553.03-.1533,0-.2764-.03-.2764-.1074s.1075-.1075.2305-.1387c.416-.0771.5078-.1689.5391-.8311.03-.6318.0927-3.4951.1074-4.9736,0-.8467.0156-2.4785,0-3.0019,0-.3545-.0772-.462-.4307-.647-.1084-.0615-.1543-.1231-.1543-.169s.0928-.0927.2315-.1235a8.7808,8.7808,0,0,0,1.5547-.4311.6634.6634,0,0,1,.2158-.0616c.03,0,.0615.0923.0615.1695,0,.1079-.0469,2.68-.0469,5.3427Z"/><path class="cls-4" d="M78.5684,108.1087a1.6543,1.6543,0,0,1-.3077-1.0781c-.0156-.5078-.0312-2.9561-.0468-3.2324-.0147-.3086-.1075-.3848-.3535-.5235-.1231-.0771-.17-.1387-.17-.1855s.0928-.0762.2315-.0762a8.2012,8.2012,0,0,0,1.7861-.2c.0615-.0156.0918.0918.0918.169-.0459.8779-.0615,2.7871-.0459,3.7109a1.6255,1.6255,0,0,0,.2.9385,1.0155,1.0155,0,0,0,.8154.3388,1.2014,1.2014,0,0,0,.8477-.3076.75.75,0,0,0,.1992-.5849c.0313-.4932.0469-1.2627.0469-1.6475,0-.2315,0-1.0938-.0313-1.4932-.0459-.5234-.1074-.6006-.5537-.6777-.1845-.0313-.2773-.0928-.2773-.1387,0-.0771.1543-.1074.2617-.1074h.8008c.5537,0,1.0469-.1387,1.247-.1387.0459,0,.0772.0772.0772.169-.0615.5547-.0772,2.5869-.0772,3.9111a6.2545,6.2545,0,0,0,.03.9238.1708.1708,0,0,0,.1846.1534c.1543-.03.3857-.0918.5244-.1075a.2132.2132,0,0,1,.1992.2c0,.0772-.1845.1075-.3379.1387a9.3106,9.3106,0,0,0-1.8789.4463c-.123.0459-.1845.03-.2158,0a.5721.5721,0,0,1-.03-.2461c0-.1543.0157-.4316.0157-.585,0-.0771-.0157-.124-.0469-.0927a3.9593,3.9593,0,0,1-.9541.6621,2.4843,2.4843,0,0,1-1.0166.2158A1.4649,1.4649,0,0,1,78.5684,108.1087Z"/><path class="cls-4" d="M85.3135,107.97a1.9183,1.9183,0,0,1-.1846-.9541V103.86c0-.1231-.0156-.2-.1084-.2617a1.034,1.034,0,0,0-.2461-.0928c-.123-.03-.2-.0772-.2-.1543,0-.0459.0772-.1231.2461-.2149a5.0736,5.0736,0,0,0,1.4473-1.0937c.2314-.23.3388-.1689.3388-.0918,0,.1074-.03.7539-.0156.877,0,.0468.0156.1543.0772.1543.2929-.0157,1.3242-.0459,1.57-.03a.298.298,0,0,1,.123.2763c0,.3389-.1074.3545-.1689.3545H86.8379c-.1856,0-.2158.0616-.2158.1387,0,.3389-.0157,2.8018,0,3.2022a1.1032,1.1032,0,0,0,.1689.708.9523.9523,0,0,0,.7393.3388,1.24,1.24,0,0,0,.708-.1845c.1543-.0928.2-.0459.2,0,0,.0927-.0772.2158-.3233.416a2.1207,2.1207,0,0,1-1.3857.4619A1.51,1.51,0,0,1,85.3135,107.97Z"/><path class="cls-4" d="M92.8428,103.4134a2.7572,2.7572,0,0,1,.3847,1.5391c0,.7392-.03,2.0322-.03,2.4326a.4976.4976,0,0,0,.5078.4931.8426.8426,0,0,0,.4316-.124c.0615-.0459.1231.0625.0762.1543a1.5764,1.5764,0,0,1-1.416.8008,1.1121,1.1121,0,0,1-1.0313-.7236c0-.0157-.0468-.0313-.0771-.0157a1.9622,1.9622,0,0,1-1.4932.708,1.3255,1.3255,0,0,1-1.2471-1.3857,1.1044,1.1044,0,0,1,.5694-.9541c.4-.2,1.6777-.5234,2.0937-.6924a.3086.3086,0,0,0,.2-.2314,6.0029,6.0029,0,0,0,.0156-.7393,1.37,1.37,0,0,0-.3388-1.1084.9478.9478,0,0,0-.6006-.2617,1.16,1.16,0,0,0-.5391.1387.376.376,0,0,0-.1533.2617c0,.0771.0147.3076.0147.4463a.2758.2758,0,0,1-.0918.123,5.37,5.37,0,0,1-.9395.4932c-.0918.0156-.1846-.0928-.1846-.169a1.2606,1.2606,0,0,1,.4-.6474,4.2689,4.2689,0,0,1,1.17-.8467,2.625,2.625,0,0,1,1.0312-.3232A1.4837,1.4837,0,0,1,92.8428,103.4134Zm-1.2471,4.3721a.6315.6315,0,0,0,.1387-.3077,14.66,14.66,0,0,0,.0771-1.54c0-.0156-.03-.1074-.0927-.0918a5.2435,5.2435,0,0,0-.9854.3848.8388.8388,0,0,0-.4463.8.8766.8766,0,0,0,.832.9394A.6132.6132,0,0,0,91.5957,107.7855Z"/><path class="cls-4" d="M99.88,103.305a2.7315,2.7315,0,0,1,.539,1.94c.0157.8926.0313,1.0469.0313,1.9092.0156.9541.0918,1.0772.5078,1.1855.0772.03.169.0616.169.1377,0,.0625-.0762.0928-.2149.0928-.3545,0-.8623-.0459-1.17-.0459a12.1208,12.1208,0,0,0-1.2783.0615c-.1543,0-.2618-.0459-.2618-.1084s.0928-.1074.23-.1377c.416-.124.4932-.2314.4932-.5859v-2.2627c0-1.1855-.0928-1.5088-.4619-1.8017a1.2287,1.2287,0,0,0-.7237-.2149,1.3867,1.3867,0,0,0-.831.292.4618.4618,0,0,0-.1543.3232c0,.293.0156,1.0167.0156,1.8018.0156.9541.0459,1.7246.0615,1.9092a.52.52,0,0,0,.4307.5234c.1846.0459.2471.0772.2471.1533,0,.0928-.17.1084-.2774.1084-.1543,0-1.0322-.0615-1.3857-.0615-.2,0-.6006.03-1.0625.03-.169,0-.293-.0459-.293-.1231,0-.0615.1387-.123.2774-.1543.4316-.0761.4619-.1992.4775-.5537.0312-.8925.0459-2.2324.0459-3.6494,0-.1533-.0459-.2763-.3535-.4922-.1387-.0927-.1231-.123-.1231-.1543,0-.0459.0762-.0918.2149-.123a7.8333,7.8333,0,0,0,1.6318-.6309c.0469-.0156.124.0459.124.1231a5.9719,5.9719,0,0,0-.0312.7695c0,.0313.0459.0469.0771.0156a4.4161,4.4161,0,0,1,.9082-.6,2.24,2.24,0,0,1,.9082-.2A1.5934,1.5934,0,0,1,99.88,103.305Z"/><path class="cls-4" d="M102.4375,107.97a1.9183,1.9183,0,0,1-.1846-.9541V103.86c0-.1231-.0156-.2-.1084-.2617a1.0322,1.0322,0,0,0-.2461-.0928c-.123-.03-.2-.0772-.2-.1543,0-.0459.0772-.1231.2461-.2149a5.0736,5.0736,0,0,0,1.4473-1.0937c.2314-.23.3389-.1689.3389-.0918,0,.1074-.03.7539-.0157.877,0,.0468.0157.1543.0772.1543.293-.0157,1.3242-.0459,1.57-.03.0313,0,.1231.1074.1231.2763,0,.3389-.1075.3545-.169.3545h-1.3545c-.1855,0-.2158.0616-.2158.1387,0,.3389-.0156,2.8018,0,3.2022a1.1032,1.1032,0,0,0,.1689.708.9523.9523,0,0,0,.7393.3388,1.24,1.24,0,0,0,.708-.1845c.1543-.0928.2-.0459.2,0,0,.0927-.0771.2158-.3232.416a2.1211,2.1211,0,0,1-1.3858.4619A1.51,1.51,0,0,1,102.4375,107.97Z"/><path class="cls-4" d="M107.4121,103.86c0,.6006.5234.8926,1.1543,1.2929.97.6465,1.34,1.0469,1.34,1.8321a1.7138,1.7138,0,0,1-.7089,1.2929,3.0043,3.0043,0,0,1-1.5088.4317,4.282,4.282,0,0,1-1.3389-.2617c-.1084-.0459-.2617-.1846-.2617-.293-.0156-.2148-.0615-.6924-.0772-.8467-.0156-.2.0157-.3076.0772-.3076.0459,0,.1074.0459.2.3232a1.9372,1.9372,0,0,0,.6465.9239,1.1441,1.1441,0,0,0,.7695.2.9218.9218,0,0,0,.9238-.8623c0-.4463-.3232-.77-1.1084-1.2627a2.2855,2.2855,0,0,1-1.247-1.8008,1.5843,1.5843,0,0,1,.7539-1.37,2.3137,2.3137,0,0,1,1.31-.37,3.5586,3.5586,0,0,1,1.2.2.2039.2039,0,0,1,.0928.1542c0,.1534.0615.4307.0772.8311.0146.17-.0313.2461-.0928.2461s-.0928-.0762-.1387-.2a1.4157,1.4157,0,0,0-.3848-.708,1.2879,1.2879,0,0,0-.8007-.2774A.8862.8862,0,0,0,107.4121,103.86Z"/><path class="cls-4" d="M113.3252,103.2747a7.75,7.75,0,0,0,1.1084-.4.6363.6363,0,0,1,.2305-.1084c.0468,0,.0771.0469.0615.2159-.03.3076-.03,1.247-.03,2.2324,0,1.2929,0,2.4326.03,2.6943.0312.3076.1855.3848.4316.4463.1543.0312.23.0615.23.123,0,.0772-.1231.1084-.2461.1084-.1387,0-.708-.0615-1.124-.0615-.5078,0-.7539.03-.9238.03-.1075,0-.2149-.03-.2149-.0918s.0762-.1084.292-.1387c.3389-.0927.4775-.2158.4932-.8467.0146-.4619.0459-3.2646.0459-3.4179,0-.2158-.0157-.3086-.4463-.5391-.0772-.0459-.1231-.0928-.1231-.123C113.1406,103.3509,113.1865,103.305,113.3252,103.2747Zm1.5391-2.51a.5857.5857,0,0,1-.5694.5849.5477.5477,0,0,1-.5078-.5693.57.57,0,0,1,.5391-.6011A.5629.5629,0,0,1,114.8643,100.765Z"/><path class="cls-4" d="M121.0234,103.3509a3.2139,3.2139,0,0,1,.4932,2.0176c0,.8154.0156.9384.0156,1.709.0147,1.0468.0616,1.1386.4766,1.247.1387.0615.2314.0918.2314.1533,0,.0928-.123.1084-.2773.1084-.2,0-.6465-.0615-.9854-.0615-.5234,0-.7236.0615-.9541.0615-.1386,0-.247-.0312-.247-.0927s.0927-.1231.2929-.169c.3692-.0927.4307-.2.4307-.6465v-2.0937c0-1.2481-.1074-1.6172-.4922-1.9092a1.366,1.366,0,0,0-.8779-.293,1.838,1.838,0,0,0-1.2.4932.7924.7924,0,0,0-.1856.4609c0,.1856.0157.9707.0157,1.8946a12.5627,12.5627,0,0,0,.0927,1.6162c.0459.3389.23.416.4766.4931.1855.0459.2617.0762.2617.1534,0,.0927-.1533.0927-.3076.0927-.123,0-.877-.0615-1.2314-.0615-.2,0-.5235.03-.8164.03-.169,0-.292-.03-.292-.1074,0-.0616.1386-.1231.3232-.1543.3848-.0772.4463-.1846.4619-.4922.03-1.1084.03-2.5254.03-3.7725,0-.1533-.03-.3232-.4-.5234-.0918-.0615-.123-.0918-.123-.1387,0-.03.0771-.0771.2158-.123a5.7356,5.7356,0,0,0,1.2168-.5235c.0459-.0156.123.0459.1074.1231a7.0915,7.0915,0,0,0-.0313.8164c0,.03.0469.0771.0772.0459a5.3172,5.3172,0,0,1,1.0937-.6924,2.0778,2.0778,0,0,1,.9082-.1855A1.5731,1.5731,0,0,1,121.0234,103.3509Z"/><path class="cls-4" d="M131.1875,105.7376a2.9486,2.9486,0,0,1-2.9248,2.9717,2.936,2.936,0,0,1-1.8789-5.2344,3.162,3.162,0,0,1,1.8476-.6474A2.89,2.89,0,0,1,131.1875,105.7376Zm-4.8037-.2158a3.5262,3.5262,0,0,0,.6465,2.1094,1.83,1.83,0,0,0,1.4472.8164,1.528,1.528,0,0,0,.9707-.3848,3.071,3.071,0,0,0,.6465-2.0635c0-1.4629-.7392-2.91-2.0937-2.91C127.2148,103.0892,126.3838,103.9212,126.3838,105.5218Z"/><path class="cls-4" d="M132.9443,108.1087a1.6122,1.6122,0,0,1-.2929-.9394c0-.5079,0-3.1094-.03-3.3711a.602.602,0,0,0-.3389-.5088c-.1386-.0918-.1845-.1377-.1845-.1846s.0761-.0772.2461-.0772a5.3712,5.3712,0,0,0,1.2929-.2c.0469-.0147.0928.0771.0772.17-.0459.8779-.0616,2.9717-.0459,3.68a1.7073,1.7073,0,0,0,.23,1.0156,1.13,1.13,0,0,0,.8623.3857,1.7271,1.7271,0,0,0,1.3086-.4931.9419.9419,0,0,0,.2774-.708c.0312-.4161.0312-1.0166.0312-1.57,0-.2314-.0156-.955-.0156-1.3554-.0156-.5235-.17-.6006-.6777-.708-.169-.03-.2461-.0772-.2461-.1231,0-.0615.1386-.0928.23-.0928h.6465a8.1858,8.1858,0,0,0,1.0625-.0917c.0469,0,.0772.0615.0616.1689-.0762.7236-.1075,2.2637-.1075,4.05a5.0713,5.0713,0,0,0,.0313.7852c.03.1533.0762.1845.1992.1689a4.3872,4.3872,0,0,1,.6318-.1387.1855.1855,0,0,1,.1846.17c0,.0615-.1387.0918-.293.123a6.9141,6.9141,0,0,0-1.5849.415c-.1231.0616-.1543.0469-.1856,0s-.03-.123-.03-.292c0-.1542.0156-.4931.0156-.6,0-.0459-.0156-.1543-.0469-.1075a4.4089,4.4089,0,0,1-1.0615.7539,2.6447,2.6447,0,0,1-.9092.2315A1.5114,1.5114,0,0,1,132.9443,108.1087Z"/><path class="cls-4" d="M140.69,103.9515a.8849.8849,0,0,0-.2617.539,8.7762,8.7762,0,0,0-.0156.94c0,1.14.0312,1.9394.0615,2.2627.0615.4775.2461.5849.832.6474.2149.03.292.0616.292.1377s-.1386.1084-.3691.1084c-.293,0-.8008-.0615-1.4473-.0615a8.37,8.37,0,0,0-.9394.0918c-.1846,0-.2617-.03-.2617-.0918,0-.0469.1074-.123.23-.1543a.6361.6361,0,0,0,.5547-.6308c.0313-.2618.0459-1.14.0459-2.1553v-1.709c0-.1084-.1074-.1543-.4-.4-.1074-.0771-.123-.124-.123-.1543s.0927-.0928.2314-.1387a4.6685,4.6685,0,0,0,.9854-.3691.4859.4859,0,0,1,.23-.0771c.0313,0,.0616.0615.0616.2158,0,.1689-.0147.7539-.0147,1,0,.0469.03.0615.0762.0156a2.5133,2.5133,0,0,1,1.6631-1.1084.8992.8992,0,0,1,.539.2.2681.2681,0,0,1,.1075.2158,1.0534,1.0534,0,0,1-.3389.5235c-.1377.123-.2.1386-.2461.1386a.6987.6987,0,0,1-.2774-.1084,1.0783,1.0783,0,0,0-.538-.1845A1.0519,1.0519,0,0,0,140.69,103.9515Z"/><path class="cls-4" d="M56.6553,115.61c.3535.0156,1.2929.0615,1.7861.0615.0615,0,.1377.0615.2.2158.6611,1.4629,2.832,5.7735,3.8027,7.59.0459.0927.0762.0312.1387-.0616.9082-1.7392,2.8633-5.5419,3.2324-6.2968a12.642,12.642,0,0,0,.4619-1.2471c.0157-.03.0772-.2.1543-.2.4307,0,1.2471-.0918,1.6778-.0918.1543,0,.247.03.247.0918s-.123.1231-.2314.1387c-.9082.2158-.97.3847-1.0156,1.2929-.0313.5235-.0469,2.3711-.0469,3.1407,0,1.6787.0615,3.2031.0928,3.6953.0615.8935.23,1.0312.831,1.2168.1387.0459.2471.0918.2471.1689,0,.0615-.0928.0928-.2773.0928-.293,0-1.1241-.0928-1.54-.0928-.6308,0-1.0469.0313-1.2773.0313-.1543,0-.3233-.0157-.3233-.124,0-.0616.1534-.1231.3076-.1377.6465-.17.754-.4161.8008-1.6944.0459-.831.0459-4.957.0459-5.6494,0-.1543-.0459-.1543-.0771-.0625-1.0313,2.0635-2.9248,5.7588-3.6641,7.4063-.0771.1845-.1387.2763-.2314.2763-.0762,0-.1846-.2461-.3233-.5381-.7236-1.5556-2.77-5.8359-3.3564-7.02-.0762-.1386-.1074-.1386-.1377.0762-.0615.8936-.2315,4.8809-.2315,5.5117a3.8456,3.8456,0,0,0,.0928,1.124.9016.9016,0,0,0,.7852.6163c.1689.03.2617.0918.2617.1533,0,.0927-.1387.124-.3086.1084-.1846-.0157-.7383-.0772-1.293-.0772s-.97.0928-1.124.0928c-.2,0-.2773-.0313-.2773-.1084,0-.0459.0625-.1074.2773-.1533a1.1577,1.1577,0,0,0,.832-.4932,4.419,4.419,0,0,0,.3233-1.6631c.0918-.9082.3076-4.3261.3076-5.3115,0-.9228-.0928-1.1387-.3545-1.4463a1.3057,1.3057,0,0,0-.8467-.4c-.1386-.0312-.2461-.0927-.2461-.1543S56.5166,115.5941,56.6553,115.61Z"/><path class="cls-4" d="M77.9512,116.1487a.2754.2754,0,0,1,.1543.2618,11.6436,11.6436,0,0,0,.0459,1.1855c0,.1543-.0616.2461-.0928.2461-.0615,0-.1074-.0771-.1387-.2a2.4048,2.4048,0,0,0-.7383-1.2314,3.5312,3.5312,0,0,0-2.3564-.77,3.7148,3.7148,0,0,0-2.6787,1.2,5.5592,5.5592,0,0,0-1.17,3.5723,5.8342,5.8342,0,0,0,1.417,3.7256,3.673,3.673,0,0,0,2.6318,1.14,3.27,3.27,0,0,0,1.833-.4316,2.76,2.76,0,0,0,1.1855-1.5088c.0616-.2.0918-.2617.1534-.2617s.0927.1386.0927.2314a10.7848,10.7848,0,0,1-.2158,1.2158.4118.4118,0,0,1-.1543.2315,5.5847,5.5847,0,0,1-3.0019.8467,5.3005,5.3005,0,0,1-4.003-1.6319,5.3888,5.3888,0,0,1-1.2929-3.4033,4.9091,4.9091,0,0,1,1.7236-3.8945,5.5336,5.5336,0,0,1,3.5879-1.2783A7.1042,7.1042,0,0,1,77.9512,116.1487Z"/><path class="cls-4" d="M79.6777,115.5941c.4776,0,.97.0771,1.3858.0771.4765,0,.9082-.0615,1.2617-.0615.1855,0,.2471.0312.2471.0771,0,.0772-.0928.1231-.2159.1543-.6308.1231-.6621.2149-.708,1.2774-.0156.2617-.0312,1.6787-.0312,3.0791,0,1.4629.0156,3.0019.0312,3.2949a2.8345,2.8345,0,0,0,.2159,1.2158c.1689.2315.5849.3858,1.832.3858a6.7628,6.7628,0,0,0,1.3545-.0772c.3388-.0615.6777-.4473.9853-1.001.1075-.1845.1846-.2461.2461-.2461s.0469.23-.03.4307c-.0469.123-.3389.97-.4,1.0781a.3661.3661,0,0,1-.3233.1533c-.1543,0-1.3242.0157-2.0791-.03-.77-.0313-1.8779-.0772-2.417-.0772-.4775,0-1.17.0772-1.3857.0772-.1846,0-.3233-.0157-.3233-.1084,0-.0615.1387-.1074.2774-.1231.6621-.123.7539-.3379.8008-.8154.0615-.6162.0615-1.6318.0615-3.7568,0-2.0938-.0156-3.1563-.0459-3.68-.0469-.877-.0928-.97-.7549-1.0928-.1846-.0312-.23-.0771-.23-.1387C79.4316,115.6409,79.5234,115.5941,79.6777,115.5941Z"/><path class="cls-4" d="M90.8574,119.7816c.1387,0,.2617.0312.2617.1084,0,.0459-.1543.1074-.2617.123-.3691.0615-.3545.2-.292.4463.2305.708.8926,2.4639,1.2471,3.3252.0146.0469.0762.0615.0918.0156.2461-.5234.9238-2.0166,1.0781-2.417.0147-.0771.0615-.1846.03-.2617-.0772-.2-.1846-.4463-.2617-.6309a.8213.8213,0,0,0-.585-.5087c-.1387-.03-.2158-.0616-.2158-.1231s.0771-.0918.2314-.0918c.3233,0,.7237.0459,1.0469.0459.4463,0,.6309-.0312.9082-.0312.17,0,.2315.0312.2315.0771,0,.0615-.1084.1231-.2315.1543-.3535.0771-.4463.1387-.2617.6152.17.4776.9854,2.71,1.2012,3.1875.0459.0772.0771.0157.0771,0,.1846-.4.9238-2.1552,1.1084-2.6787a3.5191,3.5191,0,0,0,.2461-.7392c0-.1387-.0615-.2774-.4619-.3848-.2-.0615-.2461-.1084-.2461-.1543,0-.0615.0918-.0918.2-.0918.2617,0,.5391.0459.7852.0459.1533,0,.539-.0459.7695-.0459.1387,0,.2158.03.2158.0918s-.0459.0928-.2773.1543c-.2774.0771-.462.292-.6621.708-.2774.5547-.7393,1.6162-1.2159,2.71-.2617.6308-.539,1.3086-.7236,1.8008-.0928.247-.1543.2929-.2.2929-.0615,0-.1084-.0615-.17-.2773-.0772-.2158-.1846-.5235-.3692-1.0469-.2929-.8311-.6162-1.709-.9238-2.5244-.0156-.0469-.0459-.0772-.0771,0-.1387.292-.7852,1.709-1.001,2.2471-.2305.5087-.3692.8623-.5381,1.3086-.0771.2158-.1543.2929-.2158.2929s-.1084-.1074-.1543-.2773c-.0772-.2158-.169-.585-.4307-1.3242-.2773-.7539-1.1553-3.0323-1.3242-3.3252a.8787.8787,0,0,0-.6777-.6006c-.1231-.03-.2149-.0772-.2149-.1231,0-.0927.1074-.123.2764-.123.2,0,.6621.0615,1.0937.0615C90.2412,119.8128,90.55,119.7816,90.8574,119.7816Z"/><path class="cls-4" d="M101.59,120.4134a3.7133,3.7133,0,0,1,.2159,1.4c0,.57-.0459,2.0322-.0459,2.4326a.5279.5279,0,0,0,.5693.5859.9848.9848,0,0,0,.4463-.1386c.0928-.0469.1543,0,.0928.1386a1.2982,1.2982,0,0,1-1.1856.6612,1.0333,1.0333,0,0,1-.9082-.6924.0532.0532,0,0,0-.0771-.0156,2.1534,2.1534,0,0,1-1.5088.6933,1.2769,1.2769,0,0,1-1.2315-1.3242,1.0845,1.0845,0,0,1,.5537-.8779c.37-.2,1.77-.6153,2.0938-.7393a.2907.2907,0,0,0,.2-.2305,5.1511,5.1511,0,0,0,.0312-.708c0-.6318-.1084-1.0625-.37-1.2627a1.1675,1.1675,0,0,0-.6465-.2461,1.0581,1.0581,0,0,0-.6152.1846.6137.6137,0,0,0-.2314.3692,1.5585,1.5585,0,0,0-.0157.2929.1893.1893,0,0,1-.0615.1231,3.3134,3.3134,0,0,1-.7236.3388c-.0762.0157-.1533-.0771-.1533-.1386,0-.1075.1074-.2461.2919-.4619a4.0171,4.0171,0,0,1,1.17-.8936,2.0665,2.0665,0,0,1,.9238-.2764A1.2613,1.2613,0,0,1,101.59,120.4134Zm-1.0312,4.2334a.6328.6328,0,0,0,.1689-.3692,10.91,10.91,0,0,0,.0772-1.4628c0-.0157-.03-.0918-.0615-.0772a8.7532,8.7532,0,0,0-1.4161.5234.7981.7981,0,0,0-.3847.7706.8944.8944,0,0,0,.9238.8623A1.0527,1.0527,0,0,0,100.5586,124.6468Z"/><path class="cls-4" d="M103.917,124.7552a1.7337,1.7337,0,0,1-.1856-.8779v-3.1866c0-.17-.0146-.2773-.0761-.3086a2.5716,2.5716,0,0,0-.37-.0918c-.1231-.0312-.2-.0771-.2-.1386,0-.0313.0156-.0772.1855-.1543a3.274,3.274,0,0,0,1.2617-1.0313c.1387-.1543.2471-.123.2471-.0459,0,.1377-.0313.5694-.0156.7539,0,.0459.0156.1387.0771.1387.2764,0,1.5547-.0459,1.878-.0459.0312,0,.0927.1074.0927.2149,0,.2617-.0771.3847-.1543.3847-.539,0-1.2929-.0146-1.709-.0146-.1845,0-.2158.0459-.2158.1386,0,.2618.0156,2.6788.0313,3.1563a1.5772,1.5772,0,0,0,.1689.831,1.1416,1.1416,0,0,0,.9551.4161,1.5021,1.5021,0,0,0,.8467-.2315c.1074-.0771.1533-.0615.1533,0,0,.0928-.1377.2461-.3379.4a2.1147,2.1147,0,0,1-1.2471.4A1.4264,1.4264,0,0,1,103.917,124.7552Z"/><path class="cls-4" d="M111.94,121.1985a.1806.1806,0,0,1-.1543.169c-.1231-.0156-2.125-.0459-2.4786-.0459h-.832c-.03,0-.1074.0771-.1387.123a2.1357,2.1357,0,0,0-.123.8467,2.7641,2.7641,0,0,0,.708,1.8633,2.081,2.081,0,0,0,1.54.6309,1.97,1.97,0,0,0,1.4629-.4922c.1231-.1231.1846-.0928.1846-.0157a.58.58,0,0,1-.1543.2461,2.7182,2.7182,0,0,1-2.14.97,2.4837,2.4837,0,0,1-1.8321-.7852,3.0082,3.0082,0,0,1-.7392-2.0625,3.2092,3.2092,0,0,1,.8925-2.248,2.8654,2.8654,0,0,1,1.9248-.77A1.7771,1.7771,0,0,1,111.94,121.1985Zm-3.1416-.7851a1.35,1.35,0,0,0-.3233.6309.0662.0662,0,0,0,.0615.0615l2.002-.0157c.3389,0,.3691-.1689.3691-.3076a.9923.9923,0,0,0-.2148-.6465,1.0783,1.0783,0,0,0-.7705-.2929A1.5983,1.5983,0,0,0,108.7979,120.4134Z"/><path class="cls-4" d="M114.665,120.7523a.8856.8856,0,0,0-.2617.538,9.0619,9.0619,0,0,0-.0146.9395c0,1.14.03,1.94.0615,2.2637.0615.4765.2461.5849.831.6465.2159.03.293.0615.293.1386s-.1387.1074-.37.1074c-.292,0-.8008-.0615-1.4473-.0615a8.2549,8.2549,0,0,0-.9384.0928c-.1856,0-.2618-.0313-.2618-.0928,0-.0459.1075-.123.23-.1543a.6361.6361,0,0,0,.5547-.6308c.03-.2618.0459-1.14.0459-2.1553v-1.709c0-.1084-.1084-.1543-.4-.4-.1074-.0771-.123-.123-.123-.1543s.0918-.0918.23-.1386a4.6535,4.6535,0,0,0,.9854-.3692.4887.4887,0,0,1,.2314-.0771c.03,0,.0615.0615.0615.2158,0,.1689-.0156.7539-.0156,1.001,0,.0459.0313.0615.0772.0146a2.5144,2.5144,0,0,1,1.6631-1.1084.8941.8941,0,0,1,.538.2.2691.2691,0,0,1,.1084.2158,1.0561,1.0561,0,0,1-.3388.5235c-.1387.123-.2.1386-.2461.1386a.6881.6881,0,0,1-.2774-.1084,1.0816,1.0816,0,0,0-.539-.1845A1.05,1.05,0,0,0,114.665,120.7523Z"/><path class="cls-4" d="M120.1484,124.7552a1.7348,1.7348,0,0,1-.1855-.8779v-3.1866c0-.17-.0147-.2773-.0762-.3086a2.5681,2.5681,0,0,0-.37-.0918c-.123-.0312-.2-.0771-.2-.1386,0-.0313.0156-.0772.1856-.1543a3.2755,3.2755,0,0,0,1.2617-1.0313c.1386-.1543.247-.123.247-.0459,0,.1377-.0312.5694-.0156.7539,0,.0459.0156.1387.0772.1387.2763,0,1.5547-.0459,1.8779-.0459.0312,0,.0928.1074.0928.2149,0,.2617-.0772.3847-.1543.3847-.5391,0-1.293-.0146-1.709-.0146-.1846,0-.2158.0459-.2158.1386,0,.2618.0156,2.6788.0312,3.1563a1.5769,1.5769,0,0,0,.169.831,1.1414,1.1414,0,0,0,.955.4161,1.5021,1.5021,0,0,0,.8467-.2315c.1074-.0771.1533-.0615.1533,0,0,.0928-.1377.2461-.3379.4a2.1144,2.1144,0,0,1-1.247.4A1.4266,1.4266,0,0,1,120.1484,124.7552Z"/><path class="cls-4" d="M128.1709,121.1985a.18.18,0,0,1-.1543.169c-.123-.0156-2.125-.0459-2.4785-.0459h-.832c-.03,0-.1075.0771-.1387.123a2.1334,2.1334,0,0,0-.1231.8467,2.7641,2.7641,0,0,0,.708,1.8633,2.0813,2.0813,0,0,0,1.54.6309,1.97,1.97,0,0,0,1.4629-.4922c.123-.1231.1845-.0928.1845-.0157a.58.58,0,0,1-.1543.2461,2.7182,2.7182,0,0,1-2.14.97,2.4837,2.4837,0,0,1-1.832-.7852,3.0083,3.0083,0,0,1-.7393-2.0625,3.2089,3.2089,0,0,1,.8926-2.248,2.865,2.865,0,0,1,1.9248-.77A1.7771,1.7771,0,0,1,128.1709,121.1985Zm-3.1416-.7851a1.35,1.35,0,0,0-.3232.6309.0661.0661,0,0,0,.0615.0615l2.0019-.0157c.3389,0,.3692-.1689.3692-.3076a.9918.9918,0,0,0-.2149-.6465,1.0783,1.0783,0,0,0-.77-.2929A1.5984,1.5984,0,0,0,125.0293,120.4134Z"/><path class="cls-4" d="M130.1738,120.8138c0,.6465.585,1.0156.97,1.2471,1.0009.6464,1.4,1.0312,1.4,1.8164a1.5792,1.5792,0,0,1-.8,1.2929,2.5567,2.5567,0,0,1-1.2324.3389,3.1245,3.1245,0,0,1-1.2158-.2773c-.123-.0459-.2314-.1534-.2314-.2461,0-.2159-.03-.6006-.0459-.77-.03-.2.0156-.2461.0459-.2461.0468,0,.0927,0,.2.292a1.5091,1.5091,0,0,0,.6475.8321,1.1813,1.1813,0,0,0,.6924.1845,1.0562,1.0562,0,0,0,1.001-1.0322c0-.585-.4-.9082-1.0166-1.293-.6621-.4306-1.2774-1.0009-1.2774-1.6777a1.4594,1.4594,0,0,1,.585-1.2168,1.9921,1.9921,0,0,1,1.293-.4307,3.7669,3.7669,0,0,1,1.0468.169.25.25,0,0,1,.0772.1387c.0156.1689.0771.4775.0927.7236,0,.1689-.0312.2461-.0771.2461-.0615,0-.0928-.0772-.1387-.1846a1.1722,1.1722,0,0,0-.3691-.6309,1.2684,1.2684,0,0,0-.7236-.2314A.897.897,0,0,0,130.1738,120.8138Z"/><path class="cls-4" d="M134.1465,124.7552a1.7345,1.7345,0,0,1-.1846-.8779v-3.1866c0-.17-.0156-.2773-.0771-.3086a2.5537,2.5537,0,0,0-.3692-.0918c-.123-.0312-.2-.0771-.2-.1386,0-.0313.0157-.0772.1846-.1543a3.2834,3.2834,0,0,0,1.2627-1.0313c.1387-.1543.2461-.123.2461-.0459,0,.1377-.03.5694-.0156.7539,0,.0459.0156.1387.0771.1387.2774,0,1.5547-.0459,1.8789-.0459.03,0,.0918.1074.0918.2149,0,.2617-.0771.3847-.1543.3847-.5381,0-1.2929-.0146-1.709-.0146-.1845,0-.2148.0459-.2148.1386,0,.2618.0156,2.6788.03,3.1563a1.5743,1.5743,0,0,0,.17.831,1.1384,1.1384,0,0,0,.9541.4161,1.5,1.5,0,0,0,.8467-.2315c.1084-.0771.1543-.0615.1543,0,0,.0928-.1387.2461-.3389.4a2.1124,2.1124,0,0,1-1.2471.4A1.4273,1.4273,0,0,1,134.1465,124.7552Z"/><path class="cls-4" d="M138.8281,120.8138c0,.6465.585,1.0156.97,1.2471,1.0009.6464,1.4,1.0312,1.4,1.8164a1.5792,1.5792,0,0,1-.8,1.2929,2.5567,2.5567,0,0,1-1.2324.3389,3.1245,3.1245,0,0,1-1.2158-.2773c-.1231-.0459-.2314-.1534-.2314-.2461,0-.2159-.03-.6006-.0459-.77-.03-.2.0156-.2461.0459-.2461.0468,0,.0927,0,.2.292a1.5091,1.5091,0,0,0,.6475.8321,1.1813,1.1813,0,0,0,.6924.1845,1.0562,1.0562,0,0,0,1.001-1.0322c0-.585-.4-.9082-1.0166-1.293-.6621-.4306-1.2774-1.0009-1.2774-1.6777a1.4594,1.4594,0,0,1,.585-1.2168,1.9921,1.9921,0,0,1,1.293-.4307,3.7669,3.7669,0,0,1,1.0468.169.25.25,0,0,1,.0772.1387c.0156.1689.0771.4775.0927.7236,0,.1689-.0312.2461-.0771.2461-.0615,0-.0928-.0772-.1387-.1846a1.1722,1.1722,0,0,0-.3691-.6309,1.2684,1.2684,0,0,0-.7236-.2314A.897.897,0,0,0,138.8281,120.8138Z"/><path class="cls-4" d="M143.0322,116.056a1.6729,1.6729,0,0,1-1.3857,1.4941c-.0928,0-.1387-.0312-.1387-.0771,0-.0313.0615-.0772.1533-.1231a1.2338,1.2338,0,0,0,.8164-1.0322c0-.3076-.1689-.5078-.5849-.6006-.1543-.0459-.3076-.1377-.3076-.3232a.4574.4574,0,0,1,.4619-.4307A1.028,1.028,0,0,1,143.0322,116.056Zm1.9239,0A1.672,1.672,0,0,1,143.57,117.55c-.0762,0-.1377-.0312-.1377-.0771,0-.0313.0918-.0772.1533-.1231a1.2075,1.2075,0,0,0,.8164-1.0166c0-.3232-.17-.5234-.5849-.6162a.36.36,0,0,1-.293-.3232.4522.4522,0,0,1,.4776-.4307A1.0234,1.0234,0,0,1,144.9561,116.056Z"/><circle class="cls-2" cx="287.0215" cy="141.2161" r="1.6035"/><path class="cls-2" d="M286.9822,135.6161c-.5581,1.4786,1.2827,2.4227-.1793,3.928"/><path class="cls-2" d="M286.9822,142.8882c-.5581,1.4786,1.2827,2.4226-.1793,3.9279"/><path class="cls-2" d="M292.6215,141.2475c-1.4786-.5581-2.4227,1.2827-3.928-.1793"/><path class="cls-2" d="M285.3494,141.2475c-1.4786-.5581-2.4227,1.2827-3.9279-.1793"/><path class="cls-2" d="M290.9535,137.2285c-1.44.651-.8061,2.62-2.9043,2.6507"/><path class="cls-2" d="M285.8114,142.3707c-1.44.6509-.8061,2.62-2.9043,2.6506"/><path class="cls-2" d="M290.9591,145.1981c-.651-1.44-2.62-.8061-2.6507-2.9043"/><path class="cls-2" d="M285.817,140.056c-.651-1.44-2.62-.8061-2.6507-2.9043"/><path d="M295.9551,136.0306a12.7045,12.7045,0,0,0,1.4785-.0459,11.5111,11.5111,0,0,1,1.5088-.1231c1.6777,0,3.0635.7539,3.0635,2.4785a1.97,1.97,0,0,1-.6465,1.3858,4.0023,4.0023,0,0,1-.8311.5078c-.0928.0459-.0312.0928.0147.1231a4.7967,4.7967,0,0,1,1.34.77,2.4127,2.4127,0,0,1,.8164,1.8779,2.6014,2.6014,0,0,1-1.7246,2.4639,4.604,4.604,0,0,1-1.8633.3232c-.2617,0-.5693,0-1.1855-.0156-.6309-.0313-.9854-.0313-1.3242-.0313h-.77c-.23,0-.3232-.0615-.3232-.1074,0-.0771.1084-.1074.2461-.1387.6162-.0615.8467-.3232.8935-.8779.0459-.415.0459-2.6172.0459-4.3262,0-.831-.0156-2.6172-.03-3.2177-.0313-.5538-.1387-.6768-.7549-.8155-.1846-.0312-.2305-.0927-.2305-.123C295.6787,136.0765,295.8018,136.0306,295.9551,136.0306Zm4.8349,5.4043a2.1472,2.1472,0,0,0-2.0791-.8926c-.3076,0-.6.0146-.7539.03-.0771.0156-.123.1074-.1386.1845a23.4071,23.4071,0,0,0,.0459,2.91,3.7907,3.7907,0,0,0,.2158,1.2773,1.5479,1.5479,0,0,0,1.3545.586,1.9155,1.9155,0,0,0,.8623-.2158,2.2062,2.2062,0,0,0,1.0937-2.1407A2.6586,2.6586,0,0,0,300.79,141.4349Zm-2.2021-5.3115a2.5188,2.5188,0,0,0-.6006.0615c-.0615.0156-.1377.2-.1377.2461-.0312.2773-.0469,2.4023-.0312,3.5722,0,.0616.0312.2149.1689.2149a4.7245,4.7245,0,0,0,1.0469.0156,1.9394,1.9394,0,0,0,1.7715-1.8477A2.1052,2.1052,0,0,0,298.5879,136.1234Z"/><path d="M303.9941,140.45a7.5827,7.5827,0,0,0,1.1084-.4.6206.6206,0,0,1,.2315-.1074c.0459,0,.0762.0459.0615.2149-.0312.3085-.0312,1.247-.0312,2.2324,0,1.2939,0,2.4326.0312,2.6943.03.3086.1846.3858.4307.4473.1543.03.2314.0615.2314.123,0,.0772-.124.1074-.2471.1074-.1386,0-.708-.0615-1.124-.0615-.5078,0-.7539.0313-.9228.0313-.1084,0-.2158-.0313-.2158-.0928s.0771-.1074.2919-.1387c.3389-.0927.4776-.2158.4932-.8467.0156-.4619.0459-3.2636.0459-3.4179,0-.2158-.0156-.3076-.4463-.5391-.0771-.0459-.123-.0918-.123-.123C303.81,140.5267,303.8555,140.48,303.9941,140.45Zm1.54-2.51a.5864.5864,0,0,1-.57.5849.5477.5477,0,0,1-.5078-.5693.5706.5706,0,0,1,.539-.6006A.5637.5637,0,0,1,305.5342,137.94Z"/><path d="M312.8623,142.9124a2.9486,2.9486,0,0,1-2.9248,2.9717,2.936,2.936,0,0,1-1.8789-5.2344,3.1642,3.1642,0,0,1,1.8476-.6465A2.8885,2.8885,0,0,1,312.8623,142.9124Zm-4.8037-.2148a3.5242,3.5242,0,0,0,.6475,2.1093,1.8289,1.8289,0,0,0,1.4472.8155,1.52,1.52,0,0,0,.97-.3848,3.0687,3.0687,0,0,0,.6465-2.0635c0-1.4619-.7392-2.9091-2.0937-2.9091C308.8906,140.265,308.0586,141.096,308.0586,142.6976Z"/><path d="M315.4053,141.9583c0,1.9395.0156,2.6631.0312,2.9561.0147.416.1074.5234.5381.6006.0928.0156.2.0615.2.1074,0,.0615-.1074.1084-.3076.1084-.2461,0-.8008-.0313-1.0625-.0313-.4,0-.8008.0313-1.0313.0313-.1845,0-.2617-.0157-.2617-.0928s.0772-.0928.2774-.1387c.3847-.0771.4765-.2158.538-.8925.0313-.57.0928-3.1719.1084-5.02,0-1.2471.0157-2.51,0-3.1865,0-.3389-.0312-.416-.4316-.6621-.1074-.0615-.1533-.0928-.1533-.1387s.0918-.0928.2305-.123a8.0451,8.0451,0,0,0,1.1552-.3545.64.64,0,0,1,.1846-.0459c.03,0,.0459.0918.0459.1689,0,.1084-.0615,2.7715-.0615,5.0811Z"/><path d="M322.8418,142.9124a2.9487,2.9487,0,0,1-2.9248,2.9717,2.936,2.936,0,0,1-1.8789-5.2344,3.1642,3.1642,0,0,1,1.8476-.6465A2.8885,2.8885,0,0,1,322.8418,142.9124Zm-4.8037-.2148a3.5247,3.5247,0,0,0,.6474,2.1093,1.8292,1.8292,0,0,0,1.4473.8155,1.5221,1.5221,0,0,0,.97-.3848,3.0687,3.0687,0,0,0,.6465-2.0635c0-1.4619-.7392-2.9091-2.0937-2.9091C318.87,140.265,318.0381,141.096,318.0381,142.6976Z"/><path d="M327.8008,140.3109a1.1248,1.1248,0,0,0,.539.0771c.293,0,.9082-.0312,1.14-.0312.0762,0,.1387.1542.1387.3388,0,.1543-.1084.2774-.17.2774-.2158,0-.7695-.0313-.9394-.0313a.1386.1386,0,0,0-.0918.0928c0,.1074.03.3545.03.6308a2.5455,2.5455,0,0,1-.97,2.0791,2.1193,2.1193,0,0,1-1.2011.4,3.7717,3.7717,0,0,1-.6465-.0771.2935.2935,0,0,0-.1846.0459,2.3874,2.3874,0,0,0-.5391.5078.49.49,0,0,0-.1689.3389c0,.4931.6309.6465,1.4316.6465.4776,0,1.3243-.0459,1.7549-.0459a1.59,1.59,0,0,1,1.7246,1.7089,3.109,3.109,0,0,1-1.7246,2.51,3.6723,3.6723,0,0,1-1.8623.5078c-1.2324,0-2.2636-.5849-2.2636-1.7246a.9827.9827,0,0,1,.2773-.6621c.1074-.1231.6777-.8467.9853-1.1846.0157-.0312.03-.124-.0156-.1386-.4306-.0928-1.247-.6319-1.247-1.2471a.1919.1919,0,0,1,.0927-.1543,6.7432,6.7432,0,0,0,1.2774-1.14c.0156-.0146,0-.0771-.03-.0918a2.3248,2.3248,0,0,1-1.1856-1.9248,1.8588,1.8588,0,0,1,.6465-1.4775,2.3671,2.3671,0,0,1,1.6319-.6318A3.474,3.474,0,0,1,327.8008,140.3109Zm-2.5713,8.9912a2.1033,2.1033,0,0,0,1.4629.4619,2.3948,2.3948,0,0,0,1.4316-.3692,2.0547,2.0547,0,0,0,.8321-1.5859c0-.6465-.4-1.2168-1.3858-1.2168-.5849,0-1.34.0156-1.7558.0313a.948.948,0,0,0-.5235.1386,1.9474,1.9474,0,0,0-.6621,1.37A1.5764,1.5764,0,0,0,325.23,149.3021Zm.1387-8.837a2.1482,2.1482,0,0,0-.4151,1.3545,2.7948,2.7948,0,0,0,.4766,1.6475,1.2582,1.2582,0,0,0,.9551.4463c.708,0,1.17-.8467,1.17-1.5547a2.7551,2.7551,0,0,0-.4776-1.7246,1.0821,1.0821,0,0,0-.9238-.5234A1.1567,1.1567,0,0,0,325.3682,140.4651Z"/><path d="M330.4355,140.45a7.5827,7.5827,0,0,0,1.1084-.4.6206.6206,0,0,1,.2315-.1074c.0459,0,.0762.0459.0615.2149-.0312.3085-.0312,1.247-.0312,2.2324,0,1.2939,0,2.4326.0312,2.6943.03.3086.1846.3858.4307.4473.1543.03.2314.0615.2314.123,0,.0772-.124.1074-.247.1074-.1387,0-.7081-.0615-1.1241-.0615-.5078,0-.7539.0313-.9228.0313-.1084,0-.2158-.0313-.2158-.0928s.0771-.1074.2919-.1387c.3389-.0927.4776-.2158.4932-.8467.0156-.4619.0459-3.2636.0459-3.4179,0-.2158-.0156-.3076-.4463-.5391-.0771-.0459-.123-.0918-.123-.123C330.251,140.5267,330.2969,140.48,330.4355,140.45Zm1.54-2.51a.5864.5864,0,0,1-.57.5849.5477.5477,0,0,1-.5078-.5693.5706.5706,0,0,1,.539-.6006A.5637.5637,0,0,1,331.9756,137.94Z"/><path d="M334.4238,142.6507a2.5883,2.5883,0,0,0,.77,2.0019,2.1907,2.1907,0,0,0,1.4316.5391,2.07,2.07,0,0,0,1.6016-.5849c.03-.0313.1074-.0469.1074,0a.4019.4019,0,0,1-.1231.246,2.6632,2.6632,0,0,1-2.125,1.0157,2.8062,2.8062,0,0,1-1.9238-.7539,2.9,2.9,0,0,1-.7705-2.0782,2.9422,2.9422,0,0,1,.94-2.1406,3.376,3.376,0,0,1,2.2783-.8926,2.3434,2.3434,0,0,1,1.4013.3848.3546.3546,0,0,1,.2159.292.5264.5264,0,0,1-.3848.4932.4714.4714,0,0,1-.2617-.1543,4.2537,4.2537,0,0,0-.8623-.6309,1.3767,1.3767,0,0,0-.585-.123C335.4854,140.265,334.4238,140.88,334.4238,142.6507Z"/><path d="M342.7393,140.7884a3.7348,3.7348,0,0,1,.2148,1.4c0,.57-.0459,2.0322-.0459,2.4326a.528.528,0,0,0,.5693.5859.9911.9911,0,0,0,.4473-.1386c.0918-.0469.1533,0,.0918.1386a1.297,1.297,0,0,1-1.1855.6612,1.0331,1.0331,0,0,1-.9082-.6924.0533.0533,0,0,0-.0772-.0156,2.1533,2.1533,0,0,1-1.5088.6933,1.2775,1.2775,0,0,1-1.2314-1.3242,1.0865,1.0865,0,0,1,.5537-.8779c.37-.2,1.7715-.6153,2.0947-.7393a.2905.2905,0,0,0,.2-.23,5.3029,5.3029,0,0,0,.03-.708c0-.6318-.1074-1.0625-.3692-1.2627a1.17,1.17,0,0,0-.6464-.2461,1.0591,1.0591,0,0,0-.6163.1846.6182.6182,0,0,0-.2314.3692,1.6631,1.6631,0,0,0-.0147.2929.194.194,0,0,1-.0615.1231,3.3566,3.3566,0,0,1-.7236.3388c-.0772.0157-.1543-.0771-.1543-.1386,0-.1075.1074-.2461.293-.4619a3.9909,3.9909,0,0,1,1.17-.8936,2.063,2.063,0,0,1,.9238-.2764A1.2625,1.2625,0,0,1,342.7393,140.7884Zm-1.0323,4.2334a.6391.6391,0,0,0,.17-.3692,11.0869,11.0869,0,0,0,.0771-1.4628c0-.0157-.0312-.0918-.0625-.0772a8.7835,8.7835,0,0,0-1.416.5234.798.798,0,0,0-.3848.7706.8944.8944,0,0,0,.9238.8623A1.0523,1.0523,0,0,0,341.707,145.0218Z"/><path d="M346.1729,141.9583c0,1.9395.0156,2.6631.0312,2.9561.0147.416.1074.5234.5381.6006.0928.0156.2.0615.2.1074,0,.0615-.1074.1084-.3076.1084-.2461,0-.8008-.0313-1.0625-.0313-.4,0-.8008.0313-1.0313.0313-.1846,0-.2617-.0157-.2617-.0928s.0771-.0928.2773-.1387c.3848-.0771.4766-.2158.5381-.8925.0313-.57.0928-3.1719.1084-5.02,0-1.2471.0157-2.51,0-3.1865,0-.3389-.0312-.416-.4316-.6621-.1074-.0615-.1533-.0928-.1533-.1387s.0918-.0928.23-.123a8.0467,8.0467,0,0,0,1.1553-.3545.64.64,0,0,1,.1846-.0459c.03,0,.0459.0918.0459.1689,0,.1084-.0615,2.7715-.0615,5.0811Z"/><rect class="cls-1" x="284.9842" y="155.27" width="3.0492" height="8.8065" rx="1.089" transform="translate(108.1003 -115.5598) rotate(27.9171)"/><path d="M296.1152,154.4778c.5078,0,.8467.0616,1.3086.0616.5078,0,.9854-.0616,1.3242-.0616.1377,0,.2305.03.2305.0772,0,.0615-.0615.123-.2305.1387-.6162.0918-.6474.3232-.6777.9541-.0459.77-.0312,2.5556-.0312,3.5107,0,2.2627.0312,3.5566.0615,4.0176.0469.5859.1387.6933.5849.8008.2159.0468.2618.0927.2618.17s-.1075.0918-.292.0918c-.2461,0-.6309-.0459-1.0782-.0459-.7695,0-1.2158.0771-1.5087.0771-.1387,0-.2461-.0312-.2461-.1084,0-.0459.0771-.0918.3388-.1533.5694-.123.6621-.37.6778-1.293.03-.8935.0146-5.1425.0146-5.8662a12.84,12.84,0,0,0-.0615-1.4785c-.0615-.5078-.2149-.5693-.7383-.6924-.1084-.0312-.17-.0771-.17-.123S295.9766,154.4778,296.1152,154.4778Z"/><path d="M305.03,159.02a3.2167,3.2167,0,0,1,.4922,2.0166c0,.8164.0156.94.0156,1.709.0156,1.0469.0615,1.14.4775,1.2471.1387.0615.2305.0928.2305.1543,0,.0918-.1231.1074-.2773.1074-.2,0-.6465-.0615-.9854-.0615-.5234,0-.7236.0615-.9541.0615-.1387,0-.2461-.03-.2461-.0928s.0918-.123.292-.1689c.37-.0928.4316-.2.4316-.6465v-2.0937c0-1.2471-.1084-1.6172-.4931-1.9092a1.3687,1.3687,0,0,0-.877-.293,1.8423,1.8423,0,0,0-1.2012.4932.7932.7932,0,0,0-.1845.4619c0,.1846.0146.97.0146,1.8935a12.503,12.503,0,0,0,.0928,1.6163c.0459.3388.2305.416.4775.4931.1846.0459.2618.0772.2618.1533,0,.0928-.1543.0928-.3086.0928-.1231,0-.877-.0615-1.2315-.0615-.2,0-.5234.0312-.8154.0312-.17,0-.293-.0312-.293-.1084,0-.0615.1387-.123.3233-.1533.3847-.0771.4463-.1855.4619-.4931.0312-1.1084.0312-2.5254.0312-3.7725,0-.1533-.0312-.3232-.4-.5234-.0927-.0616-.123-.0918-.123-.1377,0-.0313.0762-.0772.2148-.1241a5.7361,5.7361,0,0,0,1.2168-.5234c.0459-.0146.1231.0469.1074.123a6.8908,6.8908,0,0,0-.03.8165c0,.0312.0459.0771.0761.0459a5.3373,5.3373,0,0,1,1.0938-.6924,2.0755,2.0755,0,0,1,.9082-.1846A1.5725,1.5725,0,0,1,305.03,159.02Z"/><path d="M313.2227,161.4056a2.9487,2.9487,0,0,1-2.9248,2.9717,2.936,2.936,0,0,1-1.879-5.2344,3.1638,3.1638,0,0,1,1.8477-.6465A2.8885,2.8885,0,0,1,313.2227,161.4056Zm-4.8038-.2149a3.5246,3.5246,0,0,0,.6475,2.1094,1.8291,1.8291,0,0,0,1.4473.8154,1.5224,1.5224,0,0,0,.97-.3847,3.0687,3.0687,0,0,0,.6465-2.0635c0-1.4619-.7393-2.9092-2.0938-2.9092C309.251,158.7581,308.4189,159.5892,308.4189,161.1907Z"/><path d="M316.3955,159.62a.8858.8858,0,0,0-.2617.5381,9.0254,9.0254,0,0,0-.0156.94c0,1.14.0312,1.94.0615,2.2636.0615.4766.2471.585.832.6465.2149.03.292.0615.292.1387s-.1387.1074-.3691.1074c-.293,0-.8008-.0615-1.4473-.0615a8.2824,8.2824,0,0,0-.9394.0928c-.1846,0-.2618-.0313-.2618-.0928,0-.0459.1084-.1231.2315-.1543a.6347.6347,0,0,0,.5537-.6309c.0312-.2617.0469-1.14.0469-2.1552v-1.709c0-.1084-.1084-.1543-.4-.4-.1084-.0772-.1231-.1231-.1231-.1543s.0918-.0918.2305-.1387a4.6222,4.6222,0,0,0,.9853-.3691.4866.4866,0,0,1,.2315-.0772c.03,0,.0615.0615.0615.2158,0,.169-.0156.754-.0156,1.001,0,.0459.03.0615.0771.0147a2.5152,2.5152,0,0,1,1.6621-1.1084.8963.8963,0,0,1,.5391.2.269.269,0,0,1,.1084.2158,1.0551,1.0551,0,0,1-.3389.5234c-.1386.1231-.2.1387-.247.1387a.6914.6914,0,0,1-.2764-.1084,1.085,1.085,0,0,0-.5391-.1846A1.0488,1.0488,0,0,0,316.3955,159.62Z"/><path d="M323.1406,158.804a1.125,1.125,0,0,0,.5391.0772c.293,0,.9082-.0313,1.14-.0313.0762,0,.1387.1543.1387.3389,0,.1543-.1084.2773-.17.2773-.2158,0-.7695-.0312-.94-.0312a.1388.1388,0,0,0-.0918.0927c0,.1075.03.3545.03.6309a2.5457,2.5457,0,0,1-.97,2.0791,2.12,2.12,0,0,1-1.2012.4,3.7817,3.7817,0,0,1-.6465-.0771.2919.2919,0,0,0-.1845.0459,2.383,2.383,0,0,0-.5391.5078.49.49,0,0,0-.169.3388c0,.4932.6309.6465,1.4317.6465.4775,0,1.3242-.0459,1.7549-.0459a1.59,1.59,0,0,1,1.7246,1.709,3.109,3.109,0,0,1-1.7246,2.51,3.6726,3.6726,0,0,1-1.8623.5078c-1.2325,0-2.2637-.585-2.2637-1.7246a.983.983,0,0,1,.2773-.6621c.1075-.1231.6778-.8467.9854-1.1846.0156-.0313.03-.124-.0156-.1387-.4307-.0928-1.2471-.6318-1.2471-1.2471a.1916.1916,0,0,1,.0928-.1542,6.7423,6.7423,0,0,0,1.2773-1.14c.0156-.0146,0-.0771-.03-.0918a2.3247,2.3247,0,0,1-1.1855-1.9248,1.8583,1.8583,0,0,1,.6465-1.4775,2.3666,2.3666,0,0,1,1.6318-.6319A3.474,3.474,0,0,1,323.1406,158.804Zm-2.5713,8.9912a2.103,2.103,0,0,0,1.4629.4619,2.3956,2.3956,0,0,0,1.4317-.3691,2.0552,2.0552,0,0,0,.832-1.5859c0-.6465-.4-1.2168-1.3857-1.2168-.585,0-1.34.0156-1.7559.0312a.9484.9484,0,0,0-.5234.1387,1.9466,1.9466,0,0,0-.6621,1.37A1.5759,1.5759,0,0,0,320.5693,167.7952Zm.1387-8.8369a2.1487,2.1487,0,0,0-.415,1.3545,2.7961,2.7961,0,0,0,.4765,1.6475,1.2585,1.2585,0,0,0,.9551.4463c.708,0,1.17-.8467,1.17-1.5547a2.7549,2.7549,0,0,0-.4775-1.7246,1.0824,1.0824,0,0,0-.9238-.5235A1.1572,1.1572,0,0,0,320.708,158.9583Z"/><path d="M329.2393,159.2816a3.7343,3.7343,0,0,1,.2148,1.4c0,.57-.0459,2.0332-.0459,2.4327a.5273.5273,0,0,0,.5693.5849.9883.9883,0,0,0,.4473-.1377c.0918-.0468.1533,0,.0918.1377a1.2958,1.2958,0,0,1-1.1855.6621,1.0332,1.0332,0,0,1-.9082-.6923.0534.0534,0,0,0-.0772-.0157,2.153,2.153,0,0,1-1.5088.6934,1.2776,1.2776,0,0,1-1.2314-1.3242,1.0869,1.0869,0,0,1,.5537-.878c.37-.2,1.7715-.6152,2.0947-.7392a.2906.2906,0,0,0,.2-.2305,5.3044,5.3044,0,0,0,.03-.708c0-.6318-.1074-1.0625-.3692-1.2627a1.17,1.17,0,0,0-.6464-.2461,1.0591,1.0591,0,0,0-.6163.1846.6183.6183,0,0,0-.2314.3691,1.6643,1.6643,0,0,0-.0147.293.1935.1935,0,0,1-.0615.123,3.3527,3.3527,0,0,1-.7236.3389c-.0772.0156-.1543-.0771-.1543-.1387,0-.1074.1074-.2461.293-.4619a3.9715,3.9715,0,0,1,1.17-.8926,2.0542,2.0542,0,0,1,.9238-.2773A1.2624,1.2624,0,0,1,329.2393,159.2816Zm-1.0323,4.2334a.6394.6394,0,0,0,.17-.3692,11.0875,11.0875,0,0,0,.0771-1.4629c0-.0156-.0312-.0918-.0625-.0771a8.774,8.774,0,0,0-1.416.5234.7979.7979,0,0,0-.3848.77.8944.8944,0,0,0,.9238.8623A1.0522,1.0522,0,0,0,328.207,163.515Z"/><path d="M336.1992,159.02a3.216,3.216,0,0,1,.4922,2.0166c0,.8164.0156.94.0156,1.709.0157,1.0469.0616,1.14.4776,1.2471.1386.0615.23.0928.23.1543,0,.0918-.123.1074-.2773.1074-.2,0-.6465-.0615-.9854-.0615-.5234,0-.7236.0615-.9541.0615-.1386,0-.2461-.03-.2461-.0928s.0918-.123.292-.1689c.37-.0928.4317-.2.4317-.6465v-2.0937c0-1.2471-.1084-1.6172-.4932-1.9092a1.3693,1.3693,0,0,0-.8779-.293,1.8419,1.8419,0,0,0-1.2.4932.7934.7934,0,0,0-.1846.4619c0,.1846.0147.97.0147,1.8935a12.5334,12.5334,0,0,0,.0927,1.6163c.0459.3388.23.416.4776.4931.1846.0459.2617.0772.2617.1533,0,.0928-.1543.0928-.3086.0928-.123,0-.8769-.0615-1.2314-.0615-.2,0-.5235.0312-.8155.0312-.17,0-.2929-.0312-.2929-.1084,0-.0615.1386-.123.3232-.1533.3848-.0771.4463-.1855.4619-.4931.0313-1.1084.0313-2.5254.0313-3.7725,0-.1533-.0313-.3232-.4-.5234-.0928-.0616-.1231-.0918-.1231-.1377,0-.0313.0762-.0772.2149-.1241a5.7383,5.7383,0,0,0,1.2168-.5234c.0459-.0146.123.0469.1074.123a6.89,6.89,0,0,0-.03.8165c0,.0312.0459.0771.0762.0459a5.3369,5.3369,0,0,1,1.0937-.6924,2.0758,2.0758,0,0,1,.9082-.1846A1.5725,1.5725,0,0,1,336.1992,159.02Z"/><path d="M338.6953,158.9427a7.587,7.587,0,0,0,1.1084-.4.6188.6188,0,0,1,.2315-.1074c.0459,0,.0761.0459.0615.2148-.0313.3086-.0313,1.2471-.0313,2.2324,0,1.294,0,2.4327.0313,2.6944.03.3086.1845.3857.4306.4472.1543.03.2315.0616.2315.1231,0,.0771-.124.1074-.2471.1074-.1387,0-.708-.0615-1.124-.0615-.5078,0-.7539.0312-.9229.0312-.1084,0-.2158-.0312-.2158-.0927s.0772-.1075.292-.1387c.3389-.0928.4776-.2158.4932-.8467.0156-.4619.0459-3.2637.0459-3.418,0-.2158-.0156-.3076-.4463-.539-.0772-.0459-.1231-.0918-.1231-.1231C338.5107,159.02,338.5566,158.973,338.6953,158.9427Zm1.54-2.51a.5866.5866,0,0,1-.57.585.5478.5478,0,0,1-.5078-.5694.5706.5706,0,0,1,.5391-.6A.5636.5636,0,0,1,340.2354,156.4329Z"/><path d="M342.9912,161.1439a2.5887,2.5887,0,0,0,.7695,2.0019,2.1909,2.1909,0,0,0,1.4317.5391,2.069,2.069,0,0,0,1.6015-.585c.03-.0312.1075-.0469.1075,0a.3965.3965,0,0,1-.1231.2461,2.6635,2.6635,0,0,1-2.125,1.0156,2.806,2.806,0,0,1-1.9238-.7539,2.8994,2.8994,0,0,1-.77-2.0781,2.9423,2.9423,0,0,1,.9394-2.1406,3.3765,3.3765,0,0,1,2.2784-.8926,2.3434,2.3434,0,0,1,1.4013.3848.3544.3544,0,0,1,.2158.292.5263.5263,0,0,1-.3847.4931.4708.4708,0,0,1-.2617-.1543,4.2529,4.2529,0,0,0-.8623-.6308,1.3772,1.3772,0,0,0-.585-.1231C344.0527,158.7581,342.9912,159.3734,342.9912,161.1439Z"/></svg>