<?xml version="1.0" encoding="utf-8"?>
<!-- Generator: Adobe Illustrator 25.2.3, SVG Export Plug-In . SVG Version: 6.00 Build 0)  -->
<svg version="1.1" id="Layer_1" xmlns="http://www.w3.org/2000/svg" xmlns:xlink="http://www.w3.org/1999/xlink" x="0px" y="0px"
	 viewBox="0 0 399 200" style="enable-background:new 0 0 399 200;" xml:space="preserve">
<style type="text/css">
	.st0{fill:none;stroke:#222F3C;stroke-width:0.5;stroke-linecap:round;stroke-linejoin:round;}
	.st1{fill:none;stroke:#222F3C;stroke-width:0.5;stroke-linecap:round;stroke-linejoin:round;stroke-miterlimit:10;}
	.st2{fill:none;stroke:#231F20;stroke-width:0.4;stroke-linecap:round;stroke-linejoin:round;stroke-miterlimit:10;}
	.st3{fill:none;stroke:#222F3C;stroke-width:0.4;stroke-linecap:round;stroke-linejoin:round;stroke-miterlimit:10;}
	.st4{fill:#333838;}
	.st5{fill:none;stroke:#222F3C;stroke-width:0.5;stroke-linecap:round;stroke-miterlimit:10;}
	.st6{fill:#222F3C;}
	.st7{fill:none;}
	.st8{fill:none;stroke:#222F3C;stroke-width:0.4;stroke-linecap:round;stroke-miterlimit:10;}
	.st9{fill:none;stroke:#231F20;stroke-width:0.5;stroke-linecap:round;stroke-linejoin:round;stroke-miterlimit:10;}
</style>
<line class="st0" x1="133.2" y1="103" x2="133.2" y2="107.9"/>
<g>
	<g>
		<g>
			<g>
				<g>
					<g>
						<line class="st1" x1="44.2" y1="107.2" x2="44.2" y2="110.2"/>
						<g>
							<g>
								<line class="st1" x1="56.6" y1="115.2" x2="56.6" y2="120.2"/>
								<line class="st1" x1="34.6" y1="115.2" x2="34.6" y2="120.2"/>
							</g>
							<path class="st1" d="M42.3,120.3h3.8c0.6,0,1-0.4,1-1v-4.4c0-0.6-0.4-1-1-1h-3.8c-0.6,0-1,0.4-1,1v4.4
								C41.3,119.8,41.7,120.3,42.3,120.3z"/>
							<g>
								<line class="st1" x1="70.9" y1="115.2" x2="70.9" y2="120.2"/>
							</g>
						</g>
						<g>
							<polyline class="st1" points="65.9,113.1 54.7,113.1 44.3,101.4 62.8,101.4 64.5,103.3 							"/>
							<line class="st1" x1="44.2" y1="101.4" x2="33.8" y2="113.1"/>
						</g>
					</g>
					<g>
						<line class="st1" x1="29.6" y1="100.2" x2="29.6" y2="103.2"/>
						<g>
							<g>
								<line class="st1" x1="20" y1="108" x2="20" y2="113"/>
							</g>
							<path class="st1" d="M27.7,113.1h3.8c0.6,0,1-0.4,1-1v-4.4c0-0.6-0.4-1-1-1h-3.8c-0.6,0-1,0.4-1,1v4.4
								C26.7,112.6,27.1,113.1,27.7,113.1z"/>
						</g>
						<g>
							<polyline class="st1" points="40.1,106.1 29.7,94.3 48.2,94.3 54.5,101.3 							"/>
							<line class="st1" x1="29.6" y1="94.3" x2="19.2" y2="106.1"/>
						</g>
					</g>
				</g>
				<g>
					<g>
						<line class="st1" x1="106.3" y1="107.2" x2="106.3" y2="110.2"/>
						<g>
							<g>
								<line class="st1" x1="94" y1="115.2" x2="94" y2="120.2"/>
								<line class="st1" x1="115.9" y1="115.2" x2="115.9" y2="120.2"/>
							</g>
							<path class="st1" d="M108.3,120.1h-3.8c-0.6,0-1-0.4-1-1v-4.4c0-0.6,0.4-1,1-1h3.8c0.6,0,1,0.4,1,1v4.4
								C109.3,119.7,108.8,120.1,108.3,120.1z"/>
							<g>
								<line class="st1" x1="79.6" y1="115.2" x2="79.6" y2="120.2"/>
							</g>
						</g>
						<g>
							<polyline class="st1" points="83.1,113.1 95.9,113.1 106.3,101.4 87.8,101.4 83.1,106.8 							"/>
							<line class="st1" x1="106.4" y1="101.4" x2="116.8" y2="113.1"/>
						</g>
					</g>
					<g>
						<line class="st1" x1="121" y1="100.2" x2="121" y2="103.2"/>
						<g>
							<g>
								<line class="st1" x1="130.6" y1="108.2" x2="130.6" y2="113.1"/>
							</g>
							<path class="st1" d="M123.9,110.1v-2.1c0-0.8-0.6-1.4-1.4-1.4h-3.1c-0.8,0-1.4,0.6-1.4,1.4v3.7c0,0.8,0.6,1.4,1.4,1.4h1.7"/>
						</g>
						<g>
							<polyline class="st1" points="110.5,106.1 120.9,94.3 102.4,94.3 96.1,101.3 							"/>
							<line class="st1" x1="121" y1="94.3" x2="131.4" y2="106.1"/>
						</g>
						<g>
							<polyline class="st1" points="118.8,94.3 123.8,88.6 105.3,88.6 101.9,92.5 							"/>
							<line class="st1" x1="123.9" y1="88.6" x2="134.3" y2="100.4"/>
						</g>
						<g>
							<line class="st1" x1="133.4" y1="102.5" x2="133.4" y2="107.5"/>
						</g>
					</g>
					<line class="st1" x1="123.9" y1="94.5" x2="123.9" y2="97.5"/>
				</g>
				<g>
					<g>
						<g>
							<polyline class="st1" points="49.5,91.1 62,91.1 66.6,95.9 							"/>
						</g>
					</g>
					<g>
						<g>
							<polyline class="st1" points="34.1,89.7 28.9,84.1 47.4,84.1 53.7,91.1 							"/>
							<line class="st1" x1="28.8" y1="84.1" x2="18.4" y2="95.9"/>
						</g>
					</g>
				</g>
			</g>
			<g>
				<line class="st1" x1="147.3" y1="120.3" x2="28.8" y2="120.3"/>
				<line class="st1" x1="27.9" y1="113.1" x2="5.8" y2="113.1"/>
			</g>
			<g>
				<g>
					<g>
						<path class="st1" d="M74,103.1c-0.1-2.2-2-3.9-4.3-3.9c-2.3,0-4.1,1.7-4.3,3.9c-1.8,0.5-3.2,2.1-3.2,3.9
							c0,1.9,1.3,3.5,3.2,3.9c0,0,0,0.1,0,0.1c0,2.3,1.9,4.1,4.3,4.1s4.3-1.8,4.3-4.1c0,0,0-0.1,0-0.1"/>
					</g>
					<line class="st1" x1="69.8" y1="108.2" x2="73.1" y2="105.2"/>
					<line class="st1" x1="69.6" y1="110" x2="66.7" y2="106.2"/>
					<line class="st1" x1="69.7" y1="105.9" x2="69.7" y2="120.2"/>
				</g>
				<g>
					<g>
						<path class="st1" d="M74.1,111c0.3,1,1.2,1.8,2.3,2.1c0,0,0,0.1,0,0.1c0,1.8,1.5,3.2,3.3,3.2c1.8,0,3.3-1.4,3.3-3.2
							c0,0,0-0.1,0-0.1c1.4-0.4,2.5-1.6,2.5-3.1c0-1.5-1-2.7-2.5-3.1c-0.1-1.7-1.5-3-3.3-3c-1.2,0-2.3,0.6-2.8,1.5"/>
					</g>
					<line class="st1" x1="79.7" y1="111.2" x2="82.4" y2="108.6"/>
					<line class="st1" x1="79.6" y1="112.3" x2="77.3" y2="109.4"/>
					<line class="st1" x1="79.6" y1="109.2" x2="79.6" y2="120.3"/>
				</g>
			</g>
			<g>
				<path class="st1" d="M12.5,84.8c1.5,0.2,1.6,1.7,1.6,1.8l0,0.7l0.6-0.4C16.6,85.4,19,86,19,86"/>
			</g>
			<g>
				<path class="st1" d="M-3.5,79.1c1.5,0.2,1.6,1.7,1.6,1.8l0,0.7l0.6-0.4C0.6,79.7,3,80.3,3,80.3"/>
			</g>
			<g>
				<g>
					<g>
						<g>
							<g>
								<g>
									<g>
										<path class="st2" d="M94.3,141.3c-0.1,0-0.1-0.1-0.1-0.1V127c0-0.1,0.1-0.1,0.1-0.1h11.7c0,0,0.1,0,0.1,0
											c0.1,0.1,2.9,1.8,3.7,4.1c0.3,0,1,0,1.6-0.5c0.4-0.3,0.5-0.8,0.5-1.4"/>
									</g>
									<g>
										<path class="st2" d="M106,141.3c-0.1,0-0.1-0.1-0.1-0.1v-3.7"/>
										<path class="st2" d="M112.6,131.3l2.7,4c0,0,0,0.1,0,0.1v1.8c0,0.1-0.1,0.1-0.1,0.1h-6.1v3.8c0,0.1-0.1,0.1-0.1,0.1h-1.6
											c-0.1,0-0.1-0.1-0.1-0.1v-3.7h-2.2"/>
									</g>
									<g>
										<path class="st2" d="M97.4,139.7v1.5c0,0.1-0.1,0.1-0.1,0.1h-1.5c-0.1,0-0.1-0.1-0.1-0.1v-3.8"/>
									</g>
									<g>
										<path class="st2" d="M106,137.4h-5.5c0,1.4-1.1,2.4-2.5,2.4"/>
									</g>
									<g>
										<path class="st2" d="M92.6,133.8v-1.1c0,0,0-0.1,0-0.1l0.5-0.5v-3.7"/>
									</g>
								</g>
								<g>
									<path class="st2" d="M112.9,133.4c0,0.1-0.1,0.1-0.1,0.1h-0.9c-0.1,0-0.1-0.1-0.1-0.1"/>
								</g>
							</g>
							<g>
								<line class="st2" x1="103.2" y1="141.3" x2="92.8" y2="141.3"/>
							</g>
							<g>
								<path class="st2" d="M115.3,141.1c0,0.1-0.1,0.1-0.1,0.1h-9.9"/>
							</g>
						</g>
						<g>
							<line class="st2" x1="121.4" y1="139.8" x2="121.4" y2="141.1"/>
							<line class="st2" x1="118.4" y1="139.8" x2="118.4" y2="141.1"/>
							<line class="st2" x1="116.9" y1="138" x2="116.9" y2="141.1"/>
							<line class="st2" x1="115.4" y1="139.8" x2="115.4" y2="141.1"/>
							<line class="st2" x1="121.4" y1="139.8" x2="121.4" y2="141.1"/>
							<line class="st2" x1="120" y1="138" x2="120" y2="141.1"/>
							<line class="st2" x1="118.4" y1="139.8" x2="118.4" y2="141.1"/>
						</g>
					</g>
				</g>
			</g>
			<g>
				<g>
					<g>
						<g>
							<g>
								<path class="st3" d="M132.6,143.4h-4c0,0-0.1,0-0.1,0l-2.5-2.1c0,0,0-0.1,0-0.1v-2.3c0,0,0,0,0,0l0.7-1.7l0-3.4h-2.3
									c0,0-0.1,0-0.1-0.1c0,0,0-0.1,0-0.1l0.7-0.7c0,0,0,0,0,0l0.5-0.2l1-0.9c0,0,0.1,0,0.1,0h2.2c0.1,0,0.1,0.1,0.1,0.1l0,6.4
									h1.3c1.5,0,3,0.3,4.5,0.8l1.6,0.6c0,0,0.1,0.1,0.1,0.1v0.6c0,0,0,0.1,0,0.1l-1.8,1.3L132.6,143.4
									C132.7,143.4,132.6,143.4,132.6,143.4z M128.7,139.2v0.8"/>
							</g>
							<g>
								<line class="st3" x1="131.6" y1="143.4" x2="131.6" y2="145.7"/>
							</g>
							<g>
								<polyline class="st3" points="129.1,145.8 130.7,144.7 130.7,144 								"/>
							</g>
							<g>
								<polyline class="st3" points="128.7,140 130.2,141.6 133.6,141.6 								"/>
							</g>
						</g>
						<g>
							<line class="st3" x1="126.6" y1="134.3" x2="125.1" y2="134.3"/>
						</g>
					</g>
					<g>
						<path class="st3" d="M126.5,131.7v-1.6c0-0.1,0.1-0.1,0.1-0.1h0.6c0,0,0.1,0,0.1,0l0.4,0.4h0.3c0,0,0.1,0,0.1,0l0.4,0.4
							c0,0,0,0.1,0,0.1v0.7"/>
					</g>
					<g>
						<path class="st3" d="M126.6,136.3h-0.9c-0.1,0-0.1-0.1-0.1-0.1v-0.8c0,0,0,0,0,0l0.4-1.1"/>
					</g>
				</g>
				<g>
					<line class="st3" x1="121.2" y1="145.8" x2="139.1" y2="145.8"/>
				</g>
				<g>
					<line class="st3" x1="124" y1="145.7" x2="124" y2="144.6"/>
				</g>
				<g>
					<line class="st3" x1="124.9" y1="145.2" x2="124.9" y2="145.7"/>
				</g>
				<g>
					<line class="st3" x1="125.8" y1="145.7" x2="125.8" y2="144"/>
				</g>
				<g>
					<line class="st3" x1="133.6" y1="145.8" x2="133.6" y2="145.2"/>
				</g>
				<g>
					<line class="st3" x1="134.4" y1="145.7" x2="134.4" y2="144.7"/>
				</g>
			</g>
		</g>
		<g>
			<g>
				<g>
					<path class="st2" d="M64.9,145.8c-2.8,0-5-2.3-5-5c0-2.8,2.3-5,5-5c2.8,0,5,2.3,5,5C70,143.6,67.7,145.8,64.9,145.8z"/>
				</g>
				<g>
					<path class="st2" d="M79.8,145.8c-2.1,0-3.8-1.7-3.8-3.8c0-2.1,1.7-3.8,3.8-3.8c2.1,0,3.8,1.7,3.8,3.8
						C83.7,144.1,81.9,145.8,79.8,145.8z"/>
				</g>
				<g>
					<path class="st2" d="M64.9,137.8c1.7,0,3,1.4,3,3c0,1.7-1.4,3-3,3s-3-1.4-3-3c0-0.6,0.2-1.1,0.5-1.6"/>
				</g>
				<g>
					<path class="st2" d="M79.8,143.9c-1,0-1.8-0.8-1.8-1.8c0-1,0.8-1.8,1.8-1.8c1,0,1.8,0.8,1.8,1.8
						C81.7,143,80.9,143.9,79.8,143.9z"/>
				</g>
				<g>
					<line class="st2" x1="76.2" y1="143.1" x2="69.4" y2="143.1"/>
				</g>
				<g>
					<line class="st2" x1="76.1" y1="141.5" x2="73.8" y2="141.4"/>
				</g>
				<g>
					<path class="st2" d="M73.8,141.4c-0.1,0-0.2-0.1-0.2-0.2v-4.6c0-0.1,0.1-0.2,0.2-0.2h10.1c0.6,0,1.1,0.5,1.1,1.1v3.6
						c0,0.6-0.5,1.1-1.1,1.1h-0.2"/>
				</g>
				<g>
					<path class="st2" d="M59.9,141.5h-0.9c-0.6,0-1.1-0.5-1.1-1.1v-6c0-0.6,0.5-1.1,1.1-1.1h1.1"/>
				</g>
				<g>
					<path class="st2" d="M62.6,133.3h3.7c0.5,0,0.9,0.3,1,0.7"/>
				</g>
				<g>
					<path class="st2" d="M78.9,136.4h-1.4c-0.1,0-0.2-0.1-0.2-0.2v-1.9c0-0.1,0.1-0.2,0.2-0.2h1.4c0.1,0,0.2,0.1,0.2,0.2v1.9
						C79.1,136.4,79,136.4,78.9,136.4z"/>
				</g>
				<g>
					<line class="st2" x1="78" y1="134.2" x2="78" y2="132.3"/>
				</g>
				<g>
					<line class="st2" x1="81.3" y1="134.4" x2="81.3" y2="136.4"/>
				</g>
				<g>
					<line class="st2" x1="72.8" y1="135.6" x2="73.6" y2="136.4"/>
				</g>
				<g>
					<line class="st2" x1="73.7" y1="134.7" x2="71.6" y2="136.7"/>
				</g>
				<g>
					<polyline class="st2" points="66.8,132.6 68.5,136.9 70.4,136.9 					"/>
				</g>
				<g>
					<line class="st2" x1="74.6" y1="139.1" x2="74.6" y2="137.7"/>
				</g>
				<g>
					<line class="st2" x1="75.4" y1="139.1" x2="75.4" y2="137.7"/>
				</g>
				<g>
					<line class="st2" x1="76.3" y1="139.1" x2="76.3" y2="137.7"/>
				</g>
			</g>
		</g>
		<g>
			<g>
				<g>
					<g>
						<path class="st1" d="M75.3,74.1H60.3c-0.5,0-1.5-0.7-1.5-1.9c0-1.2,1-1.9,2.1-1.9h0.9c-0.2,0-0.3-1-0.3-1.6
							c0-2,1.6-3.7,3.6-3.7c1,0,1.8,0.4,2.5,1c0.7-1.1,1.9-1.9,3.3-1.9c0.6,0,1.2,0.1,1.7,0.4c0.9-1.3,2.4-2.1,4.1-2.1
							c2.8,0,5.1,2.3,5.1,5.1c0,1-0.3,2.3-0.8,2.7"/>
					</g>
					<path class="st1" d="M72.4,64.1c-0.5-3.5,1.7-7.9,6.1-8.7c4.1-0.7,8,2,8.7,6.1c0.8,4.4-2.7,8-6.1,8.7"/>
					<g>
						<path class="st1" d="M90.9,72.7c0,1.5-1.3,2.8-2.8,2.8c-0.7,0-1.4-0.3-1.9-0.7c-0.5,0.9-1.4,1.5-2.5,1.5
							c-0.5,0-0.9-0.1-1.3-0.3c-0.7,1-1.8,1.6-3.1,1.6c-2.2,0-3.9-1.8-3.9-3.9c0-0.8,0.2-1.7,0.6-2.1"/>
					</g>
				</g>
			</g>
			<path class="st1" d="M89.5,62.5c2.9,0,5.2,2.3,5.2,5.2s-2.3,5.2-5.2,5.2"/>
		</g>
	</g>
	<g>
		<g>
			<g>
				<g>
					<path class="st4" d="M338.6,139.1c0.6,0.5,0.9,1.1,0.9,1.8c0,1-0.5,1.4-0.9,1.7c-0.2,0.2-0.6,0.4-0.9,0.5c-0.1,0,0,0.1,0,0.3
						c0.3,0.6,1.1,2,1.6,2.7c0.5,0.7,0.8,1.1,1.1,1.4c0.5,0.5,0.8,0.6,1.1,0.6c0.1,0,0.2,0,0.2,0.1c0,0-0.1,0.1-0.2,0.1
						c-0.1,0.1-0.4,0.1-0.7,0.1c-0.9,0-1.6-0.4-2.2-1.2c-0.7-0.9-1.8-2.7-2.1-3.2c-0.2-0.3-0.3-0.4-0.5-0.4c-0.1,0-0.3-0.1-0.6,0
						c-0.1,0-0.1,0.1-0.1,0.1c0,0.2,0,1.9,0,2.5c0,0.8,0.1,1.3,0.1,1.4c0,0.2,0.2,0.3,0.7,0.4c0.2,0,0.2,0.1,0.2,0.1
						c0,0.1-0.1,0.1-0.3,0.1c-0.3,0-0.7-0.1-1.3-0.1c-0.5,0-1.1,0.1-1.4,0.1c-0.2,0-0.3,0-0.3-0.1c0-0.1,0.1-0.1,0.3-0.1
						c0.5-0.1,0.6-0.2,0.7-0.9c0-0.9,0.1-2.1,0.1-3.9c0-2.1-0.1-3-0.1-3.5c0-0.4,0-0.6-0.7-0.8c-0.1,0-0.3-0.1-0.3-0.1
						c0-0.1,0.1-0.1,0.3-0.1c0.2,0,0.6,0,1.2,0c0.6,0,1-0.1,1.8-0.1C337.5,138.6,338.1,138.8,338.6,139.1z M335.5,138.9
						c0,0-0.1,0-0.1,0.3c0,0.3,0,3.4,0,3.7c0,0.2,0.1,0.3,0.1,0.3c0.1,0,0.3,0,0.4,0c0.4,0,1.3-0.1,1.6-0.3c0.4-0.3,0.8-0.9,0.8-1.7
						c0-0.8-0.2-1.3-0.6-1.7c-0.4-0.4-1-0.6-1.7-0.6C335.8,138.8,335.6,138.9,335.5,138.9z"/>
					<path class="st4" d="M342.4,143c0.4-0.1,0.8-0.3,1.1-0.4c0.1-0.1,0.2-0.1,0.2-0.1c0,0,0.1,0,0.1,0.2c0,0.3,0,1.2,0,2.2
						c0,1.3,0,2.4,0,2.6c0,0.3,0.2,0.4,0.4,0.4c0.2,0,0.2,0.1,0.2,0.1c0,0.1-0.1,0.1-0.2,0.1c-0.1,0-0.7-0.1-1.1-0.1
						c-0.5,0-0.7,0-0.9,0c-0.1,0-0.2,0-0.2-0.1c0-0.1,0.1-0.1,0.3-0.1c0.3-0.1,0.5-0.2,0.5-0.8c0-0.5,0-3.2,0-3.3
						c0-0.2,0-0.3-0.4-0.5c-0.1,0-0.1-0.1-0.1-0.1C342.3,143,342.3,143,342.4,143z M343.9,140.5c0,0.4-0.4,0.6-0.6,0.6
						c-0.3,0-0.5-0.3-0.5-0.6c0-0.4,0.3-0.6,0.5-0.6C343.8,139.9,343.9,140.3,343.9,140.5z"/>
					<path class="st4" d="M346.9,142.7c0.1,0,0.2,0,0.2,0.1c0,0.1-0.1,0.1-0.2,0.1c-0.4,0.1-0.4,0.2-0.3,0.6c0.1,0.5,1,2.8,1.2,3.2
						c0,0.1,0,0.1,0.1,0c0.2-0.4,1-2.4,1.2-2.9c0.1-0.3,0.2-0.4,0.2-0.6c0-0.1-0.1-0.3-0.5-0.3c-0.1,0-0.2-0.1-0.2-0.1
						c0,0,0.1-0.1,0.2-0.1c0.2,0,0.4,0,0.7,0c0.2,0,0.6,0,0.8,0c0.1,0,0.2,0,0.2,0.1c0,0.1-0.1,0.1-0.2,0.1
						c-0.3,0.1-0.5,0.3-0.6,0.7c-0.3,0.8-1.1,2.4-1.3,2.8c-0.3,0.6-0.6,1.2-0.7,1.7c-0.1,0.2-0.1,0.3-0.2,0.3c0,0-0.1,0-0.2-0.2
						c-0.1-0.2-0.2-0.6-0.4-1.2c-0.3-0.7-1.2-3-1.4-3.5c-0.2-0.3-0.3-0.4-0.7-0.5c-0.1,0-0.2-0.1-0.2-0.1c0-0.1,0.1-0.1,0.3-0.1
						c0.4,0,0.7,0.1,1.1,0.1C346.4,142.7,346.7,142.7,346.9,142.7z"/>
					<path class="st4" d="M355.3,144.1c0,0.1-0.1,0.2-0.2,0.2c-0.1,0-2.1,0-2.4,0h-0.8c0,0-0.1,0.1-0.1,0.1
						c-0.1,0.2-0.1,0.4-0.1,0.8c0,0.8,0.3,1.4,0.7,1.8c0.4,0.5,1,0.6,1.5,0.6c0.6,0,1.1-0.1,1.4-0.5c0.1-0.1,0.2-0.1,0.2,0
						c0,0-0.1,0.1-0.2,0.2c-0.6,0.6-1.2,0.9-2.1,0.9c-0.7,0-1.3-0.3-1.8-0.8c-0.5-0.5-0.7-1.2-0.7-2c0-0.7,0.2-1.6,0.9-2.2
						c0.4-0.4,1.1-0.8,1.9-0.8C354.4,142.5,355.3,143.1,355.3,144.1z M352.2,143.3c-0.2,0.2-0.3,0.5-0.3,0.6c0,0,0,0.1,0.1,0.1l2,0
						c0.3,0,0.4-0.2,0.4-0.3c0-0.2,0-0.5-0.2-0.6c-0.2-0.2-0.4-0.3-0.8-0.3C352.9,142.7,352.6,142.9,352.2,143.3z"/>
					<path class="st4" d="M358,143.6c-0.2,0.2-0.2,0.3-0.3,0.5c0,0.2,0,0.6,0,0.9c0,1.1,0,1.9,0.1,2.2c0.1,0.5,0.2,0.6,0.8,0.6
						c0.2,0,0.3,0.1,0.3,0.1s-0.1,0.1-0.4,0.1c-0.3,0-0.8-0.1-1.4-0.1c-0.5,0-0.7,0.1-0.9,0.1c-0.2,0-0.3,0-0.3-0.1
						c0,0,0.1-0.1,0.2-0.2c0.3-0.1,0.5-0.2,0.5-0.6c0-0.3,0-1.1,0-2.1c0-0.9,0-1.5,0-1.7c0-0.1-0.1-0.2-0.4-0.4
						c-0.1-0.1-0.1-0.1-0.1-0.2s0.1-0.1,0.2-0.1c0.3-0.1,0.7-0.2,1-0.4c0.1-0.1,0.2-0.1,0.2-0.1c0,0,0.1,0.1,0.1,0.2
						c0,0.2,0,0.7,0,1c0,0,0,0.1,0.1,0c0.4-0.5,1-1.1,1.6-1.1c0.2,0,0.4,0.1,0.5,0.2c0.1,0.1,0.1,0.1,0.1,0.2c0,0.1-0.2,0.3-0.3,0.5
						c-0.1,0.1-0.2,0.1-0.2,0.1c0,0-0.1,0-0.3-0.1c-0.2-0.1-0.4-0.2-0.5-0.2C358.4,143.3,358.2,143.4,358,143.6z"/>
					<path class="st4" d="M332.2,155c0.4,0,1,0.1,1.4,0.1c0.3,0,0.7,0,1,0c0.2,0,0.3,0,0.3,0.1c0,0.1-0.1,0.1-0.3,0.2
						c-0.4,0.1-0.4,0.3-0.3,0.5c0.6,1.6,2.1,4.8,3.1,7c0,0.1,0.1,0.1,0.2,0c0.4-0.9,0.8-1.6,1.2-2.6c0,0,0-0.2,0-0.2
						c-0.2-0.6-1.2-2.9-1.6-3.6c-0.4-0.9-0.6-1.1-1-1.2c-0.2,0-0.3-0.1-0.3-0.2c0,0,0.1-0.1,0.3-0.1c0.4,0,0.7,0.1,1.3,0.1
						s0.9-0.1,1.2-0.1c0.2,0,0.3,0,0.3,0.1c0,0.1-0.1,0.1-0.3,0.2c-0.4,0.1-0.6,0.3-0.3,0.8c0.2,0.6,0.7,1.7,1.2,2.8
						c0,0,0.1,0,0.1,0c0.4-0.7,0.7-1.4,1-2.2c0.5-1.1,0.5-1.2-0.2-1.4c-0.3-0.1-0.3-0.1-0.3-0.2c0,0,0.1-0.1,0.3-0.1
						c0.4,0,0.6,0,1,0c0.5,0,0.8-0.1,1.1-0.1c0.2,0,0.3,0,0.3,0.1c0,0.1-0.1,0.1-0.3,0.2c-0.6,0.1-0.8,0.4-1.3,1.3
						c-0.4,0.8-1.1,2.2-1.4,2.7c0,0,0,0.1,0,0.2c0.4,0.9,1,2.3,1.5,3.4c0.1,0.1,0.1,0.1,0.1,0c0.7-1.6,2.5-5.8,2.9-6.9
						c0.1-0.3,0.1-0.6-0.4-0.7c-0.2-0.1-0.3-0.1-0.3-0.2c0-0.1,0-0.1,0.3-0.1c0.4,0,0.6,0.1,1.1,0.1c0.4,0,0.8-0.1,1.1-0.1
						c0.2,0,0.3,0,0.3,0.1c0,0.1-0.1,0.1-0.3,0.2c-0.6,0.2-0.9,0.5-1.8,2.6c-0.9,2.1-2.2,4.9-2.9,6.6c-0.1,0.3-0.2,0.3-0.2,0.3
						c-0.1,0-0.2-0.1-0.3-0.3c-0.3-0.9-1.2-2.8-1.6-3.7c0-0.1-0.1-0.1-0.1,0c-0.6,1.1-1.4,2.9-1.7,3.7c-0.1,0.2-0.2,0.4-0.2,0.4
						c-0.1,0-0.1-0.1-0.2-0.4c-0.2-0.5-0.7-1.6-0.9-2c-0.8-1.9-1.8-4.1-2.5-5.6c-0.5-1.2-0.7-1.4-1.2-1.5c-0.2,0-0.3-0.1-0.3-0.1
						C331.9,155.1,332,155,332.2,155z"/>
					<path class="st4" d="M348.1,159.7c0.2,0.3,0.2,0.9,0.2,1.4c0,0.6,0,2,0,2.4c0,0.3,0.1,0.6,0.6,0.6c0.1,0,0.3,0,0.4-0.1
						c0.1,0,0.2,0,0.1,0.1c-0.2,0.4-0.7,0.6-1.2,0.6c-0.4,0-0.8-0.3-0.9-0.7c0,0-0.1,0-0.1,0c-0.5,0.4-0.9,0.7-1.5,0.7
						c-0.6,0-1.2-0.5-1.2-1.3c0-0.5,0.4-0.8,0.5-0.9c0.4-0.2,1.7-0.6,2-0.7c0.1,0,0.2-0.2,0.2-0.2c0-0.2,0-0.5,0-0.7
						c0-0.6-0.1-1-0.4-1.2c-0.2-0.1-0.5-0.2-0.6-0.2c-0.2,0-0.4,0-0.6,0.2c-0.1,0.1-0.2,0.2-0.2,0.4c0,0.1,0,0.2,0,0.3
						c0,0,0,0.1-0.1,0.1c-0.2,0.1-0.6,0.3-0.7,0.3c-0.1,0-0.2-0.1-0.2-0.1c0-0.1,0.1-0.2,0.3-0.5c0.3-0.4,0.8-0.7,1.1-0.9
						c0.3-0.2,0.6-0.3,0.9-0.3C347.4,158.9,347.9,159.2,348.1,159.7z M347.1,163.8c0.1-0.1,0.2-0.2,0.2-0.4c0-0.3,0.1-0.9,0.1-1.4
						c0,0,0-0.1-0.1-0.1c-0.2,0-1.1,0.3-1.4,0.5c-0.2,0.1-0.4,0.3-0.4,0.8c0,0.5,0.4,0.8,0.9,0.8C346.7,164.1,346.9,164,347.1,163.8
						z"/>
					<path class="st4" d="M350.4,163.9c-0.1-0.2-0.2-0.5-0.2-0.9V160c0-0.2,0-0.3-0.1-0.3c-0.1,0-0.2-0.1-0.4-0.1
						c-0.1,0-0.2-0.1-0.2-0.1c0,0,0-0.1,0.2-0.2c0.4-0.1,0.9-0.5,1.2-1c0.1-0.2,0.2-0.1,0.2,0c0,0.1,0,0.6,0,0.7c0,0,0,0.1,0.1,0.1
						c0.3,0,1.5,0,1.8,0c0,0,0.1,0.1,0.1,0.2c0,0.3-0.1,0.4-0.2,0.4c-0.5,0-1.3,0-1.7,0c-0.2,0-0.2,0-0.2,0.1c0,0.3,0,2.6,0,3.1
						c0,0.5,0.1,0.7,0.2,0.8c0.2,0.3,0.5,0.4,0.9,0.4c0.4,0,0.7-0.1,0.8-0.2c0.1-0.1,0.2-0.1,0.2,0c0,0.1-0.1,0.2-0.3,0.4
						c-0.3,0.3-0.8,0.4-1.2,0.4C351.1,164.6,350.6,164.4,350.4,163.9z"/>
					<path class="st4" d="M358.2,160.5c0,0.1-0.1,0.2-0.2,0.2c-0.1,0-2.1,0-2.4,0h-0.8c0,0-0.1,0.1-0.1,0.1
						c-0.1,0.2-0.1,0.4-0.1,0.8c0,0.8,0.3,1.4,0.7,1.8c0.4,0.5,1,0.6,1.5,0.6c0.6,0,1.1-0.1,1.4-0.5c0.1-0.1,0.2-0.1,0.2,0
						c0,0-0.1,0.1-0.2,0.2c-0.6,0.6-1.2,0.9-2.1,0.9c-0.7,0-1.3-0.3-1.8-0.8c-0.5-0.5-0.7-1.2-0.7-2c0-0.7,0.2-1.6,0.9-2.2
						c0.4-0.4,1.1-0.8,1.9-0.8C357.2,158.9,358.2,159.5,358.2,160.5z M355.1,159.7c-0.2,0.2-0.3,0.5-0.3,0.6c0,0,0,0.1,0.1,0.1l2,0
						c0.3,0,0.4-0.2,0.4-0.3c0-0.2,0-0.5-0.2-0.6c-0.2-0.2-0.4-0.3-0.8-0.3C355.8,159.1,355.5,159.3,355.1,159.7z"/>
					<path class="st4" d="M360.9,160c-0.2,0.2-0.2,0.3-0.3,0.5c0,0.2,0,0.6,0,0.9c0,1.1,0,1.9,0.1,2.2c0.1,0.5,0.2,0.6,0.8,0.6
						c0.2,0,0.3,0.1,0.3,0.1s-0.1,0.1-0.4,0.1c-0.3,0-0.8-0.1-1.4-0.1c-0.5,0-0.7,0.1-0.9,0.1c-0.2,0-0.3,0-0.3-0.1
						c0,0,0.1-0.1,0.2-0.2c0.3-0.1,0.5-0.2,0.5-0.6c0-0.3,0-1.1,0-2.1c0-0.9,0-1.5,0-1.7c0-0.1-0.1-0.2-0.4-0.4
						c-0.1-0.1-0.1-0.1-0.1-0.2s0.1-0.1,0.2-0.1c0.3-0.1,0.7-0.2,1-0.4c0.1-0.1,0.2-0.1,0.2-0.1c0,0,0.1,0.1,0.1,0.2
						c0,0.2,0,0.7,0,1c0,0,0,0.1,0.1,0c0.4-0.5,1-1.1,1.6-1.1c0.2,0,0.4,0.1,0.5,0.2c0.1,0.1,0.1,0.1,0.1,0.2c0,0.1-0.1,0.3-0.3,0.5
						c-0.1,0.1-0.2,0.1-0.2,0.1c0,0-0.1,0-0.3-0.1c-0.2-0.1-0.4-0.2-0.5-0.2C361.3,159.7,361,159.8,360.9,160z"/>
				</g>
			</g>
		</g>
		<polyline class="st5" points="308,124.3 312.4,119.8 316.9,124.3 		"/>
		<g>
			<g>
				<g>
					<g>
						<path class="st6" d="M297.8,124.6c-0.1,0-0.1,0-0.2,0c-0.1,0-0.1-0.1-0.2-0.1c-0.1-0.1-0.2-0.2-0.2-0.4c0-0.1,0.1-0.3,0.2-0.3
							c0,0,0.1-0.1,0.2-0.1c0.2-0.1,0.4,0,0.6,0.1c0.1,0.1,0.1,0.2,0.1,0.3c0,0.1,0,0.3-0.1,0.4C298,124.5,297.9,124.6,297.8,124.6z
							"/>
						<path class="st6" d="M297.9,127.1L297.9,127.1c-0.1-0.2,0-0.5,0.3-0.6l0,0c0.3-0.1,0.5,0,0.7,0.3l0,0c0.1,0.3,0,0.5-0.3,0.7
							l0,0c-0.1,0-0.1,0-0.2,0l0,0C298.1,127.4,297.9,127.3,297.9,127.1z"/>
						<path class="st6" d="M304.6,131.5c0-0.3,0.2-0.5,0.5-0.5l0,0l0,0l0,0c0.3,0,0.5,0.2,0.5,0.5l0,0c0,0.3-0.2,0.5-0.5,0.5l0,0
							C304.8,132,304.6,131.7,304.6,131.5z M307.5,131.1c-0.1-0.2,0-0.5,0.3-0.6l0,0l0,0l0,0c0.3-0.1,0.5,0,0.7,0.3l0,0
							c0.1,0.2,0,0.5-0.3,0.7l0,0c-0.1,0-0.1,0-0.2,0l0,0C307.7,131.4,307.5,131.3,307.5,131.1z M302.1,131.4
							c-0.2-0.1-0.4-0.4-0.3-0.7l0,0c0.1-0.2,0.4-0.4,0.7-0.3l0,0c0.2,0.1,0.4,0.4,0.3,0.7l0,0c-0.1,0.2-0.3,0.3-0.5,0.3l0,0
							C302.2,131.4,302.2,131.4,302.1,131.4z M310,129.7c-0.2-0.2-0.2-0.5,0-0.7l0,0l0,0l0,0c0.2-0.2,0.5-0.2,0.7,0l0,0
							c0.2,0.2,0.2,0.5,0,0.7l0,0c-0.1,0.1-0.2,0.1-0.4,0.1l0,0C310.2,129.8,310.1,129.8,310,129.7z M299.6,129.7L299.6,129.7
							c-0.2-0.2-0.2-0.5,0-0.7l0,0c0.2-0.2,0.5-0.2,0.7,0l0,0c0,0,0,0,0,0l0,0c0.2,0.2,0.2,0.5,0,0.7l0,0c-0.1,0.1-0.2,0.1-0.3,0.1
							l0,0C299.8,129.8,299.7,129.8,299.6,129.7z M310.7,129.7C310.7,129.7,310.7,129.7,310.7,129.7L310.7,129.7L310.7,129.7z
							 M311.7,127.4c-0.3-0.1-0.4-0.4-0.3-0.6l0,0l0,0l0,0c0.1-0.3,0.4-0.4,0.7-0.3l0,0c0.2,0.1,0.4,0.4,0.3,0.7h0
							c-0.1,0.2-0.3,0.3-0.5,0.3l0,0C311.9,127.4,311.8,127.4,311.7,127.4z"/>
						<path class="st6" d="M312.5,124.6c-0.1,0-0.3,0-0.4-0.1c-0.1-0.1-0.1-0.2-0.1-0.4c0-0.1,0-0.3,0.1-0.3c0,0,0.1-0.1,0.2-0.1
							c0.2-0.1,0.4,0,0.5,0.1c0.1,0.1,0.2,0.2,0.2,0.3c0,0.1-0.1,0.3-0.2,0.4C312.8,124.5,312.6,124.6,312.5,124.6z"/>
					</g>
					<g>
						<path class="st6" d="M283,120.2c-0.1,0-0.1,0-0.2,0c-0.1,0-0.1-0.1-0.2-0.1c-0.1-0.1-0.1-0.2-0.1-0.3c0-0.1,0-0.1,0-0.2
							c0-0.1,0.1-0.1,0.1-0.2c0,0,0.1-0.1,0.2-0.1c0.1-0.1,0.3-0.1,0.4,0c0.1,0,0.1,0.1,0.2,0.1c0.1,0.1,0.2,0.2,0.2,0.4
							c0,0.1-0.1,0.3-0.2,0.3c0,0-0.1,0.1-0.2,0.1C283.2,120.1,283.1,120.2,283,120.2z"/>
						<path class="st6" d="M283.5,117.2c-0.3-0.1-0.4-0.4-0.3-0.7l0,0l0,0l0,0c0.1-0.3,0.4-0.4,0.7-0.3l0,0c0.3,0.1,0.4,0.4,0.3,0.7
							l0,0c-0.1,0.2-0.3,0.3-0.5,0.3l0,0C283.6,117.2,283.5,117.2,283.5,117.2z"/>
						<path class="st6" d="M297,117.8L297,117.8c-0.1-0.3,0.1-0.5,0.3-0.6l0,0c0.3-0.1,0.5,0.1,0.6,0.3l0,0c0.1,0.3-0.1,0.5-0.3,0.6
							l0,0c0,0-0.1,0-0.1,0l0,0C297.3,118.1,297.1,118,297,117.8z M295.7,115.3L295.7,115.3c-0.2-0.2-0.1-0.5,0.1-0.7l0,0
							c0.2-0.2,0.5-0.1,0.7,0.1l0,0c0.2,0.2,0.1,0.5-0.1,0.7l0,0c-0.1,0.1-0.2,0.1-0.3,0.1l0,0C296,115.5,295.8,115.4,295.7,115.3z
							 M285,114.6c-0.2-0.2-0.2-0.5,0-0.7l0,0l0,0l0,0c0.2-0.2,0.5-0.2,0.7,0l0,0c0.2,0.2,0.2,0.5,0,0.7l0,0
							c-0.1,0.1-0.2,0.1-0.3,0.1l0,0C285.2,114.8,285.1,114.7,285,114.6z M293.5,113.6L293.5,113.6c-0.2-0.1-0.3-0.4-0.2-0.7l0,0
							c0.1-0.2,0.4-0.3,0.7-0.2l0,0c0,0,0,0,0,0l0,0c0.2,0.1,0.3,0.4,0.2,0.7l0,0c-0.1,0.2-0.3,0.3-0.5,0.3l0,0
							C293.7,113.6,293.6,113.6,293.5,113.6z M287.5,112.9c-0.1-0.3,0-0.5,0.3-0.6l0,0l0,0l0,0c0.3-0.1,0.5,0,0.6,0.3l0,0
							c0.1,0.3,0,0.5-0.3,0.6l0,0c0,0-0.1,0-0.2,0l0,0C287.7,113.2,287.5,113.1,287.5,112.9z M290.9,112.8c-0.3,0-0.5-0.3-0.5-0.5
							l0,0c0-0.3,0.3-0.5,0.5-0.5l0,0c0,0,0,0,0,0l0,0c0.3,0,0.5,0.3,0.5,0.5l0,0C291.4,112.6,291.1,112.8,290.9,112.8L290.9,112.8
							C290.9,112.8,290.9,112.8,290.9,112.8z"/>
						<path class="st6" d="M297.8,121.2c-0.1,0-0.1,0-0.2,0c-0.1,0-0.1-0.1-0.2-0.1c-0.1-0.1-0.2-0.2-0.2-0.3c0-0.1,0.1-0.3,0.2-0.4
							c0,0,0.1-0.1,0.2-0.1c0.1,0,0.3-0.1,0.4,0c0.1,0,0.1,0.1,0.2,0.1c0.1,0.1,0.1,0.2,0.1,0.4s0,0.3-0.1,0.3
							C298,121.1,297.9,121.2,297.8,121.2z"/>
					</g>
					<g>
						<path class="st6" d="M268.3,121.1c-0.1,0-0.1,0-0.2,0c-0.1,0-0.1-0.1-0.2-0.1c-0.1,0-0.1-0.1-0.1-0.2c0-0.1,0-0.1,0-0.2
							c0-0.1,0.1-0.3,0.2-0.3c0.2-0.2,0.5-0.2,0.7,0c0,0,0.1,0.1,0.1,0.2c0,0.1,0,0.1,0,0.2c0,0.1,0,0.1,0,0.2
							c0,0.1-0.1,0.1-0.1,0.2c-0.1,0-0.1,0.1-0.2,0.1C268.4,121.1,268.4,121.1,268.3,121.1z"/>
						<path class="st6" d="M267.8,123.1c0-0.3,0.2-0.5,0.5-0.5l0,0c0.3,0,0.5,0.2,0.5,0.5l0,0c0,0.3-0.2,0.5-0.5,0.5l0,0
							C268,123.6,267.8,123.4,267.8,123.1z"/>
						<path class="st6" d="M273,131.5c-0.3-0.1-0.4-0.4-0.3-0.6l0,0c0.1-0.3,0.4-0.4,0.6-0.3l0,0c0.3,0.1,0.4,0.4,0.3,0.6l0,0
							c-0.1,0.2-0.3,0.3-0.5,0.3l0,0C273.1,131.5,273.1,131.5,273,131.5z M270.7,130.2L270.7,130.2c-0.2-0.2-0.2-0.5-0.1-0.7l0,0
							c0.2-0.2,0.5-0.2,0.7-0.1l0,0c0.2,0.2,0.2,0.5,0.1,0.7l0,0c-0.1,0.1-0.2,0.2-0.4,0.2l0,0C270.9,130.3,270.8,130.3,270.7,130.2
							z M269,128.2c-0.1-0.2-0.1-0.5,0.2-0.7l0,0c0.2-0.2,0.5-0.1,0.7,0.2l0,0c0.1,0.2,0.1,0.5-0.2,0.7l0,0
							c-0.1,0.1-0.2,0.1-0.3,0.1l0,0C269.2,128.4,269,128.3,269,128.2z M268,125.7L268,125.7c-0.1-0.3,0.1-0.5,0.4-0.6l0,0
							c0.3-0.1,0.5,0.1,0.6,0.4l0,0l0,0l0,0c0.1,0.3-0.1,0.5-0.4,0.6l0,0c0,0-0.1,0-0.1,0l0,0C268.2,126.1,268,125.9,268,125.7z"/>
						<path class="st6" d="M275.7,132c-0.1,0-0.1,0-0.2,0c-0.1,0-0.1-0.1-0.2-0.1c0,0-0.1-0.1-0.1-0.2c0-0.1,0-0.1,0-0.2
							c0-0.1,0-0.1,0-0.2c0-0.1,0.1-0.1,0.1-0.2c0.2-0.2,0.5-0.2,0.7,0c0,0.1,0.1,0.1,0.1,0.2c0,0.1,0,0.1,0,0.2
							c0,0.1-0.1,0.3-0.1,0.3c0,0.1-0.1,0.1-0.2,0.1C275.8,131.9,275.7,132,275.7,132z"/>
					</g>
					<g>
						<path class="st6" d="M275.7,132c-0.3,0-0.5-0.2-0.5-0.5s0.2-0.5,0.5-0.5h0c0.3,0,0.5,0.2,0.5,0.5S275.9,132,275.7,132z"/>
						<path class="st6" d="M277.8,131.2c-0.1-0.3,0-0.5,0.3-0.7l0,0l0,0l0,0c0.3-0.1,0.5,0,0.7,0.3l0,0c0.1,0.3,0,0.5-0.3,0.6v0
							c-0.1,0-0.1,0-0.2,0l0,0C278.1,131.5,277.9,131.4,277.8,131.2z"/>
						<path class="st6" d="M280.2,129.9c-0.2-0.2-0.2-0.5,0-0.7l0,0l0,0l0,0c0.2-0.2,0.5-0.2,0.7,0l0,0c0.2,0.2,0.2,0.5,0,0.7v0
							c-0.1,0.1-0.2,0.1-0.3,0.1l0,0C280.4,130.1,280.3,130.1,280.2,129.9z M282,128c-0.2-0.1-0.3-0.4-0.2-0.7l0,0
							c0.1-0.2,0.4-0.3,0.7-0.2l0,0c0.2,0.1,0.3,0.4,0.2,0.7l0,0c-0.1,0.2-0.3,0.3-0.4,0.3l0,0C282.1,128,282,128,282,128z
							 M282.9,125.5c-0.3,0-0.5-0.3-0.4-0.6l0,0l0,0l0,0c0-0.3,0.3-0.5,0.6-0.4l0,0c0.3,0,0.5,0.3,0.4,0.5l0,0
							C283.4,125.3,283.2,125.5,282.9,125.5L282.9,125.5C283,125.5,282.9,125.5,282.9,125.5z M282.5,122.3c0-0.3,0.2-0.5,0.5-0.5
							l0,0c0.3,0,0.5,0.2,0.5,0.5l0,0c0,0.3-0.2,0.5-0.5,0.5l0,0C282.8,122.8,282.5,122.6,282.5,122.3z"/>
						<path class="st6" d="M283,120.2c-0.1,0-0.1,0-0.2,0c-0.1,0-0.1-0.1-0.2-0.1c0,0-0.1-0.1-0.1-0.2c0-0.1,0-0.1,0-0.2
							c0-0.1,0-0.3,0.1-0.4c0.2-0.2,0.5-0.2,0.7,0c0.1,0.1,0.2,0.2,0.2,0.4c0,0.1,0,0.1,0,0.2c0,0.1-0.1,0.1-0.1,0.2
							c0,0-0.1,0.1-0.2,0.1C283.2,120.1,283.1,120.2,283,120.2z"/>
					</g>
					<g>
						<path class="st6" d="M253.6,120.2c-0.1,0-0.3-0.1-0.3-0.2c-0.1-0.1-0.2-0.2-0.2-0.3c0-0.1,0.1-0.3,0.2-0.4
							c0,0,0.1-0.1,0.2-0.1c0.2-0.1,0.4,0,0.5,0.1c0.1,0.1,0.1,0.2,0.1,0.4c0,0.1,0,0.3-0.1,0.3c0,0-0.1,0.1-0.2,0.1
							C253.7,120.1,253.6,120.2,253.6,120.2z"/>
						<path class="st6" d="M254,117.2c-0.2-0.1-0.4-0.4-0.3-0.7l0,0c0.1-0.2,0.4-0.4,0.7-0.2l0,0c0.2,0.1,0.4,0.4,0.3,0.7l0,0
							c-0.1,0.2-0.3,0.3-0.5,0.3l0,0C254.1,117.2,254,117.2,254,117.2z"/>
						<path class="st6" d="M267.5,117.8c-0.1-0.3,0.1-0.5,0.3-0.6l0,0c0.3-0.1,0.5,0.1,0.6,0.3l0,0l0,0l0,0c0.1,0.3-0.1,0.5-0.3,0.6
							l0,0c-0.1,0-0.1,0-0.1,0l0,0C267.8,118.1,267.6,118,267.5,117.8z M266.2,115.3c-0.2-0.2-0.2-0.5,0.1-0.7l0,0
							c0.2-0.2,0.5-0.1,0.7,0.1l0,0c0.2,0.2,0.1,0.5-0.1,0.7l0,0c-0.1,0.1-0.2,0.1-0.3,0.1l0,0C266.5,115.5,266.3,115.4,266.2,115.3
							z M255.5,114.6c-0.2-0.2-0.2-0.5,0-0.7l0,0c0,0,0,0,0,0l0,0c0.2-0.2,0.5-0.2,0.7,0l0,0c0.2,0.2,0.2,0.5,0,0.7v0
							c-0.1,0.1-0.2,0.1-0.3,0.1l0,0C255.8,114.8,255.6,114.7,255.5,114.6z M264.1,113.6c-0.2-0.1-0.3-0.4-0.2-0.7l0,0
							c0.1-0.2,0.4-0.3,0.7-0.2l0,0c0.2,0.1,0.3,0.4,0.2,0.7l0,0c-0.1,0.2-0.3,0.3-0.4,0.3l0,0C264.2,113.6,264.1,113.6,264.1,113.6
							z M258,112.9c-0.1-0.3,0-0.5,0.3-0.6l0,0c0.3-0.1,0.5,0,0.6,0.3l0,0c0.1,0.3,0,0.5-0.3,0.6l0,0c-0.1,0-0.1,0-0.2,0l0,0
							C258.2,113.2,258.1,113.1,258,112.9z M261.4,112.8c-0.3,0-0.5-0.3-0.5-0.5l0,0c0-0.3,0.2-0.5,0.5-0.5l0,0
							c0.3,0,0.5,0.3,0.5,0.5l0,0C261.9,112.6,261.7,112.8,261.4,112.8L261.4,112.8C261.4,112.8,261.4,112.8,261.4,112.8z"/>
						<path class="st6" d="M268.3,121.2c-0.1,0-0.1,0-0.2,0c-0.1,0-0.1-0.1-0.2-0.1c0,0-0.1-0.1-0.1-0.2c0-0.1,0-0.1,0-0.2
							c0-0.1,0-0.1,0-0.2c0-0.1,0.1-0.1,0.1-0.2c0.2-0.2,0.5-0.2,0.7,0c0.1,0.1,0.2,0.2,0.2,0.4c0,0.1,0,0.1,0,0.2
							c0,0.1-0.1,0.1-0.1,0.2c0,0-0.1,0.1-0.2,0.1C268.4,121.2,268.4,121.2,268.3,121.2z"/>
					</g>
					<g>
						<path class="st6" d="M246.2,132c-0.3,0-0.5-0.2-0.5-0.5s0.2-0.5,0.5-0.5h0c0.3,0,0.5,0.2,0.5,0.5S246.5,132,246.2,132z"/>
						<path class="st6" d="M248.3,131.2c-0.1-0.3,0-0.5,0.3-0.7l0,0l0,0l0,0c0.3-0.1,0.5,0,0.6,0.3l0,0c0.1,0.3,0,0.5-0.3,0.6v0
							c-0.1,0-0.1,0-0.2,0l0,0C248.6,131.5,248.4,131.4,248.3,131.2z"/>
						<path class="st6" d="M250.7,129.9c-0.2-0.2-0.2-0.5,0-0.7l0,0c0,0,0,0,0,0l0,0c0.2-0.2,0.5-0.2,0.7,0l0,0
							c0.2,0.2,0.2,0.5,0,0.7l0,0c-0.1,0.1-0.2,0.1-0.3,0.1l0,0C251,130.1,250.8,130.1,250.7,129.9z M252.5,128
							c-0.2-0.1-0.3-0.4-0.2-0.7l0,0l0,0l0,0c0.1-0.2,0.4-0.3,0.7-0.2l0,0c0.2,0.1,0.3,0.4,0.2,0.7l0,0c-0.1,0.2-0.3,0.3-0.5,0.3
							l0,0C252.6,128,252.6,128,252.5,128z M253.5,125.5c-0.3,0-0.5-0.3-0.4-0.6l0,0c0-0.3,0.3-0.5,0.5-0.4l0,0
							c0.3,0,0.5,0.3,0.4,0.5l0,0C254,125.3,253.8,125.5,253.5,125.5L253.5,125.5C253.5,125.5,253.5,125.5,253.5,125.5z
							 M253.1,122.3c0-0.3,0.2-0.5,0.5-0.5l0,0c0.3,0,0.5,0.2,0.5,0.5l0,0c0,0.3-0.2,0.5-0.5,0.5l0,0
							C253.3,122.8,253.1,122.6,253.1,122.3z"/>
						<path class="st6" d="M253.6,120.2c-0.1,0-0.2-0.1-0.3-0.2c0,0-0.1-0.1-0.1-0.2c0-0.1,0-0.1,0-0.2c0-0.1,0-0.1,0-0.2
							c0-0.1,0.1-0.1,0.1-0.2c0,0,0.1-0.1,0.2-0.1c0.2-0.1,0.4,0,0.5,0.1c0,0,0.1,0.1,0.1,0.2c0,0.1,0,0.1,0,0.2c0,0.1,0,0.1,0,0.2
							c0,0.1-0.1,0.1-0.1,0.2C253.8,120.1,253.7,120.2,253.6,120.2z"/>
					</g>
					<g>
						<path class="st6" d="M238.8,121.1c-0.1,0-0.1,0-0.2,0c-0.1,0-0.1-0.1-0.2-0.1c-0.1-0.1-0.2-0.2-0.2-0.4s0-0.3,0.2-0.3
							c0.2-0.2,0.5-0.2,0.7,0c0.1,0.1,0.2,0.2,0.2,0.3s0,0.3-0.2,0.4c0,0-0.1,0.1-0.2,0.1C239,121.1,238.9,121.1,238.8,121.1z"/>
						<path class="st6" d="M238.3,123.1c0-0.3,0.2-0.5,0.5-0.5l0,0c0.3,0,0.5,0.2,0.5,0.5l0,0c0,0.3-0.2,0.5-0.5,0.5l0,0
							C238.6,123.6,238.3,123.4,238.3,123.1z"/>
						<path class="st6" d="M243.6,131.5c-0.3-0.1-0.4-0.4-0.3-0.6l0,0c0.1-0.3,0.4-0.4,0.6-0.3l0,0c0.3,0.1,0.4,0.4,0.3,0.6l0,0
							c-0.1,0.2-0.3,0.3-0.5,0.3l0,0C243.7,131.5,243.6,131.5,243.6,131.5z M241.2,130.2L241.2,130.2c-0.2-0.2-0.2-0.5-0.1-0.7l0,0
							c0.2-0.2,0.5-0.2,0.7-0.1l0,0c0.2,0.2,0.2,0.5,0.1,0.7l0,0c-0.1,0.1-0.2,0.2-0.4,0.2l0,0C241.4,130.3,241.3,130.3,241.2,130.2
							z M239.5,128.2c-0.2-0.2-0.1-0.5,0.2-0.7l0,0c0.2-0.2,0.5-0.1,0.7,0.2l0,0c0.1,0.2,0.1,0.5-0.2,0.7l0,0
							c-0.1,0.1-0.2,0.1-0.3,0.1l0,0C239.7,128.4,239.6,128.3,239.5,128.2z M238.5,125.7L238.5,125.7c0-0.3,0.1-0.5,0.4-0.6l0,0
							c0.3-0.1,0.5,0.1,0.6,0.4l0,0c0,0,0,0,0,0l0,0c0,0.3-0.1,0.5-0.4,0.6l0,0c0,0-0.1,0-0.1,0l0,0
							C238.8,126.1,238.5,125.9,238.5,125.7z"/>
						<path class="st6" d="M246.2,132c-0.1,0-0.3,0-0.4-0.1c0,0-0.1-0.1-0.1-0.2c0-0.1,0-0.1,0-0.2c0-0.1,0-0.3,0.1-0.4
							c0,0,0.1-0.1,0.2-0.1c0.2-0.1,0.4,0,0.5,0.1c0.1,0.1,0.2,0.2,0.2,0.4c0,0.1,0,0.1,0,0.2c0,0.1-0.1,0.1-0.1,0.2
							c0,0.1-0.1,0.1-0.2,0.1C246.3,131.9,246.3,132,246.2,132z"/>
					</g>
					<g>
						<path class="st6" d="M224.1,120.2c-0.1,0-0.3-0.1-0.4-0.2c-0.1-0.1-0.1-0.2-0.1-0.3c0-0.1,0.1-0.3,0.1-0.4
							c0,0,0.1-0.1,0.2-0.1c0.1-0.1,0.3-0.1,0.4,0c0.1,0,0.1,0.1,0.2,0.1c0,0,0.1,0.1,0.1,0.2c0,0.1,0,0.1,0,0.2
							c0,0.1,0,0.3-0.1,0.3C224.4,120.1,224.2,120.2,224.1,120.2z"/>
						<path class="st6" d="M224.5,117.2c-0.3-0.1-0.4-0.4-0.3-0.7l0,0c0.1-0.3,0.4-0.4,0.7-0.3l0,0c0.3,0.1,0.4,0.4,0.3,0.7l0,0
							c-0.1,0.2-0.3,0.3-0.5,0.3l0,0C224.6,117.2,224.6,117.2,224.5,117.2z"/>
						<path class="st6" d="M238.1,117.8L238.1,117.8c-0.1-0.3,0.1-0.6,0.4-0.6l0,0c0.3-0.1,0.5,0.1,0.6,0.3l0,0
							c0.1,0.3-0.1,0.5-0.4,0.6l0,0c0,0-0.1,0-0.1,0l0,0C238.3,118.1,238.1,118,238.1,117.8z M236.8,115.3L236.8,115.3
							c-0.2-0.2-0.1-0.5,0.1-0.7l0,0c0.2-0.2,0.5-0.1,0.7,0.1l0,0c0.2,0.2,0.1,0.5-0.1,0.7l0,0c-0.1,0.1-0.2,0.1-0.3,0.1l0,0
							C237,115.5,236.9,115.4,236.8,115.3z M226.1,114.6c-0.2-0.2-0.2-0.5,0-0.7l0,0c0,0,0,0,0,0l0,0c0.2-0.2,0.5-0.2,0.7,0l0,0
							c0.2,0.2,0.2,0.5,0,0.7v0c-0.1,0.1-0.2,0.1-0.3,0.1l0,0C226.3,114.8,226.2,114.7,226.1,114.6z M234.6,113.6
							c-0.2-0.1-0.3-0.4-0.2-0.7l0,0c0.1-0.2,0.4-0.3,0.7-0.2l0,0c0.2,0.1,0.3,0.4,0.2,0.7l0,0c-0.1,0.2-0.3,0.3-0.5,0.3l0,0
							C234.8,113.6,234.7,113.6,234.6,113.6z M228.5,112.9c-0.1-0.3,0-0.5,0.3-0.6l0,0c0.3-0.1,0.5,0,0.6,0.3l0,0
							c0.1,0.3,0,0.5-0.3,0.6l0,0c-0.1,0-0.1,0-0.2,0l0,0C228.8,113.2,228.6,113.1,228.5,112.9z M231.9,112.8
							c-0.3,0-0.5-0.3-0.5-0.5l0,0c0-0.3,0.3-0.5,0.5-0.5l0,0c0.3,0,0.5,0.3,0.5,0.5l0,0C232.4,112.6,232.2,112.8,231.9,112.8
							L231.9,112.8C232,112.8,231.9,112.8,231.9,112.8z"/>
						<path class="st6" d="M238.8,121.2c-0.1,0-0.1,0-0.2,0c-0.1,0-0.1-0.1-0.2-0.1c0,0-0.1-0.1-0.1-0.2c0-0.1,0-0.1,0-0.2
							c0-0.1,0.1-0.3,0.1-0.4c0.1-0.1,0.4-0.2,0.5-0.1c0.1,0,0.1,0.1,0.2,0.1c0.1,0.1,0.1,0.2,0.1,0.4c0,0.1,0,0.1,0,0.2
							c0,0.1-0.1,0.1-0.1,0.2C239.1,121.1,239,121.2,238.8,121.2z"/>
					</g>
					<g>
						<path class="st6" d="M209.4,121.1c-0.1,0-0.3,0-0.4-0.1c-0.1-0.1-0.1-0.2-0.1-0.4s0.1-0.3,0.1-0.3c0.1-0.1,0.4-0.2,0.5-0.1
							c0.1,0,0.1,0.1,0.2,0.1c0.1,0.1,0.1,0.2,0.1,0.3s-0.1,0.3-0.1,0.4C209.6,121.1,209.5,121.1,209.4,121.1z"/>
						<path class="st6" d="M208.9,123.1c0-0.3,0.2-0.5,0.5-0.5l0,0c0.3,0,0.5,0.2,0.5,0.5l0,0c0,0.3-0.2,0.5-0.5,0.5l0,0
							C209.1,123.6,208.9,123.4,208.9,123.1z"/>
						<path class="st6" d="M214.1,131.5c-0.3-0.1-0.4-0.4-0.3-0.6l0,0c0.1-0.3,0.4-0.4,0.6-0.3l0,0c0.3,0.1,0.4,0.4,0.3,0.6l0,0
							c-0.1,0.2-0.3,0.3-0.5,0.3l0,0C214.2,131.5,214.1,131.5,214.1,131.5z M211.8,130.2c-0.2-0.2-0.2-0.5-0.1-0.7l0,0
							c0.2-0.2,0.5-0.2,0.7-0.1l0,0c0.2,0.2,0.2,0.5,0.1,0.7l0,0c-0.1,0.1-0.2,0.2-0.4,0.2l0,0C212,130.3,211.9,130.3,211.8,130.2z
							 M210,128.2L210,128.2c-0.1-0.2-0.1-0.5,0.2-0.7l0,0c0.2-0.2,0.5-0.1,0.7,0.2l0,0c0.1,0.2,0.1,0.5-0.2,0.7l0,0
							c-0.1,0.1-0.2,0.1-0.3,0.1l0,0C210.3,128.4,210.1,128.3,210,128.2z M209,125.7L209,125.7c-0.1-0.3,0.1-0.5,0.4-0.6l0,0
							c0.3-0.1,0.5,0.1,0.6,0.4l0,0l0,0l0,0c0.1,0.3-0.1,0.5-0.4,0.6l0,0c0,0-0.1,0-0.1,0l0,0C209.3,126.1,209.1,125.9,209,125.7z"
							/>
						<path class="st6" d="M216.7,132c-0.1,0-0.1,0-0.2,0c-0.1,0-0.1-0.1-0.2-0.1c-0.1-0.1-0.2-0.2-0.2-0.3c0-0.1,0.1-0.3,0.2-0.4
							c0.2-0.2,0.5-0.2,0.7,0c0.1,0.1,0.1,0.2,0.1,0.4c0,0.1,0,0.3-0.1,0.3C217,131.9,216.9,132,216.7,132z"/>
					</g>
					<g>
						<path class="st6" d="M216.7,132c-0.3,0-0.5-0.2-0.5-0.5s0.2-0.5,0.5-0.5h0c0.3,0,0.5,0.2,0.5,0.5S217,132,216.7,132z"/>
						<path class="st6" d="M218.9,131.2c-0.1-0.3,0-0.5,0.3-0.7l0,0c0,0,0,0,0,0l0,0c0.2-0.1,0.5,0,0.6,0.3l0,0
							c0.1,0.3,0,0.5-0.3,0.7l0,0c-0.1,0-0.1,0-0.2,0l0,0C219.1,131.5,219,131.4,218.9,131.2z"/>
						<path class="st6" d="M221.2,129.9c-0.2-0.2-0.2-0.5,0-0.7l0,0c0.2-0.2,0.5-0.2,0.7,0l0,0c0.2,0.2,0.2,0.5,0,0.7l0,0
							c-0.1,0.1-0.2,0.1-0.3,0.1l0,0C221.5,130.1,221.3,130.1,221.2,129.9z M223,128c-0.2-0.1-0.3-0.4-0.2-0.7l0,0l0,0l0,0
							c0.1-0.2,0.4-0.3,0.7-0.2l0,0c0.2,0.1,0.3,0.4,0.2,0.7l0,0c-0.1,0.2-0.3,0.3-0.4,0.3l0,0C223.2,128,223.1,128,223,128z
							 M224,125.5c-0.3,0-0.5-0.3-0.4-0.6l0,0c0-0.3,0.3-0.5,0.6-0.4l0,0c0.3,0,0.5,0.3,0.4,0.5l0,0
							C224.5,125.3,224.3,125.5,224,125.5L224,125.5C224,125.5,224,125.5,224,125.5z M223.6,122.3c0-0.3,0.2-0.5,0.5-0.5l0,0
							c0.3,0,0.5,0.2,0.5,0.5l0,0c0,0.3-0.2,0.5-0.5,0.5l0,0C223.8,122.8,223.6,122.6,223.6,122.3z"/>
						<path class="st6" d="M224.1,120.2c-0.1,0-0.3-0.1-0.3-0.2c-0.1-0.1-0.2-0.2-0.2-0.3c0-0.1,0-0.3,0.2-0.4c0,0,0.1-0.1,0.2-0.1
							c0.2-0.1,0.4,0,0.5,0.1c0,0,0.1,0.1,0.1,0.2c0,0.1,0,0.1,0,0.2c0,0.1,0,0.3-0.1,0.3c0,0-0.1,0.1-0.2,0.1
							C224.2,120.1,224.2,120.2,224.1,120.2z"/>
					</g>
				</g>
			</g>
			<g>
				<g>
					<path class="st7" d="M209.4,120.5"/>
				</g>
				<g>
					<path class="st6" d="M194.6,120.1c-0.1,0-0.1,0-0.2,0c-0.1,0-0.1-0.1-0.2-0.1c-0.1-0.1-0.1-0.2-0.1-0.4c0-0.1,0-0.3,0.1-0.4
						c0.1-0.1,0.4-0.2,0.5-0.1c0.1,0,0.1,0.1,0.2,0.1c0.1,0.1,0.1,0.2,0.1,0.4c0,0.1-0.1,0.3-0.1,0.4
						C194.9,120,194.8,120.1,194.6,120.1z"/>
					<path class="st6" d="M195.1,117.1c-0.3-0.1-0.4-0.4-0.3-0.7l0,0c0.1-0.2,0.4-0.4,0.7-0.3l0,0c0.2,0.1,0.4,0.4,0.3,0.7l0,0
						c-0.1,0.2-0.3,0.3-0.5,0.3l0,0C195.2,117.1,195.1,117.1,195.1,117.1z"/>
					<path class="st6" d="M208.6,117.7c-0.1-0.3,0.1-0.5,0.3-0.6l0,0c0.3-0.1,0.5,0.1,0.6,0.3l0,0c0.1,0.3-0.1,0.5-0.4,0.6l0,0
						c0,0-0.1,0-0.1,0l0,0C208.9,118.1,208.7,117.9,208.6,117.7z M207.3,115.2c-0.2-0.2-0.2-0.5,0.1-0.7l0,0
						c0.2-0.2,0.5-0.2,0.7,0.1l0,0l0,0l0,0c0.2,0.2,0.1,0.5-0.1,0.7l0,0c-0.1,0.1-0.2,0.1-0.3,0.1l0,0
						C207.6,115.4,207.4,115.4,207.3,115.2z M196.6,114.5c-0.2-0.2-0.2-0.5,0-0.7l0,0c0.2-0.2,0.5-0.2,0.7,0l0,0
						c0.2,0.2,0.2,0.5,0,0.7l0,0c-0.1,0.1-0.2,0.1-0.3,0.1l0,0C196.8,114.7,196.7,114.6,196.6,114.5z M205.2,113.5
						c-0.2-0.1-0.3-0.4-0.2-0.7l0,0c0.1-0.2,0.4-0.3,0.7-0.2l0,0c0.2,0.1,0.3,0.4,0.2,0.7l0,0c-0.1,0.2-0.3,0.3-0.4,0.3l0,0
						C205.3,113.5,205.2,113.5,205.2,113.5z M199.1,112.8c-0.1-0.3,0-0.5,0.3-0.6l0,0c0.3-0.1,0.6,0,0.6,0.3l0,0
						c0.1,0.3,0,0.5-0.3,0.6l0,0c-0.1,0-0.1,0-0.2,0l0,0C199.3,113.1,199.1,113,199.1,112.8z M202.5,112.7L202.5,112.7
						c-0.3,0-0.5-0.3-0.5-0.5l0,0c0-0.3,0.3-0.5,0.5-0.5l0,0l0,0l0,0c0.3,0,0.5,0.2,0.5,0.5l0,0C203,112.5,202.8,112.7,202.5,112.7
						L202.5,112.7C202.5,112.7,202.5,112.7,202.5,112.7z"/>
					<path class="st6" d="M209.4,121.1c-0.1,0-0.1,0-0.2,0c-0.1,0-0.1-0.1-0.2-0.1c-0.1-0.1-0.1-0.2-0.1-0.4c0-0.1,0-0.3,0.1-0.4
						c0.2-0.2,0.5-0.2,0.7,0c0.1,0.1,0.2,0.2,0.2,0.4c0,0.1,0,0.1,0,0.2c0,0.1-0.1,0.1-0.1,0.2c0,0-0.1,0.1-0.2,0.1
						C209.5,121.1,209.4,121.1,209.4,121.1z"/>
				</g>
				<g>
					<path class="st6" d="M187.3,131.9c-0.3,0-0.5-0.2-0.5-0.5s0.2-0.5,0.5-0.5h0c0.3,0,0.5,0.2,0.5,0.5S187.6,131.9,187.3,131.9z"
						/>
					<path class="st6" d="M189.4,131.1c-0.1-0.3,0-0.5,0.3-0.6l0,0c0.3-0.1,0.5,0,0.6,0.3l0,0c0.1,0.2,0,0.5-0.3,0.6l0,0
						c-0.1,0-0.1,0-0.2,0l0,0C189.7,131.4,189.5,131.3,189.4,131.1z"/>
					<path class="st6" d="M191.8,129.9c-0.2-0.2-0.2-0.5,0-0.7l0,0c0,0,0,0,0,0l0,0c0.2-0.2,0.5-0.2,0.7,0l0,0
						c0.2,0.2,0.2,0.5,0,0.7l0,0c-0.1,0.1-0.2,0.1-0.3,0.1l0,0C192,130,191.9,130,191.8,129.9z M193.6,127.9
						c-0.2-0.1-0.3-0.4-0.2-0.7l0,0c0.1-0.2,0.4-0.3,0.7-0.2l0,0c0.2,0.1,0.3,0.4,0.2,0.7l0,0c-0.1,0.2-0.3,0.3-0.4,0.3l0,0
						C193.7,127.9,193.6,127.9,193.6,127.9z M194.5,125.4c-0.3,0-0.5-0.3-0.4-0.6l0,0c0-0.3,0.3-0.5,0.6-0.4l0,0
						c0.3,0,0.5,0.3,0.4,0.6l0,0C195.1,125.2,194.8,125.4,194.5,125.4L194.5,125.4C194.6,125.4,194.5,125.4,194.5,125.4z
						 M194.1,122.2c0-0.3,0.2-0.5,0.5-0.5l0,0c0.3,0,0.5,0.2,0.5,0.5l0,0c0,0.3-0.2,0.5-0.5,0.5l0,0
						C194.4,122.8,194.1,122.5,194.1,122.2z"/>
					<path class="st6" d="M194.6,120.1c-0.1,0-0.1,0-0.2,0c-0.1,0-0.1-0.1-0.2-0.1c-0.1-0.1-0.2-0.2-0.2-0.4c0-0.1,0.1-0.3,0.2-0.4
						c0.1-0.1,0.4-0.2,0.5-0.1c0.1,0,0.1,0.1,0.2,0.1c0.1,0.1,0.1,0.2,0.1,0.4c0,0.1,0,0.3-0.1,0.4
						C194.9,120,194.8,120.1,194.6,120.1z"/>
				</g>
				<g>
					<path class="st6" d="M179.9,121c-0.1,0-0.3-0.1-0.4-0.2c0,0-0.1-0.1-0.1-0.2c0-0.1,0-0.1,0-0.2c0-0.1,0-0.1,0-0.2
						c0-0.1,0.1-0.1,0.1-0.2c0.1-0.1,0.4-0.2,0.5-0.1c0.1,0,0.1,0.1,0.2,0.1c0,0,0.1,0.1,0.1,0.2c0,0.1,0,0.1,0,0.2
						c0,0.1,0,0.1,0,0.2c0,0.1-0.1,0.1-0.1,0.2c-0.1,0-0.1,0.1-0.2,0.1C180,121,180,121,179.9,121z"/>
					<path class="st6" d="M179.4,123c0-0.3,0.2-0.5,0.5-0.5l0,0c0.3,0,0.5,0.2,0.5,0.5l0,0c0,0.3-0.2,0.5-0.5,0.5l0,0
						C179.6,123.5,179.4,123.3,179.4,123z"/>
					<path class="st6" d="M184.6,131.4L184.6,131.4c-0.3-0.1-0.4-0.4-0.3-0.6l0,0c0.1-0.3,0.4-0.4,0.6-0.3l0,0
						c0.3,0.1,0.4,0.4,0.3,0.6l0,0c-0.1,0.2-0.3,0.3-0.5,0.3l0,0C184.8,131.5,184.7,131.4,184.6,131.4z M182.3,130.1
						c-0.2-0.2-0.2-0.5-0.1-0.7l0,0c0.2-0.2,0.5-0.2,0.7-0.1l0,0c0.2,0.2,0.2,0.5,0.1,0.7l0,0c-0.1,0.1-0.2,0.2-0.4,0.2l0,0
						C182.5,130.2,182.4,130.2,182.3,130.1z M180.6,128.1L180.6,128.1c-0.1-0.2-0.1-0.5,0.2-0.7l0,0c0.2-0.1,0.5-0.1,0.7,0.2l0,0
						c0.1,0.2,0.1,0.5-0.2,0.7l0,0c-0.1,0-0.2,0.1-0.3,0.1l0,0C180.8,128.4,180.7,128.3,180.6,128.1z M179.6,125.6L179.6,125.6
						c0-0.3,0.1-0.5,0.4-0.6l0,0c0.3-0.1,0.5,0.1,0.6,0.4l0,0l0,0l0,0c0.1,0.3-0.1,0.5-0.4,0.6l0,0c0,0-0.1,0-0.1,0l0,0
						C179.8,126,179.6,125.9,179.6,125.6z"/>
					<path class="st6" d="M187.3,131.9c-0.1,0-0.3,0-0.4-0.2c0,0-0.1-0.1-0.1-0.2c0-0.1,0-0.1,0-0.2c0-0.1,0-0.3,0.1-0.3
						c0.1-0.1,0.4-0.2,0.5-0.1c0.1,0,0.1,0.1,0.2,0.1c0.1,0.1,0.1,0.2,0.1,0.3c0,0.1,0,0.1,0,0.2c0,0.1-0.1,0.1-0.1,0.2
						C187.5,131.8,187.4,131.9,187.3,131.9z"/>
				</g>
				<g>
					<path class="st6" d="M165.2,120.1c-0.1,0-0.3-0.1-0.4-0.1c-0.1-0.1-0.1-0.2-0.1-0.4c0-0.1,0-0.1,0-0.2c0-0.1,0.1-0.1,0.1-0.2
						c0.1,0,0.1-0.1,0.2-0.1c0.1-0.1,0.3-0.1,0.4,0c0.1,0,0.1,0.1,0.2,0.1c0.1,0.1,0.1,0.2,0.1,0.4c0,0.1-0.1,0.3-0.1,0.4
						C165.4,120,165.3,120.1,165.2,120.1z"/>
					<path class="st6" d="M165.6,117.1c-0.2-0.1-0.4-0.4-0.3-0.7l0,0c0.1-0.2,0.4-0.4,0.7-0.3l0,0c0.3,0.1,0.4,0.4,0.3,0.7l0,0
						c-0.1,0.2-0.3,0.3-0.5,0.3l0,0C165.7,117.1,165.7,117.1,165.6,117.1z"/>
					<path class="st6" d="M179.1,117.7c-0.1-0.3,0.1-0.5,0.4-0.6l0,0c0.3-0.1,0.5,0.1,0.6,0.3l0,0c0,0,0,0,0,0l0,0
						c0.1,0.3-0.1,0.5-0.3,0.6l0,0c-0.1,0-0.1,0-0.1,0l0,0C179.4,118.1,179.2,117.9,179.1,117.7z M177.9,115.2
						c-0.2-0.2-0.1-0.5,0.1-0.7l0,0c0.2-0.2,0.5-0.2,0.7,0.1l0,0c0,0,0,0,0,0l0,0c0.2,0.2,0.1,0.5-0.1,0.7l0,0
						c-0.1,0.1-0.2,0.1-0.3,0.1l0,0C178.1,115.4,178,115.4,177.9,115.2z M167.1,114.5c-0.2-0.2-0.2-0.5,0-0.7l0,0
						c0.2-0.2,0.5-0.2,0.7,0l0,0c0.2,0.2,0.2,0.5,0,0.7l0,0c-0.1,0.1-0.2,0.1-0.3,0.1l0,0C167.4,114.7,167.2,114.6,167.1,114.5z
						 M175.7,113.5c-0.2-0.1-0.3-0.4-0.2-0.7l0,0c0.1-0.2,0.4-0.3,0.7-0.2l0,0c0.2,0.1,0.3,0.4,0.2,0.7l0,0
						c-0.1,0.2-0.3,0.3-0.4,0.3l0,0C175.8,113.5,175.8,113.5,175.7,113.5z M169.6,112.8c-0.1-0.3,0.1-0.5,0.3-0.6l0,0c0,0,0,0,0,0
						l0,0c0.3-0.1,0.5,0,0.6,0.3l0,0c0.1,0.3,0,0.5-0.3,0.6l0,0c0,0-0.1,0-0.2,0l0,0C169.9,113.1,169.7,113,169.6,112.8z M173,112.7
						c-0.3,0-0.5-0.3-0.5-0.5l0,0c0-0.3,0.3-0.5,0.5-0.5l0,0c0.3,0,0.5,0.2,0.5,0.5l0,0C173.5,112.5,173.3,112.7,173,112.7
						L173,112.7C173,112.7,173,112.7,173,112.7z"/>
					<path class="st6" d="M179.9,121.1c-0.1,0-0.1,0-0.2,0c-0.1,0-0.1-0.1-0.2-0.1c-0.1-0.1-0.2-0.2-0.2-0.4c0-0.1,0.1-0.3,0.2-0.4
						c0.2-0.2,0.5-0.2,0.7,0c0.1,0.1,0.1,0.2,0.1,0.4c0,0.1,0,0.2-0.1,0.4c0,0-0.1,0.1-0.2,0.1C180,121.1,180,121.1,179.9,121.1z"/>
				</g>
				<g>
					<path class="st6" d="M150.4,121c-0.1,0-0.1,0-0.2,0c-0.1,0-0.1-0.1-0.2-0.1c0,0-0.1-0.1-0.1-0.2c0-0.1,0-0.1,0-0.2
						c0-0.1,0-0.1,0-0.2c0-0.1,0.1-0.1,0.1-0.2c0.2-0.2,0.5-0.2,0.7,0c0,0,0.1,0.1,0.1,0.2c0,0.1,0,0.1,0,0.2c0,0.1,0,0.2-0.1,0.3
						C150.7,121,150.6,121,150.4,121z"/>
					<path class="st6" d="M149.9,123c0-0.3,0.2-0.5,0.5-0.5l0,0c0.3,0,0.5,0.2,0.5,0.5l0,0c0,0.3-0.2,0.5-0.5,0.5l0,0
						C150.2,123.5,149.9,123.3,149.9,123z"/>
					<path class="st6" d="M155.2,131.4c-0.3-0.1-0.4-0.4-0.3-0.6l0,0c0.1-0.3,0.4-0.4,0.6-0.3l0,0c0.3,0.1,0.4,0.4,0.3,0.6l0,0
						c-0.1,0.2-0.3,0.3-0.5,0.3l0,0C155.3,131.5,155.2,131.4,155.2,131.4z M152.8,130.1c-0.2-0.2-0.2-0.5-0.1-0.7l0,0
						c0.2-0.2,0.5-0.2,0.7-0.1l0,0c0.2,0.2,0.2,0.5,0.1,0.7l0,0c-0.1,0.1-0.2,0.2-0.4,0.2l0,0C153.1,130.2,152.9,130.2,152.8,130.1z
						 M151.1,128.1c-0.1-0.2-0.1-0.5,0.2-0.7l0,0c0.2-0.1,0.5-0.1,0.7,0.2l0,0l0,0l0,0c0.1,0.2,0.1,0.5-0.2,0.7l0,0
						c-0.1,0-0.2,0.1-0.3,0.1l0,0C151.4,128.4,151.2,128.3,151.1,128.1z M150.1,125.6L150.1,125.6c-0.1-0.3,0.1-0.5,0.4-0.6l0,0
						c0.3-0.1,0.5,0.1,0.6,0.4l0,0l0,0l0,0c0.1,0.3-0.1,0.5-0.4,0.6l0,0c0,0-0.1,0-0.1,0l0,0C150.4,126,150.2,125.9,150.1,125.6z"/>
					<path class="st6" d="M157.8,131.9c-0.1,0-0.1,0-0.2,0c-0.1,0-0.1-0.1-0.2-0.1c-0.1-0.1-0.1-0.2-0.1-0.3s0.1-0.3,0.1-0.3
						c0.2-0.2,0.5-0.2,0.7,0c0.1,0.1,0.1,0.2,0.1,0.3s-0.1,0.3-0.1,0.3c-0.1,0.1-0.1,0.1-0.2,0.1
						C157.9,131.9,157.9,131.9,157.8,131.9z"/>
				</g>
				<g>
					<path class="st6" d="M157.8,131.9c-0.3,0-0.5-0.2-0.5-0.5s0.2-0.5,0.5-0.5h0c0.3,0,0.5,0.2,0.5,0.5S158.1,131.9,157.8,131.9z"
						/>
					<path class="st6" d="M160,131.1c-0.1-0.3,0-0.5,0.3-0.6l0,0l0,0l0,0c0.3-0.1,0.5,0,0.6,0.3l0,0c0.1,0.2,0,0.5-0.3,0.6l0,0
						c-0.1,0-0.1,0-0.2,0l0,0C160.2,131.4,160,131.3,160,131.1z"/>
					<path class="st6" d="M162.3,129.9c-0.2-0.2-0.2-0.5,0-0.7l0,0c0,0,0,0,0,0l0,0c0.2-0.2,0.5-0.2,0.7,0l0,0
						c0.2,0.2,0.2,0.5,0,0.7l0,0c-0.1,0.1-0.2,0.1-0.3,0.1l0,0C162.6,130,162.4,130,162.3,129.9z M164.1,127.9
						c-0.2-0.1-0.3-0.4-0.2-0.7l0,0c0.1-0.2,0.4-0.3,0.7-0.2l0,0c0.2,0.1,0.3,0.4,0.2,0.7l0,0c-0.1,0.2-0.3,0.3-0.4,0.3l0,0
						C164.3,127.9,164.2,127.9,164.1,127.9z M165.1,125.4c-0.3,0-0.5-0.3-0.4-0.6l0,0c0-0.3,0.3-0.5,0.5-0.4l0,0
						c0.3,0,0.5,0.3,0.4,0.6l0,0C165.6,125.2,165.4,125.4,165.1,125.4L165.1,125.4C165.1,125.4,165.1,125.4,165.1,125.4z
						 M164.7,122.2c0-0.3,0.2-0.5,0.5-0.5l0,0c0.3,0,0.5,0.2,0.5,0.5l0,0c0,0.3-0.2,0.5-0.5,0.5l0,0
						C164.9,122.8,164.7,122.5,164.7,122.2z"/>
					<path class="st6" d="M165.2,120.1c-0.1,0-0.1,0-0.2,0c-0.1,0-0.1-0.1-0.2-0.1c-0.1-0.1-0.1-0.2-0.1-0.4c0-0.1,0.1-0.3,0.1-0.4
						c0.1-0.1,0.4-0.2,0.5-0.1c0.1,0,0.1,0.1,0.2,0.1c0.1,0.1,0.1,0.2,0.1,0.4c0,0.1,0,0.3-0.1,0.4
						C165.4,120,165.3,120.1,165.2,120.1z"/>
				</g>
			</g>
		</g>
		<g>
			<g>
				<g>
					<g>
						<g>
							<g>
								<g>
									<polyline class="st8" points="344.8,121.7 345.3,122.7 344.8,123.7 									"/>
									<polyline class="st8" points="344.8,123.7 345.3,124.7 344.7,125.7 									"/>
									<polyline class="st8" points="344.9,119.7 345.4,120.6 344.8,121.7 									"/>
								</g>
								<g>
									<polyline class="st8" points="342.6,119 343.1,120 342.5,121 									"/>
									<polyline class="st8" points="342.5,121 343,122 342.5,123 									"/>
									<polyline class="st8" points="342.6,117 343.1,117.9 342.6,118.9 									"/>
								</g>
							</g>
							<g>
								<g>
									<polyline class="st8" points="350.3,121.7 350.8,122.7 350.2,123.7 									"/>
									<polyline class="st8" points="350.2,123.7 350.7,124.7 350.2,125.7 									"/>
									<polyline class="st8" points="350.3,119.7 350.8,120.6 350.3,121.7 									"/>
								</g>
								<g>
									<polyline class="st8" points="348,119 348.5,120 348,121 									"/>
									<polyline class="st8" points="348,121 348.5,122 347.9,123 									"/>
									<polyline class="st8" points="348.1,117 348.6,117.9 348,118.9 									"/>
								</g>
							</g>
							<g>
								<g>
									<polyline class="st8" points="355.7,121.7 356.2,122.7 355.6,123.7 									"/>
									<polyline class="st8" points="355.6,123.7 356.2,124.7 355.6,125.7 									"/>
									<polyline class="st8" points="355.7,119.7 356.3,120.6 355.7,121.7 									"/>
								</g>
								<g>
									<polyline class="st8" points="353.5,119 354,120 353.4,121 									"/>
									<polyline class="st8" points="353.4,121 353.9,122 353.4,123 									"/>
									<polyline class="st8" points="353.5,117 354,117.9 353.5,118.9 									"/>
								</g>
							</g>
							<g>
								<g>
									<polyline class="st8" points="358.9,119 359.4,120 358.8,121 									"/>
									<polyline class="st8" points="358.8,121 359.4,122 358.8,123 									"/>
									<polyline class="st8" points="358.9,117 359.5,117.9 358.9,118.9 									"/>
								</g>
							</g>
						</g>
					</g>
				</g>
			</g>
			<g>
				<path class="st9" d="M356.5,113.6c-15.1-4.5-21-3.2-28-0.2"/>
				<path class="st9" d="M355.8,113.4c13.1,3.2,20.6,3.9,34-3.3"/>
			</g>
			<g>
				<path class="st9" d="M333.2,129c-7.2,2.2-10.9,2.2-13.2-0.8"/>
				<path class="st9" d="M332.9,129.1c6.3-1.6,9.9-1.8,16.3,1.6"/>
			</g>
			<g>
				<path class="st9" d="M364.7,131.1"/>
				<path class="st9" d="M365,131c-6.2,1.9-9.8,2.4-16.4-0.6"/>
			</g>
		</g>
		<g>
			<g>
				<g>
					<path class="st4" d="M195.9,92.7c0.7-0.1,1.5-0.2,1.9-0.4c0.1,0,0.3-0.1,0.3-0.1c0,0,0.1,0,0.1,0.1c0,0.2,0,1.5,0,2.5
						c0,1.3,0,4.4,0,5.1c0,0.9,0.1,1,0.8,1.1c0.2,0,0.2,0.1,0.2,0.2c0,0.1-0.1,0.1-0.3,0.1c-0.8,0-1.2-0.1-1.8-0.1
						c-0.7,0-1,0.1-1.5,0.1c-0.1,0-0.3,0-0.3-0.1c0-0.1,0.1-0.1,0.2-0.1c0.7-0.1,0.8-0.3,0.9-1.1c0-0.5,0.1-1.3,0.1-3.8
						c0-1.8,0-2.3,0-2.7c0-0.2-0.1-0.3-0.2-0.3c-0.1,0-0.2-0.1-0.4-0.1c-0.1,0-0.2-0.1-0.2-0.1C195.7,92.8,195.8,92.7,195.9,92.7z"
						/>
					<path class="st4" d="M203.1,91.9c0.6,0,1.5,0.1,2.4,0.1c0.1,0,0.1,0.1,0.2,0.2c0.5,1.2,2.6,5.5,3.2,6.4c0,0.1,0.1,0,0.1,0
						c0.4-0.8,2.2-4.5,2.6-5.2c0.2-0.6,0.4-0.9,0.5-1.2c0,0,0.1-0.2,0.2-0.2c0.7,0,1.1-0.1,2-0.1c0.2,0,0.3,0,0.3,0.1
						c0,0.1-0.1,0.1-0.2,0.2c-0.9,0.2-0.9,0.4-0.9,1.2c0,0.6,0,2.1,0,2.9c0,1.6,0.1,3.1,0.1,3.7c0.1,0.9,0.2,1,0.8,1.2
						c0.1,0,0.2,0.1,0.2,0.2c0,0.1-0.1,0.1-0.3,0.1c-0.5,0-1.2-0.1-1.8-0.1s-1.3,0-1.5,0c-0.1,0-0.3,0-0.3-0.1
						c0-0.1,0.2-0.1,0.3-0.2c0.6-0.1,0.7-0.5,0.8-1.6c0-0.8,0.1-4.4,0.1-5.2c0-0.1,0-0.2-0.1,0c-1,2.1-2.6,5.4-3.2,6.8
						c-0.1,0.2-0.2,0.3-0.3,0.3c-0.1,0-0.2-0.2-0.2-0.4c-0.5-1.3-2.7-6.1-3.1-6.9c-0.1-0.1-0.1-0.2-0.1,0.1
						c-0.1,0.6-0.2,4.2-0.2,5.2c0,0.6,0,0.8,0.1,1c0.1,0.3,0.3,0.6,0.8,0.7c0.2,0,0.2,0.1,0.2,0.1c0,0.1-0.1,0.1-0.3,0.1
						c-0.3,0-0.8-0.1-1.3-0.1c-0.5,0-0.9,0.1-1.1,0.1c-0.2,0-0.3,0-0.3-0.1c0,0,0-0.1,0.3-0.2c0.4-0.1,0.7-0.2,0.8-0.4
						c0.2-0.2,0.2-0.6,0.3-1.7c0.1-0.9,0.3-3.9,0.3-5.1c0-0.9,0-1.1-0.3-1.4c-0.3-0.3-0.5-0.3-0.8-0.4c-0.1,0-0.2-0.1-0.2-0.2
						S203,91.9,203.1,91.9z"/>
					<path class="st4" d="M215.4,96.1c0.7-0.1,0.9-0.2,1.5-0.5c0.1,0,0.2-0.1,0.2-0.1s0.1,0,0.1,0.2c0,0.3,0,1.1,0,1.7
						c0,1.7,0,2.9,0,3.1c0,0.3,0.1,0.4,0.4,0.5c0.2,0,0.2,0.1,0.2,0.2c0,0.1-0.1,0.1-0.2,0.1c-0.3,0-0.6-0.1-1.2-0.1
						c-0.7,0-1,0-1.2,0c-0.1,0-0.3,0-0.3-0.1c0-0.1,0.1-0.1,0.3-0.1c0.4-0.1,0.5-0.3,0.5-0.8c0-0.5,0-3.1,0-3.2c0-0.3,0-0.3-0.4-0.6
						c-0.1-0.1-0.1-0.1-0.1-0.2C215.2,96.2,215.2,96.1,215.4,96.1z M217.2,93.7c0,0.5-0.4,0.8-0.7,0.8c-0.3,0-0.6-0.3-0.6-0.7
						c0-0.5,0.4-0.8,0.7-0.8C216.9,93,217.2,93.3,217.2,93.7z"/>
					<path class="st4" d="M220.5,97.6c0,2,0,2.6,0,2.8c0,0.5,0.1,0.5,0.5,0.6c0.1,0,0.2,0.1,0.2,0.1c0,0.1-0.2,0.1-0.3,0.1
						c-0.5,0-1.1,0-1.3,0c-0.4,0-0.7,0-1.1,0c-0.2,0-0.3,0-0.3-0.1s0.1-0.1,0.2-0.1c0.4-0.1,0.5-0.2,0.5-0.8c0-0.6,0.1-3.4,0.1-4.9
						c0-0.8,0-2.4,0-2.9c0-0.3-0.1-0.5-0.4-0.6c-0.1-0.1-0.2-0.1-0.2-0.2c0,0,0.1-0.1,0.2-0.1c0.6-0.1,1.2-0.3,1.5-0.4
						c0.1,0,0.2-0.1,0.2-0.1c0,0,0.1,0.1,0.1,0.2c0,0.1,0,2.6,0,5.2V97.6z"/>
					<path class="st4" d="M226.7,97.2c0,0.1-0.1,0.2-0.2,0.2c-0.2,0-2,0-2.4,0h-0.5c0,0-0.1,0.1-0.1,0.1c0,0.1-0.1,0.4-0.1,0.6
						c0,0.8,0.3,1.3,0.7,1.8c0.4,0.4,0.9,0.6,1.3,0.6c0.6,0,1-0.1,1.4-0.5c0.1-0.1,0.2-0.1,0.2,0s0,0.1-0.1,0.2
						c-0.5,0.7-1.2,1.1-2.2,1.1c-0.8,0-1.4-0.3-1.9-0.8s-0.7-1.2-0.7-2c0-0.8,0.3-1.7,1-2.3c0.4-0.3,1-0.7,1.8-0.7
						C225.9,95.6,226.7,96.4,226.7,97.2z M223.8,96.3c-0.2,0.2-0.3,0.6-0.3,0.8c0,0,0,0.1,0.1,0.1l1.4,0c0.4,0,0.4-0.2,0.4-0.4
						c0-0.3-0.1-0.5-0.2-0.7c-0.1-0.1-0.3-0.3-0.6-0.3C224.3,95.8,224,96,223.8,96.3z"/>
					<path class="st4" d="M230.4,100.7c-0.1-0.2-0.2-0.5-0.2-0.9v-3.1c0-0.2,0-0.3-0.1-0.3c-0.1,0-0.2-0.1-0.4-0.1
						c-0.1,0-0.2-0.1-0.2-0.1c0,0,0-0.1,0.2-0.2c0.4-0.1,0.9-0.5,1.2-1c0.1-0.1,0.2-0.1,0.2,0c0,0.1,0,0.6,0,0.7c0,0,0,0.1,0.1,0.1
						c0.3,0,1.5,0,1.8,0c0,0,0.1,0.1,0.1,0.2c0,0.3-0.1,0.4-0.2,0.4c-0.5,0-1.3,0-1.7,0c-0.2,0-0.2,0-0.2,0.1c0,0.3,0,2.6,0,3.1
						c0,0.5,0.1,0.7,0.2,0.8c0.2,0.3,0.5,0.4,0.9,0.4c0.4,0,0.7-0.1,0.8-0.2c0.1-0.1,0.2-0.1,0.2,0c0,0.1-0.1,0.2-0.3,0.4
						c-0.3,0.3-0.8,0.4-1.2,0.4C231.1,101.4,230.7,101.1,230.4,100.7z"/>
					<path class="st4" d="M239.4,98.5c0,1.1-0.7,2-1.2,2.3c-0.5,0.4-1.2,0.6-1.7,0.6c-1.5,0-2.9-1.2-2.9-2.8c0-1.1,0.5-1.9,1.1-2.3
						c0.4-0.3,1.1-0.6,1.8-0.6C238.2,95.7,239.4,96.9,239.4,98.5z M234.7,98.3c0,0.6,0.2,1.4,0.6,2.1c0.4,0.6,0.9,0.8,1.4,0.8
						c0.4,0,0.7-0.2,0.9-0.4c0.2-0.2,0.6-0.9,0.6-2c0-1.4-0.7-2.8-2-2.8C235.5,95.9,234.7,96.7,234.7,98.3z"/>
					<path class="st4" d="M244.1,95.8c0.1,0,0.3,0,0.3,0.1c0,0-0.2,0.1-0.3,0.1c-0.4,0.1-0.3,0.2-0.3,0.4c0.2,0.7,0.9,2.4,1.2,3.2
						c0,0,0.1,0.1,0.1,0c0.2-0.5,0.9-2,1.1-2.4c0-0.1,0.1-0.2,0-0.3c-0.1-0.2-0.2-0.4-0.3-0.6c-0.1-0.3-0.3-0.4-0.6-0.5
						c-0.1,0-0.2-0.1-0.2-0.1s0.1-0.1,0.2-0.1c0.3,0,0.7,0,1,0c0.4,0,0.6,0,0.9,0c0.2,0,0.2,0,0.2,0.1c0,0.1-0.1,0.1-0.2,0.1
						c-0.3,0.1-0.4,0.1-0.3,0.6c0.2,0.5,1,2.6,1.2,3.1c0,0.1,0.1,0,0.1,0c0.2-0.4,0.9-2.1,1.1-2.6c0.1-0.3,0.2-0.6,0.2-0.7
						c0-0.1-0.1-0.3-0.5-0.4c-0.2-0.1-0.2-0.1-0.2-0.1c0-0.1,0.1-0.1,0.2-0.1c0.3,0,0.5,0,0.8,0c0.1,0,0.5,0,0.8,0
						c0.1,0,0.2,0,0.2,0.1s0,0.1-0.3,0.1c-0.3,0.1-0.5,0.3-0.6,0.7c-0.3,0.5-0.7,1.6-1.2,2.6c-0.3,0.6-0.5,1.3-0.7,1.8
						c-0.1,0.2-0.2,0.3-0.2,0.3c-0.1,0-0.1-0.1-0.2-0.3c-0.1-0.2-0.2-0.5-0.4-1c-0.3-0.8-0.6-1.7-0.9-2.5c0,0,0-0.1-0.1,0
						c-0.1,0.3-0.8,1.7-1,2.2c-0.2,0.5-0.4,0.8-0.5,1.3c-0.1,0.2-0.2,0.3-0.2,0.3c-0.1,0-0.1-0.1-0.2-0.3c-0.1-0.2-0.2-0.6-0.4-1.3
						c-0.3-0.7-1.1-3-1.3-3.2c-0.1-0.3-0.3-0.5-0.7-0.6c-0.1,0-0.2-0.1-0.2-0.1c0-0.1,0.1-0.1,0.3-0.1c0.2,0,0.6,0.1,1.1,0.1
						C243.5,95.8,243.8,95.8,244.1,95.8z"/>
					<path class="st4" d="M254.6,96.4c0.2,0.3,0.2,0.9,0.2,1.4c0,0.6,0,2,0,2.4c0,0.3,0.1,0.6,0.6,0.6c0.1,0,0.3,0,0.4-0.1
						c0.1,0,0.2,0,0.1,0.1c-0.2,0.4-0.7,0.6-1.2,0.6c-0.4,0-0.8-0.3-0.9-0.7c0,0-0.1,0-0.1,0c-0.5,0.4-0.9,0.7-1.5,0.7
						c-0.6,0-1.2-0.5-1.2-1.3c0-0.5,0.4-0.8,0.5-0.9c0.4-0.2,1.7-0.6,2-0.7c0.1,0,0.2-0.2,0.2-0.2c0-0.2,0-0.5,0-0.7
						c0-0.6-0.1-1-0.4-1.2c-0.2-0.2-0.5-0.2-0.6-0.2c-0.2,0-0.4,0-0.6,0.2c-0.1,0.1-0.2,0.2-0.2,0.4c0,0.1,0,0.2,0,0.3
						c0,0,0,0.1-0.1,0.1c-0.2,0.1-0.6,0.3-0.7,0.3c-0.1,0-0.2-0.1-0.2-0.1c0-0.1,0.1-0.2,0.3-0.5c0.3-0.4,0.8-0.7,1.1-0.9
						c0.3-0.2,0.6-0.3,0.9-0.3C253.9,95.7,254.4,96,254.6,96.4z M253.6,100.6c0.1-0.1,0.2-0.2,0.2-0.4c0-0.3,0.1-0.9,0.1-1.4
						c0,0,0-0.1-0.1-0.1c-0.2,0-1.1,0.3-1.4,0.5c-0.2,0.1-0.4,0.3-0.4,0.8c0,0.5,0.4,0.8,0.9,0.8
						C253.2,100.8,253.4,100.7,253.6,100.6z"/>
					<path class="st4" d="M257.9,97.6c0,1.9,0,2.6,0,2.9c0,0.4,0.1,0.5,0.5,0.6c0.1,0,0.2,0.1,0.2,0.1c0,0.1-0.1,0.1-0.3,0.1
						c-0.2,0-0.8,0-1,0c-0.4,0-0.8,0-1,0c-0.2,0-0.3,0-0.3-0.1s0.1-0.1,0.3-0.1c0.4-0.1,0.5-0.2,0.5-0.9c0-0.6,0.1-3.1,0.1-4.9
						c0-1.2,0-2.5,0-3.1c0-0.3,0-0.4-0.4-0.6c-0.1-0.1-0.2-0.1-0.2-0.1c0,0,0.1-0.1,0.2-0.1c0.4-0.1,0.8-0.2,1.1-0.3
						c0,0,0.1,0,0.2,0c0,0,0,0.1,0,0.2c0,0.1-0.1,2.7-0.1,5V97.6z"/>
					<path class="st4" d="M263.6,95.8c0.3,0,0.9-0.1,1.3-0.1c0.2,0,0.2,0,0.2,0.1c0,0,0,0.1-0.2,0.1c-0.5,0.1-0.8,0.2-1.4,0.7
						c-0.4,0.3-1.1,0.9-1.4,1.2c0,0,0,0.1,0,0.1c0.5,0.5,1.5,1.7,2.2,2.4c0.4,0.4,0.6,0.6,1.1,0.7c0.1,0,0.2,0.1,0.2,0.1
						c0,0.1-0.1,0.1-0.3,0.1c-0.5,0-1.1-0.1-1.7-0.1c-0.3,0-0.5,0-0.7,0c-0.2,0-0.3,0-0.3-0.1c0-0.1,0.1-0.1,0.3-0.2
						c0.3-0.1,0.3-0.2,0.2-0.4c-0.3-0.4-1.4-1.5-1.8-1.9c-0.1-0.1-0.2-0.2-0.3-0.2c0,0-0.1,0.1-0.1,0.2c0,0.3,0,0.8,0,1.6
						c0,0.7,0.1,0.8,0.6,0.9c0.2,0,0.2,0.1,0.2,0.1c0,0.1-0.1,0.1-0.3,0.1c-0.4,0-0.7,0-1.1,0c-0.5,0-0.8,0-1,0
						c-0.2,0-0.2,0-0.2-0.1c0,0,0.1-0.1,0.2-0.1c0.5-0.1,0.6-0.3,0.6-0.8c0.1-1.1,0.1-2.4,0.1-3.5c0-1.2,0.1-3.1,0.1-4.3
						c0-0.3,0-0.5-0.1-0.7c0-0.1-0.2-0.2-0.3-0.3c-0.1,0-0.1-0.1-0.1-0.1c0-0.1,0.1-0.1,0.2-0.1c0.6-0.2,1-0.3,1.1-0.4
						c0.1,0,0.2-0.1,0.2-0.1c0,0,0,0,0,0.1c0,0.5-0.1,1.8-0.1,2.9c0,0.5-0.1,2.4-0.1,4.1c0,0.2,0,0.2,0.1,0.2c0.1,0,0.2-0.1,0.3-0.2
						c0.6-0.5,1.4-1.2,1.6-1.5c0.1-0.1,0.2-0.2,0.2-0.3c0-0.1-0.1-0.2-0.4-0.2c-0.1,0-0.3-0.1-0.3-0.1s0.1-0.1,0.2-0.1
						C263.1,95.8,263.4,95.8,263.6,95.8z"/>
					<path class="st4" d="M267.6,98.3c-0.1-1.4-0.5-3.8-0.5-4.8c0-0.5,0.3-1.1,0.7-1.1c0.4,0,0.7,0.5,0.7,1.1c0,0.7-0.4,4-0.5,4.8
						c0,0.3-0.1,0.5-0.2,0.5C267.7,98.7,267.6,98.7,267.6,98.3z M267.1,100.7c0-0.4,0.4-0.7,0.7-0.7c0.5,0,0.6,0.5,0.6,0.7
						c0,0.4-0.4,0.6-0.6,0.6C267.5,101.4,267.1,101.2,267.1,100.7z"/>
				</g>
			</g>
		</g>
	</g>
</g>
</svg>
