<svg id="Layer_1" data-name="Layer 1" xmlns="http://www.w3.org/2000/svg" viewBox="0 0 399 200"><defs><style>.cls-1{fill:#333838;}.cls-2,.cls-3,.cls-4,.cls-5,.cls-6,.cls-7,.cls-8{fill:none;stroke:#222f3c;}.cls-2,.cls-3,.cls-5{stroke-linecap:round;}.cls-2,.cls-3,.cls-5,.cls-6{stroke-linejoin:round;}.cls-2,.cls-7,.cls-8{stroke-width:0.5px;}.cls-3,.cls-4,.cls-6{stroke-width:0.4px;}.cls-4,.cls-7,.cls-8{stroke-miterlimit:10;}.cls-5{stroke-width:0.4px;}.cls-8{stroke-linecap:square;}</style></defs><path class="cls-1" d="M244.2092,64.5759c.1225,0,.2756-.0152.2756-.0918s-.0919-.1224-.3215-.153c-.5356-.1072-.6427-.2755-.6733-.9948-.0306-.52-.0306-.8111-.0306-1.21,0-.7192,0-1.607.0306-2.0967a1.7722,1.7722,0,0,1,.2142-.5969c.4592-.75,1.5-2.5558,2.296-3.5812a1.6866,1.6866,0,0,1,1.1326-.7805c.2448-.0306.3367-.0918.3367-.153s-.1072-.0918-.2756-.0918c-.23,0-.7192.0765-1.0864.0765-.4285,0-.6733-.0613-1.1018-.0613-.1531,0-.245.0307-.245.0766,0,.0765.1378.1224.26.153.3979.0765.5663.1989.5663.3826a1.7978,1.7978,0,0,1-.352.8111c-.3214.551-1.3008,2.158-1.8212,3.015-.0459.0765-.1531,0-.1836-.0153-.3674-.505-1.7136-2.8313-1.99-3.3057a1.6037,1.6037,0,0,1-.26-.5816c0-.1072.0919-.1989.4592-.2755.1531-.0306.245-.0765.245-.153,0-.0613-.0766-.0919-.245-.0919-.2754,0-.75.046-1.24.046-.4592,0-1.209-.0765-1.4846-.0765-.1989,0-.2911,0-.2911.0918,0,.0459.0764.1071.3214.153.4592.0918.7346.3214,1.2243.9948.4438.6272,1.7136,2.7552,2.2191,3.673a.87.87,0,0,1,.1071.3367c.0153.199.0307.4744.0307,1.4233,0,.6581-.0307,1.6688-.0613,1.9743-.0459.5969-.1377.75-.75.8265-.1837.0306-.3368.0765-.3368.1376,0,.0766.1072.1226.3214.1226.4286,0,.7193-.0613,1.24-.0613C243.3063,64.4994,243.5971,64.5759,244.2092,64.5759Zm4.3925.1072a2.931,2.931,0,0,0,2.9075-2.9533,2.8721,2.8721,0,0,0-2.8507-2.8932c-.0292,0-.0585,0-.0877.0007a3.1416,3.1416,0,0,0-1.8368.6427,2.9187,2.9187,0,0,0,1.8671,5.2036Zm.2142-.26a1.8192,1.8192,0,0,1-1.4386-.8111,3.5038,3.5038,0,0,1-.6428-2.0967c0-1.5916.8265-2.4181,1.607-2.4181,1.3467,0,2.0813,1.4386,2.0813,2.8925A3.0477,3.0477,0,0,1,249.78,64.04a1.5128,1.5128,0,0,1-.9641.3825Zm7.9735.23a6.8922,6.8922,0,0,1,1.5764-.4131c.153-.0306.2912-.0613.2912-.1224a.184.184,0,0,0-.1837-.168,4.31,4.31,0,0,0-.6272.1377c-.1224.0153-.168-.0153-.199-.168a3.6166,3.6166,0,0,1-.03-.5744v-.206c0-1.7753.03-3.3058.1071-4.0251.0153-.1071-.0153-.168-.0612-.168a8.1039,8.1039,0,0,1-1.0561.0918h-.6427c-.0919,0-.23.0307-.23.0918,0,.0459.0765.0919.2448.1224.505.1072.6581.1837.6733.7041,0,.3979.0154,1.1172.0154,1.3468,0,.5509,0,1.1477-.0306,1.561a.938.938,0,0,1-.2755.704,1.7155,1.7155,0,0,1-1.3009.49,1.1251,1.1251,0,0,1-.857-.3826,1.6913,1.6913,0,0,1-.23-1.01c-.0152-.7039,0-2.7853.0459-3.6577.0154-.0918-.0306-.1837-.0765-.168a5.3842,5.3842,0,0,1-1.2855.1989c-.168,0-.245.0307-.245.0766s.046.0919.1837.1836a.5955.5955,0,0,1,.3367.5051c.0307.26.0307,2.8466.0307,3.3516a1.6021,1.6021,0,0,0,.2912.9336,1.5041,1.5041,0,0,0,1.3314.551,2.6225,2.6225,0,0,0,.903-.23,4.3964,4.3964,0,0,0,1.056-.75c.0306-.0458.0459.0612.0459.1072,0,.1071-.0153.4438-.0153.5968,0,.168,0,.2449.0306.2912s.06.06.1823-.0009Zm7.27.0154a2.6458,2.6458,0,0,0,2.112-1.01.3975.3975,0,0,0,.1224-.2449c0-.0459-.0765-.03-.107,0a2.0535,2.0535,0,0,1-1.5917.5816,2.1752,2.1752,0,0,1-1.4233-.5357,2.5759,2.5759,0,0,1-.7653-1.9895c0-1.76,1.056-2.3722,1.6988-2.3722a1.371,1.371,0,0,1,.5815.1224,4.1917,4.1917,0,0,1,.8571.6272.4742.4742,0,0,0,.26.153.5226.5226,0,0,0,.3826-.49.3516.3516,0,0,0-.2143-.2912,2.3293,2.3293,0,0,0-1.3927-.3825,3.3544,3.3544,0,0,0-2.2651.8876,2.9245,2.9245,0,0,0-.9335,2.1273,2.8844,2.8844,0,0,0,.7652,2.0661A2.7892,2.7892,0,0,0,264.059,64.6678Zm6.7033,0a1.29,1.29,0,0,0,1.1785-.6581c.0611-.1377,0-.1836-.0919-.1377a.9742.9742,0,0,1-.4438.1377.5243.5243,0,0,1-.5663-.5815c0-.398.0459-1.8518.0459-2.4181a3.6984,3.6984,0,0,0-.2143-1.3927,1.2545,1.2545,0,0,0-1.1784-.7806,2.0525,2.0525,0,0,0-.9184.2756A3.98,3.98,0,0,0,267.41,60c-.1835.2142-.2912.352-.2912.4592,0,.0612.0765.1531.1531.1377a3.2891,3.2891,0,0,0,.7193-.3366.1891.1891,0,0,0,.0612-.1225,1.5937,1.5937,0,0,1,.0153-.2912.612.612,0,0,1,.23-.3673,1.0541,1.0541,0,0,1,.6122-.1837,1.1654,1.1654,0,0,1,.6427.2449c.26.1989.3673.6272.3673,1.2544a5.2059,5.2059,0,0,1-.0306.704.29.29,0,0,1-.1989.23c-.3214.1224-1.7142.5357-2.0814.7346a1.0783,1.0783,0,0,0-.551.8723,1.27,1.27,0,0,0,1.2213,1.316l.003,0a2.142,2.142,0,0,0,1.5-.6887.0535.0535,0,0,1,.0746.0124l.0019.0029a1.0278,1.0278,0,0,0,.9034.69Zm-1.8059-.5969a.889.889,0,0,1-.9184-.857.7924.7924,0,0,1,.3826-.7653,8.6308,8.6308,0,0,1,1.4081-.52c.0306-.0153.0612.0612.0612.0766a10.9828,10.9828,0,0,1-.0765,1.4538.6349.6349,0,0,1-.168.3674,1.05,1.05,0,0,1-.689.2445Zm5.9075.398c0-.0766-.0765-.1072-.26-.1531-.2448-.0765-.4285-.153-.4744-.49a12.5809,12.5809,0,0,1-.0919-1.607c0-.9184-.0152-1.6988-.0152-1.8825a.7931.7931,0,0,1,.1836-.4592,1.8311,1.8311,0,0,1,1.1938-.49,1.3608,1.3608,0,0,1,.8722.2912c.3827.2913.49.6581.49,1.8978v2.0813c0,.4438-.0612.551-.4285.6428-.199.046-.2912.1071-.2912.168s.107.0919.2448.0919c.23,0,.4285-.0613.9489-.0613.3366,0,.7805.0613.98.0613.153,0,.2754-.0154.2754-.1072,0-.0613-.0918-.0918-.23-.153-.4131-.1072-.4592-.199-.4744-1.24,0-.7652-.0152-.8876-.0152-1.6987a3.1944,3.1944,0,0,0-.49-2.0048,1.5625,1.5625,0,0,0-1.1937-.52,2.07,2.07,0,0,0-.903.1837,5.2652,5.2652,0,0,0-1.0864.6887c-.0307.0306-.0765-.0154-.0765-.0459a6.9061,6.9061,0,0,1,.0306-.8111c.0153-.0766-.0612-.1378-.1072-.1226a5.7463,5.7463,0,0,1-1.209.52c-.1377.0459-.2143.0918-.2143.1225,0,.0459.0307.0765.1225.1377.3673.199.3979.3673.3979.52,0,1.24,0,2.6477-.0306,3.75-.0153.3061-.0765.4131-.4592.49-.1837.0307-.3214.0919-.3214.1531,0,.0765.1224.1071.2912.1071.2912,0,.6122-.0306.8111-.0306.352,0,1.102.0613,1.2244.0613.153,0,.306,0,.306-.0918Zm8.77,4.5913a3.6515,3.6515,0,0,0,1.8518-.5051,3.0886,3.0886,0,0,0,1.7136-2.4946,1.5809,1.5809,0,0,0-1.7136-1.6988c-.4285,0-1.27.0459-1.7446.0459-.7959,0-1.4233-.153-1.4233-.6427a.4858.4858,0,0,1,.1679-.3367,2.3426,2.3426,0,0,1,.5356-.5051.2942.2942,0,0,1,.1837-.0458,3.715,3.715,0,0,0,.6428.0764,2.1079,2.1079,0,0,0,1.1938-.3979,2.53,2.53,0,0,0,.9641-2.0661c0-.2755-.0306-.52-.0306-.6272a.1381.1381,0,0,1,.0919-.0918c.168,0,.7192.0307.9335.0307.0612,0,.168-.1224.168-.2755,0-.1837-.0612-.3367-.1377-.3367-.23,0-.8418.0306-1.1325.0306a1.1183,1.1183,0,0,1-.5357-.0765,3.4638,3.4638,0,0,0-1.5611-.3979,2.3541,2.3541,0,0,0-1.6222.6272,1.8483,1.8483,0,0,0-.6428,1.4692,2.31,2.31,0,0,0,1.1784,1.9129c.0307.0154.0459.0766.0307.0919a6.712,6.712,0,0,1-1.27,1.1325.19.19,0,0,0-.0918.1531c0,.6121.8111,1.1478,1.24,1.24.0459.0153.0306.1071.0152.1378-.306.3367-.8723,1.0559-.9794,1.1783a.9754.9754,0,0,0-.2755.6582c0,1.1325,1.0259,1.7141,2.25,1.7141Zm.3214-6.3361a1.2486,1.2486,0,0,1-.9489-.4438,2.7739,2.7739,0,0,1-.4744-1.6376,2.14,2.14,0,0,1,.4132-1.3468,1.1489,1.1489,0,0,1,.7805-.3519,1.0767,1.0767,0,0,1,.9184.52,2.739,2.739,0,0,1,.4744,1.7136c0,.7045-.46,1.5462-1.1634,1.5462Zm.3061,5.8157a2.0922,2.0922,0,0,1-1.454-.4592,1.5668,1.5668,0,0,1-.5968-1.1631,1.935,1.935,0,0,1,.6581-1.362.9429.9429,0,0,1,.52-.1378c.4132-.0153,1.1632-.0307,1.7448-.0307.9794,0,1.3776.5663,1.3776,1.21a2.0424,2.0424,0,0,1-.8265,1.5763,2.3793,2.3793,0,0,1-1.4237.3665Zm5.9074-3.872a2.7052,2.7052,0,0,0,2.1274-.9642.5793.5793,0,0,0,.153-.2449c0-.0764-.0612-.107-.1836.0154a1.9542,1.9542,0,0,1-1.454.49,2.0674,2.0674,0,0,1-1.53-.6272,2.743,2.743,0,0,1-.7041-1.8518,2.1063,2.1063,0,0,1,.1225-.8418c.0305-.046.1071-.1225.1377-.1225h.8265c.352,0,2.3415.0306,2.464.046a.18.18,0,0,0,.153-.168,1.7663,1.7663,0,0,0-1.8672-1.5611,2.8479,2.8479,0,0,0-1.913.7652,3.19,3.19,0,0,0-.8877,2.2345,2.9922,2.9922,0,0,0,.7346,2.0507,2.4712,2.4712,0,0,0,1.821.78Zm-1.27-4.3617a.0658.0658,0,0,1-.0611-.0613,1.3459,1.3459,0,0,1,.3213-.6272,1.59,1.59,0,0,1,1.1173-.5663,1.0717,1.0717,0,0,1,.7652.2912.9862.9862,0,0,1,.2143.6428c0,.1377-.0306.3061-.3674.3061Zm6.2749,4.3311a2.1007,2.1007,0,0,0,1.24-.3979c.1989-.153.3367-.3061.3367-.398,0-.0611-.046-.0765-.1531,0a1.4957,1.4957,0,0,1-.8417.23,1.1312,1.1312,0,0,1-.9489-.4132,1.5685,1.5685,0,0,1-.168-.8264c-.0153-.4744-.0307-2.8773-.0307-3.1374,0-.0919.0307-.1378.2143-.1378.4133,0,1.1632.0153,1.6988.0153.0765,0,.1531-.1224.1531-.3825,0-.1072-.0612-.2143-.0918-.2143-.3214,0-1.5917.0459-1.8672.0459-.0612,0-.0765-.0918-.0765-.1377-.0153-.1837.0153-.6122.0153-.75,0-.0765-.1071-.1071-.2449.0459a3.2627,3.2627,0,0,1-1.2549,1.0255c-.168.0764-.1837.1224-.1837.1529,0,.0613.0765.1071.199.1378a2.51,2.51,0,0,1,.3673.0918c.0612.0306.0765.1377.0765.3061V63.06a1.72,1.72,0,0,0,.1837.8723,1.4178,1.4178,0,0,0,1.3767.7045Zm6.4125,0a2.1,2.1,0,0,0,1.24-.3979c.1991-.153.3367-.3061.3367-.398,0-.0611-.0458-.0765-.153,0a1.4958,1.4958,0,0,1-.8418.23,1.1312,1.1312,0,0,1-.9488-.4132,1.5685,1.5685,0,0,1-.168-.8264c-.0153-.4744-.0306-2.8773-.0306-3.1374,0-.0919.0306-.1378.2143-.1378.4132,0,1.1631.0153,1.6988.0153.0765,0,.153-.1224.153-.3825,0-.1072-.0612-.2143-.0919-.2143-.3213,0-1.5916.0459-1.867.0459-.0612,0-.0766-.0918-.0766-.1377-.0152-.1837.0154-.6122.0154-.75,0-.0765-.1072-.1071-.2449.0459a3.2611,3.2611,0,0,1-1.2544,1.0255c-.168.0764-.1836.1224-.1836.1529,0,.0613.0765.1071.1989.1378a2.5067,2.5067,0,0,1,.3673.0918c.0612.0306.0765.1377.0765.3061V63.06a1.7214,1.7214,0,0,0,.1837.8723,1.4179,1.4179,0,0,0,1.3762.7045Zm7.9124-.0613c.1377,0,.2448-.0459.2448-.107s-.0459-.0919-.2448-.1378c-.4592-.0765-.52-.1837-.52-.49-.0153-.5815-.0153-1.53-.0306-2.6782a2.9513,2.9513,0,0,0-.3368-1.6376,1.63,1.63,0,0,0-1.3776-.6887,2.4023,2.4023,0,0,0-1.0713.26,5.0455,5.0455,0,0,0-.9184.6272c-.0152.0307-.0611.0154-.0611-.0458-.0154-.2912.0459-5.0352.0611-5.4483.0154-.2143-.0306-.3215-.0765-.3215a.333.333,0,0,0-.1529.0613,6.3638,6.3638,0,0,1-1.1173.3672c-.168.046-.26.0919-.26.1378s.0459.0765.1072.1224c.3366.1837.4438.23.4592.7193.0307.5816,0,1.5151,0,3.8261,0,2.4334-.0153,3.8416-.0612,4.4536-.0153.5815-.1224.6272-.5662.7346-.1837.0459-.2449.0765-.2449.1378s.0765.0918.2449.0918c.2912,0,.52-.0613.9948-.0613.4438,0,.8416.0613,1.27.0613.1377,0,.2295-.0459.2295-.0918,0-.0767-.107-.1072-.3366-.1532a.541.541,0,0,1-.49-.52,30.4613,30.4613,0,0,1-.0765-3.2905.7693.7693,0,0,1,.1531-.5661,1.8482,1.8482,0,0,1,1.3467-.5663,1.1453,1.1453,0,0,1,1.056.5663,2.45,2.45,0,0,1,.23,1.1478c0,1.5916-.0307,2.2651-.0612,2.617-.0613.4438-.0919.551-.505.6428-.1531.0306-.23.0612-.23.1225,0,.0459.0612.0918.2448.0918.352,0,.4745-.0613.9948-.0613.4132,0,.7039.0767,1.1019.0767Zm3.4893.0919a2.7052,2.7052,0,0,0,2.1274-.9642.5793.5793,0,0,0,.153-.2449c0-.0764-.0612-.107-.1836.0154a1.9542,1.9542,0,0,1-1.454.49,2.0674,2.0674,0,0,1-1.53-.6272,2.743,2.743,0,0,1-.7041-1.8518,2.1063,2.1063,0,0,1,.1225-.8418c.0305-.046.1071-.1225.1377-.1225h.8265c.352,0,2.3415.0306,2.464.046a.18.18,0,0,0,.153-.168,1.7661,1.7661,0,0,0-1.8671-1.5611,2.8479,2.8479,0,0,0-1.913.7652,3.19,3.19,0,0,0-.8878,2.2345,2.9918,2.9918,0,0,0,.7347,2.0507,2.4709,2.4709,0,0,0,1.8209.78Zm-1.27-4.3617a.0658.0658,0,0,1-.0612-.0613,1.3446,1.3446,0,0,1,.3214-.6272,1.5892,1.5892,0,0,1,1.1172-.5663,1.0708,1.0708,0,0,1,.7652.2912.9862.9862,0,0,1,.2143.6428c0,.1377-.0306.3061-.3673.3061Zm7.9736,4.377a2.5421,2.5421,0,0,0,1.2243-.3366,1.5711,1.5711,0,0,0,.7952-1.2857c0-.7805-.3978-1.1631-1.3926-1.8059-.3827-.23-.9642-.5968-.9642-1.24a.8916.8916,0,0,1,.8318-.9475c.0288-.0018.0578-.0023.0866-.0014a1.2572,1.2572,0,0,1,.7193.23,1.1616,1.1616,0,0,1,.3672.6272c.046.1071.0766.1837.1378.1837.0459,0,.0766-.0766.0766-.2449-.0154-.2449-.0766-.551-.0919-.7193a.2479.2479,0,0,0-.0765-.1378,3.75,3.75,0,0,0-1.0406-.168,1.9789,1.9789,0,0,0-1.2857.4285,1.4515,1.4515,0,0,0-.5815,1.21c0,.6735.6122,1.24,1.27,1.6683.6122.3826,1.01.7039,1.01,1.2855a1.0492,1.0492,0,0,1-.9948,1.0254,1.1712,1.1712,0,0,1-.6887-.1837,1.4908,1.4908,0,0,1-.6428-.8265c-.1071-.2912-.153-.2912-.199-.2912-.0306,0-.0765.046-.0459.245.0154.168.0459.5509.0459.7652,0,.0918.1072.1989.23.2448a3.1154,3.1154,0,0,0,1.2093.2754Zm4.9892-.0459a2.1007,2.1007,0,0,0,1.24-.3979c.1989-.153.3366-.3061.3366-.398,0-.0611-.0459-.0765-.153,0a1.4957,1.4957,0,0,1-.8417.23,1.1311,1.1311,0,0,1-.9489-.4133,1.5679,1.5679,0,0,1-.168-.8263c-.0153-.4744-.0306-2.8773-.0306-3.1374,0-.0919.0306-.1378.2143-.1378.4132,0,1.1631.0153,1.6988.0153.0765,0,.153-.1224.153-.3826,0-.1071-.0612-.2142-.0918-.2142-.3214,0-1.5917.0459-1.8672.0459-.0611,0-.0765-.0918-.0765-.1378-.0153-.1836.0154-.6121.0154-.75,0-.0765-.1072-.1071-.245.0459a3.26,3.26,0,0,1-1.2544,1.0254c-.168.0765-.1835.1225-.1835.153,0,.0613.0764.1071.1989.1378a2.5067,2.5067,0,0,1,.3673.0918c.0612.0306.0765.1377.0765.3061V63.06a1.7205,1.7205,0,0,0,.1837.8724,1.4179,1.4179,0,0,0,1.3762.7045Zm4.8973.0459a2.9313,2.9313,0,0,0,2.9081-2.9533,2.8721,2.8721,0,0,0-2.8507-2.8932q-.0438,0-.0878.0007a3.1418,3.1418,0,0,0-1.8368.6427,2.9187,2.9187,0,0,0,1.8671,5.2036Zm.2143-.26a1.819,1.819,0,0,1-1.439-.8115,3.5041,3.5041,0,0,1-.6428-2.0968c0-1.5916.8263-2.418,1.6068-2.418,1.3469,0,2.0814,1.4386,2.0814,2.8925a3.0474,3.0474,0,0,1-.6427,2.0508,1.5128,1.5128,0,0,1-.964.383Zm3.7037.168a8.2762,8.2762,0,0,1,.9336-.0918c.6427,0,1.1479.0613,1.4386.0613.23,0,.3672-.0307.3672-.1072s-.0764-.1071-.2912-.1378c-.5815-.0611-.7651-.168-.8264-.6427-.0306-.3214-.0612-1.1172-.0612-2.25a8.8365,8.8365,0,0,1,.0153-.9335.8786.8786,0,0,1,.26-.5357,1.0458,1.0458,0,0,1,.6735-.3061,1.0712,1.0712,0,0,1,.5356.1837.69.69,0,0,0,.2755.1072c.0459,0,.1071-.0154.2448-.1378a1.0473,1.0473,0,0,0,.3367-.52.2672.2672,0,0,0-.1071-.2143.8912.8912,0,0,0-.5357-.199,2.4977,2.4977,0,0,0-1.6528,1.1019c-.0459.046-.0766.0306-.0766-.0153,0-.2448.0154-.8265.0154-.9948,0-.153-.0306-.2142-.0613-.2142a.4826.4826,0,0,0-.23.0765,4.6423,4.6423,0,0,1-.9795.3673c-.1377.0459-.23.1071-.23.1378s.0153.0765.1224.153c.2913.2448.398.2912.398.3979v1.6992c0,1.01-.0154,1.8823-.0459,2.1425a.6327.6327,0,0,1-.5511.6272c-.1224.0306-.2295.1071-.2295.153,0,.0616.0767.0922.26.0922Zm5.4177,4.1934a.576.576,0,0,0,.5051-.26,2.1137,2.1137,0,0,0,.2912-.5663c.2143-.52.7959-2.112,1.1632-3,.3214-.8263.4592-1.1784.6427-1.6835.23-.5815,1.1785-2.9384,1.3622-3.321.2448-.5663.3979-.6733.7039-.7652.1531-.0459.2143-.1072.2143-.1531s-.0918-.0611-.1836-.0611c-.23,0-.4285.0459-.704.0459-.23,0-.551-.0459-.7347-.0459-.1377,0-.2142.0305-.2142.0918,0,.0459.0459.0918.2755.1378.26.0765.3367.1989.3367.306a1.15,1.15,0,0,1-.0765.4438c-.1226.352-.98,2.5558-1.1785,3.0762-.0153.0459-.0612.0613-.0918,0-.3061-.6428-1.1479-2.7088-1.3468-3.2445-.1378-.398-.1071-.4745.23-.5815.0919-.0154.199-.0613.199-.1226s-.1071-.107-.26-.107c-.1989,0-.5969.0459-.8111.0459-.3673,0-.7959-.0613-1.0713-.0613-.1072,0-.245.0306-.245.1072,0,.0459.0919.1071.2756.153a.8189.8189,0,0,1,.5509.4133c.6887,1.5,1.6683,3.9791,1.8977,4.576a.7487.7487,0,0,1,.0154.49c-.52,1.3316-.9642,2.5866-1.1172,2.9079a.37.37,0,0,1-.3979.26c-.1071,0-.199-.0306-.3061-.0306a.4516.4516,0,0,0-.4285.4438.5089.5089,0,0,0,.5042.5054ZM241.9136,81.3787a2.9309,2.9309,0,0,0,2.9078-2.9537,2.8721,2.8721,0,0,0-2.8509-2.8932c-.0291,0-.0583,0-.0875.0006a3.1424,3.1424,0,0,0-1.8368.6428,2.9187,2.9187,0,0,0,1.8672,5.2035Zm.2142-.26a1.819,1.819,0,0,1-1.4385-.8111,3.5044,3.5044,0,0,1-.6429-2.0968c0-1.5916.8265-2.4181,1.607-2.4181,1.3468,0,2.0814,1.4387,2.0814,2.8925a3.0477,3.0477,0,0,1-.6428,2.0509A1.5129,1.5129,0,0,1,242.1278,81.1186Zm3.75.1377c.26-.0153.5968-.0612.9488-.0612.7806,0,1.0254.0459,1.4693.0459.1376,0,.2448-.0306.2448-.1071,0-.0613-.0919-.0918-.2755-.1378-.1989-.0459-.3673-.0459-.49-.0918-.1531-.0459-.2755-.168-.3214-.75-.0153-.4437-.046-3.2292-.046-3.7954,0-.0153.0307-.1378.0765-.1378.2143,0,1.3163.0307,1.5611.0307.1837,0,.2143-.0613.2143-.2755,0-.1837-.0612-.2756-.1225-.2756-.168,0-1.4692.0307-1.6069.0307a.12.12,0,0,1-.1225-.0918,4.4985,4.4985,0,0,1-.0152-.49c0-.4744.0306-1.5611.0765-2.0355.153-1.6375.6887-2.0814,1.3776-2.0814a1.8058,1.8058,0,0,1,1.0864.52.2756.2756,0,0,0,.3061.0306.752.752,0,0,0,.3826-.5051c0-.23-.4133-.49-1.0407-.49a2.5025,2.5025,0,0,0-1.3776.4131,3.5246,3.5246,0,0,0-1.5456,2.0355,9.7515,9.7515,0,0,0-.26,2.51.2982.2982,0,0,1-.1531.2143l-.3672.23c-.1072.0611-.1837.107-.1837.153,0,.0305.0918.1072.1989.1224.1837.0153.352.0153.4285.0153.0613.0154.0766.0919.0766.1989v3.6731c0,.551-.0766.7653-.4438.8571-.1991.0459-.3061.0917-.3061.153S245.74,81.2563,245.8775,81.2563Zm11.4016.2143a5.5524,5.5524,0,0,0,2.9843-.8418.4093.4093,0,0,0,.153-.23,10.84,10.84,0,0,0,.2143-1.209c0-.0919-.0306-.23-.0919-.23s-.0917.0612-.1529.26a2.7427,2.7427,0,0,1-1.1785,1.5,3.2469,3.2469,0,0,1-1.8212.4285,3.6542,3.6542,0,0,1-2.617-1.1324,5.8011,5.8011,0,0,1-1.4081-3.7037,5.5264,5.5264,0,0,1,1.1632-3.55,3.6912,3.6912,0,0,1,2.663-1.1937,3.5076,3.5076,0,0,1,2.3415.7652,2.3865,2.3865,0,0,1,.7346,1.2243c.0306.1225.0765.199.1378.199.0306,0,.0918-.0918.0918-.2449a11.7056,11.7056,0,0,1-.0459-1.1784.2719.2719,0,0,0-.1531-.26,7.0673,7.0673,0,0,0-3-.75,5.5008,5.5008,0,0,0-3.5659,1.27,4.881,4.881,0,0,0-1.7136,3.8721A5.3533,5.3533,0,0,0,253.3,79.8487a5.2679,5.2679,0,0,0,3.9788,1.6219Zm6.9176-.1072a2.7051,2.7051,0,0,0,2.1273-.9641.5815.5815,0,0,0,.153-.2449c0-.0765-.0613-.1071-.1837.0153a1.9536,1.9536,0,0,1-1.4539.49,2.0673,2.0673,0,0,1-1.53-.6272,2.7429,2.7429,0,0,1-.704-1.8518,2.1058,2.1058,0,0,1,.1225-.8417c.0306-.0459.1071-.1225.1377-.1225h.8265c.3519,0,2.3415.0307,2.464.0459a.18.18,0,0,0,.153-.168,1.7662,1.7662,0,0,0-1.8672-1.5611,2.8481,2.8481,0,0,0-1.9131.7653,3.19,3.19,0,0,0-.8876,2.2344,2.9921,2.9921,0,0,0,.7347,2.0508,2.4708,2.4708,0,0,0,1.8213.78Zm-1.27-4.3617a.0659.0659,0,0,1-.0612-.0612,1.3449,1.3449,0,0,1,.3213-.6272,1.59,1.59,0,0,1,1.1172-.5663,1.0716,1.0716,0,0,1,.7653.2912.9851.9851,0,0,1,.2143.6428c0,.1378-.0307.3061-.3674.3061Zm4.2393,4.2852a8.2531,8.2531,0,0,1,.9336-.0918c.6428,0,1.1478.0612,1.4385.0612.23,0,.3674-.0306.3674-.1072s-.0765-.107-.2912-.1376c-.5816-.0613-.7653-.168-.8265-.6429-.0307-.3213-.0613-1.1172-.0613-2.25a8.84,8.84,0,0,1,.0154-.9337.8784.8784,0,0,1,.26-.5357,1.0453,1.0453,0,0,1,.6733-.3059,1.0713,1.0713,0,0,1,.5357.1835.6887.6887,0,0,0,.2754.1072c.0459,0,.1072-.0153.245-.1377a1.0485,1.0485,0,0,0,.3366-.52.2671.2671,0,0,0-.1072-.2143.8906.8906,0,0,0-.5356-.1989,2.4986,2.4986,0,0,0-1.6528,1.1019c-.046.0459-.0765.0306-.0765-.0153,0-.2449.0152-.8264.0152-.9948,0-.153-.0306-.2143-.0611-.2143a.4838.4838,0,0,0-.23.0766,4.6478,4.6478,0,0,1-.98.3673c-.1377.0459-.23.1072-.23.1377s.0154.0765.1225.153c.2912.245.3979.2912.3979.398v1.699c0,1.01-.0154,1.8824-.0459,2.1426a.6328.6328,0,0,1-.551.6272c-.1224.0305-.2295.107-.2295.1529,0,.0614.077.092.2607.092Zm4.3771,0a8.249,8.249,0,0,1,.9335-.0918c.6428,0,1.1479.0612,1.4386.0612.23,0,.3674-.0306.3674-.1072s-.0766-.107-.2913-.1376c-.5815-.0613-.7651-.168-.8264-.6429-.0306-.3213-.0612-1.1172-.0612-2.25a8.84,8.84,0,0,1,.0153-.9337.879.879,0,0,1,.26-.5357,1.0454,1.0454,0,0,1,.6734-.3059,1.0709,1.0709,0,0,1,.5356.1835.6886.6886,0,0,0,.2755.1072c.0459,0,.1072-.0153.2448-.1377a1.0473,1.0473,0,0,0,.3368-.52.2675.2675,0,0,0-.1072-.2143.8911.8911,0,0,0-.5357-.1989,2.4988,2.4988,0,0,0-1.6528,1.1019c-.0459.0459-.0766.0306-.0766-.0153,0-.2449.0154-.8264.0154-.9948,0-.153-.0306-.2143-.0612-.2143a.482.482,0,0,0-.23.0766,4.65,4.65,0,0,1-.9795.3673c-.1377.0459-.23.1072-.23.1377s.0153.0765.1224.153c.2913.245.398.2912.398.398v1.699c0,1.01-.0154,1.8824-.0459,2.1426a.6328.6328,0,0,1-.551.6272c-.1225.0305-.23.107-.23.1529,0,.0614.077.092.2607.092Zm7.1777.0918a2.931,2.931,0,0,0,2.9079-2.9537,2.8721,2.8721,0,0,0-2.8509-2.8932c-.0292,0-.0584,0-.0876.0006a3.1426,3.1426,0,0,0-1.8368.6428,2.9187,2.9187,0,0,0,1.8672,5.2035Zm.2143-.26a1.82,1.82,0,0,1-1.4387-.8111,3.5049,3.5049,0,0,1-.6427-2.0968c0-1.5916.8264-2.4181,1.6069-2.4181,1.3469,0,2.0815,1.4387,2.0815,2.8925a3.0488,3.0488,0,0,1-.6428,2.0509,1.5137,1.5137,0,0,1-.9641.3826Zm10.2691.2755a8.6046,8.6046,0,0,1,1.5918-.398c.2754-.0459.3826-.1836.3826-.2912,0-.0459-.0459-.0918-.1377-.0612a4,4,0,0,1-.7194.168.1358.1358,0,0,1-.1071-.1378c-.0154-.3978-.0306-1.4539-.0306-2.7853,0-1.5611.0765-6.535.1071-6.9941.0153-.1837-.0153-.26-.0612-.26a.5181.5181,0,0,0-.2142.0764,6.4665,6.4665,0,0,1-1.3163.3673c-.1071.0153-.1836.0613-.1836.1072s.0765.0918.1836.1224a.8375.8375,0,0,1,.4286.2448.41.41,0,0,1,.0612.26c.0152.8112.0306,3.52.0306,3.7956,0,.0305-.0459.0917-.0765.0765a4.2272,4.2272,0,0,0-1.01-.1378,3.44,3.44,0,0,0-1.8977.5816,3.0454,3.0454,0,0,0-1.3315,2.5252,2.9006,2.9006,0,0,0,.7952,2.0508,2.4969,2.4969,0,0,0,1.6223.6428,2.8731,2.8731,0,0,0,1.7447-.7194c.0306-.0306.0612,0,.0612.0307a4.6286,4.6286,0,0,1-.0306.6272c.0006.0469.0466.1234.1077.1082Zm-1.3161-.5663c-.9336,0-1.8671-.857-1.8671-2.51a2.7172,2.7172,0,0,1,.8416-2.2192,1.13,1.13,0,0,1,.7653-.26,1.7027,1.7027,0,0,1,1.362.704,1.0044,1.0044,0,0,1,.1378.3672,21.1775,21.1775,0,0,1,.0153,2.9538,1.0342,1.0342,0,0,1-.168.5663,1.5978,1.5978,0,0,1-1.0868.3979Zm6.3665.5356a2.7052,2.7052,0,0,0,2.1274-.9641.5811.5811,0,0,0,.1531-.2449c0-.0765-.0613-.1071-.1837.0153a1.9538,1.9538,0,0,1-1.4539.49,2.0673,2.0673,0,0,1-1.53-.6272,2.7425,2.7425,0,0,1-.7041-1.8518,2.1024,2.1024,0,0,1,.1226-.8417c.0306-.0459.107-.1225.1376-.1225h.8265c.352,0,2.3415.0307,2.464.0459a.18.18,0,0,0,.1531-.168,1.7663,1.7663,0,0,0-1.8672-1.5611,2.8481,2.8481,0,0,0-1.9131.7653,3.19,3.19,0,0,0-.8876,2.2344,2.992,2.992,0,0,0,.7346,2.0508,2.4709,2.4709,0,0,0,1.8212.78Zm-1.27-4.3617a.066.066,0,0,1-.0613-.0612,1.3451,1.3451,0,0,1,.3214-.6272,1.59,1.59,0,0,1,1.1172-.5663,1.0708,1.0708,0,0,1,.7652.2912.9853.9853,0,0,1,.2143.6428c0,.1378-.0306.3061-.3673.3061Zm12.6872,4.3008a.3637.3637,0,0,0,.3214-.1531c.0613-.1071.3521-.9489.398-1.0713.0765-.1989.0918-.4285.03-.4285s-.1377.0612-.2448.2448c-.3061.551-.6428.9336-.9795.9948a6.7227,6.7227,0,0,1-1.3467.0766c-1.24,0-1.6529-.1531-1.8212-.3827a2.8312,2.8312,0,0,1-.2143-1.2091c-.0135-.2543-.0269-1.4579-.03-2.7288V75.5439c.0033-1.1927.0165-2.28.03-2.5058.0459-1.0561.0765-1.1478.7039-1.27.1224-.0306.2143-.0765.2143-.153,0-.0459-.0612-.0765-.2448-.0765-.3521,0-.7806.0612-1.255.0612-.4132,0-.903-.0765-1.3776-.0765-.1531,0-.2449.0459-.2449.0918,0,.0613.0459.1071.23.1378.6581.1224.7041.2142.75,1.0864.0268.4553.0419,1.3207.0448,2.9243V77.885c-.0028,1.2038-.0143,1.8868-.06,2.346-.0459.4744-.1378.6887-.7958.8111-.1377.0153-.2755.0611-.2755.1224,0,.0918.1377.1072.3214.1072.2143,0,.903-.0766,1.3776-.0766.5356,0,1.6376.0459,2.4028.0766.75.0459,1.9129.0305,2.0659.0305Zm3.9639.0611a2.7043,2.7043,0,0,0,2.1272-.9641.5791.5791,0,0,0,.1531-.2449c0-.0765-.0612-.1071-.1836.0153a1.9538,1.9538,0,0,1-1.4539.49,2.0676,2.0676,0,0,1-1.5305-.6272,2.7423,2.7423,0,0,1-.7039-1.8518,2.104,2.104,0,0,1,.1224-.8417c.0306-.0459.1071-.1225.1378-.1225h.8263c.352,0,2.3416.0307,2.464.0459a.18.18,0,0,0,.1531-.168,1.7661,1.7661,0,0,0-1.8672-1.561,2.847,2.847,0,0,0-1.913.7653,3.189,3.189,0,0,0-.8877,2.2344,2.9918,2.9918,0,0,0,.7347,2.0507,2.4708,2.4708,0,0,0,1.8213.78Zm-1.27-4.3617a.0657.0657,0,0,1-.0611-.0612,1.344,1.344,0,0,1,.3213-.6272,1.5891,1.5891,0,0,1,1.1172-.5662,1.07,1.07,0,0,1,.7652.2912.9844.9844,0,0,1,.2144.6427c0,.1378-.0307.3061-.3674.3061Zm7.3,4.3771a2.9311,2.9311,0,0,0,2.9079-2.9538,2.8721,2.8721,0,0,0-2.8509-2.8932q-.0438,0-.0875.0007a3.1428,3.1428,0,0,0-1.8369.6427,2.9188,2.9188,0,0,0,1.8672,5.2036Zm.2143-.26a1.8192,1.8192,0,0,1-1.4386-.8111,3.5043,3.5043,0,0,1-.6428-2.0968c0-1.5916.8264-2.418,1.607-2.418,1.3468,0,2.0814,1.4386,2.0814,2.8925a3.048,3.048,0,0,1-.6428,2.0508,1.5132,1.5132,0,0,1-.9642.3824Zm9.4428.1377c.153,0,.2754-.0153.2754-.1071,0-.0612-.0917-.0918-.2295-.153-.4132-.1072-.4592-.1989-.4744-1.24,0-.7653-.0154-.8878-.0154-1.6989a3.194,3.194,0,0,0-.49-2.0048,1.5627,1.5627,0,0,0-1.1937-.52,2.07,2.07,0,0,0-.903.1837,5.2678,5.2678,0,0,0-1.0864.6887c-.0306.0305-.0765-.0153-.0765-.046a6.9077,6.9077,0,0,1,.0306-.8111c.0154-.0765-.0612-.1377-.1071-.1224a5.759,5.759,0,0,1-1.209.52c-.1377.0459-.2143.0918-.2143.1224,0,.0459.0306.0765.1225.1377.3672.199.3978.3673.3978.52l-.0011,1.2781c-.0023.8661-.0091,1.7368-.0295,2.4714-.0152.3061-.0765.4132-.4592.49-.1837.0306-.3214.0918-.3214.153,0,.0765.1224.1072.2912.1072.2912,0,.6121-.0307.8111-.0307.352,0,1.1018.0613,1.2243.0613.1531,0,.3061,0,.3061-.0919,0-.0765-.0765-.107-.26-.153-.2448-.0766-.4285-.1531-.4745-.49a12.5637,12.5637,0,0,1-.0918-1.607l-.0012-.4844c-.0038-.698-.0141-1.2478-.0141-1.398a.7939.7939,0,0,1,.1837-.4592,1.8309,1.8309,0,0,1,1.1937-.49,1.3608,1.3608,0,0,1,.8724.2912c.3826.2912.49.6581.49,1.8978v2.0814c0,.4438-.0611.5509-.4285.6427-.1989.0459-.2912.1071-.2912.168s.1072.0919.2449.0919c.23,0,.4285-.0613.9488-.0613.3369,0,.7806.0608.98.0608Zm3.5812.1071a2.7048,2.7048,0,0,0,2.1274-.9641.58.58,0,0,0,.1529-.2449c0-.0765-.0611-.1071-.1836.0153a1.9538,1.9538,0,0,1-1.4539.49,2.0676,2.0676,0,0,1-1.53-.6272,2.7433,2.7433,0,0,1-.7039-1.8518,2.1057,2.1057,0,0,1,.1224-.8417c.0306-.0459.1071-.1225.1378-.1225h.8264c.352,0,2.3415.0307,2.4641.0459a.18.18,0,0,0,.1529-.168,1.766,1.766,0,0,0-1.8671-1.561,2.8468,2.8468,0,0,0-1.913.7653,3.189,3.189,0,0,0-.8877,2.2344,2.9922,2.9922,0,0,0,.7346,2.0507,2.4711,2.4711,0,0,0,1.8213.78Zm-1.27-4.3617a.0657.0657,0,0,1-.0611-.0612,1.3449,1.3449,0,0,1,.3213-.6272,1.5891,1.5891,0,0,1,1.1172-.5662,1.0708,1.0708,0,0,1,.7653.2912.9849.9849,0,0,1,.2143.6427c0,.1378-.0306.3061-.3674.3061Zm5.7086,4.3771a2.5422,2.5422,0,0,0,1.2243-.3367,1.5712,1.5712,0,0,0,.7959-1.2856c0-.78-.3979-1.1631-1.3927-1.806-.3826-.2294-.9642-.5968-.9642-1.24a.8915.8915,0,0,1,.8318-.9474.8624.8624,0,0,1,.0866-.0014,1.2566,1.2566,0,0,1,.7193.23,1.1621,1.1621,0,0,1,.3673.6272c.0459.1072.0765.1837.1377.1837.0459,0,.0766-.0765.0766-.2449-.0154-.2449-.0766-.551-.0919-.7194a.2483.2483,0,0,0-.0765-.1377,3.746,3.746,0,0,0-1.0407-.168,1.979,1.979,0,0,0-1.2856.4285,1.4512,1.4512,0,0,0-.5815,1.21c0,.6735.6122,1.24,1.27,1.6682.6122.3826,1.01.7041,1.01,1.2856a1.0491,1.0491,0,0,1-.9948,1.0253,1.171,1.171,0,0,1-.6887-.1835,1.4915,1.4915,0,0,1-.6428-.8265c-.1072-.2912-.153-.2912-.1989-.2912-.0307,0-.0766.0459-.0459.2449.0152.168.0459.551.0459.7652,0,.0919.1071.199.2295.2449a3.1188,3.1188,0,0,0,1.209.2749Zm6.4122-7.3158a.5824.5824,0,0,0,.5663-.5815.56.56,0,0,0-.5357-.5816.5672.5672,0,0,0-.5356.5969A.5448.5448,0,0,0,339.754,74.0632Zm.8417,7.1931c.1225,0,.2449-.0306.2449-.1072,0-.0611-.0765-.0917-.23-.1224-.2448-.0611-.3979-.1377-.4285-.4438-.0306-.26-.0306-1.3926-.0306-2.6783,0-.9794,0-1.9129.0306-2.219.0154-.168-.0153-.2143-.0612-.2143a.6255.6255,0,0,0-.23.1071,7.6167,7.6167,0,0,1-1.102.3979c-.1377.0306-.1836.0765-.1836.1224,0,.0307.0458.0765.1225.1224.3808.2041.4353.2994.4426.4685v.2225c-.0058.621-.0312,2.8371-.0448,3.2422-.0153.6272-.153.75-.49.8418-.2142.0306-.2912.0765-.2912.1378s.1071.0918.2143.0918c.168,0,.4132-.0306.9184-.0306.4138,0,.98.0612,1.1177.0612Zm6.78,0c.153,0,.2754-.0153.2754-.1072,0-.0611-.0918-.0917-.23-.153-.4132-.1071-.4592-.1989-.4744-1.24,0-.7653-.0154-.8877-.0154-1.6988a3.194,3.194,0,0,0-.49-2.0048,1.5625,1.5625,0,0,0-1.1937-.52,2.07,2.07,0,0,0-.903.1836,5.272,5.272,0,0,0-1.0864.6887c-.0306.0306-.0765-.0152-.0765-.0459a6.9069,6.9069,0,0,1,.0306-.8111c.0154-.0765-.0612-.1377-.1072-.1224a5.759,5.759,0,0,1-1.209.52c-.1377.0459-.2143.0918-.2143.1224,0,.0459.0307.0765.1224.1377.3674.1989.398.3673.398.52l-.0012,1.2781c-.0022.8661-.009,1.7368-.0294,2.4714-.0154.3061-.0765.4132-.4592.49-.1837.0306-.3215.0918-.3215.153,0,.0765.1225.1072.2913.1072.2912,0,.6122-.0307.8112-.0307.3519,0,1.1018.0612,1.2243.0612.1531,0,.306,0,.306-.0918,0-.0765-.0765-.1071-.26-.153-.2449-.0766-.4285-.1531-.4745-.49a12.5621,12.5621,0,0,1-.0918-1.6069l-.0014-.4844c-.0036-.698-.0138-1.2478-.0138-1.398a.7937.7937,0,0,1,.1835-.4592,1.8314,1.8314,0,0,1,1.1938-.49,1.3608,1.3608,0,0,1,.8724.2912c.3826.2912.49.6581.49,1.8977v2.0814c0,.4439-.0612.551-.4285.6428-.199.0459-.2913.1071-.2913.168s.1071.0918.2449.0918c.23,0,.4285-.0612.9488-.0612.3369,0,.7808.061.98.061Z"/><path d="M241.6991,98.0442a2.5592,2.5592,0,0,0,2.1579-1.1325.5434.5434,0,0,0,.1224-.2755c0-.0612-.0612-.0612-.1377,0a1.93,1.93,0,0,1-1.4846.52,2.0274,2.0274,0,0,1-1.3315-.5356,2.7117,2.7117,0,0,1-.6427-1.8825c0-1.7294.7959-2.2344,1.209-2.2344a1.18,1.18,0,0,1,.5663.1224,6.8668,6.8668,0,0,1,.9642.7193.6121.6121,0,0,0,.26.1378.5655.5655,0,0,0,.49-.5969.4142.4142,0,0,0-.1835-.2912,2.3455,2.3455,0,0,0-1.5-.4133,3.813,3.813,0,0,0-2.25.8724,2.77,2.77,0,0,0,1.76,4.9893Zm5.9687.0306a3.2372,3.2372,0,0,0,1.8368-.5968,3.0628,3.0628,0,0,0,1.1937-2.4029,2.9039,2.9039,0,0,0-2.9111-2.8967q-.0748,0-.15.0042a3.1171,3.1171,0,0,0-1.9588.704,2.8125,2.8125,0,0,0-1.0864,2.2651,2.96,2.96,0,0,0,2.9934,2.9252c.0273,0,.0547-.001.082-.0021Zm.1836-.2448a1.4814,1.4814,0,0,1-1.1632-.8418,4.59,4.59,0,0,1-.4744-2.25c0-1.3314.6272-2.296,1.2855-2.296,1.0714,0,1.5611,1.2091,1.5611,2.9538a3.6165,3.6165,0,0,1-.505,2.0814.9071.9071,0,0,1-.704.3524Zm6.2442.107c.153,0,.3061-.0459.3061-.107,0-.0766-.1072-.1226-.1991-.1378-.3978-.0918-.49-.1531-.505-.6428-.0153-.2755-.03-.8877-.03-2.8772V92.9785c0-2.6477.0459-5.2036.0459-5.3106,0-.0766-.0307-.168-.0613-.168a.6563.6563,0,0,0-.2142.0611,8.7369,8.7369,0,0,1-1.5456.4285c-.1378.0307-.23.0765-.23.1225s.0459.1071.1531.168c.3519.1835.4285.2912.4285.6427.0152.52,0,2.1426,0,2.9844-.0154,1.4692-.0766,4.3158-.1072,4.9432-.0306.6581-.1224.75-.5356.8264-.1225.0306-.23.0613-.23.1378s.1224.1071.2754.1071c.4133,0,.7346-.0306,1.1479-.0306.23,0,.8416.046,1.3008.046Zm4.1015.1378a3.2367,3.2367,0,0,0,1.8368-.5968,3.0626,3.0626,0,0,0,1.1938-2.4029,2.9038,2.9038,0,0,0-2.9111-2.8967q-.0748,0-.15.0042a3.1174,3.1174,0,0,0-1.959.704,2.8128,2.8128,0,0,0-1.0864,2.2651,2.96,2.96,0,0,0,2.9934,2.9252q.0411,0,.0823-.0021Zm.1837-.2448a1.4806,1.4806,0,0,1-1.1631-.8418,4.5881,4.5881,0,0,1-.4744-2.25c0-1.3314.6272-2.296,1.2855-2.296,1.0713,0,1.561,1.2091,1.561,2.9538a3.6159,3.6159,0,0,1-.5051,2.0814.9076.9076,0,0,1-.7039.3524Zm3.8108.1376c.3673,0,.3519-.0765,1.27-.0765.7346,0,1.01.0613,1.4386.0613.1989,0,.3213-.0307.3213-.1072s-.0611-.1224-.2754-.153c-.5662-.0765-.6734-.1837-.7346-.6428-.0306-.352-.0613-.9947-.0613-2.0814a10.119,10.119,0,0,1,.0307-1.1784.6322.6322,0,0,1,.168-.352.7168.7168,0,0,1,.52-.2143,1.2415,1.2415,0,0,1,.5968.2449.4315.4315,0,0,0,.26.1071c.0765,0,.153-.0306.3061-.1837a1.5683,1.5683,0,0,0,.4592-.7346c0-.1224-.0613-.1989-.2143-.3061a.8611.8611,0,0,0-.505-.153c-.5969,0-1.1479.551-1.5764,1.1172-.0152.046-.0765.0306-.0765-.0459,0-.3367.0306-.7652.0306-1.0407,0-.0765-.0459-.168-.0765-.168a.5158.5158,0,0,0-.26.0919,7.8614,7.8614,0,0,1-1.4692.505c-.0612.0306-.168.0918-.168.1377s.0306.0765.1224.1531c.352.306.398.3367.398.4285.0152.1836,0,.5815,0,1.5456-.0154,1.01-.0306,1.8824-.0459,2.1426-.0459.4285-.168.551-.52.6272-.168.0306-.23.1071-.23.168s.0916.1075.2908.1075Zm6.0144-6.9787a.7327.7327,0,0,0,.7509-.714c0-.0171,0-.0341-.0005-.0512a.72.72,0,0,0-.6733-.7194.7324.7324,0,0,0-.7209.7437l.0015.0369a.6923.6923,0,0,0,.6424.704Zm1.1173,6.9787c.1224,0,.2295-.0306.2295-.107,0-.0613-.0459-.1072-.2143-.1532a.4626.4626,0,0,1-.4132-.4744c-.0306-.23-.0306-1.4539-.0306-3.1679,0-.6428,0-1.4233.0306-1.7447.0153-.168-.0153-.2143-.0612-.2143a1.343,1.343,0,0,0-.23.0918,6.9431,6.9431,0,0,1-1.5.4592c-.168.046-.2143.0919-.2143.1225,0,.0612.0459.1071.1225.168.3979.2754.3979.3366.3979.6272,0,.1529-.0459,2.816-.0459,3.2751,0,.5357-.1071.7346-.505.8264-.1837.0306-.2755.0613-.2755.1378,0,.0612.1224.107.26.107.168,0,.52-.03,1.1938-.03.643,0,.995.077,1.2552.077Zm4.6525-.0152a12.0283,12.0283,0,0,1,1.27-.0613c.3059,0,.8111.0459,1.1631.0459.1376,0,.2143-.0305.2143-.0918,0-.0765-.0919-.1071-.168-.1378-.4133-.107-.49-.23-.5051-1.1783,0-.857-.0153-1.01-.0306-1.8977a2.7176,2.7176,0,0,0-.5357-1.9285,1.5858,1.5858,0,0,0-1.2243-.52,2.2231,2.2231,0,0,0-.903.199,4.3765,4.3765,0,0,0-.903.5969c-.0306.0305-.0765.0152-.0765-.0154a6.0171,6.0171,0,0,1,.0307-.7652c0-.0765-.0766-.1377-.1226-.1224a7.81,7.81,0,0,1-1.6222.6272c-.1377.0307-.2142.0765-.2142.1224,0,.0307-.0154.0613.1224.1531.3061.2143.352.3367.352.49,0,1.408-.0153,2.7394-.0459,3.6271-.0153.3519-.0459.4745-.4744.551-.1378.03-.2756.0918-.2756.1529,0,.0766.1225.1225.2912.1225.4593,0,.8571-.0306,1.056-.0306.352,0,1.2244.0613,1.3776.0613.1072,0,.2755-.0154.2755-.1072,0-.0765-.0612-.1071-.2448-.153a.5169.5169,0,0,1-.4286-.52c-.0153-.1837-.0458-.9488-.0612-1.8977,0-.7805-.0153-1.5-.0153-1.7907a.4589.4589,0,0,1,.1531-.3213,1.3752,1.3752,0,0,1,.8264-.2912,1.22,1.22,0,0,1,.7193.2143c.3673.2912.4592.6122.4592,1.7906v2.25c0,.352-.0765.4592-.49.5815-.1378.0307-.23.0766-.23.1377s.1061.1078.26.1078Zm5.5248,4.27a3.963,3.963,0,0,0,2.2192-.7193,3.0839,3.0839,0,0,0,1.4845-2.3263,1.7361,1.7361,0,0,0-.5356-1.3467,1.8554,1.8554,0,0,0-1.2856-.4285c-.551,0-1.2244.0152-1.6835.0152-.8417,0-1.2856-.2143-1.2856-.5815a.4348.4348,0,0,1,.1224-.2912,1.3,1.3,0,0,1,.3674-.3061.2791.2791,0,0,1,.168-.0306,3.4181,3.4181,0,0,0,.7193.0919,2.4732,2.4732,0,0,0,1.3008-.4286,2.5406,2.5406,0,0,0,.9337-2.0048l-.001-.2607c-.0015-.1344-.0052-.2626-.0143-.336,0-.0153.0459-.0765.0764-.0765.168,0,.6272.0306.8571.0306.0612,0,.1531-.168.1531-.3214,0-.23-.0459-.3673-.1072-.3673-.26,0-.8111.0306-1.0864.0306a1.2877,1.2877,0,0,1-.52-.0765,3.8339,3.8339,0,0,0-1.6529-.398,2.5,2.5,0,0,0-1.7141.6581,1.8493,1.8493,0,0,0-.6428,1.5,2.1824,2.1824,0,0,0,1.209,1.852c.0307.0152.0459.0459.0307.0611a11.6556,11.6556,0,0,1-1.3315,1.1631c-.0306.0154-.0612.0766-.0612.1837,0,.75.9335,1.2855,1.2244,1.3776a.0949.0949,0,0,1,.0306.1072c-.2755.26-.7805.7652-.9184.9335a.8373.8373,0,0,0-.3061.6428c0,.9947.8728,1.6528,2.25,1.6528Zm.4439-6.1524a1.0275,1.0275,0,0,1-.7959-.52,3.2418,3.2418,0,0,1-.3826-1.6834,2.2665,2.2665,0,0,1,.3064-1.2243.794.794,0,0,1,.5662-.3215c.2755,0,.4439.0919.7193.4593a3.2673,3.2673,0,0,1,.4439,1.7753c0,.6885-.2909,1.515-.8572,1.515Zm.2142,5.5552a2.266,2.266,0,0,1-1.3468-.4133,1.4644,1.4644,0,0,1-.6272-1.0407,1.4448,1.4448,0,0,1,.52-1.1172.9728.9728,0,0,1,.3826-.0918c.4285,0,1.3009-.0306,1.8518-.0306,1.0407,0,1.3776.5357,1.3776,1.1325a1.6329,1.6329,0,0,1-.7346,1.255,2.5857,2.5857,0,0,1-1.4237.3064Zm8.2491-3.55a3.5952,3.5952,0,0,0,2.5405-1.0561,3.0411,3.0411,0,0,0,.7958-2.1272,2.7674,2.7674,0,0,0-.704-1.8368,2.4848,2.4848,0,0,0-1.9283-.8264,2.5978,2.5978,0,0,0-1.4081.4285c-.0459.0153-.0918,0-.0918-.1071,0-1.3621.0459-3.918.0918-4.8821,0-.168-.0306-.23-.0611-.23a.677.677,0,0,0-.2755.0765,10.6281,10.6281,0,0,1-1.5763.4285c-.1837.0307-.245.0919-.245.1378,0,.0306.0459.0765.168.168.3215.199.352.2912.3979.5357.0459.3061.0613,1.1019.0613,2.3722-.0154,1.6069-.0459,3.9485-.0765,4.775a11.98,11.98,0,0,1-.1225,1.6987c0,.0459.0459.1377.1072.1072.2755-.1072.3672-.1072.4438-.0765a5.0526,5.0526,0,0,0,1.8829.4138Zm.5509-.3061a1.6563,1.6563,0,0,1-.6428-.1378,1.1826,1.1826,0,0,1-.52-.4592,5.5646,5.5646,0,0,1-.2449-1.7447c0-.5969-.0153-2.02.0459-2.296a.41.41,0,0,1,.1071-.26,1.2938,1.2938,0,0,1,.5816-.1376,1.8031,1.8031,0,0,1,1.3162.658,3.593,3.593,0,0,1,.5816,2.02h-.0154a3.91,3.91,0,0,1-.4285,1.8671,1.0759,1.0759,0,0,1-.78.49Zm6.81.3061a3.2361,3.2361,0,0,0,1.8368-.5969A3.0625,3.0625,0,0,0,298.8,95.075a2.904,2.904,0,0,0-2.9113-2.8968q-.0749,0-.15.0043a3.1171,3.1171,0,0,0-1.9589.704,2.8125,2.8125,0,0,0-1.0864,2.2651,2.96,2.96,0,0,0,2.9933,2.9253q.0413,0,.0825-.0021Zm.1837-.2448a1.4809,1.4809,0,0,1-1.1632-.8418,4.59,4.59,0,0,1-.4745-2.25c0-1.3314.6272-2.296,1.2856-2.296,1.0713,0,1.5611,1.2091,1.5611,2.9538a3.6166,3.6166,0,0,1-.5051,2.0814.9075.9075,0,0,1-.7038.3525Zm6.8717.2448a3.2366,3.2366,0,0,0,1.8368-.5969,3.0627,3.0627,0,0,0,1.1937-2.4028,2.9041,2.9041,0,0,0-2.9113-2.8967q-.0749,0-.15.0043a3.1173,3.1173,0,0,0-1.9589.704,2.8128,2.8128,0,0,0-1.0864,2.2651,2.96,2.96,0,0,0,2.9934,2.9252q.0414,0,.0826-.0021Zm.1835-.2448a1.4812,1.4812,0,0,1-1.1631-.8418,4.5909,4.5909,0,0,1-.4745-2.25c0-1.3314.6272-2.296,1.2856-2.296,1.0714,0,1.561,1.2091,1.561,2.9538a3.6165,3.6165,0,0,1-.505,2.0814.907.907,0,0,1-.7039.3525Zm10.254.1376c.168,0,.2912-.0459.2912-.1224,0-.0612-.0612-.1071-.2143-.1378-.4437-.0765-.5968-.2142-1.0407-.7039-.5968-.6581-1.6222-1.9284-2.1728-2.6782-.0153-.0307-.0459-.0766-.0153-.1072a14.0074,14.0074,0,0,1,1.1325-1.0407,2.8292,2.8292,0,0,1,1.3315-.6734c.1837-.0305.2448-.0765.2448-.1224,0-.0613-.0917-.1072-.26-.1072-.5356,0-1.0407.0919-1.6068.0919-.1226,0-.352-.0154-.5663-.0154-.1377,0-.26.0459-.26.1072,0,.0765.0919.1071.2449.1378.4592.0765.5509.1989.5509.2754a.5042.5042,0,0,1-.1377.2449,7.7917,7.7917,0,0,1-1.6376,1.6069.7173.7173,0,0,1-.26.1377c-.0459,0-.0765-.0764-.0765-.2142-.0152-.7652.0613-3.367.0613-3.8873,0-1.1478.0765-2.6783.0918-3.2144a.1424.1424,0,0,0-.0612-.1072.8393.8393,0,0,0-.2755.0765,5.3494,5.3494,0,0,1-1.4845.4285c-.1837.0307-.2912.0918-.2912.1531,0,.0459.0766.0919.1377.1378.23.1224.3674.2295.3674.3366a3.2871,3.2871,0,0,1,.0612.7347c0,.857-.0306,3.55-.0306,4.1933,0,1.1785-.0154,2.3263-.0765,3.4435-.0306.505-.0919.6581-.551.7652-.1225.0307-.2142.0766-.2142.1377s.1376.1072.26.1072c.0765,0,.6121-.0613,1.2091-.0613.3978,0,.8876.046,1.3314.046.1071,0,.2912-.0306.2912-.1224,0-.0613-.1071-.1225-.26-.153-.3367-.0766-.5357-.1226-.5663-.8724-.0152-.52-.0306-1.3621,0-1.607.0154-.0765.0154-.1224.0613-.1224s.153.1224.306.3061c.4745.5509,1.3009,1.5763,1.53,1.8824.1378.2142.0765.3214-.168.3979-.23.0612-.2912.0919-.2912.168s.0765.1071.26.1071c.2143,0,.4438-.0306.7346-.0306.6727.001,1.1471.0775,2.0195.0775Zm2.5558-2.8159c.0613,0,.1378-.0613.1837-.4439.1836-1.4845.8265-3.4741.8265-4.4841,0-.597-.3368-1.3009-1.01-1.3009-.6122,0-1.0254.7346-1.0254,1.3468.0152,1.1019.6272,2.6935.8265,4.4842.0459.3214.1071.398.1989.398Zm.0154,2.9384a.9361.9361,0,0,0,.8722-.9336.9151.9151,0,0,0-.8722-.9489.942.942,0,0,0,0,1.8825Z"/><line class="cls-2" x1="198.2372" y1="118.5362" x2="192.8331" y2="113.4331"/><path class="cls-2" d="M200.429,118.5661l5.1462-5.45-6.1337-6.1338h0a.0644.0644,0,0,0-.0741-.0147h-.0009a.062.062,0,0,0-.0409.0629v10.4328"/><path class="cls-2" d="M199.31,117.4637v-3.9143a.066.066,0,0,0-.02-.0459l.0006-.0006a.0733.0733,0,0,0-.05-.0212l-6.408-.0486"/><path class="cls-2" d="M201.4594,119.6392h3.9888a.0673.0673,0,0,0,.046-.02h.0006a.0721.0721,0,0,0,.021-.0493l.0488-6.4277-5.1282,5.43"/><line class="cls-2" x1="192.8148" y1="113.4343" x2="192.816" y2="113.433"/><path class="cls-2" d="M192.8148,113.4343l-6.12,6.12h0a.0683.0683,0,0,0-.0193.0336.0714.0714,0,0,0,.0044.04v.001a.0618.0618,0,0,0,.0631.0408h10.4642"/><polyline class="cls-2" points="192.814 113.435 192.813 113.433 192.816 113.433"/><line class="cls-2" x1="192.8148" y1="113.4343" x2="198.2278" y2="118.5457"/><polyline class="cls-2" points="192.833 113.433 192.825 113.425 192.816 113.433"/><line class="cls-2" x1="192.8331" y1="113.4331" x2="192.816" y2="113.433"/><line class="cls-2" x1="200.361" y1="120.7376" x2="205.8053" y2="125.8787"/><path class="cls-2" d="M198.2455,120.7076l-5.1822,5.488,6.1337,6.1338h0a.0648.0648,0,0,0,.0741.0147h.0009c.0137-.0056.0241,17.4784.031,17.4681s.01-17.5151.01-17.531V121.7745"/><path class="cls-2" d="M199.3284,121.77v3.9925a.0652.0652,0,0,0,.02.0458v.0007a.0733.0733,0,0,0,.0494.0212l6.4081.0486"/><path class="cls-2" d="M198.2381,120.7l-5.1643,5.4686.0489-6.4277a.0724.0724,0,0,1,.021-.0493h0a.0665.0665,0,0,1,.0461-.02h4.02"/><line class="cls-2" x1="205.8237" y1="125.8776" x2="205.8225" y2="125.8788"/><path class="cls-2" d="M205.8237,125.8776l6.12-6.12h0a.0683.0683,0,0,0,.0193-.0336.0711.0711,0,0,0-.0045-.04v-.001a.0617.0617,0,0,0-.063-.0408H201.4564"/><polyline class="cls-2" points="205.823 125.878 205.826 125.879 205.822 125.879"/><line class="cls-2" x1="205.8237" y1="125.8776" x2="200.3705" y2="120.728"/><polyline class="cls-2" points="205.805 125.879 205.814 125.887 205.822 125.879"/><line class="cls-2" x1="205.8053" y1="125.8787" x2="205.8225" y2="125.8788"/><line class="cls-2" x1="198.2455" y1="120.7076" x2="198.2381" y2="120.7003"/><line class="cls-2" x1="198.2372" y1="118.5362" x2="198.2278" y2="118.5457"/><line class="cls-2" x1="198.2381" y1="120.7003" x2="197.2105" y2="119.6727"/><line class="cls-2" x1="197.2071" y1="119.6693" x2="197.2105" y2="119.6727"/><polyline class="cls-2" points="201.46 119.639 201.481 119.618 200.436 118.573"/><polyline class="cls-2" points="199.328 121.77 199.318 121.781 199.313 121.775"/><line class="cls-2" x1="199.3287" y1="121.7699" x2="200.361" y2="120.7376"/><polyline class="cls-2" points="199.309 117.463 199.318 117.455 199.326 117.463"/><line class="cls-2" x1="201.456" y1="119.6425" x2="200.3705" y2="120.728"/><line class="cls-2" x1="198.2455" y1="120.7076" x2="199.3126" y2="121.7748"/><polyline class="cls-2" points="197.207 119.67 197.156 119.618 198.227 118.546"/><line class="cls-2" x1="199.3098" y1="117.4637" x2="198.2372" y2="118.5362"/><line class="cls-2" x1="200.429" y1="118.5661" x2="199.3259" y2="117.463"/><line class="cls-2" x1="200.361" y1="120.7376" x2="200.3705" y2="120.728"/><line class="cls-2" x1="201.456" y1="119.6425" x2="201.4594" y2="119.6392"/><line class="cls-2" x1="200.429" y1="118.5661" x2="200.4364" y2="118.5735"/><path class="cls-3" d="M74.1247,81.0422H71.8484a.5274.5274,0,0,1-.5274-.5274h0v-1.56a.5274.5274,0,0,1,.5274-.5274h5.9883"/><line class="cls-3" x1="70.8123" y1="95.3155" x2="72.4163" y2="95.3155"/><line class="cls-3" x1="72.8279" y1="85.3834" x2="72.8279" y2="81.7297"/><line class="cls-3" x1="72.2711" y1="95.3155" x2="70.2395" y2="95.3155"/><line class="cls-3" x1="69.3516" y1="93.9603" x2="69.3588" y2="93.9427"/><line class="cls-3" x1="69.3588" y1="93.9427" x2="72.8225" y2="85.4554"/><path class="cls-3" d="M69.3516,93.96a.98.98,0,0,0,.908,1.3538"/><path class="cls-3" d="M69.3516,93.96l.0072-.0176"/><line class="cls-3" x1="72.2711" y1="95.3155" x2="70.2395" y2="95.3155"/><line class="cls-3" x1="69.3516" y1="93.9603" x2="69.3588" y2="93.9427"/><line class="cls-3" x1="69.3588" y1="93.9427" x2="72.8225" y2="85.4554"/><path class="cls-3" d="M69.3516,93.96a.98.98,0,0,0,.908,1.3538"/><path class="cls-3" d="M69.3516,93.96l.0072-.0176"/><path class="cls-3" d="M78.0267,82.6269h3.17A.5076.5076,0,0,0,81.681,82.1V80.539a.5077.5077,0,0,0-.4847-.5275H75.153a.5076.5076,0,0,0-.4849.5275V82.1a.5076.5076,0,0,0,.4849.5274h1.0455"/><line class="cls-3" x1="75.867" y1="87.554" x2="75.867" y2="83.9003"/><line class="cls-3" x1="82.4976" y1="97.486" x2="73.2785" y2="97.486"/><line class="cls-3" x1="72.3907" y1="96.1307" x2="72.3979" y2="96.1132"/><line class="cls-3" x1="72.3979" y1="96.1132" x2="75.8615" y2="87.6259"/><path class="cls-3" d="M72.3907,96.1307a.98.98,0,0,0,.9079,1.354"/><path class="cls-3" d="M72.3907,96.1307l.0072-.0175"/><line class="cls-3" x1="80.482" y1="87.554" x2="80.482" y2="83.9003"/><line class="cls-3" x1="73.4238" y1="97.486" x2="83.0705" y2="97.486"/><line class="cls-3" x1="83.9583" y1="96.1307" x2="83.9511" y2="96.1132"/><line class="cls-3" x1="83.9511" y1="96.1132" x2="80.4875" y2="87.6259"/><path class="cls-3" d="M83.9583,96.1307a.98.98,0,0,1-.9083,1.354"/><path class="cls-3" d="M83.9583,96.1307l-.0072-.0175"/><line class="cls-3" x1="73.4238" y1="97.486" x2="83.0705" y2="97.486"/><line class="cls-3" x1="83.9583" y1="96.1307" x2="83.9511" y2="96.1132"/><line class="cls-3" x1="83.9511" y1="96.1132" x2="80.4875" y2="87.6259"/><path class="cls-3" d="M83.9583,96.1307a.98.98,0,0,1-.9083,1.354"/><path class="cls-3" d="M83.9583,96.1307l-.0072-.0175"/><line class="cls-4" x1="78.9252" y1="84.7852" x2="80.5161" y2="84.7852"/><line class="cls-4" x1="78.9252" y1="83.8738" x2="80.5161" y2="83.8738"/><line class="cls-4" x1="78.9252" y1="85.7073" x2="80.5161" y2="85.7073"/><line class="cls-4" x1="78.9252" y1="86.6295" x2="80.5161" y2="86.6295"/><line class="cls-4" x1="78.9252" y1="87.5516" x2="80.5161" y2="87.5516"/><path class="cls-4" d="M75.5024,92.8618c0-.5233.9475-1.6623.9475-1.6623s.9476,1.139.9476,1.6623a.9476.9476,0,0,1-1.8951,0Z"/><path class="cls-4" d="M77.48,95.2072c0-.5234.9474-1.6623.9474-1.6623s.9475,1.1389.9475,1.6623a.9475.9475,0,0,1-1.8949,0Z"/><path class="cls-4" d="M78.0036,91.8484c0-.5233.9475-1.6623.9475-1.6623s.9475,1.139.9475,1.6623a.9475.9475,0,1,1-1.895,0Z"/><path class="cls-4" d="M216.0085,59.3035l13.6139,12.81h0l-9.4367,10.0293a1.12,1.12,0,0,1-1.5831.0481L206.62,70.916a1.12,1.12,0,0,1-.0482-1.5831v0l9.4367-10.0293Z"/><rect class="cls-5" x="215.8636" y="55.2298" width="9.5726" height="3.7384" transform="translate(27.8615 178.6692) rotate(-46.7436)"/><rect class="cls-5" x="218.8374" y="58.3724" width="7.9772" height="3.7384" transform="translate(26.2576 181.2432) rotate(-46.7436)"/><rect class="cls-5" x="221.8112" y="61.5153" width="6.3818" height="3.7384" transform="translate(24.6536 183.8171) rotate(-46.7436)"/><rect class="cls-5" x="224.7849" y="64.6581" width="4.7863" height="3.7384" transform="translate(23.0495 186.391) rotate(-46.7436)"/><rect class="cls-5" x="227.7588" y="67.8011" width="3.1909" height="3.7384" transform="translate(21.4454 188.9651) rotate(-46.7436)"/><polygon class="cls-6" points="233.729 65.02 231.151 66.246 232.663 67.668 233.729 65.02"/><polygon class="cls-6" points="231.151 66.246 229.088 67.226 231.811 69.787 232.663 67.668 231.151 66.246"/><polygon class="cls-6" points="232.1 61.296 229.521 62.522 231.033 63.945 232.1 61.296"/><polygon class="cls-6" points="229.521 62.522 227.458 63.502 230.181 66.063 231.033 63.945 229.521 62.522"/><polygon class="cls-6" points="230.47 57.572 227.892 58.798 229.405 60.221 230.47 57.572"/><polygon class="cls-6" points="227.892 58.798 225.829 59.778 228.551 62.339 229.405 60.221 227.892 58.798"/><polygon class="cls-6" points="228.842 53.849 226.262 55.074 227.775 56.497 228.842 53.849"/><polygon class="cls-6" points="226.262 55.074 224.2 56.054 226.923 58.616 227.775 56.497 226.262 55.074"/><polygon class="cls-6" points="227.212 50.125 224.634 51.351 226.146 52.773 227.212 50.125"/><polygon class="cls-6" points="224.634 51.351 222.571 52.331 225.293 54.892 226.146 52.773 224.634 51.351"/><line class="cls-2" x1="56.6359" y1="150.2446" x2="237.7843" y2="150.2446"/><path class="cls-7" d="M153.9612,101.5507a11.0631,11.0631,0,0,0,22.1062,0,9.5652,9.5652,0,0,0-.1216-1.8243"/><path class="cls-7" d="M168.0635,147.9652h3.9639a1.7532,1.7532,0,0,1,1.7532,1.7533v.4383h-5.7171Z"/><path class="cls-7" d="M161.9652,150.1567h-5.7171v-.4384a1.7532,1.7532,0,0,1,1.7531-1.7532h3.964Z"/><path class="cls-7" d="M153.9612,101.5507c0-.12.0053-.2379.0094-.3565a2.0068,2.0068,0,1,0,.1813,4.01h.4843A10.1781,10.1781,0,0,1,153.9612,101.5507Z"/><path class="cls-7" d="M176.058,101.1942c.0042.1186.01.237.01.3565a10.1808,10.1808,0,0,1-.6751,3.6527h.4845a2.0068,2.0068,0,1,0,.1811-4.01h0Z"/><path class="cls-7" d="M171.4937,102.3726a1.24,1.24,0,0,1-2.4773,0"/><path class="cls-7" d="M161.0124,102.3726a1.24,1.24,0,0,1-2.4774,0"/><path class="cls-7" d="M162.9181,107.4314a2.0982,2.0982,0,0,0,4.1926,0"/><path class="cls-7" d="M177.8389,116.8976a11.6289,11.6289,0,0,0-5.8456-5.57,3.1045,3.1045,0,0,0-1.1312-.4188,1.95,1.95,0,0,0-.4059-.0448c-.02,0-.04.0017-.0594.0023-.0156,0-.0307-.0023-.0464-.0023h-.0672a11.494,11.494,0,0,1-10.5368,0h-.0672c-.0157,0-.0307.002-.0464.0023-.02-.0006-.04-.0023-.06-.0023a1.9509,1.9509,0,0,0-.4058.0448,3.1041,3.1041,0,0,0-1.1311.4188,11.6287,11.6287,0,0,0-5.8457,5.57c-.0984.2016-.1883.4065-.2739.6119l3.7355.8325a7.8683,7.8683,0,0,1,.978-1.4951v9.996H173.4v-9.996a7.8673,7.8673,0,0,1,.9778,1.4951l3.7356-.8325C178.0273,117.3042,177.9374,117.1,177.8389,116.8976Z"/><path class="cls-7" d="M159.6692,110.7133a5.3553,5.3553,0,0,0,10.7008,0"/><path class="cls-7" d="M175.3091,123.885a2.1575,2.1575,0,0,1,.93-.2105,2.1069,2.1069,0,0,1,1.8612,1.087,10.578,10.578,0,0,0-.4-7.16l-2.9033.6472A7.9,7.9,0,0,1,175.3091,123.885Z"/><ellipse class="cls-7" cx="176.2389" cy="125.6834" rx="2.0963" ry="2.0089"/><path class="cls-7" d="M151.0656,123.05a3.0957,3.0957,0,0,0-1.1243-.22,8.2361,8.2361,0,0,0,2.3567-5.2528l2.9.6608a10.7848,10.7848,0,0,1-2.9717,6.58A2.0014,2.0014,0,0,0,151.0656,123.05Z"/><ellipse class="cls-7" cx="150.1313" cy="124.8486" rx="2.0963" ry="2.0089"/><path class="cls-7" d="M165.0176,86.2279a11.1387,11.1387,0,0,0-4.0267.753,19.1587,19.1587,0,0,1-10.06-1.2992V89.23a9.475,9.475,0,0,0,2.6219,6.4022h0a13.5451,13.5451,0,0,0-.2187,5.63,1.9069,1.9069,0,0,1,.6518-.1161h.0043a12.5159,12.5159,0,0,1,.8349-4.3456,11.0053,11.0053,0,0,0,1.6584,1.0709,12.8264,12.8264,0,0,0,8.4633.7047,25.91,25.91,0,0,1,5.0214-.4891,19.504,19.504,0,0,1,5.88.9929,12.7313,12.7313,0,0,1,.1975,2.0664h.0041a1.9092,1.9092,0,0,1,.6517.1162,13.7008,13.7008,0,0,0,.1955-2.2331c0-.0224.0014-.0441.0014-.0664C176.8985,91.93,171.5793,86.2279,165.0176,86.2279Z"/><path class="cls-7" d="M165.034,134.31v13.64h7.5835v-13.776c.896-1.0411.8085-4.5414.8085-5.9845l-16.7963.0587"/><path class="cls-7" d="M165.0239,136.5275v11.4217H157.44v-13.776c-.896-1.0411-.8085-4.5414-.8085-5.9845l16.7963.0587"/><path class="cls-7" d="M146.264,101.2618c.004.1186.0094.2368.0094.3565a10.18,10.18,0,0,1-.675,3.6525h.4844a2.0066,2.0066,0,0,0,.1812-4.009Z"/><path class="cls-7" d="M141.7,103.6272a1.24,1.24,0,0,0-2.4775,0"/><path class="cls-7" d="M131.2183,103.6272a1.24,1.24,0,0,0-2.4774,0"/><path class="cls-7" d="M133.124,107.4989a2.0982,2.0982,0,0,0,4.1926,0"/><path class="cls-7" d="M149.1545,123.0483a3.1418,3.1418,0,0,1,1.1217-.2253,7.9334,7.9334,0,0,1-2.3072-5.1544l-2.8939.6728a10.3891,10.3891,0,0,0,2.91,6.4566A2.0083,2.0083,0,0,1,149.1545,123.0483Z"/><line class="cls-7" x1="126.9292" y1="113.3487" x2="145.4602" y2="113.3487"/><path class="cls-2" d="M141.8493,111.1738a9.7,9.7,0,0,0,4.57-5.6553"/><path class="cls-7" d="M123.2783,101.324a2.0623,2.0623,0,0,0,0,3.661Z"/><path class="cls-7" d="M127.1133,112.34c0,2.9826-1.1648,3.8706-2.667,5.7555l1.4112.3145a7.88,7.88,0,0,1,.9779-1.4953v10.0322h16.77V116.9142a7.8826,7.8826,0,0,1,.978,1.4953l3.7355-.8325c-.0856-.2055-.191-.4032-.2739-.6118a11.9371,11.9371,0,0,0-7.44-6.1755"/><path class="cls-2" d="M147.0244,101.2153V98.9322a11.83,11.83,0,0,0-23.66,0h0"/><path class="cls-7" d="M127.1133,111.9889v.3506c0,2.9826-1.15,3.8416-2.6516,5.7266"/><line class="cls-7" x1="127.1133" y1="111.9688" x2="127.1133" y2="111.9889"/><path class="cls-7" d="M129.8359,110.82a10.1733,10.1733,0,0,0-2.7226,1.1686"/><line class="cls-2" x1="123.367" y1="117.8546" x2="123.3708" y2="115.3014"/><path class="cls-8" d="M123.367,117.8546l-.0026,1.7407a17.8284,17.8284,0,0,1,1.0683-1.4944"/><line class="cls-2" x1="123.3708" y1="115.3014" x2="123.3951" y2="98.8045"/><path class="cls-7" d="M122.1156,117.7711a16.1767,16.1767,0,0,1,1.2495-2.5336"/><path class="cls-2" d="M123.4162,98.963a11.8057,11.8057,0,0,1,23.6113-.0663"/><path class="cls-7" d="M146.1363,100.08a13.9386,13.9386,0,0,1-1.651-.4447c-3.4207-1.245-5.4006-3.1087-6.2166-5.1927-3.2084,1.7772-7.2565,3.0622-8.28,4.0166-1.4737,1.3748-2.8759,3.3474-2.8759,5.3629v4.8956"/><path class="cls-7" d="M146.1461,100.0767l.0412.0088-.0413-.0091"/><line class="cls-7" x1="127.1133" y1="108.7175" x2="127.1133" y2="111.9688"/><path class="cls-7" d="M145.9673,99.8954a5.2345,5.2345,0,0,1,.3214,1.6553,10.83,10.83,0,0,1-11.0531,10.5924,11.2329,11.2329,0,0,1-8.1224-3.4256"/><line class="cls-7" x1="123.5361" y1="117.9042" x2="122.1676" y2="117.4893"/><path class="cls-7" d="M138.2387,147.9652h3.9639a1.7534,1.7534,0,0,1,1.7532,1.7533v.4383h-5.7171Z"/><path class="cls-7" d="M132.14,150.1567h-5.7172v-.4384a1.7532,1.7532,0,0,1,1.753-1.7532H132.14Z"/><path class="cls-7" d="M135.2084,134.31v13.64h7.5835v-13.776c.896-1.0411.8086-4.5414.8086-5.9845l-16.7964.0587"/><path class="cls-7" d="M135.1991,136.5275v11.4217h-7.5835v-13.776c-.896-1.0411-.8087-4.5414-.8087-5.9845l16.7964.0587"/><path class="cls-7" d="M122.5513,117.577a8.2358,8.2358,0,0,1-2.3568,5.2528,3.104,3.104,0,0,1,1.1242.22,2.0019,2.0019,0,0,1,1.1607,1.7679,10.7864,10.7864,0,0,0,2.9718-6.58"/><ellipse class="cls-7" cx="120.3845" cy="124.8486" rx="2.0963" ry="2.0089"/><path class="cls-7" d="M111.9386,103.6272a1.24,1.24,0,0,0-2.4774,0"/><path class="cls-7" d="M101.4572,103.6272a1.24,1.24,0,0,0-2.4774,0"/><path class="cls-7" d="M103.3629,107.4989a2.0982,2.0982,0,0,0,4.1926,0"/><ellipse class="cls-7" cx="94.2345" cy="125.7509" rx="2.0963" ry="2.0089"/><path class="cls-7" d="M120.5151,122.823a7.9339,7.9339,0,0,1-2.3072-5.1544l-2.894.6728a10.3889,10.3889,0,0,0,2.91,6.4566"/><path class="cls-7" d="M94.6852,118.095l1.4112.3145a7.88,7.88,0,0,1,.9779-1.4953v10.0322h16.77V116.9142a7.8858,7.8858,0,0,1,.978,1.4953l3.7354-.8325c-.0855-.2055-.19-.4032-.2738-.6118a11.9374,11.9374,0,0,0-7.44-6.1755"/><path class="cls-7" d="M96.1209,118.41l-3.7354-.8325c.0856-.2055.19-.4032.2739-.6118a11.9367,11.9367,0,0,1,7.44-6.1755"/><path class="cls-2" d="M92.881,117.9194a12.4123,12.4123,0,0,0-.5077,6.91,2.1742,2.1742,0,0,1,2.791-.8764,8.034,8.034,0,0,1,.5122-5.6365"/><path class="cls-7" d="M108.4775,147.9652h3.9639a1.7534,1.7534,0,0,1,1.7532,1.7533v.4383h-5.7171Z"/><path class="cls-7" d="M102.3792,150.1567H96.662v-.4384a1.7532,1.7532,0,0,1,1.7533-1.7532h3.9639Z"/><path class="cls-7" d="M105.4477,134.31v13.64h7.5836v-13.776c.896-1.0411.8085-4.5414.8085-5.9845l-16.7963.0587"/><path class="cls-7" d="M105.4379,136.5275v11.4217H97.8544v-13.776c-.896-1.0411-.8086-4.5414-.8086-5.9845l16.7963.0587"/><path class="cls-7" d="M96.2948,99.8434c3.2539-1.1749,5.1974-2.9079,6.0731-4.855,1.7846,2.584,5.8453,4.39,10.5745,4.39a23.1116,23.1116,0,0,0,3.3164-.255,10.9291,10.9291,0,1,1-21.6508,2.196c0-.3416.0178-.6789.0491-1.0124A15.9547,15.9547,0,0,0,96.2948,99.8434Z"/><path class="cls-7" d="M90.0647,103.92V89.6338a6.7385,6.7385,0,0,1,13.0359-2.3358,7.6337,7.6337,0,0,0-1.5935-.168,7.5422,7.5422,0,0,0-7.5722,7.5118,7.3874,7.3874,0,0,0,.0811,1.0733h0c.0287.1961.0623.3906.1056.5817l.013-.0475a11.521,11.521,0,0,0-.2879,4.2438c.03.2576.071.5122.1173.7647a2,2,0,0,0,.644,3.9h.7069v0a10.7976,10.7976,0,0,0,1.4583,2.6363A5.05,5.05,0,0,1,86.7,107.3282v-1.6688a2.1393,2.1393,0,0,0,3.3652-1.7392Z"/><path class="cls-7" d="M105.5456,87.4638a11.7321,11.7321,0,0,1,11.7736,11.475c.0012.07.0054.1395.0054.21a11.6558,11.6558,0,0,1-.1953,2.11,2.0278,2.0278,0,0,0-.6461-.1066h-.0043a10.8089,10.8089,0,0,0-.22-2.0291h.0008a23.1092,23.1092,0,0,1-3.3171.2551c-4.7292,0-8.79-1.8058-10.5746-4.39-.8757,1.9471-2.8192,3.68-6.0731,4.855,0,0-1.6546.4672-1.6377.4633q-.0391.4182-.0448.8455h-.0039a2.023,2.023,0,0,0-.644.1058c-.0464-.2525-.0877-.5068-.1174-.7647a11.6661,11.6661,0,0,1,11.699-13.0292Z"/><path class="cls-7" d="M94.1216,96.2967a7.5041,7.5041,0,0,1,7.3855-9.1668,7.614,7.614,0,0,1,2.533.4321A11.7547,11.7547,0,0,0,94.1216,96.2967Z"/><path class="cls-7" d="M116.4832,101.3188c0-.056-.0034-.1111-.0043-.1669h.0043a2.0032,2.0032,0,0,1,.042,4.0062h-.7488A10.7463,10.7463,0,0,0,116.4832,101.3188Z"/><circle class="cls-7" cx="105.3403" cy="119.3923" r="0.8297"/><circle class="cls-7" cx="105.3403" cy="122.0659" r="0.8297"/><path class="cls-7" d="M130.5071,69.2008a4.96,4.96,0,0,0-4.96-4.96H67.6815a4.96,4.96,0,0,0-4.9595,4.96v32.4464a4.96,4.96,0,0,0,4.96,4.96H84.6529"/><line class="cls-7" x1="130.5071" y1="69.2008" x2="130.5071" y2="85.8862"/><rect class="cls-7" x="88.1414" y="64.3837" width="16.9463" height="5.6487"/></svg>