<svg xmlns="http://www.w3.org/2000/svg" width="399" height="200" viewBox="0 0 399 200">
  <g fill="none" fill-rule="evenodd">
    <g fill-rule="nonzero" transform="translate(159 78)">
      <path fill="#333838" d="M25.2884665,40.8658544 C25.7069518,40.8658544 26.2126215,40.7352528 26.5090485,40.5524106 C27.0147182,40.2476736 27.2762715,39.7252673 27.2762715,39.2725152 C27.2762715,38.7414021 27.0670289,38.1841687 25.9946604,37.5311608 C25.2100005,37.0348749 24.826389,36.7562582 24.826389,36.2425587 C24.826389,35.6766185 25.3059034,35.3370544 25.7156702,35.3370544 C25.985942,35.3370544 26.203903,35.4067086 26.4131457,35.580844 C26.517767,35.6679117 26.7008543,35.9117013 26.7880387,36.1990248 C26.8316309,36.3296264 26.971126,36.4079873 27.0408736,36.4079873 C27.0931842,36.4079873 27.1193395,36.3209196 27.1193395,36.190318 C27.1193395,36.1554909 27.0321551,35.4850695 27.0321551,35.3718815 C27.0234367,35.3283476 26.9536891,35.2064528 26.9188154,35.1977461 C26.6834174,35.1542122 26.2213399,35.0497309 25.8202915,35.0497309 C25.1315346,35.0497309 24.7217677,35.2238664 24.4340591,35.467656 C24.1550689,35.694032 23.9022341,36.1119571 23.9022341,36.6082431 C23.9022341,37.3831457 24.3817485,37.8620182 25.2710296,38.4453719 C26.0731264,38.9677782 26.2562137,39.316049 26.2562137,39.6817334 C26.2562137,40.2389668 25.750544,40.5524106 25.3494956,40.5524106 C24.904855,40.5524106 24.3991853,40.2825007 24.1376321,39.7513876 C24.0068554,39.4814777 23.8673603,39.2725152 23.7976128,39.2725152 C23.7540206,39.2725152 23.6581177,39.39441 23.6581177,39.4553574 C23.6581177,39.7078537 23.7365837,40.0822449 23.8063312,40.3869819 C23.8063312,40.421809 23.9632632,40.6046512 24.0330107,40.6394783 C24.3904669,40.7787867 24.7740784,40.8658544 25.2884665,40.8658544 Z M31.4524057,40.8658544 C32.2545024,40.8658544 32.856075,40.6568919 32.9781332,40.613358 C33.1089099,40.5524106 33.2658418,40.4131022 33.2919972,40.3347413 C33.3704631,40.1780194 33.5099582,39.7949215 33.5535504,39.5772522 C33.5797058,39.4814777 33.5797058,39.2551016 33.4838029,39.2551016 C33.4140554,39.2551016 33.3530263,39.3334626 33.2484049,39.5250115 C33.0478808,39.8819892 32.8124828,40.1344856 32.4899004,40.3173278 C32.1847549,40.50017 31.7575512,40.5175835 31.6442114,40.5175835 C30.9641729,40.5175835 30.1707946,40.1780194 29.6912802,39.2202745 C29.4994745,38.8371766 29.3948532,38.3321838 29.3948532,37.7488301 C29.3948532,36.4254009 30.0487364,35.3283476 31.4349688,35.3283476 C31.9057647,35.3283476 32.3504053,35.5198966 32.7252984,35.8333404 C32.8735119,35.9465284 33.0042885,36.1816113 33.091473,36.4515212 C33.1350652,36.5821227 33.2135312,36.686604 33.2571234,36.686604 C33.3530263,36.686604 33.4140554,36.5385889 33.4053369,36.3557467 C33.3879,36.1032503 33.3704631,35.7985133 33.3617447,35.5547237 C33.3617447,35.4241221 33.2919972,35.3196409 33.2309681,35.3196409 C33.0304439,35.2935206 32.8124828,35.2412799 32.6032402,35.1890393 C32.2893762,35.1106783 31.870891,35.0497309 31.4698426,35.0497309 C30.7549303,35.0497309 29.8569306,35.2238664 29.115863,35.8333404 C28.7496884,36.1293706 28.1568343,36.8694462 28.1568343,37.9229656 C28.1568343,38.8894172 28.5578826,39.4988912 28.8891835,39.8819892 C29.2466396,40.2912074 30.1620761,40.8658544 31.4524057,40.8658544 Z M38.4794707,40.7526663 C38.6538396,40.7526663 39.351315,40.7091325 39.5431207,40.7091325 C39.804674,40.7091325 40.27547,40.7352528 40.4236835,40.7352528 C40.5806155,40.7352528 40.7026737,40.7091325 40.7026737,40.613358 C40.7026737,40.5437038 40.6154892,40.4827564 40.4585573,40.4305158 C40.1098195,40.3173278 40.0226351,40.2912074 40.0139167,39.9516434 C40.0060701,39.6930522 39.9840996,39.3004639 39.979784,38.602503 L39.9790429,38.3583042 C39.9790429,37.1219426 40.0051982,36.3383331 40.0487904,35.9291149 C40.0662273,35.6766185 40.118538,35.5373102 40.4324019,35.467656 C40.6329261,35.4154154 40.7113921,35.3631747 40.7113921,35.276107 C40.7113921,35.2064528 40.6067708,35.162919 40.4411204,35.162919 C40.3364991,35.162919 39.7872372,35.1977461 39.508247,35.1977461 C39.2815675,35.1977461 38.6364027,35.1716257 38.5230629,35.1716257 C38.3225387,35.1716257 38.2353543,35.2238664 38.2353543,35.2848138 C38.2353543,35.3718815 38.366131,35.4241221 38.4881892,35.4589492 C38.8369269,35.5547237 38.8805191,35.6417914 38.9153929,35.9552352 C38.9502666,36.2947993 38.9502666,37.3134916 38.9328297,37.4266796 C38.9241113,37.5572812 38.8892375,37.6443489 38.8543638,37.6443489 C37.9389272,37.6443489 36.7880928,37.679176 36.1952387,37.679176 C36.1342096,37.679176 36.0993358,37.6356421 36.0906173,37.5659879 C36.064462,37.4005593 36.0993358,36.3905738 36.1167727,36.07713 C36.1254911,35.7201524 36.1516464,35.5547237 36.517821,35.4763628 C36.7009083,35.4328289 36.8142481,35.3805883 36.8142481,35.2848138 C36.8142481,35.2064528 36.7096268,35.1716257 36.5265395,35.1716257 C36.3172969,35.1716257 35.9249669,35.1977461 35.5587923,35.1977461 C35.3321128,35.1977461 34.8525984,35.162919 34.6172005,35.162919 C34.4602685,35.162919 34.3469288,35.1977461 34.3469288,35.2848138 C34.3469288,35.354468 34.4428316,35.4154154 34.6433558,35.4763628 C34.9310644,35.5634305 35.0095304,35.659205 35.0269673,35.9465284 C35.0444042,36.2947993 35.0269673,36.7736717 35.0269673,37.0348749 C35.0269673,38.2277026 34.9833751,39.5250115 34.9485013,39.8732824 C34.9049091,40.2389668 34.8264431,40.3347413 34.4428316,40.4392226 C34.2946181,40.4827564 34.1987152,40.534997 34.1987152,40.6307715 C34.1987152,40.7004257 34.2771812,40.7439596 34.5038607,40.7439596 C34.8002878,40.7439596 35.2449284,40.7091325 35.4454526,40.7091325 C35.7505981,40.7091325 36.4742288,40.7352528 36.5352579,40.7352528 C36.6485977,40.7352528 36.8229665,40.7091325 36.8142481,40.6220648 C36.8142481,40.5454452 36.7361309,40.4855426 36.6111433,40.4378991 L36.5091026,40.4043955 C36.1516464,40.2999142 36.0993358,40.1693126 36.0906173,39.7600944 C36.0818989,39.4814777 36.064462,38.5498531 36.0818989,38.2277026 C36.0818989,38.1754619 36.1516464,38.1058078 36.1952387,38.097101 C36.3696075,38.0796875 38.1568883,38.1058078 38.8543638,38.1058078 C38.8892375,38.1058078 38.9241113,38.1406349 38.9241113,38.2189958 C38.9415482,38.4540786 38.9328297,39.2725152 38.9066744,39.620786 C38.8630822,40.2650871 38.8456453,40.3347413 38.4184416,40.4479293 C38.2963834,40.4827564 38.1830436,40.5524106 38.1830436,40.6307715 C38.1830436,40.7091325 38.2702281,40.7526663 38.4794707,40.7526663 Z M44.5387886,40.8658544 C45.2101087,40.8658544 45.9511763,40.6220648 46.4481276,40.2389668 C47.0584186,39.7513876 47.5466514,39.011312 47.5466514,37.8707249 C47.5466514,36.4776415 46.4306907,35.0497309 44.5039148,35.0497309 C43.7715656,35.0497309 43.0392164,35.3718815 42.6468864,35.6766185 C41.9930032,36.1990248 41.5222073,36.878153 41.5222073,37.9403791 C41.5222073,38.7414021 41.8011975,39.4292371 42.2719934,39.9342298 C42.8212553,40.5175835 43.6233521,40.8658544 44.5387886,40.8658544 Z M44.7916234,40.5437038 C43.5187307,40.5437038 42.6991971,39.089673 42.6991971,37.7488301 C42.6991971,36.7127243 43.013061,36.0858368 43.3094881,35.7985133 C43.5100123,35.5982576 43.9023422,35.354468 44.2946722,35.354468 C44.6782836,35.354468 45.1490796,35.5634305 45.4455066,35.8246336 C46.081953,36.4079873 46.3522247,37.4527999 46.3522247,38.1406349 C46.3522247,39.0722594 46.0470792,39.8210418 45.6809046,40.1867262 C45.5675648,40.2999142 45.2711378,40.5437038 44.7916234,40.5437038 Z M51.496106,40.8658544 C52.1674261,40.8658544 52.9084938,40.6220648 53.405445,40.2389668 C54.015736,39.7513876 54.5039689,39.011312 54.5039689,37.8707249 C54.5039689,36.4776415 53.3880082,35.0497309 51.4612323,35.0497309 C50.7288831,35.0497309 49.9965338,35.3718815 49.6042039,35.6766185 C48.9503207,36.1990248 48.4795248,36.878153 48.4795248,37.9403791 C48.4795248,38.7414021 48.7585149,39.4292371 49.2293109,39.9342298 C49.7785728,40.5175835 50.5806695,40.8658544 51.496106,40.8658544 Z M51.7489409,40.5437038 C50.4760482,40.5437038 49.6565146,39.089673 49.6565146,37.7488301 C49.6565146,36.7127243 49.9703785,36.0858368 50.2668056,35.7985133 C50.4673298,35.5982576 50.8596597,35.354468 51.2519896,35.354468 C51.6356011,35.354468 52.106397,35.5634305 52.4028241,35.8246336 C53.0392704,36.4079873 53.3095422,37.4527999 53.3095422,38.1406349 C53.3095422,39.0722594 53.0043967,39.8210418 52.6382221,40.1867262 C52.5248823,40.2999142 52.2284552,40.5437038 51.7489409,40.5437038 Z M59.3514231,40.7700799 C59.3862969,40.7700799 59.5345104,40.6743054 59.5519473,40.6220648 C59.604258,40.3782752 59.7350346,39.8994027 59.8309375,39.5946657 C59.8658113,39.4553574 59.8570928,39.3595829 59.7960637,39.3595829 C59.7350346,39.3595829 59.6391318,39.4205303 59.5606658,39.5337183 C59.3339862,39.8994027 59.1247436,40.0996585 59.0114039,40.2128465 C58.915501,40.2999142 58.8195981,40.3173278 58.7411321,40.3347413 C58.5842002,40.3695684 58.30521,40.3782752 58.1134042,40.3782752 C57.8692878,40.3782752 57.5554239,40.3608616 57.3897735,40.3347413 C57.3548997,40.3260345 57.0933464,40.2041397 57.0759095,39.9951772 C57.0410358,39.699147 57.0323173,38.9851917 57.0323173,38.3844245 C57.0323173,37.0958223 57.0323173,36.2164383 57.0933464,35.7810998 C57.1020649,35.6766185 57.1718124,35.5460169 57.6426083,35.4328289 C57.7297927,35.4067086 57.8344141,35.3457612 57.8344141,35.2674002 C57.8344141,35.2064528 57.7646665,35.162919 57.5641423,35.162919 C57.3548997,35.162919 56.7533271,35.1977461 56.4133079,35.1977461 C56.160473,35.1977461 55.7768615,35.1803325 55.5414636,35.1803325 C55.3845316,35.1803325 55.2799103,35.2151596 55.2799103,35.3022273 C55.2799103,35.3631747 55.3583763,35.4241221 55.5240267,35.467656 C55.9250751,35.5634305 55.9686673,35.7027388 55.9773857,35.998769 C55.9817449,36.1424308 55.9839245,36.2991527 55.9850144,36.5255287 L55.9861042,37.4702134 C55.9861042,38.7239886 55.9599488,39.6381996 55.9425119,39.8558689 C55.8989197,40.2389668 55.8204537,40.3956887 55.3409394,40.4827564 C55.2014443,40.5088767 55.1229783,40.5872377 55.1229783,40.6481851 C55.1229783,40.726546 55.2275996,40.7613731 55.3845316,40.7613731 C55.6548033,40.7613731 56.2563759,40.7091325 56.6748611,40.7091325 C58.4447051,40.7091325 59.2206465,40.7700799 59.3514231,40.7700799 Z"/>
      <g stroke="#222F3C" stroke-linecap="round" stroke-linejoin="round" stroke-width=".5" transform="translate(23.551 49.318)">
        <path d="M34.4527797,24.6276343 C34.7478847,24.6276343 34.9882561,24.3875846 34.9882561,24.0902936 L34.9882561,21.4883135 C34.9882561,21.0666703 34.6483001,20.7258029 34.2285243,20.7258029 L28.5328925,20.7258029 L28.5328925,0.762510584 C28.5328925,0.342082108 28.1915682,0 27.7731607,0 L17.494052,0 L7.21509537,0 C6.79653591,0 6.45536358,0.342082108 6.45536358,0.762510584 L6.45536358,20.7258029 L0.759731784,20.7258029 C0.339956027,20.7258029 0,21.0666703 0,21.4883135 L0,24.0902936 C0,24.3875846 0.239003075,24.6276343 0.535476355,24.6276343"/>
        <line x1="17.494" x2="17.494" y1="20.655" y2=".199"/>
      </g>
      <path stroke="#222F3C" stroke-width=".5" d="M42.9346011,7.96050725 C44.4092136,7.96050725 45.5625707,7.58988034 46.5787899,7.2614633 C47.4157568,6.99271703 48.1382393,6.7588926 48.9092219,6.7588926 C49.6938878,6.7588926 50.451035,7.0077486 51.29682,7.54250812 C51.3889548,7.59974955 51.4959893,7.62966086 51.6043921,7.62966086 C51.7015441,7.62966086 51.7962635,7.60597475 51.8845973,7.55753969 C52.0690189,7.45672188 52.1835032,7.26267797 52.1835032,7.05253965 L52.1835032,0.844500969 C52.1835032,0.62692278 52.0627854,0.430297689 51.8696976,0.329631716 C51.4350222,0.108257675 50.9605129,0 50.4162184,0 C49.5680007,0 48.6700668,0.266165084 47.7196799,0.547361739 C46.6274419,0.870616425 45.499019,1.20525866 44.2821102,1.20525866 L44.2808939,1.20525866 C43.2769898,1.20525866 42.3491044,0.972648905 41.4425043,0.492549648 C41.2643163,0.400538216 41.0426455,0.406763412 40.8720593,0.508795891 C40.7001048,0.614472388 40.5930704,0.803505777 40.5930704,1.00498956 L40.5930704,12.8885849"/>
      <path stroke="#222F3C" stroke-linecap="round" stroke-linejoin="round" stroke-width=".5" d="M0,23.6044246 L0,19.5817334 L40.5847594,0 L82.0901063,19.6207547 L82.0901063,23.6584775" transform="translate(0 12.621)"/>
      <path stroke="#222F3C" stroke-linecap="round" stroke-linejoin="round" stroke-width=".5" d="M0,56.4924384 L0,17.6235297 L36.5264203,0 L73.8811413,17.6587552 L73.8811413,56.5410253" transform="translate(4.105 17.156)"/>
      <g transform="translate(77.979 24.604)">
        <g stroke="#222F3C" stroke-linecap="round" stroke-linejoin="round" transform="translate(0 13.685)">
          <g stroke-width=".5" transform="translate(19.136 27.92)">
            <g transform="translate(7.642)">
              <line y1="7.791"/>
              <line x2="3.761" y1="7.791" y2="7.791"/>
            </g>
            <line x1="3.761" x2="3.761" y1="7.791"/>
            <line x1="3.761" y1="7.791" y2="7.791"/>
          </g>
          <path stroke-width=".5" d="M35.4061867,2.52378553 C34.3823657,1.50254973 33.2464929,0.664273956 32.0396186,0 L17.6367946,0 C16.4299203,0.664273956 15.2926792,1.50254973 14.2690102,2.52378553 C8.43259162,8.35239092 8.43259162,17.8042122 14.2690102,23.6326657 C20.1064931,29.4612711 29.5697681,29.4612711 35.4061867,23.6326657 C41.2426053,17.8042122 41.2426053,8.3536056 35.4061867,2.52378553 Z"/>
          <g stroke-width=".5" transform="translate(23.003 12.67)">
            <line x1="2.495" x2="5.248" y1="1.004" y2="3.558"/>
            <line x2="1.173" y1="2.316" y2="1.144"/>
            <ellipse cx="1.937" cy=".622" rx="1" ry="1"/>
          </g>
          <ellipse cx="24.837" cy="13.078" stroke-width=".25" rx="12.455" ry="12.438"/>
          <g stroke-width=".5" transform="translate(35.406 22.04)">
            <path d="M0 1.5933392C2.92687544 4.51766295 7.67470497 4.51766295 10.6027967 1.5933392M11.9243755.27341516C11.5594853-.0911383867 10.9679071-.0911383867 10.6028648.27341516 10.2391909.637816873 10.2391909 1.22860315 10.6028648 1.59300486 10.9679071 1.9561919 11.5594853 1.9561919 11.9243755 1.59300486 12.2892657 1.22860315 12.2892657.637816873 11.9243755.27341516z"/>
          </g>
          <g stroke-width=".5" transform="translate(0 16.344)">
            <path d="M11.849725 4.09249846C9.97145276.407030633 5.4577611-1.05938259 1.76735294.81622339M.101114443 1.66280903C.336468616 2.12180335.899463773 2.30461154 1.35770504 2.07078711 1.81731464 1.83696268 2.00036788 1.2747212 1.76744631.815726879 1.53209214.356732555.970465322.173924362.51085572.407748794.0512461173.641573227-.131807128 1.2038147.101114443 1.66280903z"/>
          </g>
          <line x2="10.711" y1="16.249" stroke-width=".5" transform="translate(47.31 5.847)"/>
        </g>
        <g stroke="#222F3C" stroke-linecap="round" stroke-linejoin="round" stroke-width=".5" transform="translate(9.892)">
          <path d="M22.4746511,7.54068611 L29.8918044,5.09357677 L14.9459022,0 L0,5.09357677 L7.46489311,7.54068611"/>
          <path d="M22.4188533,5.09349782 L22.4188533,13.6510165 L7.4729511,13.6510165 L7.4729511,5.09349782 L7.4729511,5.10230419 C7.4729511,4.38959518 10.818386,3.81232213 14.9459022,3.81232213 C19.0734184,3.81232213 22.4188533,4.38959518 22.4188533,5.10230419 L22.4188533,5.09349782 Z"/>
          <line y1="5.093" y2="9.193"/>
        </g>
        <path fill="#222F3C" d="M24.375456,36.6092826 C24.3505218,36.3481281 24.549691,36.1241729 24.8113477,36.1117225 L24.8113477,36.1117225 C25.0603853,36.0992721 25.2846407,36.2983265 25.2983241,36.5471825 L25.2983241,36.5471825 C25.3095749,36.8083371 25.1227207,37.0321405 24.861064,37.0445908 L24.861064,37.0445908 L24.861064,37.0445908 L24.861064,37.0445908 L24.8362819,37.0445908 L24.8362819,37.0445908 C24.5870923,37.0445908 24.3891393,36.8581386 24.375456,36.6092826 Z M19.7919791,35.6975192 C19.5566249,35.6229687 19.419639,35.3618141 19.4930732,35.1129581 L19.4930732,35.1129581 C19.5815591,34.8642539 19.8418474,34.7274515 20.0908849,34.8144524 L20.0908849,34.8144524 C20.3288238,34.8891547 20.4645933,35.1503093 20.3897908,35.3990134 L20.3897908,35.3990134 C20.3288238,35.5980679 20.1407533,35.72242 19.9426483,35.72242 L19.9426483,35.72242 C19.892932,35.72242 19.8418474,35.7099696 19.7919791,35.6975192 Z M29.323671,35.483585 C29.2116193,35.2473312 29.3125723,34.9737263 29.5479265,34.8616728 L29.5479265,34.8616728 C29.7721819,34.7497711 30.059837,34.8492224 30.1706724,35.085628 L30.1706724,35.085628 C30.2716253,35.3094314 30.1706724,35.5956385 29.9464169,35.6950898 L29.9464169,35.6950898 C29.8842336,35.732441 29.8094311,35.7448914 29.748464,35.7448914 L29.748464,35.7448914 C29.5728606,35.7448914 29.3984735,35.6452883 29.323671,35.483585 Z M15.8811164,31.867809 C15.7565976,31.6452203 15.8312481,31.3577985 16.0555035,31.234661 L16.0555035,31.234661 C16.292226,31.1090943 16.5786648,31.196247 16.7031836,31.4200504 L16.7031836,31.4200504 C16.8152353,31.6452203 16.7405848,31.9312756 16.5163294,32.0544131 L16.5163294,32.0544131 C16.441679,32.0917642 16.3668765,32.1178797 16.292226,32.1178797 L16.292226,32.1178797 C16.1178389,32.1042146 15.968386,32.0170619 15.8811164,31.867809 Z M33.18725,32.085539 C32.9506795,31.9983863 32.8260087,31.7247813 32.9257454,31.4885276 L32.9257454,31.4885276 C33.0128629,31.2396716 33.2868346,31.1277699 33.5360242,31.2272212 L33.5360242,31.2272212 C33.7725947,31.3143739 33.8847984,31.5879789 33.7975288,31.8242326 L33.7975288,31.8242326 C33.7228784,32.0108367 33.5484913,32.1228902 33.3616371,32.1228902 L33.3616371,32.1228902 C33.2993017,32.1228902 33.2371183,32.1104398 33.18725,32.085539 Z M14.5696402,26.795489 L14.5696402,26.795489 L14.5696402,26.795489 C14.5447061,26.5343344 14.7190932,26.3103792 14.9805978,26.2731799 L14.9805978,26.2731799 C15.2297874,26.2482791 15.4663579,26.4224328 15.5037591,26.6835873 L15.5037591,26.6835873 C15.5286933,26.9322915 15.3543062,27.1686971 15.0928016,27.2060483 L15.0928016,27.2060483 L15.0304662,27.2060483 L15.0304662,27.2060483 C14.8062107,27.2060483 14.6070415,27.0318946 14.5696402,26.795489 Z M34.3456243,26.7432581 L34.3456243,26.7432581 C34.3456243,26.4821035 34.5572606,26.269384 34.8050819,26.269384 L34.8050819,26.269384 C35.0667385,26.269384 35.2797432,26.4821035 35.2797432,26.7432581 L35.2797432,26.7432581 C35.2797432,26.9907476 35.0667385,27.2022524 34.8050819,27.2022524 L34.8050819,27.2022524 C34.5572606,27.2022524 34.3456243,26.9907476 34.3456243,26.7432581 Z M16.1053718,22.2120746 C15.8935835,22.0640364 15.8575506,21.7779811 16.0056352,21.5652616 L16.0056352,21.5652616 C16.1550881,21.3537568 16.441679,21.3177721 16.6533153,21.467025 L16.6533153,21.467025 C16.8651036,21.6150632 16.9149719,21.9011185 16.7530519,22.113838 L16.7530519,22.113838 C16.6669987,22.2369754 16.5287965,22.3115259 16.3805599,22.3115259 L16.3805599,22.3115259 C16.2797589,22.3115259 16.1924894,22.2755413 16.1053718,22.2120746 Z M32.9879287,22.1261366 L32.9879287,22.1261366 C32.8384758,21.9147836 32.875877,21.6162778 33.0876654,21.467025 L33.0876654,21.467025 C33.2993017,21.3177721 33.5857405,21.3674218 33.7476605,21.5789267 L33.7476605,21.5789267 C33.8971134,21.7779811 33.8473972,22.0764868 33.6356088,22.2257397 L33.6356088,22.2257397 C33.5609584,22.2878398 33.4612217,22.3127406 33.3616371,22.3127406 L33.3616371,22.3127406 C33.2246512,22.3127406 33.0751983,22.2506405 32.9879287,22.1261366 Z M19.5453741,18.4954808 C19.4083882,18.283976 19.4705716,17.9854703 19.68236,17.8486678 L19.68236,17.8486678 C19.9066154,17.7106506 20.1930542,17.7741173 20.3300401,17.9979207 L20.3300401,17.9979207 C20.4658096,18.2094255 20.4046905,18.4954808 20.1793708,18.643519 L20.1793708,18.643519 C20.1057846,18.6820849 20.0186671,18.7069857 19.9315496,18.7069857 L19.9315496,18.7069857 C19.7819446,18.7069857 19.6324916,18.6322833 19.5453741,18.4954808 Z M29.5467102,18.6658386 C29.3224547,18.5302508 29.2602714,18.2441955 29.3972572,18.0190256 L29.3972572,18.0190256 C29.5342431,17.8076726 29.833149,17.7454206 30.0449373,17.8835896 L30.0449373,17.8835896 C30.2565736,18.0190256 30.3313761,18.3052328 30.1943902,18.5302508 L30.1943902,18.5302508 C30.0946536,18.6658386 29.9452006,18.740541 29.7957477,18.740541 L29.7957477,18.740541 C29.7086302,18.740541 29.6213606,18.7156402 29.5467102,18.6658386 Z M24.7739465,17.4768262 C24.5124418,17.42581 24.3517381,17.1783205 24.4016064,16.9294645 L24.4016064,16.9294645 C24.4501064,16.6795456 24.6880452,16.5066067 24.9495499,16.5564082 L24.9495499,16.5564082 C25.1973711,16.6048433 25.3605074,16.854914 25.3220419,17.1036181 L25.3220419,17.1036181 C25.2721736,17.3263587 25.0728523,17.4768262 24.8499653,17.4768262 L24.8499653,17.4768262 L24.7739465,17.4768262 Z"/>
        <g stroke="#222F3C" stroke-linejoin="round" stroke-width=".5" transform="translate(19.641 21.968)">
          <path d="M3.38648504 0C3.38648504.78862604 2.62796956 1.42799921 1.69385067 1.42799921.758515483 1.42799921 0 .78862604 0 0M10.6713961 0C10.6713961.78862604 9.91409688 1.42799921 8.97876169 1.42799921 8.04342651 1.42799921 7.28612732.78862604 7.28612732 0"/>
        </g>
      </g>
    </g>
    <line x1="151" x2="313" y1="151.938" y2="151.938" stroke="#222F3C" stroke-linecap="round" stroke-linejoin="round" stroke-width=".5"/>
    <g fill-rule="nonzero" stroke="#222F3C" stroke-width=".5" transform="translate(74 108)">
      <g transform="translate(24.56)">
        <path d="M18.6713033 48.6621439L18.6713033 54.957661 22.15983 54.957661 22.5697107 48.6621439 18.6713033 48.6621439zM9.08784942 48.6621439L9.49757876 54.957661 12.9862568 54.957661 12.9862568 48.6621439 9.08784942 48.6621439zM25.9670018 12.0246229C25.5851225 11.9291767 25.2156547 11.82768 24.8982545 11.7160488 21.7091163 10.6045769 19.8033526 8.96399112 18.9440865 7.12131957 17.1945256 9.56737454 13.2143842 11.2761794 8.5770412 11.2761794 7.75485805 11.2761794 6.82369629 11.2217251 5.90736773 11.1188671 5.66065224 11.9663871 5.52427761 12.8585293 5.52427761 13.7816802 5.52427761 19.2314925 10.1380086 23.6501529 15.829417 23.6501529 21.5206741 23.6501529 26.1331942 19.2314925 26.1331942 13.7816802 26.1331942 13.1819271 26.0749209 12.5945774 25.9670018 12.0246229zM18.6718216 54.9579745L22.3539301 54.9579745C23.2639626 54.9579745 24.0016897 55.6957015 24.0016897 56.605734L24.0016897 56.9997761 24.0016897 56.9997761 18.6718216 56.9997761 18.6718216 54.9579745z"/>
        <path d="M7.65696498,54.9581983 L12.9868331,54.9581983 L12.9868331,55.3522404 C12.9868331,56.2622729 12.249106,57 11.3390735,57 L7.65696498,57 L7.65696498,57 L7.65696498,54.9581983 Z" transform="rotate(180 10.322 55.98)"/>
        <path d="M15.8129419,43.9996676 L15.8129419,48.6618595 L23.6459315,48.6618595 L23.6459315,37.3364329 L8.01158625,37.3364329 L8.01158625,48.6618595 L15.8445759,48.6618595 L15.8445759,44.0509453"/>
        <g transform="translate(3.749 13.45)">
          <path d="M1.77559471.332019705C1.77559471.22053974 1.78058956.11026987 1.78422218 0 .784797423.0818326471 0 .884730412 0 1.86369694 0 2.89711773.874099348 3.73480571 1.9540472 3.73480571L2.40540032 3.73480571C1.99869816 2.67400653 1.77559471 1.52789569 1.77559471.332019705zM22.3758584 0C22.379491.11026987 22.3844858.22053974 22.3844858.332019705 22.3844858 1.52789569 22.1625933 2.67400653 21.7558911 3.73480571L22.2072442 3.73480571C23.2859812 3.73480571 24.1612914 2.89711773 24.1612914 1.86369694 24.1612914.884730412 23.376494.0818326471 22.3758584 0z"/>
        </g>
        <g transform="translate(9.788 14.547)">
          <path d="M12.081968 0C12.081968.610946509 11.564925 1.10527015 10.9263405 1.10527015 10.288967 1.10527015 9.77192396.610946509 9.77192396 0M2.31004403 0C2.31004403.610946509 1.79300102 1.10527015 1.15562745 1.10527015.517043008 1.10527015 0 .610946509 0 0"/>
        </g>
        <path d="M13.8752366 19.2599043C13.8752366 20.2945352 14.7493359 21.1322232 15.8294352 21.1322232 16.9081721 21.1322232 17.7834824 20.2945352 17.7834824 19.2599043M27.7848856 28.0800939C26.6540811 25.7567122 24.7371169 23.9414191 22.3353492 22.8906032 22.0203707 22.6972906 21.6645252 22.5622138 21.2814351 22.5001964 21.1561097 22.4741794 21.0297248 22.4593557 20.9019776 22.4593557 20.8833604 22.4593557 20.8659541 22.4605658 20.8474883 22.4617759L20.8040482 22.4593557 20.7407801 22.4593557C19.2801638 23.2189926 17.6074934 23.6500888 15.8294769 23.6500888 14.0513091 23.6500888 12.3774278 23.2189926 10.9180224 22.4593557L10.8547543 22.4593557 10.8113142 22.4617759C10.7928484 22.4605658 10.7742312 22.4593557 10.755614 22.4593557 10.6278669 22.4593557 10.5013306 22.4741794 10.3773674 22.5001964 9.99427727 22.5622138 9.63722093 22.6972906 9.32345332 22.8906032 6.92168563 23.9414191 5.00472143 25.7567122 3.87270601 28.0800939 3.78098234 28.2684148 3.69788614 28.4579459 3.61849825 28.6500484L7.10028948 29.425719C7.35199982 28.9239836 7.65941034 28.4579459 8.01162319 28.0330514L8.01162319 37.3450319 23.6459685 37.3450319 23.6459685 28.0330514C23.9993922 28.4579459 24.3068027 28.9239836 24.558513 29.425719L28.0402286 28.6500484C27.9609164 28.4579459 27.8766093 28.2684148 27.7848856 28.0800939zM15.8294812 0C9.51447286 0 4.38733151 4.85489952 4.28561813 10.879658 4.28440726 10.9391039 4.28062328 10.9985498 4.28062328 11.0592058 4.28062328 11.9873483 4.40216471 12.8894739 4.62784127 13.7507587 4.89196307 13.5834631 5.20073582 13.4768235 5.53418013 13.4483863 5.56157614 12.6441272 5.69053418 11.8634649 5.9074319 11.1175928 6.82376047 11.221661 7.75492223 11.2761152 8.57710537 11.2761152 13.2144484 11.2761152 17.1945897 9.5673104 18.9441507 7.12125544 19.8034168 8.96392699 21.7091804 10.6045127 24.8983187 11.7159846 25.2157189 11.8276158 25.5851867 11.9291125 25.9670659 12.0245587 26.055157 12.4892351 26.1084354 12.9638947 26.1246309 13.4483863 26.4580752 13.4768235 26.7668479 13.5834631 27.0309697 13.7507587 27.1525111 13.2872925 27.2418131 12.8126328 27.3000864 12.3281412 27.3495808 11.9118687 27.3769768 11.4892431 27.3769768 11.0592058 27.3769768 4.95155583 22.2076063 0 15.8294812 0z"/>
        <path d="M25.4264787,34.5892653 C25.6880274,34.4653819 25.9819669,34.3935325 26.2931615,34.3935325 C27.0495033,34.3935325 27.702921,34.8049647 28.0291001,35.4059279 C28.7047675,33.1370005 28.526315,30.7987952 27.6558483,28.7355839 L24.9490918,29.3379085 C25.7288944,30.9362922 25.9361051,32.7887958 25.4264787,34.5892653 Z"/>
        <ellipse cx="26.293" cy="36.265" rx="1.954" ry="1.872"/>
        <path d="M2.82497951,33.8123156 C2.54594883,33.6784489 2.06856193,33.6065995 1.77719548,33.6065995 C3.07169499,32.2125705 3.92846371,30.4765386 3.97440123,28.7132795 L6.67737372,29.3278563 C6.49771036,31.5471698 5.56897034,33.7168694 3.90742479,35.4591031 C3.89622421,34.7825089 3.5019335,34.1345033 2.82497951,33.8123156 Z"/>
        <ellipse cx="1.954" cy="35.487" rx="1.954" ry="1.872"/>
      </g>
      <g transform="translate(0 .062)">
        <path d="M21.681495,11.7172879 C18.4911459,10.605816 16.5865932,8.96523026 15.727327,7.12255871 C13.9777661,9.56740358 9.99633818,11.2774185 5.36020606,11.2774185 C4.58153868,11.2774185 3.65030124,11.1435518 2.73404835,10.9750461 C2.4575151,11.8647682 2.30751814,12.8065243 2.30751814,13.7829194 C2.30751814,19.2327316 6.92124911,23.6513921 12.6125819,23.6513921 C18.3026281,23.6513921 22.9164347,19.2327316 22.9164347,13.7829194 C22.9164347,13.1745443 22.855664,12.5809929 22.746534,12.0034753 C22.3498215,11.9143821 21.9740723,11.8189358 21.681495,11.7172879 Z"/>
        <g transform="translate(4.44 48.634)">
          <path d="M11.014704,6.26237386 L14.696812,6.26237386 C15.6068444,6.26237386 16.3445715,7.00010094 16.3445715,7.91013341 L16.3445715,8.30417554 L16.3445715,8.30417554 L11.014704,8.30417554 L11.014704,6.26237386 Z"/>
          <path d="M-1.40964235e-13,6.26259772 L5.32986807,6.26259772 L5.32986807,6.65663997 C5.32986807,7.56667238 4.59214104,8.30439941 3.68210863,8.30439941 L-1.40964235e-13,8.30439941 L-1.40964235e-13,8.30439941 L-1.40964235e-13,6.26259772 Z" transform="rotate(180 2.665 7.283)"/>
          <path d="M11.0143383.0421306535L11.0143383 6.26292445 14.5030164 6.26292445 14.9078266.0421306535 11.0143383.0421306535zM1.43336431 0L1.84097462 6.26269332 5.32957701 6.26269332 5.32957701 0 1.43336431 0z"/>
        </g>
        <path d="M4.79462942 37.3141285L4.0049885 48.6120254 21.2185399 48.6120254 20.428899 37.3141285 4.79462942 37.3141285zM22.7391513 17.1855638L22.2865873 17.1855638C21.418618 19.4482894 19.7112106 21.3230285 17.5239946 22.4606687L17.5872627 22.4606687 17.6306271 22.4618788C17.6479578 22.4618788 17.6665749 22.4606687 17.6851921 22.4606687 17.8129393 22.4606687 17.9393999 22.4754923 18.0633631 22.5015094 18.4465289 22.5635267 18.8035852 22.6986035 19.1185637 22.8919161 20.1898841 23.3602227 21.1631994 23.9822114 22.0150489 24.7320162 23.3554103 22.2375575 23.9840807 19.2401532 24.2754471 16.468129 23.9171042 16.9043681 23.3628269 17.1855638 22.7391513 17.1855638zM2.93745634 17.1855057L2.48610322 17.1855057C1.85993024 17.1855057 1.30444199 16.9030999.947309974 16.4656507 1.23746555 19.2375236 1.86984426 22.2362893 3.21020561 24.7319581 4.06205516 23.9821533 5.03537046 23.3601647 6.10547996 22.891858 6.42038276 22.6985454 6.77751478 22.5634686 7.16068058 22.5014513 7.28464376 22.4754342 7.41110437 22.4606106 7.53885153 22.4606106 7.55739303 22.4606106 7.57601021 22.4618207 7.59462739 22.4618207L7.6379918 22.4606106 7.70125995 22.4606106C5.51404391 21.3229704 3.80663652 19.4482313 2.93745634 17.1855057z"/>
        <g transform="translate(.53 13.45)">
          <path d="M1.77688126.332019705C1.77688126.22053974 1.78180044.11026987 1.78550874 0 .786159656.0816813853 0 .883520317 0 1.86354568 0 2.89711773.875385901 3.73465445 1.95540943 3.73465445L2.40676255 3.73465445C2.00006039 2.67400653 1.77688126 1.52774443 1.77688126.332019705zM22.3770983 0C22.3808823.11026987 22.3858014.22053974 22.3858014.332019705 22.3858014 1.52774443 22.1638332 2.67400653 21.757131 3.73465445L22.2084842 3.73465445C23.2872211 3.73465445 24.162607 2.89711773 24.162607 1.86354568 24.162607.883520317 23.3777339.0816813853 22.3770983 0z"/>
        </g>
        <g transform="translate(6.572 14.549)">
          <path d="M12.0807571 1.10527015C12.0807571.494323643 11.5636384 0 10.9263405 0 10.2890426 0 9.77192396.494323643 9.77192396 1.10527015M2.31004403 1.10527015C2.31004403.494323643 1.79292534 0 1.15441658 0 .517043008 0 0 .494323643 0 1.10527015"/>
        </g>
        <path d="M10.6584771 19.2611435C10.6584771 20.2945642 11.5326522 21.1334623 12.6126 21.1334623 13.691337 21.1334623 14.5667229 20.2945642 14.5667229 19.2611435M12.6125837 0C6.328604 0 1.18534289 4.66415836.743903801 10.5748654.722864873 10.8474392.709242546 11.1225845.709242546 11.4001499.709242546 12.2910821.7253623 13.3071078.78363559 14.3951341 1.09233267 13.8722219 1.65652406 13.505412 2.31372569 13.4509577 2.34467864 12.5934545 2.48975643 11.7631783 2.73405017 10.9751042L2.73155274 10.9738941C3.64909218 11.1423998 4.5815405 11.2774766 5.36020787 11.2774766 9.99634 11.2774766 13.9777679 9.56746167 15.7273289 7.1226168 16.586595 8.96528834 18.4911477 10.6058741 21.6814968 11.717346 21.9740742 11.8189939 22.3498234 11.9144401 22.7465358 12.0035334 22.8358377 12.4744114 22.8904027 12.9576929 22.9090199 13.4509577 23.5661459 13.5042019 24.1303372 13.8710118 24.4403209 14.393924 24.4787661 13.6826909 24.499805 12.999895 24.5085082 12.3653516 24.513503 12.0309117 24.5159248 11.707514 24.5159248 11.4001499 24.5159248 5.10402775 19.1867189 0 12.6125837 0zM2.14714139 34.3947716C2.45962245 34.3947716 2.75348632 34.466621 3.01382414 34.5905044 2.50427341 32.7900349 2.71254366 30.9375314 3.49249759 29.3389964L.785665436 28.7368231C-.086012165 30.8000344-.264540335 33.1382396.412489342 35.407167.737306173 34.8062038 1.39201037 34.3947716 2.14714139 34.3947716z"/>
        <ellipse cx="2.148" cy="36.266" rx="1.954" ry="1.872"/>
        <path d="M24.5680971,28.0799716 C23.4372169,25.7579514 21.5203284,23.9425069 19.1185607,22.8918423 C18.8035822,22.6985297 18.4465258,22.5634529 18.06336,22.5014355 C17.9393969,22.4754185 17.8129363,22.4605948 17.6851891,22.4605948 C17.6665719,22.4605948 17.6479547,22.4618049 17.6306241,22.4618049 L17.5872597,22.4605948 L17.5239916,22.4605948 C16.0633753,23.2200805 14.3907049,23.6513279 12.6126127,23.6513279 C10.8345206,23.6513279 9.16063927,23.2200805 7.70123391,22.4605948 L7.63796577,22.4605948 L7.59460136,22.4618049 C7.57598418,22.4618049 7.557367,22.4605948 7.5388255,22.4605948 C7.41107834,22.4605948 7.28461773,22.4754185 7.16065455,22.5014355 C6.77748875,22.5634529 6.42035673,22.6985297 6.10545393,22.8918423 C3.70368623,23.9425069 1.78672203,25.7579514 0.655917491,28.0799716 C0.564193819,28.2684439 0.481097621,28.459185 0.40049885,28.6512875 L3.88350095,29.4257481 C4.13521129,28.9238613 4.4426975,28.459185 4.79483466,28.0329292 L4.79483466,37.3796999 L20.4291799,37.3796999 L20.4291799,28.0329292 C20.782528,28.459185 21.0888033,28.9238613 21.3417245,29.4257481 L24.8235157,28.6512875 C24.7441278,28.459185 24.6598208,28.2684439 24.5680971,28.0799716 Z"/>
        <path d="M25.6517587,33.8470114 C25.9307894,33.7131447 26.4081006,33.6412953 26.6995427,33.6412953 C25.4050432,32.2472664 24.5481988,30.5112344 24.502337,28.7479753 L21.7992888,29.3625521 C21.9803144,31.5818656 22.9077679,33.7515652 24.5693134,35.4937989 C24.5804383,34.8172048 24.9748047,34.1691991 25.6517587,33.8470114 Z"/>
        <ellipse cx="26.523" cy="35.522" rx="1.954" ry="1.872"/>
      </g>
    </g>
    <line x1="51" x2="163" y1="165.938" y2="165.938" stroke="#222F3C" stroke-linecap="round" stroke-linejoin="round" stroke-width=".5"/>
    <path fill="#333838" fill-rule="nonzero" d="M285.848076,74.5223394 C286.080613,74.5223394 286.258435,74.345094 286.258435,74.1678485 C286.258435,73.990603 286.121649,73.8951632 285.984862,73.8815289 C285.615539,73.786089 285.478753,73.6224778 285.478753,73.3361582 C285.478753,72.8998616 285.779683,72.6271763 286.190042,72.409028 C286.272114,72.3817595 286.340507,72.3408567 286.340507,72.3135881 C286.340507,72.2454168 286.285792,72.2454168 286.217399,72.2454168 C285.998541,72.2454168 285,72.6271763 285,73.581575 C285,74.0724086 285.328287,74.5223394 285.848076,74.5223394 Z M287.557906,74.5223394 C287.776765,74.5223394 287.981944,74.345094 287.981944,74.1678485 C287.981944,73.990603 287.831479,73.8951632 287.708371,73.8815289 C287.339048,73.786089 287.188583,73.6224778 287.188583,73.3361582 C287.188583,72.9134959 287.503192,72.6271763 287.913551,72.409028 C287.995623,72.3817595 288.050337,72.3408567 288.050337,72.3135881 C288.050337,72.2726853 287.995623,72.2454168 287.92723,72.2454168 C287.735729,72.2454168 286.696152,72.6271763 286.696152,73.581575 C286.696152,74.0724086 287.038118,74.5223394 287.557906,74.5223394 Z M297.023527,81.693964 C297.09192,81.693964 297.132956,81.6121584 297.228707,81.3803759 C297.857924,79.8806065 298.965895,77.30373 299.827649,75.4222011 C300.689404,73.4861351 300.935619,73.1998155 301.510122,73.0498386 C301.756338,73.0089358 301.824731,72.9543987 301.824731,72.8998616 C301.824731,72.8453246 301.756338,72.8316903 301.578515,72.8316903 C301.3323,72.8316903 300.962976,72.8862274 300.579974,72.8862274 C300.169615,72.8862274 299.978114,72.8316903 299.622469,72.8316903 C299.430968,72.8316903 299.389933,72.8589588 299.389933,72.9134959 C299.389933,72.968033 299.472004,72.9953015 299.690863,73.0634728 C300.142258,73.1998155 300.155937,73.4315981 300.087543,73.7315519 C299.800292,74.7404877 298.145176,78.5580826 297.488601,79.9760464 C297.447565,80.057852 297.420208,80.0714862 297.365493,79.9760464 C296.900419,78.9534763 296.298559,77.6582209 295.956593,76.8537991 C295.929236,76.7856278 295.929236,76.7174565 295.942914,76.6901879 C296.175451,76.2675257 296.845705,74.9177332 297.20135,74.2360198 C297.652745,73.4452323 297.912639,73.1589127 298.418749,73.0498386 C298.61025,73.0089358 298.678643,72.968033 298.678643,72.8998616 C298.678643,72.8453246 298.61025,72.8316903 298.446106,72.8316903 C298.131497,72.8316903 297.912639,72.8862274 297.433887,72.8862274 C297.078242,72.8862274 296.859384,72.8453246 296.517417,72.8453246 C296.353274,72.8453246 296.271202,72.8725931 296.271202,72.9134959 C296.271202,72.968033 296.312238,73.02257 296.558453,73.0771071 C297.146635,73.2134498 297.160314,73.3497925 296.736276,74.345094 C296.449024,75.0131731 296.161773,75.6403494 295.833485,76.3084285 C295.792449,76.3765998 295.737735,76.3629655 295.724056,76.335697 C295.272661,75.2994927 294.862302,74.3723625 294.643443,73.7997233 C294.438264,73.2952554 294.57505,73.1316442 294.944374,73.0634728 C295.122196,73.02257 295.204268,72.9816672 295.204268,72.9134959 C295.204268,72.8589588 295.108517,72.8316903 294.971731,72.8316903 C294.657122,72.8316903 294.342513,72.8862274 293.850082,72.8862274 C293.357651,72.8862274 293.097757,72.8316903 292.701076,72.8316903 C292.523254,72.8316903 292.441182,72.8725931 292.441182,72.9134959 C292.441182,72.9816672 292.509575,73.0362043 292.728433,73.0771071 C293.152471,73.1861813 293.2619,73.3497925 293.658581,74.195117 C293.959511,74.8495619 294.87598,76.9219705 295.094839,77.4400726 C295.094839,77.4673412 295.094839,77.562781 295.067481,77.6036838 C294.698158,78.476277 294.369871,79.1579903 293.986869,79.9351435 C293.945833,80.0033149 293.891118,80.0305834 293.850082,79.9351435 C292.919934,77.8900035 291.565749,74.9859045 290.991246,73.5679407 C290.895495,73.3225239 290.895495,73.1589127 291.278497,73.0907414 C291.442641,73.0634728 291.524713,73.02257 291.524713,72.9543987 C291.524713,72.8998616 291.442641,72.8589588 291.25114,72.8589588 C290.963888,72.8589588 290.635601,72.8862274 290.334671,72.8862274 C289.924312,72.8862274 289.363487,72.8316903 289.0352,72.8316903 C288.857377,72.8316903 288.761627,72.8862274 288.761627,72.9271302 C288.761627,72.9816672 288.884735,73.0362043 289.048878,73.0498386 C289.568667,73.1180099 289.678096,73.3634267 290.170527,74.4268996 C290.813423,75.7630578 291.729892,77.7809293 292.482218,79.5124813 C292.66004,79.9215093 293.084078,80.9168108 293.2619,81.3667416 C293.357651,81.6121584 293.385008,81.693964 293.46708,81.693964 C293.521795,81.693964 293.603866,81.5848899 293.685938,81.3667416 C293.986869,80.5759541 294.711837,78.9807448 295.231625,77.9718091 C295.258982,77.9309063 295.300018,77.9309063 295.327376,77.9854433 C295.724056,78.8580364 296.503739,80.5486856 296.79099,81.3803759 C296.873062,81.5985242 296.927777,81.693964 297.023527,81.693964 Z M302.64545,81.5848899 C303.425132,81.5848899 303.999635,81.3122045 304.546781,80.7259311 C304.628853,80.6304912 304.683567,80.5486856 304.683567,80.5077828 C304.683567,80.4396114 304.628853,80.4123429 304.519424,80.521417 C304.191136,80.8350052 303.780777,80.9577136 303.219953,80.9577136 C302.768557,80.9577136 302.221412,80.8077367 301.852088,80.3987086 C301.496444,80.0033149 301.222871,79.4443099 301.222871,78.7489623 C301.222871,78.3672028 301.263907,78.1626888 301.3323,77.9990776 C301.359657,77.9581748 301.42805,77.8900035 301.455408,77.8900035 L302.194054,77.8900035 C302.508663,77.8900035 304.286887,77.917272 304.396316,77.9309063 C304.464709,77.9309063 304.533102,77.8491007 304.533102,77.7809293 C304.533102,76.949239 303.671348,76.3902341 302.864308,76.3902341 C302.153018,76.3902341 301.523801,76.7174565 301.154477,77.0719474 C300.579974,77.6309524 300.361116,78.4353741 300.361116,79.0625504 C300.361116,79.7988009 300.607332,80.4532457 301.017691,80.8895423 C301.42805,81.3258388 302.002553,81.5848899 302.64545,81.5848899 Z M301.510122,77.6991237 C301.482765,77.6991237 301.455408,77.6718552 301.455408,77.6445866 C301.455408,77.5355125 301.578515,77.2764614 301.742659,77.0855817 C302.043589,76.7719935 302.385555,76.5811138 302.7412,76.5811138 C303.055809,76.5811138 303.288346,76.7038222 303.425132,76.8401649 C303.575597,77.0037761 303.616633,77.2491929 303.616633,77.4128041 C303.616633,77.5355125 303.589276,77.6854895 303.288346,77.6854895 L301.510122,77.6991237 Z M314.149188,81.4758158 C314.354368,81.4758158 314.655298,81.4349129 314.983586,81.4349129 C315.298194,81.4349129 315.776947,81.4621815 315.927412,81.4621815 C316.091556,81.4621815 316.159949,81.4349129 316.159949,81.3667416 C316.159949,81.3258388 316.105234,81.284936 315.913733,81.2440332 C315.612803,81.1894961 315.530731,81.0940563 315.517053,80.6441254 L315.462338,78.680791 C315.462338,78.1763231 315.393945,77.6582209 315.298194,77.3855356 C315.120372,76.8537991 314.668977,76.3902341 313.916651,76.3902341 C313.232719,76.3902341 312.603502,76.7583593 312.042677,77.30373 C312.01532,77.3173642 311.960606,77.30373 311.946927,77.2764614 C311.645997,76.6901879 311.20828,76.4038683 310.579063,76.4038683 C309.990881,76.4038683 309.334306,76.7992621 308.882911,77.2082901 C308.828196,77.2491929 308.814518,77.1673873 308.814518,77.1264845 C308.800839,76.9765076 308.814518,76.6220166 308.814518,76.4720397 C308.814518,76.3902341 308.78716,76.335697 308.746124,76.335697 C308.69141,76.335697 308.623017,76.3629655 308.540945,76.4175026 C308.322086,76.5947481 307.898049,76.7583593 307.610797,76.8265306 C307.501368,76.8537991 307.446653,76.8810677 307.446653,76.9219705 L307.460332,76.9219705 C307.460332,76.9901418 307.487689,77.0174104 307.58344,77.0719474 C307.802298,77.1946558 307.88437,77.3173642 307.898049,77.5491468 C307.925406,77.8081979 307.911727,78.1490545 307.911727,78.6535224 C307.911727,79.4443099 307.911727,80.5486856 307.857013,80.8350052 C307.829655,80.9986164 307.829655,81.1485933 307.405617,81.2440332 C307.214116,81.2713017 307.132045,81.3122045 307.132045,81.3667416 C307.132045,81.4212787 307.255152,81.4621815 307.37826,81.4621815 C307.556082,81.4621815 307.843334,81.4349129 308.267372,81.4349129 C308.595659,81.4349129 309.047055,81.4621815 309.306949,81.4621815 C309.402699,81.4621815 309.512128,81.4349129 309.512128,81.3667416 C309.512128,81.3258388 309.457414,81.284936 309.306949,81.2576675 C308.978661,81.1894961 308.896589,81.0258849 308.869232,80.8077367 C308.841875,80.5623198 308.78716,79.6079211 308.78716,78.5989854 C308.78716,78.1354203 308.828196,77.8218321 308.841875,77.6718552 C308.855554,77.5764153 308.882911,77.4400726 309.006019,77.3309985 C309.211198,77.1401188 309.553164,76.9083362 310.031917,76.9083362 C310.455955,76.9083362 310.674813,77.0310446 310.866314,77.2219244 C311.139887,77.5218782 311.20828,77.8354664 311.20828,78.5853511 L311.194601,80.7941024 C311.194601,81.1213248 311.057815,81.1894961 310.770564,81.2440332 C310.592741,81.284936 310.524348,81.3394731 310.524348,81.3803759 C310.524348,81.4349129 310.592741,81.4621815 310.743206,81.4621815 C310.893671,81.4621815 311.221959,81.4349129 311.522889,81.4349129 C311.91957,81.4349129 312.329929,81.4621815 312.576144,81.4621815 C312.72661,81.4621815 312.808681,81.4349129 312.808681,81.3803759 C312.808681,81.3258388 312.740288,81.3122045 312.589823,81.2576675 C312.247857,81.1758619 312.206821,81.080422 312.165785,80.6986625 C312.138428,80.3305373 312.097392,78.2444944 312.070035,77.8627349 C312.070035,77.6173181 312.111071,77.4673412 312.165785,77.4128041 C312.398322,77.1810216 312.82236,76.9083362 313.32847,76.9083362 C313.998723,76.9083362 314.354368,77.2491929 314.477476,77.9445405 C314.53219,78.3535685 314.600584,79.0080134 314.573226,80.6441254 C314.573226,81.0531535 314.504833,81.1758619 314.108152,81.2576675 C313.998723,81.284936 313.875616,81.3258388 313.875616,81.3940101 C313.875616,81.4485472 313.971366,81.4758158 314.149188,81.4758158 Z M317.869779,75.0813444 C318.047602,75.0813444 318.375889,74.9313675 318.375889,74.5632422 C318.375889,74.3314597 318.211745,74.0451401 317.897137,74.0451401 C317.678278,74.0451401 317.418384,74.2360198 317.418384,74.5768765 C317.418384,74.8495619 317.623564,75.0813444 317.869779,75.0813444 Z M318.622105,81.48945 C318.731534,81.48945 318.840963,81.4621815 318.840963,81.3940101 C318.840963,81.3394731 318.77257,81.3122045 318.635783,81.284936 C318.416925,81.2303989 318.280139,81.1622276 318.252781,80.8895423 C318.225424,80.6577597 318.225424,79.6488239 318.225424,78.5035455 C318.225424,77.6309524 318.225424,76.7992621 318.252781,76.5265767 C318.26646,76.3765998 318.239103,76.335697 318.198067,76.335697 C318.170709,76.335697 318.102316,76.3629655 317.992887,76.4311369 C317.705636,76.5538453 317.377348,76.6901879 317.008025,76.7856278 C316.884917,76.8128963 316.843881,76.8537991 316.843881,76.8947019 C316.843881,76.9219705 316.884917,76.9628733 316.95331,77.0037761 C317.336312,77.2082901 317.349991,77.2900957 317.349991,77.4809754 C317.349991,77.6173181 317.322634,80.0987548 317.308955,80.5077828 C317.295276,81.0667877 317.172169,81.1758619 316.871238,81.2576675 C316.679737,81.284936 316.611344,81.3258388 316.611344,81.3803759 C316.611344,81.4349129 316.707095,81.4621815 316.802845,81.4621815 C316.95331,81.4621815 317.172169,81.4349129 317.623564,81.4349129 C317.992887,81.4349129 318.498997,81.48945 318.622105,81.48945 Z M320.78333,81.5985242 C321.111618,81.5985242 321.576692,81.48945 321.877622,81.2985703 C322.151195,81.1213248 322.588911,80.7531996 322.588911,80.1532918 C322.588911,79.4579442 322.233266,79.1170875 321.344155,78.5444483 C321.002189,78.3399343 320.4824,78.0127119 320.4824,77.4400726 C320.4824,76.8947019 320.865402,76.5947481 321.303119,76.5947481 C321.563013,76.5947481 321.79555,76.6901879 321.946015,76.7992621 C322.151195,76.9628733 322.205909,77.153753 322.274302,77.358267 C322.315338,77.4537069 322.342696,77.5218782 322.39741,77.5218782 C322.438446,77.5218782 322.465803,77.4537069 322.465803,77.30373 C322.452125,77.0855817 322.39741,76.8128963 322.383732,76.6629194 C322.383732,76.6220166 322.342696,76.5674795 322.315338,76.540211 C322.151195,76.4856739 321.754514,76.3902341 321.385191,76.3902341 C320.865402,76.3902341 320.4824,76.5674795 320.236185,76.7719935 C319.935254,76.9901418 319.716396,77.358267 319.716396,77.8491007 C319.716396,78.4490084 320.263542,78.9534763 320.851724,79.3352358 C321.398869,79.6760925 321.754514,79.9624121 321.754514,80.4805142 C321.754514,81.0395192 321.248404,81.3940101 320.865402,81.3940101 C320.660223,81.3940101 320.455043,81.3667416 320.249863,81.2303989 C320.003648,81.080422 319.784789,80.8350052 319.67536,80.4941485 C319.57961,80.2350974 319.538574,80.2350974 319.497538,80.2350974 C319.470181,80.2350974 319.429145,80.2760002 319.456502,80.4532457 C319.470181,80.6032226 319.497538,80.9440793 319.497538,81.1349591 C319.497538,81.2167647 319.593288,81.3122045 319.702717,81.3531073 C320.113077,81.5167186 320.427686,81.5985242 320.78333,81.5985242 Z M324.668065,81.5985242 C324.996352,81.5985242 325.461426,81.48945 325.762356,81.2985703 C326.035929,81.1213248 326.473646,80.7531996 326.473646,80.1532918 C326.473646,79.4579442 326.118001,79.1170875 325.228889,78.5444483 C324.886923,78.3399343 324.367135,78.0127119 324.367135,77.4400726 C324.367135,76.8947019 324.750137,76.5947481 325.187853,76.5947481 C325.447748,76.5947481 325.680285,76.6901879 325.83075,76.7992621 C326.035929,76.9628733 326.090644,77.153753 326.159037,77.358267 C326.200073,77.4537069 326.22743,77.5218782 326.282145,77.5218782 C326.323181,77.5218782 326.350538,77.4537069 326.350538,77.30373 C326.336859,77.0855817 326.282145,76.8128963 326.268466,76.6629194 C326.268466,76.6220166 326.22743,76.5674795 326.200073,76.540211 C326.035929,76.4856739 325.639249,76.3902341 325.269925,76.3902341 C324.750137,76.3902341 324.367135,76.5674795 324.120919,76.7719935 C323.819989,76.9901418 323.601131,77.358267 323.601131,77.8491007 C323.601131,78.4490084 324.148276,78.9534763 324.736458,79.3352358 C325.283604,79.6760925 325.639249,79.9624121 325.639249,80.4805142 C325.639249,81.0395192 325.133139,81.3940101 324.750137,81.3940101 C324.544957,81.3940101 324.339777,81.3667416 324.134598,81.2303989 C323.888382,81.080422 323.669524,80.8350052 323.560095,80.4941485 C323.464344,80.2350974 323.423308,80.2350974 323.382272,80.2350974 C323.354915,80.2350974 323.313879,80.2760002 323.341237,80.4532457 C323.354915,80.6032226 323.382272,80.9440793 323.382272,81.1349591 C323.382272,81.2167647 323.478023,81.3122045 323.587452,81.3531073 C323.997811,81.5167186 324.31242,81.5985242 324.668065,81.5985242 Z M331.151742,81.5576214 C331.534744,81.5576214 331.958782,81.4349129 332.259712,81.2031304 C332.437534,81.0667877 332.560642,80.9304451 332.560642,80.8486395 C332.560642,80.7941024 332.519606,80.7804681 332.423856,80.8486395 C332.300748,80.9304451 332.054532,81.0531535 331.67153,81.0531535 C331.315885,81.0531535 331.028634,80.9440793 330.823454,80.6850282 C330.727704,80.5486856 330.700347,80.3850744 330.672989,79.9487778 C330.659311,79.5261155 330.645632,77.3855356 330.645632,77.153753 C330.645632,77.0719474 330.672989,77.0310446 330.837133,77.0310446 C331.206456,77.0310446 331.87671,77.0446789 332.355462,77.0446789 C332.423856,77.0446789 332.492249,76.9356048 332.492249,76.7038222 C332.492249,76.6083823 332.437534,76.5129425 332.410177,76.5129425 C332.122925,76.5129425 330.987598,76.5538453 330.741382,76.5538453 C330.686668,76.5538453 330.672989,76.4720397 330.672989,76.4311369 C330.659311,76.2675257 330.686668,75.8857662 330.686668,75.7630578 C330.686668,75.6948864 330.590917,75.6676179 330.46781,75.8039606 C330.139522,76.2266229 329.688127,76.5947481 329.346161,76.7174565 C329.195696,76.7856278 329.182017,76.8265306 329.182017,76.8537991 C329.182017,76.9083362 329.25041,76.949239 329.35984,76.9765076 C329.482947,77.0037761 329.633412,77.0310446 329.688127,77.0583132 C329.742842,77.0855817 329.75652,77.1810216 329.75652,77.3309985 L329.75652,80.1532918 C329.75652,80.4805142 329.811235,80.7531996 329.920664,80.9304451 C330.153201,81.3667416 330.577239,81.5576214 331.151742,81.5576214 Z M338.2236,81.5030843 C338.346708,81.5030843 338.442459,81.4621815 338.442459,81.4076444 C338.442459,81.3531073 338.401423,81.3258388 338.2236,81.284936 C337.813241,81.2167647 337.758526,81.1213248 337.758526,80.8486395 C337.744848,80.3305373 337.744848,79.4852127 337.731169,78.4626427 C337.71749,77.6036838 337.567025,77.1810216 337.430239,77.0037761 C337.101951,76.540211 336.623199,76.3902341 336.199161,76.3902341 C335.829838,76.3902341 335.474193,76.4993082 335.241656,76.6220166 C334.968083,76.7583593 334.585081,77.0310446 334.420937,77.1810216 C334.407259,77.2082901 334.366223,77.1946558 334.366223,77.1401188 C334.352544,76.8810677 334.407259,72.6544448 334.420937,72.2863196 C334.434616,72.0954399 334.39358,72 334.352544,72 C334.325187,72 334.284151,72.0136343 334.215758,72.0545371 C333.955864,72.1908797 333.641255,72.2590511 333.217217,72.3817595 C333.066752,72.4226623 332.98468,72.4635651 332.98468,72.5044679 C332.98468,72.5453707 333.025716,72.5726392 333.08043,72.613542 C333.381361,72.7771532 333.477111,72.818056 333.49079,73.2543526 C333.518147,73.7724547 333.49079,74.604145 333.49079,76.6629194 C333.49079,78.8307679 333.477111,80.0851205 333.436075,80.6304912 C333.422396,81.1485933 333.326646,81.1894961 332.929965,81.284936 C332.765822,81.3258388 332.711107,81.3531073 332.711107,81.4076444 C332.711107,81.4621815 332.7795,81.48945 332.929965,81.48945 C333.18986,81.48945 333.395039,81.4349129 333.819077,81.4349129 C334.215758,81.4349129 334.571403,81.48945 334.954405,81.48945 C335.077512,81.48945 335.159584,81.4485472 335.159584,81.4076444 C335.159584,81.3394731 335.063834,81.3122045 334.858654,81.2713017 C334.557724,81.2167647 334.461973,81.0531535 334.420937,80.8077367 C334.39358,80.5759541 334.338866,79.9215093 334.352544,77.8763692 C334.352544,77.5900496 334.420937,77.4264384 334.489331,77.3719013 C334.708189,77.1401188 335.118548,76.8674334 335.693051,76.8674334 C336.158125,76.8674334 336.459055,77.0719474 336.636878,77.3719013 C336.801021,77.6718552 336.842057,78.0536147 336.842057,78.3944713 C336.842057,79.8124351 336.8147,80.4123429 336.787343,80.7259311 C336.732628,81.1213248 336.705271,81.2167647 336.335947,81.2985703 C336.199161,81.3258388 336.130768,81.3531073 336.130768,81.4076444 C336.130768,81.4485472 336.185482,81.48945 336.349626,81.48945 C336.664235,81.48945 336.773664,81.4349129 337.238738,81.4349129 C337.608061,81.4349129 337.867955,81.5030843 338.2236,81.5030843 Z M341.342331,81.5848899 C342.122013,81.5848899 342.696517,81.3122045 343.243662,80.7259311 C343.325734,80.6304912 343.380449,80.5486856 343.380449,80.5077828 C343.380449,80.4396114 343.325734,80.4123429 343.216305,80.521417 C342.888018,80.8350052 342.477658,80.9577136 341.916834,80.9577136 C341.465439,80.9577136 340.918293,80.8077367 340.54897,80.3987086 C340.193325,80.0033149 339.919752,79.4443099 339.919752,78.7489623 C339.919752,78.3672028 339.960788,78.1626888 340.029181,77.9990776 C340.056538,77.9581748 340.124932,77.8900035 340.152289,77.8900035 L340.890936,77.8900035 C341.205544,77.8900035 342.983768,77.917272 343.093197,77.9309063 C343.16159,77.9309063 343.229984,77.8491007 343.229984,77.7809293 C343.229984,76.949239 342.368229,76.3902341 341.561189,76.3902341 C340.8499,76.3902341 340.220682,76.7174565 339.851359,77.0719474 C339.276856,77.6309524 339.057997,78.4353741 339.057997,79.0625504 C339.057997,79.7988009 339.304213,80.4532457 339.714572,80.8895423 C340.124932,81.3258388 340.699435,81.5848899 341.342331,81.5848899 Z M340.207003,77.6991237 C340.179646,77.6991237 340.152289,77.6718552 340.152289,77.6445866 C340.152289,77.5355125 340.275397,77.2764614 340.43954,77.0855817 C340.740471,76.7719935 341.082437,76.5811138 341.438081,76.5811138 C341.75269,76.5811138 341.985227,76.7038222 342.122013,76.8401649 C342.272479,77.0037761 342.313514,77.2491929 342.313514,77.4128041 C342.313514,77.5355125 342.286157,77.6854895 341.985227,77.6854895 L340.207003,77.6991237 Z M350.739559,81.4758158 C350.944738,81.4758158 351.245668,81.4349129 351.573956,81.4349129 C351.888565,81.4349129 352.367317,81.4621815 352.517782,81.4621815 C352.681926,81.4621815 352.750319,81.4349129 352.750319,81.3667416 C352.750319,81.3258388 352.695605,81.284936 352.504104,81.2440332 C352.203173,81.1894961 352.121102,81.0940563 352.107423,80.6441254 L352.052708,78.680791 C352.052708,78.1763231 351.984315,77.6582209 351.888565,77.3855356 C351.710742,76.8537991 351.259347,76.3902341 350.507022,76.3902341 C349.82309,76.3902341 349.193872,76.7583593 348.633048,77.30373 C348.60569,77.3173642 348.550976,77.30373 348.537297,77.2764614 C348.236367,76.6901879 347.79865,76.4038683 347.169433,76.4038683 C346.581251,76.4038683 345.924676,76.7992621 345.473281,77.2082901 C345.418566,77.2491929 345.404888,77.1673873 345.404888,77.1264845 C345.391209,76.9765076 345.404888,76.6220166 345.404888,76.4720397 C345.404888,76.3902341 345.377531,76.335697 345.336495,76.335697 C345.28178,76.335697 345.213387,76.3629655 345.131315,76.4175026 C344.912457,76.5947481 344.488419,76.7583593 344.201167,76.8265306 C344.091738,76.8537991 344.037024,76.8810677 344.037024,76.9219705 L344.050702,76.9219705 C344.050702,76.9901418 344.078059,77.0174104 344.17381,77.0719474 C344.392668,77.1946558 344.47474,77.3173642 344.488419,77.5491468 C344.515776,77.8081979 344.502097,78.1490545 344.502097,78.6535224 C344.502097,79.4443099 344.502097,80.5486856 344.447383,80.8350052 C344.420026,80.9986164 344.420026,81.1485933 343.995988,81.2440332 C343.804487,81.2713017 343.722415,81.3122045 343.722415,81.3667416 C343.722415,81.4212787 343.845523,81.4621815 343.96863,81.4621815 C344.146453,81.4621815 344.433704,81.4349129 344.857742,81.4349129 C345.18603,81.4349129 345.637425,81.4621815 345.897319,81.4621815 C345.993069,81.4621815 346.102499,81.4349129 346.102499,81.3667416 C346.102499,81.3258388 346.047784,81.284936 345.897319,81.2576675 C345.569032,81.1894961 345.48696,81.0258849 345.459602,80.8077367 C345.432245,80.5623198 345.377531,79.6079211 345.377531,78.5989854 C345.377531,78.1354203 345.418566,77.8218321 345.432245,77.6718552 C345.445924,77.5764153 345.473281,77.4400726 345.596389,77.3309985 C345.801568,77.1401188 346.143535,76.9083362 346.622287,76.9083362 C347.046325,76.9083362 347.265183,77.0310446 347.456684,77.2219244 C347.730257,77.5218782 347.79865,77.8354664 347.79865,78.5853511 L347.784972,80.7941024 C347.784972,81.1213248 347.648185,81.1894961 347.360934,81.2440332 C347.183111,81.284936 347.114718,81.3394731 347.114718,81.3803759 C347.114718,81.4349129 347.183111,81.4621815 347.333577,81.4621815 C347.484042,81.4621815 347.812329,81.4349129 348.113259,81.4349129 C348.50994,81.4349129 348.920299,81.4621815 349.166515,81.4621815 C349.31698,81.4621815 349.399052,81.4349129 349.399052,81.3803759 C349.399052,81.3258388 349.330658,81.3122045 349.180193,81.2576675 C348.838227,81.1758619 348.797191,81.080422 348.756155,80.6986625 C348.728798,80.3305373 348.687762,78.2444944 348.660405,77.8627349 C348.660405,77.6173181 348.701441,77.4673412 348.756155,77.4128041 C348.988692,77.1810216 349.41273,76.9083362 349.91884,76.9083362 C350.589094,76.9083362 350.944738,77.2491929 351.067846,77.9445405 C351.122561,78.3535685 351.190954,79.0080134 351.163597,80.6441254 C351.163597,81.0531535 351.095203,81.1758619 350.698523,81.2576675 C350.589094,81.284936 350.465986,81.3258388 350.465986,81.3940101 C350.465986,81.4485472 350.561736,81.4758158 350.739559,81.4758158 Z M294.506657,96.458636 C294.944374,96.458636 295.368411,96.254122 295.559912,95.8723625 C295.614627,95.7496541 295.559912,95.7087513 295.477841,95.7496541 C295.327376,95.8314597 295.190589,95.8723625 295.08116,95.8723625 C294.698158,95.8723625 294.57505,95.6133114 294.57505,95.3542603 C294.57505,94.9997694 294.616086,93.704514 294.616086,93.2000461 C294.616086,92.7773838 294.561372,92.2183789 294.424585,91.9593278 C294.260441,91.5366655 293.836403,91.2639802 293.37133,91.2639802 C293.138793,91.2639802 292.86522,91.3457858 292.550611,91.509397 C292.277038,91.6457397 291.825643,91.9320593 291.511034,92.3001845 C291.34689,92.4910642 291.25114,92.6137726 291.25114,92.7092125 C291.25114,92.7637496 291.319533,92.8455552 291.387926,92.8319209 C291.483677,92.8182866 291.894036,92.6274069 292.030823,92.531967 C292.05818,92.5046985 292.085537,92.4637957 292.085537,92.4228929 C292.085537,92.327453 292.085537,92.2183789 292.099216,92.1638418 C292.126573,92.0138649 292.208645,91.918425 292.304395,91.8366194 C292.509575,91.713911 292.646361,91.6730082 292.851541,91.6730082 C293.015685,91.6730082 293.248222,91.7548138 293.426044,91.8911565 C293.658581,92.0684019 293.754332,92.4501614 293.754332,93.0091664 C293.754332,93.2000461 293.754332,93.4727315 293.726974,93.6363427 C293.726974,93.6908797 293.658581,93.8135881 293.549152,93.8408567 C293.2619,93.9499308 292.017144,94.318056 291.688856,94.4953015 C291.565749,94.5634728 291.196425,94.8361582 291.196425,95.2724547 C291.196425,95.9814366 291.743571,96.4450017 292.290717,96.4450017 C292.810505,96.4450017 293.220864,96.2132192 293.631224,95.8314597 C293.644902,95.8178254 293.685938,95.8178254 293.699617,95.845094 C293.822725,96.1586821 294.123655,96.458636 294.506657,96.458636 Z M292.892577,95.9268996 C292.468539,95.9268996 292.071858,95.6133114 292.071858,95.1633806 C292.071858,94.7679869 292.249681,94.5634728 292.413825,94.4816672 C292.701076,94.3316903 293.494437,94.0453707 293.67226,94.0181022 C293.699617,94.0044679 293.726974,94.0726392 293.726974,94.0862735 C293.726974,94.6043756 293.699617,95.1497463 293.658581,95.3815289 C293.644902,95.5315058 293.562831,95.6542142 293.508116,95.7087513 C293.357651,95.845094 293.125114,95.9268996 292.892577,95.9268996 Z M296.038665,96.3904647 C296.230166,96.3904647 296.380631,96.3086591 296.873062,96.3086591 C297.447565,96.3086591 297.89896,96.3631961 298.158855,96.3631961 C298.364034,96.3631961 298.487142,96.3359276 298.487142,96.2677563 C298.487142,96.1995849 298.418749,96.1723164 298.227248,96.1450478 C297.707459,96.0905108 297.543316,95.9950709 297.488601,95.5724086 C297.461244,95.286089 297.433887,94.5771071 297.433887,93.5681713 C297.433887,93.295486 297.420208,92.9000922 297.447565,92.736481 C297.461244,92.5728698 297.529637,92.4228929 297.680102,92.2592817 C297.857924,92.0956705 298.076783,91.9865963 298.281962,91.9865963 C298.432428,91.9865963 298.61025,92.0547677 298.760715,92.1502075 C298.91118,92.2320131 298.979573,92.2456474 299.006931,92.2456474 C299.047966,92.2456474 299.102681,92.2320131 299.225789,92.122939 C299.389933,91.9729621 299.526719,91.7548138 299.526719,91.6593739 C299.526719,91.5912026 299.499362,91.5230312 299.430968,91.4684942 C299.294182,91.35942 299.11636,91.2912487 298.952216,91.2912487 C298.40507,91.2912487 297.857924,91.7957166 297.474922,92.2729159 C297.433887,92.3138187 297.406529,92.3001845 297.406529,92.2592817 C297.406529,92.0411334 297.420208,91.5230312 297.420208,91.3730543 C297.420208,91.2367116 297.392851,91.1821746 297.365493,91.1821746 C297.324457,91.1821746 297.256064,91.1958088 297.160314,91.2503459 C296.941455,91.3730543 296.558453,91.509397 296.284881,91.5775683 C296.161773,91.6184711 296.079701,91.6730082 296.079701,91.7002767 C296.079701,91.7275453 296.09338,91.7684481 296.18913,91.8366194 C296.449024,92.0547677 296.544775,92.0956705 296.544775,92.1911103 L296.543635,94.1422624 C296.539835,94.8482775 296.526537,95.4201593 296.503739,95.6133114 C296.449024,95.9814366 296.298559,96.104145 296.011308,96.1723164 C295.901879,96.1995849 295.806128,96.2677563 295.806128,96.3086591 C295.806128,96.3631961 295.874521,96.3904647 296.038665,96.3904647 Z M302.453949,96.4722703 C302.94638,96.4722703 303.575597,96.2813905 303.999635,95.9541681 C304.437352,95.6133114 305.052891,94.877061 305.052891,93.8408567 C305.052891,92.3956244 303.917563,91.2639802 302.426591,91.2639802 C301.770016,91.2639802 301.154477,91.5502998 300.785154,91.8366194 C300.279044,92.2456474 299.800292,92.9137265 299.800292,93.9499308 C299.800292,95.3678946 301.045048,96.4722703 302.453949,96.4722703 Z M302.64545,96.2404877 C302.221412,96.2404877 301.72898,96.0223394 301.359657,95.5178716 C300.921941,94.9452323 300.785154,94.2226162 300.785154,93.6499769 C300.785154,92.2320131 301.523801,91.4957627 302.221412,91.4957627 C303.425132,91.4957627 304.081707,92.7773838 304.081707,94.0726392 C304.081707,95.0543065 303.712384,95.7087513 303.507204,95.899631 C303.288346,96.0905108 302.973737,96.2404877 302.64545,96.2404877 Z M309.772023,96.4450017 C310.168703,96.254122 311.016779,96.0905108 311.180923,96.0768765 C311.317709,96.049608 311.440817,96.0223394 311.440817,95.9678024 C311.440817,95.899631 311.372424,95.8178254 311.276673,95.8178254 C311.194601,95.8178254 310.852635,95.899631 310.715849,95.9405338 C310.60642,95.9541681 310.565384,95.9268996 310.538027,95.7905569 C310.516141,95.6705753 310.511764,95.5069641 310.510888,95.278781 L310.510669,95.0952093 C310.510669,93.5136343 310.538027,92.1502075 310.60642,91.509397 C310.620098,91.4139571 310.592741,91.35942 310.551705,91.35942 C310.40124,91.35942 310.182382,91.4412256 309.607879,91.4412256 L309.033376,91.4412256 C308.951304,91.4412256 308.828196,91.4684942 308.828196,91.5230312 C308.828196,91.563934 308.896589,91.6048368 309.047055,91.6321054 C309.49845,91.7275453 309.635236,91.7957166 309.648915,92.2592817 C309.648915,92.6137726 309.662593,93.2545832 309.662593,93.4590972 L309.660843,94.054642 C309.658216,94.3491422 309.651651,94.6289173 309.635236,94.8497925 C309.621558,95.1497463 309.539486,95.3406261 309.389021,95.4769688 C309.033376,95.8041912 308.705088,95.9132653 308.226336,95.9132653 C307.939084,95.9132653 307.638154,95.7905569 307.460332,95.5724086 C307.37826,95.4633345 307.268831,95.2451862 307.255152,94.672547 C307.241474,94.0453707 307.255152,92.1911103 307.296188,91.4139571 C307.309867,91.3321515 307.268831,91.2503459 307.227795,91.2639802 C307.022615,91.3185172 306.530184,91.4412256 306.078789,91.4412256 C305.928324,91.4412256 305.859931,91.4684942 305.859931,91.509397 C305.859931,91.5502998 305.900967,91.5912026 306.024074,91.6730082 C306.174539,91.7684481 306.311326,91.8775222 306.325005,92.122939 C306.352362,92.3547215 306.352362,94.6589127 306.352362,95.1088435 C306.36604,95.3678946 306.420755,95.7223856 306.612256,95.9405338 C306.913186,96.3222933 307.28251,96.4313675 307.802298,96.4313675 C308.034835,96.4313675 308.349444,96.3359276 308.609338,96.2268535 C308.855554,96.1314136 309.252234,95.8314597 309.553164,95.5587744 C309.580522,95.5178716 309.5942,95.6133114 309.5942,95.6542142 C309.5942,95.7496541 309.580522,96.049608 309.580522,96.1859507 C309.580522,96.3359276 309.580522,96.4040989 309.607879,96.4450017 C309.635236,96.4859045 309.662593,96.4995388 309.772023,96.4450017 Z M316.980668,96.3631961 C317.117454,96.3631961 317.226883,96.3495619 317.226883,96.2677563 C317.226883,96.2132192 317.144811,96.1859507 317.021703,96.1314136 C316.65238,96.0359737 316.611344,95.9541681 316.597666,95.0270379 C316.597666,94.3453246 316.583987,94.2362504 316.583987,93.5136343 C316.570308,92.736481 316.460879,92.0547677 316.14627,91.7275453 C315.968448,91.5366655 315.64016,91.2639802 315.079336,91.2639802 C314.846799,91.2639802 314.559548,91.2912487 314.272296,91.4275914 C313.971366,91.5502998 313.643079,91.7820823 313.301113,92.0411334 C313.273755,92.0684019 313.232719,92.0274991 313.232719,92.0002306 C313.219041,91.8093509 313.246398,91.4412256 313.260077,91.2776144 C313.273755,91.2094431 313.205362,91.154906 313.164326,91.1685403 C312.931789,91.3185172 312.384643,91.5502998 312.083713,91.6321054 C311.960606,91.6730082 311.892212,91.713911 311.892212,91.7411795 C311.892212,91.7820823 311.91957,91.8093509 312.001641,91.8638879 C312.329929,92.0411334 312.357286,92.1911103 312.357286,92.327453 L312.356273,93.4661668 C312.354246,94.2377654 312.348167,95.0134037 312.329929,95.6678485 C312.31625,95.9405338 312.261536,96.0359737 311.91957,96.104145 C311.755426,96.1314136 311.632318,96.1859507 311.632318,96.2404877 C311.632318,96.3086591 311.741747,96.3359276 311.892212,96.3359276 C312.152107,96.3359276 312.439358,96.3086591 312.61718,96.3086591 C312.931789,96.3086591 313.602043,96.3631961 313.711472,96.3631961 C313.848258,96.3631961 313.985045,96.3631961 313.985045,96.2813905 C313.985045,96.2132192 313.916651,96.1859507 313.752508,96.1450478 C313.533649,96.0768765 313.369506,96.0087052 313.32847,95.7087513 C313.301113,95.5178716 313.260077,95.1633806 313.246398,94.2771532 L313.245206,93.8455687 C313.241876,93.2238216 313.232719,92.7340021 313.232719,92.6001384 C313.232719,92.4910642 313.301113,92.2865502 313.396863,92.1911103 C313.752508,91.8911565 314.108152,91.7548138 314.463797,91.7548138 C314.778406,91.7548138 315.0383,91.8502537 315.24348,92.0138649 C315.585446,92.2729159 315.681196,92.6001384 315.681196,93.704514 L315.681196,95.5587744 C315.681196,95.9541681 315.626482,96.049608 315.298194,96.1314136 C315.120372,96.1723164 315.0383,96.2268535 315.0383,96.2813905 C315.0383,96.3359276 315.134051,96.3631961 315.257158,96.3631961 C315.462338,96.3631961 315.64016,96.3086591 316.105234,96.3086591 C316.406165,96.3086591 316.802845,96.3631961 316.980668,96.3631961 Z M321.740835,96.4859045 C322.09648,96.3495619 322.643626,96.2132192 323.163414,96.1314136 C323.40963,96.0905108 323.50538,95.9678024 323.50538,95.8723625 C323.50538,95.8314597 323.464344,95.7905569 323.382272,95.8178254 C323.053985,95.9132653 322.821448,95.9678024 322.739376,95.9678024 C322.69834,95.9678024 322.643626,95.9132653 322.643626,95.845094 C322.629947,95.490603 322.616268,94.5498386 322.616268,93.3636573 C322.616268,91.9729621 322.684662,87.5418252 322.712019,87.1327972 C322.725698,86.969186 322.69834,86.9010146 322.657304,86.9010146 C322.616268,86.9010146 322.534197,86.9282832 322.465803,86.969186 C322.342696,87.0373573 321.768193,87.2146028 321.28944,87.2964084 C321.19369,87.3100427 321.125296,87.3509455 321.125296,87.3918483 C321.125296,87.4327511 321.19369,87.4736539 321.28944,87.5009224 C321.439905,87.5418252 321.604049,87.6236308 321.672442,87.7190707 C321.713478,87.7736077 321.727157,87.8417791 321.727157,87.9508532 C321.740835,88.6734694 321.754514,91.0867347 321.754514,91.3321515 C321.754514,91.35942 321.713478,91.4139571 321.686121,91.4003228 C321.508298,91.3457858 321.097939,91.2776144 320.78333,91.2776144 C320.140434,91.2776144 319.524895,91.4957627 319.087179,91.7957166 C318.540033,92.1774761 317.897137,92.9137265 317.897137,94.0453707 C317.897137,94.877061 318.26646,95.5587744 318.608426,95.8723625 C319.059821,96.2677563 319.593288,96.4450017 320.058362,96.4450017 C320.509757,96.4450017 321.015867,96.2677563 321.617728,95.8041912 C321.645085,95.7769226 321.672442,95.8041912 321.672442,95.8314597 C321.686121,95.9950709 321.658763,96.1859507 321.645085,96.3904647 C321.645085,96.4313675 321.686121,96.4995388 321.740835,96.4859045 Z M320.564472,95.9814366 C319.730075,95.9814366 318.895678,95.2179177 318.895678,93.7454168 C318.895678,92.7228468 319.251322,92.0684019 319.648003,91.7684481 C319.853183,91.6184711 320.017326,91.5366655 320.331935,91.5366655 C320.742294,91.5366655 321.234726,91.7275453 321.549334,92.1638418 C321.576692,92.2047446 321.645085,92.327453 321.672442,92.4910642 C321.754514,92.9546293 321.727157,94.6998155 321.686121,95.1224778 C321.672442,95.3406261 321.617728,95.5315058 321.535656,95.6269457 C321.248404,95.8859968 320.892759,95.9814366 320.564472,95.9814366 Z M327.184935,96.9631039 C327.704724,96.9631039 328.374977,96.7313213 328.867408,96.4722703 C330.385738,95.6678485 331.028634,94.468033 331.028634,93.5 C331.028634,92.8319209 330.823454,92.3956244 330.481488,92.0547677 C330.112165,91.6866425 329.523983,91.509397 329.086267,91.4957627 L328.935802,91.4957627 C328.894766,91.4957627 328.881087,91.4548599 328.908444,91.4275914 C329.701806,90.9640263 330.26263,90.4322899 330.26263,89.6278681 C330.26263,88.9870575 329.715484,88.1553672 328.5528,88.1553672 C327.718402,88.1553672 326.856648,88.7007379 326.418931,89.4915254 C326.350538,89.6005996 326.364217,89.6824052 326.43261,89.6824052 C326.446289,89.6824052 326.487324,89.6687709 326.624111,89.518794 C326.966077,89.0961317 327.403794,88.8916177 327.814153,88.8916177 C328.511764,88.8916177 329.004195,89.4097198 329.004195,90.3095815 C329.004195,91.0731004 328.634871,91.4821284 328.005654,91.8638879 C327.732081,92.0411334 327.581616,92.1093047 327.403794,92.2047446 C327.321722,92.2456474 327.280686,92.327453 327.280686,92.3956244 C327.280686,92.4637957 327.376436,92.4365272 327.513223,92.3956244 C327.663688,92.3410873 327.937261,92.2865502 328.087726,92.2865502 C328.457049,92.2865502 328.757979,92.3956244 329.127303,92.736481 C329.441911,93.0228006 329.742842,93.6363427 329.742842,94.3725931 C329.742842,95.2451862 329.332482,95.8587282 328.990516,96.1314136 C328.744301,96.3359276 328.416013,96.4722703 327.991975,96.4722703 C327.280686,96.4722703 326.760897,96.0768765 326.583075,95.9268996 C326.542039,95.8859968 326.446289,95.8859968 326.405253,95.9132653 C326.172716,96.0632422 326.022251,96.2677563 326.022251,96.3359276 C326.022251,96.7176871 326.692504,96.9631039 327.184935,96.9631039 Z M339.222141,96.3768304 C339.304213,96.3768304 339.454678,96.3495619 339.454678,96.2813905 C339.454678,96.2132192 339.399964,96.1859507 339.222141,96.1450478 C338.852818,96.0768765 338.811782,95.9132653 338.811782,95.6814828 L338.784425,93.2409489 C338.770746,92.4637957 338.63396,92.0411334 338.442459,91.8093509 C338.12785,91.4003228 337.690133,91.2230774 337.156666,91.2230774 C336.869415,91.2230774 336.51377,91.3185172 336.322269,91.4275914 C336.103411,91.5230312 335.775123,91.7411795 335.583622,91.9047907 C335.556265,91.9320593 335.515229,91.8911565 335.515229,91.8638879 C335.50155,91.6593739 335.583622,87.4872881 335.583622,87.2827741 C335.583622,87.0646259 335.542586,87.023723 335.50155,87.023723 C335.474193,87.023723 335.433157,87.0373573 335.323728,87.0782601 C334.913369,87.2691399 334.352544,87.3918483 333.914828,87.5145567 C333.764363,87.5554595 333.682291,87.5963623 333.682291,87.6508993 C333.682291,87.6918021 333.723327,87.7327049 333.778041,87.7736077 C334.120007,87.937219 334.161043,87.9644875 334.188401,88.400784 C334.215758,88.8507149 334.202079,89.8323821 334.202079,91.8775222 C334.202079,93.7454168 334.188401,95.0406722 334.161043,95.5178716 C334.147365,95.9541681 334.09265,96.049608 333.709648,96.1314136 C333.545504,96.1723164 333.49079,96.2132192 333.49079,96.2677563 C333.49079,96.3222933 333.58654,96.3631961 333.737005,96.3631961 C334.065293,96.3631961 334.243115,96.3086591 334.831297,96.3086591 C335.063834,96.3086591 335.610979,96.3768304 336.00766,96.3768304 C336.171804,96.3768304 336.253876,96.3086591 336.253876,96.2677563 C336.253876,96.2132192 336.158125,96.1723164 336.00766,96.1450478 C335.679373,96.0768765 335.610979,95.899631 335.569943,95.64058 C335.528908,95.1770149 335.487872,93.7726853 335.50155,92.4501614 C335.50155,92.2865502 335.569943,92.1502075 335.638337,92.0956705 C335.80248,91.9456935 336.103411,91.7820823 336.459055,91.7820823 C336.8147,91.7820823 337.101951,91.9047907 337.293452,92.2320131 C337.430239,92.47743 337.471275,92.9818978 337.471275,93.3363888 C337.471275,94.4543987 337.443918,95.1633806 337.41656,95.4769688 C337.375524,95.9268996 337.361846,96.049608 336.965165,96.1586821 C336.828379,96.1859507 336.759985,96.2132192 336.759985,96.2677563 C336.759985,96.3086591 336.8147,96.3631961 336.978844,96.3631961 C337.402882,96.3631961 337.430239,96.3086591 338.114171,96.3086591 C338.647638,96.3086591 338.811782,96.3768304 339.222141,96.3768304 Z M342.792267,96.4722703 C343.298377,96.4722703 343.96863,96.2950248 344.433704,95.9405338 C344.857742,95.6133114 345.500638,94.8906953 345.500638,93.7999539 C345.500638,92.3819901 344.392668,91.2230774 342.76491,91.2230774 C342.204085,91.2230774 341.574868,91.4003228 341.014043,91.8502537 C340.590005,92.1774761 340.04286,92.8319209 340.04286,93.8681252 C340.04286,95.3269918 341.232902,96.4722703 342.792267,96.4722703 Z M342.956411,96.254122 C342.587087,96.254122 342.204085,95.9814366 341.916834,95.5042373 C341.574868,94.9179638 341.492796,94.1544448 341.492796,93.5 C341.492796,92.3138187 342.05362,91.4548599 342.641802,91.4548599 C343.599307,91.4548599 344.037024,92.531967 344.037024,94.0862735 C344.037024,95.0952093 343.749772,95.7496541 343.585628,95.9405338 C343.435163,96.1314136 343.202626,96.254122 342.956411,96.254122 Z M350.041948,96.4722703 C350.438628,96.2813905 351.560277,96.0905108 351.710742,96.0768765 C351.847529,96.049608 352.011672,96.0223394 352.011672,95.9541681 C352.011672,95.8859968 351.943279,95.7769226 351.83385,95.7769226 C351.710742,95.7905569 351.505563,95.845094 351.368776,95.8723625 C351.286704,95.8859968 351.218311,95.8178254 351.204633,95.7360198 C351.184115,95.59286 351.178985,95.4880466 351.177703,95.231765 L351.17807,94.4200848 C351.181652,93.2887598 351.198249,91.880249 351.245668,91.4548599 C351.245668,91.3730543 351.218311,91.304883 351.177275,91.304883 C350.999453,91.304883 350.561736,91.4275914 350.069305,91.4275914 L349.358016,91.4275914 C349.262265,91.4275914 349.125479,91.4548599 349.125479,91.5230312 C349.125479,91.563934 349.207551,91.6184711 349.371694,91.6457397 C349.768375,91.713911 349.82309,91.7820823 349.864125,92.2456474 C349.884643,92.5115156 349.889773,93.0074621 349.891055,93.3250979 L349.891483,93.5681713 C349.891483,93.909028 349.877804,94.5907414 349.850447,95.0270379 C349.836768,95.3269918 349.768375,95.4633345 349.672624,95.5451401 C349.453766,95.7360198 349.221229,95.8178254 348.920299,95.8178254 C348.633048,95.8178254 348.386832,95.7360198 348.195331,95.5178716 C348.126938,95.4087974 348.031187,95.2451862 348.017509,94.6861813 C348.00383,93.8681252 348.017509,92.1774761 348.058545,91.4003228 C348.058545,91.3321515 348.031187,91.2367116 347.976473,91.2503459 C347.771293,91.304883 347.10104,91.4275914 346.38975,91.4275914 C346.266642,91.4275914 346.18457,91.4548599 346.18457,91.4957627 C346.18457,91.5366655 346.225606,91.5912026 346.335036,91.6593739 C346.553894,91.7820823 346.635966,91.8502537 346.649644,92.122939 C346.663323,92.3683558 346.677002,94.5362043 346.69068,94.9861351 C346.704359,95.3815289 346.759073,95.7087513 346.964253,95.9405338 C347.265183,96.3086591 347.634507,96.4313675 348.044866,96.4313675 C348.400511,96.4313675 348.701441,96.3495619 348.947656,96.2404877 C349.180193,96.1450478 349.563195,95.8723625 349.795732,95.6542142 C349.82309,95.6269457 349.836768,95.6678485 349.836768,95.7360198 C349.836768,95.8723625 349.82309,96.1177793 349.82309,96.254122 C349.82309,96.3495619 349.82309,96.4177332 349.850447,96.4722703 C349.877804,96.4995388 349.932519,96.5131731 350.041948,96.4722703 Z M352.43571,96.3768304 C352.763998,96.3768304 352.750319,96.3086591 353.571038,96.3086591 C354.227613,96.3086591 354.473828,96.3631961 354.85683,96.3631961 C355.034653,96.3631961 355.144082,96.3359276 355.144082,96.2677563 C355.144082,96.1995849 355.089367,96.1586821 354.897866,96.1314136 C354.391756,96.0632422 354.296006,95.9678024 354.241291,95.5587744 C354.213934,95.2451862 354.186577,94.672547 354.186577,93.704514 C354.186577,93.4454629 354.172898,92.9137265 354.213934,92.6546754 C354.241291,92.531967 354.268649,92.4365272 354.364399,92.3410873 C354.501185,92.2047446 354.665329,92.1502075 354.829473,92.1502075 C354.979938,92.1502075 355.212475,92.2592817 355.36294,92.3683558 C355.499726,92.4637957 355.56812,92.4637957 355.595477,92.4637957 C355.66387,92.4637957 355.732263,92.4365272 355.86905,92.3001845 C356.101587,92.0684019 356.279409,91.7684481 356.279409,91.6457397 C356.279409,91.5366655 356.224695,91.4684942 356.087908,91.3730543 C355.978479,91.2912487 355.814335,91.2367116 355.636513,91.2367116 C355.103046,91.2367116 354.610615,91.7275453 354.227613,92.2320131 C354.213934,92.2729159 354.159219,92.2592817 354.159219,92.1911103 C354.159219,91.8911565 354.186577,91.509397 354.186577,91.2639802 C354.186577,91.1958088 354.145541,91.1140032 354.118183,91.1140032 C354.063469,91.1140032 354.008754,91.1276375 353.885647,91.1958088 C353.625752,91.3321515 353.147,91.4957627 352.572497,91.6457397 C352.517782,91.6730082 352.422032,91.7275453 352.422032,91.7684481 C352.422032,91.8093509 352.449389,91.8366194 352.531461,91.9047907 C352.84607,92.1774761 352.887106,92.2047446 352.887106,92.2865502 C352.900784,92.4501614 352.887106,92.8046524 352.887106,93.6636112 C352.873427,94.5634728 352.859748,95.3406261 352.84607,95.5724086 C352.805034,95.9541681 352.695605,96.0632422 352.380996,96.1314136 C352.230531,96.1586821 352.175816,96.2268535 352.175816,96.2813905 C352.175816,96.3359276 352.257888,96.3768304 352.43571,96.3768304 Z M358.030275,96.4722703 C358.440635,96.4722703 359.042495,96.3222933 359.370782,96.0905108 C359.603319,95.9132653 360,95.5042373 360,94.9452323 C360,94.2498847 359.671713,93.8953938 358.809958,93.3227545 C358.249134,92.9682636 357.78406,92.7092125 357.78406,92.1774761 C357.78406,91.7275453 358.221776,91.4412256 358.563742,91.4412256 C358.864673,91.4412256 359.09721,91.5502998 359.275032,91.6866425 C359.49389,91.8775222 359.548605,92.1093047 359.616998,92.3138187 C359.658034,92.4228929 359.685391,92.4910642 359.740106,92.4910642 C359.79482,92.4910642 359.835856,92.4228929 359.822178,92.2729159 C359.808499,91.918425 359.753784,91.6730082 359.753784,91.5366655 C359.753784,91.4821284 359.712748,91.4275914 359.671713,91.4003228 C359.480212,91.3185172 359.042495,91.2230774 358.604778,91.2230774 C358.139705,91.2230774 357.701988,91.35942 357.442094,91.5502998 C357.004377,91.8229851 356.77184,92.2729159 356.77184,92.7637496 C356.77184,93.2409489 357.07277,93.8408567 357.87981,94.3589588 C358.577421,94.7952554 358.864673,95.081575 358.864673,95.4769688 C358.864673,95.9541681 358.399599,96.2404877 358.043954,96.2404877 C357.770381,96.2404877 357.592559,96.2268535 357.360022,96.0632422 C357.113806,95.8859968 356.894948,95.5724086 356.785519,95.2451862 C356.703447,94.9997694 356.648732,94.9588666 356.607697,94.9588666 C356.552982,94.9588666 356.525625,95.0543065 356.539303,95.2315519 L356.607697,95.9814366 C356.607697,96.0768765 356.744483,96.1995849 356.840233,96.2404877 C357.250593,96.3904647 357.715667,96.4722703 358.030275,96.4722703 Z M293.576509,111.332382 C294.356192,111.332382 294.930695,111.059697 295.477841,110.473423 C295.559912,110.377983 295.614627,110.296178 295.614627,110.255275 C295.614627,110.187104 295.559912,110.159835 295.450483,110.268909 C295.122196,110.582497 294.711837,110.705206 294.151012,110.705206 C293.699617,110.705206 293.152471,110.555229 292.783148,110.146201 C292.427503,109.750807 292.15393,109.191802 292.15393,108.496455 C292.15393,108.114695 292.194966,107.910181 292.263359,107.74657 C292.290717,107.705667 292.35911,107.637496 292.386467,107.637496 L293.125114,107.637496 C293.439723,107.637496 295.217946,107.664764 295.327376,107.678398 C295.395769,107.678398 295.464162,107.596593 295.464162,107.528422 C295.464162,106.696731 294.602407,106.137726 293.795367,106.137726 C293.084078,106.137726 292.45486,106.464949 292.085537,106.81944 C291.511034,107.378445 291.292176,108.182866 291.292176,108.810043 C291.292176,109.546293 291.538391,110.200738 291.948751,110.637034 C292.35911,111.073331 292.933613,111.332382 293.576509,111.332382 Z M292.441182,107.446616 C292.413825,107.446616 292.386467,107.419347 292.386467,107.392079 C292.386467,107.283005 292.509575,107.023954 292.673719,106.833074 C292.974649,106.519486 293.316615,106.328606 293.67226,106.328606 C293.986869,106.328606 294.219405,106.451314 294.356192,106.587657 C294.506657,106.751268 294.547693,106.996685 294.547693,107.160296 C294.547693,107.283005 294.520336,107.432982 294.219405,107.432982 L292.441182,107.446616 Z M298.364034,111.373285 C298.40507,111.373285 298.459785,111.346016 298.528178,111.141502 C298.678643,110.664303 298.924859,110.187104 299.184753,109.614464 C299.321539,109.287242 300.01915,107.760204 300.333759,107.078491 C300.497903,106.696731 300.648368,106.53312 300.921941,106.464949 C301.045048,106.424046 301.12712,106.396777 301.12712,106.34224 C301.12712,106.287703 301.03137,106.260435 300.935619,106.260435 C300.812511,106.260435 300.456867,106.301337 300.238008,106.301337 C299.937078,106.301337 299.731899,106.260435 299.567755,106.260435 C299.458326,106.260435 299.403611,106.274069 299.403611,106.314972 C299.403611,106.369509 299.458326,106.410412 299.567755,106.43768 C299.937078,106.519486 300.01915,106.669463 300.01915,106.751268 C300.01915,106.91488 299.950757,107.064856 299.868685,107.310273 C299.704541,107.801107 298.938537,109.614464 298.760715,109.941687 C298.747036,109.98259 298.719679,109.968955 298.706,109.914418 C298.528178,109.587196 297.707459,107.473884 297.584352,107.051222 C297.474922,106.642194 297.50228,106.560389 297.857924,106.464949 C297.967354,106.43768 298.049425,106.396777 298.049425,106.34224 C298.049425,106.287703 297.981032,106.260435 297.844246,106.260435 C297.625388,106.260435 297.392851,106.301337 297.023527,106.301337 C296.613168,106.301337 296.380631,106.2468 295.997629,106.2468 C295.833485,106.2468 295.765092,106.287703 295.765092,106.34224 C295.765092,106.383143 295.833485,106.424046 295.956593,106.451314 C296.298559,106.53312 296.435346,106.669463 296.572132,106.928514 C296.804669,107.36481 297.611709,109.491756 297.857924,110.118932 C298.049425,110.637034 298.145176,110.964257 298.213569,111.168771 C298.268284,111.359651 298.322998,111.373285 298.364034,111.373285 Z M303.589276,111.332382 C304.368959,111.332382 304.943462,111.059697 305.490607,110.473423 C305.572679,110.377983 305.627394,110.296178 305.627394,110.255275 C305.627394,110.187104 305.572679,110.159835 305.46325,110.268909 C305.134963,110.582497 304.724603,110.705206 304.163779,110.705206 C303.712384,110.705206 303.165238,110.555229 302.795915,110.146201 C302.44027,109.750807 302.166697,109.191802 302.166697,108.496455 C302.166697,108.114695 302.207733,107.910181 302.276126,107.74657 C302.303483,107.705667 302.371877,107.637496 302.399234,107.637496 L303.137881,107.637496 C303.45249,107.637496 305.230713,107.664764 305.340142,107.678398 C305.408535,107.678398 305.476929,107.596593 305.476929,107.528422 C305.476929,106.696731 304.615174,106.137726 303.808134,106.137726 C303.096845,106.137726 302.467627,106.464949 302.098304,106.81944 C301.523801,107.378445 301.304943,108.182866 301.304943,108.810043 C301.304943,109.546293 301.551158,110.200738 301.961517,110.637034 C302.371877,111.073331 302.94638,111.332382 303.589276,111.332382 Z M302.453949,107.446616 C302.426591,107.446616 302.399234,107.419347 302.399234,107.392079 C302.399234,107.283005 302.522342,107.023954 302.686486,106.833074 C302.987416,106.519486 303.329382,106.328606 303.685026,106.328606 C303.999635,106.328606 304.232172,106.451314 304.368959,106.587657 C304.519424,106.751268 304.56046,106.996685 304.56046,107.160296 C304.56046,107.283005 304.533102,107.432982 304.232172,107.432982 L302.453949,107.446616 Z M306.242933,111.264211 C306.434434,111.264211 306.584899,111.182405 307.07733,111.182405 C307.651833,111.182405 308.103228,111.236942 308.363122,111.236942 C308.568302,111.236942 308.69141,111.209674 308.69141,111.141502 C308.69141,111.073331 308.623017,111.046062 308.431516,111.018794 C307.911727,110.964257 307.747583,110.868817 307.692869,110.446155 C307.665512,110.159835 307.638154,109.450853 307.638154,108.441917 C307.638154,108.169232 307.624476,107.773838 307.651833,107.610227 C307.665512,107.446616 307.733905,107.296639 307.88437,107.133028 C308.062192,106.969417 308.281051,106.860342 308.48623,106.860342 C308.636695,106.860342 308.814518,106.928514 308.964983,107.023954 C309.115448,107.105759 309.183841,107.119394 309.211198,107.119394 C309.252234,107.119394 309.306949,107.105759 309.430057,106.996685 C309.5942,106.846708 309.730987,106.62856 309.730987,106.53312 C309.730987,106.464949 309.703629,106.396777 309.635236,106.34224 C309.49845,106.233166 309.320627,106.164995 309.156484,106.164995 C308.609338,106.164995 308.062192,106.669463 307.67919,107.146662 C307.638154,107.187565 307.610797,107.173931 307.610797,107.133028 C307.610797,106.91488 307.624476,106.396777 307.624476,106.2468 C307.624476,106.110458 307.597118,106.055921 307.569761,106.055921 C307.528725,106.055921 307.460332,106.069555 307.364581,106.124092 C307.145723,106.2468 306.762721,106.383143 306.489148,106.451314 C306.36604,106.492217 306.283969,106.546754 306.283969,106.574023 C306.283969,106.601291 306.297647,106.642194 306.393398,106.710366 C306.653292,106.928514 306.749042,106.969417 306.749042,107.064856 L306.749042,108.57826 C306.749042,109.478122 306.735364,110.255275 306.708007,110.487058 C306.653292,110.855183 306.502827,110.977891 306.215575,111.046062 C306.106146,111.073331 306.010396,111.141502 306.010396,111.182405 C306.010396,111.236942 306.078789,111.264211 306.242933,111.264211 Z M311.085172,115 C311.235637,115 311.399781,114.959097 311.536568,114.768217 C311.632318,114.645509 311.700711,114.509166 311.796462,114.26375 C311.987963,113.800184 312.507751,112.382221 312.836039,111.591433 C313.12329,110.855183 313.246398,110.541595 313.410542,110.091664 C313.615721,109.573562 314.463797,107.473884 314.627941,107.133028 C314.846799,106.62856 314.983586,106.53312 315.257158,106.451314 C315.393945,106.410412 315.448659,106.355875 315.448659,106.314972 C315.448659,106.274069 315.366588,106.260435 315.284516,106.260435 C315.079336,106.260435 314.901514,106.301337 314.655298,106.301337 C314.450119,106.301337 314.162867,106.260435 313.998723,106.260435 C313.875616,106.260435 313.807222,106.287703 313.807222,106.34224 C313.807222,106.383143 313.848258,106.424046 314.053438,106.464949 C314.285975,106.53312 314.354368,106.642194 314.354368,106.737634 C314.354368,106.805805 314.354368,106.969417 314.285975,107.133028 C314.176546,107.446616 313.410542,109.40995 313.232719,109.873516 C313.219041,109.914418 313.178005,109.928053 313.150647,109.873516 C312.877075,109.300876 312.124749,107.46025 311.946927,106.983051 C311.823819,106.62856 311.851176,106.560389 312.152107,106.464949 C312.234178,106.451314 312.329929,106.410412 312.329929,106.355875 C312.329929,106.301337 312.234178,106.260435 312.097392,106.260435 C311.91957,106.260435 311.563925,106.301337 311.372424,106.301337 C311.044136,106.301337 310.661134,106.2468 310.414919,106.2468 C310.319168,106.2468 310.196061,106.274069 310.196061,106.34224 C310.196061,106.383143 310.278132,106.43768 310.442276,106.478583 C310.674813,106.53312 310.838957,106.669463 310.934707,106.846708 C311.550246,108.182866 312.425679,110.391618 312.630859,110.923354 C312.671895,111.046062 312.699252,111.182405 312.644538,111.359651 C312.179464,112.545832 311.782783,113.663842 311.645997,113.950161 C311.563925,114.141041 311.454496,114.181944 311.290352,114.181944 L311.016779,114.154675 L311.016779,114.154675 C310.811599,114.154675 310.633777,114.345555 310.633777,114.550069 C310.633777,114.822755 310.866314,115 311.085172,115 Z M322.465803,111.359651 C322.506839,111.359651 322.561554,111.305114 322.643626,111.1006 C322.807769,110.664303 323.053985,110.050761 323.286522,109.50539 C323.71056,108.537357 324.120919,107.596593 324.367135,107.105759 C324.544957,106.737634 324.709101,106.546754 324.955316,106.478583 C325.160496,106.424046 325.201532,106.383143 325.201532,106.328606 C325.201532,106.274069 325.133139,106.260435 325.010031,106.260435 C324.804851,106.260435 324.462885,106.301337 324.326099,106.301337 C324.107241,106.301337 323.861025,106.260435 323.628488,106.260435 C323.532738,106.260435 323.450666,106.287703 323.450666,106.34224 C323.450666,106.383143 323.491702,106.424046 323.669524,106.478583 C324.025169,106.574023 324.079883,106.696731 324.079883,106.81944 C324.079883,106.91488 323.984133,107.160296 323.861025,107.473884 C323.696881,107.93745 323.040306,109.491756 322.876163,109.832613 C322.876163,109.859881 322.848805,109.914418 322.807769,109.846247 C322.616268,109.423585 321.8913,107.446616 321.740835,107.023954 C321.576692,106.601291 321.658763,106.546754 321.973372,106.478583 C322.082801,106.451314 322.178552,106.396777 322.178552,106.34224 C322.178552,106.301337 322.123837,106.274069 321.973372,106.274069 C321.727157,106.274069 321.563013,106.301337 321.166332,106.301337 C320.879081,106.301337 320.523436,106.2468 320.236185,106.2468 C320.099398,106.2468 320.031005,106.287703 320.031005,106.34224 C320.031005,106.396777 320.099398,106.424046 320.222506,106.451314 C320.509757,106.519486 320.632865,106.669463 320.742294,106.901245 L320.974831,107.46025 C321.002189,107.528422 320.961153,107.623861 320.947474,107.692033 C320.810688,108.046524 320.208827,109.369048 319.989969,109.832613 C319.97629,109.873516 319.921576,109.859881 319.907897,109.818978 C319.593288,109.055459 319.005107,107.501153 318.799927,106.873977 C318.745212,106.655828 318.731534,106.53312 319.059821,106.478583 C319.155572,106.464949 319.292358,106.410412 319.292358,106.369509 C319.292358,106.301337 319.182929,106.260435 319.059821,106.260435 C318.786248,106.260435 318.512676,106.301337 318.26646,106.301337 C317.883458,106.301337 317.473099,106.2468 317.295276,106.2468 C317.144811,106.2468 317.049061,106.274069 317.049061,106.34224 C317.049061,106.396777 317.131133,106.43768 317.240562,106.464949 C317.582528,106.546754 317.746672,106.737634 317.842422,106.996685 C317.992887,107.242102 318.77257,109.259973 319.018785,109.941687 C319.251322,110.582497 319.333394,110.923354 319.401787,111.114234 C319.442823,111.264211 319.483859,111.359651 319.538574,111.359651 C319.593288,111.359651 319.661682,111.277845 319.730075,111.1006 C319.88054,110.691572 320.003648,110.391618 320.208827,109.941687 C320.400328,109.464487 320.974831,108.196501 321.097939,107.951084 C321.125296,107.882912 321.152654,107.910181 321.166332,107.951084 L321.987051,110.173469 L322.315338,111.114234 C322.370053,111.305114 322.411089,111.359651 322.465803,111.359651 Z M327.554259,111.332382 C328.333941,111.332382 328.908444,111.059697 329.45559,110.473423 C329.537662,110.377983 329.592376,110.296178 329.592376,110.255275 C329.592376,110.187104 329.537662,110.159835 329.428233,110.268909 C329.099945,110.582497 328.689586,110.705206 328.128762,110.705206 C327.677366,110.705206 327.130221,110.555229 326.760897,110.146201 C326.405253,109.750807 326.13168,109.191802 326.13168,108.496455 C326.13168,108.114695 326.172716,107.910181 326.241109,107.74657 C326.268466,107.705667 326.336859,107.637496 326.364217,107.637496 L327.102863,107.637496 C327.417472,107.637496 329.195696,107.664764 329.305125,107.678398 C329.373518,107.678398 329.441911,107.596593 329.441911,107.528422 C329.441911,106.696731 328.580157,106.137726 327.773117,106.137726 C327.061827,106.137726 326.43261,106.464949 326.063287,106.81944 C325.488784,107.378445 325.269925,108.182866 325.269925,108.810043 C325.269925,109.546293 325.516141,110.200738 325.9265,110.637034 C326.336859,111.073331 326.911362,111.332382 327.554259,111.332382 Z M326.418931,107.446616 C326.391574,107.446616 326.364217,107.419347 326.364217,107.392079 C326.364217,107.283005 326.487324,107.023954 326.651468,106.833074 C326.952398,106.519486 327.294364,106.328606 327.650009,106.328606 C327.964618,106.328606 328.197155,106.451314 328.333941,106.587657 C328.484406,106.751268 328.525442,106.996685 328.525442,107.160296 C328.525442,107.283005 328.498085,107.432982 328.197155,107.432982 L326.418931,107.446616 Z M332.574321,111.332382 C333.354003,111.332382 333.928506,111.059697 334.475652,110.473423 C334.557724,110.377983 334.612438,110.296178 334.612438,110.255275 C334.612438,110.187104 334.557724,110.159835 334.448295,110.268909 C334.120007,110.582497 333.709648,110.705206 333.148824,110.705206 C332.697428,110.705206 332.150283,110.555229 331.780959,110.146201 C331.425315,109.750807 331.151742,109.191802 331.151742,108.496455 C331.151742,108.114695 331.192778,107.910181 331.261171,107.74657 C331.288528,107.705667 331.356921,107.637496 331.384279,107.637496 L332.122925,107.637496 C332.437534,107.637496 334.215758,107.664764 334.325187,107.678398 C334.39358,107.678398 334.461973,107.596593 334.461973,107.528422 C334.461973,106.696731 333.600219,106.137726 332.793179,106.137726 C332.081889,106.137726 331.452672,106.464949 331.083349,106.81944 C330.508846,107.378445 330.289987,108.182866 330.289987,108.810043 C330.289987,109.546293 330.536203,110.200738 330.946562,110.637034 C331.356921,111.073331 331.931424,111.332382 332.574321,111.332382 Z M331.438993,107.446616 C331.411636,107.446616 331.384279,107.419347 331.384279,107.392079 C331.384279,107.283005 331.507386,107.023954 331.67153,106.833074 C331.97246,106.519486 332.314426,106.328606 332.670071,106.328606 C332.98468,106.328606 333.217217,106.451314 333.354003,106.587657 C333.504468,106.751268 333.545504,106.996685 333.545504,107.160296 C333.545504,107.283005 333.518147,107.432982 333.217217,107.432982 L331.438993,107.446616 Z M340.576327,111.250577 C340.685756,111.250577 340.808864,111.236942 340.808864,111.155137 C340.808864,111.1006 340.726792,111.059697 340.603684,111.032428 C340.193325,110.936988 340.001824,110.787011 339.618822,110.391618 C338.975926,109.737173 337.991063,108.687334 337.580704,108.210135 C337.567025,108.182866 337.539668,108.141964 337.567025,108.114695 C337.82692,107.869278 338.497173,107.283005 338.852818,107.023954 C339.413642,106.587657 339.646179,106.505851 340.111253,106.424046 C340.275397,106.396777 340.316433,106.34224 340.316433,106.314972 C340.316433,106.260435 340.261718,106.219532 340.111253,106.219532 C339.755608,106.219532 339.208463,106.301337 338.907532,106.301337 C338.757067,106.301337 338.442459,106.287703 338.2236,106.287703 C338.100492,106.287703 338.004742,106.328606 338.004742,106.383143 C338.004742,106.43768 338.114171,106.478583 338.237279,106.492217 C338.538209,106.546754 338.63396,106.62856 338.63396,106.710366 C338.63396,106.764903 338.565566,106.860342 338.483494,106.942148 C338.237279,107.26937 337.553347,107.882912 337.006201,108.319209 C336.896772,108.401015 336.787343,108.469186 336.732628,108.469186 C336.691592,108.469186 336.664235,108.401015 336.664235,108.251038 C336.664235,106.751268 336.732628,104.951545 336.732628,104.528883 C336.732628,103.519947 336.773664,102.320131 336.801021,101.870201 C336.801021,101.802029 336.773664,101.761126 336.759985,101.761126 C336.705271,101.761126 336.636878,101.788395 336.541127,101.829298 C336.472734,101.856566 336.117089,102.006543 335.569943,102.15652 C335.433157,102.197423 335.351085,102.224692 335.351085,102.279229 C335.351085,102.306497 335.4058,102.333766 335.474193,102.374669 C335.638337,102.456474 335.761444,102.53828 335.788802,102.647354 C335.829838,102.797331 335.843516,102.960942 335.843516,103.27453 C335.843516,104.338003 335.80248,106.083189 335.788802,107.146662 C335.788802,108.210135 335.775123,109.355413 335.720409,110.350715 C335.693051,110.800646 335.597301,110.923354 335.173263,111.032428 C335.077512,111.046062 334.99544,111.086965 334.99544,111.127868 C334.99544,111.182405 335.077512,111.223308 335.214299,111.223308 C335.378442,111.223308 335.665694,111.182405 336.103411,111.182405 C336.459055,111.182405 336.746307,111.223308 337.129309,111.223308 C337.279774,111.223308 337.389203,111.196039 337.389203,111.127868 C337.389203,111.073331 337.32081,111.046062 337.184023,111.00516 C336.759985,110.90972 336.650556,110.868817 336.650556,110.214372 C336.638397,109.547808 336.647854,109.118244 336.659713,108.858651 L336.664235,108.76914 C336.664235,108.714603 336.677914,108.632797 336.718949,108.632797 C336.773664,108.632797 336.869415,108.728237 336.978844,108.837311 C337.389203,109.246339 338.360387,110.268909 338.647638,110.596132 C338.770746,110.787011 338.743389,110.90972 338.510852,110.964257 C338.264636,111.018794 338.196243,111.046062 338.196243,111.114234 C338.196243,111.196039 338.291993,111.196039 338.442459,111.196039 C338.647638,111.196039 338.825461,111.182405 339.057997,111.182405 C339.591465,111.182405 340.111253,111.250577 340.576327,111.250577 Z M341.697976,111.346016 C341.95787,111.346016 342.286157,111.155137 342.286157,110.732474 C342.286157,110.459789 342.094656,110.132567 341.739011,110.132567 C341.410724,110.132567 341.123473,110.405252 341.123473,110.746109 C341.123473,111.059697 341.383367,111.346016 341.697976,111.346016 Z M342.682838,104.2971 C342.888018,104.2971 343.913916,103.901706 343.913916,102.974576 C343.913916,102.470108 343.57195,102.006543 343.038483,102.006543 C342.819624,102.006543 342.628123,102.183789 342.628123,102.388303 C342.628123,102.551914 342.76491,102.63372 342.901696,102.674622 C343.27102,102.756428 343.421485,102.933673 343.421485,103.206359 C343.421485,103.615387 343.106876,103.915341 342.696517,104.119855 C342.614445,104.160758 342.55973,104.20166 342.55973,104.228929 C342.55973,104.269832 342.600766,104.2971 342.682838,104.2971 Z M344.392668,104.2971 C344.597848,104.2971 345.623746,103.901706 345.623746,102.974576 C345.623746,102.470108 345.28178,102.006543 344.77567,102.006543 C344.529455,102.006543 344.351632,102.183789 344.351632,102.388303 C344.351632,102.551914 344.488419,102.63372 344.611527,102.674622 C344.98085,102.756428 345.131315,102.933673 345.131315,103.219993 C345.131315,103.615387 344.830385,103.915341 344.406347,104.119855 L344.317436,104.179505 C344.290078,104.198252 344.26956,104.215295 344.26956,104.228929 C344.26956,104.269832 344.324275,104.2971 344.392668,104.2971 Z"/>
  </g>
</svg>
