<svg id="Layer_1" data-name="Layer 1" xmlns="http://www.w3.org/2000/svg" viewBox="0 0 399 200"><defs><style>.cls-1,.cls-2,.cls-3,.cls-4,.cls-5,.cls-6,.cls-7{fill:none;stroke:#222f3c;}.cls-1,.cls-2,.cls-4{stroke-linecap:round;}.cls-1,.cls-2,.cls-4,.cls-5{stroke-linejoin:round;}.cls-1,.cls-6,.cls-7{stroke-width:0.5px;}.cls-2,.cls-3,.cls-5{stroke-width:0.4px;}.cls-3,.cls-6,.cls-7{stroke-miterlimit:10;}.cls-4{stroke-width:0.4px;}.cls-7{stroke-linecap:square;}.cls-8{fill:#333838;}</style></defs><line class="cls-1" x1="197.2309" y1="118.5362" x2="191.8268" y2="113.4331"/><path class="cls-1" d="M199.4227,118.5661l5.1462-5.45-6.1337-6.1338h0a.0644.0644,0,0,0-.0741-.0147H198.36a.062.062,0,0,0-.0409.0629v10.4328"/><path class="cls-1" d="M198.3035,117.4637v-3.9143a.0663.0663,0,0,0-.02-.0459l.0006-.0006a.0731.0731,0,0,0-.0495-.0212l-6.4081-.0486"/><path class="cls-1" d="M200.4531,119.6392h3.9888a.0677.0677,0,0,0,.046-.02h.0006a.0719.0719,0,0,0,.021-.0493l.0488-6.4277-5.1282,5.43"/><line class="cls-1" x1="191.8085" y1="113.4343" x2="191.8097" y2="113.433"/><path class="cls-1" d="M191.8085,113.4343l-6.12,6.12h0a.0691.0691,0,0,0-.0193.0336.0711.0711,0,0,0,.0044.04v.001a.0618.0618,0,0,0,.0631.0408H196.201"/><polyline class="cls-1" points="191.808 113.435 191.807 113.433 191.809 113.433"/><line class="cls-1" x1="191.8085" y1="113.4343" x2="197.2215" y2="118.5457"/><polyline class="cls-1" points="191.827 113.433 191.818 113.425 191.809 113.433"/><line class="cls-1" x1="191.8268" y1="113.4331" x2="191.8097" y2="113.433"/><line class="cls-1" x1="199.3547" y1="120.7376" x2="204.799" y2="125.8787"/><path class="cls-1" d="M197.2392,120.7076l-5.1822,5.488,6.1337,6.1338h0a.0648.0648,0,0,0,.0741.0147h.0009c.0137-.0056.0241,17.4784.0311,17.4681s.01-17.5151.01-17.531V121.7745"/><path class="cls-1" d="M198.3221,121.77v3.9925a.0651.0651,0,0,0,.02.0458v.0007a.0733.0733,0,0,0,.0494.0212l6.4081.0486"/><path class="cls-1" d="M197.2318,120.7l-5.1642,5.4686.0488-6.4277a.0719.0719,0,0,1,.021-.0493h0a.0668.0668,0,0,1,.0461-.02h4.02"/><line class="cls-1" x1="204.8174" y1="125.8776" x2="204.8162" y2="125.8788"/><path class="cls-1" d="M204.8174,125.8776l6.12-6.12h0a.0691.0691,0,0,0,.0193-.0336.07.07,0,0,0-.0045-.04v-.001a.0616.0616,0,0,0-.063-.0408H200.45"/><polyline class="cls-1" points="204.817 125.878 204.819 125.879 204.816 125.879"/><line class="cls-1" x1="204.8174" y1="125.8776" x2="199.3643" y2="120.728"/><polyline class="cls-1" points="204.799 125.879 204.808 125.887 204.816 125.879"/><line class="cls-1" x1="204.799" y1="125.8787" x2="204.8162" y2="125.8788"/><line class="cls-1" x1="197.2392" y1="120.7076" x2="197.2318" y2="120.7003"/><line class="cls-1" x1="197.2309" y1="118.5362" x2="197.2215" y2="118.5457"/><line class="cls-1" x1="197.2318" y1="120.7003" x2="196.2042" y2="119.6727"/><line class="cls-1" x1="196.2008" y1="119.6693" x2="196.2042" y2="119.6727"/><polyline class="cls-1" points="200.453 119.639 200.475 119.618 199.43 118.573"/><polyline class="cls-1" points="198.322 121.77 198.312 121.781 198.306 121.775"/><line class="cls-1" x1="198.3224" y1="121.7699" x2="199.3547" y2="120.7376"/><polyline class="cls-1" points="198.303 117.463 198.312 117.455 198.32 117.463"/><line class="cls-1" x1="200.4497" y1="119.6425" x2="199.3643" y2="120.728"/><line class="cls-1" x1="197.2392" y1="120.7076" x2="198.3063" y2="121.7748"/><polyline class="cls-1" points="196.201 119.67 196.149 119.618 197.221 118.546"/><line class="cls-1" x1="198.3035" y1="117.4637" x2="197.2309" y2="118.5362"/><line class="cls-1" x1="199.4227" y1="118.5661" x2="198.3196" y2="117.463"/><line class="cls-1" x1="199.3547" y1="120.7376" x2="199.3643" y2="120.728"/><line class="cls-1" x1="200.4497" y1="119.6425" x2="200.4531" y2="119.6392"/><line class="cls-1" x1="199.4227" y1="118.5661" x2="199.4301" y2="118.5735"/><path class="cls-2" d="M73.1184,81.0422H70.8421a.5274.5274,0,0,1-.5274-.5274h0v-1.56a.5274.5274,0,0,1,.5274-.5274H76.83"/><line class="cls-2" x1="69.806" y1="95.3155" x2="71.41" y2="95.3155"/><line class="cls-2" x1="71.8216" y1="85.3834" x2="71.8216" y2="81.7297"/><line class="cls-2" x1="71.2648" y1="95.3155" x2="69.2332" y2="95.3155"/><line class="cls-2" x1="68.3453" y1="93.9603" x2="68.3525" y2="93.9427"/><line class="cls-2" x1="68.3525" y1="93.9427" x2="71.8162" y2="85.4554"/><path class="cls-2" d="M68.3453,93.96a.98.98,0,0,0,.908,1.3538"/><path class="cls-2" d="M68.3453,93.96l.0072-.0176"/><line class="cls-2" x1="71.2648" y1="95.3155" x2="69.2332" y2="95.3155"/><line class="cls-2" x1="68.3453" y1="93.9603" x2="68.3525" y2="93.9427"/><line class="cls-2" x1="68.3525" y1="93.9427" x2="71.8162" y2="85.4554"/><path class="cls-2" d="M68.3453,93.96a.98.98,0,0,0,.908,1.3538"/><path class="cls-2" d="M68.3453,93.96l.0072-.0176"/><path class="cls-2" d="M77.02,82.6269h3.17a.5076.5076,0,0,0,.4847-.5274V80.539a.5077.5077,0,0,0-.4847-.5275H74.1467a.5076.5076,0,0,0-.4849.5275V82.1a.5076.5076,0,0,0,.4849.5274h1.0455"/><line class="cls-2" x1="74.8607" y1="87.554" x2="74.8607" y2="83.9003"/><line class="cls-2" x1="81.4913" y1="97.486" x2="72.2723" y2="97.486"/><line class="cls-2" x1="71.3844" y1="96.1307" x2="71.3916" y2="96.1132"/><line class="cls-2" x1="71.3916" y1="96.1132" x2="74.8552" y2="87.6259"/><path class="cls-2" d="M71.3844,96.1307a.98.98,0,0,0,.9079,1.354"/><path class="cls-2" d="M71.3844,96.1307l.0072-.0175"/><line class="cls-2" x1="79.4757" y1="87.554" x2="79.4757" y2="83.9003"/><line class="cls-2" x1="72.4175" y1="97.486" x2="82.0642" y2="97.486"/><line class="cls-2" x1="82.952" y1="96.1307" x2="82.9448" y2="96.1132"/><line class="cls-2" x1="82.9448" y1="96.1132" x2="79.4812" y2="87.6259"/><path class="cls-2" d="M82.952,96.1307a.98.98,0,0,1-.9083,1.354"/><path class="cls-2" d="M82.952,96.1307l-.0072-.0175"/><line class="cls-2" x1="72.4175" y1="97.486" x2="82.0642" y2="97.486"/><line class="cls-2" x1="82.952" y1="96.1307" x2="82.9448" y2="96.1132"/><line class="cls-2" x1="82.9448" y1="96.1132" x2="79.4812" y2="87.6259"/><path class="cls-2" d="M82.952,96.1307a.98.98,0,0,1-.9083,1.354"/><path class="cls-2" d="M82.952,96.1307l-.0072-.0175"/><line class="cls-3" x1="77.9189" y1="84.7852" x2="79.5098" y2="84.7852"/><line class="cls-3" x1="77.9189" y1="83.8738" x2="79.5098" y2="83.8738"/><line class="cls-3" x1="77.9189" y1="85.7073" x2="79.5098" y2="85.7073"/><line class="cls-3" x1="77.9189" y1="86.6295" x2="79.5098" y2="86.6295"/><line class="cls-3" x1="77.9189" y1="87.5516" x2="79.5098" y2="87.5516"/><path class="cls-3" d="M74.4961,92.8618c0-.5233.9475-1.6623.9475-1.6623s.9476,1.139.9476,1.6623a.9476.9476,0,0,1-1.8951,0Z"/><path class="cls-3" d="M76.4733,95.2072c0-.5234.9474-1.6623.9474-1.6623s.9475,1.1389.9475,1.6623a.9475.9475,0,0,1-1.8949,0Z"/><path class="cls-3" d="M76.9973,91.8484c0-.5233.9475-1.6623.9475-1.6623s.9475,1.139.9475,1.6623a.9475.9475,0,0,1-1.895,0Z"/><path class="cls-3" d="M215.0022,59.3035l13.6139,12.81h0l-9.4367,10.0293a1.12,1.12,0,0,1-1.5831.0481L205.6133,70.916a1.12,1.12,0,0,1-.0482-1.5831h0l9.4367-10.0293Z"/><rect class="cls-4" x="214.8573" y="55.2299" width="9.5726" height="3.7384" transform="translate(27.5447 177.9363) rotate(-46.7436)"/><rect class="cls-4" x="217.8311" y="58.3725" width="7.9772" height="3.7384" transform="translate(25.9409 180.5102) rotate(-46.7436)"/><rect class="cls-4" x="220.8049" y="61.5152" width="6.3818" height="3.7384" transform="translate(24.3369 183.0842) rotate(-46.7436)"/><rect class="cls-4" x="223.7785" y="64.6582" width="4.7863" height="3.7384" transform="translate(22.7328 185.6581) rotate(-46.7436)"/><rect class="cls-4" x="226.7524" y="67.801" width="3.1909" height="3.7384" transform="translate(21.1288 188.2322) rotate(-46.7436)"/><polygon class="cls-5" points="232.723 65.02 230.145 66.246 231.657 67.668 232.723 65.02"/><polygon class="cls-5" points="230.145 66.246 228.082 67.226 230.804 69.787 231.657 67.668 230.145 66.246"/><polygon class="cls-5" points="231.093 61.296 228.515 62.522 230.027 63.945 231.093 61.296"/><polygon class="cls-5" points="228.515 62.522 226.452 63.502 229.175 66.063 230.027 63.945 228.515 62.522"/><polygon class="cls-5" points="229.464 57.572 226.885 58.798 228.399 60.221 229.464 57.572"/><polygon class="cls-5" points="226.885 58.798 224.822 59.778 227.545 62.339 228.399 60.221 226.885 58.798"/><polygon class="cls-5" points="227.835 53.849 225.256 55.074 226.769 56.497 227.835 53.849"/><polygon class="cls-5" points="225.256 55.074 223.194 56.054 225.917 58.616 226.769 56.497 225.256 55.074"/><polygon class="cls-5" points="226.206 50.125 223.627 51.351 225.139 52.773 226.206 50.125"/><polygon class="cls-5" points="223.627 51.351 221.564 52.331 224.287 54.892 225.139 52.773 223.627 51.351"/><line class="cls-1" x1="55.6296" y1="150.2446" x2="236.778" y2="150.2446"/><path class="cls-6" d="M152.9549,101.5507a11.0631,11.0631,0,0,0,22.1062,0,9.5652,9.5652,0,0,0-.1216-1.8243"/><path class="cls-6" d="M167.0572,147.9652h3.9639a1.7532,1.7532,0,0,1,1.7532,1.7532v.4384h-5.7171Z"/><path class="cls-6" d="M160.9589,150.1567h-5.7171v-.4384a1.7532,1.7532,0,0,1,1.7531-1.7532h3.964Z"/><path class="cls-6" d="M152.9549,101.5507c0-.12.0053-.2379.0094-.3565a2.007,2.007,0,1,0,.1813,4.01h.4843A10.1763,10.1763,0,0,1,152.9549,101.5507Z"/><path class="cls-6" d="M175.0517,101.1942c.0042.1186.01.237.01.3565a10.1808,10.1808,0,0,1-.6751,3.6527h.4845a2.007,2.007,0,0,0,.1811-4.01h0Z"/><path class="cls-6" d="M170.4874,102.3726a1.24,1.24,0,0,1-2.4773,0"/><path class="cls-6" d="M160.0061,102.3726a1.24,1.24,0,0,1-2.4774,0"/><path class="cls-6" d="M161.9118,107.4314a2.0982,2.0982,0,0,0,4.1926,0"/><path class="cls-6" d="M176.8326,116.8976a11.6285,11.6285,0,0,0-5.8456-5.57,3.1052,3.1052,0,0,0-1.1312-.4188,1.9511,1.9511,0,0,0-.4059-.0448c-.02,0-.04.0017-.0594.0023-.0156,0-.0307-.0023-.0464-.0023h-.0672a11.494,11.494,0,0,1-10.5368,0h-.0672c-.0157,0-.0307.002-.0464.0023-.02-.0006-.04-.0023-.0595-.0023a1.9492,1.9492,0,0,0-.4057.0448,3.1052,3.1052,0,0,0-1.1312.4188,11.63,11.63,0,0,0-5.8457,5.57c-.0984.2016-.1883.4065-.2739.6119l3.7355.8325a7.8683,7.8683,0,0,1,.978-1.4951v9.996h16.77v-9.996a7.8625,7.8625,0,0,1,.9778,1.4951l3.7356-.8325C177.021,117.3042,176.9311,117.1,176.8326,116.8976Z"/><path class="cls-6" d="M158.6629,110.7133a5.3553,5.3553,0,0,0,10.7008,0"/><path class="cls-6" d="M174.3028,123.885a2.1578,2.1578,0,0,1,.93-.2105,2.1069,2.1069,0,0,1,1.8612,1.087,10.5783,10.5783,0,0,0-.4-7.16l-2.9033.6472A7.9,7.9,0,0,1,174.3028,123.885Z"/><ellipse class="cls-6" cx="175.2326" cy="125.6834" rx="2.0963" ry="2.0089"/><path class="cls-6" d="M150.0593,123.05a3.0955,3.0955,0,0,0-1.1243-.22,8.2374,8.2374,0,0,0,2.3567-5.2528l2.9.6608a10.7851,10.7851,0,0,1-2.9717,6.58A2.0015,2.0015,0,0,0,150.0593,123.05Z"/><ellipse class="cls-6" cx="149.125" cy="124.8486" rx="2.0963" ry="2.0089"/><path class="cls-6" d="M164.0113,86.2279a11.1383,11.1383,0,0,0-4.0267.753,19.1594,19.1594,0,0,1-10.06-1.2992V89.23a9.475,9.475,0,0,0,2.6219,6.4022h0a13.546,13.546,0,0,0-.2187,5.63,1.9069,1.9069,0,0,1,.6518-.1161h.0043a12.5163,12.5163,0,0,1,.8349-4.3456,11.0081,11.0081,0,0,0,1.6584,1.0709,12.8263,12.8263,0,0,0,8.4633.7047,25.91,25.91,0,0,1,5.0214-.4891,19.504,19.504,0,0,1,5.88.9929,12.7313,12.7313,0,0,1,.1975,2.0664h.0041a1.9088,1.9088,0,0,1,.6517.1162A13.7039,13.7039,0,0,0,175.89,99.03c0-.0224.0014-.0441.0014-.0664C175.8922,91.93,170.573,86.2279,164.0113,86.2279Z"/><path class="cls-6" d="M164.0277,134.31v13.64h7.5835V134.174c.896-1.0411.8085-4.5414.8085-5.9845l-16.7963.0587"/><path class="cls-6" d="M164.0176,136.5275v11.4217h-7.5835v-13.776c-.896-1.0411-.8085-4.5414-.8085-5.9845l16.7963.0587"/><path class="cls-6" d="M145.2577,101.2618c.0041.1186.0094.2368.0094.3565a10.18,10.18,0,0,1-.675,3.6525h.4844a2.0066,2.0066,0,0,0,.1812-4.009Z"/><path class="cls-6" d="M140.6934,103.6272a1.24,1.24,0,0,0-2.4775,0"/><path class="cls-6" d="M130.212,103.6272a1.24,1.24,0,0,0-2.4774,0"/><path class="cls-6" d="M132.1177,107.4989a2.0982,2.0982,0,0,0,4.1926,0"/><path class="cls-6" d="M148.1482,123.0483a3.1423,3.1423,0,0,1,1.1217-.2253,7.9334,7.9334,0,0,1-2.3072-5.1544l-2.8939.6728a10.3892,10.3892,0,0,0,2.91,6.4566A2.0082,2.0082,0,0,1,148.1482,123.0483Z"/><line class="cls-6" x1="125.9229" y1="113.3487" x2="144.4539" y2="113.3487"/><path class="cls-1" d="M140.843,111.1738a9.7,9.7,0,0,0,4.57-5.6553"/><path class="cls-6" d="M122.272,101.324a2.0623,2.0623,0,0,0,0,3.661Z"/><path class="cls-6" d="M126.107,112.34c0,2.9826-1.1648,3.8706-2.667,5.7555l1.4112.3145a7.8773,7.8773,0,0,1,.9779-1.4953v10.0322h16.77V116.9142a7.8858,7.8858,0,0,1,.978,1.4953l3.7355-.8325c-.0856-.2055-.191-.4032-.2739-.6118a11.936,11.936,0,0,0-7.44-6.1755"/><path class="cls-1" d="M146.0181,101.2153V98.9322a11.83,11.83,0,0,0-23.66,0h0"/><path class="cls-6" d="M126.107,111.9889v.3506c0,2.9826-1.15,3.8416-2.6516,5.7266"/><line class="cls-6" x1="126.107" y1="111.9688" x2="126.107" y2="111.9889"/><path class="cls-6" d="M128.83,110.82a10.1733,10.1733,0,0,0-2.7226,1.1686"/><line class="cls-1" x1="122.3607" y1="117.8546" x2="122.3645" y2="115.3014"/><path class="cls-7" d="M122.3607,117.8546l-.0026,1.7407a17.8066,17.8066,0,0,1,1.0684-1.4944"/><line class="cls-1" x1="122.3645" y1="115.3014" x2="122.3888" y2="98.8045"/><path class="cls-6" d="M121.1093,117.7711a16.1724,16.1724,0,0,1,1.2495-2.5336"/><path class="cls-1" d="M122.41,98.963a11.8057,11.8057,0,0,1,23.6113-.0663"/><path class="cls-6" d="M145.13,100.08a13.9334,13.9334,0,0,1-1.651-.4447c-3.4207-1.245-5.4006-3.1087-6.2166-5.1927-3.2084,1.7772-7.2565,3.0622-8.28,4.0166-1.4737,1.3748-2.8759,3.3474-2.8759,5.3629v4.8956"/><path class="cls-6" d="M145.14,100.0767l.0412.0088-.0413-.0091"/><line class="cls-6" x1="126.107" y1="108.7175" x2="126.107" y2="111.9688"/><path class="cls-6" d="M144.961,99.8954a5.235,5.235,0,0,1,.3214,1.6553,10.83,10.83,0,0,1-11.0531,10.5924,11.2329,11.2329,0,0,1-8.1224-3.4256"/><line class="cls-6" x1="122.5298" y1="117.9042" x2="121.1613" y2="117.4893"/><path class="cls-6" d="M137.2324,147.9652h3.9639a1.7534,1.7534,0,0,1,1.7532,1.7533v.4383h-5.7171Z"/><path class="cls-6" d="M131.1341,150.1567h-5.7172v-.4384a1.7532,1.7532,0,0,1,1.753-1.7532h3.9642Z"/><path class="cls-6" d="M134.2021,134.31v13.64h7.5835V134.174c.896-1.0411.8087-4.5414.8087-5.9845l-16.7965.0587"/><path class="cls-6" d="M134.1928,136.5275v11.4217h-7.5835v-13.776c-.896-1.0411-.8087-4.5414-.8087-5.9845l16.7965.0587"/><path class="cls-6" d="M121.545,117.577a8.2368,8.2368,0,0,1-2.3568,5.2528,3.1059,3.1059,0,0,1,1.1242.22,2.0019,2.0019,0,0,1,1.1607,1.7679,10.7864,10.7864,0,0,0,2.9718-6.58"/><ellipse class="cls-6" cx="119.3782" cy="124.8486" rx="2.0963" ry="2.0089"/><path class="cls-6" d="M110.9323,103.6272a1.24,1.24,0,0,0-2.4774,0"/><path class="cls-6" d="M100.4509,103.6272a1.24,1.24,0,0,0-2.4774,0"/><path class="cls-6" d="M102.3566,107.4989a2.0982,2.0982,0,0,0,4.1926,0"/><ellipse class="cls-6" cx="93.2282" cy="125.7509" rx="2.0963" ry="2.0089"/><path class="cls-6" d="M119.5088,122.823a7.9341,7.9341,0,0,1-2.3072-5.1544l-2.894.6728a10.3887,10.3887,0,0,0,2.91,6.4566"/><path class="cls-6" d="M93.6789,118.095l1.4112.3145a7.8773,7.8773,0,0,1,.9779-1.4953v10.0322h16.77V116.9142a7.8858,7.8858,0,0,1,.978,1.4953l3.7354-.8325c-.0855-.2055-.19-.4032-.2738-.6118a11.9372,11.9372,0,0,0-7.44-6.1755"/><path class="cls-6" d="M95.1146,118.41l-3.7354-.8325c.0856-.2055.19-.4032.2739-.6118a11.936,11.936,0,0,1,7.44-6.1755"/><path class="cls-1" d="M91.8747,117.9194a12.4124,12.4124,0,0,0-.5077,6.91,2.1743,2.1743,0,0,1,2.7911-.8764,8.0345,8.0345,0,0,1,.5121-5.6365"/><path class="cls-6" d="M107.4712,147.9652h3.9639a1.7534,1.7534,0,0,1,1.7532,1.7533v.4383h-5.7171Z"/><path class="cls-6" d="M101.3729,150.1567H95.6557v-.4384a1.7532,1.7532,0,0,1,1.7532-1.7532h3.964Z"/><path class="cls-6" d="M104.4414,134.31v13.64h7.5836V134.174c.896-1.0411.8085-4.5414.8085-5.9845l-16.7963.0587"/><path class="cls-6" d="M104.4316,136.5275v11.4217H96.8481v-13.776c-.896-1.0411-.8086-4.5414-.8086-5.9845l16.7963.0587"/><path class="cls-6" d="M95.2885,99.8434c3.2539-1.1749,5.1974-2.9079,6.0731-4.855,1.7846,2.584,5.8454,4.39,10.5745,4.39a23.1127,23.1127,0,0,0,3.3164-.255,10.9291,10.9291,0,1,1-21.6508,2.196c0-.3416.0179-.6789.0491-1.0124A15.949,15.949,0,0,0,95.2885,99.8434Z"/><path class="cls-6" d="M89.0584,103.92V89.6338a6.7385,6.7385,0,0,1,13.0359-2.3358,7.627,7.627,0,0,0-1.5935-.168,7.5422,7.5422,0,0,0-7.5722,7.5118,7.3863,7.3863,0,0,0,.0811,1.0733h0c.0287.1961.0623.3906.1056.5817l.013-.0475a11.5231,11.5231,0,0,0-.2879,4.2438c.03.2576.071.5122.1173.7647a2,2,0,0,0,.644,3.9h.7069a10.7976,10.7976,0,0,0,1.4583,2.6363,5.05,5.05,0,0,1-10.0737-.4658V105.66a2.1393,2.1393,0,0,0,3.3652-1.7392Z"/><path class="cls-6" d="M104.5393,87.4638a11.7321,11.7321,0,0,1,11.7736,11.475c.0012.07.0054.1395.0054.21a11.64,11.64,0,0,1-.1953,2.11,2.0282,2.0282,0,0,0-.6461-.1066h-.0043a10.7922,10.7922,0,0,0-.22-2.0291h.0008a23.107,23.107,0,0,1-3.3171.2551c-4.7292,0-8.79-1.8058-10.5746-4.39-.8756,1.9471-2.8192,3.68-6.0731,4.855,0,0-1.6546.4672-1.6377.4633q-.0391.4182-.0448.8455h-.0039a2.023,2.023,0,0,0-.644.1058c-.0464-.2525-.0877-.5068-.1174-.7647A11.6656,11.6656,0,0,1,104.54,87.4639Z"/><path class="cls-6" d="M93.1153,96.2967a7.5042,7.5042,0,0,1,7.3855-9.1668,7.6144,7.6144,0,0,1,2.533.4321A11.7548,11.7548,0,0,0,93.1153,96.2967Z"/><path class="cls-6" d="M115.4769,101.3188c0-.056-.0034-.1111-.0043-.1669h.0043a2.0032,2.0032,0,0,1,.042,4.0062H114.77A10.7464,10.7464,0,0,0,115.4769,101.3188Z"/><circle class="cls-6" cx="104.334" cy="119.3923" r="0.8297"/><circle class="cls-6" cx="104.334" cy="122.0659" r="0.8297"/><path class="cls-6" d="M129.5008,69.2008a4.96,4.96,0,0,0-4.96-4.96H66.6752a4.96,4.96,0,0,0-4.96,4.96v32.4464a4.96,4.96,0,0,0,4.96,4.96H83.6466"/><line class="cls-6" x1="129.5008" y1="69.2008" x2="129.5008" y2="85.8862"/><rect class="cls-6" x="87.1351" y="64.3837" width="16.9463" height="5.6487"/><path class="cls-8" d="M237.4473,54.7757c.2763,0,1.0312.0771,1.4931.0771.4922,0,.97-.0463,1.2471-.0463.1689,0,.2461.0307.2461.0922,0,.0772-.0928.1236-.2461.1543-.37.0767-.4619.1695-.4619.2769a1.602,1.602,0,0,0,.2617.5854c.2773.4771,1.6318,2.8174,2.001,3.3252.0312.0157.1387.0928.1855.0157.5235-.8623,1.5088-2.479,1.8321-3.0332a1.8037,1.8037,0,0,0,.3535-.816c0-.1845-.169-.3081-.5694-.3847-.123-.0308-.2617-.0772-.2617-.1543,0-.0459.0928-.0767.2461-.0767.4317,0,.6777.0615,1.1084.0615.37,0,.8623-.0771,1.0938-.0771.1689,0,.2763.0308.2763.0923s-.0918.1235-.3379.1543a1.6943,1.6943,0,0,0-1.14.7851c-.8008,1.0313-1.8477,2.8482-2.31,3.6026a1.795,1.795,0,0,0-.2158.6006c-.03.4926-.03,1.3857-.03,2.1093,0,.4,0,.6929.03,1.2163.0312.7237.1387.8926.6777,1,.2315.0308.3233.0772.3233.1538s-.1533.0928-.2774.0928c-.6152,0-.9082-.0771-1.4775-.0771-.5234,0-.8164.0615-1.2471.0615-.2158,0-.3232-.0459-.3232-.1231,0-.0615.1533-.1079.3388-.1386.6153-.0772.7081-.231.754-.8316.0312-.3076.0615-1.3237.0615-1.9858,0-.9546-.0156-1.2319-.03-1.4321a.866.866,0,0,0-.1084-.3384c-.5078-.9238-1.7852-3.064-2.2324-3.6953-.4922-.6773-.7695-.9082-1.2315-1-.2461-.0464-.3232-.1079-.3232-.1543C237.1543,54.7757,237.2471,54.7757,237.4473,54.7757Z"/><path class="cls-8" d="M250.32,61.72a2.9483,2.9483,0,0,1-2.9258,2.9712,2.9359,2.9359,0,0,1-1.8779-5.2343,3.1586,3.1586,0,0,1,1.8477-.647A2.89,2.89,0,0,1,250.32,61.72Zm-4.8037-.2158a3.52,3.52,0,0,0,.6465,2.1094,1.8284,1.8284,0,0,0,1.4473.8159,1.52,1.52,0,0,0,.97-.3847,3.0689,3.0689,0,0,0,.6465-2.063c0-1.4629-.7393-2.91-2.0938-2.91C246.3477,59.0711,245.5166,59.9026,245.5166,61.5037Z"/><path class="cls-8" d="M252.0771,64.0906a1.614,1.614,0,0,1-.2929-.9394c0-.5078,0-3.11-.03-3.3716a.6007.6007,0,0,0-.3389-.5083c-.1386-.0923-.1845-.1382-.1845-.1846s.0761-.0771.2461-.0771a5.3948,5.3948,0,0,0,1.2929-.2c.0469-.0151.0928.0771.0772.1694-.0459.878-.0615,2.9717-.0459,3.68a1.7084,1.7084,0,0,0,.23,1.0161,1.1316,1.1316,0,0,0,.8624.3853,1.7266,1.7266,0,0,0,1.3085-.4927.9429.9429,0,0,0,.2774-.7085c.0312-.4155.0312-1.0161.0312-1.57,0-.231-.0156-.9546-.0156-1.355-.0156-.5234-.17-.6-.6777-.708-.169-.0308-.2461-.0771-.2461-.123,0-.0621.1387-.0928.23-.0928h.6464a8.1341,8.1341,0,0,0,1.0625-.0923c.0469,0,.0772.0615.0616.1694-.0762.7237-.1075,2.2632-.1075,4.0493a5.0663,5.0663,0,0,0,.0313.7852c.03.1538.0762.1846.1992.1694a4.332,4.332,0,0,1,.6318-.1386.1851.1851,0,0,1,.1846.1694c0,.0615-.1387.0923-.2929.123a6.9468,6.9468,0,0,0-1.585.4156c-.1231.0615-.1543.0464-.1856,0s-.03-.1231-.03-.2925c0-.1538.0156-.4927.0156-.6006,0-.0459-.0156-.1538-.0469-.1074a4.43,4.43,0,0,1-1.0615.7544,2.6452,2.6452,0,0,1-.9092.2309A1.5122,1.5122,0,0,1,252.0771,64.0906Z"/><path class="cls-8" d="M261.2861,61.4578a2.5926,2.5926,0,0,0,.77,2.0015,2.188,2.188,0,0,0,1.4316.5386,2.0661,2.0661,0,0,0,1.6016-.585c.03-.0308.1074-.0459.1074,0a.3986.3986,0,0,1-.1231.2466,2.6615,2.6615,0,0,1-2.124,1.0161,2.805,2.805,0,0,1-1.9248-.7544,2.8994,2.8994,0,0,1-.7695-2.0786,2.9412,2.9412,0,0,1,.9385-2.14,3.3769,3.3769,0,0,1,2.2793-.8931,2.3419,2.3419,0,0,1,1.4.3852.3526.3526,0,0,1,.2159.2925.5263.5263,0,0,1-.3848.4927.4739.4739,0,0,1-.2617-.1543,4.23,4.23,0,0,0-.8623-.6309,1.3836,1.3836,0,0,0-.585-.1235C262.3486,59.0711,261.2861,59.6873,261.2861,61.4578Z"/><path class="cls-8" d="M269.6006,59.595a3.7148,3.7148,0,0,1,.2158,1.4009c0,.57-.0459,2.0322-.0459,2.4326a.5275.5275,0,0,0,.5693.585.9782.9782,0,0,0,.4463-.1387c.0928-.0459.1543,0,.0928.1387a1.298,1.298,0,0,1-1.1855.6621,1.0343,1.0343,0,0,1-.9082-.6929.0543.0543,0,0,0-.0772-.0156,2.1544,2.1544,0,0,1-1.5088.6929,1.2768,1.2768,0,0,1-1.2314-1.3238,1.0855,1.0855,0,0,1,.5537-.8779c.37-.2,1.77-.6157,2.0937-.7388a.2916.2916,0,0,0,.2-.2309,5.1364,5.1364,0,0,0,.0313-.7085c0-.6309-.1084-1.062-.37-1.2622a1.1728,1.1728,0,0,0-.6465-.2466,1.0589,1.0589,0,0,0-.6153.1851.6149.6149,0,0,0-.2314.3691,1.5751,1.5751,0,0,0-.0156.293.1878.1878,0,0,1-.0616.123,3.291,3.291,0,0,1-.7236.3389c-.0762.0151-.1533-.0772-.1533-.1387,0-.1079.1074-.2466.292-.4619a4.0069,4.0069,0,0,1,1.17-.8931,2.0706,2.0706,0,0,1,.9238-.2773A1.2618,1.2618,0,0,1,269.6006,59.595Zm-1.0313,4.2339a.6345.6345,0,0,0,.169-.37,10.91,10.91,0,0,0,.0771-1.4629c0-.0151-.03-.0923-.0615-.0767a8.6474,8.6474,0,0,0-1.416.5235.7966.7966,0,0,0-.3848.77.8941.8941,0,0,0,.9239.8623A1.0541,1.0541,0,0,0,268.5693,63.8289Z"/><path class="cls-8" d="M276.2529,59.3333a3.21,3.21,0,0,1,.4932,2.0166c0,.8159.0156.94.0156,1.709.0147,1.0469.0615,1.1392.4766,1.2471.1387.0615.2314.0923.2314.1538,0,.0928-.123.1079-.2773.1079-.2,0-.6465-.0615-.9854-.0615-.5234,0-.7236.0615-.9541.0615-.1386,0-.247-.0308-.247-.0923s.0927-.123.2929-.1694c.3692-.0923.4307-.2.4307-.6465V61.5657c0-1.247-.1074-1.6167-.4922-1.9091a1.3679,1.3679,0,0,0-.8779-.2925,1.8372,1.8372,0,0,0-1.2.4927.7936.7936,0,0,0-.1856.4619c0,.1845.0157.97.0157,1.8935a12.5662,12.5662,0,0,0,.0927,1.6167c.0459.3384.2305.4155.4766.4927.1855.0459.2617.0767.2617.1538,0,.0923-.1533.0923-.3076.0923-.1231,0-.877-.0615-1.2315-.0615-.2,0-.5234.0307-.8164.0307-.1689,0-.2919-.0307-.2919-.1079,0-.0615.1386-.123.3232-.1538.3848-.0771.4463-.1846.4619-.4927.03-1.1084.03-2.5249.03-3.7719,0-.1538-.03-.3233-.4-.5235-.0918-.0615-.1231-.0923-.1231-.1387,0-.0307.0772-.0771.2159-.123a5.7922,5.7922,0,0,0,1.2168-.5234c.0459-.0157.123.0459.1074.123a7.0881,7.0881,0,0,0-.0313.8159c0,.0308.0469.0772.0772.0464a5.2974,5.2974,0,0,1,1.0937-.6929,2.0767,2.0767,0,0,1,.9082-.185A1.57,1.57,0,0,1,276.2529,59.3333Z"/><path class="cls-8" d="M284.3848,59.1175a1.1248,1.1248,0,0,0,.539.0771c.292,0,.9082-.0307,1.1387-.0307.0771,0,.1387.1538.1387.3384,0,.1543-.1074.2773-.169.2773-.2158,0-.77-.0308-.9394-.0308a.1385.1385,0,0,0-.0928.0923c0,.1079.0312.354.0312.6314a2.5475,2.5475,0,0,1-.97,2.0786,2.1239,2.1239,0,0,1-1.2011.4,3.7133,3.7133,0,0,1-.6465-.0767.2981.2981,0,0,0-.1856.0459,2.3487,2.3487,0,0,0-.5381.5083.49.49,0,0,0-.17.3384c0,.4932.6309.647,1.4317.647.4775,0,1.3242-.0464,1.7558-.0464a1.59,1.59,0,0,1,1.7246,1.709,3.108,3.108,0,0,1-1.7246,2.51,3.6778,3.6778,0,0,1-1.8633.5079c-1.2314,0-2.2636-.585-2.2636-1.7242a.9821.9821,0,0,1,.2773-.6621c.1084-.123.6777-.8467.9854-1.1855.0156-.0308.0312-.1231-.0157-.1387-.4306-.0923-1.247-.6313-1.247-1.2471a.1912.1912,0,0,1,.0927-.1538,6.77,6.77,0,0,0,1.2784-1.1391c.0146-.0157,0-.0772-.0313-.0928a2.3232,2.3232,0,0,1-1.1855-1.9243,1.86,1.86,0,0,1,.6464-1.4781,2.3688,2.3688,0,0,1,1.6319-.6313A3.4907,3.4907,0,0,1,284.3848,59.1175Zm-2.5713,8.9912a2.1042,2.1042,0,0,0,1.4619.4619,2.3961,2.3961,0,0,0,1.4326-.3691,2.0572,2.0572,0,0,0,.8311-1.586c0-.6469-.4-1.2163-1.3858-1.2163-.5849,0-1.34.0152-1.7549.0308a.9448.9448,0,0,0-.5234.1387,1.947,1.947,0,0,0-.6621,1.37A1.5727,1.5727,0,0,0,281.8135,68.1087Zm.1377-8.8374a2.1575,2.1575,0,0,0-.4151,1.355,2.7869,2.7869,0,0,0,.4776,1.6474,1.256,1.256,0,0,0,.9541.4463c.708,0,1.17-.8466,1.17-1.5547a2.7551,2.7551,0,0,0-.4766-1.7246,1.0846,1.0846,0,0,0-.9238-.5234A1.1587,1.1587,0,0,0,281.9512,59.2713Z"/><path class="cls-8" d="M291.3447,60.38a.1809.1809,0,0,1-.1543.1689c-.123-.0151-2.125-.0459-2.4785-.0459h-.831c-.0313,0-.1084.0772-.1387.1231a2.113,2.113,0,0,0-.1231.8467,2.76,2.76,0,0,0,.708,1.8632,2.0773,2.0773,0,0,0,1.5391.6309,1.9631,1.9631,0,0,0,1.4629-.4927c.123-.123.1846-.0923.1846-.0151a.5861.5861,0,0,1-.1533.2461,2.7225,2.7225,0,0,1-2.1407.97,2.4855,2.4855,0,0,1-1.832-.7852,3.01,3.01,0,0,1-.7393-2.0629,3.21,3.21,0,0,1,.8936-2.2481,2.8625,2.8625,0,0,1,1.9238-.77A1.7768,1.7768,0,0,1,291.3447,60.38Zm-3.1406-.7852a1.3438,1.3438,0,0,0-.3232.6309.0657.0657,0,0,0,.0615.0615l2.001-.0151c.3388,0,.3691-.1695.3691-.3081a.9921.9921,0,0,0-.2148-.6465,1.08,1.08,0,0,0-.7706-.2925A1.5957,1.5957,0,0,0,288.2041,59.595Z"/><path class="cls-8" d="M292.87,63.9363a1.7322,1.7322,0,0,1-.1846-.8774v-3.187c0-.1694-.0156-.2769-.0771-.3081a2.5273,2.5273,0,0,0-.3691-.0923c-.1231-.0308-.2-.0767-.2-.1382,0-.0312.0156-.0771.1845-.1543a3.2814,3.2814,0,0,0,1.2627-1.0312c.1387-.1543.2461-.1236.2461-.0464,0,.1387-.03.57-.0146.7544,0,.0464.0146.1386.0761.1386.2774,0,1.5557-.0463,1.879-.0463.03,0,.0917.1079.0917.2158,0,.2617-.0761.3847-.1533.3847-.539,0-1.2939-.0156-1.709-.0156-.1845,0-.2158.0464-.2158.1387,0,.2617.0156,2.6792.0313,3.1562a1.5785,1.5785,0,0,0,.1689.8316,1.1378,1.1378,0,0,0,.9541.4155,1.5091,1.5091,0,0,0,.8477-.2309c.1074-.0772.1533-.0616.1533,0,0,.0922-.1387.2465-.3389.4a2.1115,2.1115,0,0,1-1.247.4A1.4269,1.4269,0,0,1,292.87,63.9363Z"/><path class="cls-8" d="M299.3223,63.9363a1.7312,1.7312,0,0,1-.1846-.8774v-3.187c0-.1694-.0156-.2769-.0772-.3081a2.5239,2.5239,0,0,0-.3691-.0923c-.123-.0308-.2-.0767-.2-.1382,0-.0312.0156-.0771.1846-.1543a3.2828,3.2828,0,0,0,1.2627-1.0312c.1386-.1543.2461-.1236.2461-.0464,0,.1387-.03.57-.0147.7544,0,.0464.0147.1386.0762.1386.2773,0,1.5557-.0463,1.8789-.0463.03,0,.0918.1079.0918.2158,0,.2617-.0762.3847-.1533.3847-.5391,0-1.294-.0156-1.709-.0156-.1846,0-.2158.0464-.2158.1387,0,.2617.0156,2.6792.0312,3.1562a1.5782,1.5782,0,0,0,.169.8316,1.1377,1.1377,0,0,0,.9541.4155,1.5087,1.5087,0,0,0,.8476-.2309c.1074-.0772.1533-.0616.1533,0,0,.0922-.1386.2465-.3388.4a2.11,2.11,0,0,1-1.2471.4A1.4268,1.4268,0,0,1,299.3223,63.9363Z"/><path class="cls-8" d="M304.4668,59.9183a.7721.7721,0,0,0-.1543.5693,30.4124,30.4124,0,0,0,.0771,3.3106.5437.5437,0,0,0,.4922.5234c.2315.0459.3389.0767.3389.1538,0,.0464-.0918.0923-.2305.0923-.4316,0-.832-.0615-1.2783-.0615-.4775,0-.708.0615-1.001.0615-.1689,0-.2461-.0308-.2461-.0923s.0616-.0923.2461-.1387c.4473-.1079.5547-.1538.57-.7387.0459-.6162.0616-2.0323.0616-4.48,0-2.3247.03-3.2642,0-3.8491-.0157-.4927-.1231-.5386-.4619-.7237-.0616-.0459-.1084-.0766-.1084-.123s.0927-.0923.2617-.1387a6.3516,6.3516,0,0,0,1.124-.37.3382.3382,0,0,1,.1543-.0615c.0459,0,.0928.1079.0771.3237-.0156.4155-.0771,5.1885-.0615,5.481,0,.0615.0459.0766.0615.0459a5.0544,5.0544,0,0,1,.9239-.6314,2.42,2.42,0,0,1,1.0771-.2617,1.64,1.64,0,0,1,1.3858.6929,2.9692,2.9692,0,0,1,.3388,1.6474c.0157,1.1548.0157,2.1094.0313,2.6944,0,.3081.0615.416.5234.4926.2.0464.2461.0772.2461.1387s-.1074.1079-.2461.1079c-.4,0-.6933-.0771-1.1084-.0771-.5234,0-.6474.0615-1.001.0615-.1845,0-.246-.0459-.246-.0923,0-.0615.0761-.0923.23-.123.416-.0923.4463-.2.5078-.647.0313-.354.0616-1.0313.0616-2.6323a2.4657,2.4657,0,0,0-.2305-1.1548,1.1526,1.1526,0,0,0-1.0625-.57A1.8586,1.8586,0,0,0,304.4668,59.9183Z"/><path class="cls-8" d="M314.3066,60.38a.1809.1809,0,0,1-.1543.1689c-.123-.0151-2.125-.0459-2.4785-.0459h-.831c-.0313,0-.1084.0772-.1387.1231a2.1111,2.1111,0,0,0-.124.8467,2.7606,2.7606,0,0,0,.709,1.8632,2.0769,2.0769,0,0,0,1.539.6309,1.963,1.963,0,0,0,1.4629-.4927c.1231-.123.1846-.0923.1846-.0151a.585.585,0,0,1-.1533.2461,2.7223,2.7223,0,0,1-2.1407.97,2.4855,2.4855,0,0,1-1.832-.7852,3.01,3.01,0,0,1-.7392-2.0629,3.21,3.21,0,0,1,.8935-2.2481,2.8625,2.8625,0,0,1,1.9238-.77A1.7768,1.7768,0,0,1,314.3066,60.38Zm-3.1406-.7852a1.3438,1.3438,0,0,0-.3232.6309.0657.0657,0,0,0,.0615.0615l2.001-.0151c.3388,0,.3691-.1695.3691-.3081a.9921.9921,0,0,0-.2148-.6465,1.08,1.08,0,0,0-.77-.2925A1.5957,1.5957,0,0,0,311.166,59.595Z"/><path class="cls-8" d="M318.5879,59.9949c0,.647.585,1.0161.9707,1.2471,1,.647,1.4,1.0317,1.4,1.8169a1.58,1.58,0,0,1-.8008,1.2935,2.555,2.555,0,0,1-1.2314.3383,3.1382,3.1382,0,0,1-1.2159-.2768c-.123-.0464-.2314-.1538-.2314-.2466,0-.2153-.03-.6-.0459-.77-.0313-.2.0156-.2466.0459-.2466.0459,0,.0928,0,.2.2925a1.5019,1.5019,0,0,0,.6465.8315,1.18,1.18,0,0,0,.6933.1846,1.0556,1.0556,0,0,0,1.001-1.0313c0-.5849-.4-.9087-1.0166-1.2934-.6621-.4312-1.2783-1.0005-1.2783-1.6783a1.4607,1.4607,0,0,1,.5859-1.2163,1.988,1.988,0,0,1,1.293-.4311,3.7658,3.7658,0,0,1,1.0469.1694.2534.2534,0,0,1,.0771.1387c.0156.1694.0772.4775.0918.7236,0,.1695-.03.2466-.0762.2466-.0625,0-.0927-.0771-.1386-.1851a1.17,1.17,0,0,0-.37-.6313,1.2635,1.2635,0,0,0-.7237-.231A.8973.8973,0,0,0,318.5879,59.9949Z"/><path class="cls-8" d="M322.5605,63.9363a1.7323,1.7323,0,0,1-.1845-.8774v-3.187c0-.1694-.0156-.2769-.0772-.3081a2.5239,2.5239,0,0,0-.3691-.0923c-.1231-.0308-.2-.0767-.2-.1382,0-.0312.0156-.0771.1846-.1543a3.2828,3.2828,0,0,0,1.2627-1.0312c.1386-.1543.2461-.1236.2461-.0464,0,.1387-.03.57-.0147.7544,0,.0464.0147.1386.0762.1386.2773,0,1.5556-.0463,1.8789-.0463.03,0,.0918.1079.0918.2158,0,.2617-.0762.3847-.1533.3847-.5391,0-1.294-.0156-1.709-.0156-.1846,0-.2158.0464-.2158.1387,0,.2617.0156,2.6792.0312,3.1562a1.58,1.58,0,0,0,.1689.8316,1.1378,1.1378,0,0,0,.9541.4155,1.5091,1.5091,0,0,0,.8477-.2309c.1074-.0772.1533-.0616.1533,0,0,.0922-.1386.2465-.3388.4a2.11,2.11,0,0,1-1.2471.4A1.427,1.427,0,0,1,322.5605,63.9363Z"/><path class="cls-8" d="M331.8,61.72a2.9483,2.9483,0,0,1-2.9248,2.9712,2.9359,2.9359,0,0,1-1.8789-5.2343,3.1638,3.1638,0,0,1,1.8477-.647A2.8892,2.8892,0,0,1,331.8,61.72Zm-4.8037-.2158a3.5217,3.5217,0,0,0,.6475,2.1094,1.8283,1.8283,0,0,0,1.4472.8159,1.52,1.52,0,0,0,.97-.3847,3.0684,3.0684,0,0,0,.6465-2.063c0-1.4629-.7392-2.91-2.0937-2.91C327.8281,59.0711,326.9961,59.9026,326.9961,61.5037Z"/><path class="cls-8" d="M334.665,59.9334a.8881.8881,0,0,0-.2617.5391,9.0074,9.0074,0,0,0-.0156.9389c0,1.14.0312,1.94.0615,2.2632.0615.4776.2471.5855.832.647.2149.0308.292.0615.292.1382s-.1386.1079-.3691.1079c-.293,0-.8008-.0615-1.4473-.0615a8.3345,8.3345,0,0,0-.9394.0922c-.1846,0-.2617-.0307-.2617-.0922,0-.0464.1084-.1231.2314-.1538a.6364.6364,0,0,0,.5537-.6314c.0313-.2617.0469-1.1392.0469-2.1553V59.8568c0-.108-.1084-.1543-.4-.4-.1084-.0772-.123-.1231-.123-.1543s.0918-.0923.23-.1382a4.68,4.68,0,0,0,.9854-.37.4849.4849,0,0,1,.2314-.0772c.03,0,.0615.0615.0615.2158,0,.17-.0156.7544-.0156,1.0005,0,.0464.03.0615.0772.0156a2.5124,2.5124,0,0,1,1.6621-1.1089.8968.8968,0,0,1,.539.2.27.27,0,0,1,.1084.2159,1.0555,1.0555,0,0,1-.3388.5234c-.1387.123-.2.1387-.2471.1387a.6971.6971,0,0,1-.2764-.1079,1.08,1.08,0,0,0-.539-.1846A1.0519,1.0519,0,0,0,334.665,59.9334Z"/><path class="cls-8" d="M339.4092,58.9481c.1533,0,.2617.0463.2617.1079s-.1084.1079-.2.123c-.3389.1079-.37.1851-.2314.585.2.539,1.0468,2.6177,1.3554,3.2641.03.0616.0762.0464.0918,0,.2-.5234,1.0625-2.7407,1.1856-3.0947a1.1522,1.1522,0,0,0,.0771-.4463c0-.1079-.0771-.2309-.3388-.3081-.2305-.0459-.2774-.0923-.2774-.1387,0-.0615.0772-.0922.2158-.0922.1846,0,.5078.0463.7393.0463.2773,0,.4775-.0463.708-.0463.0928,0,.1846.0156.1846.0615s-.0616.1079-.2149.1543c-.3086.0923-.4619.2-.709.77-.1845.3853-1.1386,2.7559-1.37,3.3413-.1846.5078-.3232.8618-.6465,1.6934-.3691.893-.9541,2.4941-1.17,3.0176a2.0977,2.0977,0,0,1-.293.57.5792.5792,0,0,1-.5078.2617.5119.5119,0,0,1-.5078-.5083.4542.4542,0,0,1,.4307-.4463c.1084,0,.2.0308.3086.0308a.3714.3714,0,0,0,.3994-.2617c.1543-.3233.6006-1.586,1.124-2.9253a.6627.6627,0,0,0-.0146-.4927c-.0928-.2466-1.2168-3.0947-1.9092-4.6035a.8262.8262,0,0,0-.5547-.4156c-.1846-.0463-.2773-.1079-.2773-.1543,0-.0766.1386-.1074.247-.1074.2764,0,.708.0615,1.0772.0615C338.8086,58.9944,339.209,58.9481,339.4092,58.9481Z"/><path class="cls-8" d="M243.59,78.5189a2.9483,2.9483,0,0,1-2.9248,2.9716,2.9359,2.9359,0,0,1-1.8789-5.2343,3.161,3.161,0,0,1,1.8477-.6465A2.889,2.889,0,0,1,243.59,78.5189Zm-4.8037-.2149a3.53,3.53,0,0,0,.6465,2.1094,1.8318,1.8318,0,0,0,1.4473.8154,1.5229,1.5229,0,0,0,.9707-.3847,3.069,3.069,0,0,0,.6465-2.0635c0-1.4619-.7393-2.9092-2.0938-2.9092C239.6172,75.8714,238.7861,76.7025,238.7861,78.304Z"/><path class="cls-8" d="M245.1777,76.5638c0-.1074-.0156-.1846-.0771-.2-.0772,0-.2461,0-.4307-.0156-.1084-.0147-.2-.0918-.2-.1231,0-.0459.0762-.0918.1846-.1533s.2305-.1387.3691-.2315a.2975.2975,0,0,0,.1543-.2158A9.831,9.831,0,0,1,245.44,73.1a3.545,3.545,0,0,1,1.5546-2.0478,2.52,2.52,0,0,1,1.3858-.4156c.6308,0,1.0469.2618,1.0469.4927a.7542.7542,0,0,1-.3848.5078.2769.2769,0,0,1-.3076-.0307,1.82,1.82,0,0,0-1.0938-.5235c-.6924,0-1.2314.4468-1.3857,2.0943-.0459.477-.0762,1.57-.0762,2.0478a4.7033,4.7033,0,0,0,.0147.4922.1217.1217,0,0,0,.124.0928c.1377,0,1.4463-.0313,1.6162-.0313.0615,0,.123.0928.123.2774,0,.2158-.0312.2773-.2158.2773-.2461,0-1.3545-.0312-1.57-.0312-.0459,0-.0771.123-.0771.1386,0,.5694.0312,3.3721.0468,3.8184.0459.585.169.708.3233.7539.123.0469.292.0469.4922.0928.1845.0459.2773.0771.2773.1386,0,.0772-.1074.1075-.2461.1075-.4463,0-.6933-.0459-1.4785-.0459-.3535,0-.6924.0459-.9541.0615-.1387,0-.2314-.03-.2314-.0928s.1083-.1074.3085-.1533c.3692-.0928.4463-.3086.4463-.8623Z"/><path class="cls-8" d="M250.9209,71.5755c.4775,0,.9707.0771,1.3857.0771.4776,0,.9082-.0615,1.2627-.0615.1846,0,.2461.0308.2461.0767,0,.0771-.0918.1235-.2148.1543-.6318.123-.6621.2153-.709,1.2778-.0146.2617-.03,1.6777-.03,3.0791,0,1.4629.0157,3.002.03,3.2949a2.8535,2.8535,0,0,0,.2158,1.2159c.169.2314.585.3857,1.8321.3857a6.7766,6.7766,0,0,0,1.3554-.0771c.3379-.0616.6768-.4473.9854-1.001.1074-.1846.1845-.2461.2461-.2461s.0459.2305-.0313.4306c-.0459.1231-.3389.97-.4,1.0782a.365.365,0,0,1-.3232.1533c-.1533,0-1.3242.0156-2.0781-.03-.77-.0312-1.8789-.0771-2.417-.0771-.4776,0-1.1709.0771-1.3858.0771-.1845,0-.3232-.0156-.3232-.1084,0-.0615.1387-.1074.2764-.123.6621-.1231.7548-.3389.8007-.8155.0616-.6162.0616-1.6318.0616-3.7568,0-2.0937-.0147-3.1562-.0459-3.68-.0459-.8774-.0928-.97-.754-1.0932-.1855-.0308-.2314-.0767-.2314-.1387C250.6748,71.6219,250.7676,71.5755,250.9209,71.5755Z"/><path class="cls-8" d="M262.0234,76.3948a3.7136,3.7136,0,0,1,.2159,1.4c0,.57-.0459,2.0332-.0459,2.4326a.5272.5272,0,0,0,.5693.585.9821.9821,0,0,0,.4463-.1377c.0928-.0469.1543,0,.0928.1377a1.2972,1.2972,0,0,1-1.1856.6621,1.0332,1.0332,0,0,1-.9082-.6924.0533.0533,0,0,0-.0771-.0156,2.1537,2.1537,0,0,1-1.5088.6934,1.277,1.277,0,0,1-1.2315-1.3243,1.0849,1.0849,0,0,1,.5537-.8779c.37-.2,1.7705-.6152,2.0938-.7392a.2908.2908,0,0,0,.2-.2305,5.1526,5.1526,0,0,0,.0312-.708c0-.6319-.1084-1.0625-.37-1.2627a1.1675,1.1675,0,0,0-.6465-.2461,1.0581,1.0581,0,0,0-.6152.1846.6143.6143,0,0,0-.2315.3691,1.57,1.57,0,0,0-.0156.293.1888.1888,0,0,1-.0615.123,3.3142,3.3142,0,0,1-.7236.3389c-.0762.0156-.1534-.0772-.1534-.1387,0-.1074.1075-.2461.292-.4619a3.9943,3.9943,0,0,1,1.17-.8926,2.0577,2.0577,0,0,1,.9238-.2773A1.2612,1.2612,0,0,1,262.0234,76.3948Zm-1.0312,4.2334a.6328.6328,0,0,0,.1689-.3691,10.9109,10.9109,0,0,0,.0772-1.4629c0-.0156-.03-.0918-.0615-.0771a8.7343,8.7343,0,0,0-1.4161.5234.798.798,0,0,0-.3847.77.8944.8944,0,0,0,.9238.8623A1.0527,1.0527,0,0,0,260.9922,80.6282Z"/><path class="cls-8" d="M265.0117,76.7952c0,.6465.585,1.0157.97,1.2471,1.001.6465,1.4014,1.0312,1.4014,1.8164a1.58,1.58,0,0,1-.8008,1.293,2.5558,2.5558,0,0,1-1.2314.3388,3.1252,3.1252,0,0,1-1.2168-.2773c-.1231-.0459-.2305-.1533-.2305-.2461,0-.2158-.0312-.6006-.0459-.77-.0312-.2.0147-.2461.0459-.2461.0459,0,.0928,0,.2.292a1.5031,1.5031,0,0,0,.6465.832,1.1843,1.1843,0,0,0,.6934.1846,1.0554,1.0554,0,0,0,1-1.0323c0-.5849-.4-.9082-1.0157-1.2929-.6621-.4307-1.2783-1.001-1.2783-1.6778a1.46,1.46,0,0,1,.585-1.2168,1.9956,1.9956,0,0,1,1.2939-.4306,3.7822,3.7822,0,0,1,1.0469.1689.2563.2563,0,0,1,.0771.1387c.0147.1689.0762.4775.0918.7236,0,.169-.03.2461-.0771.2461-.0615,0-.0918-.0771-.1387-.1845a1.1672,1.1672,0,0,0-.3691-.6309,1.2629,1.2629,0,0,0-.7237-.2315A.8975.8975,0,0,0,265.0117,76.7952Z"/><path class="cls-8" d="M270.6328,71.5911c.3535.0152,1.293.0615,1.7861.0615.0616,0,.1377.0616.2.2154.6612,1.4629,2.8321,5.7739,3.8028,7.59.0459.0928.0761.0313.1386-.0615.9083-1.7393,2.8633-5.5425,3.2325-6.2969a12.6581,12.6581,0,0,0,.4619-1.2471c.0156-.0307.0771-.2.1543-.2.4306,0,1.247-.0922,1.6777-.0922.1543,0,.2471.0307.2471.0922s-.1231.1231-.2315.1387c-.9082.2154-.97.3848-1.0156,1.293-.0312.5234-.0469,2.3711-.0469,3.1406,0,1.6787.0616,3.2031.0928,3.6953.0615.8926.2305,1.0313.8311,1.2168.1386.0459.247.0918.247.169,0,.0615-.0927.0927-.2773.0927-.293,0-1.124-.0927-1.54-.0927-.6309,0-1.0469.0312-1.2774.0312-.1543,0-.3232-.0156-.3232-.124,0-.0615.1533-.1231.3076-.1377.6465-.17.7539-.416.8008-1.6943.0459-.8311.0459-4.9571.0459-5.65,0-.1543-.0459-.1543-.0772-.062-1.0312,2.0634-2.9248,5.7587-3.664,7.4062-.0772.1846-.1387.2764-.2315.2764-.0762,0-.1846-.2461-.3232-.5391-.7237-1.5547-2.7705-5.835-3.3565-7.02-.0761-.1387-.1074-.1387-.1377.0766-.0615.8936-.2314,4.8809-.2314,5.5118a3.8456,3.8456,0,0,0,.0928,1.124.9012.9012,0,0,0,.7851.6162c.169.03.2617.0918.2617.1533,0,.0928-.1386.124-.3086.1084-.1845-.0156-.7382-.0771-1.2929-.0771s-.97.0927-1.1241.0927c-.2,0-.2773-.0312-.2773-.1084,0-.0459.0625-.1074.2773-.1533a1.1576,1.1576,0,0,0,.8321-.4931,4.4218,4.4218,0,0,0,.3232-1.6631c.0918-.9082.3076-4.3262.3076-5.3115,0-.9234-.0927-1.1392-.3545-1.4468a1.3079,1.3079,0,0,0-.8466-.4c-.1387-.0308-.2461-.0923-.2461-.1543S270.4941,71.5755,270.6328,71.5911Z"/><path class="cls-8" d="M287.5723,77.18a.1805.1805,0,0,1-.1543.1689c-.1231-.0156-2.125-.0459-2.4785-.0459h-.8311c-.0313,0-.1084.0772-.1387.1231a2.1128,2.1128,0,0,0-.124.8467,2.76,2.76,0,0,0,.709,1.8632,2.077,2.077,0,0,0,1.5391.6309,1.9667,1.9667,0,0,0,1.4628-.4922c.1231-.123.1846-.0928.1846-.0156a.585.585,0,0,1-.1533.2461,2.7218,2.7218,0,0,1-2.1406.97,2.484,2.484,0,0,1-1.8321-.7851,3.0084,3.0084,0,0,1-.7392-2.0625,3.2064,3.2064,0,0,1,.8935-2.2481,2.8627,2.8627,0,0,1,1.9239-.7695A1.7764,1.7764,0,0,1,287.5723,77.18Zm-3.1407-.7852a1.3416,1.3416,0,0,0-.3232.6309.0654.0654,0,0,0,.0615.0615l2.001-.0156c.3389,0,.3691-.169.3691-.3076a.9921.9921,0,0,0-.2148-.6465,1.0779,1.0779,0,0,0-.77-.293A1.5966,1.5966,0,0,0,284.4316,76.3948Z"/><path class="cls-8" d="M290.2979,76.7337a.886.886,0,0,0-.2618.5381,9.0514,9.0514,0,0,0-.0156.9394c0,1.14.0313,1.9405.0615,2.2637.0616.4766.2471.585.8321.6465.2148.03.292.0615.292.1387s-.1387.1074-.3692.1074c-.293,0-.8008-.0615-1.4473-.0615a8.2939,8.2939,0,0,0-.9394.0927c-.1846,0-.2617-.0312-.2617-.0927,0-.0459.1084-.1231.2314-.1543a.6346.6346,0,0,0,.5537-.6309c.0313-.2617.0469-1.14.0469-2.1553V76.6566c0-.1084-.1084-.1543-.4-.4-.1084-.0772-.123-.1231-.123-.1543s.0918-.0918.23-.1387a4.6231,4.6231,0,0,0,.9854-.3691.4852.4852,0,0,1,.2314-.0772c.03,0,.0616.0615.0616.2158,0,.169-.0157.7539-.0157,1.001,0,.0459.03.0615.0772.0147A2.515,2.515,0,0,1,291.73,75.64a.897.897,0,0,1,.5391.2.27.27,0,0,1,.1084.2159,1.0551,1.0551,0,0,1-.3389.5234c-.1387.1231-.2.1387-.2471.1387a.6919.6919,0,0,1-.2764-.1084,1.085,1.085,0,0,0-.539-.1846A1.0484,1.0484,0,0,0,290.2979,76.7337Z"/><path class="cls-8" d="M293.7178,78.2571a2.5888,2.5888,0,0,0,.7695,2.002,2.1912,2.1912,0,0,0,1.4316.5391,2.0692,2.0692,0,0,0,1.6016-.585c.03-.0313.1074-.0469.1074,0a.3963.3963,0,0,1-.123.2461,2.6639,2.6639,0,0,1-2.125,1.0156,2.806,2.806,0,0,1-1.9238-.7539,2.9,2.9,0,0,1-.7706-2.0781,2.9424,2.9424,0,0,1,.94-2.1406,3.376,3.376,0,0,1,2.2783-.8926,2.3446,2.3446,0,0,1,1.4014.3847.3547.3547,0,0,1,.2158.292.5263.5263,0,0,1-.3848.4932.4708.4708,0,0,1-.2617-.1543,4.252,4.252,0,0,0-.8623-.6309,1.3778,1.3778,0,0,0-.5849-.123C294.7793,75.8714,293.7178,76.4866,293.7178,78.2571Z"/><path class="cls-8" d="M302.9727,77.18a.1805.1805,0,0,1-.1543.1689c-.1231-.0156-2.125-.0459-2.4786-.0459h-.831c-.0313,0-.1084.0772-.1387.1231a2.1128,2.1128,0,0,0-.124.8467,2.76,2.76,0,0,0,.709,1.8632,2.0769,2.0769,0,0,0,1.539.6309,1.9668,1.9668,0,0,0,1.4629-.4922c.1231-.123.1846-.0928.1846-.0156a.585.585,0,0,1-.1533.2461,2.7218,2.7218,0,0,1-2.1406.97,2.484,2.484,0,0,1-1.8321-.7851,3.0084,3.0084,0,0,1-.7392-2.0625,3.21,3.21,0,0,1,.8935-2.2481,2.8625,2.8625,0,0,1,1.9239-.7695A1.7764,1.7764,0,0,1,302.9727,77.18Zm-3.1407-.7852a1.3416,1.3416,0,0,0-.3232.6309.0654.0654,0,0,0,.0615.0615l2.001-.0156c.3389,0,.3691-.169.3691-.3076a.9921.9921,0,0,0-.2148-.6465,1.0779,1.0779,0,0,0-.77-.293A1.5966,1.5966,0,0,0,299.832,76.3948Z"/><path class="cls-8" d="M308.1,75.763c.0313.0156.0772-.0459.0772-.0762,0-.2773-.0157-3.0029-.03-3.8188a.4135.4135,0,0,0-.0615-.2617.842.842,0,0,0-.4317-.2461c-.1074-.0308-.1845-.0772-.1845-.1231s.0771-.0928.1845-.1079a6.4853,6.4853,0,0,0,1.3242-.37.5189.5189,0,0,1,.2159-.0772c.0459,0,.0771.0772.0615.2618-.0313.4619-.1084,5.4663-.1084,7.0366,0,1.3388.0156,2.4013.0312,2.8017a.1366.1366,0,0,0,.1075.1387,3.9774,3.9774,0,0,0,.7236-.17c.0928-.03.1387.0156.1387.0615,0,.1084-.1075.2471-.3848.293a8.6624,8.6624,0,0,0-1.6016.4c-.0615.0156-.1074-.0616-.1074-.1075a4.7794,4.7794,0,0,0,.0313-.6318c0-.03-.0313-.0615-.0616-.03a2.8923,2.8923,0,0,1-1.7558.7237,2.5071,2.5071,0,0,1-1.6319-.6475,2.9157,2.9157,0,0,1-.8007-2.0625,3.0614,3.0614,0,0,1,1.34-2.54,3.4592,3.4592,0,0,1,1.9092-.586A4.2562,4.2562,0,0,1,308.1,75.763Zm-2.2939.416a2.7347,2.7347,0,0,0-.8467,2.2324c0,1.6631.9394,2.5254,1.8789,2.5254a1.61,1.61,0,0,0,1.0928-.4,1.0341,1.0341,0,0,0,.1689-.57,21.268,21.268,0,0,0-.0146-2.9707,1.0351,1.0351,0,0,0-.1387-.37,1.7147,1.7147,0,0,0-1.37-.708A1.14,1.14,0,0,0,305.8057,76.179Z"/><path class="cls-8" d="M315.3691,77.18a.18.18,0,0,1-.1543.1689c-.123-.0156-2.125-.0459-2.4785-.0459h-.831c-.0313,0-.1084.0772-.1387.1231a2.1128,2.1128,0,0,0-.124.8467,2.76,2.76,0,0,0,.709,1.8632,2.0769,2.0769,0,0,0,1.539.6309,1.9668,1.9668,0,0,0,1.4629-.4922c.1231-.123.1846-.0928.1846-.0156a.585.585,0,0,1-.1533.2461,2.7218,2.7218,0,0,1-2.1407.97,2.4839,2.4839,0,0,1-1.832-.7851,3.0084,3.0084,0,0,1-.7392-2.0625,3.21,3.21,0,0,1,.8935-2.2481A2.8622,2.8622,0,0,1,313.49,75.61,1.7764,1.7764,0,0,1,315.3691,77.18Zm-3.1406-.7852a1.3416,1.3416,0,0,0-.3232.6309.0653.0653,0,0,0,.0615.0615l2.001-.0156c.3388,0,.3691-.169.3691-.3076a.9921.9921,0,0,0-.2148-.6465,1.0779,1.0779,0,0,0-.77-.293A1.5964,1.5964,0,0,0,312.2285,76.3948Z"/><path class="cls-8" d="M317.3711,76.7952c0,.6465.585,1.0157.9707,1.2471,1,.6465,1.4,1.0312,1.4,1.8164a1.5781,1.5781,0,0,1-.8008,1.293,2.55,2.55,0,0,1-1.2314.3388,3.1215,3.1215,0,0,1-1.2159-.2773c-.123-.0459-.2314-.1533-.2314-.2461,0-.2158-.03-.6006-.0459-.77-.0313-.2.0156-.2461.0459-.2461.0459,0,.0928,0,.2.292a1.5066,1.5066,0,0,0,.6465.832,1.1841,1.1841,0,0,0,.6933.1846,1.0562,1.0562,0,0,0,1.001-1.0323c0-.5849-.4-.9082-1.0166-1.2929-.6621-.4307-1.2783-1.001-1.2783-1.6778a1.46,1.46,0,0,1,.5859-1.2168,1.9908,1.9908,0,0,1,1.293-.4306,3.7691,3.7691,0,0,1,1.0469.1689.2569.2569,0,0,1,.0771.1387c.0156.1689.0772.4775.0918.7236,0,.169-.03.2461-.0762.2461-.0625,0-.0927-.0771-.1386-.1845a1.1691,1.1691,0,0,0-.37-.6309,1.2629,1.2629,0,0,0-.7237-.2315A.8975.8975,0,0,0,317.3711,76.7952Z"/><path class="cls-8" d="M325.918,71.6063c.1845,0,.23.0463.23.0922,0,.0621-.123.108-.2617.1387-.6162.1236-.6777.3389-.6924,1.6939,0,.4311-.0156,1.97,0,2.4018,0,.2158.0459.23.1075.2.23-.2.4306-.3545.7236-.6465.4619-.4472,2.4482-2.4482,2.833-2.91.1689-.2158.2617-.3081.2617-.416,0-.1382-.17-.2-.4931-.2618-.1846-.0307-.2461-.0922-.2461-.1381,0-.0621.1074-.108.2461-.108.3232,0,.5849.0152,1.0009,0,.6006-.0307,1.2315-.0771,1.4785-.0771.169,0,.2149.0464.2149.0771,0,.0616-.0918.1231-.2617.1539a3.4464,3.4464,0,0,0-1.8008.9545c-.6006.5235-2.002,1.8785-2.91,2.8018a.4322.4322,0,0,0-.0771.1387c0,.0312.0459.0928.123.1855.585.6612,3.418,3.8643,4.1416,4.5567a1.9265,1.9265,0,0,0,1.1553.6464c.2305.0616.3076.1231.3076.1846,0,.0928-.1543.124-.2929.124-.3848,0-1.2618-.0927-1.8165-.0927-.5234,0-.8779.0459-1.0781.0459-.1845,0-.292-.03-.292-.1231,0-.0459.0459-.1074.2461-.1689.3389-.0615.4-.1387.4-.2315,0-.1074-.0928-.2461-.2617-.415-1.1855-1.417-3.2637-3.665-3.4951-3.9268a.4421.4421,0,0,0-.1387-.1074c-.0615,0-.0615.0772-.0762.2617v1.8164c0,.7852.03,1.7862.0616,2.0938.0459.3545.2461.4619.6621.5547.2148.0459.3076.0927.3076.1689s-.1543.1084-.293.1084c-.3847,0-.7236-.0771-1.3388-.0771-.5235,0-1.0323.0771-1.2627.0771-.1846,0-.2618-.0615-.2618-.1084,0-.0615.0459-.1074.2774-.1533.4619-.1084.6006-.2773.6308-.6006.0459-.3389.0928-1.3242.0928-4.665.0147-1.2471-.0156-2.9409-.0469-3.3565-.0615-.5385-.2617-.5849-.6923-.6928-.1075-.0459-.2159-.0767-.2159-.1387s.0928-.0923.2315-.0923c.3379,0,.9238.0771,1.3232.0771C325.1318,71.6526,325.4863,71.6063,325.918,71.6063Z"/><path class="cls-8" d="M332.8174,71.5911c.3545.0152,1.293.0615,1.7861.0615.0615,0,.1387.0616.2.2154.6621,1.4629,2.833,5.7739,3.8027,7.59.0459.0928.0772.0313.1387-.0615.9082-1.7393,2.8633-5.5425,3.2334-6.2969a13.1352,13.1352,0,0,0,.4619-1.2471c.0147-.0307.0762-.2.1534-.2.4316,0,1.247-.0922,1.6787-.0922.1533,0,.2461.0307.2461.0922s-.1231.1231-.2315.1387c-.9082.2154-.97.3848-1.0156,1.293-.0313.5234-.0459,2.3711-.0459,3.1406,0,1.6787.0615,3.2031.0918,3.6953.0615.8926.2314,1.0313.832,1.2168.1377.0459.2461.0918.2461.169,0,.0615-.0928.0927-.2773.0927-.293,0-1.1241-.0927-1.54-.0927-.6308,0-1.0469.0312-1.2773.0312-.1543,0-.3233-.0156-.3233-.124,0-.0615.1534-.1231.3077-.1377.6464-.17.7548-.416.8007-1.6943.0459-.8311.0459-4.9571.0459-5.65,0-.1543-.0459-.1543-.0771-.062-1.0313,2.0634-2.9248,5.7587-3.6641,7.4062-.0771.1846-.1386.2764-.23.2764-.0772,0-.1846-.2461-.3233-.5391-.7236-1.5547-2.7715-5.835-3.3564-7.02-.0772-.1387-.1084-.1387-.1387.0766-.0615.8936-.2314,4.8809-.2314,5.5118a3.85,3.85,0,0,0,.0927,1.124.9015.9015,0,0,0,.7852.6162c.1689.03.2617.0918.2617.1533,0,.0928-.1387.124-.3076.1084-.1846-.0156-.7393-.0771-1.294-.0771s-.97.0927-1.124.0927c-.1992,0-.2764-.0312-.2764-.1084,0-.0459.0616-.1074.2764-.1533a1.1574,1.1574,0,0,0,.832-.4931,4.419,4.419,0,0,0,.3233-1.6631c.0918-.9082.3076-4.3262.3076-5.3115,0-.9234-.0918-1.1392-.3535-1.4468a1.3124,1.3124,0,0,0-.8467-.4c-.1387-.0308-.2471-.0923-.2471-.1543S332.6787,71.5755,332.8174,71.5911Z"/><path class="cls-8" d="M346.8926,72.5916a6.9522,6.9522,0,0,0,1.54-.4,1.56,1.56,0,0,1,.3535-.1387c.0313,0,.0459.0308.0459.1075,0,.1694-.0146,1.2319-.03,2.2324-.0313,1.2783.0156,4.8037.0156,5.5732.0146.9551.0615,1.0625.831,1.1856.1387.0312.2159.0771.2159.1386s-.0928.0928-.2618.0928c-.6005,0-.9082-.0771-1.5244-.0771-.6308,0-.9082.0771-1.34.0771-.1533,0-.2617-.0312-.2617-.1084,0-.0615.1084-.1074.247-.123.77-.1387.8614-.2.8926-1.1856.0459-.6.0772-1.4.0772-4.0176,0-1.8325-.0157-2.31-.0459-2.6948-.0157-.1694-.0772-.3388-.1543-.354-.1846-.0307-.37-.0464-.585-.0923-.1084-.0156-.2158-.0464-.2158-.1079C346.6924,72.6531,346.77,72.6072,346.8926,72.5916Z"/><path class="cls-8" d="M237.8936,92.8558a7.6341,7.6341,0,0,0,1.1084-.4.6237.6237,0,0,1,.23-.1074c.0469,0,.0772.0459.0615.2148-.03.3086-.03,1.2471-.03,2.2324,0,1.294,0,2.4326.03,2.6944.0313.3086.1856.3857.4317.4472.1543.03.2305.0616.2305.1231,0,.0771-.1231.1074-.2461.1074-.1387,0-.708-.0615-1.1241-.0615-.5078,0-.7539.0312-.9238.0312-.1074,0-.2148-.0312-.2148-.0927s.0761-.1075.292-.1387c.3388-.0928.4775-.2158.4931-.8467.0147-.4619.0459-3.2637.0459-3.418,0-.2158-.0156-.3076-.4463-.539-.0771-.0459-.123-.0918-.123-.1231C237.709,92.9329,237.7549,92.886,237.8936,92.8558Zm1.539-2.51a.5857.5857,0,0,1-.5693.585.5477.5477,0,0,1-.5078-.5694.5707.5707,0,0,1,.539-.6006A.5629.5629,0,0,1,239.4326,90.346Z"/><path class="cls-8" d="M245.5918,92.9329a3.21,3.21,0,0,1,.4932,2.0166c0,.8164.0156.9395.0156,1.709.0146,1.0469.0615,1.14.4765,1.2471.1387.0615.2315.0928.2315.1543,0,.0918-.1231.1074-.2774.1074-.2,0-.6464-.0615-.9853-.0615-.5234,0-.7236.0615-.9541.0615-.1387,0-.2471-.03-.2471-.0928s.0928-.123.293-.1689c.3691-.0928.4307-.2.4307-.6465V95.1653c0-1.247-.1075-1.6171-.4922-1.9091a1.3715,1.3715,0,0,0-.878-.293,1.8384,1.8384,0,0,0-1.2.4932.7947.7947,0,0,0-.1855.4619c0,.1845.0156.97.0156,1.8935a12.52,12.52,0,0,0,.0928,1.6162c.0459.3389.2305.4161.4766.4932.1855.0459.2617.0772.2617.1533,0,.0928-.1533.0928-.3076.0928-.1231,0-.877-.0615-1.2315-.0615-.2,0-.5234.0312-.8164.0312-.1689,0-.292-.0312-.292-.1084,0-.0615.1387-.123.3233-.1533.3847-.0771.4462-.1855.4619-.4932.03-1.1084.03-2.5253.03-3.7724,0-.1533-.03-.3233-.4-.5235-.0918-.0615-.1231-.0918-.1231-.1377,0-.0312.0772-.0771.2158-.124a5.7361,5.7361,0,0,0,1.2168-.5234c.0459-.0147.1231.0469.1075.123a7.0789,7.0789,0,0,0-.0313.8164c0,.0313.0469.0772.0771.0459a5.31,5.31,0,0,1,1.0938-.6923,2.0755,2.0755,0,0,1,.9082-.1846A1.57,1.57,0,0,1,245.5918,92.9329Z"/><path d="M251.29,94.9339a2.7258,2.7258,0,0,0,.6475,1.8936,2.0371,2.0371,0,0,0,1.3389.539,1.9433,1.9433,0,0,0,1.4941-.5234c.0762-.0615.1377-.0615.1377,0a.5442.5442,0,0,1-.123.2773,2.573,2.573,0,0,1-2.1709,1.14,2.8332,2.8332,0,0,1-1.77-5.02,3.8416,3.8416,0,0,1,2.2636-.8779,2.3618,2.3618,0,0,1,1.5088.416.4181.4181,0,0,1,.1846.293.5694.5694,0,0,1-.4922.6006.6179.6179,0,0,1-.2617-.1387,6.8025,6.8025,0,0,0-.9707-.7236,1.1835,1.1835,0,0,0-.5694-.124C252.0908,92.6859,251.29,93.1946,251.29,94.9339Z"/><path d="M261.6689,95.2728a3.08,3.08,0,0,1-1.2011,2.417,3.2552,3.2552,0,0,1-1.8477.6,2.9772,2.9772,0,0,1-3.0947-2.94,2.8281,2.8281,0,0,1,1.0937-2.2783,3.131,3.131,0,0,1,1.9707-.709A2.9219,2.9219,0,0,1,261.6689,95.2728Zm-4.5107-.3389a4.6189,4.6189,0,0,0,.4766,2.2637,1.49,1.49,0,0,0,1.1709.8467.9137.9137,0,0,0,.708-.3545,3.6382,3.6382,0,0,0,.5078-2.0938c0-1.7549-.4922-2.9717-1.57-2.9717C257.7891,92.6243,257.1582,93.595,257.1582,94.9339Z"/><path d="M264.6572,94.3646c0,2.0009.0157,2.6172.0313,2.8945.0156.4922.1074.5537.5078.6465.0928.0156.2.0615.2.1387,0,.0615-.1533.1074-.3076.1074-.4619,0-1.0782-.0459-1.3086-.0459-.416,0-.7393.0312-1.1553.0312-.1533,0-.2764-.0312-.2764-.1084s.1075-.1074.2305-.1386c.416-.0772.5078-.169.5391-.8311.03-.6309.0927-3.4951.1074-4.9727,0-.8466.0156-2.4794,0-3.0029,0-.3535-.0772-.4619-.4307-.6465-.1084-.0615-.1543-.123-.1543-.1689s.0928-.0928.2315-.1231a8.7659,8.7659,0,0,0,1.5547-.4316.6756.6756,0,0,1,.2158-.0615c.03,0,.0615.0927.0615.17,0,.1074-.0469,2.6787-.0469,5.3418Z"/><path d="M272.2637,95.2728a3.0824,3.0824,0,0,1-1.2,2.417,3.2574,3.2574,0,0,1-1.8477.6,2.9772,2.9772,0,0,1-3.0947-2.94,2.83,2.83,0,0,1,1.0928-2.2783,3.1346,3.1346,0,0,1,1.9707-.709A2.922,2.922,0,0,1,272.2637,95.2728Zm-4.5108-.3389a4.62,4.62,0,0,0,.4776,2.2637,1.4884,1.4884,0,0,0,1.17.8467.9106.9106,0,0,0,.708-.3545,3.635,3.635,0,0,0,.5088-2.0938c0-1.7549-.4932-2.9717-1.5713-2.9717C268.3848,92.6243,267.7529,93.595,267.7529,94.9339Z"/><path d="M275.4062,93.6253a.6374.6374,0,0,0-.1689.3545,10.0028,10.0028,0,0,0-.0312,1.1855c0,1.0928.0312,1.7393.0615,2.0938.0615.4619.17.5693.7392.6465.2159.0312.2774.0771.2774.1543s-.1231.1074-.3233.1074c-.4316,0-.708-.0615-1.4472-.0615-.9239,0-.9082.0771-1.2783.0771-.2,0-.292-.0459-.292-.1084s.0615-.1377.23-.1689c.3545-.0772.4776-.2.5235-.6309.0156-.2617.0312-1.14.0468-2.1562,0-.97.0147-1.37,0-1.5547,0-.0918-.0468-.1231-.4-.4307-.0928-.0771-.1241-.1084-.1241-.1543s.1084-.1074.17-.1387a7.8305,7.8305,0,0,0,1.4776-.5078.5192.5192,0,0,1,.2617-.0927c.0313,0,.0772.0927.0772.17,0,.2764-.03.708-.03,1.0469,0,.0771.0615.0918.0771.0459.4307-.5694.9854-1.1241,1.585-1.1241a.8655.8655,0,0,1,.5088.1543c.1533.1075.2148.1846.2148.3076a1.5772,1.5772,0,0,1-.4619.7393c-.1533.1543-.2305.1846-.3076.1846a.4372.4372,0,0,1-.2617-.1074,1.2493,1.2493,0,0,0-.6006-.2471A.725.725,0,0,0,275.4062,93.6253Z"/><path d="M278.21,92.84a6.9866,6.9866,0,0,0,1.5088-.4619,1.3526,1.3526,0,0,1,.23-.0918c.0459,0,.0772.0459.0615.2149-.03.3232-.03,1.1084-.03,1.7558,0,1.7237,0,2.9561.03,3.1866a.466.466,0,0,0,.4161.4775c.1689.0459.2148.0918.2148.1533,0,.0772-.1074.1084-.2305.1084-.2617,0-.6162-.0771-1.2627-.0771-.6767,0-1.0312.0312-1.2011.0312-.1377,0-.2618-.0469-.2618-.1084,0-.0771.0928-.1074.2774-.1386.4-.0918.5088-.292.5088-.8311,0-.4619.0459-3.1406.0459-3.2949,0-.292,0-.3545-.4-.6309-.0772-.0615-.1231-.1084-.1231-.17C277.9941,92.9329,278.04,92.886,278.21,92.84Zm1.832-2.4482a.7378.7378,0,0,1-.7549.77.6971.6971,0,0,1-.6465-.709.7371.7371,0,0,1,.7237-.7851A.7251.7251,0,0,1,280.042,90.3919Z"/><path d="M286.5088,92.886a2.7332,2.7332,0,0,1,.5391,1.9405c.0156.8926.0312,1.0469.0312,1.9092.0147.9541.0918,1.0771.5078,1.1855.0772.03.169.0615.169.1387,0,.0615-.0772.0918-.2159.0918-.3535,0-.8613-.0459-1.17-.0459a12.1117,12.1117,0,0,0-1.2773.0615c-.1543,0-.2617-.0459-.2617-.1074s.0918-.1084.23-.1387c.416-.123.4932-.2314.4932-.585V95.0726c0-1.1856-.0928-1.5088-.4619-1.8008a1.2276,1.2276,0,0,0-.7237-.2158,1.3916,1.3916,0,0,0-.832.292.4617.4617,0,0,0-.1533.3242c0,.292.0146,1.0156.0146,1.8008.0157.955.0469,1.7246.0616,1.9091a.5208.5208,0,0,0,.4316.5235c.1846.0459.2461.0771.2461.1543,0,.0918-.1689.1074-.2764.1074-.1543,0-1.0322-.0615-1.3867-.0615-.2,0-.6006.0312-1.0615.0312-.17,0-.293-.0469-.293-.124,0-.0615.1387-.123.2774-.1533.4306-.0772.4619-.2.4765-.5547.0313-.8926.0469-2.2324.0469-3.6484,0-.1543-.0469-.2774-.3545-.4932-.1387-.0918-.123-.1231-.123-.1533,0-.0469.0771-.0928.2158-.1241a7.8337,7.8337,0,0,0,1.6318-.6308c.0459-.0156.1231.0459.1231.123a5.98,5.98,0,0,0-.03.77c0,.0312.0459.0468.0762.0156a4.4256,4.4256,0,0,1,.9091-.6006,2.242,2.242,0,0,1,.9082-.2A1.5971,1.5971,0,0,1,286.5088,92.886Z"/><path d="M292.5469,92.6712a1.2959,1.2959,0,0,0,.5234.0772c.2764,0,.8311-.0313,1.0928-.0313.0615,0,.1074.1387.1074.3691,0,.1543-.0918.3233-.1533.3233-.2315,0-.6934-.03-.8623-.03-.0313,0-.0772.0615-.0772.0772.0157.123.0157.4.0157.6a2.555,2.555,0,0,1-.94,2.0166,2.4871,2.4871,0,0,1-1.3086.4307,3.4513,3.4513,0,0,1-.7236-.0918.2815.2815,0,0,0-.169.03,1.3107,1.3107,0,0,0-.37.3086.4371.4371,0,0,0-.123.292c0,.37.4463.5849,1.2929.5849.462,0,1.14-.0146,1.6944-.0146a1.8639,1.8639,0,0,1,1.2929.4307,1.7445,1.7445,0,0,1,.5391,1.3544,3.1027,3.1027,0,0,1-1.4941,2.3409,3.9878,3.9878,0,0,1-2.2325.7236c-1.3847,0-2.2627-.6621-2.2627-1.6631a.843.843,0,0,1,.3077-.6465c.1386-.17.6465-.6777.9238-.9394a.0952.0952,0,0,0-.03-.1074c-.2929-.0928-1.2324-.6319-1.2324-1.3858,0-.1074.0312-.17.0615-.1846a11.6416,11.6416,0,0,0,1.34-1.1709c.0156-.0146,0-.0459-.03-.0615a2.1948,2.1948,0,0,1-1.2168-1.8623,1.86,1.86,0,0,1,.6465-1.5088,2.5128,2.5128,0,0,1,1.7246-.6621A3.8526,3.8526,0,0,1,292.5469,92.6712Zm-2.5869,8.7754a2.2775,2.2775,0,0,0,1.3545.416,2.6062,2.6062,0,0,0,1.4326-.3076,1.6444,1.6444,0,0,0,.7383-1.2627c0-.6006-.3389-1.14-1.3858-1.14-.5537,0-1.4316.0313-1.8623.0313a.9565.9565,0,0,0-.3848.0918,1.4511,1.4511,0,0,0-.5234,1.124A1.4735,1.4735,0,0,0,289.96,101.4466Zm.2617-8.6221a2.2829,2.2829,0,0,0-.3076,1.2324,3.2585,3.2585,0,0,0,.3847,1.6934,1.0354,1.0354,0,0,0,.8008.5234c.5693,0,.8623-.831.8623-1.5244a3.2848,3.2848,0,0,0-.4473-1.7861c-.2763-.3691-.4462-.4619-.7236-.4619A.8011.8011,0,0,0,290.2217,92.8245Z"/><path d="M302.1709,97.2278a3.6192,3.6192,0,0,1-2.5566,1.0625,5.0962,5.0962,0,0,1-1.8936-.415c-.0771-.0312-.1689-.0312-.4463.0762-.0615.0312-.1074-.0615-.1074-.1074a12.1813,12.1813,0,0,0,.123-1.709c.03-.8311.0616-3.1866.0772-4.8037,0-1.2774-.0156-2.0782-.0615-2.3868-.0469-.2461-.0772-.3378-.4-.538-.1231-.0928-.17-.1387-.17-.17,0-.0459.0615-.1074.247-.1386a10.6927,10.6927,0,0,0,1.585-.4307.6845.6845,0,0,1,.2773-.0772c.0313,0,.0615.0616.0615.2315-.0458.97-.0917,3.541-.0917,4.9111,0,.1074.0459.1231.0917.1074a2.6182,2.6182,0,0,1,1.417-.4306,2.4978,2.4978,0,0,1,1.94.831,2.7837,2.7837,0,0,1,.708,1.8477A3.0607,3.0607,0,0,1,302.1709,97.2278ZM301.4,95.6116a3.6139,3.6139,0,0,0-.585-2.0322,1.8143,1.8143,0,0,0-1.3242-.6621,1.3025,1.3025,0,0,0-.585.1387.414.414,0,0,0-.1074.2617c-.0615.2773-.0459,1.709-.0459,2.31a5.5836,5.5836,0,0,0,.2461,1.7548,1.1913,1.1913,0,0,0,.5235.462,1.6627,1.6627,0,0,0,.6464.1386,1.0839,1.0839,0,0,0,.7852-.4931,3.9358,3.9358,0,0,0,.4316-1.878Z"/><path d="M310.07,95.2728a3.08,3.08,0,0,1-1.2012,2.417,3.254,3.254,0,0,1-1.8466.6,2.9767,2.9767,0,0,1-3.0948-2.94,2.8277,2.8277,0,0,1,1.0928-2.2783,3.133,3.133,0,0,1,1.9707-.709A2.922,2.922,0,0,1,310.07,95.2728Zm-4.5107-.3389a4.61,4.61,0,0,0,.4775,2.2637,1.4885,1.4885,0,0,0,1.17.8467.91.91,0,0,0,.708-.3545,3.6371,3.6371,0,0,0,.5079-2.0938c0-1.7549-.4922-2.9717-1.57-2.9717C306.19,92.6243,305.56,93.595,305.56,94.9339Z"/><path d="M317.17,95.2728a3.08,3.08,0,0,1-1.2011,2.417,3.2546,3.2546,0,0,1-1.8467.6,2.9767,2.9767,0,0,1-3.0948-2.94,2.8277,2.8277,0,0,1,1.0928-2.2783,3.133,3.133,0,0,1,1.9707-.709A2.9219,2.9219,0,0,1,317.17,95.2728Zm-4.5107-.3389a4.61,4.61,0,0,0,.4775,2.2637,1.4885,1.4885,0,0,0,1.17.8467.91.91,0,0,0,.708-.3545,3.6371,3.6371,0,0,0,.5079-2.0938c0-1.7549-.4922-2.9717-1.57-2.9717C313.29,92.6243,312.6592,93.595,312.6592,94.9339Z"/><path d="M322.2988,92.5482c.5694,0,1.0782-.0772,1.6172-.0772.169,0,.2617.0459.2617.0918,0,.0615-.0625.0928-.247.1387a2.704,2.704,0,0,0-1.3389.6777,13.94,13.94,0,0,0-1.14,1.0313c-.03.0312,0,.0771.0157.1084.5537.7539,1.5859,2.0322,2.1865,2.6943.4463.4922.6.6309,1.0469.708.1533.03.2148.0772.2148.1387,0,.0771-.123.123-.292.123-.8779,0-1.3554-.0771-2.0322-.0771-.293,0-.5234.0312-.7393.0312-.1845,0-.2617-.0312-.2617-.1084s.0615-.1074.292-.1689c.2471-.0772.3086-.1846.17-.4-.2314-.3076-1.0625-1.34-1.54-1.8936-.1533-.1855-.2617-.3086-.3076-.3086s-.0459.0469-.0615.1231c-.0313.2471-.0157,1.0937,0,1.6172.03.7539.23.8008.5693.8779.1543.03.2617.0918.2617.1533,0,.0928-.1846.1231-.292.1231-.4463,0-.9394-.0459-1.34-.0459-.6006,0-1.14.0615-1.2158.0615-.1231,0-.2618-.0459-.2618-.1074s.0918-.1084.2149-.1387c.4619-.1084.5234-.2617.5547-.7695.0615-1.1241.0771-2.2793.0771-3.4649,0-.6465.03-3.3564.03-4.2187a3.268,3.268,0,0,0-.0615-.7383c0-.1084-.1387-.2158-.3692-.3389-.0615-.0459-.1386-.0927-.1386-.1386,0-.0616.1074-.1231.2929-.1543a5.3908,5.3908,0,0,0,1.4932-.4307.8466.8466,0,0,1,.2773-.0772.1454.1454,0,0,1,.0616.1075c-.0157.539-.0928,2.0791-.0928,3.2334,0,.5234-.0772,3.1406-.0615,3.9111,0,.1387.03.2148.0771.2148a.7238.7238,0,0,0,.2617-.1376,8.1948,8.1948,0,0,0,1.6475-1.6016.5085.5085,0,0,0,.1387-.2461c0-.0772-.0928-.2158-.5547-.2773-.1543-.0313-.2461-.0616-.2461-.1387,0-.0615.123-.1074.2617-.1074Z"/><path d="M326.9961,94.95c-.2-1.8017-.8164-3.4023-.832-4.5107,0-.6162.416-1.3555,1.0322-1.3555.6767,0,1.0156.709,1.0156,1.3086,0,1.0166-.6465,3.0176-.831,4.5117-.0459.3848-.1231.4463-.1846.4463C327.1035,95.35,327.042,95.2728,326.9961,94.95Zm-.6934,2.417a.9406.9406,0,0,1,.9082-.9541.92.92,0,0,1,.878.9541.8943.8943,0,1,1-1.7862,0Z"/></svg>