<svg xmlns="http://www.w3.org/2000/svg" width="399" height="200" viewBox="0 0 399 200">
  <g fill="none" fill-rule="evenodd" transform="translate(-20 -10)">
    <g fill-rule="nonzero" stroke="#222F3C" stroke-linecap="round" stroke-linejoin="round" stroke-width=".5" transform="translate(252.574 120.273)">
      <line x1="8.993" y1="11.108" y2="11.108"/>
      <line x1="35.765" x2="26.771" y1="11.108" y2="11.108"/>
      <line x1="25.792" x2="35.765" y1="7.63" y2="7.63"/>
      <line x2="9.973" y1="7.63" y2="7.63"/>
      <g transform="translate(5.307 32.582)">
        <line x2="2.284"/>
        <line x1="11.434" x2="13.718"/>
        <line x1="22.868" x2="25.152"/>
        <g transform="translate(5.716 3.148)">
          <line x2="2.284"/>
          <line x1="11.434" x2="13.718"/>
        </g>
      </g>
      <g transform="translate(0 20.662)">
        <path d="M0 7.57976355L5.96046755 5.26121972 11.9209351 7.57976355 16.1658376 5.92874608 16.1658376 0M35.7648174 7.57945708L29.8043498 5.26091325 23.8438823 7.57945708 19.5989798 5.92843961 19.5989798.00138861756"/>
      </g>
      <ellipse cx="17.883" cy="11.799" rx="9.014" ry="8.932" transform="rotate(-67.5 17.883 11.799)"/>
      <path d="M11.6626726 18.2653381L.000444453854 18.2653381.000444453854 39.0888383 35.7654252 39.0888383 35.7654252 18.2653381 24.103197 18.2653381M14.2339345 13.3884373C14.2339345 12.0276192 15.4503258 9.86649271 17.8831082 6.90505782 20.3149981 9.86649271 21.5309431 12.0276192 21.5309431 13.3884373 21.5309431 15.4296644 19.8968724 17.0837331 17.8831082 17.0837331 15.8680053 17.0837331 14.2339345 15.4296644 14.2339345 13.3884373zM43.0979499 3.20492934L39.5116959 3.20492934 37.6716302 4.87221967 35.9339763 4.87221967 35.9339763 13.5585378 37.6716302 13.5585378 39.5116959 15.2258282 43.0979499 15.2258282"/>
    </g>
    <g fill-rule="nonzero" transform="translate(300.683 121.276)">
      <path fill="#333838" d="M9.71824975,9.87639091 C9.79490905,9.87639091 9.84090462,9.7857188 9.94822763,9.52881448 C10.6534931,7.86649246 11.8953736,5.010321 12.8612807,2.92486246 C13.8271877,0.778955855 14.1031612,0.46160347 14.7470992,0.295371268 C15.0230727,0.250035213 15.099732,0.189587139 15.099732,0.129139066 C15.099732,0.0686909925 15.0230727,0.0535789742 14.8237585,0.0535789742 C14.5477851,0.0535789742 14.1338249,0.114027048 13.7045329,0.114027048 C13.2445771,0.114027048 13.0299311,0.0535789742 12.6313028,0.0535789742 C12.4166568,0.0535789742 12.3706612,0.0838030109 12.3706612,0.144251084 C12.3706612,0.204699158 12.4626524,0.234923194 12.7079621,0.310483286 C13.2139134,0.46160347 13.2292453,0.718507782 13.152586,1.05097219 C12.830617,2.16926154 10.9754621,6.40062668 10.2395329,7.97227659 C10.1935374,8.0629487 10.1628736,8.07806072 10.1015462,7.97227659 C9.58026303,6.83887522 8.90566127,5.40323347 8.52236482,4.51162439 C8.4917011,4.4360643 8.4917011,4.36050421 8.50703296,4.33028017 C8.76767455,3.8618076 9.5189356,2.36571778 9.91756391,1.61011686 C10.4235152,0.7336198 10.7148205,0.416267415 11.2820993,0.295371268 C11.4967453,0.250035213 11.5734046,0.204699158 11.5734046,0.129139066 C11.5734046,0.0686909925 11.4967453,0.0535789742 11.312763,0.0535789742 C10.9601303,0.0535789742 10.7148205,0.114027048 10.1782055,0.114027048 C9.77957719,0.114027048 9.53426746,0.0686909925 9.150971,0.0686909925 C8.96698871,0.0686909925 8.87499756,0.0989150292 8.87499756,0.144251084 C8.87499756,0.204699158 8.92099313,0.265147231 9.19696658,0.325595305 C9.85623648,0.476715488 9.87156834,0.627835672 9.39628073,1.73101301 C9.07431171,2.47150191 8.75234269,3.16665476 8.3843781,3.90714366 C8.33838252,3.98270375 8.27705509,3.96759173 8.26172323,3.93736769 C7.75577191,2.7888543 7.29581617,1.76123705 7.05050644,1.12653228 C6.82052857,0.567387598 6.97384715,0.386043378 7.38780732,0.310483286 C7.58712147,0.265147231 7.67911262,0.219811176 7.67911262,0.144251084 C7.67911262,0.0838030109 7.57178962,0.0535789742 7.41847103,0.0535789742 C7.0658383,0.0535789742 6.71320556,0.114027048 6.16125867,0.114027048 C5.60931177,0.114027048 5.31800647,0.0535789742 4.87338258,0.0535789742 C4.67406843,0.0535789742 4.58207728,0.0989150292 4.58207728,0.144251084 C4.58207728,0.219811176 4.65873657,0.28025925 4.9040463,0.325595305 C5.3793339,0.446491451 5.50198877,0.627835672 5.94661265,1.56478081 C6.28391353,2.29015769 7.31114803,4.58718448 7.55645776,5.16144118 C7.55645776,5.19166522 7.55645776,5.29744934 7.52579404,5.3427854 C7.11183387,6.30995457 6.74386928,7.06555549 6.31457725,7.92694054 C6.26858167,8.00250063 6.20725424,8.03272467 6.16125867,7.92694054 C5.11869231,5.66013778 3.60083836,2.44127787 2.95690032,0.869627965 C2.84957731,0.597611635 2.84957731,0.416267415 3.27886934,0.340707323 C3.46285163,0.310483286 3.55484278,0.265147231 3.55484278,0.189587139 C3.55484278,0.129139066 3.46285163,0.0838030109 3.24820562,0.0838030109 C2.9262366,0.0838030109 2.558272,0.114027048 2.22097113,0.114027048 C1.76101538,0.114027048 1.1324092,0.0535789742 0.764444602,0.0535789742 C0.565130446,0.0535789742 0.457807439,0.114027048 0.457807439,0.159363103 C0.457807439,0.219811176 0.595794162,0.28025925 0.77977646,0.295371268 C1.36238707,0.37093136 1.48504193,0.64294769 2.03698883,1.82168512 C2.75758616,3.30266292 3.78482066,5.53924164 4.62807285,7.45846797 C4.82738701,7.91182852 5.30267461,9.01500586 5.50198877,9.51370247 C5.60931177,9.7857188 5.63997549,9.87639091 5.73196664,9.87639091 C5.79329407,9.87639091 5.88528522,9.75549476 5.97727637,9.51370247 C6.31457725,8.6372054 7.12716573,6.86909925 7.70977634,5.75080989 C7.74044006,5.70547384 7.78643563,5.70547384 7.81709935,5.76592191 C8.26172323,6.73309109 9.13563915,8.60698136 9.45760817,9.52881448 C9.54959932,9.77060678 9.61092675,9.87639091 9.71824975,9.87639091 Z M17.0315461,9.75549476 C17.5221655,9.75549476 17.9974531,9.52881448 18.2120992,9.10567797 C18.2734266,8.9696698 18.2120992,8.92433375 18.120108,8.9696698 C17.9514576,9.06034191 17.798139,9.10567797 17.6754841,9.10567797 C17.2461921,9.10567797 17.1082054,8.81854962 17.1082054,8.53142127 C17.1082054,8.13850879 17.154201,6.70286705 17.154201,6.14372237 C17.154201,5.6752498 17.0928735,5.05565705 16.9395549,4.7685287 C16.7555726,4.30005613 16.280285,3.99781577 15.7590019,3.99781577 C15.4983603,3.99781577 15.1917231,4.08848788 14.8390904,4.2698321 C14.5324532,4.42095228 14.0265019,4.73830466 13.6738692,5.14632916 C13.4898869,5.35789742 13.3825639,5.49390558 13.3825639,5.59968971 C13.3825639,5.66013778 13.4592231,5.75080989 13.5358824,5.73569788 C13.6432054,5.72058586 14.1031612,5.5090176 14.2564798,5.40323347 C14.2871435,5.37300944 14.3178072,5.32767338 14.3178072,5.28233733 C14.3178072,5.1765532 14.3178072,5.05565705 14.3331391,4.99520898 C14.3638028,4.82897677 14.4557939,4.72319265 14.5631169,4.63252054 C14.7930948,4.49651237 14.9464134,4.45117632 15.1763913,4.45117632 C15.3603736,4.45117632 15.6210151,4.54184843 15.8203293,4.69296861 C16.0809709,4.88942485 16.1882939,5.31256136 16.1882939,5.93215411 C16.1882939,6.14372237 16.1882939,6.44596274 16.1576302,6.62730696 C16.1576302,6.68775503 16.0809709,6.8237632 15.958316,6.85398723 C15.636347,6.97488338 14.2411479,7.38290788 13.8731833,7.57936412 C13.7351966,7.65492421 13.3212364,7.95716457 13.3212364,8.44074916 C13.3212364,9.22657412 13.9345107,9.74038274 14.5477851,9.74038274 C15.1303957,9.74038274 15.5903514,9.48347843 16.0503072,9.06034191 C16.065639,9.0452299 16.1116346,9.0452299 16.1269665,9.07545393 C16.2649532,9.42303036 16.6022541,9.75549476 17.0315461,9.75549476 Z M15.2223868,9.16612604 C14.7470992,9.16612604 14.3024753,8.81854962 14.3024753,8.31985302 C14.3024753,7.88160448 14.5017895,7.65492421 14.6857718,7.5642521 C15.0077408,7.3980199 15.8969886,7.08066751 16.0963027,7.05044347 C16.1269665,7.03533145 16.1576302,7.11089155 16.1576302,7.12600356 C16.1576302,7.70026026 16.1269665,8.304741 16.0809709,8.56164531 C16.065639,8.72787751 15.9736479,8.86388568 15.9123204,8.92433375 C15.74367,9.07545393 15.4830284,9.16612604 15.2223868,9.16612604 Z M20.6345327,9.72527072 C21.0638248,9.72527072 21.5391124,9.58926256 21.8764133,9.33235825 C22.0757274,9.18123806 22.2137141,9.03011788 22.2137141,8.93944577 C22.2137141,8.87899769 22.1677186,8.86388568 22.0603956,8.93944577 C21.9224088,9.03011788 21.6464354,9.16612604 21.2171434,9.16612604 C20.818515,9.16612604 20.496546,9.0452299 20.2665682,8.75810155 C20.1592451,8.60698136 20.1285814,8.42563714 20.0979177,7.94205256 C20.0825859,7.47357999 20.067254,5.10099311 20.067254,4.84408879 C20.067254,4.75341668 20.0979177,4.70808063 20.2819,4.70808063 C20.6958602,4.70808063 21.4471212,4.72319265 21.9837363,4.72319265 C22.0603956,4.72319265 22.1370548,4.6022965 22.1370548,4.34539219 C22.1370548,4.23960806 22.0757274,4.13382393 22.0450637,4.13382393 C21.7230947,4.13382393 20.4505505,4.17915999 20.174577,4.17915999 C20.1132496,4.17915999 20.0979177,4.08848788 20.0979177,4.04315182 C20.0825859,3.8618076 20.1132496,3.43867109 20.1132496,3.30266292 C20.1132496,3.22710283 20.0059266,3.19687879 19.8679398,3.34799898 C19.4999752,3.81647154 18.9940239,4.22449604 18.6107275,4.36050421 C18.442077,4.4360643 18.4267452,4.48140035 18.4267452,4.51162439 C18.4267452,4.57207246 18.5034045,4.61740852 18.6260593,4.64763255 L18.8387889,4.69296861 C18.9058657,4.70808063 18.9633602,4.72319265 18.9940239,4.73830466 C19.0553514,4.7685287 19.0706832,4.87431283 19.0706832,5.04054503 L19.0706832,8.16873283 C19.0706832,8.53142127 19.1320107,8.83366164 19.2546655,9.03011788 C19.5153071,9.51370247 19.9905947,9.72527072 20.6345327,9.72527072 Z M25.1267672,9.75549476 C26.0006831,9.75549476 26.6446211,9.45325439 27.2578955,8.8034376 C27.3498866,8.69765347 27.411214,8.60698136 27.411214,8.56164531 C27.411214,8.48608522 27.3498866,8.45586118 27.2272317,8.57675733 C26.8592672,8.92433375 26.3993114,9.06034191 25.7707052,9.06034191 C25.2647539,9.06034191 24.6514796,8.89410971 24.2375194,8.44074916 C23.8388911,8.00250063 23.5322539,7.38290788 23.5322539,6.61219494 C23.5322539,6.18905843 23.5782495,5.96237815 23.6549088,5.78103393 C23.6855725,5.73569788 23.7622318,5.66013778 23.7928955,5.66013778 L24.6208159,5.66013778 C24.9734486,5.66013778 26.9665902,5.69036182 27.089245,5.70547384 C27.1659043,5.70547384 27.2425636,5.61480173 27.2425636,5.53924164 C27.2425636,4.61740852 26.2766565,3.99781577 25.3720769,3.99781577 C24.5748203,3.99781577 23.8695548,4.36050421 23.4555946,4.75341668 C22.8116566,5.37300944 22.5663469,6.26461852 22.5663469,6.95977136 C22.5663469,7.77582035 22.8423203,8.50119724 23.3022761,8.98478182 C23.7622318,9.46836641 24.4061699,9.75549476 25.1267672,9.75549476 Z M23.854223,5.44856953 C23.8235592,5.44856953 23.7928955,5.41834549 23.7928955,5.38812145 C23.7928955,5.26722531 23.9308822,4.98009696 24.1148645,4.7685287 C24.4521654,4.42095228 24.8354619,4.20938402 25.2340902,4.20938402 C25.5867229,4.20938402 25.8473645,4.34539219 26.0006831,4.49651237 C26.1693335,4.67785659 26.2153291,4.94987292 26.2153291,5.13121714 C26.2153291,5.26722531 26.1846654,5.43345751 25.8473645,5.43345751 L23.854223,5.44856953 Z M28.1011477,9.67993467 C28.3157937,9.67993467 28.4844441,9.58926256 29.036391,9.58926256 C29.6803291,9.58926256 30.1862804,9.64971063 30.4775857,9.64971063 C30.7075635,9.64971063 30.8455503,9.61948659 30.8455503,9.5439265 C30.8455503,9.46836641 30.768891,9.43814237 30.554245,9.40791834 C29.9716344,9.34747026 29.7876521,9.24168613 29.7263246,8.77321357 C29.6956609,8.45586118 29.6649972,7.67003623 29.6649972,6.55174687 C29.6649972,6.2495065 29.6496653,5.81125797 29.6803291,5.62991375 C29.6956609,5.44856953 29.7723202,5.28233733 29.9409706,5.10099311 C30.1402848,4.91964888 30.3855945,4.79875274 30.6155724,4.79875274 C30.7842228,4.79875274 30.983537,4.87431283 31.1521874,4.98009696 C31.3208379,5.07076907 31.3974972,5.08588109 31.4281609,5.08588109 C31.4741565,5.08588109 31.5354839,5.07076907 31.6734706,4.94987292 C31.8574529,4.78364072 32.0107715,4.54184843 32.0107715,4.4360643 C32.0107715,4.36050421 31.9801078,4.28494411 31.9034485,4.22449604 C31.7501299,4.10359989 31.5508157,4.0280398 31.3668334,4.0280398 C30.7535591,4.0280398 30.1402848,4.58718448 29.7109928,5.11610512 C29.6649972,5.16144118 29.6343335,5.14632916 29.6343335,5.10099311 C29.6343335,4.85920081 29.6496653,4.28494411 29.6496653,4.11871191 C29.6496653,3.96759173 29.6190016,3.90714366 29.5883379,3.90714366 C29.5423423,3.90714366 29.465683,3.92225567 29.35836,3.98270375 C29.1130503,4.11871191 28.6837583,4.2698321 28.3771211,4.34539219 C28.2391344,4.39072824 28.1471432,4.45117632 28.1471432,4.48140035 C28.1471432,4.51162439 28.1624751,4.55696044 28.2697981,4.63252054 C28.5611034,4.87431283 28.6684264,4.91964888 28.6684264,5.02543301 L28.6684264,6.70286705 C28.6684264,7.70026026 28.6530946,8.56164531 28.6224308,8.81854962 C28.5611034,9.22657412 28.392453,9.36258228 28.0704839,9.43814237 C27.9478291,9.46836641 27.8405061,9.5439265 27.8405061,9.58926256 C27.8405061,9.64971063 27.9171654,9.67993467 28.1011477,9.67993467 Z M7.08117016,26.3471171 C8.32305066,26.3471171 9.150971,26.0297647 10.0708825,25.5159561 C10.1475418,25.47062 10.1935374,25.3799479 10.2242011,25.2892758 C10.2548648,25.1230436 10.4388471,24.3523307 10.4388471,24.0954264 C10.4388471,24.0047542 10.4081834,23.8687461 10.3468559,23.8687461 C10.2855285,23.8687461 10.2548648,23.9291942 10.1935374,24.1256504 C9.96355949,24.7452431 9.59559489,25.2741638 9.01298428,25.6066282 C8.59902411,25.8635325 8.06240908,26.0297647 7.18849316,26.0297647 C6.37590468,26.0297647 5.31800647,25.7124123 4.56674542,24.9114754 C3.7694888,24.0652023 3.15621447,22.6144486 3.15621447,21.2543669 C3.15621447,19.8036131 3.66216579,18.4586435 4.32143569,17.7483786 C4.95004187,17.1136739 5.83928965,16.5696412 6.98917901,16.5696412 C7.87842678,16.5696412 8.76767455,16.8114335 9.3349533,17.3252421 C9.61092675,17.5368104 9.94822763,18.020395 10.0708825,18.5342036 C10.1015462,18.6550998 10.1475418,18.7306598 10.2088692,18.7306598 C10.2395329,18.7306598 10.3008604,18.6399877 10.3008604,18.4888675 C10.3008604,18.3377474 10.2242011,17.6879306 10.2548648,17.3252421 C10.2701966,17.249682 10.2242011,17.1438979 10.1015462,17.0683378 C9.59559489,16.7963215 8.33838252,16.3278489 7.09650201,16.3278489 C5.68597106,16.3278489 4.33676755,16.8567696 3.52417907,17.5821464 C2.54294015,18.4586435 1.80701096,19.5920449 1.80701096,21.4054871 C1.80701096,22.7051207 2.450949,24.0954264 3.09488704,24.7452431 C4.04546224,25.6821883 5.24134718,26.3471171 7.08117016,26.3471171 Z M15.0690682,26.241333 C15.5596877,26.241333 16.0349753,26.0146527 16.2496213,25.5915162 C16.3109488,25.455508 16.2496213,25.410172 16.1576302,25.455508 C15.9889797,25.5461801 15.8356612,25.5915162 15.7130063,25.5915162 C15.2837143,25.5915162 15.1457275,25.3043878 15.1457275,25.0172595 C15.1457275,24.624347 15.1917231,23.1887053 15.1917231,22.6295606 C15.1917231,22.161088 15.1303957,21.5414953 14.9770771,21.2543669 C14.7930948,20.7858943 14.3178072,20.483654 13.796524,20.483654 C13.5358824,20.483654 13.2292453,20.5743261 12.8766125,20.7556703 C12.5699754,20.9067905 12.0640241,21.2241429 11.7113913,21.6321674 C11.527409,21.8437356 11.420086,21.9797438 11.420086,22.0855279 C11.420086,22.145976 11.4967453,22.2366481 11.5734046,22.2215361 C11.6807276,22.2064241 12.1406833,21.9948558 12.2940019,21.8890717 C12.3246656,21.8588476 12.3553294,21.8135116 12.3553294,21.7681755 C12.3553294,21.6623914 12.3553294,21.5414953 12.3706612,21.4810472 C12.4013249,21.314815 12.4933161,21.2090309 12.6006391,21.1183587 C12.830617,20.9823506 12.9839355,20.9370145 13.2139134,20.9370145 C13.3978957,20.9370145 13.6585373,21.0276866 13.8578515,21.1788068 C14.118493,21.3752631 14.225816,21.7983996 14.225816,22.4179923 C14.225816,22.6295606 14.225816,22.9318009 14.1951523,23.1131452 C14.1951523,23.1735932 14.118493,23.3096014 13.9958382,23.3398254 C13.6738692,23.4607216 12.2786701,23.8687461 11.9107055,24.0652023 C11.7727187,24.1407624 11.3587586,24.4430028 11.3587586,24.9265874 C11.3587586,25.7124123 11.9720329,26.2262209 12.5853072,26.2262209 C13.1679178,26.2262209 13.6278736,25.9693166 14.0878293,25.5461801 C14.1031612,25.5310681 14.1491568,25.5310681 14.1644886,25.5612921 C14.3024753,25.9088686 14.6397762,26.241333 15.0690682,26.241333 Z M13.259909,25.6519643 C12.7846214,25.6519643 12.3399975,25.3043878 12.3399975,24.8056912 C12.3399975,24.3674427 12.5393117,24.1407624 12.723294,24.0500903 C13.045263,23.8838581 13.9345107,23.5665057 14.1338249,23.5362817 C14.1644886,23.5211697 14.1951523,23.5967298 14.1951523,23.6118418 C14.1951523,24.1860985 14.1644886,24.7905792 14.118493,25.0474835 C14.1031612,25.2137157 14.01117,25.3497239 13.9498426,25.410172 C13.7811922,25.5612921 13.5205506,25.6519643 13.259909,25.6519643 Z M22.5356832,26.1355488 C22.6890017,26.1355488 22.8116566,26.1204368 22.8116566,26.0297647 C22.8116566,25.9693166 22.7196655,25.9390926 22.5816787,25.8786445 C22.1677186,25.7728604 22.121723,25.6821883 22.1063911,24.654571 C22.1063911,23.8989701 22.0910593,23.778074 22.0910593,22.977137 C22.0757274,22.115752 21.9530725,21.360151 21.6004398,20.9974626 C21.4011257,20.7858943 21.0331611,20.483654 20.4045549,20.483654 C20.1439133,20.483654 19.8219443,20.513878 19.4999752,20.6649982 C19.1626744,20.8010064 18.7947098,21.0579107 18.4114133,21.345039 C18.3807496,21.3752631 18.334754,21.329927 18.334754,21.299703 C18.3194222,21.0881347 18.3500859,20.6801102 18.3654177,20.498766 C18.3807496,20.4232059 18.3040903,20.3627578 18.2580947,20.3778698 C17.9974531,20.544102 17.3841788,20.8010064 17.0468779,20.8916785 C16.9088912,20.9370145 16.8322319,20.9823506 16.8322319,21.0125746 C16.8322319,21.0579107 16.8628956,21.0881347 16.9548868,21.1485828 C17.3228514,21.345039 17.3535151,21.5112712 17.3535151,21.6623914 C17.3535151,22.8864649 17.3535151,24.2767706 17.3228514,25.3648359 C17.3075195,25.6670763 17.2461921,25.7728604 16.8628956,25.8484205 C16.6789133,25.8786445 16.5409266,25.9390926 16.5409266,25.9995407 C16.5409266,26.0751008 16.6635815,26.1053248 16.8322319,26.1053248 C17.1235372,26.1053248 17.4455063,26.0751008 17.6448204,26.0751008 C17.9974531,26.0751008 18.7487142,26.1355488 18.8713691,26.1355488 C19.0246876,26.1355488 19.1780062,26.1355488 19.1780062,26.0448767 C19.1780062,25.9693166 19.1013469,25.9390926 18.9173646,25.8937565 C18.6720549,25.8181965 18.4880726,25.7426364 18.442077,25.410172 C18.4114133,25.1986037 18.3654177,24.8056912 18.3500859,23.82341 C18.3500859,22.9166889 18.334754,22.145976 18.334754,21.9646318 C18.334754,21.8437356 18.4114133,21.6170553 18.5187363,21.5112712 C18.9173646,21.1788068 19.3159929,21.0276866 19.7146213,21.0276866 C20.067254,21.0276866 20.3585593,21.1334708 20.5885372,21.314815 C20.9718336,21.6019433 21.0791566,21.9646318 21.0791566,23.1887053 L21.0791566,25.2439398 C21.0791566,25.6821883 21.0178292,25.7879724 20.6498646,25.8786445 C20.4505505,25.9239806 20.3585593,25.9844287 20.3585593,26.0448767 C20.3585593,26.1053248 20.4658823,26.1355488 20.603869,26.1355488 C20.8338469,26.1355488 21.0331611,26.0751008 21.5544442,26.0751008 C21.8917451,26.0751008 22.336369,26.1355488 22.5356832,26.1355488 Z M27.1659043,26.241333 C27.6565238,26.241333 28.1318114,26.0146527 28.3464574,25.5915162 C28.4077848,25.455508 28.3464574,25.410172 28.2544662,25.455508 C28.0858158,25.5461801 27.9324972,25.5915162 27.8098424,25.5915162 C27.3805503,25.5915162 27.2425636,25.3043878 27.2425636,25.0172595 C27.2425636,24.624347 27.2885592,23.1887053 27.2885592,22.6295606 C27.2885592,22.161088 27.2272317,21.5414953 27.0739132,21.2543669 C26.8899309,20.7858943 26.4146433,20.483654 25.8933601,20.483654 C25.6327185,20.483654 25.3260813,20.5743261 24.9734486,20.7556703 C24.6668114,20.9067905 24.1608601,21.2241429 23.8082274,21.6321674 C23.6242451,21.8437356 23.5169221,21.9797438 23.5169221,22.0855279 C23.5169221,22.145976 23.5935814,22.2366481 23.6702407,22.2215361 C23.7775637,22.2064241 24.2375194,21.9948558 24.390838,21.8890717 C24.4215017,21.8588476 24.4521654,21.8135116 24.4521654,21.7681755 C24.4521654,21.6623914 24.4521654,21.5414953 24.4674973,21.4810472 C24.498161,21.314815 24.5901521,21.2090309 24.6974752,21.1183587 C24.927453,20.9823506 25.0807716,20.9370145 25.3107495,20.9370145 C25.4947318,20.9370145 25.7553734,21.0276866 25.9546875,21.1788068 C26.2153291,21.3752631 26.3226521,21.7983996 26.3226521,22.4179923 C26.3226521,22.6295606 26.3226521,22.9318009 26.2919884,23.1131452 C26.2919884,23.1735932 26.2153291,23.3096014 26.0926742,23.3398254 C25.7707052,23.4607216 24.3755061,23.8687461 24.0075415,24.0652023 C23.8695548,24.1407624 23.4555946,24.4430028 23.4555946,24.9265874 C23.4555946,25.7124123 24.068869,26.2262209 24.6821433,26.2262209 C25.2647539,26.2262209 25.7247097,25.9693166 26.1846654,25.5461801 C26.1999973,25.5310681 26.2459928,25.5310681 26.2613247,25.5612921 C26.3993114,25.9088686 26.7366123,26.241333 27.1659043,26.241333 Z M25.3567451,25.6519643 C24.8814575,25.6519643 24.4368336,25.3043878 24.4368336,24.8056912 C24.4368336,24.3674427 24.6361477,24.1407624 24.82013,24.0500903 C25.142099,23.8838581 26.0313468,23.5665057 26.230661,23.5362817 C26.2613247,23.5211697 26.2919884,23.5967298 26.2919884,23.6118418 C26.2919884,24.1860985 26.2613247,24.7905792 26.2153291,25.0474835 C26.1999973,25.2137157 26.1080061,25.3497239 26.0466787,25.410172 C25.8780282,25.5612921 25.6173866,25.6519643 25.3567451,25.6519643 Z M30.9528733,26.1053248 C31.1521874,26.1053248 31.2595104,26.0599887 31.2595104,25.9995407 C31.2595104,25.9542046 31.1521874,25.9088686 31.0601963,25.8937565 C30.6309043,25.8181965 30.5389131,25.7124123 30.5235812,25.3043878 C30.510955,25.0679292 30.4983288,24.5444991 30.4942657,23.3036403 L30.4941242,20.2287174 C30.5027129,18.1158945 30.554245,15.9110091 30.554245,15.8140403 C30.554245,15.7384802 30.5389131,15.6478081 30.5082494,15.6478081 C30.446922,15.6478081 30.3702627,15.6780321 30.3242671,15.6931442 C29.9869662,15.8140403 29.6190016,15.9500485 29.1743777,16.0407206 C29.036391,16.0709446 28.9443999,16.1162807 28.9443999,16.1616167 C28.9443999,16.2069528 28.9903954,16.2371768 29.0977184,16.2976249 C29.4963468,16.5394172 29.5270105,16.6149773 29.5270105,16.9474417 C29.5423423,17.6123705 29.5270105,18.851556 29.5270105,20.0756295 C29.5116786,21.8890717 29.4503512,24.4430028 29.4196875,25.0021475 C29.35836,25.6670763 29.2663689,25.8030844 28.8830724,25.8786445 C28.6837583,25.9239806 28.607099,25.9390926 28.607099,26.0146527 C28.607099,26.0902128 28.6837583,26.1053248 28.8677406,26.1053248 C29.0977184,26.1053248 29.4963468,26.0751008 29.8949751,26.0751008 C30.1556167,26.0751008 30.7075635,26.1053248 30.9528733,26.1053248 Z" transform="translate(14.457 27.472)"/>
      <g stroke="#222F3C" stroke-linecap="round">
        <g stroke-linejoin="round" stroke-width=".5">
          <line x1="61.139" y1=".221"/>
          <line x2="61.139" y1=".221" transform="translate(0 16.598)"/>
          <line x2="61.139" y1=".221" transform="translate(0 16.598)"/>
        </g>
        <g stroke-width=".4" transform="translate(21.915 3.904)">
          <g transform="translate(2.28 2.724)">
            <path d="M.160910948 2.03737484L.995166714 3.01306867.0800364465 4.03840248M.0806031108 4.06513294L.915130268 5.04082677 0 6.06616058M.243170629 0L1.0774264.975358429.162296128 2.00102764"/>
          </g>
          <path d="M.162862792 2.03737484L.997389949 3.01306867.0822596811 4.03840248M.0808745017 4.06513294L.915130268 5.04082677 0 6.06616058M.245393864 0L1.07964963.975358429.164519362 2.00102764"/>
          <g transform="translate(5.545)">
            <g transform="translate(2.28 2.724)">
              <path d="M.163134183 2.03737484L.997389949 3.01306867.0822596811 4.03840248M.0808745017 4.06513294L.915130268 5.04082677 0 6.06616058M.245393864 0L1.07964963.975358429.164519362 2.00102764"/>
            </g>
            <path d="M.163134183 2.03737484L.997389949 3.01306867.0822596811 4.03840248M.0806031108 4.06513294L.915130268 5.04082677 0 6.06616058M.245393864 0L1.07992102.975358429.164519362 2.00102764"/>
          </g>
          <g transform="translate(11.09)">
            <g transform="translate(2.28 2.724)">
              <path d="M.163134183 2.03737484L.99766134 3.01306867.0822596811 4.03840248M.0806031108 4.06513294L.915130268 5.04082677 0 6.06616058M.245122473 0L1.07964963.975358429.164519362 2.00102764"/>
            </g>
            <path d="M.163134183 2.03737484L.997389949 3.01306867.0822596811 4.03840248M.0808745017 4.06513294L.915130268 5.04082677 0 6.06616058M.245393864 0L1.07964963.975358429.164519362 2.00102764"/>
          </g>
          <g transform="translate(16.634)">
            <path d="M.163134183 2.03737484L.99766134 3.01306867.0822596811 4.03840248M.0808745017 4.06513294L.915130268 5.04082677 0 6.06616058M.245122473 0L1.07964963.975358429.164519362 2.00102764"/>
          </g>
        </g>
      </g>
    </g>
    <path fill="#333838" fill-rule="nonzero" d="M261.80976,83.0134694 C261.886215,83.0134694 261.932088,82.9225724 262.039124,82.6650307 C262.742508,80.9985844 263.981074,78.1353268 264.944403,76.0446942 C265.907732,73.8934636 266.182969,73.5753238 266.825189,73.4086792 C267.100426,73.3632307 267.176881,73.3026326 267.176881,73.2420346 C267.176881,73.1814365 267.100426,73.166287 266.901644,73.166287 C266.626407,73.166287 266.213551,73.2268851 265.785405,73.2268851 C265.326677,73.2268851 265.112603,73.166287 264.715039,73.166287 C264.500966,73.166287 264.455093,73.196586 264.455093,73.2571841 C264.455093,73.3177821 264.546839,73.3480812 264.791494,73.4238287 C265.296095,73.5753238 265.311386,73.8328655 265.234931,74.1661548 C264.913821,75.2872186 263.063617,79.5290818 262.329652,81.104631 C262.283779,81.1955281 262.253198,81.2106776 262.192034,81.104631 C261.672142,79.9684177 260.99934,78.5292141 260.617067,77.6353929 C260.586485,77.5596453 260.586485,77.4838978 260.601776,77.4535988 C260.861722,76.9839639 261.610978,75.4841623 262.008542,74.7266867 C262.513144,73.848015 262.803671,73.5298753 263.369436,73.4086792 C263.583509,73.3632307 263.659964,73.3177821 263.659964,73.2420346 C263.659964,73.1814365 263.583509,73.166287 263.400018,73.166287 C263.048326,73.166287 262.803671,73.2268851 262.268488,73.2268851 C261.870924,73.2268851 261.626269,73.1814365 261.243995,73.1814365 C261.060504,73.1814365 260.968758,73.2117356 260.968758,73.2571841 C260.968758,73.3177821 261.014631,73.3783802 261.289868,73.4389782 C261.947379,73.5904733 261.96267,73.7419685 261.48865,74.8478828 C261.167541,75.5902088 260.846431,76.2870864 260.479448,77.0294124 C260.433576,77.10516 260.372412,77.0900105 260.357121,77.0597115 C259.85252,75.9083486 259.393792,74.8781818 259.149137,74.2419023 C258.919772,73.6813704 259.072682,73.4995763 259.485537,73.4238287 C259.684319,73.3783802 259.776065,73.3329316 259.776065,73.2571841 C259.776065,73.196586 259.669029,73.166287 259.516119,73.166287 C259.164427,73.166287 258.812736,73.2268851 258.262262,73.2268851 C257.711788,73.2268851 257.42126,73.166287 256.977823,73.166287 C256.779041,73.166287 256.687295,73.2117356 256.687295,73.2571841 C256.687295,73.3329316 256.76375,73.3935297 257.008405,73.4389782 C257.482424,73.5601743 257.604751,73.7419685 258.048189,74.6812382 C258.384589,75.4084147 259.409083,77.7111404 259.653738,78.2868219 C259.653738,78.3171209 259.653738,78.4231675 259.623156,78.468616 C259.2103,79.4381848 258.843318,80.1956603 258.415171,81.0591825 C258.369299,81.13493 258.308135,81.1652291 258.262262,81.0591825 C257.222478,78.7867558 255.708675,75.5599098 255.066455,73.9843606 C254.959419,73.7116694 254.959419,73.5298753 255.387565,73.4541277 C255.571056,73.4238287 255.662802,73.3783802 255.662802,73.3026326 C255.662802,73.2420346 255.571056,73.196586 255.356983,73.196586 C255.035873,73.196586 254.668891,73.2268851 254.33249,73.2268851 C253.873762,73.2268851 253.246833,73.166287 252.879851,73.166287 C252.681068,73.166287 252.574032,73.2268851 252.574032,73.2723336 C252.574032,73.3329316 252.71165,73.3935297 252.895142,73.4086792 C253.476197,73.4844268 253.598525,73.757118 254.148999,74.9387799 C254.867673,76.423432 255.892166,78.6655597 256.733168,80.5895476 C256.93195,81.044033 257.405969,82.1499473 257.604751,82.6498812 C257.711788,82.9225724 257.74237,83.0134694 257.834116,83.0134694 C257.895279,83.0134694 257.987025,82.8922734 258.078771,82.6498812 C258.415171,81.7712095 259.225591,79.9987167 259.806647,78.8776528 C259.837229,78.8322043 259.883102,78.8322043 259.913684,78.8928023 C260.357121,79.8623711 261.228704,81.7409105 261.549814,82.6650307 C261.64156,82.9074229 261.702724,83.0134694 261.80976,83.0134694 Z M269.103539,82.8922734 C269.592849,82.8922734 270.066868,82.6650307 270.280942,82.2408444 C270.342105,82.1044988 270.280942,82.0590502 270.189196,82.1044988 C270.020996,82.1953958 269.868086,82.2408444 269.745759,82.2408444 C269.317612,82.2408444 269.179994,81.9530036 269.179994,81.6651629 C269.179994,81.2712756 269.225867,79.832072 269.225867,79.2715401 C269.225867,78.8019053 269.164703,78.1807753 269.011793,77.8929346 C268.828302,77.4232997 268.354283,77.1203095 267.834391,77.1203095 C267.574445,77.1203095 267.268626,77.2112066 266.916935,77.3930007 C266.611116,77.5444958 266.106515,77.8626356 265.754823,78.2716724 C265.571332,78.4837655 265.464295,78.6201111 265.464295,78.7261577 C265.464295,78.7867558 265.54075,78.8776528 265.617205,78.8625033 C265.724241,78.8473538 266.182969,78.6352606 266.335879,78.5292141 C266.366461,78.498915 266.397043,78.4534665 266.397043,78.408018 C266.397043,78.3019714 266.397043,78.1807753 266.412333,78.1201773 C266.442915,77.9535326 266.534661,77.847486 266.641698,77.756589 C266.871062,77.6202434 267.023971,77.5747948 267.253335,77.5747948 C267.436827,77.5747948 267.696773,77.6656919 267.895555,77.817187 C268.155501,78.0141307 268.262537,78.438317 268.262537,79.059447 C268.262537,79.2715401 268.262537,79.5745304 268.231955,79.7563245 C268.231955,79.8169225 268.155501,79.9532681 268.033173,79.9835672 C267.712063,80.1047633 266.320588,80.5138001 265.953605,80.7107437 C265.815987,80.7864913 265.403131,81.0894815 265.403131,81.5742659 C265.403131,82.3620405 266.014769,82.8771238 266.626407,82.8771238 C267.207462,82.8771238 267.666191,82.6195822 268.124919,82.1953958 C268.14021,82.1802463 268.186083,82.1802463 268.201374,82.2105453 C268.338992,82.5589841 268.675393,82.8922734 269.103539,82.8922734 Z M267.299208,82.3014424 C266.825189,82.3014424 266.381752,81.9530036 266.381752,81.4530698 C266.381752,81.0137339 266.580534,80.7864913 266.764025,80.6955942 C267.085135,80.5289496 267.972009,80.2108098 268.170792,80.1805108 C268.201374,80.1653613 268.231955,80.2411089 268.231955,80.2562584 C268.231955,80.8319398 268.201374,81.4379203 268.155501,81.695462 C268.14021,81.8621066 268.048464,81.9984522 267.9873,82.0590502 C267.8191,82.2105453 267.559154,82.3014424 267.299208,82.3014424 Z M272.69691,82.8619743 C273.125057,82.8619743 273.599076,82.7256287 273.935476,82.468087 C274.134259,82.3165919 274.271877,82.1650968 274.271877,82.0741997 C274.271877,82.0136017 274.226004,81.9984522 274.118968,82.0741997 C273.981349,82.1650968 273.706112,82.3014424 273.277966,82.3014424 C272.880401,82.3014424 272.559292,82.1802463 272.329928,81.8924056 C272.222891,81.7409105 272.192309,81.5591164 272.161727,81.074332 C272.146436,80.6046971 272.131145,78.2262238 272.131145,77.9686821 C272.131145,77.8777851 272.161727,77.8323365 272.345219,77.8323365 C272.758074,77.8323365 273.50733,77.847486 274.042513,77.847486 C274.118968,77.847486 274.195422,77.72629 274.195422,77.4687483 C274.195422,77.3627017 274.134259,77.2566551 274.103677,77.2566551 C273.782567,77.2566551 272.513419,77.3021036 272.238182,77.3021036 C272.177018,77.3021036 272.161727,77.2112066 272.161727,77.165758 C272.146436,76.9839639 272.177018,76.5597776 272.177018,76.423432 C272.177018,76.3476844 272.069982,76.3173854 271.932363,76.4688805 C271.565381,76.9385154 271.06078,77.3475522 270.678506,77.4838978 C270.510306,77.5596453 270.495015,77.6050939 270.495015,77.6353929 C270.495015,77.6959909 270.571469,77.7414395 270.693797,77.7717385 C270.831415,77.8020375 270.999616,77.8323365 271.06078,77.8626356 C271.121943,77.8929346 271.137234,77.9989812 271.137234,78.1656258 L271.137234,81.3015747 C271.137234,81.6651629 271.198398,81.9681532 271.320726,82.1650968 C271.580672,82.6498812 272.054691,82.8619743 272.69691,82.8619743 Z M277.177156,82.8922734 C278.04874,82.8922734 278.690959,82.5892831 279.302597,81.9378541 C279.394342,81.8318076 279.455506,81.7409105 279.455506,81.695462 C279.455506,81.6197144 279.394342,81.5894154 279.272015,81.7106115 C278.905032,82.0590502 278.446304,82.1953958 277.819375,82.1953958 C277.314774,82.1953958 276.703137,82.0287512 276.290281,81.5742659 C275.892717,81.13493 275.586898,80.5138001 275.586898,79.741175 C275.586898,79.3169887 275.632771,79.089746 275.709226,78.9079519 C275.739807,78.8625033 275.816262,78.7867558 275.846844,78.7867558 L276.672555,78.7867558 C277.024247,78.7867558 279.012069,78.8170548 279.134396,78.8322043 C279.210851,78.8322043 279.287306,78.7413072 279.287306,78.6655597 C279.287306,77.7414395 278.323976,77.1203095 277.421811,77.1203095 C276.626682,77.1203095 275.923299,77.4838978 275.510443,77.8777851 C274.868224,78.498915 274.623569,79.3927362 274.623569,80.0896137 C274.623569,80.9076874 274.898806,81.6348639 275.357534,82.1196483 C275.816262,82.6044326 276.458482,82.8922734 277.177156,82.8922734 Z M275.908008,78.5746626 C275.877426,78.5746626 275.846844,78.5443636 275.846844,78.5140646 C275.846844,78.3928685 275.984463,78.1050277 276.167954,77.8929346 C276.504355,77.5444958 276.886628,77.3324027 277.284192,77.3324027 C277.635884,77.3324027 277.89583,77.4687483 278.04874,77.6202434 C278.21694,77.8020375 278.262813,78.0747287 278.262813,78.2565229 C278.262813,78.3928685 278.232231,78.5595131 277.89583,78.5595131 L275.908008,78.5746626 Z M280.143598,82.8165258 C280.357672,82.8165258 280.525872,82.7256287 281.076346,82.7256287 C281.718565,82.7256287 282.223166,82.7862268 282.513694,82.7862268 C282.743058,82.7862268 282.880677,82.7559278 282.880677,82.6801802 C282.880677,82.6044326 282.804222,82.5741336 282.590149,82.5438346 C282.009093,82.4832365 281.825602,82.37719 281.764438,81.9075551 C281.733856,81.5894154 281.703274,80.8016408 281.703274,79.6805769 C281.703274,79.3775867 281.687983,78.9382509 281.718565,78.7564567 C281.733856,78.5746626 281.810311,78.408018 281.978511,78.2262238 C282.177294,78.0444297 282.421949,77.9232336 282.651313,77.9232336 C282.819513,77.9232336 283.018295,77.9989812 283.186496,78.1050277 C283.354696,78.1959248 283.431151,78.2110743 283.461733,78.2110743 C283.507605,78.2110743 283.568769,78.1959248 283.706388,78.0747287 C283.889879,77.9080841 284.042788,77.6656919 284.042788,77.5596453 C284.042788,77.4838978 284.012207,77.4081502 283.935752,77.3475522 C283.782842,77.2263561 283.58406,77.1506085 283.400569,77.1506085 C282.788931,77.1506085 282.177294,77.7111404 281.749147,78.2413733 C281.703274,78.2868219 281.672693,78.2716724 281.672693,78.2262238 C281.672693,77.9838317 281.687983,77.4081502 281.687983,77.2415056 C281.687983,77.0900105 281.657402,77.0294124 281.62682,77.0294124 C281.580947,77.0294124 281.504492,77.0445619 281.397456,77.10516 C281.152801,77.2415056 280.724654,77.3930007 280.418835,77.4687483 C280.281217,77.5141968 280.189471,77.5747948 280.189471,77.6050939 C280.189471,77.6353929 280.204762,77.6808414 280.311799,77.756589 C280.602327,77.9989812 280.709363,78.0444297 280.709363,78.1504763 L280.709363,79.832072 C280.709363,80.8319398 280.694072,81.695462 280.66349,81.9530036 C280.602327,82.3620405 280.434126,82.4983861 280.113017,82.5741336 C279.990689,82.6044326 279.883652,82.6801802 279.883652,82.7256287 C279.883652,82.7862268 279.960107,82.8165258 280.143598,82.8165258 Z M258.308135,97.9660372 C258.506917,97.9660372 258.613954,97.9508877 258.613954,97.8599907 C258.613954,97.7842431 258.537499,97.7539441 258.354008,97.7084955 C257.834116,97.5570004 257.681206,97.4509538 257.620042,96.9358705 C257.57417,96.4662356 257.513006,94.5876962 257.528297,93.7393235 L257.529346,93.428104 C257.534715,92.3552941 257.558879,89.5109266 257.558879,89.012676 C257.558879,88.9066294 257.57417,88.7854333 257.650624,88.7702838 C257.834116,88.7475595 258.310046,88.7418785 258.73652,88.7404582 L259.133846,88.7399848 C260.204211,88.7399848 260.402994,88.8005828 260.540612,88.9217789 C260.66294,89.042975 260.785267,89.3611147 260.815849,89.6338059 C260.83114,89.7095535 260.877013,89.8458991 260.938177,89.8458991 C260.984049,89.8458991 261.060504,89.7398525 261.060504,89.5126099 C261.045213,88.9975265 261.045213,88.5430411 261.106377,88.361247 C261.121668,88.2400509 261.106377,88.2097519 261.091086,88.1643033 C261.075795,88.1340043 261.029922,88.1491538 260.968758,88.1946024 C260.708812,88.330948 260.433576,88.361247 259.714901,88.361247 L257.084859,88.3763965 C255.509893,88.3763965 253.996089,88.330948 253.751434,88.3157985 C253.537361,88.3006489 253.323288,88.2400509 253.262124,88.1643033 C253.216251,88.1188548 253.170379,88.0885558 253.139797,88.1037053 C253.063342,88.1340043 253.063342,88.2097519 253.048051,88.330948 C253.048051,88.7248353 252.925724,89.1793206 252.849269,89.6338059 C252.833978,89.7398525 252.833978,89.8610486 252.895142,89.8610486 C252.956305,89.8610486 253.03276,89.7853011 253.109215,89.6035069 C253.323288,89.012676 253.52207,88.8308818 253.812598,88.7702838 C254.118417,88.7399848 254.4854,88.7096857 255.112328,88.7096857 C255.815711,88.7096857 256.167403,88.7399848 256.259149,88.7551343 C256.305021,88.7551343 256.350894,88.8005828 256.366185,88.9369284 C256.396767,89.1490216 256.396767,95.1785271 256.289731,96.6480297 C256.243858,97.3449073 256.152112,97.5872995 255.418147,97.693346 C255.249947,97.7236451 255.112328,97.7690936 255.112328,97.8296916 C255.112328,97.9054392 255.188783,97.9660372 255.387565,97.9660372 C255.63222,97.9660372 256.090948,97.8751402 256.870786,97.8751402 C257.482424,97.8751402 257.956443,97.9660372 258.308135,97.9660372 Z M260.051302,97.9660372 C260.265375,97.9660372 260.433576,97.8751402 260.984049,97.8751402 C261.626269,97.8751402 262.13087,97.9357382 262.421398,97.9357382 C262.650762,97.9357382 262.78838,97.9054392 262.78838,97.8296916 C262.78838,97.7539441 262.711926,97.7236451 262.497853,97.693346 C261.916797,97.632748 261.733306,97.5267014 261.672142,97.0570666 C261.64156,96.7389268 261.610978,95.9511522 261.610978,94.8300884 C261.610978,94.5270981 261.595687,94.0877623 261.626269,93.9059682 C261.64156,93.724174 261.718015,93.5575294 261.886215,93.3757353 C262.084997,93.1939411 262.329652,93.072745 262.559016,93.072745 C262.727217,93.072745 262.925999,93.1484926 263.094199,93.2545392 C263.2624,93.3454362 263.338854,93.3605858 263.369436,93.3605858 C263.415309,93.3605858 263.476473,93.3454362 263.614091,93.2242402 C263.797583,93.0575955 263.950492,92.8152033 263.950492,92.7091568 C263.950492,92.6334092 263.91991,92.5576617 263.843455,92.4970636 C263.690546,92.3758675 263.491764,92.30012 263.308272,92.30012 C262.696635,92.30012 262.084997,92.8606519 261.656851,93.3908848 C261.610978,93.4363333 261.580396,93.4211838 261.580396,93.3757353 C261.580396,93.1333431 261.595687,92.5576617 261.595687,92.391017 C261.595687,92.2395219 261.565105,92.1789239 261.534523,92.1789239 C261.48865,92.1789239 261.412196,92.1940734 261.305159,92.2546714 C261.060504,92.391017 260.632358,92.5425121 260.326539,92.6182597 C260.18892,92.6637082 260.097175,92.7243063 260.097175,92.7546053 C260.097175,92.7849043 260.112466,92.8303529 260.219502,92.9061004 C260.51003,93.1484926 260.617067,93.1939411 260.617067,93.2999877 L260.615793,95.467981 C260.611545,96.2524592 260.596679,96.887897 260.571194,97.1025151 C260.51003,97.5115519 260.34183,97.6478975 260.02072,97.7236451 C259.898393,97.7539441 259.791356,97.8296916 259.791356,97.8751402 C259.791356,97.9357382 259.867811,97.9660372 260.051302,97.9660372 Z M266.809898,98.0417848 C267.681482,98.0417848 268.323701,97.7387946 268.935339,97.0873656 C269.027084,96.981319 269.088248,96.8904219 269.088248,96.8449734 C269.088248,96.7692258 269.027084,96.7389268 268.904757,96.8601229 C268.537774,97.2085617 268.079046,97.3449073 267.452117,97.3449073 C266.947516,97.3449073 266.335879,97.1782626 265.923023,96.7237773 C265.525459,96.2844415 265.21964,95.6633115 265.21964,94.8906864 C265.21964,94.4665001 265.265513,94.2392574 265.341968,94.0574633 C265.372549,94.0120148 265.449004,93.9362672 265.479586,93.9362672 L266.305297,93.9362672 C266.656989,93.9362672 268.644811,93.9665662 268.767138,93.9817157 C268.843593,93.9817157 268.920048,93.8908187 268.920048,93.8150711 C268.920048,92.8909509 267.956719,92.2698209 267.054553,92.2698209 C266.259424,92.2698209 265.556041,92.6334092 265.143185,93.0272965 C264.500966,93.6484265 264.256311,94.5422477 264.256311,95.2391252 C264.256311,96.0571988 264.531548,96.7843753 264.990276,97.2691597 C265.449004,97.7539441 266.091224,98.0417848 266.809898,98.0417848 Z M265.54075,93.724174 C265.510168,93.724174 265.479586,93.693875 265.479586,93.663576 C265.479586,93.5423799 265.617205,93.2545392 265.800696,93.042446 C266.137097,92.6940073 266.51937,92.4819141 266.916935,92.4819141 C267.268626,92.4819141 267.528572,92.6182597 267.681482,92.7697548 C267.849682,92.951549 267.895555,93.2242402 267.895555,93.4060343 C267.895555,93.5423799 267.864973,93.7090245 267.528572,93.7090245 L265.54075,93.724174 Z M273.522621,98.0417848 C274.011931,98.0417848 274.48595,97.8145421 274.700023,97.3903558 C274.761187,97.2540102 274.700023,97.2085617 274.608278,97.2540102 C274.440077,97.3449073 274.287168,97.3903558 274.164841,97.3903558 C273.736694,97.3903558 273.599076,97.1025151 273.599076,96.8146744 C273.599076,96.4207871 273.644949,94.9815835 273.644949,94.4210516 C273.644949,93.9514167 273.583785,93.3302867 273.430875,93.042446 C273.247384,92.5728112 272.773365,92.2698209 272.253473,92.2698209 C271.993527,92.2698209 271.687708,92.360718 271.336016,92.5425121 C271.030198,92.6940073 270.525597,93.012147 270.173905,93.4211838 C269.990414,93.633277 269.883377,93.7696226 269.883377,93.8756691 C269.883377,93.9362672 269.959832,94.0271643 270.036286,94.0120148 C270.143323,93.9968652 270.602051,93.7847721 270.754961,93.6787255 C270.785543,93.6484265 270.816124,93.6029779 270.816124,93.5575294 C270.816124,93.4514828 270.816124,93.3302867 270.831415,93.2696887 C270.861997,93.1030441 270.953743,92.9969975 271.06078,92.9061004 C271.290144,92.7697548 271.443053,92.7243063 271.672417,92.7243063 C271.855908,92.7243063 272.115854,92.8152033 272.314637,92.9666985 C272.574583,93.1636421 272.681619,93.5878284 272.681619,94.2089584 C272.681619,94.4210516 272.681619,94.7240418 272.651037,94.9058359 C272.651037,94.966434 272.574583,95.1027796 272.452255,95.1330786 C272.131145,95.2542747 270.73967,95.6633115 270.372687,95.8602551 C270.235069,95.9360027 269.822213,96.2389929 269.822213,96.7237773 C269.822213,97.5115519 270.433851,98.0266353 271.045489,98.0266353 C271.626544,98.0266353 272.085273,97.7690936 272.544001,97.3449073 C272.559292,97.3297578 272.605165,97.3297578 272.620456,97.3600568 C272.758074,97.7084955 273.094475,98.0417848 273.522621,98.0417848 Z M271.71829,97.4509538 C271.244271,97.4509538 270.800834,97.1025151 270.800834,96.6025812 C270.800834,96.1632454 270.999616,95.9360027 271.183107,95.8451056 C271.504217,95.678461 272.391091,95.3603213 272.589874,95.3300222 C272.620456,95.3148727 272.651037,95.3906203 272.651037,95.4057698 C272.651037,95.9814512 272.620456,96.5874317 272.574583,96.8449734 C272.559292,97.011618 272.467546,97.1479636 272.406382,97.2085617 C272.238182,97.3600568 271.978236,97.4509538 271.71829,97.4509538 Z M277.115992,98.0114858 C277.544138,98.0114858 278.018158,97.8751402 278.354558,97.6175985 C278.553341,97.4661034 278.690959,97.3146082 278.690959,97.2237112 C278.690959,97.1631131 278.645086,97.1479636 278.53805,97.2237112 C278.400431,97.3146082 278.125194,97.4509538 277.697048,97.4509538 C277.299483,97.4509538 276.978374,97.3297578 276.74901,97.041917 C276.641973,96.8904219 276.611391,96.7086278 276.580809,96.2238434 C276.565518,95.7542086 276.550227,93.3757353 276.550227,93.1181936 C276.550227,93.0272965 276.580809,92.981848 276.764301,92.981848 C277.177156,92.981848 277.926412,92.9969975 278.461595,92.9969975 C278.53805,92.9969975 278.614504,92.8758014 278.614504,92.6182597 C278.614504,92.5122131 278.553341,92.4061665 278.522759,92.4061665 C278.201649,92.4061665 276.932501,92.4516151 276.657264,92.4516151 C276.5961,92.4516151 276.580809,92.360718 276.580809,92.3152695 C276.565518,92.1334753 276.5961,91.709289 276.5961,91.5729434 C276.5961,91.4971959 276.489064,91.4668968 276.351445,91.6183919 C275.984463,92.0880268 275.479861,92.4970636 275.097588,92.6334092 C274.929388,92.7091568 274.914097,92.7546053 274.914097,92.7849043 C274.914097,92.8455024 274.990551,92.8909509 275.112879,92.9212499 C275.250497,92.951549 275.418698,92.981848 275.479861,93.012147 C275.541025,93.042446 275.556316,93.1484926 275.556316,93.3151372 L275.556316,96.4510861 C275.556316,96.8146744 275.61748,97.1176646 275.739807,97.3146082 C275.999753,97.7993926 276.473773,98.0114858 277.115992,98.0114858 Z M286.841031,97.9205887 C287.070395,97.9205887 287.406795,97.8751402 287.773778,97.8751402 C288.12547,97.8751402 288.660653,97.9054392 288.828853,97.9054392 C289.012344,97.9054392 289.088799,97.8751402 289.088799,97.7993926 C289.088799,97.7539441 289.027635,97.7084955 288.813562,97.663047 C288.477161,97.602449 288.385416,97.4964024 288.370125,96.9964685 L288.308961,94.8149389 C288.308961,94.2544069 288.232506,93.6787255 288.12547,93.3757353 C287.926687,92.7849043 287.422086,92.2698209 286.581085,92.2698209 C285.816538,92.2698209 285.113154,92.6788577 284.486226,93.2848382 C284.455644,93.2999877 284.39448,93.2848382 284.379189,93.2545392 C284.042788,92.6031102 283.553478,92.2849704 282.850095,92.2849704 C282.192585,92.2849704 281.458619,92.7243063 280.954018,93.1787916 C280.892855,93.2242402 280.877564,93.1333431 280.877564,93.0878946 C280.862273,92.9212499 280.877564,92.5273626 280.877564,92.360718 C280.877564,92.2698209 280.846982,92.2092229 280.801109,92.2092229 C280.739945,92.2092229 280.66349,92.2395219 280.571745,92.30012 C280.32709,92.4970636 279.853071,92.6788577 279.531961,92.7546053 C279.409633,92.7849043 279.34847,92.8152033 279.34847,92.8606519 L279.36376,92.8606519 C279.36376,92.9363994 279.394342,92.9666985 279.501379,93.0272965 C279.746034,93.1636421 279.83778,93.2999877 279.853071,93.5575294 C279.883652,93.8453701 279.868362,94.2241079 279.868362,94.7846398 L279.867406,95.4893288 C279.864539,96.220056 279.853071,96.9699569 279.807198,97.2085617 C279.776616,97.3903558 279.776616,97.5570004 279.302597,97.663047 C279.088524,97.693346 278.996778,97.7387946 278.996778,97.7993926 C278.996778,97.8599907 279.134396,97.9054392 279.272015,97.9054392 C279.470797,97.9054392 279.791907,97.8751402 280.265926,97.8751402 C280.632909,97.8751402 281.13751,97.9054392 281.428038,97.9054392 C281.535074,97.9054392 281.657402,97.8751402 281.657402,97.7993926 C281.657402,97.7539441 281.596238,97.7084955 281.428038,97.6781965 C281.061055,97.602449 280.969309,97.4206548 280.938727,97.1782626 C280.908146,96.9055714 280.846982,95.8451056 280.846982,94.7240418 C280.846982,94.2089584 280.892855,93.8605196 280.908146,93.693875 C280.923436,93.5878284 280.954018,93.4363333 281.091637,93.3151372 C281.321001,93.1030441 281.703274,92.8455024 282.238457,92.8455024 C282.712477,92.8455024 282.957132,92.981848 283.171205,93.1939411 C283.477024,93.5272304 283.553478,93.8756691 283.553478,94.7088923 L283.538187,97.1631131 C283.538187,97.5267014 283.385278,97.602449 283.064168,97.663047 C282.865386,97.7084955 282.788931,97.7690936 282.788931,97.8145421 C282.788931,97.8751402 282.865386,97.9054392 283.033586,97.9054392 C283.201787,97.9054392 283.568769,97.8751402 283.90517,97.8751402 C284.348607,97.8751402 284.807335,97.9054392 285.082572,97.9054392 C285.250773,97.9054392 285.342518,97.8751402 285.342518,97.8145421 C285.342518,97.7539441 285.266064,97.7387946 285.097863,97.6781965 C284.71559,97.5872995 284.669717,97.4812529 284.623844,97.0570666 C284.593262,96.6480297 284.547389,94.3301545 284.516808,93.9059682 C284.516808,93.633277 284.56268,93.4666323 284.623844,93.4060343 C284.88379,93.1484926 285.357809,92.8455024 285.923574,92.8455024 C286.67283,92.8455024 287.070395,93.2242402 287.208013,93.9968652 C287.269177,94.4513506 287.345632,95.1785271 287.31505,96.9964685 C287.31505,97.4509538 287.238595,97.5872995 286.795158,97.6781965 C286.67283,97.7084955 286.535212,97.7539441 286.535212,97.8296916 C286.535212,97.8902897 286.642248,97.9205887 286.841031,97.9205887 Z M292.376351,98.0417848 C293.247935,98.0417848 293.890154,97.7387946 294.501792,97.0873656 C294.593538,96.981319 294.654701,96.8904219 294.654701,96.8449734 C294.654701,96.7692258 294.593538,96.7389268 294.47121,96.8601229 C294.104228,97.2085617 293.645499,97.3449073 293.018571,97.3449073 C292.51397,97.3449073 291.902332,97.1782626 291.489477,96.7237773 C291.091912,96.2844415 290.786093,95.6633115 290.786093,94.8906864 C290.786093,94.4665001 290.831966,94.2392574 290.908421,94.0574633 C290.939003,94.0120148 291.015457,93.9362672 291.046039,93.9362672 L291.87175,93.9362672 C292.223442,93.9362672 294.211264,93.9665662 294.333592,93.9817157 C294.410046,93.9817157 294.486501,93.8908187 294.486501,93.8150711 C294.486501,92.8909509 293.523172,92.2698209 292.621006,92.2698209 C291.825877,92.2698209 291.122494,92.6334092 290.709639,93.0272965 C290.067419,93.6484265 289.822764,94.5422477 289.822764,95.2391252 C289.822764,96.0571988 290.098001,96.7843753 290.556729,97.2691597 C291.015457,97.7539441 291.657677,98.0417848 292.376351,98.0417848 Z M291.107203,93.724174 C291.076621,93.724174 291.046039,93.693875 291.046039,93.663576 C291.046039,93.5423799 291.183658,93.2545392 291.367149,93.042446 C291.70355,92.6940073 292.085823,92.4819141 292.483388,92.4819141 C292.835079,92.4819141 293.095025,92.6182597 293.247935,92.7697548 C293.416135,92.951549 293.462008,93.2242402 293.462008,93.4060343 C293.462008,93.5423799 293.431426,93.7090245 293.095025,93.7090245 L291.107203,93.724174 Z M301.076897,97.9357382 C301.229806,97.9357382 301.352134,97.9205887 301.352134,97.8296916 C301.352134,97.7690936 301.260388,97.7387946 301.122769,97.6781965 C300.709914,97.5721499 300.664041,97.4812529 300.64875,96.4510861 C300.64875,95.6936105 300.633459,95.5724144 300.633459,94.7694903 C300.618168,93.9059682 300.495841,93.1484926 300.144149,92.7849043 C299.945367,92.5728112 299.578384,92.2698209 298.951456,92.2698209 C298.69151,92.2698209 298.3704,92.30012 298.04929,92.4516151 C297.71289,92.5879607 297.345907,92.8455024 296.963634,93.1333431 C296.933052,93.1636421 296.887179,93.1181936 296.887179,93.0878946 C296.871888,92.8758014 296.90247,92.4667646 296.917761,92.2849704 C296.933052,92.2092229 296.856597,92.1486248 296.810724,92.1637744 C296.550778,92.330419 295.93914,92.5879607 295.60274,92.6788577 C295.465121,92.7243063 295.388667,92.7697548 295.388667,92.8000538 C295.388667,92.8455024 295.419248,92.8758014 295.510994,92.9363994 C295.877977,93.1333431 295.908559,93.2999877 295.908559,93.4514828 L295.907426,94.7167476 C295.905161,95.5740977 295.898365,96.4359366 295.877977,97.1631131 C295.862686,97.4661034 295.801522,97.5721499 295.419248,97.6478975 C295.235757,97.6781965 295.098139,97.7387946 295.098139,97.7993926 C295.098139,97.8751402 295.220466,97.9054392 295.388667,97.9054392 C295.679194,97.9054392 296.000304,97.8751402 296.199086,97.8751402 C296.550778,97.8751402 297.300034,97.9357382 297.422362,97.9357382 C297.575271,97.9357382 297.728181,97.9357382 297.728181,97.8448411 C297.728181,97.7690936 297.651726,97.7387946 297.468235,97.693346 C297.22358,97.6175985 297.040088,97.5418509 296.994215,97.2085617 C296.963634,96.9964685 296.917761,96.6025812 296.90247,95.617863 L296.901137,95.1383143 C296.897415,94.4474693 296.887179,93.9032137 296.887179,93.7544731 C296.887179,93.633277 296.963634,93.4060343 297.07067,93.2999877 C297.468235,92.9666985 297.865799,92.8152033 298.263364,92.8152033 C298.615055,92.8152033 298.905583,92.9212499 299.134947,93.1030441 C299.517221,93.3908848 299.624257,93.7544731 299.624257,94.9815835 L299.624257,97.041917 C299.624257,97.4812529 299.563093,97.5872995 299.196111,97.6781965 C298.997329,97.7236451 298.905583,97.7842431 298.905583,97.8448411 C298.905583,97.9054392 299.01262,97.9357382 299.150238,97.9357382 C299.379602,97.9357382 299.578384,97.8751402 300.098276,97.8751402 C300.434677,97.8751402 300.878114,97.9357382 301.076897,97.9357382 Z M304.119794,98.0114858 C304.54794,98.0114858 305.021959,97.8751402 305.35836,97.6175985 C305.557142,97.4661034 305.694761,97.3146082 305.694761,97.2237112 C305.694761,97.1631131 305.648888,97.1479636 305.541851,97.2237112 C305.404233,97.3146082 305.128996,97.4509538 304.70085,97.4509538 C304.303285,97.4509538 303.982175,97.3297578 303.752811,97.041917 C303.645775,96.8904219 303.615193,96.7086278 303.584611,96.2238434 C303.56932,95.7542086 303.554029,93.3757353 303.554029,93.1181936 C303.554029,93.0272965 303.584611,92.981848 303.768102,92.981848 C304.180958,92.981848 304.930214,92.9969975 305.465397,92.9969975 C305.541851,92.9969975 305.618306,92.8758014 305.618306,92.6182597 C305.618306,92.5122131 305.557142,92.4061665 305.52656,92.4061665 C305.205451,92.4061665 303.936303,92.4516151 303.661066,92.4516151 C303.599902,92.4516151 303.584611,92.360718 303.584611,92.3152695 C303.56932,92.1334753 303.599902,91.709289 303.599902,91.5729434 C303.599902,91.4971959 303.492865,91.4668968 303.355247,91.6183919 C302.988264,92.0880268 302.483663,92.4970636 302.10139,92.6334092 C301.933189,92.7091568 301.917898,92.7546053 301.917898,92.7849043 C301.917898,92.8455024 301.994353,92.8909509 302.116681,92.9212499 C302.254299,92.951549 302.422499,92.981848 302.483663,93.012147 C302.544827,93.042446 302.560118,93.1484926 302.560118,93.3151372 L302.560118,96.4510861 C302.560118,96.8146744 302.621282,97.1176646 302.743609,97.3146082 C303.003555,97.7993926 303.477574,98.0114858 304.119794,98.0114858 Z M256.228567,113.115549 C256.381476,113.115549 256.549677,113.100399 256.549677,113.009502 C256.549677,112.948904 256.457931,112.903456 256.335603,112.873156 C255.63222,112.706512 255.540474,112.615615 255.525183,112.039933 C255.494602,111.358205 255.46402,108.994882 255.479311,108.72219 C255.479311,108.646443 255.601638,108.525247 255.63222,108.525247 L256.197868,108.526058 C257.834844,108.531155 258.056198,108.559874 258.277553,108.600994 C258.461044,108.646443 258.613954,108.797938 258.736281,109.131227 C258.828027,109.34332 258.889191,109.464516 258.950354,109.464516 C259.026809,109.464516 259.057391,109.403918 259.057391,109.206975 C259.0421,109.010031 258.996227,108.797938 258.996227,108.479798 C258.996227,108.161658 259.057391,107.707173 259.072682,107.540528 C259.087973,107.389033 259.057391,107.313286 258.996227,107.313286 C258.950354,107.313286 258.904481,107.373884 258.828027,107.525379 C258.598663,108.040462 258.384589,108.085911 258.170516,108.11621 C257.925861,108.146509 257.191896,108.161658 255.63222,108.161658 C255.601638,108.161658 255.494602,108.10106 255.494602,107.979864 C255.46402,106.23767 255.494602,104.495477 255.509893,104.07129 C255.509893,103.995543 255.616929,103.798599 255.723966,103.798599 L256.816422,103.799923 C257.504139,103.802902 257.923509,103.812583 258.262262,103.844048 C258.812736,103.889496 259.149137,104.116739 259.409083,104.70757 C259.485537,104.904513 259.53141,105.01056 259.592574,105.01056 C259.669029,105.01056 259.69961,104.874214 259.669029,104.722719 C259.638447,104.540925 259.592574,103.874347 259.561992,103.662254 C259.561992,103.556207 259.454955,103.480459 259.133846,103.480459 C258.55279,103.480459 256.93195,103.525908 255.326401,103.525908 C254.6536,103.525908 253.812598,103.46531 253.629107,103.46531 C253.491488,103.46531 253.399743,103.495609 253.399743,103.556207 C253.399743,103.631955 253.506779,103.677403 253.644398,103.707702 C254.194872,103.844048 254.240744,103.980393 254.271326,104.525776 C254.317199,105.449896 254.317199,106.374016 254.317199,107.979864 C254.317199,109.646311 254.317199,111.52485 254.271326,112.024784 C254.240744,112.585316 254.16429,112.706512 253.583234,112.827708 C253.384452,112.873156 253.307997,112.918605 253.307997,112.979203 C253.307997,113.054951 253.415034,113.08525 253.552652,113.08525 C253.766725,113.08525 254.148999,113.024652 254.730055,113.024652 C255.356983,113.024652 256.014494,113.115549 256.228567,113.115549 Z M263.537637,113.191296 C264.026947,113.191296 264.500966,112.964054 264.715039,112.539867 C264.776203,112.403522 264.715039,112.358073 264.623293,112.403522 C264.455093,112.494419 264.302184,112.539867 264.179856,112.539867 C263.75171,112.539867 263.614091,112.252027 263.614091,111.964186 C263.614091,111.570299 263.659964,110.131095 263.659964,109.570563 C263.659964,109.100928 263.5988,108.479798 263.445891,108.191957 C263.2624,107.722323 262.78838,107.419332 262.268488,107.419332 C262.008542,107.419332 261.702724,107.510229 261.351032,107.692024 C261.045213,107.843519 260.540612,108.161658 260.18892,108.570695 C260.005429,108.782788 259.898393,108.919134 259.898393,109.025181 C259.898393,109.085779 259.974847,109.176676 260.051302,109.161526 C260.158339,109.146377 260.617067,108.934284 260.769976,108.828237 C260.800558,108.797938 260.83114,108.752489 260.83114,108.707041 C260.83114,108.600994 260.83114,108.479798 260.846431,108.4192 C260.877013,108.252556 260.968758,108.146509 261.075795,108.055612 C261.305159,107.919266 261.458069,107.873818 261.687433,107.873818 C261.870924,107.873818 262.13087,107.964715 262.329652,108.11621 C262.589598,108.313154 262.696635,108.73734 262.696635,109.35847 C262.696635,109.570563 262.696635,109.873553 262.666053,110.055347 C262.666053,110.115945 262.589598,110.252291 262.467271,110.28259 C262.146161,110.403786 260.754685,110.812823 260.387703,111.009767 C260.250084,111.085514 259.837229,111.388504 259.837229,111.873289 C259.837229,112.661063 260.448866,113.176147 261.060504,113.176147 C261.64156,113.176147 262.100288,112.918605 262.559016,112.494419 C262.574307,112.479269 262.62018,112.479269 262.635471,112.509568 C262.77309,112.858007 263.10949,113.191296 263.537637,113.191296 Z M261.733306,112.600465 C261.259286,112.600465 260.815849,112.252027 260.815849,111.752093 C260.815849,111.312757 261.014631,111.085514 261.198123,110.994617 C261.519232,110.827972 262.406107,110.509833 262.604889,110.479534 C262.635471,110.464384 262.666053,110.540132 262.666053,110.555281 C262.666053,111.130963 262.635471,111.736943 262.589598,111.994485 C262.574307,112.161129 262.482562,112.297475 262.421398,112.358073 C262.253198,112.509568 261.993252,112.600465 261.733306,112.600465 Z M267.864973,113.191296 C268.996502,113.191296 269.699886,112.555017 269.975123,112.191428 C270.066868,112.085382 270.09745,112.009634 270.09745,111.949036 C270.09745,111.903588 270.020996,111.918737 269.990414,111.949036 C269.455231,112.418671 269.057666,112.524718 268.400156,112.524718 C267.941428,112.524718 267.375663,112.358073 266.978098,111.994485 C266.611116,111.676345 266.213551,111.040066 266.213551,110.025048 C266.213551,108.282855 267.268626,107.676874 267.910846,107.676874 C268.079046,107.676874 268.30841,107.707173 268.491901,107.79807 C268.721266,107.919266 269.103539,108.176808 269.348194,108.4192 C269.43994,108.510097 269.546976,108.570695 269.60814,108.570695 C269.715177,108.570695 269.990414,108.373752 269.990414,108.085911 C269.990414,108.010163 269.944541,107.888967 269.77634,107.79807 C269.516394,107.601127 269.042375,107.419332 268.384865,107.419332 C267.390954,107.419332 266.595825,107.858668 266.121806,108.298004 C265.663077,108.72219 265.189058,109.449367 265.189058,110.403786 C265.189058,111.237009 265.464295,111.964186 265.953605,112.44897 C266.458206,112.933755 267.176881,113.191296 267.864973,113.191296 Z M271.993527,105.964979 C272.192309,105.964979 272.559292,105.798335 272.559292,105.389298 C272.559292,105.131756 272.3758,104.813616 272.024109,104.813616 C271.779454,104.813616 271.488926,105.02571 271.488926,105.404447 C271.488926,105.707438 271.71829,105.964979 271.993527,105.964979 Z M272.834529,113.08525 C272.956856,113.08525 273.079184,113.054951 273.079184,112.979203 C273.079184,112.918605 273.002729,112.888306 272.84982,112.858007 C272.605165,112.797409 272.452255,112.721661 272.421673,112.418671 C272.391091,112.161129 272.391091,111.040066 272.391091,109.767507 C272.391091,108.797938 272.391091,107.873818 272.421673,107.570827 C272.436964,107.404183 272.406382,107.358734 272.36051,107.358734 C272.329928,107.358734 272.253473,107.389033 272.131145,107.464781 C271.810036,107.601127 271.443053,107.752622 271.030198,107.858668 C270.892579,107.888967 270.846706,107.934416 270.846706,107.979864 C270.846706,108.010163 270.892579,108.055612 270.969034,108.10106 C271.349608,108.303054 271.403976,108.397318 271.411359,108.564731 L271.411276,108.784965 C271.405487,109.399672 271.38009,111.593468 271.366598,111.994485 C271.351307,112.615615 271.213689,112.736811 270.877288,112.827708 C270.663215,112.858007 270.58676,112.903456 270.58676,112.964054 C270.58676,113.024652 270.693797,113.054951 270.800834,113.054951 C270.969034,113.054951 271.213689,113.024652 271.71829,113.024652 C272.131145,113.024652 272.69691,113.08525 272.834529,113.08525 Z M276.015044,113.054951 C276.213827,113.054951 276.320863,113.009502 276.320863,112.948904 C276.320863,112.903456 276.213827,112.858007 276.122081,112.842857 C275.693935,112.76711 275.602189,112.661063 275.586898,112.252027 C275.571607,111.964186 275.556316,111.252159 275.556316,109.34332 L275.556316,107.737472 C275.556316,105.465045 275.61748,102.84418 275.61748,102.738133 C275.61748,102.662386 275.602189,102.571489 275.571607,102.571489 C275.510443,102.571489 275.433989,102.601788 275.388116,102.616937 C275.051715,102.738133 274.684733,102.874479 274.241295,102.965376 C274.103677,102.995675 274.011931,103.041124 274.011931,103.086572 C274.011931,103.132021 274.057804,103.16232 274.164841,103.222918 C274.562405,103.46531 274.592987,103.541057 274.592987,103.874347 C274.608278,104.540925 274.592987,105.783185 274.592987,107.010296 C274.577696,108.828237 274.516532,111.388504 274.48595,111.949036 C274.424787,112.615615 274.333041,112.75196 273.950767,112.827708 C273.751985,112.873156 273.67553,112.888306 273.67553,112.964054 C273.67553,113.039801 273.751985,113.054951 273.935476,113.054951 C274.164841,113.054951 274.562405,113.024652 274.959969,113.024652 C275.219915,113.024652 275.770389,113.054951 276.015044,113.054951 Z M278.461595,105.964979 C278.660377,105.964979 279.02736,105.798335 279.02736,105.389298 C279.02736,105.131756 278.843868,104.813616 278.492177,104.813616 C278.247522,104.813616 277.956994,105.02571 277.956994,105.404447 C277.956994,105.707438 278.186358,105.964979 278.461595,105.964979 Z M279.302597,113.08525 C279.424924,113.08525 279.547252,113.054951 279.547252,112.979203 C279.547252,112.918605 279.470797,112.888306 279.317888,112.858007 C279.073233,112.797409 278.920323,112.721661 278.889741,112.418671 C278.859159,112.161129 278.859159,111.040066 278.859159,109.767507 C278.859159,108.797938 278.859159,107.873818 278.889741,107.570827 C278.905032,107.404183 278.87445,107.358734 278.828578,107.358734 C278.797996,107.358734 278.721541,107.389033 278.599213,107.464781 C278.278104,107.601127 277.911121,107.752622 277.498266,107.858668 C277.360647,107.888967 277.314774,107.934416 277.314774,107.979864 C277.314774,108.010163 277.360647,108.055612 277.437102,108.10106 C277.865248,108.328303 277.880539,108.4192 277.880539,108.631293 C277.880539,108.782788 277.849957,111.539999 277.834666,111.994485 C277.819375,112.615615 277.681757,112.736811 277.345356,112.827708 C277.131283,112.858007 277.054828,112.903456 277.054828,112.964054 C277.054828,113.024652 277.161865,113.054951 277.268902,113.054951 C277.437102,113.054951 277.681757,113.024652 278.186358,113.024652 C278.599213,113.024652 279.164978,113.08525 279.302597,113.08525 Z M282.360785,113.160997 C282.788931,113.160997 283.26295,113.024652 283.599351,112.76711 C283.798133,112.615615 283.935752,112.46412 283.935752,112.373223 C283.935752,112.312625 283.889879,112.297475 283.782842,112.373223 C283.645224,112.46412 283.369987,112.600465 282.941841,112.600465 C282.544276,112.600465 282.223166,112.479269 281.993802,112.191428 C281.886766,112.039933 281.856184,111.858139 281.825602,111.373355 C281.810311,110.90372 281.79502,108.525247 281.79502,108.267705 C281.79502,108.176808 281.825602,108.131359 282.009093,108.131359 C282.421949,108.131359 283.171205,108.146509 283.706388,108.146509 C283.782842,108.146509 283.859297,108.025313 283.859297,107.767771 C283.859297,107.661725 283.798133,107.555678 283.767551,107.555678 C283.446442,107.555678 282.177294,107.601127 281.902057,107.601127 C281.840893,107.601127 281.825602,107.510229 281.825602,107.464781 C281.810311,107.282987 281.840893,106.8588 281.840893,106.722455 C281.840893,106.646707 281.733856,106.616408 281.596238,106.767903 C281.229255,107.237538 280.724654,107.646575 280.342381,107.782921 C280.17418,107.858668 280.158889,107.904117 280.158889,107.934416 C280.158889,107.995014 280.235344,108.040462 280.357672,108.070761 C280.49529,108.10106 280.66349,108.131359 280.724654,108.161658 C280.785818,108.191957 280.801109,108.298004 280.801109,108.464649 L280.801109,111.600598 C280.801109,111.964186 280.862273,112.267176 280.9846,112.46412 C281.244546,112.948904 281.718565,113.160997 282.360785,113.160997 Z M285.266064,117.266515 C285.434264,117.266515 285.617755,117.221066 285.770665,117.008973 C285.877701,116.872628 285.954156,116.721132 286.061193,116.448441 C286.275266,115.933358 286.856322,114.357809 287.223304,113.479137 C287.544414,112.661063 287.682032,112.312625 287.865524,111.812691 C288.094888,111.237009 289.042926,108.903984 289.226417,108.525247 C289.471072,107.964715 289.623982,107.858668 289.929801,107.767771 C290.08271,107.722323 290.143874,107.661725 290.143874,107.616276 C290.143874,107.570827 290.052128,107.555678 289.960383,107.555678 C289.731018,107.555678 289.532236,107.601127 289.256999,107.601127 C289.027635,107.601127 288.706525,107.555678 288.523034,107.555678 C288.385416,107.555678 288.308961,107.585977 288.308961,107.646575 C288.308961,107.692024 288.354834,107.737472 288.584198,107.782921 C288.844144,107.858668 288.920599,107.979864 288.920599,108.085911 C288.920599,108.161658 288.920599,108.343453 288.844144,108.525247 C288.721816,108.873685 287.865524,111.055215 287.666741,111.570299 C287.65145,111.615747 287.605578,111.630897 287.574996,111.570299 C287.269177,110.934019 286.428175,108.888835 286.229393,108.358602 C286.091774,107.964715 286.122356,107.888967 286.458757,107.782921 C286.550503,107.767771 286.657539,107.722323 286.657539,107.661725 C286.657539,107.601127 286.550503,107.555678 286.397593,107.555678 C286.198811,107.555678 285.801247,107.601127 285.587173,107.601127 C285.220191,107.601127 284.792045,107.540528 284.516808,107.540528 C284.409771,107.540528 284.272153,107.570827 284.272153,107.646575 C284.272153,107.692024 284.363898,107.752622 284.547389,107.79807 C284.807335,107.858668 284.990827,108.010163 285.097863,108.207107 C285.785956,109.691759 286.764576,112.14598 286.99394,112.736811 C287.039813,112.873156 287.070395,113.024652 287.009231,113.221595 C286.489339,114.539603 286.045902,115.781863 285.892992,116.100002 C285.801247,116.312096 285.678919,116.357544 285.495428,116.357544 L285.189609,116.327245 L285.189609,116.327245 C284.960245,116.327245 284.761463,116.539338 284.761463,116.766581 C284.761463,117.069571 285.021409,117.266515 285.266064,117.266515 Z"/>
    <g fill-rule="nonzero" stroke-linecap="round" stroke-linejoin="round" transform="translate(79.18 74.169)">
      <g stroke="#222F3C" stroke-width=".5" transform="translate(35.646 15.952)">
        <g transform="translate(0 13.69)">
          <g transform="translate(14.699 7.121)">
            <line x1="10.622" x2="10.485" y1="5.915" y2="8.945"/>
            <g transform="translate(.854 12.588)">
              <g transform="translate(0 1.407)">
                <line x1="22.158" x2="22.021" y2="5.002"/>
                <line x1=".137" y2="5.002"/>
              </g>
              <path d="M7.676395,6.93937093e-07 L11.5315763,6.93937093e-07 C12.083861,6.93937093e-07 12.5315763,0.447715944 12.5315763,1.00000069 L12.5315763,5.50602879 C12.5315763,6.05831354 12.083861,6.50602879 11.5315763,6.50602879 L7.676395,6.50602879 C7.12411025,6.50602879 6.676395,6.05831354 6.676395,5.50602879 L6.676395,1.00000069 C6.676395,0.447715944 7.12411025,6.93937093e-07 7.676395,6.93937093e-07 Z" transform="rotate(-180 9.604 3.253)"/>
              <line x1=".22" y2="5.002" transform="translate(36.461 1.407)"/>
            </g>
            <path d="M35.1586477,11.88656 L20.9970932,11.88656 L10.5469662,0 L29.1382783,0 L39.5884053,11.88656"/>
            <line x1="10.45" y1=".017" y2="11.903"/>
          </g>
          <line x1="10.622" x2="10.485" y1="5.916" y2="8.946"/>
          <g transform="translate(.855 12.441)">
            <line x1=".22" y2="5.002" transform="translate(0 1.42)"/>
            <path d="M7.67502267,6.93837934e-07 L11.5302039,6.93837934e-07 C12.0824887,6.93837934e-07 12.5302039,0.447715944 12.5302039,1.00000069 L12.5302039,5.50602879 C12.5302039,6.05831354 12.0824887,6.50602879 11.5302039,6.50602879 L7.67502267,6.50602879 C7.12273792,6.50602879 6.67502267,6.05831354 6.67502267,5.50602879 L6.67502267,1.00000069 C6.67502267,0.447715944 7.12273792,6.93837934e-07 7.67502267,6.93837934e-07 Z" transform="rotate(-180 9.603 3.253)"/>
          </g>
          <path d="M20.9970912,11.8862233 L10.5469642,0 L29.1384438,0 L35.47191,7.07517303"/>
          <line x1="10.45" y1=".017" y2="11.903"/>
        </g>
        <g transform="translate(29.081 7.353)">
          <g transform="translate(14.787 7.12)">
            <line x1="5.604" x2="5.466" y1="5.915" y2="8.945"/>
            <g transform="translate(5.355 12.44)">
              <line x1=".22" y2="5.002" transform="translate(12.502 1.554)"/>
              <path d="M3.01085478,3.30410412 L3.01085478,0.595910362 C3.01085478,0.267654654 2.7460041,0 2.41799799,0 L0,0"/>
            </g>
            <path d="M25.5635171,11.8862233 L15.978301,11.8862233 L5.52817396,0 L24.1194861,0 L29.9993054,6.73008369"/>
            <line x1="5.431" y1=".017" y2="6.334"/>
          </g>
          <line x1="5.691" x2="5.554" y1="5.914" y2="8.944"/>
          <path d="M2.93262248,1.09972159 L2.93262248,0.66806576 C2.93262248,0.298344799 2.66777179,0 2.33976569,0 L0,0" transform="translate(5.52 12.44)"/>
          <path d="M16.0653261,11.8862233 L5.61519911,0 L24.2065113,0 L30.5399774,7.07517303"/>
          <line x1="5.518" y1=".016" y2="6.322"/>
        </g>
        <g transform="translate(63.861 7.946)">
          <g transform="translate(0 12.866)">
            <line x1="29.102" x2="29.102" y1="5.915" y2="8.945"/>
            <g transform="translate(2.271 12.441)">
              <g transform="translate(14.441 1.553)">
                <line x1=".137" y2="5.002"/>
                <line x1="22.02" x2="22.02" y2="5.002"/>
              </g>
              <rect width="5.855" height="6.506" x="23.931" rx="1"/>
              <line y2="5.002" transform="translate(0 1.553)"/>
            </g>
            <path d="M4.42959006,11.88656 L18.5913121,11.88656 L29.0414391,0 L10.450127,0 L0,11.88656"/>
            <line x1="29.138" x2="39.588" y1=".017" y2="11.903"/>
          </g>
          <g transform="translate(18.815)">
            <line x1="24.987" x2="24.987" y1="11.661" y2="14.691"/>
            <g transform="translate(22.086 18.26)">
              <line y2="5.002" transform="translate(12.53 1.48)"/>
              <rect width="5.855" height="6.506" rx="1"/>
            </g>
            <g transform="translate(0 5.745)">
              <path d="M14.4746513,11.8862233 L24.9247783,0 L6.33346613,0 L0,7.07517303"/>
              <line x1="25.022" x2="35.472" y1=".017" y2="11.903"/>
            </g>
            <g transform="translate(5.812)">
              <path d="M17.0203003,5.69548904 L22.0377215,0 L3.44640936,0 L0,3.91247137"/>
              <line x1="22.135" x2="32.585" y1=".017" y2="11.903"/>
            </g>
            <line y2="5.107" transform="translate(37.509 13.994)"/>
          </g>
          <line x1="46.701" x2="46.701" y1="5.943" y2="8.973"/>
        </g>
        <g transform="translate(23.294 1.671)">
          <path d="M0,0 L12.584847,0 L23.034974,11.8862233" transform="translate(31.252 7.121)"/>
          <path d="M15.8249656,5.66384182 L10.5462117,0 L29.1375238,0 L35.4709899,7.07517303"/>
          <line x1="10.45" y1=".017" y2="11.903"/>
        </g>
        <path d="M0,0 L12.584847,0 L19.3860317,7.66569663" transform="translate(53.79)"/>
        <path d="M0,0 L18.5913121,0 L21.0341032,3.05664982" transform="translate(68.827 10.643)"/>
        <g transform="translate(71.121 1.852)">
          <path d="M16.2684661,5.66384182 L21.5473876,0 L2.95607542,0 L0,3.28424044"/>
          <line x1="21.643" x2="24.424" y1=".016" y2="3.064"/>
        </g>
      </g>
      <g stroke="#222F3C" stroke-width=".5" transform="translate(0 48.592)">
        <line x1="166.378" x2="45.314" y1="7.431" y2="7.293"/>
        <line x1="44.464" y1=".138"/>
      </g>
      <g stroke="#222F3C" stroke-width=".5" transform="translate(2.161 26.95)">
        <g transform="translate(11.755)">
          <path d="M0.0123127929,3.97138906 C0.141303957,1.7581039 2.04342106,0 4.37774232,0 C6.71206358,0 8.61552084,1.7581039 8.74308808,3.97138906 C10.603995,4.45552414 11.9749868,6.08535581 11.9749868,8.02829293 C11.9749868,9.96887334 10.6067591,11.598705 8.74719234,12.0841868 C8.74861627,12.1350243 8.75548463,12.1848519 8.75548463,12.2356894 C8.75548463,14.5594032 6.79574031,16.4430859 4.37774232,16.4430859 C1.95966056,16.4430859 0,14.5594032 0,12.2356894 C0,12.1848519 0.00686836066,12.1350243 0.00820852859,12.0841868"/>
          <line x1="4.327" x2=".899" y1="9.221" y2="6.112"/>
          <line x1="4.567" x2="7.507" y1="11.043" y2="7.162"/>
          <line x1="4.607" x2="4.47" y1="6.844" y2="21.564"/>
        </g>
        <g transform="translate(0 4.872)">
          <path d="M11.6922951,7.19267174 C11.3464481,8.24511004 10.4708996,9.07096773 9.34834142,9.36185279 C9.34976535,9.40191682 9.35386962,9.44063416 9.35386962,9.4793515 C9.35386962,11.2802128 7.82373288,12.7393515 5.9353525,12.7393515 C4.04705588,12.7393515 2.51549521,11.2802128 2.51549521,9.4793515 C2.51549521,9.44063416 2.5210234,9.40191682 2.52236357,9.36185279 C1.07045914,8.98545291 0,7.7236043 0,6.21935148 C0,4.71476198 1.07179931,3.45156668 2.52512767,3.0765135 C2.62530522,1.36083033 4.11155146,0 5.9353525,0 C7.17458903,0 8.24772851,0.635637719 8.84611349,1.57764743"/>
          <line x1="5.899" x2="3.218" y1="7.429" y2="4.735"/>
          <line x1="6.083" x2="8.379" y1="8.556" y2="5.548"/>
          <line x1="6.144" x2="6.007" y1="5.302" y2="16.708"/>
        </g>
      </g>
      <path stroke="#222F3C" stroke-width=".5" d="M6.54194601,0 C4.98986402,0.163959518 4.88826254,1.74430033 4.88415827,1.81062482 L4.84571221,2.53581743 L4.27480067,2.09342973 C2.41942192,0.652134673 0.0247093463,1.25073842 0,1.25612518" transform="translate(23.997 13.123)"/>
      <path stroke="#222F3C" stroke-width=".5" d="M6.54194601,0 C4.98986402,0.16429619 4.88826254,1.744637 4.88415827,1.81230818 L4.84571221,2.5361541 L4.27480067,2.09477642 C2.41942192,0.653818036 0.0247093463,1.25073842 0,1.25780854" transform="translate(25.812 22.581)"/>
      <g stroke="#222F3C" stroke-width=".4" transform="translate(23.1 54.01)">
        <g transform="translate(2.95)">
          <g transform="translate(0 1.715)">
            <path d="M3.47748451,11.7242839 L1.81559251,10.0789653 L0.0479947641,8.74843545 C0.0178409856,8.72486838 0,8.68918109 0,8.65046375 L0,7.99529903 C0,7.94311478 0.0329178749,7.89598063 0.080912639,7.87813699 L1.68383725,7.30714039 C3.12476906,6.79573483 4.63019645,6.5351503 6.16041695,6.5351503 L7.48333022,6.5351503 L7.48333022,0.122548798 C7.48333022,0.0552142934 7.53953351,0 7.60679319,0 L9.82175575,0 C9.85199328,0 9.88214706,0.0124568833 9.90543248,0.032993907 L10.8743739,0.944703094 L11.3327113,1.10327585 C11.3491284,1.1100093 11.3656292,1.1197728 11.3793659,1.13357638 L12.0476909,1.80490138 C12.0820327,1.83957865 12.0930054,1.89344626 12.0737404,1.93889705 C12.0545593,1.98569453 12.0092449,2.01599505 11.9598262,2.01599505 L9.60489982,2.01599505 L9.58019048,5.45544153 L10.2746487,7.13476406 C10.2800932,7.150251 10.2841974,7.16674795 10.2841974,7.18189822 L10.2841974,9.51503878 C10.2841974,9.55106274 10.2677804,9.58675003 10.2389668,9.61031711 L7.68368533,11.7327007 C7.66174008,11.7505443 7.63426664,11.7599712 7.60545302,11.7599712 L3.56392534,11.7599712 C3.53234763,11.7599712 3.50076992,11.7478509 3.47748451,11.7242839 Z M7.48333022,8.29325421 L7.48333022,7.51554068"/>
            <line x1=".22" y2="2.311" transform="translate(4.55 11.78)"/>
            <path d="M1.52418974,1.74531035 L0,0.697585463 L0,0" transform="translate(5.525 12.41)"/>
            <path d="M4.86866258,0 L3.35670187,1.59852113 L0,1.59852113" transform="translate(2.581 8.317)"/>
            <g transform="translate(9.62 2.558)">
              <line x2="1.535" y2=".22"/>
            </g>
          </g>
          <path d="M2.05715778,1.70187959 L2.05715778,0.12423216 C2.05715778,0.0552142934 2.00221089,0 1.93361105,0 L1.35859524,0 C1.32567737,0 1.29552359,0.0138035734 1.27215441,0.0360239597 L0.831657963,0.478748325 L0.496783501,0.478748325 C0.463865626,0.478748325 0.432287919,0.492551898 0.409002501,0.514435612 L0.0370221392,0.8894888 C0.0137367213,0.913055877 0,0.943356403 0,0.976350311 L0,1.70187959" transform="translate(7.638)"/>
          <path d="M0,2.04629558 L0.969522888,2.04629558 C1.04230744,2.04629558 1.10184193,1.99141796 1.10184193,1.92240009 L1.10184193,1.1100093 C1.10184193,1.09620573 1.09884706,1.08240215 1.09440012,1.06859858 L0.666132921,0" transform="translate(9.608 4.29)"/>
        </g>
        <line x1="17.998" y1=".22" transform="translate(0 15.886)"/>
        <line x2=".22" y1="1.145" transform="translate(15.126 14.662)"/>
        <line x1=".22" y2=".781" transform="translate(14.248 15.318)"/>
        <line x2=".22" y1="1.682" transform="translate(13.383 14.125)"/>
        <line x2=".22" y1=".894" transform="translate(5.53 15.324)"/>
        <line x2=".22" y1="1.1" transform="translate(4.685 14.751)"/>
      </g>
      <ellipse cx="7.536" cy="7.573" stroke="#222F3C" stroke-width=".5" rx="7.536" ry="7.573" transform="translate(44.724)"/>
      <path stroke="#222F3C" stroke-width=".5" d="M6.54052208,0 C4.98978026,0.16429619 4.88826254,1.744637 4.88407451,1.81230818 L4.84571221,2.5361541 L4.27480067,2.09342973 C2.41942192,0.653818036 0.0232854179,1.25107509 0,1.25646185" transform="translate(35.095 16.003)"/>
      <g stroke="#231F20" stroke-width=".4" transform="translate(42.297 62.418)">
        <g transform="translate(6.13)">
          <path d="M17.7140047,14.5620965 C17.796425,14.5620965 17.863601,14.4961087 17.863601,14.4119406 L17.863601,0.151502634 C17.863601,0.0673345042 17.796425,0 17.7140047,0 L5.92019185,0 C5.89137824,0 5.86390479,0.0080801405 5.83927921,0.024577094 C5.72117691,0.100665084 2.97249248,1.88906951 2.11327731,4.18786949 C1.84842662,4.19359292 1.07179931,4.16867915 0.543438097,3.68589076 C0.18243036,3.35628836 0,2.87114326 0,2.24223899" transform="translate(3.377)"/>
          <g transform="translate(0 4.483)">
            <path d="M9.42792059,10.0791538 C9.51034092,10.0791538 9.57751684,10.013166 9.57751684,9.92899785 L9.57751684,6.18486274"/>
            <path d="M2.71316998,0 L0.0247931068,4.05151712 C0.00820852859,4.07643088 0,4.10538472 0,4.13433856 L0,5.96415371 C0,6.04832184 0.0673434387,6.11430965 0.149596246,6.11430965 L6.28672778,6.11430965 L6.28672778,9.92880931 C6.28672778,10.0129774 6.3539037,10.0789653 6.43632402,10.0789653 L7.99661454,10.0789653 C8.08037504,10.0789653 8.14621079,10.0129774 8.14621079,9.92880931 L8.14621079,6.15841375 L10.3310196,6.15841375"/>
          </g>
          <path d="M0,2.35536096 L0,3.81853973 C0,3.90001448 0.0658357498,3.96465561 0.145408221,3.96465561 L1.66599626,3.96465561 C1.7469089,3.96465561 1.81140448,3.90001448 1.81140448,3.81853973 L1.81140448,0" transform="translate(17.973 10.598)"/>
          <path d="M0,0 L5.57442852,0 C5.60743016,1.36251369 6.72177979,2.46174947 8.08573571,2.46174947" transform="translate(9.428 10.638)"/>
          <path d="M0.892556528,5.53253954 L0.892556528,4.3935764 C0.892556528,4.35351237 0.868346134,4.3151317 0.822077381,4.28752455 L0,3.77174225 L0,0" transform="translate(22.281 1.473)"/>
          <g transform="translate(2.492 6.57)">
            <path d="M0,0 C0,0.134243358 0.0671759177,0.242175018 0.149596246,0.242175018 L1.04432586,0.242175018 C1.12657867,0.242175018 1.19392211,0.134243358 1.19392211,0"/>
          </g>
          <g transform="translate(12.159 14.562)">
            <line x2="10.529" y2=".22"/>
          </g>
          <g transform="translate(0 14.412)">
            <path d="M0,0 C0,0.134243358 0.0673434387,0.239490151 0.149596246,0.239490151 L10.0606407,0.239490151"/>
          </g>
        </g>
        <g transform="translate(0 11.28)">
          <line x1=".142" x2=".004" y1="1.792" y2="3.109"/>
          <line x1="3.206" x2="3.069" y1="1.792" y2="3.109"/>
          <line x1="4.681" x2="4.544" y2="3.109"/>
          <line x1="6.254" x2="6.117" y1="1.792" y2="3.109"/>
          <line x1=".137" y1="1.792" y2="3.109"/>
          <line x1="1.612" x2="1.474" y2="3.109"/>
          <line x1="3.185" x2="3.048" y1="1.792" y2="3.109"/>
        </g>
      </g>
    </g>
    <rect width="440" height="220.501" stroke="#979797"/>
  </g>
</svg>
