<svg xmlns="http://www.w3.org/2000/svg" width="399" height="200" viewBox="0 0 399 200">
  <g fill="none" fill-rule="evenodd" transform="translate(-20 -10)">
    <g fill-rule="nonzero" transform="translate(228.52 71.162)">
      <g stroke="#222F3C" stroke-linecap="round" stroke-linejoin="round" stroke-width=".5" transform="translate(1.37 47.748)">
        <line x1="8.989" y1="11.102" y2="11.102"/>
        <line x1="35.747" x2="26.758" y1="11.102" y2="11.102"/>
        <line x1="25.779" x2="35.747" y1="7.626" y2="7.626"/>
        <line x2="9.968" y1="7.626" y2="7.626"/>
        <g transform="translate(5.304 32.565)">
          <line x2="2.283"/>
          <line x1="11.428" x2="13.711"/>
          <line x1="22.857" x2="25.14"/>
          <g transform="translate(5.714 3.146)">
            <line x2="2.283"/>
            <line x1="11.429" x2="13.711"/>
          </g>
        </g>
        <g transform="translate(0 20.652)">
          <path d="M0 7.57589766L5.95738499 5.25853635 11.91477 7.57589766 16.1577635 5.92572226 16.1577635 0M35.7471573 7.57559134L29.7897723 5.25823004 23.8320528 7.57559134 19.5893938 5.92541594 19.5893938.00138790933"/>
        </g>
        <ellipse cx="17.874" cy="11.793" rx="9.009" ry="8.927" transform="rotate(-67.5 17.874 11.793)"/>
        <path d="M11.6565856 18.2560225L.0000615508361 18.2560225.0000615508361 39.0689021 35.7473821 39.0689021 35.7473821 18.2560225 24.090858 18.2560225M14.2279601 13.3816091C14.2279601 12.021485 15.4433661 9.86146079 17.8741781 6.90153632 20.3047671 9.86146079 21.5200616 12.021485 21.5200616 13.3816091 21.5200616 15.4217951 19.8869573 17.0750201 17.8741781 17.0750201 15.8597263 17.0750201 14.2279601 15.4217951 14.2279601 13.3816091zM43.0767031 3.20329473L39.4923705 3.20329473 37.6532047 4.8697347 35.9164007 4.8697347 35.9164007 13.5516226 37.6532047 13.5516226 39.4923705 15.2180626 43.0767031 15.2180626"/>
      </g>
      <g transform="translate(49.92 48.609)">
        <path fill="#333838" d="M9.54474743,10.0181715 C9.62010706,10.0181715 9.66532284,9.92656946 9.77082632,9.66703041 C10.4641349,7.98766013 11.684961,5.10219663 12.6344923,2.99535026 C13.5840237,0.82743589 13.8553184,0.506828835 14.4883393,0.338891806 C14.759634,0.293090798 14.8349936,0.232022787 14.8349936,0.170954777 C14.8349936,0.109886766 14.759634,0.0946197636 14.5636989,0.0946197636 C14.2924043,0.0946197636 13.8854622,0.155687774 13.4634483,0.155687774 C13.0112905,0.155687774 12.8002835,0.0946197636 12.4084134,0.0946197636 C12.1974065,0.0946197636 12.1521907,0.125153769 12.1521907,0.186221779 C12.1521907,0.24728979 12.2426223,0.277823795 12.4837731,0.354158808 C12.9811467,0.506828835 12.9962186,0.766367879 12.9208589,1.10224194 C12.6043485,2.23200013 10.7806454,6.50676087 10.0571929,8.09452914 C10.0119771,8.18613116 9.98183329,8.20139816 9.92154559,8.09452914 C9.40910009,6.94950395 8.74593532,5.4991387 8.36913716,4.59838554 C8.33899331,4.52205053 8.33899331,4.44571551 8.35406524,4.41518151 C8.61028799,3.94190443 9.34881238,2.43047117 9.74068247,1.66712103 C10.238056,0.781634882 10.5244226,0.461027827 11.0820839,0.338891806 C11.2930909,0.293090798 11.3684505,0.24728979 11.3684505,0.170954777 C11.3684505,0.109886766 11.2930909,0.0946197636 11.1122278,0.0946197636 C10.7655735,0.0946197636 10.5244226,0.155687774 9.99690522,0.155687774 C9.60503513,0.155687774 9.36388431,0.109886766 8.98708615,0.109886766 C8.80622303,0.109886766 8.71579147,0.140420772 8.71579147,0.186221779 C8.71579147,0.24728979 8.76100725,0.3083578 9.03230193,0.369425811 C9.68039476,0.522095837 9.69546669,0.674765864 9.22823697,1.78925706 C8.91172652,2.53734018 8.59521606,3.23962231 8.23348983,3.98770544 C8.18827405,4.06404045 8.12798634,4.04877345 8.11291441,4.01823944 C7.61554084,2.85794724 7.16338305,1.81979106 6.92223223,1.17857695 C6.69615333,0.613697853 6.84687259,0.430493822 7.25381461,0.354158808 C7.44974965,0.3083578 7.54018121,0.262556793 7.54018121,0.186221779 C7.54018121,0.125153769 7.43467772,0.0946197636 7.28395846,0.0946197636 C6.93730415,0.0946197636 6.59064984,0.155687774 6.04806049,0.155687774 C5.50547114,0.155687774 5.21910454,0.0946197636 4.78201867,0.0946197636 C4.58608363,0.0946197636 4.49565207,0.140420772 4.49565207,0.186221779 C4.49565207,0.262556793 4.5710117,0.323624803 4.81216252,0.369425811 C5.27939224,0.491561832 5.39996765,0.674765864 5.83705352,1.62132003 C6.1686359,2.35413615 7.17845497,4.67472055 7.4196058,5.25486665 C7.4196058,5.28540066 7.4196058,5.39226968 7.38946194,5.43807069 C6.98251993,6.41515885 6.6207937,7.17850899 6.19877976,8.04872814 C6.15356398,8.12506315 6.09327627,8.15559715 6.04806049,8.04872814 C5.02316949,5.75867774 3.53104878,2.50680618 2.89802787,0.919037906 C2.79252438,0.644231858 2.79252438,0.461027827 3.21453832,0.384692814 C3.39540144,0.354158808 3.485833,0.3083578 3.485833,0.232022787 C3.485833,0.170954777 3.39540144,0.125153769 3.18439447,0.125153769 C2.86788401,0.125153769 2.50615778,0.155687774 2.1745754,0.155687774 C1.7224176,0.155687774 1.10446862,0.0946197636 0.742742386,0.0946197636 C0.546807342,0.0946197636 0.441303857,0.155687774 0.441303857,0.201488782 C0.441303857,0.262556793 0.576951195,0.323624803 0.757814312,0.338891806 C1.33054752,0.415226819 1.45112293,0.690032866 1.99371228,1.88085907 C2.70209282,3.37702533 3.71191189,5.63654172 4.54086785,7.57545105 C4.73680289,8.03346113 5.20403261,9.14795233 5.39996765,9.65176341 C5.50547114,9.92656946 5.53561499,10.0181715 5.62604655,10.0181715 C5.68633426,10.0181715 5.77676582,9.89603545 5.86719737,9.65176341 C6.19877976,8.76627726 6.99759186,6.98003795 7.57032506,5.85027976 C7.60046891,5.80447875 7.64568469,5.80447875 7.67582855,5.86554676 C8.11291441,6.84263493 8.97201422,8.73574325 9.28852468,9.66703041 C9.37895623,9.91130246 9.43924394,10.0181715 9.54474743,10.0181715 Z M16.7340563,9.89603545 C17.216358,9.89603545 17.6835877,9.66703041 17.8945947,9.23955434 C17.9548824,9.10215132 17.8945947,9.05635031 17.8041631,9.10215132 C17.6383719,9.19375333 17.4876527,9.23955434 17.3670772,9.23955434 C16.9450633,9.23955434 16.809416,8.94948129 16.809416,8.65940824 C16.809416,8.26246617 16.8546317,6.81210092 16.8546317,6.24722182 C16.8546317,5.77394474 16.794344,5.14799764 16.6436248,4.85792459 C16.4627617,4.3846475 15.9955319,4.07930745 15.4830864,4.07930745 C15.2268637,4.07930745 14.9254252,4.17090947 14.5787709,4.3541135 C14.2773323,4.50678352 13.7799588,4.82739058 13.4333044,5.23959965 C13.2524413,5.45333769 13.1469378,5.59074071 13.1469378,5.69760973 C13.1469378,5.75867774 13.2222975,5.85027976 13.2976571,5.83501275 C13.4031606,5.81974575 13.8553184,5.60600771 14.0060377,5.4991387 C14.0361815,5.46860469 14.0663254,5.42280368 14.0663254,5.37700267 C14.0663254,5.27013366 14.0663254,5.14799764 14.0813973,5.08692962 C14.1115411,4.9189926 14.2019727,4.81212358 14.3074762,4.72052156 C14.5335551,4.58311854 14.6842743,4.53731753 14.9103532,4.53731753 C15.0912164,4.53731753 15.3474391,4.62891955 15.5433741,4.78158957 C15.7995969,4.98006061 15.9051004,5.40753668 15.9051004,6.03348379 C15.9051004,6.24722182 15.9051004,6.55256188 15.8749565,6.73576591 C15.8749565,6.79683392 15.7995969,6.93423694 15.6790215,6.96477095 C15.362511,7.08690697 13.9909657,7.49911604 13.6292395,7.69758708 C13.4935922,7.77392209 13.0866501,8.07926214 13.0866501,8.56780623 C13.0866501,9.36169036 13.6895272,9.88076845 14.2924043,9.88076845 C14.8651375,9.88076845 15.3172953,9.62122941 15.769453,9.19375333 C15.784525,9.17848633 15.8297408,9.17848633 15.8448127,9.20902034 C15.98046,9.5601614 16.3120424,9.89603545 16.7340563,9.89603545 Z M14.955569,9.30062235 C14.4883393,9.30062235 14.0512534,8.94948129 14.0512534,8.4456702 C14.0512534,8.00292713 14.2471885,7.77392209 14.4280516,7.68232007 C14.744562,7.51438304 15.6187338,7.19377599 15.8146688,7.16324198 C15.8448127,7.14797498 15.8749565,7.22430999 15.8749565,7.239577 C15.8749565,7.8197231 15.8448127,8.4304032 15.7995969,8.68994225 C15.784525,8.85787928 15.6940934,8.9952823 15.6338057,9.05635031 C15.4680145,9.20902034 15.2117918,9.30062235 14.955569,9.30062235 Z M20.275959,9.86550145 C20.697973,9.86550145 21.1652027,9.72809843 21.4967851,9.46855938 C21.6927201,9.31588935 21.8283675,9.16321933 21.8283675,9.07161731 C21.8283675,9.0105493 21.7831517,8.9952823 21.6776482,9.07161731 C21.5420009,9.16321933 21.2707062,9.30062235 20.8486923,9.30062235 C20.4568222,9.30062235 20.1403117,9.17848633 19.9142328,8.88841328 C19.8087293,8.73574325 19.7785855,8.55253922 19.7484416,8.06399514 C19.7333697,7.59071806 19.7182978,5.19379864 19.7182978,4.9342596 C19.7182978,4.84265758 19.7484416,4.79685657 19.9293047,4.79685657 C20.3362468,4.79685657 21.0747712,4.81212358 21.6022886,4.81212358 C21.6776482,4.81212358 21.7530078,4.68998756 21.7530078,4.43044851 C21.7530078,4.32357949 21.6927201,4.21671047 21.6625763,4.21671047 C21.3460658,4.21671047 20.0950959,4.26251148 19.8238013,4.26251148 C19.7635136,4.26251148 19.7484416,4.17090947 19.7484416,4.12510846 C19.7333697,3.94190443 19.7635136,3.51442835 19.7635136,3.37702533 C19.7635136,3.30069032 19.6580101,3.27015631 19.5223627,3.42282634 C19.1606365,3.89610342 18.6632629,4.30831249 18.2864648,4.44571551 C18.1206736,4.52205053 18.1056016,4.56785154 18.1056016,4.59838554 C18.1056016,4.65945355 18.1809613,4.70525456 18.3015367,4.73578856 L18.5106597,4.78158957 C18.5765993,4.79685657 18.6331191,4.81212358 18.6632629,4.82739058 C18.7235506,4.85792459 18.7386226,4.9647936 18.7386226,5.13273063 L18.7386226,8.29300018 C18.7386226,8.65940824 18.7989103,8.96474829 18.9194857,9.16321933 C19.1757084,9.65176341 19.6429381,9.86550145 20.275959,9.86550145 Z M24.6920335,9.89603545 C25.5511333,9.89603545 26.1841542,9.5906954 26.7870313,8.93421429 C26.8774628,8.82734527 26.9377505,8.73574325 26.9377505,8.68994225 C26.9377505,8.61360723 26.8774628,8.58307323 26.7568874,8.70520925 C26.3951612,9.05635031 25.9430034,9.19375333 25.3250544,9.19375333 C24.8276808,9.19375333 24.2248038,9.0258163 23.8178618,8.56780623 C23.4259917,8.12506315 23.1245531,7.49911604 23.1245531,6.72049891 C23.1245531,6.29302283 23.1697689,6.06401779 23.2451286,5.88081376 C23.2752724,5.83501275 23.350632,5.75867774 23.3807759,5.75867774 L24.1946599,5.75867774 C24.5413142,5.75867774 26.5006647,5.78921175 26.6212401,5.80447875 C26.6965997,5.80447875 26.7719593,5.71287673 26.7719593,5.63654172 C26.7719593,4.70525456 25.822428,4.07930745 24.9331843,4.07930745 C24.1494441,4.07930745 23.4561355,4.44571551 23.0491935,4.84265758 C22.4161726,5.46860469 22.1750218,6.36935785 22.1750218,7.07163997 C22.1750218,7.89605811 22.4463165,8.62887424 22.8984742,9.11741832 C23.350632,9.6059624 23.983653,9.89603545 24.6920335,9.89603545 Z M23.4410636,5.5449397 C23.4109197,5.5449397 23.3807759,5.5144057 23.3807759,5.48387169 C23.3807759,5.36173567 23.5164232,5.07166262 23.6972864,4.85792459 C24.0288687,4.50678352 24.4056669,4.29304549 24.797537,4.29304549 C25.1441913,4.29304549 25.400414,4.43044851 25.5511333,4.58311854 C25.7169245,4.76632257 25.7621403,5.04112862 25.7621403,5.22433265 C25.7621403,5.36173567 25.7319964,5.5296727 25.400414,5.5296727 L23.4410636,5.5449397 Z M27.6159872,9.81970044 C27.8269942,9.81970044 27.9927854,9.72809843 28.5353747,9.72809843 C29.1683956,9.72809843 29.6657692,9.78916644 29.9521358,9.78916644 C30.1782147,9.78916644 30.3138621,9.75863243 30.3138621,9.68229742 C30.3138621,9.6059624 30.2385024,9.5754284 30.0274955,9.54489439 C29.4547623,9.48382638 29.2738991,9.37695736 29.2136114,8.90368028 C29.1834676,8.58307323 29.1533237,7.78918909 29.1533237,6.6594309 C29.1533237,6.35409084 29.1382518,5.91134777 29.1683956,5.72814374 C29.1834676,5.5449397 29.2588272,5.37700267 29.4246184,5.19379864 C29.6205534,5.01059461 29.8617043,4.88845859 30.0877832,4.88845859 C30.2535744,4.88845859 30.4495094,4.9647936 30.6153006,5.07166262 C30.7810918,5.16326464 30.8564514,5.17853164 30.8865953,5.17853164 C30.931811,5.17853164 30.9920987,5.16326464 31.1277461,5.04112862 C31.3086092,4.87319159 31.4593285,4.62891955 31.4593285,4.52205053 C31.4593285,4.44571551 31.4291846,4.3693805 31.353825,4.30831249 C31.2031057,4.18617647 31.0071707,4.10984146 30.8263076,4.10984146 C30.2234305,4.10984146 29.6205534,4.67472055 29.1985395,5.20906565 C29.1533237,5.25486665 29.1231799,5.23959965 29.1231799,5.19379864 C29.1231799,4.9495266 29.1382518,4.3693805 29.1382518,4.20144347 C29.1382518,4.04877345 29.1081079,3.98770544 29.0779641,3.98770544 C29.0327483,3.98770544 28.9573887,4.00297244 28.8518852,4.06404045 C28.6107344,4.20144347 28.1887204,4.3541135 27.8872819,4.43044851 C27.7516346,4.47624952 27.661203,4.53731753 27.661203,4.56785154 C27.661203,4.59838554 27.6762749,4.64418655 27.7817784,4.72052156 C28.068145,4.9647936 28.1736485,5.01059461 28.1736485,5.11746363 L28.1736485,6.81210092 C28.1736485,7.8197231 28.1585766,8.68994225 28.1284327,8.94948129 C28.068145,9.36169036 27.9023538,9.49909339 27.5858434,9.5754284 C27.465268,9.6059624 27.3597645,9.68229742 27.3597645,9.72809843 C27.3597645,9.78916644 27.4351241,9.81970044 27.6159872,9.81970044 Z M6.95237608,26.6578164 C8.17320212,26.6578164 8.98708615,26.3372094 9.89140173,25.8181313 C9.96676137,25.7723303 10.0119771,25.6807283 10.042121,25.5891263 C10.0722649,25.4211892 10.253128,24.6425721 10.253128,24.383033 C10.253128,24.291431 10.2229841,24.154028 10.1626964,24.154028 C10.1024087,24.154028 10.0722649,24.215096 10.0119771,24.413567 C9.78589825,25.0395142 9.42417201,25.5738592 8.85143881,25.9097333 C8.4444968,26.1692724 7.91697937,26.3372094 7.05787956,26.3372094 C6.25906746,26.3372094 5.21910454,26.0166023 4.48058014,25.2074512 C3.69683997,24.352499 3.09396291,22.8868668 3.09396291,21.5128365 C3.09396291,20.0472043 3.59133648,18.6884411 4.23942932,17.9708919 C4.8573783,17.3296778 5.73155004,16.7800657 6.86194452,16.7800657 C7.73611625,16.7800657 8.61028799,17.0243378 9.16794926,17.5434159 C9.43924394,17.7571539 9.77082632,18.245698 9.89140173,18.7647761 C9.92154559,18.8869121 9.96676137,18.9632471 10.0270491,18.9632471 C10.0571929,18.9632471 10.1174806,18.8716451 10.1174806,18.7189751 C10.1174806,18.566305 10.042121,17.9098239 10.0722649,17.5434159 C10.0873368,17.4670809 10.042121,17.3602118 9.92154559,17.2838768 C9.42417201,17.0090708 8.18827405,16.5357937 6.967448,16.5357937 C5.58083077,16.5357937 4.25450125,17.0701388 3.45568914,17.8029549 C2.49108585,18.6884411 1.76763338,19.8334663 1.76763338,21.6655066 C1.76763338,22.9784688 2.40065429,24.383033 3.0336752,25.0395142 C3.96813464,25.9860683 5.14374491,26.6578164 6.95237608,26.6578164 Z M14.8048498,26.5509474 C15.2871514,26.5509474 15.7543811,26.3219424 15.9653881,25.8944663 C16.0256758,25.7570633 15.9653881,25.7112623 15.8749565,25.7570633 C15.7091653,25.8486653 15.5584461,25.8944663 15.4378707,25.8944663 C15.0158567,25.8944663 14.8802094,25.6043933 14.8802094,25.3143202 C14.8802094,24.9173781 14.9254252,23.4670129 14.9254252,22.9021338 C14.9254252,22.4288567 14.8651375,21.8029096 14.7144182,21.5128365 C14.5335551,21.0395595 14.0663254,20.7342194 13.5538799,20.7342194 C13.2976571,20.7342194 12.9962186,20.8258214 12.6495643,21.0090255 C12.3481257,21.1616955 11.8507522,21.4823025 11.5040979,21.8945116 C11.3232347,22.1082497 11.2177313,22.2456527 11.2177313,22.3525217 C11.2177313,22.4135897 11.2930909,22.5051917 11.3684505,22.4899247 C11.473954,22.4746577 11.9261118,22.2609197 12.0768311,22.1540507 C12.1069749,22.1235167 12.1371188,22.0777156 12.1371188,22.0319146 C12.1371188,21.9250456 12.1371188,21.8029096 12.1521907,21.7418416 C12.1823346,21.5739046 12.2727661,21.4670355 12.3782696,21.3754335 C12.6043485,21.2380305 12.7550678,21.1922295 12.9811467,21.1922295 C13.1620098,21.1922295 13.4182325,21.2838315 13.6141676,21.4365015 C13.8703903,21.6349726 13.9758938,22.0624486 13.9758938,22.6883958 C13.9758938,22.9021338 13.9758938,23.2074738 13.9457499,23.3906779 C13.9457499,23.4517459 13.8703903,23.5891489 13.7498149,23.6196829 C13.4333044,23.7418189 12.0617591,24.154028 11.7000329,24.352499 C11.5643856,24.4288341 11.1574436,24.7341741 11.1574436,25.2227182 C11.1574436,26.0166023 11.7603206,26.5356804 12.3631977,26.5356804 C12.9359309,26.5356804 13.3880887,26.2761414 13.8402465,25.8486653 C13.8553184,25.8333983 13.9005342,25.8333983 13.9156061,25.8639323 C14.0512534,26.2150734 14.3828358,26.5509474 14.8048498,26.5509474 Z M13.0263624,25.9555343 C12.5591327,25.9555343 12.1220468,25.6043933 12.1220468,25.1005822 C12.1220468,24.6578391 12.3179819,24.4288341 12.498845,24.337232 C12.8153555,24.169295 13.6895272,23.848688 13.8854622,23.8181539 C13.9156061,23.8028869 13.9457499,23.879222 13.9457499,23.894489 C13.9457499,24.4746351 13.9156061,25.0853152 13.8703903,25.3448542 C13.8553184,25.5127912 13.7648868,25.6501943 13.7045991,25.7112623 C13.5388079,25.8639323 13.2825852,25.9555343 13.0263624,25.9555343 Z M22.1448779,26.4440784 C22.2955972,26.4440784 22.4161726,26.4288114 22.4161726,26.3372094 C22.4161726,26.2761414 22.325741,26.2456074 22.1900937,26.1845394 C21.7831517,26.0776703 21.7379359,25.9860683 21.722864,24.9479121 C21.722864,24.184562 21.7077921,24.062426 21.7077921,23.2532748 C21.6927201,22.3830557 21.5721447,21.6197056 21.2254904,21.2532975 C21.0295554,21.0395595 20.6678291,20.7342194 20.0498802,20.7342194 C19.7936574,20.7342194 19.4771469,20.7647534 19.1606365,20.9174234 C18.8290541,21.0548265 18.4673279,21.3143655 18.0905297,21.6044386 C18.0603859,21.6349726 18.0151701,21.5891716 18.0151701,21.5586376 C18.0000982,21.3448995 18.030242,20.9326904 18.0453139,20.7494864 C18.0603859,20.6731514 17.9850262,20.6120834 17.9398105,20.6273504 C17.6835877,20.7952874 17.0807106,21.0548265 16.7491283,21.1464285 C16.6134809,21.1922295 16.5381213,21.2380305 16.5381213,21.2685645 C16.5381213,21.3143655 16.5682651,21.3448995 16.6586967,21.4059675 C17.0204229,21.6044386 17.0505668,21.7723756 17.0505668,21.9250456 C17.0505668,23.1616728 17.0505668,24.5662371 17.0204229,25.6654613 C17.005351,25.9708013 16.9450633,26.0776703 16.5682651,26.1540053 C16.387402,26.1845394 16.2517547,26.2456074 16.2517547,26.3066754 C16.2517547,26.3830104 16.3723301,26.4135444 16.5381213,26.4135444 C16.8244879,26.4135444 17.1409984,26.3830104 17.3369334,26.3830104 C17.6835877,26.3830104 18.4221121,26.4440784 18.5426875,26.4440784 C18.6934068,26.4440784 18.844126,26.4440784 18.844126,26.3524764 C18.844126,26.2761414 18.7687664,26.2456074 18.5879033,26.1998064 C18.3467525,26.1234713 18.1658893,26.0471363 18.1206736,25.7112623 C18.0905297,25.4975242 18.0453139,25.1005822 18.030242,24.108227 C18.030242,23.1922068 18.0151701,22.4135897 18.0151701,22.2303857 C18.0151701,22.1082497 18.0905297,21.8792446 18.1960332,21.7723756 C18.5879033,21.4365015 18.9797734,21.2838315 19.3716435,21.2838315 C19.7182978,21.2838315 20.0046644,21.3907005 20.2307433,21.5739046 C20.6075414,21.8639776 20.7130449,22.2303857 20.7130449,23.4670129 L20.7130449,25.5433252 C20.7130449,25.9860683 20.6527572,26.0929373 20.291031,26.1845394 C20.0950959,26.2303404 20.0046644,26.2914084 20.0046644,26.3524764 C20.0046644,26.4135444 20.1101679,26.4440784 20.2458152,26.4440784 C20.4718941,26.4440784 20.6678291,26.3830104 21.1802746,26.3830104 C21.511857,26.3830104 21.9489429,26.4440784 22.1448779,26.4440784 Z M26.6965997,26.5509474 C27.1789014,26.5509474 27.6461311,26.3219424 27.857138,25.8944663 C27.9174258,25.7570633 27.857138,25.7112623 27.7667065,25.7570633 C27.6009153,25.8486653 27.450196,25.8944663 27.3296206,25.8944663 C26.9076067,25.8944663 26.7719593,25.6043933 26.7719593,25.3143202 C26.7719593,24.9173781 26.8171751,23.4670129 26.8171751,22.9021338 C26.8171751,22.4288567 26.7568874,21.8029096 26.6061682,21.5128365 C26.425305,21.0395595 25.9580753,20.7342194 25.4456298,20.7342194 C25.1894071,20.7342194 24.8879685,20.8258214 24.5413142,21.0090255 C24.2398757,21.1616955 23.7425021,21.4823025 23.3958478,21.8945116 C23.2149847,22.1082497 23.1094812,22.2456527 23.1094812,22.3525217 C23.1094812,22.4135897 23.1848409,22.5051917 23.2602005,22.4899247 C23.365704,22.4746577 23.8178618,22.2609197 23.968581,22.1540507 C23.9987249,22.1235167 24.0288687,22.0777156 24.0288687,22.0319146 C24.0288687,21.9250456 24.0288687,21.8029096 24.0439407,21.7418416 C24.0740845,21.5739046 24.1645161,21.4670355 24.2700196,21.3754335 C24.4960985,21.2380305 24.6468177,21.1922295 24.8728966,21.1922295 C25.0537597,21.1922295 25.3099825,21.2838315 25.5059175,21.4365015 C25.7621403,21.6349726 25.8676438,22.0624486 25.8676438,22.6883958 C25.8676438,22.9021338 25.8676438,23.2074738 25.8374999,23.3906779 C25.8374999,23.4517459 25.7621403,23.5891489 25.6415649,23.6196829 C25.3250544,23.7418189 23.9535091,24.154028 23.5917829,24.352499 C23.4561355,24.4288341 23.0491935,24.7341741 23.0491935,25.2227182 C23.0491935,26.0166023 23.6520706,26.5356804 24.2549476,26.5356804 C24.8276808,26.5356804 25.2798386,26.2761414 25.7319964,25.8486653 C25.7470683,25.8333983 25.7922841,25.8333983 25.8073561,25.8639323 C25.9430034,26.2150734 26.2745858,26.5509474 26.6965997,26.5509474 Z M24.9181124,25.9555343 C24.4508827,25.9555343 24.0137968,25.6043933 24.0137968,25.1005822 C24.0137968,24.6578391 24.2097318,24.4288341 24.390595,24.337232 C24.7071054,24.169295 25.5812772,23.848688 25.7772122,23.8181539 C25.8073561,23.8028869 25.8374999,23.879222 25.8374999,23.894489 C25.8374999,24.4746351 25.8073561,25.0853152 25.7621403,25.3448542 C25.7470683,25.5127912 25.6566368,25.6501943 25.5963491,25.7112623 C25.4305579,25.8639323 25.1743351,25.9555343 24.9181124,25.9555343 Z M30.4193655,26.4135444 C30.6153006,26.4135444 30.7208041,26.3677434 30.7208041,26.3066754 C30.7208041,26.2608744 30.6153006,26.2150734 30.524869,26.1998064 C30.1028551,26.1234713 30.0124235,26.0166023 29.9973516,25.6043933 C29.9849394,25.3655096 29.9725273,24.8367113 29.968533,23.5831266 L29.968394,20.4766683 C29.976837,18.342177 30.0274955,16.1146789 30.0274955,16.0167156 C30.0274955,15.9403806 30.0124235,15.8487786 29.9822797,15.8487786 C29.921992,15.8487786 29.8466323,15.8793126 29.8014166,15.8945796 C29.4698342,16.0167156 29.1081079,16.1541186 28.6710221,16.2457206 C28.5353747,16.2762546 28.4449432,16.3220557 28.4449432,16.3678567 C28.4449432,16.4136577 28.490159,16.4441917 28.5956624,16.5052597 C28.9875325,16.7495317 29.0176764,16.8258667 29.0176764,17.1617408 C29.0327483,17.8334889 29.0176764,19.0853831 29.0176764,20.3220103 C29.0026045,22.1540507 28.9423168,24.7341741 28.9121729,25.2990532 C28.8518852,25.9708013 28.7614536,26.1082043 28.3846555,26.1845394 C28.1887204,26.2303404 28.1133608,26.2456074 28.1133608,26.3219424 C28.1133608,26.3982774 28.1887204,26.4135444 28.3695835,26.4135444 C28.5956624,26.4135444 28.9875325,26.3830104 29.3794026,26.3830104 C29.6356254,26.3830104 30.1782147,26.4135444 30.4193655,26.4135444 Z" transform="translate(14.479 27.714)"/>
        <g stroke="#222F3C" stroke-linecap="round">
          <g stroke-linejoin="round" stroke-width=".5">
            <line x1="60.102" y1=".222"/>
            <line x2="60.102" y1=".222" transform="translate(0 16.769)"/>
            <line x2="60.102" y1=".222" transform="translate(0 16.769)"/>
          </g>
          <g stroke-width=".4" transform="translate(21.542 3.944)">
            <g transform="translate(2.242 2.752)">
              <path d="M.161651385 2.05826954L.988324239 3.04396979.0815119872 4.07981911M.0801393983 4.10682371L.906812252 5.09252396 0 6.12837328M.240960346 0L1.0676332.985361409.160820948 2.02154958"/>
            </g>
            <path d="M.161113537 2.05826954L.988324239 3.04396979.0815119872 4.07981911M.0801393983 4.10682371L.906812252 5.09252396 0 6.12837328M.243163373 0L1.06983623.985361409.163023974 2.02154958"/>
            <g transform="translate(5.45)">
              <g transform="translate(2.242 2.752)">
                <path d="M.161651385 2.05826954L.988324239 3.04396979.0815119872 4.07981911M.0801393983 4.10682371L.906812252 5.09252396 0 6.12837328M.243163373 0L1.06983623.985361409.163023974 2.02154958"/>
              </g>
              <path d="M.161651385 2.05826954L.988324239 3.04396979.0815119872 4.07981911M.07960155 4.10682371L.906812252 5.09252396 0 6.12837328M.243163373 0L1.06983623.985361409.163023974 2.02154958"/>
            </g>
            <g transform="translate(10.901)">
              <g transform="translate(2.242 2.752)">
                <path d="M.161651385 2.05826954L.988324239 3.04396979.0815119872 4.07981911M.07960155 4.10682371L.906812252 5.09252396 0 6.12837328M.243163373 0L1.06983623.985361409.163023974 2.02154958"/>
              </g>
              <path d="M.161651385 2.05826954L.988324239 3.04396979.0815119872 4.07981911M.0801393983 4.10682371L.906812252 5.09252396 0 6.12837328M.243163373 0L1.06983623.985361409.163023974 2.02154958"/>
            </g>
            <g transform="translate(16.353)">
              <path d="M.159448359 2.05826954L.986121212 3.04396979.0793089605 4.07981911M.0801393983 4.10682371L.906812252 5.09252396 0 6.12837328M.240960346 0L1.06817105.985361409.160820948 2.02154958"/>
            </g>
          </g>
        </g>
      </g>
      <path fill="#333838" d="M9.19124224,10.0054384 C9.26660187,10.0054384 9.31181765,9.91383635 9.41732114,9.6542973 C10.1106298,7.97492701 11.3314558,5.08946351 12.2809872,2.98261715 C13.2305185,0.814702777 13.5018132,0.494095722 14.1348341,0.326158693 C14.4061288,0.280357685 14.4814884,0.219289674 14.4814884,0.158221664 C14.4814884,0.0971536531 14.4061288,0.0818866505 14.2101937,0.0818866505 C13.9388991,0.0818866505 13.5319571,0.142954661 13.1099431,0.142954661 C12.6577853,0.142954661 12.4467784,0.0818866505 12.0549083,0.0818866505 C11.8439013,0.0818866505 11.7986855,0.112420656 11.7986855,0.173488666 C11.7986855,0.234556677 11.8891171,0.265090682 12.1302679,0.341425695 C12.6276415,0.494095722 12.6427134,0.753634766 12.5673538,1.08950882 C12.2508433,2.21926702 10.4271402,6.49402776 9.70368774,8.08179603 C9.65847196,8.17339805 9.62832811,8.18866505 9.5680404,8.08179603 C9.0555949,6.93677083 8.39243014,5.48640558 8.01563198,4.58565243 C7.98548813,4.50931741 7.98548813,4.4329824 8.00056005,4.4024484 C8.2567828,3.92917131 8.9953072,2.41773805 9.38717729,1.65438792 C9.88455086,0.768901769 10.1709175,0.448294714 10.7285787,0.326158693 C10.9395857,0.280357685 11.0149453,0.234556677 11.0149453,0.158221664 C11.0149453,0.0971536531 10.9395857,0.0818866505 10.7587226,0.0818866505 C10.4120683,0.0818866505 10.1709175,0.142954661 9.64340003,0.142954661 C9.25152995,0.142954661 9.01037912,0.0971536531 8.63358096,0.0971536531 C8.45271785,0.0971536531 8.36228629,0.127687658 8.36228629,0.173488666 C8.36228629,0.234556677 8.40750207,0.295624687 8.67879674,0.356692698 C9.32688958,0.509362724 9.34196151,0.662032751 8.87473179,1.77652394 C8.55822133,2.52460707 8.24171088,3.22688919 7.87998464,3.97497232 C7.83476886,4.05130734 7.77448116,4.03604033 7.75940923,4.00550633 C7.26203566,2.84521413 6.80987786,1.80705795 6.56872704,1.16584384 C6.34264814,0.60096474 6.49336741,0.417760708 6.90030942,0.341425695 C7.09624447,0.295624687 7.18667603,0.249823679 7.18667603,0.173488666 C7.18667603,0.112420656 7.08117254,0.0818866505 6.93045328,0.0818866505 C6.58379897,0.0818866505 6.23714466,0.142954661 5.69455531,0.142954661 C5.15196596,0.142954661 4.86559935,0.0818866505 4.42851349,0.0818866505 C4.23257844,0.0818866505 4.14214688,0.127687658 4.14214688,0.173488666 C4.14214688,0.249823679 4.21750652,0.31089169 4.45865734,0.356692698 C4.92588706,0.478828719 5.04646247,0.662032751 5.48354834,1.60858691 C5.81513072,2.34140304 6.82494979,4.66198744 7.06610061,5.24213354 C7.06610061,5.27266755 7.06610061,5.37953656 7.03595676,5.42533757 C6.62901475,6.40242574 6.26728851,7.16577587 5.84527457,8.03599502 C5.80005879,8.11233004 5.73977109,8.14286404 5.69455531,8.03599502 C4.66966431,5.74594463 3.17754359,2.49407307 2.54452268,0.906304793 C2.4390192,0.631498745 2.4390192,0.448294714 2.86103314,0.371959701 C3.04189625,0.341425695 3.13232781,0.295624687 3.13232781,0.219289674 C3.13232781,0.158221664 3.04189625,0.112420656 2.83088928,0.112420656 C2.51437883,0.112420656 2.1526526,0.142954661 1.82107021,0.142954661 C1.36891242,0.142954661 0.750963436,0.0818866505 0.389237202,0.0818866505 C0.193302158,0.0818866505 0.0877986731,0.142954661 0.0877986731,0.188755669 C0.0877986731,0.249823679 0.223446011,0.31089169 0.404309128,0.326158693 C0.977042333,0.402493706 1.09761774,0.677299753 1.6402071,1.86812596 C2.34858764,3.36429222 3.35840671,5.62380861 4.18736266,7.56271794 C4.38329771,8.02072802 4.85052743,9.13521921 5.04646247,9.6390303 C5.15196596,9.91383635 5.18210981,10.0054384 5.27254137,10.0054384 C5.33282907,10.0054384 5.42326063,9.88330234 5.51369219,9.6390303 C5.84527457,8.75354415 6.64408667,6.96730484 7.21681988,5.83754664 C7.24696373,5.79174564 7.29217951,5.79174564 7.32232336,5.85281365 C7.75940923,6.82990181 8.61850904,8.72301014 8.93501949,9.6542973 C9.02545105,9.89856934 9.08573876,10.0054384 9.19124224,10.0054384 Z M16.3805512,9.88330234 C16.8628528,9.88330234 17.3300825,9.6542973 17.5410895,9.22682123 C17.6013772,9.0894182 17.5410895,9.0436172 17.4506579,9.0894182 C17.2848667,9.18102022 17.1341475,9.22682123 17.0135721,9.22682123 C16.5915581,9.22682123 16.4559108,8.93674818 16.4559108,8.64667513 C16.4559108,8.24973306 16.5011266,6.79936781 16.5011266,6.23448871 C16.5011266,5.76121163 16.4408389,5.13526452 16.2901196,4.84519147 C16.1092565,4.37191439 15.6420268,4.06657434 15.1295813,4.06657434 C14.8733585,4.06657434 14.57192,4.15817635 14.2252657,4.34138039 C13.9238271,4.49405041 13.4264536,4.81465747 13.0797993,5.22686654 C12.8989361,5.44060457 12.7934327,5.5780076 12.7934327,5.68487662 C12.7934327,5.74594463 12.8687923,5.83754664 12.9441519,5.82227964 C13.0496554,5.80701264 13.5018132,5.5932746 13.6525325,5.48640558 C13.6826763,5.45587158 13.7128202,5.41007057 13.7128202,5.36426956 C13.7128202,5.25740054 13.7128202,5.13526452 13.7278921,5.07419651 C13.758036,4.90625948 13.8484675,4.79939046 13.953971,4.70778845 C14.1800499,4.57038542 14.3307692,4.52458442 14.5568481,4.52458442 C14.7377112,4.52458442 14.9939339,4.61618643 15.189869,4.76885646 C15.4460917,4.96732749 15.5515952,5.39480357 15.5515952,6.02075067 C15.5515952,6.23448871 15.5515952,6.53982876 15.5214513,6.7230328 C15.5214513,6.78410081 15.4460917,6.92150383 15.3255163,6.95203784 C15.0090058,7.07417386 13.6374605,7.48638293 13.2757343,7.68485396 C13.140087,7.76118898 12.733145,8.06652903 12.733145,8.55507311 C12.733145,9.34895725 13.336022,9.86803534 13.9388991,9.86803534 C14.5116323,9.86803534 14.9637901,9.60849629 15.4159479,9.18102022 C15.4310198,9.16575322 15.4762356,9.16575322 15.4913075,9.19628722 C15.6269548,9.54742828 15.9585372,9.88330234 16.3805512,9.88330234 Z M14.6020638,9.28788924 C14.1348341,9.28788924 13.6977482,8.93674818 13.6977482,8.43293709 C13.6977482,7.99019401 13.8936833,7.76118898 14.0745464,7.66958696 C14.3910569,7.50164993 15.2652286,7.18104288 15.4611636,7.15050887 C15.4913075,7.13524187 15.5214513,7.21157688 15.5214513,7.22684388 C15.5214513,7.80698998 15.4913075,8.41767009 15.4460917,8.67720913 C15.4310198,8.84514616 15.3405882,8.98254919 15.2803005,9.0436172 C15.1145093,9.19628722 14.8582866,9.28788924 14.6020638,9.28788924 Z M19.9224539,9.85276834 C20.3444678,9.85276834 20.8116975,9.71536531 21.1432799,9.45582627 C21.339215,9.30315624 21.4748623,9.15048621 21.4748623,9.0588842 C21.4748623,8.99781619 21.4296465,8.98254919 21.324143,9.0588842 C21.1884957,9.15048621 20.917201,9.28788924 20.4951871,9.28788924 C20.103317,9.28788924 19.7868065,9.16575322 19.5607276,8.87568017 C19.4552241,8.72301014 19.4250803,8.53980611 19.3949364,8.05126203 C19.3798645,7.57798494 19.3647926,5.18106553 19.3647926,4.92152649 C19.3647926,4.82992447 19.3949364,4.78412346 19.5757996,4.78412346 C19.9827416,4.78412346 20.721266,4.79939046 21.2487834,4.79939046 C21.324143,4.79939046 21.3995027,4.67725444 21.3995027,4.4177154 C21.3995027,4.31084638 21.339215,4.20397736 21.3090711,4.20397736 C20.9925606,4.20397736 19.7415907,4.24977837 19.4702961,4.24977837 C19.4100084,4.24977837 19.3949364,4.15817635 19.3949364,4.11237535 C19.3798645,3.92917131 19.4100084,3.50169524 19.4100084,3.36429222 C19.4100084,3.2879572 19.3045049,3.2574232 19.1688575,3.41009322 C18.8071313,3.88337031 18.3097577,4.29557938 17.9329596,4.4329824 C17.7671684,4.50931741 17.7520965,4.55511842 17.7520965,4.58565243 C17.7520965,4.64672044 17.8274561,4.69252145 17.9480315,4.72305545 C18.0836788,4.75358946 18.24947,4.78412346 18.3097577,4.81465747 C18.3700454,4.84519147 18.3851174,4.95206049 18.3851174,5.11999752 L18.3851174,8.28026706 C18.3851174,8.64667513 18.4454051,8.95201518 18.5659805,9.15048621 C18.8222032,9.6390303 19.289433,9.85276834 19.9224539,9.85276834 Z M24.3385283,9.88330234 C25.1976281,9.88330234 25.830649,9.57796229 26.4335261,8.92148118 C26.5239576,8.81461216 26.5842454,8.72301014 26.5842454,8.67720913 C26.5842454,8.60087412 26.5239576,8.57034011 26.4033822,8.69247614 C26.041656,9.0436172 25.5894982,9.18102022 24.9715492,9.18102022 C24.4741757,9.18102022 23.8712986,9.01308319 23.4643566,8.55507311 C23.0724865,8.11233004 22.771048,7.48638293 22.771048,6.70776579 C22.771048,6.28028972 22.8162637,6.05128468 22.8916234,5.86808065 C22.9217672,5.82227964 22.9971269,5.74594463 23.0272707,5.74594463 L23.8411547,5.74594463 C24.187809,5.74594463 26.1471595,5.77647863 26.2677349,5.79174564 C26.3430945,5.79174564 26.4184542,5.70014362 26.4184542,5.62380861 C26.4184542,4.69252145 25.4689228,4.06657434 24.5796791,4.06657434 C23.795939,4.06657434 23.1026303,4.4329824 22.6956883,4.82992447 C22.0626674,5.45587158 21.8215166,6.35662473 21.8215166,7.05890685 C21.8215166,7.883325 22.0928113,8.61614112 22.5449691,9.10468521 C22.9971269,9.59322929 23.6301478,9.88330234 24.3385283,9.88330234 Z M23.0875584,5.53220659 C23.0574146,5.53220659 23.0272707,5.50167259 23.0272707,5.47113858 C23.0272707,5.34900256 23.162918,5.05892951 23.3437812,4.84519147 C23.6753635,4.49405041 24.0521617,4.28031237 24.4440318,4.28031237 C24.7906861,4.28031237 25.0469089,4.4177154 25.1976281,4.57038542 C25.3634193,4.75358946 25.4086351,5.0283955 25.4086351,5.21159954 C25.4086351,5.34900256 25.3784912,5.51693959 25.0469089,5.51693959 L23.0875584,5.53220659 Z M27.262482,9.80696733 C27.473489,9.80696733 27.6392802,9.71536531 28.1818696,9.71536531 C28.8148905,9.71536531 29.312264,9.77643332 29.5986306,9.77643332 C29.8247095,9.77643332 29.9603569,9.74589932 29.9603569,9.6695643 C29.9603569,9.59322929 29.8849972,9.56269529 29.6739903,9.53216128 C29.1012571,9.47109327 28.9203939,9.36422425 28.8601062,8.89094717 C28.8299624,8.57034011 28.7998185,7.77645598 28.7998185,6.64669778 C28.7998185,6.34135773 28.7847466,5.89861465 28.8148905,5.71541062 C28.8299624,5.53220659 28.905322,5.36426956 29.0711132,5.18106553 C29.2670483,4.9978615 29.5081991,4.87572548 29.734278,4.87572548 C29.9000692,4.87572548 30.0960042,4.95206049 30.2617954,5.05892951 C30.4275866,5.15053152 30.5029462,5.16579853 30.5330901,5.16579853 C30.5783059,5.16579853 30.6385936,5.15053152 30.7742409,5.0283955 C30.955104,4.86045847 31.1058233,4.61618643 31.1058233,4.50931741 C31.1058233,4.4329824 31.0756794,4.35664739 31.0003198,4.29557938 C30.8496005,4.17344336 30.6536655,4.09710834 30.4728024,4.09710834 C29.8699253,4.09710834 29.2670483,4.66198744 28.8450343,5.19633253 C28.7998185,5.24213354 28.7696747,5.22686654 28.7696747,5.18106553 C28.7696747,4.93679349 28.7847466,4.35664739 28.7847466,4.18871036 C28.7847466,4.03604033 28.7546028,3.97497232 28.7244589,3.97497232 C28.6792431,3.97497232 28.6038835,3.99023932 28.49838,4.05130734 C28.2572292,4.18871036 27.8352152,4.34138039 27.5337767,4.4177154 C27.3981294,4.46351641 27.3076978,4.52458442 27.3076978,4.55511842 C27.3076978,4.58565243 27.3227697,4.63145344 27.4282732,4.70778845 C27.7146398,4.95206049 27.8201433,4.9978615 27.8201433,5.10473052 L27.8201433,6.79936781 C27.8201433,7.80698998 27.8050714,8.67720913 27.7749275,8.93674818 C27.7146398,9.34895725 27.5488486,9.48636027 27.2323382,9.56269529 C27.1117628,9.59322929 27.0062593,9.6695643 27.0062593,9.71536531 C27.0062593,9.77643332 27.0816189,9.80696733 27.262482,9.80696733 Z M5.73977109,25.07397 C5.93570613,25.07397 6.04120962,25.058703 6.04120962,24.9671009 C6.04120962,24.8907659 5.96584998,24.8602319 5.78498687,24.8144309 C5.27254137,24.6617609 5.1218221,24.5548919 5.0615344,24.0358138 C5.01631862,23.5625367 4.95603091,21.6694284 4.97110284,20.8144762 L4.97213658,20.500843 C4.97742933,19.419713 5.00124669,16.5532862 5.00124669,16.0511714 C5.00124669,15.9443024 5.01631862,15.8221664 5.09167825,15.8068994 C5.27254137,15.7839989 5.74165508,15.7782737 6.16202053,15.7768425 L6.55365512,15.7763654 C7.60868997,15.7763654 7.80462501,15.8374334 7.94027235,15.9595694 C8.06084776,16.0817054 8.18142317,16.4023125 8.21156702,16.6771185 C8.22663895,16.7534535 8.27185473,16.8908565 8.33214243,16.8908565 C8.37735821,16.8908565 8.45271785,16.7839875 8.45271785,16.5549825 C8.43764592,16.0359044 8.43764592,15.5778943 8.49793363,15.3946903 C8.51300555,15.2725543 8.49793363,15.2420203 8.4828617,15.1962193 C8.46778977,15.1656853 8.42257399,15.1809523 8.36228629,15.2267533 C8.10606354,15.3641563 7.83476886,15.3946903 7.12638832,15.3946903 L4.53401697,15.4099573 C2.98160855,15.4099573 1.48948783,15.3641563 1.24833701,15.3488893 C1.03733004,15.3336223 0.826323069,15.2725543 0.766035363,15.1962193 C0.720819583,15.1504182 0.675603804,15.1198842 0.645459951,15.1351512 C0.570100319,15.1656853 0.570100319,15.2420203 0.555028393,15.3641563 C0.555028393,15.7610984 0.434452981,16.2191084 0.359093349,16.6771185 C0.344021423,16.7839875 0.344021423,16.9061236 0.404309128,16.9061236 C0.464596834,16.9061236 0.539956466,16.8297885 0.615316098,16.6465845 C0.826323069,16.0511714 1.02225811,15.8679674 1.30862471,15.8068994 C1.61006324,15.7763654 1.97178948,15.7458314 2.58973846,15.7458314 C3.28304708,15.7458314 3.62970139,15.7763654 3.72013294,15.7916324 C3.76534872,15.7916324 3.8105645,15.8374334 3.82563643,15.9748364 C3.85578028,16.1885744 3.85578028,22.2648415 3.7502768,23.7457407 C3.70506102,24.4480229 3.61462946,24.6922949 2.89117699,24.7991639 C2.7253858,24.8296979 2.58973846,24.8754989 2.58973846,24.9365669 C2.58973846,25.012902 2.66509809,25.07397 2.86103314,25.07397 C3.10218396,25.07397 3.55434175,24.9823679 4.32301,24.9823679 C4.92588706,24.9823679 5.39311678,25.07397 5.73977109,25.07397 Z M7.4579707,25.07397 C7.66897767,25.07397 7.83476886,24.9823679 8.37735821,24.9823679 C9.01037912,24.9823679 9.5077527,25.043436 9.7941193,25.043436 C10.0201982,25.043436 10.1558455,25.012902 10.1558455,24.9365669 C10.1558455,24.8602319 10.0804859,24.8296979 9.86947893,24.7991639 C9.29674573,24.7380959 9.11588261,24.6312269 9.0555949,24.1579498 C9.02545105,23.8373427 8.9953072,23.0434586 8.9953072,21.9137004 C8.9953072,21.6083604 8.98023527,21.1656173 9.01037912,20.9824133 C9.02545105,20.7992092 9.10081068,20.6312722 9.26660187,20.4480682 C9.46253692,20.2648641 9.70368774,20.1427281 9.92976664,20.1427281 C10.0955578,20.1427281 10.2914929,20.2190631 10.4572841,20.3259321 C10.6230753,20.4175342 10.6984349,20.4328012 10.7285787,20.4328012 C10.7737945,20.4328012 10.8340822,20.4175342 10.9697296,20.2953981 C11.1505927,20.1274611 11.3013119,19.8831891 11.3013119,19.77632 C11.3013119,19.699985 11.2711681,19.62365 11.1958085,19.562582 C11.0450892,19.440446 10.8491541,19.364111 10.668291,19.364111 C10.065414,19.364111 9.46253692,19.9289901 9.04052298,20.4633352 C8.9953072,20.5091362 8.96516335,20.4938692 8.96516335,20.4480682 C8.96516335,20.2037961 8.98023527,19.62365 8.98023527,19.455713 C8.98023527,19.303043 8.95009142,19.241975 8.91994757,19.241975 C8.87473179,19.241975 8.79937215,19.257242 8.69386867,19.31831 C8.45271785,19.455713 8.03070391,19.608383 7.72926538,19.684718 C7.59361804,19.730519 7.50318648,19.7915871 7.50318648,19.8221211 C7.50318648,19.8526551 7.51825841,19.8984561 7.62376189,19.9747911 C7.91012849,20.2190631 8.01563198,20.2648641 8.01563198,20.3717332 L8.01437599,22.5565402 C8.01018934,23.3471023 7.99553608,23.9874683 7.9704162,24.2037508 C7.91012849,24.6159599 7.7443373,24.7533629 7.42782685,24.8296979 C7.30725144,24.8602319 7.20174795,24.9365669 7.20174795,24.9823679 C7.20174795,25.043436 7.27710758,25.07397 7.4579707,25.07397 Z M14.1197622,25.150305 C14.978862,25.150305 15.6118829,24.8449649 16.21476,24.1884838 C16.3051915,24.0816148 16.3654792,23.9900128 16.3654792,23.9442118 C16.3654792,23.8678768 16.3051915,23.8373427 16.1846161,23.9594788 C15.8228899,24.3106198 15.3707321,24.4480229 14.7527831,24.4480229 C14.2554095,24.4480229 13.6525325,24.2800858 13.2455905,23.8220757 C12.8537204,23.3793327 12.5522818,22.7533856 12.5522818,21.9747684 C12.5522818,21.5472924 12.5974976,21.3182873 12.6728572,21.1350833 C12.7030011,21.0892823 12.7783607,21.0129473 12.8085046,21.0129473 L13.6223886,21.0129473 C13.9690429,21.0129473 15.9283934,21.0434813 16.0489688,21.0587483 C16.1243284,21.0587483 16.199688,20.9671463 16.199688,20.8908112 C16.199688,19.9595241 15.2501567,19.333577 14.360913,19.333577 C13.5771728,19.333577 12.8838642,19.699985 12.4769222,20.0969271 C11.8439013,20.7228742 11.6027505,21.6236274 11.6027505,22.3259095 C11.6027505,23.1503276 11.8740451,23.8831438 12.3262029,24.3716878 C12.7783607,24.8602319 13.4113816,25.150305 14.1197622,25.150305 Z M12.8687923,20.7992092 C12.8386484,20.7992092 12.8085046,20.7686752 12.8085046,20.7381412 C12.8085046,20.6160052 12.9441519,20.3259321 13.125015,20.1121941 C13.4565974,19.761053 13.8333956,19.547315 14.2252657,19.547315 C14.57192,19.547315 14.8281427,19.684718 14.978862,19.8373881 C15.1446532,20.0205921 15.189869,20.2953981 15.189869,20.4786022 C15.189869,20.6160052 15.1597251,20.7839422 14.8281427,20.7839422 L12.8687923,20.7992092 Z M20.7363379,25.150305 C21.2186395,25.150305 21.6858693,24.9212999 21.8968762,24.4938239 C21.9571639,24.3564208 21.8968762,24.3106198 21.8064447,24.3564208 C21.6406535,24.4480229 21.4899342,24.4938239 21.3693588,24.4938239 C20.9473449,24.4938239 20.8116975,24.2037508 20.8116975,23.9136778 C20.8116975,23.5167357 20.8569133,22.0663704 20.8569133,21.5014913 C20.8569133,21.0282143 20.7966256,20.4022672 20.6459063,20.1121941 C20.4650432,19.638917 19.9978135,19.333577 19.485368,19.333577 C19.2291452,19.333577 18.9277067,19.425179 18.5810524,19.608383 C18.2796139,19.761053 17.7822403,20.0816601 17.435586,20.4938692 C17.2547229,20.7076072 17.1492194,20.8450102 17.1492194,20.9518793 C17.1492194,21.0129473 17.224579,21.1045493 17.2999387,21.0892823 C17.4054422,21.0740153 17.8575999,20.8602772 18.0083192,20.7534082 C18.0384631,20.7228742 18.0686069,20.6770732 18.0686069,20.6312722 C18.0686069,20.5244032 18.0686069,20.4022672 18.0836788,20.3411991 C18.1138227,20.1732621 18.2042543,20.0663931 18.3097577,19.9747911 C18.5358366,19.8373881 18.6865559,19.7915871 18.9126348,19.7915871 C19.0934979,19.7915871 19.3497207,19.8831891 19.5456557,20.0358591 C19.8018785,20.2343301 19.9073819,20.6618062 19.9073819,21.2877533 C19.9073819,21.5014913 19.9073819,21.8068314 19.8772381,21.9900354 C19.8772381,22.0511034 19.8018785,22.1885065 19.681303,22.2190405 C19.3647926,22.3411765 17.9932473,22.7533856 17.631521,22.9518566 C17.4958737,23.0281916 17.0889317,23.3335317 17.0889317,23.8220757 C17.0889317,24.6159599 17.6918088,25.135038 18.2946858,25.135038 C18.867419,25.135038 19.3195768,24.8754989 19.7717346,24.4480229 C19.7868065,24.4327559 19.8320223,24.4327559 19.8470942,24.4632899 C19.9827416,24.8144309 20.314324,25.150305 20.7363379,25.150305 Z M18.9578506,24.5548919 C18.4906209,24.5548919 18.053535,24.2037508 18.053535,23.6999397 C18.053535,23.2571966 18.24947,23.0281916 18.4303331,22.9365896 C18.7468436,22.7686526 19.6210153,22.4480455 19.8169504,22.4175115 C19.8470942,22.4022445 19.8772381,22.4785795 19.8772381,22.4938465 C19.8772381,23.0739926 19.8470942,23.6846727 19.8018785,23.9442118 C19.7868065,24.1121488 19.696375,24.2495518 19.6360873,24.3106198 C19.4702961,24.4632899 19.2140733,24.5548919 18.9578506,24.5548919 Z M24.2782406,25.119771 C24.7002545,25.119771 25.1674843,24.9823679 25.4990666,24.7228289 C25.6950017,24.5701589 25.830649,24.4174888 25.830649,24.3258868 C25.830649,24.2648188 25.7854333,24.2495518 25.6799298,24.3258868 C25.5442824,24.4174888 25.2729878,24.5548919 24.8509738,24.5548919 C24.4591037,24.5548919 24.1425933,24.4327559 23.9165144,24.1426828 C23.8110109,23.9900128 23.780867,23.8068087 23.7507232,23.3182647 C23.7356513,22.8449876 23.7205793,20.4480682 23.7205793,20.1885291 C23.7205793,20.0969271 23.7507232,20.0511261 23.9315863,20.0511261 C24.3385283,20.0511261 25.0770527,20.0663931 25.6045701,20.0663931 C25.6799298,20.0663931 25.7552894,19.9442571 25.7552894,19.684718 C25.7552894,19.577849 25.6950017,19.47098 25.6648578,19.47098 C25.3483474,19.47098 24.0973775,19.516781 23.8260828,19.516781 C23.7657951,19.516781 23.7507232,19.425179 23.7507232,19.379378 C23.7356513,19.1961739 23.7657951,18.7686979 23.7657951,18.6312949 C23.7657951,18.5549598 23.6602916,18.5244258 23.5246443,18.6770959 C23.162918,19.1503729 22.6655445,19.562582 22.2887463,19.699985 C22.1229551,19.77632 22.1078832,19.8221211 22.1078832,19.8526551 C22.1078832,19.9137231 22.1832428,19.9595241 22.3038182,19.9900581 C22.4394656,20.0205921 22.6052568,20.0511261 22.6655445,20.0816601 C22.7258322,20.1121941 22.7409041,20.2190631 22.7409041,20.3870002 L22.7409041,23.5472697 C22.7409041,23.9136778 22.8011918,24.2190178 22.9217672,24.4174888 C23.17799,24.9060329 23.6452197,25.119771 24.2782406,25.119771 Z M33.8639858,25.028169 C34.0900647,25.028169 34.4216471,24.9823679 34.7833733,24.9823679 C35.1300276,24.9823679 35.6575451,25.012902 35.8233363,25.012902 C36.0041994,25.012902 36.079559,24.9823679 36.079559,24.9060329 C36.079559,24.8602319 36.0192713,24.8144309 35.8082643,24.7686299 C35.4766819,24.7075619 35.3862504,24.6006929 35.3711785,24.0968818 L35.3108908,21.8984334 C35.3108908,21.3335543 35.2355311,20.7534082 35.1300276,20.4480682 C34.9340926,19.8526551 34.436719,19.333577 33.6077631,19.333577 C32.8541667,19.333577 32.1608581,19.745786 31.5429091,20.3564661 C31.5127653,20.3717332 31.4524776,20.3564661 31.4374057,20.3259321 C31.1058233,19.669451 30.6235216,19.348844 29.930213,19.348844 C29.2821202,19.348844 28.5586677,19.7915871 28.0612941,20.2495971 C28.0010064,20.2953981 27.9859345,20.2037961 27.9859345,20.1579951 C27.9708626,19.9900581 27.9859345,19.593116 27.9859345,19.425179 C27.9859345,19.333577 27.9557907,19.272509 27.9105749,19.272509 C27.8502872,19.272509 27.7749275,19.303043 27.684496,19.364111 C27.4433452,19.562582 26.9761154,19.745786 26.659605,19.8221211 C26.5390296,19.8526551 26.4787419,19.8831891 26.4787419,19.9289901 L26.4938138,19.9289901 C26.4938138,20.0053251 26.5239576,20.0358591 26.6294611,20.0969271 C26.870612,20.2343301 26.9610435,20.3717332 26.9761154,20.6312722 C27.0062593,20.9213452 26.9911874,21.3030203 26.9911874,21.8678994 L26.9902454,22.5780536 C26.9874194,23.3144479 26.9761154,24.0701645 26.9308997,24.3106198 C26.9007558,24.4938239 26.9007558,24.6617609 26.4335261,24.7686299 C26.2225191,24.7991639 26.1320876,24.8449649 26.1320876,24.9060329 C26.1320876,24.9671009 26.2677349,25.012902 26.4033822,25.012902 C26.5993173,25.012902 26.9158277,24.9823679 27.3830575,24.9823679 C27.7447837,24.9823679 28.2421573,25.012902 28.5285239,25.012902 C28.6340273,25.012902 28.7546028,24.9823679 28.7546028,24.9060329 C28.7546028,24.8602319 28.6943151,24.8144309 28.5285239,24.7838969 C28.1667976,24.7075619 28.0763661,24.5243579 28.0462222,24.2800858 C28.0160784,24.0052798 27.9557907,22.9365896 27.9557907,21.8068314 C27.9557907,21.2877533 28.0010064,20.9366122 28.0160784,20.7686752 C28.0311503,20.6618062 28.0612941,20.5091362 28.1969415,20.3870002 C28.4230204,20.1732621 28.7998185,19.9137231 29.327336,19.9137231 C29.7945657,19.9137231 30.0357165,20.0511261 30.2467235,20.2648641 C30.548162,20.6007382 30.6235216,20.9518793 30.6235216,21.7915644 L30.6084497,24.2648188 C30.6084497,24.6312269 30.4577304,24.7075619 30.14122,24.7686299 C29.9452849,24.8144309 29.8699253,24.8754989 29.8699253,24.9212999 C29.8699253,24.9823679 29.9452849,25.012902 30.1110761,25.012902 C30.2768673,25.012902 30.6385936,24.9823679 30.9701759,24.9823679 C31.4072618,24.9823679 31.8594196,25.012902 32.1307143,25.012902 C32.2965055,25.012902 32.386937,24.9823679 32.386937,24.9212999 C32.386937,24.8602319 32.3115774,24.8449649 32.1457862,24.7838969 C31.768988,24.6922949 31.7237723,24.5854259 31.6785565,24.1579498 C31.6484126,23.7457407 31.6031969,21.4098893 31.573053,20.9824133 C31.573053,20.7076072 31.6182688,20.5396702 31.6785565,20.4786022 C31.9347792,20.2190631 32.402009,19.9137231 32.9596702,19.9137231 C33.6981946,19.9137231 34.0900647,20.2953981 34.2257121,21.0740153 C34.2859998,21.5320254 34.3613594,22.2648415 34.3312155,24.0968818 C34.3312155,24.5548919 34.2558559,24.6922949 33.81877,24.7838969 C33.6981946,24.8144309 33.5625473,24.8602319 33.5625473,24.9365669 C33.5625473,24.9976349 33.6680508,25.028169 33.8639858,25.028169 Z M39.3200232,25.150305 C40.179123,25.150305 40.8121439,24.8449649 41.415021,24.1884838 C41.5054525,24.0816148 41.5657402,23.9900128 41.5657402,23.9442118 C41.5657402,23.8678768 41.5054525,23.8373427 41.3848771,23.9594788 C41.0231509,24.3106198 40.5709931,24.4480229 39.9530441,24.4480229 C39.4556705,24.4480229 38.8527935,24.2800858 38.4458515,23.8220757 C38.0539814,23.3793327 37.7525428,22.7533856 37.7525428,21.9747684 C37.7525428,21.5472924 37.7977586,21.3182873 37.8731183,21.1350833 C37.9032621,21.0892823 37.9786217,21.0129473 38.0087656,21.0129473 L38.8226496,21.0129473 C39.1693039,21.0129473 41.1286544,21.0434813 41.2492298,21.0587483 C41.3245894,21.0587483 41.399949,20.9671463 41.399949,20.8908112 C41.399949,19.9595241 40.4504177,19.333577 39.561174,19.333577 C38.7774338,19.333577 38.0841252,19.699985 37.6771832,20.0969271 C37.0441623,20.7228742 36.8030115,21.6236274 36.8030115,22.3259095 C36.8030115,23.1503276 37.0743062,23.8831438 37.5264639,24.3716878 C37.9786217,24.8602319 38.6116426,25.150305 39.3200232,25.150305 Z M38.0690533,20.7992092 C38.0389094,20.7992092 38.0087656,20.7686752 38.0087656,20.7381412 C38.0087656,20.6160052 38.1444129,20.3259321 38.325276,20.1121941 C38.6568584,19.761053 39.0336566,19.547315 39.4255267,19.547315 C39.772181,19.547315 40.0284037,19.684718 40.179123,19.8373881 C40.3449142,20.0205921 40.39013,20.2953981 40.39013,20.4786022 C40.39013,20.6160052 40.3599861,20.7839422 40.0284037,20.7839422 L38.0690533,20.7992092 Z M47.8959493,25.043436 C48.0466686,25.043436 48.167244,25.028169 48.167244,24.9365669 C48.167244,24.8754989 48.0768125,24.8449649 47.9411651,24.7838969 C47.5342231,24.6770279 47.4890073,24.5854259 47.4739354,23.5472697 C47.4739354,22.7839196 47.4588635,22.6617835 47.4588635,21.8526324 C47.4437915,20.9824133 47.3232161,20.2190631 46.9765618,19.8526551 C46.7806268,19.638917 46.4189005,19.333577 45.8009516,19.333577 C45.5447288,19.333577 45.2282184,19.364111 44.9117079,19.516781 C44.5801255,19.654184 44.2183993,19.9137231 43.8416011,20.2037961 C43.8114573,20.2343301 43.7662415,20.1885291 43.7662415,20.1579951 C43.7511696,19.9442571 43.7813134,19.532048 43.7963853,19.348844 C43.8114573,19.272509 43.7360976,19.211441 43.6908819,19.226708 C43.4346591,19.394645 42.8317821,19.654184 42.5001997,19.745786 C42.3645523,19.7915871 42.2891927,19.8373881 42.2891927,19.8679221 C42.2891927,19.9137231 42.3193366,19.9442571 42.4097681,20.0053251 C42.7714943,20.2037961 42.8016382,20.3717332 42.8016382,20.5244032 L42.8005218,21.7994806 C42.7982889,22.6634799 42.7915902,23.5320027 42.7714943,24.2648188 C42.7564224,24.5701589 42.6961347,24.6770279 42.3193366,24.7533629 C42.1384734,24.7838969 42.0028261,24.8449649 42.0028261,24.9060329 C42.0028261,24.9823679 42.1234015,25.012902 42.2891927,25.012902 C42.5755593,25.012902 42.8920698,24.9823679 43.0880048,24.9823679 C43.4346591,24.9823679 44.1731835,25.043436 44.2937589,25.043436 C44.4444782,25.043436 44.5951974,25.043436 44.5951974,24.9518339 C44.5951974,24.8754989 44.5198378,24.8449649 44.3389747,24.7991639 C44.0978239,24.7228289 43.9169608,24.6464939 43.871745,24.3106198 C43.8416011,24.0968818 43.7963853,23.6999397 43.7813134,22.7075846 L43.7799999,22.2243168 C43.776331,21.528114 43.7662415,20.9796374 43.7662415,20.8297432 C43.7662415,20.7076072 43.8416011,20.4786022 43.9471046,20.3717332 C44.3389747,20.0358591 44.7308448,19.8831891 45.1227149,19.8831891 C45.4693692,19.8831891 45.7557358,19.9900581 45.9818147,20.1732621 C46.3586128,20.4633352 46.4641163,20.8297432 46.4641163,22.0663704 L46.4641163,24.1426828 C46.4641163,24.5854259 46.4038286,24.6922949 46.0421024,24.7838969 C45.8461673,24.8296979 45.7557358,24.8907659 45.7557358,24.9518339 C45.7557358,25.012902 45.8612393,25.043436 45.9968866,25.043436 C46.2229655,25.043436 46.4189005,24.9823679 46.931346,24.9823679 C47.2629284,24.9823679 47.7000143,25.043436 47.8959493,25.043436 Z M50.8952627,25.119771 C51.3172766,25.119771 51.7845064,24.9823679 52.1160887,24.7228289 C52.3120238,24.5701589 52.4476711,24.4174888 52.4476711,24.3258868 C52.4476711,24.2648188 52.4024553,24.2495518 52.2969519,24.3258868 C52.1613045,24.4174888 51.8900098,24.5548919 51.4679959,24.5548919 C51.0761258,24.5548919 50.7596154,24.4327559 50.5335365,24.1426828 C50.428033,23.9900128 50.3978891,23.8068087 50.3677453,23.3182647 C50.3526733,22.8449876 50.3376014,20.4480682 50.3376014,20.1885291 C50.3376014,20.0969271 50.3677453,20.0511261 50.5486084,20.0511261 C50.9555504,20.0511261 51.6940748,20.0663931 52.2215922,20.0663931 C52.2969519,20.0663931 52.3723115,19.9442571 52.3723115,19.684718 C52.3723115,19.577849 52.3120238,19.47098 52.2818799,19.47098 C51.9653695,19.47098 50.7143996,19.516781 50.4431049,19.516781 C50.3828172,19.516781 50.3677453,19.425179 50.3677453,19.379378 C50.3526733,19.1961739 50.3828172,18.7686979 50.3828172,18.6312949 C50.3828172,18.5549598 50.2773137,18.5244258 50.1416664,18.6770959 C49.7799401,19.1503729 49.2825666,19.562582 48.9057684,19.699985 C48.7399772,19.77632 48.7249053,19.8221211 48.7249053,19.8526551 C48.7249053,19.9137231 48.8002649,19.9595241 48.9208403,19.9900581 C49.0564877,20.0205921 49.2222789,20.0511261 49.2825666,20.0816601 C49.3428543,20.1121941 49.3579262,20.2190631 49.3579262,20.3870002 L49.3579262,23.5472697 C49.3579262,23.9136778 49.4182139,24.2190178 49.5387893,24.4174888 C49.7950121,24.9060329 50.2622418,25.119771 50.8952627,25.119771 Z M3.68998909,40.3409726 C3.84070836,40.3409726 4.00649955,40.3257056 4.00649955,40.2341036 C4.00649955,40.1730356 3.91606799,40.1272346 3.79549258,40.0967006 C3.10218396,39.9287635 3.0117524,39.8371615 2.99668048,39.2570154 C2.96653662,38.5700003 2.93639277,36.1883479 2.9514647,35.9135418 C2.9514647,35.8372068 3.07204011,35.7150708 3.10218396,35.7150708 L3.65972969,35.7158885 C5.27325908,35.7210253 5.49144316,35.7499668 5.70962723,35.7914058 C5.89049035,35.8372068 6.04120962,35.9898768 6.16178503,36.3257509 C6.25221659,36.5394889 6.31250429,36.661625 6.372792,36.661625 C6.44815163,36.661625 6.47829548,36.6005569 6.47829548,36.4020859 C6.46322356,36.2036149 6.41800778,35.9898768 6.41800778,35.6692698 C6.41800778,35.3486627 6.47829548,34.8906527 6.49336741,34.7227156 C6.50843934,34.5700456 6.47829548,34.4937106 6.41800778,34.4937106 C6.372792,34.4937106 6.32757622,34.5547786 6.25221659,34.7074486 C6.02613769,35.2265267 5.81513072,35.2723277 5.60412375,35.3028617 C5.36297293,35.3333957 4.63952046,35.3486627 3.10218396,35.3486627 C3.07204011,35.3486627 2.96653662,35.2875947 2.96653662,35.1654587 C2.93639277,33.4097534 2.96653662,31.6540481 2.98160855,31.226572 C2.98160855,31.150237 3.08711203,30.951766 3.19261552,30.951766 L4.26942474,30.9531002 C4.94729098,30.9561022 5.36065417,30.9658586 5.69455531,30.997567 C6.23714466,31.043368 6.56872704,31.272373 6.82494979,31.8677861 C6.90030942,32.0662572 6.9455252,32.1731262 7.00581291,32.1731262 C7.08117254,32.1731262 7.11131639,32.0357232 7.08117254,31.8830531 C7.05102869,31.6998491 7.00581291,31.028101 6.97566906,30.814363 C6.97566906,30.7074939 6.87016557,30.6311589 6.55365512,30.6311589 C5.98092191,30.6311589 4.38329771,30.6769599 2.80074543,30.6769599 C2.13758067,30.6769599 1.30862471,30.6158919 1.1277616,30.6158919 C0.992114259,30.6158919 0.901682701,30.6464259 0.901682701,30.7074939 C0.901682701,30.7838289 1.00718619,30.82963 1.14283352,30.860164 C1.68542288,30.997567 1.73063865,31.13497 1.76078251,31.6845821 C1.80599829,32.6158693 1.80599829,33.5471564 1.80599829,35.1654587 C1.80599829,36.844829 1.80599829,38.7379373 1.76078251,39.2417484 C1.73063865,39.8066275 1.65527902,39.9287635 1.08254582,40.0508995 C0.886610774,40.0967006 0.811251142,40.1425016 0.811251142,40.2035696 C0.811251142,40.2799046 0.916754627,40.3104386 1.05240197,40.3104386 C1.26340894,40.3104386 1.6402071,40.2493706 2.2129403,40.2493706 C2.83088928,40.2493706 3.47898212,40.3409726 3.68998909,40.3409726 Z M10.8943699,40.4173076 C11.3766716,40.4173076 11.8439013,40.1883026 12.0549083,39.7608265 C12.115196,39.6234235 12.0549083,39.5776225 11.9644767,39.6234235 C11.7986855,39.7150255 11.6479663,39.7608265 11.5273908,39.7608265 C11.1053769,39.7608265 10.9697296,39.4707534 10.9697296,39.1806804 C10.9697296,38.7837383 11.0149453,37.3333731 11.0149453,36.768494 C11.0149453,36.2952169 10.9546576,35.6692698 10.8039384,35.3791967 C10.6230753,34.9059197 10.1558455,34.6005796 9.64340003,34.6005796 C9.38717729,34.6005796 9.08573876,34.6921816 8.73908445,34.8753857 C8.43764592,35.0280557 7.94027235,35.3486627 7.59361804,35.7608718 C7.41275492,35.9746098 7.30725144,36.1120129 7.30725144,36.2188819 C7.30725144,36.2799499 7.38261107,36.3715519 7.4579707,36.3562849 C7.56347419,36.3410179 8.01563198,36.1272799 8.16635124,36.0204108 C8.1964951,35.9898768 8.22663895,35.9440758 8.22663895,35.8982748 C8.22663895,35.7914058 8.22663895,35.6692698 8.24171088,35.6082018 C8.27185473,35.4402647 8.36228629,35.3333957 8.46778977,35.2417937 C8.69386867,35.1043907 8.84458793,35.0585897 9.07066683,35.0585897 C9.25152995,35.0585897 9.5077527,35.1501917 9.70368774,35.3028617 C9.95991049,35.5013328 10.065414,35.9288088 10.065414,36.5547559 C10.065414,36.768494 10.065414,37.073834 10.0352701,37.2570381 C10.0352701,37.3181061 9.95991049,37.4555091 9.83933508,37.4860431 C9.52282462,37.6081791 8.15127932,38.0203882 7.78955308,38.2188592 C7.65390575,38.2951942 7.24696373,38.6005343 7.24696373,39.0890784 C7.24696373,39.8829625 7.84984079,40.4020406 8.45271785,40.4020406 C9.02545105,40.4020406 9.47760884,40.1425016 9.92976664,39.7150255 C9.94483856,39.6997585 9.99005434,39.6997585 10.0051263,39.7302925 C10.1407736,40.0814336 10.472356,40.4173076 10.8943699,40.4173076 Z M9.11588261,39.8218945 C8.64865289,39.8218945 8.21156702,39.4707534 8.21156702,38.9669424 C8.21156702,38.5241993 8.40750207,38.2951942 8.58836518,38.2035922 C8.90487564,38.0356552 9.77904737,37.7150481 9.97498242,37.6845141 C10.0051263,37.6692471 10.0352701,37.7455821 10.0352701,37.7608491 C10.0352701,38.3409952 10.0051263,38.9516754 9.95991049,39.2112144 C9.94483856,39.3791514 9.85440701,39.5165545 9.7941193,39.5776225 C9.62832811,39.7302925 9.37210536,39.8218945 9.11588261,39.8218945 Z M15.1597251,40.4173076 C16.2750477,40.4173076 16.9683563,39.7760935 17.239651,39.4096854 C17.3300825,39.3028164 17.3602264,39.2264814 17.3602264,39.1654134 C17.3602264,39.1196124 17.2848667,39.1348794 17.2547229,39.1654134 C16.7272055,39.6386905 16.3353354,39.7455595 15.6872425,39.7455595 C15.2350847,39.7455595 14.6774235,39.5776225 14.2855534,39.2112144 C13.9238271,38.8906073 13.5319571,38.2493932 13.5319571,37.2265041 C13.5319571,35.4707988 14.57192,34.8601186 15.2049409,34.8601186 C15.3707321,34.8601186 15.596811,34.8906527 15.7776741,34.9822547 C16.003753,35.1043907 16.3805512,35.3639297 16.621702,35.6082018 C16.7121335,35.6998038 16.817637,35.7608718 16.8779247,35.7608718 C16.9834282,35.7608718 17.2547229,35.5624008 17.2547229,35.2723277 C17.2547229,35.1959927 17.2095071,35.0738567 17.0437159,34.9822547 C16.7874932,34.7837836 16.3202634,34.6005796 15.6721706,34.6005796 C14.6924954,34.6005796 13.9087552,35.0433227 13.4415255,35.4860658 C12.9893677,35.9135418 12.522138,36.646358 12.522138,37.6081791 C12.522138,38.4478643 12.7934327,39.1806804 13.2757343,39.6692245 C13.7731079,40.1577686 14.4814884,40.4173076 15.1597251,40.4173076 Z M19.2291452,33.1349474 C19.4250803,33.1349474 19.7868065,32.9670103 19.7868065,32.5548013 C19.7868065,32.2952622 19.6059434,31.9746552 19.2592891,31.9746552 C19.0181383,31.9746552 18.7317717,32.1883932 18.7317717,32.5700683 C18.7317717,32.8754083 18.9578506,33.1349474 19.2291452,33.1349474 Z M20.0581012,40.3104386 C20.1786766,40.3104386 20.299252,40.2799046 20.299252,40.2035696 C20.299252,40.1425016 20.2238924,40.1119676 20.0731731,40.0814336 C19.8320223,40.0203655 19.681303,39.9440305 19.6511592,39.6386905 C19.6210153,39.3791514 19.6210153,38.2493932 19.6210153,36.966965 C19.6210153,35.9898768 19.6210153,35.0585897 19.6511592,34.7532496 C19.6662311,34.5853126 19.6360873,34.5395116 19.5908715,34.5395116 C19.5607276,34.5395116 19.485368,34.5700456 19.3647926,34.6463806 C19.0482821,34.7837836 18.6865559,34.9364537 18.2796139,35.0433227 C18.1439665,35.0738567 18.0987508,35.1196577 18.0987508,35.1654587 C18.0987508,35.1959927 18.1439665,35.2417937 18.2193262,35.2875947 C18.5944497,35.4911548 18.6480388,35.5861494 18.6553163,35.7548613 L18.655234,35.9768037 C18.649528,36.596278 18.624495,38.8070879 18.6111963,39.2112144 C18.5961243,39.8371615 18.460477,39.9592975 18.1288946,40.0508995 C17.9178876,40.0814336 17.842528,40.1272346 17.842528,40.1883026 C17.842528,40.2493706 17.9480315,40.2799046 18.053535,40.2799046 C18.2193262,40.2799046 18.460477,40.2493706 18.9578506,40.2493706 C19.3647926,40.2493706 19.9224539,40.3104386 20.0581012,40.3104386 Z M23.1930619,40.2799046 C23.3889969,40.2799046 23.4945004,40.2341036 23.4945004,40.1730356 C23.4945004,40.1272346 23.3889969,40.0814336 23.2985654,40.0661665 C22.8765514,39.9898315 22.7861199,39.8829625 22.771048,39.4707534 C22.755976,39.1806804 22.7409041,38.4631313 22.7409041,36.5394889 L22.7409041,34.9211867 C22.7409041,32.6311363 22.8011918,29.9899448 22.8011918,29.8830758 C22.8011918,29.8067408 22.7861199,29.7151388 22.755976,29.7151388 C22.6956883,29.7151388 22.6203287,29.7456728 22.5751129,29.7609398 C22.2435305,29.8830758 21.8818043,30.0204788 21.4447184,30.1120808 C21.3090711,30.1426148 21.2186395,30.1884158 21.2186395,30.2342169 C21.2186395,30.2800179 21.2638553,30.3105519 21.3693588,30.3716199 C21.7612289,30.6158919 21.7913727,30.6922269 21.7913727,31.028101 C21.8064447,31.6998491 21.7913727,32.9517433 21.7913727,34.1883705 C21.7763008,36.0204108 21.7160131,38.6005343 21.6858693,39.1654134 C21.6255816,39.8371615 21.53515,39.9745645 21.1583518,40.0508995 C20.9624168,40.0967006 20.8870572,40.1119676 20.8870572,40.1883026 C20.8870572,40.2646376 20.9624168,40.2799046 21.1432799,40.2799046 C21.3693588,40.2799046 21.7612289,40.2493706 22.153099,40.2493706 C22.4093217,40.2493706 22.9519111,40.2799046 23.1930619,40.2799046 Z M25.6045701,33.1349474 C25.8005052,33.1349474 26.1622314,32.9670103 26.1622314,32.5548013 C26.1622314,32.2952622 25.9813683,31.9746552 25.634714,31.9746552 C25.3935632,31.9746552 25.1071966,32.1883932 25.1071966,32.5700683 C25.1071966,32.8754083 25.3332755,33.1349474 25.6045701,33.1349474 Z M26.4335261,40.3104386 C26.5541015,40.3104386 26.6746769,40.2799046 26.6746769,40.2035696 C26.6746769,40.1425016 26.5993173,40.1119676 26.448598,40.0814336 C26.2074472,40.0203655 26.0567279,39.9440305 26.0265841,39.6386905 C25.9964402,39.3791514 25.9964402,38.2493932 25.9964402,36.966965 C25.9964402,35.9898768 25.9964402,35.0585897 26.0265841,34.7532496 C26.041656,34.5853126 26.0115121,34.5395116 25.9662964,34.5395116 C25.9361525,34.5395116 25.8607929,34.5700456 25.7402175,34.6463806 C25.423707,34.7837836 25.0619808,34.9364537 24.6550388,35.0433227 C24.5193914,35.0738567 24.4741757,35.1196577 24.4741757,35.1654587 C24.4741757,35.1959927 24.5193914,35.2417937 24.5947511,35.2875947 C25.016765,35.5165998 25.0318369,35.6082018 25.0318369,35.8219398 C25.0318369,35.9746098 25.0016931,38.7532043 24.9866211,39.2112144 C24.9715492,39.8371615 24.8359019,39.9592975 24.5043195,40.0508995 C24.2933125,40.0814336 24.2179529,40.1272346 24.2179529,40.1883026 C24.2179529,40.2493706 24.3234564,40.2799046 24.4289599,40.2799046 C24.5947511,40.2799046 24.8359019,40.2493706 25.3332755,40.2493706 C25.7402175,40.2493706 26.2978787,40.3104386 26.4335261,40.3104386 Z M29.4479114,40.3867736 C29.8699253,40.3867736 30.337155,40.2493706 30.6687374,39.9898315 C30.8646725,39.8371615 31.0003198,39.6844915 31.0003198,39.5928895 C31.0003198,39.5318215 30.955104,39.5165545 30.8496005,39.5928895 C30.7139532,39.6844915 30.4426585,39.8218945 30.0206446,39.8218945 C29.6287745,39.8218945 29.312264,39.6997585 29.0861851,39.4096854 C28.9806817,39.2570154 28.9505378,39.0738114 28.9203939,38.5852673 C28.905322,38.1119902 28.8902501,35.7150708 28.8902501,35.4555318 C28.8902501,35.3639297 28.9203939,35.3181287 29.1012571,35.3181287 C29.5081991,35.3181287 30.2467235,35.3333957 30.7742409,35.3333957 C30.8496005,35.3333957 30.9249602,35.2112597 30.9249602,34.9517207 C30.9249602,34.8448516 30.8646725,34.7379826 30.8345286,34.7379826 C30.5180182,34.7379826 29.2670483,34.7837836 28.9957536,34.7837836 C28.9354659,34.7837836 28.9203939,34.6921816 28.9203939,34.6463806 C28.905322,34.4631766 28.9354659,34.0357005 28.9354659,33.8982975 C28.9354659,33.8219625 28.8299624,33.7914285 28.6943151,33.9440985 C28.3325888,34.4173756 27.8352152,34.8295846 27.4584171,34.9669877 C27.2926259,35.0433227 27.277554,35.0891237 27.277554,35.1196577 C27.277554,35.1807257 27.3529136,35.2265267 27.473489,35.2570607 C27.6091363,35.2875947 27.7749275,35.3181287 27.8352152,35.3486627 C27.895503,35.3791967 27.9105749,35.4860658 27.9105749,35.6540028 L27.9105749,38.8142723 C27.9105749,39.1806804 27.9708626,39.4860204 28.091438,39.6844915 C28.3476607,40.1730356 28.8148905,40.3867736 29.4479114,40.3867736 Z M32.3115774,44.5241313 C32.4773686,44.5241313 32.6582317,44.4783303 32.808951,44.2645923 C32.9144545,44.1271892 32.9898141,43.9745192 33.0953176,43.6997132 C33.3063245,43.1806351 33.8790577,41.5928668 34.240784,40.7073807 C34.5572944,39.8829625 34.6929418,39.5318215 34.8738049,39.0280104 C35.0998838,38.4478643 36.0343432,36.0967459 36.2152063,35.7150708 C36.4563572,35.1501917 36.6070764,35.0433227 36.908515,34.9517207 C37.0592342,34.9059197 37.1195219,34.8448516 37.1195219,34.7990506 C37.1195219,34.7532496 37.0290904,34.7379826 36.9386588,34.7379826 C36.7125799,34.7379826 36.5166449,34.7837836 36.2453502,34.7837836 C36.0192713,34.7837836 35.7027608,34.7379826 35.5218977,34.7379826 C35.3862504,34.7379826 35.3108908,34.7685166 35.3108908,34.8295846 C35.3108908,34.8753857 35.3561065,34.9211867 35.5821854,34.9669877 C35.8384082,35.0433227 35.9137678,35.1654587 35.9137678,35.2723277 C35.9137678,35.3486627 35.9137678,35.5318668 35.8384082,35.7150708 C35.7178328,36.0662119 34.8738049,38.2646602 34.6778698,38.7837383 C34.6627979,38.8295393 34.6175821,38.8448063 34.5874383,38.7837383 C34.2859998,38.1425242 33.4570438,36.0814789 33.2611088,35.5471338 C33.1254614,35.1501917 33.1556053,35.0738567 33.4871877,34.9669877 C33.5776192,34.9517207 33.6831227,34.9059197 33.6831227,34.8448516 C33.6831227,34.7837836 33.5776192,34.7379826 33.4269,34.7379826 C33.2309649,34.7379826 32.8390948,34.7837836 32.6280879,34.7837836 C32.2663616,34.7837836 31.8443477,34.7227156 31.573053,34.7227156 C31.4675495,34.7227156 31.3319022,34.7532496 31.3319022,34.8295846 C31.3319022,34.8753857 31.4223337,34.9364537 31.6031969,34.9822547 C31.8594196,35.0433227 32.0402827,35.1959927 32.1457862,35.3944637 C32.8240229,36.89063 33.7886262,39.3638844 34.0147051,39.9592975 C34.0599209,40.0967006 34.0900647,40.2493706 34.029777,40.4478416 C33.5173315,41.7760708 33.0802456,43.0279651 32.9295264,43.3485721 C32.8390948,43.5623102 32.7185194,43.6081112 32.5376563,43.6081112 L32.2362178,43.5775772 L32.2362178,43.5775772 C32.0101389,43.5775772 31.8142038,43.7913152 31.8142038,44.0203202 C31.8142038,44.3256603 32.0704266,44.5241313 32.3115774,44.5241313 Z"/>
    </g>
    <g fill-rule="nonzero" stroke-linecap="round" stroke-linejoin="round" transform="translate(98.223 77.175)">
      <g transform="translate(0 18.91)">
        <path stroke="#222F3C" stroke-width=".5" d="M6.55327428,0 C4.99835675,0.162994498 4.89666454,1.74704454 4.89263712,1.81487455 L4.85404107,2.54176927 L4.28214824,2.09834324 C2.42349655,0.653665304 0.0248357214,1.25367403 0,1.25907344" transform="translate(18.978)"/>
        <path stroke="#222F3C" stroke-width=".5" d="M6.55327428,0 C4.99835675,0.164344349 4.89666454,1.74839439 4.89397959,1.8162244 L4.85538354,2.54176927 L4.28214824,2.09800578 C2.42349655,0.655015155 0.0248357214,1.25367403 0,1.25907344" transform="translate(18.09 8.479)"/>
        <path stroke="#222F3C" stroke-width=".5" d="M6.55193181,0 C4.99701427,0.164344349 4.89532206,1.74839439 4.89263712,1.8162244 L4.85404107,2.54176927 L4.28214824,2.09935563 C2.42383216,0.655015155 0.02349325,1.25367403 0,1.25907344" transform="translate(28.801 9.586)"/>
        <g transform="translate(0 9.984)">
          <line x2="72.885" y1="29.168" y2="29.168" stroke="#222F3C" stroke-width=".5"/>
          <line x1="74.244" x2="124.282" y1="21.998" y2="21.998" stroke="#222F3C" stroke-width=".5"/>
          <g stroke="#222F3C" stroke-width=".5">
            <g transform="translate(28.18 3.016)">
              <g transform="translate(0 7.138)">
                <line x1="29.153" x2="29.153" y1="5.928" y2="8.966"/>
                <g transform="translate(2.276 12.497)">
                  <g transform="translate(14.466 1.474)">
                    <line y2="5.014"/>
                    <line x1="22.058" x2="22.058" y2="5.014"/>
                  </g>
                  <rect width="5.865" height="6.521" x="23.972" rx="1"/>
                  <line y2="5.014" transform="translate(0 1.474)"/>
                </g>
                <path d="M4.43753931,11.9141216 L18.6234349,11.9141216 L29.0913559,0 L10.4682566,0 L0,11.9141216"/>
                <line x1="29.189" x2="39.657" y1=".016" y2="11.93"/>
              </g>
              <g transform="translate(18.848)">
                <line x1="25.029" x2="25.029" y1="5.929" y2="8.966"/>
                <g transform="translate(22.124 12.47)">
                  <line y2="5.014" transform="translate(12.552 1.337)"/>
                  <rect width="5.865" height="6.521" rx="1"/>
                </g>
                <path d="M14.4996983,11.9144591 L24.9679549,0 L6.34451997,0 L0,7.09177923"/>
                <line x1="25.065" x2="35.533" y1=".016" y2="11.931"/>
              </g>
            </g>
            <line x2="72.885" y1="29.168" y2="29.168"/>
            <g transform="translate(80.236)">
              <g transform="translate(5.818 4.613)">
                <line x1="2.378" x2="2.24" y2="2.388"/>
                <path d="M2.07579645,5.12673376 L4.09118168,5.12673376 C4.37847056,5.12673376 4.61071812,4.89320956 4.61071812,4.60569131 L4.61071812,0.521042452 C4.61071812,0.233524208 4.37847056,0 4.09118168,0 L0.518529589,0 C0.232583175,0 0,0.233524208 0,0.521042452 L0,2.84886035" transform="translate(0 5.229)"/>
              </g>
              <path d="M13.9371517,6.75836605 L8.30044983,0 L22.9320459,0 L27.9166423,5.57150964"/>
              <line x1="8.224" y1=".013" y2="9.374"/>
            </g>
          </g>
          <g stroke="#222F3C" stroke-width=".5" transform="translate(7.807 14.081)">
            <path d="M8.38709025,2.78676721 C8.2978159,1.23308881 6.96407054,0 5.32692663,0 C3.68978272,0 2.35637297,1.23308881 2.26676301,2.78676721 C0.962216396,3.12524232 0,4.2699159 0,5.63259039 C0,6.99290265 0.960873925,8.13588891 2.26407806,8.47740119 C2.26273559,8.51317224 2.25870818,8.5479309 2.25870818,8.58370195 C2.25870818,10.2136469 3.63205645,11.5348135 5.32692663,11.5348135 C7.02213242,11.5348135 8.39514508,10.2136469 8.39514508,8.58370195 C8.39514508,8.5479309 8.39111766,8.51317224 8.38977519,8.47740119"/>
            <line x1="5.363" x2="7.766" y1="6.469" y2="4.288"/>
            <line x1="5.194" x2="3.133" y1="7.747" y2="5.024"/>
            <line x1="5.262" x2="5.262" y1="4.801" y2="15.127"/>
          </g>
          <g stroke="#222F3C" stroke-width=".5" transform="translate(16.256 14.081)">
            <path d="M0.00839044643,2.78676721 C0.0976647964,1.23308881 1.43107454,0 3.06821845,0 C4.70569797,0 6.03910772,1.23308881 6.12838207,2.78676721 C7.43292868,3.12524232 8.39514508,4.2699159 8.39514508,5.63259039 C8.39514508,6.99290265 7.43561362,8.13588891 6.13106701,8.47740119 C6.13240949,8.51317224 6.13811499,8.5479309 6.13811499,8.58370195 C6.13811499,10.2136469 4.76342425,11.5348135 3.06821845,11.5348135 C1.37334827,11.5348135 0,10.2136469 0,8.58370195 C0,8.5479309 0.00402741429,8.51317224 0.00570550357,8.47740119"/>
            <line x1="3.033" x2=".63" y1="6.469" y2="4.288"/>
            <line x1="3.201" x2="5.262" y1="7.747" y2="5.024"/>
            <line x1="3.271" x2="3.133" y1="4.801" y2="15.127"/>
          </g>
          <g stroke="#231F20" stroke-width=".4" transform="translate(74.816 27.26)">
            <g transform="translate(12.264)">
              <path d="M17.7447873,14.5966128 C17.8270137,14.5966128 17.8944729,14.5291203 17.8944729,14.4461045 L17.8944729,0.150845839 C17.8944729,0.0678300083 17.8270137,0 17.7447873,0 L5.93036754,0 C5.90318249,0 5.87431935,0.0084365682 5.8508261,0.023622391 C5.73134615,0.0995515048 2.97760163,1.89249098 2.11841991,4.19803634 C1.85328181,4.20208589 1.074984,4.17880096 0.544372164,3.69352956 C0.184254204,3.36315355 0,2.87653229 0,2.24615192" transform="translate(3.383)"/>
              <g transform="translate(0 4.492)">
                <path d="M9.4441254,10.1041605 C9.52635178,10.1041605 9.59381097,10.036668 9.59381097,9.95365214 L9.59381097,6.19937929"/>
                <path d="M2.71783341,0 L0.0248357214,4.06136393 C0.00839044643,4.08599871 0,4.11502051 0,4.14539215 L0,5.97983954 C0,6.06285537 0.0674591893,6.13034792 0.150021182,6.13034792 L6.29753347,6.13034792 L6.29753347,9.95380063 C6.29753347,10.0368165 6.36499266,10.104309 6.44721904,10.104309 L8.01186949,10.104309 C8.09409586,10.104309 8.16155505,10.0368165 8.16155505,9.95380063 L8.16155505,6.17320568 L10.3487766,6.17320568"/>
              </g>
              <path d="M0,2.36088925 L0,3.82750226 C0,3.90916824 0.0661167179,3.97531094 0.147336239,3.97531094 L1.67037007,3.97531094 C1.75024712,3.97531094 1.81602822,3.90916824 1.81602822,3.82750226 L1.81602822,0" transform="translate(18.004 10.621)"/>
              <path d="M0,0 L5.58400991,0 C5.61824293,1.36706151 6.73316545,2.46719 8.09946575,2.46719" transform="translate(9.444 10.661)"/>
              <path d="M0.89308685,5.54687486 L0.89308685,4.4038886 C0.89308685,4.36373054 0.866772205,4.32492232 0.822735451,4.29725038 L0,3.78025748 L0,0" transform="translate(22.32 1.475)"/>
              <g transform="translate(2.498 6.585)">
                <path d="M0,0 C0,0.132783974 0.0657811,0.240738424 0.149685564,0.240738424 L1.04444277,0.240738424 C1.12700476,0.240738424 1.19446395,0.132783974 1.19446395,0"/>
              </g>
              <g transform="translate(12.181 14.597)">
                <line x2="10.547" y2=".221"/>
              </g>
              <g transform="translate(0 14.446)">
                <path d="M0,0 C0,0.132783974 0.0674591893,0.240738424 0.150021182,0.240738424 L10.0792755,0.240738424"/>
              </g>
            </g>
            <g transform="translate(0 11.305)">
              <line x1="3.212" x2="3.075" y1="1.796" y2="3.117"/>
              <line x1="4.689" x2="4.552" y2="3.117"/>
              <line x1="6.265" x2="6.127" y1="1.796" y2="3.117"/>
              <line x1=".137" y1="1.796" y2="3.116"/>
              <line x1="1.614" x2="1.477" y2="3.116"/>
              <line x1="3.19" x2="3.053" y1="1.796" y2="3.116"/>
              <line x1="9.335" x2="9.198" y1="1.796" y2="3.117"/>
              <line x1="10.812" x2="10.675" y2="3.117"/>
              <line x1="12.388" x2="12.25" y1="1.796" y2="3.117"/>
              <line x1="6.261" x2="6.123" y1="1.796" y2="3.117"/>
              <line x1="7.738" x2="7.6" y2="3.117"/>
              <line x1="9.314" x2="9.176" y1="1.796" y2="3.117"/>
            </g>
          </g>
          <g stroke="#222F3C" stroke-width=".5" transform="translate(92.792 5.053)">
            <path d="M11.1391567,3.70162866 C11.0210192,1.63939393 9.24895691,0 7.07415319,0 C4.90069195,0 3.12862966,1.63939393 3.01049218,3.70162866 C1.27702595,4.15247887 0,5.67139861 0,7.48222361 C0,9.29001144 1.274341,10.8079188 3.00646476,11.2611312"/>
            <g transform="translate(2.998 3.702)">
              <path d="M8.12992105 0C9.86338728.450850205 11.1404132 1.96976994 11.1404132 3.78059494 11.1404132 5.58838278 9.86607223 7.10629013 8.13394847 7.55950257"/>
            </g>
            <line x1="7.122" x2="10.314" y1="8.096" y2="5.199"/>
            <line x1="6.898" x2="4.161" y1="9.794" y2="8.467"/>
            <line x1="6.989" x2="6.989" y1="5.882" y2="17.013"/>
          </g>
        </g>
      </g>
      <g stroke="#222F3C" stroke-width=".5" transform="translate(62.777)">
        <path d="M6.4747397,11.8527034 L21.6184886,11.8527034 C22.1531279,11.8527034 23.1210498,11.0981367 23.1210498,9.89676943 C23.1210498,8.69573958 22.1531279,7.94083545 20.9586639,7.94083545 L20.0538382,7.94083545 C20.2740035,7.94083545 20.3988534,6.91393637 20.3988534,6.35678541 C20.3988534,4.31682322 18.7549971,2.64975734 16.727194,2.64975734 C15.7622927,2.64975734 14.8880081,3.01894157 14.2322108,3.6297491 C13.5764136,2.47427672 12.3406686,1.6903508 10.9220119,1.6903508 C10.3101806,1.6903508 9.73291786,1.83680963 9.22009377,2.09530608 C8.28942545,0.826446221 6.7979397,0 5.10978187,0 C2.28757131,0 0,2.3278179 0,5.16419213 C0,6.17725524 0.295679332,7.4515145 0.7987705,7.94083545" transform="translate(0 7.16)"/>
        <path d="M11.4724433,8.90549996 C10.9653247,5.39048819 13.2005397,0.88299853 17.6474763,0.111558733 C21.7675211,-0.601500011 25.6841815,2.17818048 26.393342,6.32087293 C27.1575439,10.784155 23.7003443,14.4193035 20.2183091,15.1144767"/>
      </g>
    </g>
    <rect width="440" height="220.501" stroke="#979797"/>
  </g>
</svg>
