<svg xmlns="http://www.w3.org/2000/svg" width="399" height="200" viewBox="0 0 399 200">
  <g fill="none" transform="translate(39 52)">
    <g transform="translate(119 5)">
      <path fill="#333838" d="M24.7690964,40.1985963 C25.1875817,40.1985963 25.6932514,40.0679925 25.9896784,39.8851472 C26.4953481,39.5804051 26.7569014,39.05799 26.7569014,38.6052303 C26.7569014,38.0741083 26.5476588,37.5168656 25.4752903,36.8638467 C24.6906304,36.3675524 24.3070189,36.088931 24.3070189,35.5752229 C24.3070189,35.0092732 24.7865333,34.6697034 25.1963001,34.6697034 C25.4665719,34.6697034 25.6845329,34.7393587 25.8937756,34.9134971 C25.9983969,35.0005663 26.1814842,35.24436 26.2686686,35.5316883 C26.3122608,35.662292 26.4517559,35.7406543 26.5215035,35.7406543 C26.5738141,35.7406543 26.5999694,35.6535851 26.5999694,35.5229813 C26.5999694,35.4881537 26.512785,34.817721 26.512785,34.7045311 C26.5040666,34.6609965 26.434319,34.5390996 26.3994453,34.5303927 C26.1640473,34.4868581 25.7019698,34.3823751 25.3009214,34.3823751 C24.6121645,34.3823751 24.2023976,34.5565135 23.914689,34.8003072 C23.6356988,35.026687 23.382864,35.4446191 23.382864,35.9409134 C23.382864,36.7158291 23.8623784,37.1947096 24.7516595,37.7780731 C25.5537563,38.3004882 25.7368436,38.6487649 25.7368436,39.0144554 C25.7368436,39.5716982 25.2311739,39.8851472 24.8301255,39.8851472 C24.3854849,39.8851472 23.8798152,39.6152328 23.618262,39.0841108 C23.4874853,38.8141963 23.3479902,38.6052303 23.2782427,38.6052303 C23.2346505,38.6052303 23.1387476,38.7271271 23.1387476,38.7880756 C23.1387476,39.0405762 23.2172136,39.4149737 23.2869611,39.7197158 C23.2869611,39.7545435 23.4438931,39.9373887 23.5136406,39.9722164 C23.8710968,40.1115271 24.2547083,40.1985963 24.7690964,40.1985963 Z M30.9330356,40.1985963 C31.7351323,40.1985963 32.3367049,39.9896303 32.4587631,39.9460957 C32.5895398,39.8851472 32.7464717,39.7458365 32.7726271,39.6674743 C32.851093,39.5107498 32.9905881,39.1276454 33.0341803,38.9099724 C33.0603357,38.8141963 33.0603357,38.5878165 32.9644328,38.5878165 C32.8946853,38.5878165 32.8336562,38.6661787 32.7290348,38.8577309 C32.5285106,39.2147146 32.2931127,39.4672152 31.9705303,39.6500605 C31.6653848,39.8329057 31.2381811,39.8503196 31.1248413,39.8503196 C30.4448028,39.8503196 29.6514245,39.5107498 29.1719101,38.5529888 C28.9801044,38.1698844 28.8754831,37.6648832 28.8754831,37.0815197 C28.8754831,35.7580681 29.5293663,34.6609965 30.9155987,34.6609965 C31.3863946,34.6609965 31.8310352,34.8525487 32.2059283,35.1659977 C32.3541418,35.2791876 32.4849184,35.5142744 32.5721029,35.7841889 C32.6156951,35.9147927 32.6941611,36.0192757 32.7377533,36.0192757 C32.8336562,36.0192757 32.8946853,35.8712581 32.8859668,35.6884128 C32.8685299,35.4359122 32.851093,35.13117 32.8423746,34.8873763 C32.8423746,34.7567726 32.7726271,34.6522896 32.711598,34.6522896 C32.5110738,34.6261688 32.2931127,34.5739273 32.0838701,34.5216858 C31.7700061,34.4433235 31.3515209,34.3823751 30.9504725,34.3823751 C30.2355602,34.3823751 29.3375605,34.5565135 28.5964929,35.1659977 C28.2303183,35.4620329 27.6374642,36.2021209 27.6374642,37.255658 C27.6374642,38.2221259 28.0385125,38.8316102 28.3698134,39.2147146 C28.7272695,39.6239397 29.642706,40.1985963 30.9330356,40.1985963 Z M37.9601006,40.0854063 C38.1344695,40.0854063 38.8319449,40.0418718 39.0237506,40.0418718 C39.2853039,40.0418718 39.7560999,40.0679925 39.9043134,40.0679925 C40.0612454,40.0679925 40.1833036,40.0418718 40.1833036,39.9460957 C40.1833036,39.8764403 40.0961191,39.8154919 39.9391872,39.7632504 C39.5904494,39.6500605 39.503265,39.6239397 39.4945466,39.2843699 C39.4867,39.0257744 39.4647295,38.6331795 39.4604139,37.9352068 L39.4596728,37.6910039 C39.4596728,36.4546216 39.4858281,35.670999 39.5294203,35.2617738 C39.5468572,35.0092732 39.5991679,34.8699625 39.9130318,34.8003072 C40.113556,34.7480657 40.192022,34.6958241 40.192022,34.608755 C40.192022,34.5390996 40.0874007,34.495565 39.9217503,34.495565 C39.817129,34.495565 39.2678671,34.5303927 38.9888769,34.5303927 C38.7621974,34.5303927 38.1170326,34.5042719 38.0036928,34.5042719 C37.8031686,34.5042719 37.7159842,34.5565135 37.7159842,34.6174619 C37.7159842,34.7045311 37.8467609,34.7567726 37.9688191,34.7916002 C38.3175568,34.8873763 38.361149,34.9744455 38.3960228,35.2878946 C38.4308965,35.6274644 38.4308965,36.6461738 38.4134596,36.7593637 C38.4047412,36.8899675 38.3698674,36.9770366 38.3349937,36.9770366 C37.4195571,36.9770366 36.2687227,37.0118643 35.6758686,37.0118643 C35.6148395,37.0118643 35.5799657,36.9683297 35.5712472,36.8986744 C35.5450919,36.7332429 35.5799657,35.7232405 35.5974026,35.4097914 C35.606121,35.0528078 35.6322763,34.8873763 35.9984509,34.8090141 C36.1815382,34.7654795 36.294878,34.713238 36.294878,34.6174619 C36.294878,34.5390996 36.1902567,34.5042719 36.0071694,34.5042719 C35.7979268,34.5042719 35.4055968,34.5303927 35.0394222,34.5303927 C34.8127427,34.5303927 34.3332283,34.495565 34.0978304,34.495565 C33.9408984,34.495565 33.8275586,34.5303927 33.8275586,34.6174619 C33.8275586,34.6871172 33.9234615,34.7480657 34.1239857,34.8090141 C34.4116943,34.8960833 34.4901603,34.9918594 34.5075972,35.2791876 C34.5250341,35.6274644 34.5075972,36.1063448 34.5075972,36.3675524 C34.5075972,37.5604001 34.464005,38.8577309 34.4291312,39.2060076 C34.385539,39.5716982 34.307073,39.6674743 33.9234615,39.7719573 C33.775248,39.8154919 33.6793451,39.8677334 33.6793451,39.9635095 C33.6793451,40.0331648 33.7578111,40.0766994 33.9844906,40.0766994 C34.2809177,40.0766994 34.7255583,40.0418718 34.9260825,40.0418718 C35.231228,40.0418718 35.9548587,40.0679925 36.0158878,40.0679925 C36.1292276,40.0679925 36.3035964,40.0418718 36.294878,39.9548026 C36.294878,39.8781817 36.2167608,39.8182781 36.0917732,39.7706339 L35.9897325,39.7371296 C35.6322763,39.6326466 35.5799657,39.5020428 35.5712472,39.0928177 C35.5625288,38.8141963 35.5450919,37.8825561 35.5625288,37.5604001 C35.5625288,37.5081586 35.6322763,37.4385033 35.6758686,37.4297964 C35.8502374,37.4123825 37.6375182,37.4385033 38.3349937,37.4385033 C38.3698674,37.4385033 38.4047412,37.473331 38.4047412,37.5516932 C38.4221781,37.78678 38.4134596,38.6052303 38.3873043,38.953507 C38.3437121,39.5978189 38.3262752,39.6674743 37.8990715,39.7806642 C37.7770133,39.8154919 37.6636735,39.8851472 37.6636735,39.9635095 C37.6636735,40.0418718 37.750858,40.0854063 37.9601006,40.0854063 Z M44.0194185,40.1985963 C44.6907386,40.1985963 45.4318062,39.9548026 45.9287575,39.5716982 C46.5390485,39.0841108 47.0272813,38.3440228 47.0272813,37.2034165 C47.0272813,35.8103096 45.9113206,34.3823751 43.9845447,34.3823751 C43.2521955,34.3823751 42.5198463,34.7045311 42.1275163,35.0092732 C41.4736331,35.5316883 41.0028372,36.2108279 41.0028372,37.2730719 C41.0028372,38.0741083 41.2818274,38.7619548 41.7526233,39.2669561 C42.3018852,39.8503196 43.1039819,40.1985963 44.0194185,40.1985963 Z M44.2722533,39.8764403 C42.9993606,39.8764403 42.179827,38.422385 42.179827,37.0815197 C42.179827,36.0453964 42.4936909,35.4184983 42.790118,35.13117 C42.9906422,34.9309109 43.3829721,34.6871172 43.7753021,34.6871172 C44.1589135,34.6871172 44.6297095,34.8960833 44.9261365,35.1572908 C45.5625829,35.7406543 45.8328546,36.7854844 45.8328546,37.473331 C45.8328546,38.4049712 45.5277091,39.1537661 45.1615345,39.5194567 C45.0481947,39.6326466 44.7517677,39.8764403 44.2722533,39.8764403 Z M50.9767359,40.1985963 C51.648056,40.1985963 52.3891237,39.9548026 52.8860749,39.5716982 C53.4963659,39.0841108 53.9845988,38.3440228 53.9845988,37.2034165 C53.9845988,35.8103096 52.8686381,34.3823751 50.9418622,34.3823751 C50.209513,34.3823751 49.4771637,34.7045311 49.0848338,35.0092732 C48.4309506,35.5316883 47.9601547,36.2108279 47.9601547,37.2730719 C47.9601547,38.0741083 48.2391448,38.7619548 48.7099408,39.2669561 C49.2592027,39.8503196 50.0612994,40.1985963 50.9767359,40.1985963 Z M51.2295708,39.8764403 C49.9566781,39.8764403 49.1371445,38.422385 49.1371445,37.0815197 C49.1371445,36.0453964 49.4510084,35.4184983 49.7474355,35.13117 C49.9479597,34.9309109 50.3402896,34.6871172 50.7326195,34.6871172 C51.116231,34.6871172 51.5870269,34.8960833 51.883454,35.1572908 C52.5199003,35.7406543 52.7901721,36.7854844 52.7901721,37.473331 C52.7901721,38.4049712 52.4850266,39.1537661 52.118852,39.5194567 C52.0055122,39.6326466 51.7090851,39.8764403 51.2295708,39.8764403 Z M58.832053,40.1028202 C58.8669268,40.1028202 59.0151403,40.0070441 59.0325772,39.9548026 C59.0848879,39.7110089 59.2156645,39.2321284 59.3115674,38.9273863 C59.3464412,38.7880756 59.3377227,38.6922995 59.2766936,38.6922995 C59.2156645,38.6922995 59.1197617,38.7532479 59.0412957,38.8664378 C58.8146161,39.2321284 58.6053735,39.4323875 58.4920338,39.5455774 C58.3961309,39.6326466 58.300228,39.6500605 58.221762,39.6674743 C58.0648301,39.702302 57.7858399,39.7110089 57.5940341,39.7110089 C57.3499177,39.7110089 57.0360538,39.693595 56.8704034,39.6674743 C56.8355296,39.6587674 56.5739763,39.5368705 56.5565394,39.3279045 C56.5216657,39.0318693 56.5129472,38.317902 56.5129472,37.7171247 C56.5129472,36.4285008 56.5129472,35.5491021 56.5739763,35.1137562 C56.5826948,35.0092732 56.6524423,34.8786694 57.1232382,34.7654795 C57.2104226,34.7393587 57.315044,34.6784103 57.315044,34.600048 C57.315044,34.5390996 57.2452964,34.495565 57.0447722,34.495565 C56.8355296,34.495565 56.233957,34.5303927 55.8939378,34.5303927 C55.6411029,34.5303927 55.2574914,34.5129789 55.0220935,34.5129789 C54.8651615,34.5129789 54.7605402,34.5478065 54.7605402,34.6348757 C54.7605402,34.6958241 54.8390062,34.7567726 55.0046566,34.8003072 C55.405705,34.8960833 55.4492972,35.0353939 55.4580156,35.3314292 C55.4623748,35.4750933 55.4645544,35.6318178 55.4656442,35.8581977 L55.4667341,36.8028983 C55.4667341,38.0566945 55.4405787,38.9709209 55.4231418,39.1885938 C55.3795496,39.5716982 55.3010836,39.7284227 54.8215693,39.8154919 C54.6820742,39.8416126 54.6036082,39.9199749 54.6036082,39.9809233 C54.6036082,40.0592856 54.7082295,40.0941133 54.8651615,40.0941133 C55.1354332,40.0941133 55.7370058,40.0418718 56.155491,40.0418718 C57.925335,40.0418718 58.7012764,40.1028202 58.832053,40.1028202 Z"/>
      <g stroke="#222F3C" stroke-linecap="round" stroke-linejoin="round" stroke-width=".5" transform="translate(23.551 49.318)">
        <path d="M34.4529318,24.6282 C34.7481888,24.6282 34.9884081,24.3879945 34.9884081,24.0894838 L34.9884081,21.48746 C34.9884081,21.0670245 34.6484521,20.7261513 34.2288284,20.7261513 L28.5331966,20.7261513 L28.5331966,0.762523401 C28.5331966,0.342087858 28.1917202,0 27.7733128,0 L17.4943561,0 L7.21509537,0 C6.79668795,0 6.45551562,0.342087858 6.45551562,0.762523401 L6.45551562,20.7261513 L0.759883822,20.7261513 C0.340260103,20.7261513 0,21.0670245 0,21.48746 L0,24.0894838 C0,24.3879945 0.240523451,24.6282 0.53578043,24.6282"/>
        <line x1="17.494" x2="17.494" y1="20.655" y2=".199"/>
      </g>
      <path stroke="#222F3C" stroke-width=".5" d="M42.9344491,7.96064105 C44.4092136,7.96064105 45.5625707,7.58879322 46.5787899,7.26158535 C47.4159088,6.99161988 48.1380873,6.75900621 48.9092219,6.75900621 C49.6937358,6.75900621 50.451187,7.0078664 51.29682,7.5414202 C51.3889548,7.5986626 51.4959893,7.62978911 51.6045441,7.62978911 C51.7015441,7.62978911 51.7961115,7.6061026 51.8845973,7.55766672 C52.0688669,7.45684722 52.1835032,7.26280005 52.1835032,7.05265819 L52.1835032,0.844667001 C52.1835032,0.626933318 52.0627854,0.430456758 51.8696976,0.329637257 C51.4351742,0.108259495 50.9605129,0 50.4162184,0 C49.5681528,0 48.6699147,0.266169558 47.7196799,0.54737094 C46.6274419,0.870782896 45.499019,1.20527892 44.2821102,1.20527892 L44.2821102,1.20527892 C43.2771418,1.20527892 42.3491044,0.972665254 41.4423523,0.492557928 C41.2656846,0.399330256 41.0427975,0.406770249 40.8719073,0.508804444 C40.7001048,0.613268024 40.5930704,0.803519282 40.5930704,1.00379176 L40.5930704,12.8888016"/>
      <path stroke="#222F3C" stroke-linecap="round" stroke-linejoin="round" stroke-width=".5" d="M0,23.6049732 L0,19.5822144 L40.5849114,0 L82.0902584,19.6212364 L82.0902584,23.659027" transform="translate(0 12.62)"/>
      <path stroke="#222F3C" stroke-linecap="round" stroke-linejoin="round" stroke-width=".5" d="M0,56.4935398 L0,17.6239777 L36.5261162,0 L73.8808372,17.6592038 L73.8808372,56.5421275" transform="translate(4.105 17.156)"/>
      <g transform="translate(77.979 24.605)">
        <g stroke="#222F3C" stroke-linecap="round" stroke-linejoin="round" transform="translate(0 13.685)">
          <g stroke-width=".5" transform="translate(19.136 27.92)">
            <g transform="translate(7.642)">
              <line y1="7.791"/>
              <line x2="3.761" y1="7.791" y2="7.791"/>
            </g>
            <line x1="3.761" x2="3.761" y1="7.791"/>
            <line x1="3.761" y1="7.791" y2="7.791"/>
          </g>
          <path stroke-width=".5" d="M35.4061867,2.52382795 C34.3823657,1.50257498 33.2463409,0.663070428 32.0394666,0 L17.6366426,0 C16.4297683,0.663070428 15.2925272,1.50257498 14.2699224,2.52382795 C8.43228755,8.35253132 8.43228755,17.8045114 14.2699224,23.633063 C20.106341,29.4617663 29.5697681,29.4617663 35.4061867,23.633063 C41.2423013,17.8045114 41.2423013,8.35374601 35.4061867,2.52382795 Z"/>
          <g stroke-width=".5" transform="translate(23.003 12.669)">
            <line x1="2.495" x2="5.248" y1="1.004" y2="3.558"/>
            <line x2="1.173" y1="2.316" y2="1.144"/>
            <ellipse cx="1.937" cy=".622" rx="1" ry="1"/>
          </g>
          <ellipse cx="24.837" cy="13.078" stroke-width=".25" rx="12.455" ry="12.438"/>
          <g stroke-width=".5" transform="translate(35.406 22.04)">
            <path d="M0 1.59336598C2.9267234 4.51773888 7.67455293 4.51773888 10.604013 1.59336598M11.9240714.273305878C11.5588771-.0911019595 10.9674509-.0911019595 10.603777.273305878 10.2388869.637713716 10.2388869 1.22850992 10.603777 1.59291776 10.9686672 1.95626274 11.5588771 1.95626274 11.9240714 1.59291776 12.2889616 1.22850992 12.2889616.637713716 11.9240714.273305878z"/>
          </g>
          <g stroke-width=".5" transform="translate(0 16.344)">
            <path d="M11.8507893 4.09256724C9.97130072.407037475 5.45760906-1.0594004 1.76735294.816237109M.10111056 1.66283698C.336464733 2.12183902.899611927 2.30465028 1.35906949 2.07082192 1.81761483 1.83699356 2.00066808 1.27474263 1.76774651.81574059 1.53239233.356738551.970461439.173927285.511003874.407755648.0512422341.641584011-.131811011 1.20262024.10111056 1.66283698z"/>
          </g>
          <line x2="10.711" y1="16.25" stroke-width=".5" transform="translate(47.31 5.847)"/>
        </g>
        <g stroke="#222F3C" stroke-linecap="round" stroke-linejoin="round" stroke-width=".5" transform="translate(9.892)">
          <path d="M22.4748031,7.54081286 L29.8918044,5.09366239 L14.9459022,0 L0,5.09366239 L7.46504515,7.54081286"/>
          <path d="M22.4188533,5.09355428 L22.4188533,13.6512168 L7.4729511,13.6512168 L7.4729511,5.09355428 L7.4729511,5.10236081 C7.4729511,4.38963981 10.818386,3.81114237 14.9459022,3.81114237 C19.0734184,3.81114237 22.4188533,4.38963981 22.4188533,5.10236081 L22.4188533,5.09355428 Z"/>
          <line y1="5.094" y2="9.193"/>
        </g>
        <path fill="#222F3C" d="M24.3751537,36.6098999 C24.3502195,36.3487409 24.5509091,36.124782 24.8124137,36.1123314 L24.8124137,36.1123314 C25.060235,36.1000326 25.2843384,36.2989385 25.2980218,36.5477987 L25.2980218,36.5477987 C25.3092726,36.807743 25.1237867,37.0329167 24.8622821,37.0452154 L24.8622821,37.0452154 L24.8622821,37.0452154 L24.8622821,37.0452154 L24.8373479,37.0452154 L24.8373479,37.0452154 C24.587094,37.0452154 24.388837,36.8587601 24.3751537,36.6098999 Z M19.7930451,35.6981211 C19.5564746,35.6235694 19.4193367,35.3624104 19.4929229,35.1135502 L19.4929229,35.1135502 C19.5814088,34.8648419 19.8429134,34.7280371 20.0907347,34.8150395 L20.0907347,34.8150395 C20.3285215,34.8897431 20.4656593,35.150902 20.3908569,35.3996104 L20.3908569,35.3996104 C20.3285215,35.5986681 20.140603,35.7230223 19.9426501,35.7230223 L19.9426501,35.7230223 C19.8927817,35.7230223 19.8429134,35.7105717 19.7930451,35.6981211 Z M29.3236728,35.4841834 C29.2126854,35.2479256 29.312422,34.9743161 29.5489925,34.8622606 L29.5489925,34.8622606 C29.7718796,34.7503571 30.0595347,34.8499619 30.1717384,35.0862196 L30.1717384,35.0862196 C30.2714751,35.3101786 30.1717384,35.5962388 29.9464187,35.6956917 L29.9464187,35.6956917 C29.8852996,35.7330435 29.8104971,35.7454941 29.7481617,35.7454941 L29.7481617,35.7454941 C29.5739267,35.7454941 29.3981712,35.6458893 29.3236728,35.4841834 Z M15.8811182,31.8683466 C15.7564474,31.6445394 15.8312499,31.3584793 16.0553532,31.2339733 L16.0553532,31.2339733 C16.2919237,31.1096191 16.5783625,31.1967733 16.7030333,31.4205805 L16.7030333,31.4205805 C16.8152371,31.6445394 16.7404346,31.9305996 16.5163312,32.0549538 L16.5163312,32.0549538 C16.4415287,32.0923056 16.3667262,32.1172068 16.2919237,32.1172068 L16.2919237,32.1172068 C16.1176887,32.1047562 15.9680837,32.017602 15.8811182,31.8683466 Z M33.1872518,32.0860803 C32.9503772,31.9989261 32.8260105,31.7253165 32.9254431,31.4890588 L32.9254431,31.4890588 C33.0127126,31.2401986 33.2866843,31.128295 33.5357219,31.227748 L33.5357219,31.227748 C33.7725964,31.3149022 33.8844961,31.5885117 33.7975306,31.8249213 L33.7975306,31.8249213 C33.7227281,32.0113767 33.548189,32.1234321 33.3614868,32.1234321 L33.3614868,32.1234321 C33.2991514,32.1234321 33.236816,32.1109815 33.1872518,32.0860803 Z M14.569642,26.7959413 L14.569642,26.7959413 L14.569642,26.7959413 C14.5447079,26.5347824 14.7189429,26.3108234 14.9804476,26.2736234 L14.9804476,26.2736234 C15.2294851,26.2487222 15.4663597,26.4228788 15.5037609,26.6840377 L15.5037609,26.6840377 C15.528391,26.9327461 15.3541559,27.1691557 15.0926513,27.2065075 L15.0926513,27.2065075 L15.0303159,27.2065075 L15.0303159,27.2065075 C14.8062125,27.2065075 14.6067392,27.0323509 14.569642,26.7959413 Z M34.345474,26.7437095 L34.345474,26.7437095 C34.345474,26.4825506 34.5571104,26.2698275 34.8049316,26.2698275 L34.8049316,26.2698275 C35.0664362,26.2698275 35.2795929,26.4825506 35.2795929,26.7437095 L35.2795929,26.7437095 C35.2795929,26.9912032 35.0664362,27.2027116 34.8049316,27.2027116 L34.8049316,27.2027116 C34.5571104,27.2027116 34.345474,26.9912032 34.345474,26.7437095 Z M16.1052216,22.2124499 C15.8948016,22.0631945 15.8574003,21.7783491 16.0054849,21.565626 L16.0054849,21.565626 C16.1550899,21.3541176 16.4415287,21.3169176 16.653165,21.4673877 L16.653165,21.4673877 C16.8648013,21.6154284 16.9146696,21.9014885 16.7529017,22.1142116 L16.7529017,22.1142116 C16.6668484,22.2373511 16.5287983,22.3119029 16.3804096,22.3119029 L16.3804096,22.3119029 C16.2806729,22.3119029 16.1924911,22.2745511 16.1052216,22.2124499 Z M32.9877785,22.1266622 L32.9877785,22.1266622 C32.8384776,21.9139391 32.8758788,21.6166431 33.0875151,21.4673877 L33.0875151,21.4673877 C33.2991514,21.3169176 33.5855902,21.3665682 33.7476623,21.5780766 L33.7476623,21.5780766 C33.8969632,21.7783491 33.8470949,22.0768598 33.6354585,22.2249005 L33.6354585,22.2249005 C33.5606561,22.2883682 33.4612235,22.3131176 33.3614868,22.3131176 L33.3614868,22.3131176 C33.2243489,22.3131176 33.075048,22.2498017 32.9877785,22.1266622 Z M19.5452238,18.4957936 C19.4080859,18.2842852 19.4704214,17.9857745 19.6823617,17.8489697 L19.6823617,17.8489697 C19.9064651,17.7109502 20.1929039,17.7744179 20.3300418,17.9982251 L20.3300418,17.9982251 C20.4668756,18.2097335 20.4045402,18.4957936 20.1804368,18.6438343 L20.1804368,18.6438343 C20.1056344,18.6824008 20.0186689,18.707302 19.9313993,18.707302 L19.9313993,18.707302 C19.7817943,18.707302 19.6324934,18.6325984 19.5452238,18.4957936 Z M29.5465599,18.6661543 C29.3224565,18.5293495 29.2601211,18.2432894 29.3969549,18.0194822 L29.3969549,18.0194822 C29.5340928,17.8079738 29.8329987,17.7457208 30.044635,17.8825256 L30.044635,17.8825256 C30.2565754,18.0194822 30.3310738,18.3055424 30.19424,18.5293495 L30.19424,18.5293495 C30.0945033,18.6661543 29.9452024,18.7408579 29.7955974,18.7408579 L29.7955974,18.7408579 C29.7083279,18.7408579 29.6213624,18.7159567 29.5465599,18.6661543 Z M24.7750125,17.4759072 C24.5135079,17.4261048 24.3517399,17.1786111 24.4013041,16.9285362 L24.4013041,16.9285362 C24.4499562,16.6798279 24.6877429,16.506886 24.9495516,16.5566884 L24.9495516,16.5566884 C25.1973729,16.6051243 25.3603572,16.8539845 25.3217396,17.1039075 L25.3217396,17.1039075 C25.2718713,17.3266518 25.0727021,17.4759072 24.849815,17.4759072 L24.849815,17.4759072 L24.7750125,17.4759072 Z"/>
        <g stroke="#222F3C" stroke-linejoin="round" stroke-width=".5" transform="translate(19.641 21.969)">
          <path d="M3.38648504 0C3.38648504.788639296 2.6281216 1.42665669 1.69400271 1.42665669.758667521 1.42665669 0 .788639296 0 0M10.6713961 0C10.6713961.788639296 9.91424892 1.42665669 8.97860966 1.42665669 8.04449077 1.42665669 7.28612732.788639296 7.28612732 0"/>
        </g>
      </g>
    </g>
    <line x1="110" x2="272" y1="79.938" y2="79.938" stroke="#222F3C" stroke-linecap="round" stroke-linejoin="round" stroke-width=".5"/>
    <g stroke="#222F3C" stroke-width=".5" transform="translate(53 55)">
      <g transform="translate(24.559)">
        <path d="M18.672247 48.6632994L18.672247 54.9588057 22.1608381 54.9588057 22.5707263 48.6632994 18.672247 48.6632994zM9.0886164 48.6632994L9.49850466 54.9588057 12.9873984 54.9588057 12.9873984 48.6632994 9.0886164 48.6632994zM25.9682314 12.0246022C25.5861937 11.9291562 25.2165677 11.8275084 24.899313 11.7172387 21.7089051 10.6045586 19.802955 8.96397571 18.9450352 7.12130733 17.1952907 9.56735809 13.213865 11.27616 8.5776474 11.27616 7.7542382 11.27616 6.82305926 11.2217058 5.90822742 11.118848 5.65999376 11.9663665 5.52497887 12.8585072 5.52497887 13.7816565 5.52497887 19.2326695 10.1387949 23.6501123 15.8290974 23.6501123 21.5203081 23.6501123 26.1341241 19.2326695 26.1341241 13.7816565 26.1341241 13.1819044 26.0747902 12.5957659 25.9682314 12.0246022z"/>
        <path d="M18.6720145,54.9582018 L22.3542215,54.9582018 C23.2642539,54.9582018 24.0019809,55.6959289 24.0019809,56.6059613 L24.0019809,57 L24.0019809,57 L18.6720145,57 L18.6720145,54.9582018 Z"/>
        <path d="M7.65646562,54.9581038 L12.986432,54.9581038 L12.986432,55.3521425 C12.986432,56.262175 12.2487049,56.999902 11.3386725,56.999902 L7.65646562,56.999902 L7.65646562,56.999902 L7.65646562,54.9581038 Z" transform="rotate(180 10.321 55.979)"/>
        <path d="M15.8138328,44.000831 L15.8138328,48.663015 L23.6468156,48.663015 L23.6468156,37.3376079 L8.01233339,37.3376079 L8.01233339,48.663015 L15.8453161,48.663015 L15.8453161,44.0521087"/>
        <g transform="translate(3.748 13.45)">
          <path d="M1.77698971.332019134C1.77698971.220539361 1.78183329.11026968 1.78576871 0 .784963257.0830425989 0 .88472889 0 1.86369374 0 2.89711274.875477725 3.73600938 1.95438596 3.73600938L2.4057474 3.73600938C1.99888638 2.67400194 1.77698971 1.5277418 1.77698971.332019134zM22.3774819 0C22.3811146.11026968 22.3859582.220539361 22.3859582.332019134 22.3859582 1.5277418 22.1628506 2.67400194 21.7562923 3.73600938L22.2076537 3.73600938C23.2874701 3.73600938 24.1629479 2.89711274 24.1629479 1.86369374 24.1629479.88472889 23.3767737.0830425989 22.3774819 0z"/>
        </g>
        <g transform="translate(9.79 14.547)">
          <path d="M12.0806481 0C12.0806481.610945459 11.5635956 1.10647834 10.9263616 1.10647834 10.2879167 1.10647834 9.7708642.610945459 9.7708642 0M2.30887573 0C2.30887573.610945459 1.79182319 1.10647834 1.1542865 1.10647834.517052543 1.10647834 0 .610945459 0 0"/>
        </g>
        <path d="M13.8748519 19.2611103C13.8748519 20.2945293 14.7503296 21.1322159 15.8292379 21.1322159 16.9090543 21.1322159 17.7833211 20.2945293 17.7833211 19.2611103M27.7858927 28.0800456C26.6552186 25.7566679 24.7380677 23.942588 22.3362557 22.8905638 22.0214228 22.6972515 21.6642085 22.563385 21.2812627 22.5013678 21.1571459 22.4741407 21.0306072 22.4593171 20.9028577 22.4593171 20.8843916 22.4593171 20.8659254 22.4605272 20.8471565 22.4617373L20.803867 22.4593171 20.7405977 22.4593171C19.2811654 23.2188014 17.6083127 23.6500481 15.829204 23.6500481 14.0510034 23.6500481 12.3781507 23.2188014 10.9175075 22.4593171L10.8542382 22.4593171 10.8109487 22.4617373C10.7936934 22.4605272 10.7749245 22.4593171 10.7564584 22.4593171 10.6287089 22.4593171 10.5021702 22.4741407 10.3783561 22.5013678 9.99510759 22.563385 9.6378933 22.6972515 9.32306037 22.8905638 6.92124839 23.942588 5.0044002 25.7566679 3.87342344 28.0800456 3.78169808 28.2683662 3.69723809 28.459107 3.61792441 28.6499991L7.09985553 29.4256684C7.35263004 28.9237826 7.6589867 28.457897 8.01226558 28.032852L8.01226558 37.3461777 23.6470505 37.3461777 23.6470505 28.032852C23.9991185 28.457897 24.3066861 28.9237826 24.5582497 29.4256684L28.0413917 28.6499991C27.9608671 28.459107 27.877618 28.2683662 27.7858927 28.0800456zM15.8290102 0C9.51388546 0 4.38664956 4.85489117 4.2861452 10.8796393 4.2849343 10.9390851 4.28130161 10.9985309 4.28130161 11.0591868 4.28130161 11.9885378 4.40148303 12.8894517 4.62701239 13.7505838 4.89129042 13.5832885 5.20006887 13.4768003 5.53367068 13.4495733 5.56091584 12.6441054 5.68987625 11.8634445 5.90814023 11.1187838 6.82297208 11.2216417 7.75415101 11.2760958 8.57756021 11.2760958 13.2137778 11.2760958 17.1952035 9.56729395 18.9449481 7.12124319 19.8028678 8.96391157 21.7088179 10.6044945 24.8992258 11.7171746 25.2164806 11.8274442 25.5861065 11.9303021 25.9681442 12.0245381 26.0547232 12.4892136 26.1080027 12.9650825 26.1255607 13.4495733 26.4579516 13.4768003 26.7664273 13.5832885 27.0319162 13.7505838 27.1520976 13.2884797 27.2426121 12.8126108 27.3010378 12.3293301 27.3506846 11.9116969 27.3779297 11.4892234 27.3779297 11.0591868 27.3779297 4.95154731 22.2071016 0 15.8290102 0z"/>
        <path d="M25.4275179,34.5904159 C25.6878605,34.4653226 25.9818055,34.3934733 26.2942167,34.3934733 C27.0492102,34.3934733 27.7040022,34.8049048 28.028825,35.4070771 C28.7060185,33.1369435 28.5274114,30.7999524 27.6555663,28.7355345 L24.9489113,29.3390682 C25.7287283,30.936239 25.9370024,32.7887394 25.4275179,34.5904159 Z"/>
        <ellipse cx="26.294" cy="36.266" rx="1.954" ry="1.872"/>
        <path d="M2.82552625,33.8122574 C2.54641475,33.679601 2.06901905,33.6077518 1.77658769,33.6065417 C3.07103539,32.2125151 3.92895513,30.4764862 3.97375828,28.7132301 L6.67799151,29.3290159 C6.49696258,31.5483256 5.56820543,33.7168114 3.90685628,35.4590421 C3.89565549,34.7824491 3.50120616,34.1344446 2.82552625,33.8122574 Z"/>
        <ellipse cx="1.954" cy="35.488" rx="1.954" ry="1.872"/>
      </g>
      <g transform="translate(0 .063)">
        <path d="M21.6818949,11.7160286 C18.4914869,10.6045586 16.5858395,8.96382444 15.7276171,7.12130733 C13.9781752,9.56735809 9.99674956,11.27616 5.35932105,11.27616 C4.58041227,11.27616 3.65044423,11.1422935 2.73288787,10.9737881 C2.45771179,11.8635086 2.3075607,12.8052631 2.3075607,13.7816565 C2.3075607,19.2313082 6.92046857,23.6501123 12.6116792,23.6501123 C18.3031926,23.6501123 22.9170087,19.2313082 22.9170087,13.7816565 C22.9170087,13.1732825 22.8561611,12.5797321 22.7459696,12.0022155 C22.3490985,11.9129712 21.9746289,11.8188865 21.6818949,11.7160286 Z"/>
        <g transform="translate(4.439 48.632)">
          <path d="M11.0153964,6.26268497 L14.6976032,6.26268497 C15.6076356,6.26268497 16.3453627,7.00041206 16.3453627,7.91044453 L16.3453627,8.30448314 L16.3453627,8.30448314 L11.0153964,8.30448314 L11.0153964,6.26268497 Z"/>
          <path d="M0,6.26258696 L5.32996577,6.26258696 L5.32996577,6.65662545 C5.32996577,7.56665799 4.59223863,8.30438513 3.68220609,8.30438513 L0,8.30438513 L0,8.30438513 L0,6.26258696 Z" transform="rotate(180 2.665 7.283)"/>
          <path d="M11.0157814.042130581L11.0157814 6.26276242 14.5043725 6.26276242 14.9094171.042130581 11.0157814.042130581zM1.43339074 0L1.8408572 6.26268255 5.32944825 6.26268255 5.32944825 0 1.43339074 0z"/>
        </g>
        <path d="M4.7948692 37.3140643L4.00506236 48.6119418 21.2188555 48.6119418 20.4293514 37.3140643 4.7948692 37.3140643zM22.7384064 17.1842951L22.285834 17.1842951C21.4179244 19.4470168 19.7105612 21.3217527 17.5230778 22.4593909L17.5863471 22.4593909 17.6299393 22.4618111C17.6484055 22.460601 17.6671744 22.4593909 17.6856406 22.4593909 17.8133901 22.4593909 17.9399287 22.4742145 18.0637428 22.5002315 18.4469913 22.5620975 18.8042056 22.6971741 19.1178277 22.8904864 20.1891678 23.3589434 21.1624254 23.980931 22.0142906 24.7305833 23.3547524 22.2362801 23.9847209 19.2388809 24.2747305 16.4668615 23.9175162 16.9030999 23.3635314 17.1842951 22.7384064 17.1842951zM2.93740577 17.184237L2.48483343 17.184237C1.86001115 17.184237 1.30451267 16.9016804.946087486 16.4643832 1.23761067 19.2362514 1.86848743 22.236222 3.20894917 24.7305252 4.06081443 23.9808729 5.03407199 23.3588853 6.10541213 22.8904283 6.42054778 22.697116 6.77624845 22.5620394 7.16070789 22.5001734 7.28482472 22.4741565 7.41136334 22.4593328 7.53881013 22.4593328 7.55757902 22.4593328 7.57483428 22.4605429 7.59360317 22.461753L7.6368927 22.4593328 7.70016201 22.4593328C5.51298131 21.3216946 3.80531539 19.4469588 2.93740577 17.184237z"/>
        <g transform="translate(.53 13.45)">
          <path d="M1.77668699.332019134C1.77668699.220539361 1.78183329.11026968 1.78546598 0 .784963257.0816812448 0 .88472889 0 1.86354247 0 2.89696148.875477725 3.73464803 1.95408323 3.73464803L2.40544468 3.73464803C1.99888638 2.67400194 1.77668699 1.5277418 1.77668699.332019134zM22.3774819 0C22.3814173.11026968 22.3862609.220539361 22.3862609.332019134 22.3862609 1.5277418 22.1631533 2.67400194 21.7562923 3.73464803L22.2076537 3.73464803C23.2877729 3.73464803 24.161737 2.89696148 24.161737 1.86354247 24.161737.88472889 23.3770764.0816812448 22.3774819 0z"/>
        </g>
        <g transform="translate(6.572 14.547)">
          <path d="M12.0809508 1.10526825C12.0809508.494322793 11.5638983 0 10.9251507 0 10.2879167 0 9.7708642.494322793 9.7708642 1.10526825M2.308573 1.10526825C2.308573.494322793 1.79152046 0 1.1542865 0 .515538923 0 0 .494322793 0 1.10526825"/>
        </g>
        <path d="M10.6574337 19.2598712C10.6574337 20.2945003 11.5329115 21.1321868 12.611517 21.1321868 13.6916361 21.1321868 14.5656002 20.2945003 14.5656002 19.2598712M12.6114249 0C6.32748074 0 1.18541137 4.66399908.7425262 10.5734859.721638246 10.8472693.708015667 11.121204.708015667 11.3999791.708015667 12.2896996.724060038 13.3057235.783393936 14.393748 1.09217239 13.8708367 1.65523897 13.5040274 2.31366361 13.4495733 2.34333056 12.5920715 2.48833534 11.7617967 2.73263359 10.973724L2.73142269 10.973724C3.64897905 11.1422294 4.58015798 11.2760958 5.35906676 11.2760958 9.99649528 11.2760958 13.9779209 9.56729395 15.7273628 7.12124319 16.5855852 8.96376031 18.4912326 10.6044945 21.6816406 11.7159645 21.9743746 11.8188223 22.3488442 11.912907 22.7457153 12.0021514 22.8362298 12.4742387 22.8907201 12.9575194 22.9079754 13.4495733 23.5664 13.5040274 24.1306775 13.8696266 24.4394559 14.3925379 24.4779019 13.6811547 24.4987898 12.9985113 24.5075688 12.363969 24.5127151 12.0293784 24.5151369 11.7059812 24.5151369 11.3999791 24.5151369 5.10386771 19.1856814 0 12.6114249 0zM2.14753953 34.3934733C2.45873978 34.3934733 2.75268475 34.4653226 3.01423826 34.5892058 2.50475382 32.7887394 2.71181702 30.936239 3.49163397 29.3377068L.784676216 28.7355345C-.0856552011 30.7987423-.264262344 33.1369435.411720284 35.405867.737754 34.8047535 1.39103233 34.3934733 2.14753953 34.3934733z"/>
        <ellipse cx="2.147" cy="36.265" rx="1.954" ry="1.872"/>
        <path d="M24.5684745,28.0798943 C23.4374977,25.7565167 21.5194386,23.9412266 19.1176267,22.8904125 C18.8040046,22.6971003 18.4467903,22.5620237 18.0635418,22.5001577 C17.9397277,22.4741407 17.8131891,22.4593171 17.6854395,22.4593171 C17.6669734,22.4593171 17.6482045,22.4605272 17.6297383,22.4617373 L17.5861461,22.4593171 L17.5228768,22.4593171 C16.0634445,23.2188014 14.3896837,23.6500481 12.6114831,23.6500481 C10.8332825,23.6500481 9.16073251,23.2188014 7.70008935,22.4593171 L7.63682004,22.4593171 L7.59353052,22.4617373 C7.57476163,22.4605272 7.55750636,22.4593171 7.53873748,22.4593171 C7.41129068,22.4593171 7.28475206,22.4741407 7.16063524,22.5001577 C6.77617579,22.5620237 6.42047513,22.6971003 6.10533947,22.8904125 C3.70352749,23.9412266 1.7866793,25.7565167 0.656005267,28.0798943 C0.56397718,28.2683662 0.479819916,28.457897 0.400506236,28.6499991 L3.88213463,29.4256684 C4.13400097,28.9237826 4.44156853,28.457897 4.7948474,28.032852 L4.7948474,37.3783965 L20.4293296,37.3783965 L20.4293296,28.032852 C20.7817003,28.457897 21.0889652,28.9237826 21.3408315,29.4256684 L24.8239735,28.6499991 C24.7431462,28.457897 24.6601998,28.2683662 24.5684745,28.0798943 Z"/>
        <path d="M25.6512188,33.8457141 C25.9300276,33.7118476 26.4074233,33.6412084 26.7001574,33.6399984 C25.4057097,32.2459718 24.5474872,30.5099428 24.5029868,28.7466867 L21.7984508,29.3624726 C21.9794798,31.5817822 22.907026,33.750268 24.5698888,35.4924987 C24.5810896,34.8159058 24.9752362,34.1679012 25.6512188,33.8457141 Z"/>
        <ellipse cx="26.522" cy="35.521" rx="1.954" ry="1.872"/>
      </g>
    </g>
    <line x1="35" x2="118" y1="112.938" y2="112.938" stroke="#222F3C" stroke-linecap="round" stroke-linejoin="round" stroke-width=".5"/>
    <g stroke="#222F3C" stroke-linecap="round" stroke-linejoin="round" stroke-width=".5" transform="translate(0 80)">
      <path d="M14.6918417,6.8599529 L14.6918417,9.84214277 C14.6918417,9.875889 14.6957834,9.90841365 14.7018475,9.94093831 L11.8465576,15.2421511 C11.8056248,15.3209432 11.7859164,15.4035528 11.7831876,15.4861623 C10.8866077,15.1809192 9.92787069,15.013257 8.92941367,15.013257 C4.00625952,15.013257 0,19.0473826 0,24.0073156 C0,28.9658743 4.00625952,33 8.92941367,33 C13.8534774,33 17.8588273,28.9658743 17.8588273,24.0073156 C17.8588273,23.8109461 17.8500344,23.6170198 17.8376029,23.4230935 L22.5870201,23.371787 C22.8538413,23.3705654 23.0800329,23.1604531 23.1233913,22.8939953 C23.1270298,22.8677312 23.5754713,20.1758201 25.1876171,17.3475497 C27.3173353,13.6098106 30.3751668,11.4057692 34.273485,10.7977262 M34.3180562,9.62073082 L15.7885375,9.62073082 M36.0705863,14.9195004 C31.1462194,14.9195004 27.1411727,18.9536261 27.1411727,23.9134064 C27.1411727,28.8719651 31.1462194,32.9074651 36.0705863,32.9074651 C40.9934373,32.9074651 45,28.8719651 45,23.9134064 C45,19.4677599 41.7796502,15.766363 37.5644818,15.0483775 C37.5584177,15.0170744 37.5496247,14.9869929 37.5371933,14.9582857 L35.4568976,9.95972015 C35.445679,9.93086024 35.4296091,9.90337462 35.4135392,9.87833217 L35.4135392,2.93210496 C35.4135392,2.72443583 35.2980177,2.53432695 35.1142749,2.44041774 L30.347575,0 M17.6975218,22.2998478 L17.6960058,22.3010693 C17.1496287,19.4540171 15.269449,17.0810918 12.7370733,15.8738623 C12.7643619,15.8427119 12.7892247,15.8075914 12.8104491,15.7688061"/>
      <path d="M0,6.69229061 C0,10.3825406 2.97960435,13.3833596 6.6432412,13.3833596 C10.3068781,13.3833596 13.2861792,10.3825406 13.2861792,6.69229061 C13.2861792,3.0021933 10.3068781,0 6.6432412,0 C2.97960435,0 0,3.0021933 0,6.69229061 Z" transform="translate(29.428 17.221)"/>
      <path d="M6.54864096,13.1908076 C10.1589136,13.1908076 13.0960691,10.2322859 13.0960691,6.59593824 C13.0960691,2.958369 10.1589136,0 6.54864096,0 C2.93715552,0 0,2.958369 0,6.59593824 C0,10.2322859 2.93715552,13.1908076 6.54864096,13.1908076 Z" transform="translate(2.383 17.35)"/>
      <line x2="7.017" transform="translate(11.403 6.087)"/>
      <path d="M0,1.02460287 C0,1.58866889 0.455718463,2.04905304 1.01725578,2.04905304 C1.5784899,2.04905304 2.03420836,1.58866889 2.03420836,1.02460287 C2.03420836,0.459162568 1.5784899,0 1.01725578,0 C0.455718463,0 0,0.459162568 0,1.02460287 Z" transform="translate(35.054 22.884)"/>
      <path d="M1.01725578,2.04905304 C1.57727708,2.04905304 2.03420836,1.58866889 2.03420836,1.02460287 C2.03420836,0.459162568 1.57727708,0 1.01725578,0 C0.455718463,0 0,0.459162568 0,1.02460287 C0,1.58866889 0.455718463,2.04905304 1.01725578,2.04905304 Z" transform="translate(7.912 22.884)"/>
    </g>
    <g stroke="#222F3C" stroke-linecap="round" stroke-linejoin="round" stroke-width=".5" transform="translate(107 80)">
      <path d="M0,10.9426778 C8.51896524,8.63974255 20.5903428,4.99218327 36.2141328,0" transform="translate(0 .034)"/>
      <line x1="51.805" y2="20.664" transform="translate(.963)"/>
      <line x1="59.312" y2="32.997" transform="translate(11.688 .003)"/>
    </g>
    <path fill="#333838" d="M246.851201,2.56337585 C247.084595,2.56337585 247.263073,2.38324673 247.263073,2.20311762 C247.263073,2.02298851 247.125782,1.92599591 246.988492,1.91213982 C246.617807,1.81514722 246.480517,1.64887419 246.480517,1.35789639 C246.480517,0.914501653 246.782556,0.63737994 247.194428,0.41568257 C247.276802,0.387970398 247.345447,0.346402141 247.345447,0.31868997 C247.345447,0.249409542 247.290531,0.249409542 247.221886,0.249409542 C247.002221,0.249409542 246,0.63737994 246,1.60730594 C246,2.10612502 246.329497,2.56337585 246.851201,2.56337585 Z M248.567333,2.56337585 C248.786998,2.56337585 248.992934,2.38324673 248.992934,2.20311762 C248.992934,2.02298851 248.841914,1.92599591 248.718353,1.91213982 C248.347668,1.81514722 248.196648,1.64887419 248.196648,1.35789639 C248.196648,0.928357739 248.512417,0.63737994 248.924288,0.41568257 C249.006663,0.387970398 249.061579,0.346402141 249.061579,0.31868997 C249.061579,0.277121713 249.006663,0.249409542 248.938017,0.249409542 C248.745811,0.249409542 247.702403,0.63737994 247.702403,1.60730594 C247.702403,2.10612502 248.045629,2.56337585 248.567333,2.56337585 Z M258.067838,9.8516769 C258.136483,9.8516769 258.17767,9.76854039 258.273773,9.53298693 C258.90531,8.00881751 260.017363,5.39001732 260.882294,3.4778775 C261.747224,1.51031334 261.994347,1.21933554 262.570967,1.0669186 C262.81809,1.02535034 262.886735,0.969925996 262.886735,0.914501653 C262.886735,0.859077311 262.81809,0.845221225 262.639612,0.845221225 C262.392489,0.845221225 262.021805,0.900645568 261.637391,0.900645568 C261.22552,0.900645568 261.033313,0.845221225 260.676358,0.845221225 C260.484151,0.845221225 260.442964,0.872933396 260.442964,0.928357739 C260.442964,0.983782082 260.525338,1.01149425 260.745003,1.08077468 C261.198062,1.21933554 261.211791,1.45488899 261.143146,1.75972288 C260.854835,2.78507322 259.19362,6.6647772 258.534625,8.10581011 C258.493438,8.18894662 258.46598,8.20280271 258.411064,8.10581011 C257.944276,7.06660368 257.340198,5.75027555 256.996972,4.93276649 C256.969513,4.86348607 256.969513,4.79420564 256.983242,4.76649347 C257.216636,4.33695481 257.88936,2.96520233 258.246315,2.27239805 C258.699374,1.46874508 258.960226,1.17776728 259.468201,1.0669186 C259.660408,1.02535034 259.729053,0.983782082 259.729053,0.914501653 C259.729053,0.859077311 259.660408,0.845221225 259.495659,0.845221225 C259.179891,0.845221225 258.960226,0.900645568 258.479709,0.900645568 C258.122754,0.900645568 257.903089,0.859077311 257.559863,0.859077311 C257.395114,0.859077311 257.31274,0.886789482 257.31274,0.928357739 C257.31274,0.983782082 257.353927,1.03920642 257.60105,1.09463077 C258.191399,1.23319162 258.205128,1.37175248 257.779528,2.38324673 C257.491217,3.06219493 257.202907,3.69957487 256.87341,4.37852307 C256.832223,4.4478035 256.777307,4.43394741 256.763578,4.40623524 C256.310519,3.35317273 255.898647,2.4109589 255.678982,1.82900331 C255.473047,1.31632814 255.610337,1.15005511 255.981022,1.08077468 C256.159499,1.03920642 256.241874,0.997638167 256.241874,0.928357739 C256.241874,0.872933396 256.14577,0.845221225 256.00848,0.845221225 C255.692711,0.845221225 255.376943,0.900645568 254.882697,0.900645568 C254.388451,0.900645568 254.127599,0.845221225 253.729457,0.845221225 C253.550979,0.845221225 253.468605,0.886789482 253.468605,0.928357739 C253.468605,0.997638167 253.53725,1.05306251 253.756915,1.09463077 C254.182516,1.20547945 254.292348,1.37175248 254.690491,2.23082979 C254.99253,2.8959219 255.912376,5.00204692 256.132041,5.52857818 C256.132041,5.55629035 256.132041,5.65328295 256.104583,5.6948512 C255.733899,6.58164069 255.404401,7.27444497 255.019988,8.06424185 C254.978801,8.13352228 254.923885,8.16123445 254.882697,8.06424185 C253.949122,5.985829 252.589945,3.03448276 252.013325,1.59344985 C251.917222,1.34404031 251.917222,1.17776728 252.301635,1.10848685 C252.466384,1.08077468 252.548758,1.03920642 252.548758,0.969925996 C252.548758,0.914501653 252.466384,0.872933396 252.274177,0.872933396 C251.985867,0.872933396 251.65637,0.900645568 251.354331,0.900645568 C250.942459,0.900645568 250.379568,0.845221225 250.050071,0.845221225 C249.871593,0.845221225 249.77549,0.900645568 249.77549,0.942213825 C249.77549,0.997638167 249.899051,1.05306251 250.0638,1.0669186 C250.585504,1.13619902 250.695336,1.38560857 251.189582,2.46638325 C251.834848,3.82427964 252.754694,5.87498032 253.509792,7.6347032 C253.68827,8.05038577 254.11387,9.06188002 254.292348,9.51913085 C254.388451,9.76854039 254.41591,9.8516769 254.498284,9.8516769 C254.5532,9.8516769 254.635574,9.74082822 254.717949,9.51913085 C255.019988,8.71547788 255.747628,7.09431586 256.269332,6.06896552 C256.29679,6.02739726 256.337977,6.02739726 256.365435,6.0828216 C256.763578,6.96961108 257.546134,8.68776571 257.834444,9.53298693 C257.916818,9.7546843 257.971734,9.8516769 258.067838,9.8516769 Z M263.710478,9.74082822 C264.493035,9.74082822 265.069655,9.4637065 265.618817,8.86789482 C265.701191,8.77090222 265.756107,8.68776571 265.756107,8.64619745 C265.756107,8.57691702 265.701191,8.54920485 265.591359,8.66005353 C265.261861,8.9787435 264.84999,9.10344828 264.287099,9.10344828 C263.83404,9.10344828 263.284878,8.95103133 262.914193,8.53534876 C262.557238,8.13352228 262.282657,7.56542277 262.282657,6.8587624 C262.282657,6.470792 262.323844,6.26295072 262.392489,6.09667769 C262.419948,6.05510943 262.488593,5.985829 262.516051,5.985829 L263.25742,5.985829 C263.573188,5.985829 265.357965,6.01354117 265.467797,6.02739726 C265.536443,6.02739726 265.605088,5.94426075 265.605088,5.87498032 C265.605088,5.02975909 264.740157,4.46165958 263.930143,4.46165958 C263.216233,4.46165958 262.584696,4.79420564 262.214012,5.15446386 C261.637391,5.72256338 261.417727,6.54007243 261.417727,7.17745237 C261.417727,7.925681 261.66485,8.59077311 262.076721,9.03416785 C262.488593,9.47756259 263.065213,9.74082822 263.710478,9.74082822 Z M262.570967,5.7918438 C262.543509,5.7918438 262.516051,5.76413163 262.516051,5.73641946 C262.516051,5.62557078 262.639612,5.36230515 262.804361,5.16831995 C263.1064,4.84962998 263.449626,4.65564478 263.806582,4.65564478 C264.12235,4.65564478 264.355744,4.78034955 264.493035,4.91891041 C264.644054,5.08518344 264.685241,5.33459298 264.685241,5.50086601 C264.685241,5.62557078 264.657783,5.77798772 264.355744,5.77798772 L262.570967,5.7918438 Z M275.256612,9.62997953 C275.462548,9.62997953 275.764587,9.58841127 276.094084,9.58841127 C276.409853,9.58841127 276.890369,9.61612345 277.041389,9.61612345 C277.206138,9.61612345 277.274783,9.58841127 277.274783,9.51913085 C277.274783,9.47756259 277.219867,9.43599433 277.02766,9.39442607 C276.725621,9.33900173 276.643247,9.24200913 276.629517,8.78475831 L276.574601,6.78948197 C276.574601,6.2768068 276.505956,5.75027555 276.409853,5.47315383 C276.231375,4.93276649 275.778316,4.46165958 275.023218,4.46165958 C274.336766,4.46165958 273.705229,4.83577389 273.142338,5.39001732 C273.11488,5.40387341 273.059964,5.39001732 273.046235,5.36230515 C272.744195,4.76649347 272.304866,4.47551567 271.673329,4.47551567 C271.08298,4.47551567 270.423985,4.87734215 269.970927,5.29302472 C269.91601,5.33459298 269.902281,5.25145646 269.902281,5.20988821 C269.888552,5.05747126 269.902281,4.69721304 269.902281,4.5447961 C269.902281,4.46165958 269.874823,4.40623524 269.833636,4.40623524 C269.77872,4.40623524 269.710075,4.43394741 269.6277,4.48937175 C269.408036,4.66950087 268.982435,4.83577389 268.694125,4.90505432 C268.584292,4.93276649 268.529376,4.96047866 268.529376,5.00204692 L268.543105,5.00204692 C268.543105,5.07132735 268.570563,5.09903952 268.666667,5.15446386 C268.886332,5.27916863 268.968706,5.40387341 268.982435,5.63942686 C269.009893,5.90269249 268.996164,6.24909463 268.996164,6.7617698 C268.996164,7.56542277 268.996164,8.68776571 268.941248,8.9787435 C268.91379,9.14501653 268.91379,9.29743348 268.488189,9.39442607 C268.295982,9.42213825 268.213608,9.4637065 268.213608,9.51913085 C268.213608,9.57455519 268.337169,9.61612345 268.460731,9.61612345 C268.639209,9.61612345 268.927519,9.58841127 269.353119,9.58841127 C269.682617,9.58841127 270.135675,9.61612345 270.396527,9.61612345 C270.492631,9.61612345 270.602463,9.58841127 270.602463,9.51913085 C270.602463,9.47756259 270.547547,9.43599433 270.396527,9.40828216 C270.06703,9.33900173 269.984656,9.1727287 269.957198,8.95103133 C269.92974,8.70162179 269.874823,7.7316958 269.874823,6.70634546 C269.874823,6.23523855 269.91601,5.91654858 269.92974,5.76413163 C269.943469,5.66713903 269.970927,5.52857818 270.094488,5.41772949 C270.300424,5.22374429 270.64365,4.98819084 271.124167,4.98819084 C271.549768,4.98819084 271.769433,5.11289561 271.961639,5.30688081 C272.23622,5.61171469 272.304866,5.93040466 272.304866,6.69248937 L272.291137,8.93717525 C272.291137,9.2697213 272.153846,9.33900173 271.865536,9.39442607 C271.687058,9.43599433 271.618413,9.49141867 271.618413,9.53298693 C271.618413,9.58841127 271.687058,9.61612345 271.838078,9.61612345 C271.989098,9.61612345 272.318595,9.58841127 272.620634,9.58841127 C273.018776,9.58841127 273.430648,9.61612345 273.677771,9.61612345 C273.828791,9.61612345 273.911165,9.58841127 273.911165,9.53298693 C273.911165,9.47756259 273.84252,9.4637065 273.6915,9.40828216 C273.348274,9.32514565 273.307087,9.22815305 273.265899,8.84018265 C273.238441,8.46606834 273.197254,6.34608723 273.169796,5.95811683 C273.169796,5.70870729 273.210983,5.55629035 273.265899,5.50086601 C273.499293,5.26531255 273.924894,4.98819084 274.432869,4.98819084 C275.105593,4.98819084 275.462548,5.33459298 275.586109,6.04125335 C275.641026,6.45693592 275.709671,7.12202803 275.682213,8.78475831 C275.682213,9.20044088 275.613568,9.32514565 275.215425,9.40828216 C275.105593,9.43599433 274.982031,9.47756259 274.982031,9.54684302 C274.982031,9.60226736 275.078134,9.62997953 275.256612,9.62997953 Z M278.990915,3.13147536 C279.169392,3.13147536 279.49889,2.97905842 279.49889,2.6049441 C279.49889,2.36939065 279.334141,2.07841285 279.018373,2.07841285 C278.798708,2.07841285 278.537856,2.27239805 278.537856,2.61880019 C278.537856,2.8959219 278.743792,3.13147536 278.990915,3.13147536 Z M279.746013,9.64383562 C279.855845,9.64383562 279.965677,9.61612345 279.965677,9.54684302 C279.965677,9.49141867 279.897032,9.4637065 279.759742,9.43599433 C279.540077,9.38056999 279.402786,9.31128956 279.375328,9.03416785 C279.34787,8.79861439 279.34787,7.77326405 279.34787,6.60935286 C279.34787,5.72256338 279.34787,4.87734215 279.375328,4.60022044 C279.389057,4.4478035 279.361599,4.40623524 279.320412,4.40623524 C279.292954,4.40623524 279.224308,4.43394741 279.114476,4.50322784 C278.826166,4.62793261 278.496669,4.76649347 278.125984,4.86348607 C278.002423,4.89119824 277.961236,4.93276649 277.961236,4.97433475 C277.961236,5.00204692 278.002423,5.04361518 278.071068,5.08518344 C278.455482,5.29302472 278.469211,5.37616123 278.469211,5.57014643 C278.469211,5.70870729 278.441752,8.23051488 278.428023,8.64619745 C278.414294,9.21429696 278.290733,9.32514565 277.988694,9.40828216 C277.796487,9.43599433 277.727842,9.47756259 277.727842,9.53298693 C277.727842,9.58841127 277.823945,9.61612345 277.920048,9.61612345 C278.071068,9.61612345 278.290733,9.58841127 278.743792,9.58841127 C279.114476,9.58841127 279.622451,9.64383562 279.746013,9.64383562 Z M281.915203,9.7546843 C282.2447,9.7546843 282.711488,9.64383562 283.013527,9.44985042 C283.288108,9.2697213 283.727438,8.89560699 283.727438,8.28593922 C283.727438,7.57927885 283.370483,7.23287671 282.478094,6.65092111 C282.134868,6.44307983 281.613164,6.11053377 281.613164,5.52857818 C281.613164,4.97433475 281.997577,4.66950087 282.436907,4.66950087 C282.697759,4.66950087 282.931153,4.76649347 283.082172,4.87734215 C283.288108,5.04361518 283.343024,5.23760038 283.41167,5.44544166 C283.452857,5.54243426 283.480315,5.61171469 283.535231,5.61171469 C283.576418,5.61171469 283.603876,5.54243426 283.603876,5.39001732 C283.590147,5.16831995 283.535231,4.89119824 283.521502,4.73878129 C283.521502,4.69721304 283.480315,4.64178869 283.452857,4.61407652 C283.288108,4.55865218 282.889966,4.46165958 282.519281,4.46165958 C281.997577,4.46165958 281.613164,4.64178869 281.366041,4.84962998 C281.064002,5.07132735 280.844337,5.44544166 280.844337,5.94426075 C280.844337,6.55392852 281.393499,7.06660368 281.983848,7.45457408 C282.53301,7.80097622 282.889966,8.09195402 282.889966,8.61848528 C282.889966,9.18658479 282.381991,9.54684302 281.997577,9.54684302 C281.791641,9.54684302 281.585706,9.51913085 281.37977,9.38056999 C281.132647,9.22815305 280.912982,8.9787435 280.80315,8.63234136 C280.707046,8.36907574 280.665859,8.36907574 280.624672,8.36907574 C280.597214,8.36907574 280.556027,8.41064399 280.583485,8.59077311 C280.597214,8.74319005 280.624672,9.08959219 280.624672,9.28357739 C280.624672,9.3667139 280.720775,9.4637065 280.830608,9.50527476 C281.242479,9.67154779 281.558248,9.7546843 281.915203,9.7546843 Z M285.814254,9.7546843 C286.143751,9.7546843 286.610539,9.64383562 286.912578,9.44985042 C287.187159,9.2697213 287.626489,8.89560699 287.626489,8.28593922 C287.626489,7.57927885 287.269534,7.23287671 286.377145,6.65092111 C286.033919,6.44307983 285.512215,6.11053377 285.512215,5.52857818 C285.512215,4.97433475 285.896628,4.66950087 286.335958,4.66950087 C286.59681,4.66950087 286.830204,4.76649347 286.981224,4.87734215 C287.187159,5.04361518 287.242076,5.23760038 287.310721,5.44544166 C287.351908,5.54243426 287.379366,5.61171469 287.434282,5.61171469 C287.475469,5.61171469 287.502928,5.54243426 287.502928,5.39001732 C287.489198,5.16831995 287.434282,4.89119824 287.420553,4.73878129 C287.420553,4.69721304 287.379366,4.64178869 287.351908,4.61407652 C287.187159,4.55865218 286.789017,4.46165958 286.418332,4.46165958 C285.896628,4.46165958 285.512215,4.64178869 285.265092,4.84962998 C284.963053,5.07132735 284.743388,5.44544166 284.743388,5.94426075 C284.743388,6.55392852 285.29255,7.06660368 285.882899,7.45457408 C286.432061,7.80097622 286.789017,8.09195402 286.789017,8.61848528 C286.789017,9.18658479 286.281042,9.54684302 285.896628,9.54684302 C285.690693,9.54684302 285.484757,9.51913085 285.278821,9.38056999 C285.031698,9.22815305 284.812033,8.9787435 284.702201,8.63234136 C284.606097,8.36907574 284.56491,8.36907574 284.523723,8.36907574 C284.496265,8.36907574 284.455078,8.41064399 284.482536,8.59077311 C284.496265,8.74319005 284.523723,9.08959219 284.523723,9.28357739 C284.523723,9.3667139 284.619826,9.4637065 284.729659,9.50527476 C285.14153,9.67154779 285.457299,9.7546843 285.814254,9.7546843 Z M292.321825,9.71311604 C292.706239,9.71311604 293.131839,9.58841127 293.433878,9.35285782 C293.612356,9.21429696 293.735918,9.0757361 293.735918,8.99259959 C293.735918,8.93717525 293.69473,8.92331916 293.598627,8.99259959 C293.475066,9.0757361 293.227943,9.20044088 292.843529,9.20044088 C292.486574,9.20044088 292.198264,9.08959219 291.992328,8.82632656 C291.896225,8.68776571 291.868766,8.52149268 291.841308,8.07809794 C291.827579,7.64855928 291.81385,5.47315383 291.81385,5.23760038 C291.81385,5.15446386 291.841308,5.11289561 292.006057,5.11289561 C292.376741,5.11289561 293.049465,5.12675169 293.529982,5.12675169 C293.598627,5.12675169 293.667272,5.01590301 293.667272,4.78034955 C293.667272,4.68335695 293.612356,4.58636435 293.584898,4.58636435 C293.296588,4.58636435 292.157077,4.62793261 291.909954,4.62793261 C291.855037,4.62793261 291.841308,4.5447961 291.841308,4.50322784 C291.827579,4.33695481 291.855037,3.94898441 291.855037,3.82427964 C291.855037,3.75499921 291.758934,3.72728704 291.635373,3.8658479 C291.305875,4.29538655 290.852816,4.66950087 290.50959,4.79420564 C290.358571,4.86348607 290.344842,4.90505432 290.344842,4.93276649 C290.344842,4.98819084 290.413487,5.02975909 290.523319,5.05747126 C290.646881,5.08518344 290.7979,5.11289561 290.852816,5.14060778 C290.907733,5.16831995 290.921462,5.26531255 290.921462,5.41772949 L290.921462,8.28593922 C290.921462,8.61848528 290.976378,8.89560699 291.08621,9.0757361 C291.319604,9.51913085 291.745205,9.71311604 292.321825,9.71311604 Z M299.419746,9.6576917 C299.543307,9.6576917 299.63941,9.61612345 299.63941,9.5606991 C299.63941,9.50527476 299.598223,9.47756259 299.419746,9.43599433 C299.007874,9.3667139 298.952958,9.2697213 298.952958,8.99259959 C298.939229,8.46606834 298.939229,7.60699103 298.9255,6.5677846 C298.911771,5.6948512 298.760751,5.26531255 298.623461,5.08518344 C298.293963,4.61407652 297.813446,4.46165958 297.387846,4.46165958 C297.017161,4.46165958 296.660206,4.57250827 296.426812,4.69721304 C296.152231,4.83577389 295.767817,5.11289561 295.603069,5.26531255 C295.58934,5.29302472 295.548153,5.27916863 295.548153,5.22374429 C295.534424,4.96047866 295.58934,0.665092111 295.603069,0.290977799 C295.616798,0.0969925996 295.575611,0 295.534424,0 C295.506965,0 295.465778,0.0138560857 295.397133,0.0554243426 C295.136281,0.193985199 294.820513,0.263265627 294.394912,0.387970398 C294.243893,0.429538655 294.161518,0.471106912 294.161518,0.512675169 C294.161518,0.554243426 294.202705,0.581955598 294.257622,0.623523855 C294.559661,0.789796882 294.655764,0.831365139 294.669493,1.27475988 C294.696951,1.80129114 294.669493,2.64651236 294.669493,4.73878129 C294.669493,6.94189891 294.655764,8.21665879 294.614577,8.77090222 C294.600848,9.29743348 294.504745,9.33900173 294.106602,9.43599433 C293.941853,9.47756259 293.886937,9.50527476 293.886937,9.5606991 C293.886937,9.61612345 293.955582,9.64383562 294.106602,9.64383562 C294.367454,9.64383562 294.57339,9.58841127 294.998991,9.58841127 C295.397133,9.58841127 295.754088,9.64383562 296.138502,9.64383562 C296.262063,9.64383562 296.344438,9.60226736 296.344438,9.5606991 C296.344438,9.49141867 296.248334,9.4637065 296.042399,9.42213825 C295.740359,9.3667139 295.644256,9.20044088 295.603069,8.95103133 C295.575611,8.71547788 295.520695,8.05038577 295.534424,5.97197292 C295.534424,5.68099512 295.603069,5.51472209 295.671714,5.45929775 C295.891379,5.22374429 296.303251,4.94662258 296.879871,4.94662258 C297.346659,4.94662258 297.648698,5.15446386 297.827175,5.45929775 C297.991924,5.76413163 298.033111,6.15210203 298.033111,6.49850417 C298.033111,7.93953708 298.005653,8.54920485 297.978195,8.86789482 C297.923279,9.2697213 297.895821,9.3667139 297.525136,9.44985042 C297.387846,9.47756259 297.3192,9.50527476 297.3192,9.5606991 C297.3192,9.60226736 297.374117,9.64383562 297.538865,9.64383562 C297.854634,9.64383562 297.964466,9.58841127 298.431254,9.58841127 C298.801938,9.58841127 299.06279,9.6576917 299.419746,9.6576917 Z M302.54997,9.74082822 C303.332526,9.74082822 303.909146,9.4637065 304.458308,8.86789482 C304.540682,8.77090222 304.595599,8.68776571 304.595599,8.64619745 C304.595599,8.57691702 304.540682,8.54920485 304.43085,8.66005353 C304.101353,8.9787435 303.689481,9.10344828 303.12659,9.10344828 C302.673531,9.10344828 302.124369,8.95103133 301.753685,8.53534876 C301.396729,8.13352228 301.122148,7.56542277 301.122148,6.8587624 C301.122148,6.470792 301.163335,6.26295072 301.231981,6.09667769 C301.259439,6.05510943 301.328084,5.985829 301.355542,5.985829 L302.096911,5.985829 C302.412679,5.985829 304.197456,6.01354117 304.307289,6.02739726 C304.375934,6.02739726 304.444579,5.94426075 304.444579,5.87498032 C304.444579,5.02975909 303.579649,4.46165958 302.769635,4.46165958 C302.055724,4.46165958 301.424187,4.79420564 301.053503,5.15446386 C300.476883,5.72256338 300.257218,6.54007243 300.257218,7.17745237 C300.257218,7.925681 300.504341,8.59077311 300.916212,9.03416785 C301.328084,9.47756259 301.904704,9.74082822 302.54997,9.74082822 Z M301.410458,5.7918438 C301.383,5.7918438 301.355542,5.76413163 301.355542,5.73641946 C301.355542,5.62557078 301.479104,5.36230515 301.643852,5.16831995 C301.945891,4.84962998 302.289118,4.65564478 302.646073,4.65564478 C302.961841,4.65564478 303.195235,4.78034955 303.332526,4.91891041 C303.483545,5.08518344 303.524732,5.33459298 303.524732,5.50086601 C303.524732,5.62557078 303.497274,5.77798772 303.195235,5.77798772 L301.410458,5.7918438 Z M311.981829,9.62997953 C312.187765,9.62997953 312.489804,9.58841127 312.819301,9.58841127 C313.13507,9.58841127 313.615587,9.61612345 313.766606,9.61612345 C313.931355,9.61612345 314,9.58841127 314,9.51913085 C314,9.47756259 313.945084,9.43599433 313.752877,9.39442607 C313.450838,9.33900173 313.368464,9.24200913 313.354735,8.78475831 L313.299818,6.78948197 C313.299818,6.2768068 313.231173,5.75027555 313.13507,5.47315383 C312.956592,4.93276649 312.503533,4.46165958 311.748435,4.46165958 C311.061983,4.46165958 310.430446,4.83577389 309.867555,5.39001732 C309.840097,5.40387341 309.785181,5.39001732 309.771452,5.36230515 C309.469412,4.76649347 309.030083,4.47551567 308.398546,4.47551567 C307.808197,4.47551567 307.149203,4.87734215 306.696144,5.29302472 C306.641228,5.33459298 306.627498,5.25145646 306.627498,5.20988821 C306.613769,5.05747126 306.627498,4.69721304 306.627498,4.5447961 C306.627498,4.46165958 306.60004,4.40623524 306.558853,4.40623524 C306.503937,4.40623524 306.435292,4.43394741 306.352917,4.48937175 C306.133253,4.66950087 305.707652,4.83577389 305.419342,4.90505432 C305.309509,4.93276649 305.254593,4.96047866 305.254593,5.00204692 L305.268322,5.00204692 C305.268322,5.07132735 305.29578,5.09903952 305.391884,5.15446386 C305.611549,5.27916863 305.693923,5.40387341 305.707652,5.63942686 C305.73511,5.90269249 305.721381,6.24909463 305.721381,6.7617698 C305.721381,7.56542277 305.721381,8.68776571 305.666465,8.9787435 C305.639007,9.14501653 305.639007,9.29743348 305.213406,9.39442607 C305.021199,9.42213825 304.938825,9.4637065 304.938825,9.51913085 C304.938825,9.57455519 305.062386,9.61612345 305.185948,9.61612345 C305.364426,9.61612345 305.652736,9.58841127 306.078336,9.58841127 C306.407834,9.58841127 306.860892,9.61612345 307.121744,9.61612345 C307.217848,9.61612345 307.32768,9.58841127 307.32768,9.51913085 C307.32768,9.47756259 307.272764,9.43599433 307.121744,9.40828216 C306.792247,9.33900173 306.709873,9.1727287 306.682415,8.95103133 C306.654957,8.70162179 306.60004,7.7316958 306.60004,6.70634546 C306.60004,6.23523855 306.641228,5.91654858 306.654957,5.76413163 C306.668686,5.66713903 306.696144,5.52857818 306.819705,5.41772949 C307.025641,5.22374429 307.368867,4.98819084 307.849384,4.98819084 C308.274985,4.98819084 308.49465,5.11289561 308.686856,5.30688081 C308.961438,5.61171469 309.030083,5.93040466 309.030083,6.69248937 L309.016354,8.93717525 C309.016354,9.2697213 308.879063,9.33900173 308.590753,9.39442607 C308.412275,9.43599433 308.34363,9.49141867 308.34363,9.53298693 C308.34363,9.58841127 308.412275,9.61612345 308.563295,9.61612345 C308.714315,9.61612345 309.043812,9.58841127 309.345851,9.58841127 C309.743994,9.58841127 310.155865,9.61612345 310.402988,9.61612345 C310.554008,9.61612345 310.636382,9.58841127 310.636382,9.53298693 C310.636382,9.47756259 310.567737,9.4637065 310.416717,9.40828216 C310.073491,9.32514565 310.032304,9.22815305 309.991116,8.84018265 C309.963658,8.46606834 309.922471,6.34608723 309.895013,5.95811683 C309.895013,5.70870729 309.9362,5.55629035 309.991116,5.50086601 C310.22451,5.26531255 310.650111,4.98819084 311.158086,4.98819084 C311.83081,4.98819084 312.187765,5.33459298 312.311326,6.04125335 C312.366243,6.45693592 312.434888,7.12202803 312.40743,8.78475831 C312.40743,9.20044088 312.338785,9.32514565 311.940642,9.40828216 C311.83081,9.43599433 311.707248,9.47756259 311.707248,9.54684302 C311.707248,9.60226736 311.803352,9.62997953 311.981829,9.62997953 Z M256.14577,24.8427019 C256.543913,24.6487167 257.395114,24.4824437 257.559863,24.4685876 C257.697153,24.4408755 257.820715,24.4131633 257.820715,24.3577389 C257.820715,24.2884585 257.752069,24.205322 257.655966,24.205322 C257.573592,24.205322 257.230365,24.2884585 257.093075,24.3300268 C256.983242,24.3438829 256.942055,24.3161707 256.914597,24.1776098 C256.892631,24.0556763 256.888237,23.8894032 256.887359,23.6575078 L256.887139,23.4709495 C256.887139,21.8636435 256.914597,20.478035 256.983242,19.8267989 C256.996972,19.7298063 256.969513,19.674382 256.928326,19.674382 C256.777307,19.674382 256.557642,19.7575185 255.981022,19.7575185 L255.404401,19.7575185 C255.322027,19.7575185 255.198466,19.7852307 255.198466,19.840655 C255.198466,19.8822233 255.267111,19.9237915 255.41813,19.9515037 C255.871189,20.0484963 256.00848,20.1177767 256.022209,20.5888836 C256.022209,20.9491419 256.035938,21.6003779 256.035938,21.8082192 L256.03418,22.413453 C256.031545,22.7127444 256.024955,22.9970713 256.00848,23.2215399 C255.994751,23.5263738 255.912376,23.720359 255.761357,23.8589199 C255.404401,24.1914659 255.074904,24.3023146 254.594387,24.3023146 C254.306077,24.3023146 254.004038,24.1776098 253.82556,23.9559125 C253.743186,23.8450638 253.633354,23.6233664 253.619624,23.0414108 C253.605895,22.4040309 253.619624,20.5196032 253.660812,19.7298063 C253.674541,19.6466698 253.633354,19.5635333 253.592166,19.5773894 C253.386231,19.6328137 252.891985,19.7575185 252.438926,19.7575185 C252.287906,19.7575185 252.219261,19.7852307 252.219261,19.8267989 C252.219261,19.8683672 252.260448,19.9099354 252.38401,19.993072 C252.535029,20.0900646 252.67232,20.2009132 252.686049,20.4503228 C252.713507,20.6858762 252.713507,23.0275547 252.713507,23.4848055 C252.727236,23.7480712 252.782152,24.1083294 252.974359,24.3300268 C253.276398,24.7179972 253.647083,24.8288459 254.168787,24.8288459 C254.40218,24.8288459 254.717949,24.7318533 254.978801,24.6210046 C255.225924,24.524012 255.624066,24.2191781 255.926105,23.9420564 C255.953563,23.9004881 255.967293,23.9974807 255.967293,24.039049 C255.967293,24.1360416 255.953563,24.4408755 255.953563,24.5794363 C255.953563,24.7318533 255.953563,24.8011337 255.981022,24.8427019 C256.00848,24.8842702 256.035938,24.8981263 256.14577,24.8427019 Z M258.04038,28.6669816 C258.205128,28.6669816 258.644458,28.569989 259.097517,28.569989 C259.591763,28.569989 260.072279,28.6254133 260.278215,28.6254133 C260.456693,28.6254133 260.552796,28.5838451 260.552796,28.5284207 C260.552796,28.4729964 260.484151,28.4452842 260.36059,28.403716 C259.989905,28.3482916 259.756511,28.2790112 259.674137,28.0157456 C259.619221,27.8356164 259.591763,27.5723508 259.578034,26.9072587 C259.550575,26.2837348 259.550575,25.0782554 259.591763,24.856558 C259.605492,24.8011337 259.660408,24.7179972 259.715324,24.7318533 C259.852615,24.7872776 260.264486,24.8427019 260.511609,24.8427019 C260.896023,24.8427019 261.22552,24.7595654 261.500101,24.6348607 C262.419948,24.2468903 263.339794,23.4293812 263.339794,21.8774996 C263.339794,21.3371123 263.188774,20.7413006 262.776903,20.2701937 C262.461135,19.9099354 261.911973,19.5912455 261.335352,19.5912455 C260.731274,19.5912455 260.278215,19.7852307 259.660408,20.2286254 C259.619221,20.2701937 259.591763,20.2147693 259.591763,20.1870572 C259.591763,20.0623524 259.619221,19.6605259 259.619221,19.5912455 C259.619221,19.508109 259.591763,19.4665407 259.564304,19.4665407 C259.509388,19.4665407 259.454472,19.4942529 259.358369,19.5635333 C259.056329,19.7713746 258.46598,19.993072 258.342419,20.0484963 C258.232586,20.0762085 258.163941,20.1177767 258.163941,20.1732011 C258.163941,20.2147693 258.218857,20.2563376 258.301232,20.2979058 C258.617,20.478035 258.617,20.5611715 258.644458,21.129271 C258.658187,21.4895292 258.685645,24.4962998 258.685645,25.9096205 C258.685645,26.9765391 258.658187,27.5723508 258.644458,27.8079043 C258.617,28.1404503 258.534625,28.3067234 258.054109,28.4452842 C257.848173,28.4868525 257.793257,28.5284207 257.793257,28.5838451 C257.793257,28.6254133 257.875631,28.6669816 258.04038,28.6669816 Z M261.019584,24.524012 C260.566525,24.524012 259.948718,24.3300268 259.687866,23.8450638 C259.619221,23.6926468 259.591763,23.6095103 259.578034,23.4986616 C259.550575,23.2076838 259.536846,21.0184223 259.578034,20.6720202 C259.591763,20.478035 259.63295,20.4364667 259.729053,20.3671863 C260.003634,20.1732011 260.374319,20.0900646 260.731274,20.0900646 C261.22552,20.0900646 261.555017,20.2840498 261.788411,20.5057471 C262.200283,20.8798614 262.447406,21.6003779 262.447406,22.2793261 C262.447406,23.3046764 262.049263,23.9697685 261.678579,24.2746024 C261.445185,24.4685876 261.211791,24.524012 261.019584,24.524012 Z M268.090046,24.8288459 C268.47446,24.8288459 268.900061,24.7041411 269.2021,24.4685876 C269.380577,24.3300268 269.504139,24.1914659 269.504139,24.1083294 C269.504139,24.0529051 269.462952,24.039049 269.366848,24.1083294 C269.243287,24.1914659 268.996164,24.3161707 268.61175,24.3161707 C268.254795,24.3161707 267.966485,24.205322 267.760549,23.9420564 C267.664446,23.8034955 267.636988,23.6372225 267.60953,23.1938277 C267.595801,22.7642891 267.582071,20.5888836 267.582071,20.3533302 C267.582071,20.2701937 267.60953,20.2286254 267.774278,20.2286254 C268.144963,20.2286254 268.817686,20.2424815 269.298203,20.2424815 C269.366848,20.2424815 269.435494,20.1316328 269.435494,19.8960794 C269.435494,19.7990868 269.380577,19.7020942 269.353119,19.7020942 C269.064809,19.7020942 267.925298,19.7436624 267.678175,19.7436624 C267.623259,19.7436624 267.60953,19.6605259 267.60953,19.6189576 C267.595801,19.4526846 267.623259,19.0647142 267.623259,18.9400094 C267.623259,18.870729 267.527155,18.8430168 267.403594,18.9815777 C267.074097,19.4111164 266.621038,19.7852307 266.277811,19.9099354 C266.126792,19.9792159 266.113063,20.0207841 266.113063,20.0484963 C266.113063,20.1039206 266.181708,20.1454889 266.29154,20.1732011 C266.415102,20.2009132 266.566122,20.2286254 266.621038,20.2563376 C266.675954,20.2840498 266.689683,20.3810424 266.689683,20.5334593 L266.689683,23.401669 C266.689683,23.7342151 266.744599,24.0113368 266.854432,24.1914659 C267.087826,24.6348607 267.513426,24.8288459 268.090046,24.8288459 Z M272.483343,24.8704141 C272.977589,24.8704141 273.609126,24.6764289 274.034726,24.3438829 C274.474056,23.9974807 275.091864,23.2492521 275.091864,22.1961896 C275.091864,20.7274445 273.952352,19.5773894 272.455885,19.5773894 C271.796891,19.5773894 271.179083,19.8683672 270.808399,20.159345 C270.300424,20.5750276 269.819907,21.2539758 269.819907,22.3070383 C269.819907,23.7480712 271.069251,24.8704141 272.483343,24.8704141 Z M272.67555,24.6348607 C272.24995,24.6348607 271.755704,24.4131633 271.385019,23.9004881 C270.945689,23.3185325 270.808399,22.58416 270.808399,22.0022044 C270.808399,20.5611715 271.549768,19.8129428 272.24995,19.8129428 C273.458106,19.8129428 274.117101,21.1154149 274.117101,22.431743 C274.117101,23.4293812 273.746416,24.0944733 273.540481,24.2884585 C273.320816,24.4824437 273.005047,24.6348607 272.67555,24.6348607 Z M279.224308,25.3692332 C279.746013,25.3692332 280.418736,25.1336797 280.912982,24.8704141 C282.436907,24.0529051 283.082172,22.8335695 283.082172,21.8497874 C283.082172,21.1708392 282.876237,20.7274445 282.53301,20.3810424 C282.162326,20.006928 281.571977,19.8267989 281.132647,19.8129428 L280.981627,19.8129428 C280.94044,19.8129428 280.926711,19.7713746 280.954169,19.7436624 C281.750454,19.2725555 282.313345,18.7321682 282.313345,17.9146591 C282.313345,17.2634231 281.764183,16.4182019 280.597214,16.4182019 C279.759742,16.4182019 278.894811,16.9724453 278.455482,17.7760983 C278.386836,17.8869469 278.400565,17.9700835 278.469211,17.9700835 C278.48294,17.9700835 278.524127,17.9562274 278.661417,17.8038104 C279.004644,17.3742718 279.443973,17.1664305 279.855845,17.1664305 C280.556027,17.1664305 281.050273,17.6929617 281.050273,18.6074634 C281.050273,19.3834042 280.679588,19.7990868 280.048052,20.1870572 C279.773471,20.3671863 279.622451,20.4364667 279.443973,20.5334593 C279.361599,20.5750276 279.320412,20.6581641 279.320412,20.7274445 C279.320412,20.7967249 279.416515,20.7690128 279.553806,20.7274445 C279.704825,20.6720202 279.979406,20.6165958 280.130426,20.6165958 C280.50111,20.6165958 280.80315,20.7274445 281.173834,21.0738466 C281.489602,21.3648244 281.791641,21.9883483 281.791641,22.7365769 C281.791641,23.6233664 281.37977,24.2468903 281.036544,24.524012 C280.789421,24.7318533 280.459923,24.8704141 280.034323,24.8704141 C279.320412,24.8704141 278.798708,24.4685876 278.62023,24.3161707 C278.579043,24.2746024 278.48294,24.2746024 278.441752,24.3023146 C278.208359,24.4547315 278.057339,24.6625728 278.057339,24.7318533 C278.057339,25.1198236 278.730063,25.3692332 279.224308,25.3692332 Z M291.305875,24.7734215 C291.38825,24.7734215 291.539269,24.7457093 291.539269,24.6764289 C291.539269,24.6071485 291.484353,24.5794363 291.305875,24.5378681 C290.935191,24.4685876 290.894004,24.3023146 290.894004,24.0667611 L290.866546,21.5865218 C290.852816,20.7967249 290.715526,20.3671863 290.523319,20.1316328 C290.207551,19.7159502 289.768221,19.5358211 289.232788,19.5358211 C288.944478,19.5358211 288.587523,19.6328137 288.395316,19.7436624 C288.175651,19.840655 287.846154,20.0623524 287.653947,20.2286254 C287.626489,20.2563376 287.585302,20.2147693 287.585302,20.1870572 C287.571573,19.9792159 287.653947,15.7392537 287.653947,15.5314124 C287.653947,15.309715 287.61276,15.2681467 287.571573,15.2681467 C287.544115,15.2681467 287.502928,15.2820028 287.393095,15.3235711 C286.981224,15.5175563 286.418332,15.6422611 285.979003,15.7669658 C285.827983,15.8085341 285.745609,15.8501023 285.745609,15.9055267 C285.745609,15.9470949 285.786796,15.9886632 285.841712,16.0302315 C286.184938,16.1965045 286.226126,16.2242167 286.253584,16.6676114 C286.281042,17.1248622 286.267313,18.1225004 286.267313,20.2009132 L286.266669,20.8850033 C286.263666,22.4152889 286.250151,23.4761455 286.226126,23.9004881 C286.212397,24.3438829 286.15748,24.4408755 285.773067,24.524012 C285.608318,24.5655802 285.553402,24.6071485 285.553402,24.6625728 C285.553402,24.7179972 285.649505,24.7595654 285.800525,24.7595654 C286.130022,24.7595654 286.3085,24.7041411 286.898849,24.7041411 C287.132243,24.7041411 287.681405,24.7734215 288.079548,24.7734215 C288.244296,24.7734215 288.326671,24.7041411 288.326671,24.6625728 C288.326671,24.6071485 288.230567,24.5655802 288.079548,24.5378681 C287.75005,24.4685876 287.681405,24.2884585 287.640218,24.0251929 C287.599031,23.554086 287.557844,22.1269091 287.571573,20.7828688 C287.571573,20.6165958 287.640218,20.478035 287.708863,20.4226106 C287.873612,20.2701937 288.175651,20.1039206 288.532607,20.1039206 C288.889562,20.1039206 289.177872,20.2286254 289.370079,20.5611715 C289.507369,20.810581 289.548556,21.3232562 289.548556,21.6835144 C289.548556,22.8197134 289.521098,23.5402299 289.49364,23.8589199 C289.452453,24.3161707 289.438724,24.4408755 289.040581,24.5517241 C288.903291,24.5794363 288.834646,24.6071485 288.834646,24.6625728 C288.834646,24.7041411 288.889562,24.7595654 289.054311,24.7595654 C289.479911,24.7595654 289.507369,24.7041411 290.193822,24.7041411 C290.729255,24.7041411 290.894004,24.7734215 291.305875,24.7734215 Z M294.889158,24.8704141 C295.397133,24.8704141 296.069857,24.690285 296.536644,24.3300268 C296.962245,23.9974807 297.607511,23.2631082 297.607511,22.1546213 C297.607511,20.7135884 296.495457,19.5358211 294.8617,19.5358211 C294.298809,19.5358211 293.667272,19.7159502 293.104381,20.1732011 C292.678781,20.5057471 292.129618,21.1708392 292.129618,22.2239017 C292.129618,23.7065029 293.324046,24.8704141 294.889158,24.8704141 Z M295.053907,24.6487167 C294.683222,24.6487167 294.298809,24.371595 294.010499,23.886632 C293.667272,23.2908203 293.584898,22.5148795 293.584898,21.8497874 C293.584898,20.644308 294.147789,19.7713746 294.738139,19.7713746 C295.699172,19.7713746 296.138502,20.8660054 296.138502,22.4455991 C296.138502,23.4709495 295.850192,24.1360416 295.685443,24.3300268 C295.534424,24.524012 295.30103,24.6487167 295.053907,24.6487167 Z M302.165556,24.8704141 C302.563699,24.6764289 303.689481,24.4824437 303.840501,24.4685876 C303.977791,24.4408755 304.14254,24.4131633 304.14254,24.3438829 C304.14254,24.2746024 304.073895,24.1637537 303.964062,24.1637537 C303.840501,24.1776098 303.634565,24.2330342 303.497274,24.2607463 C303.4149,24.2746024 303.346255,24.205322 303.332526,24.1221855 C303.311932,23.9766966 303.306784,23.8701779 303.305497,23.6097268 L303.305865,22.7848413 C303.309461,21.6351105 303.326119,20.2036845 303.373713,19.7713746 C303.373713,19.6882381 303.346255,19.6189576 303.305068,19.6189576 C303.12659,19.6189576 302.68726,19.7436624 302.193014,19.7436624 L301.479104,19.7436624 C301.383,19.7436624 301.24571,19.7713746 301.24571,19.840655 C301.24571,19.8822233 301.328084,19.9376476 301.492833,19.9653598 C301.890975,20.0346402 301.945891,20.1039206 301.987079,20.5750276 C302.007672,20.8452212 302.012821,21.3492363 302.014108,21.6720398 L302.014537,21.9190679 C302.014537,22.26547 302.000808,22.9582743 301.973349,23.401669 C301.95962,23.7065029 301.890975,23.8450638 301.794872,23.9282003 C301.575207,24.1221855 301.341813,24.205322 301.039774,24.205322 C300.751464,24.205322 300.504341,24.1221855 300.312134,23.9004881 C300.243489,23.7896394 300.147385,23.6233664 300.133656,23.0552669 C300.119927,22.2239017 300.133656,20.5057471 300.174844,19.7159502 C300.174844,19.6466698 300.147385,19.5496772 300.092469,19.5635333 C299.886533,19.6189576 299.21381,19.7436624 298.499899,19.7436624 C298.376338,19.7436624 298.293963,19.7713746 298.293963,19.8129428 C298.293963,19.8545111 298.33515,19.9099354 298.444983,19.9792159 C298.664648,20.1039206 298.747022,20.1732011 298.760751,20.4503228 C298.77448,20.6997323 298.788209,22.9028499 298.801938,23.3601008 C298.815667,23.7619273 298.870583,24.0944733 299.076519,24.3300268 C299.378558,24.7041411 299.749243,24.8288459 300.161114,24.8288459 C300.51807,24.8288459 300.820109,24.7457093 301.067232,24.6348607 C301.300626,24.5378681 301.685039,24.2607463 301.918433,24.039049 C301.945891,24.0113368 301.95962,24.0529051 301.95962,24.1221855 C301.95962,24.2607463 301.945891,24.5101559 301.945891,24.6487167 C301.945891,24.7457093 301.945891,24.8149898 301.973349,24.8704141 C302.000808,24.8981263 302.055724,24.9119824 302.165556,24.8704141 Z M304.568141,24.7734215 C304.897638,24.7734215 304.883909,24.7041411 305.707652,24.7041411 C306.366646,24.7041411 306.613769,24.7595654 306.998183,24.7595654 C307.176661,24.7595654 307.286493,24.7318533 307.286493,24.6625728 C307.286493,24.5932924 307.231577,24.5517241 307.03937,24.524012 C306.531395,24.4547315 306.435292,24.3577389 306.380376,23.9420564 C306.352917,23.6233664 306.325459,23.0414108 306.325459,22.0576287 C306.325459,21.7943631 306.31173,21.2539758 306.352917,20.9907101 C306.380376,20.8660054 306.407834,20.7690128 306.503937,20.6720202 C306.641228,20.5334593 306.805976,20.478035 306.970725,20.478035 C307.121744,20.478035 307.355138,20.5888836 307.506158,20.6997323 C307.643448,20.7967249 307.712094,20.7967249 307.739552,20.7967249 C307.808197,20.7967249 307.876842,20.7690128 308.014133,20.6304519 C308.247527,20.3948984 308.426004,20.0900646 308.426004,19.9653598 C308.426004,19.8545111 308.371088,19.7852307 308.233798,19.6882381 C308.123965,19.6051016 307.959217,19.5496772 307.780739,19.5496772 C307.245306,19.5496772 306.75106,20.0484963 306.366646,20.5611715 C306.352917,20.6027397 306.298001,20.5888836 306.298001,20.5196032 C306.298001,20.2147693 306.325459,19.8267989 306.325459,19.5773894 C306.325459,19.508109 306.284272,19.4249724 306.256814,19.4249724 C306.201898,19.4249724 306.146982,19.4388285 306.02342,19.508109 C305.762568,19.6466698 305.282051,19.8129428 304.705431,19.9653598 C304.650515,19.993072 304.554411,20.0484963 304.554411,20.0900646 C304.554411,20.1316328 304.58187,20.159345 304.664244,20.2286254 C304.980012,20.5057471 305.021199,20.5334593 305.021199,20.6165958 C305.034928,20.7828688 305.021199,21.1431271 305.021199,22.0160605 C305.00747,22.9305621 304.993741,23.720359 304.980012,23.9559125 C304.938825,24.3438829 304.828993,24.4547315 304.513224,24.524012 C304.362205,24.5517241 304.307289,24.6210046 304.307289,24.6764289 C304.307289,24.7318533 304.389663,24.7734215 304.568141,24.7734215 Z M310.183323,24.8704141 C310.595195,24.8704141 311.199273,24.7179972 311.52877,24.4824437 C311.762164,24.3023146 312.160307,23.886632 312.160307,23.3185325 C312.160307,22.6118721 311.83081,22.2516139 310.965879,21.6696583 C310.402988,21.3094001 309.9362,21.0461345 309.9362,20.5057471 C309.9362,20.0484963 310.37553,19.7575185 310.718756,19.7575185 C311.020795,19.7575185 311.254189,19.8683672 311.432667,20.006928 C311.652332,20.2009132 311.707248,20.4364667 311.775893,20.644308 C311.817081,20.7551567 311.844539,20.8244371 311.899455,20.8244371 C311.954371,20.8244371 311.995558,20.7551567 311.981829,20.6027397 C311.9681,20.2424815 311.913184,19.993072 311.913184,19.8545111 C311.913184,19.7990868 311.871997,19.7436624 311.83081,19.7159502 C311.638603,19.6328137 311.199273,19.5358211 310.759943,19.5358211 C310.293156,19.5358211 309.853826,19.674382 309.592974,19.8683672 C309.153644,20.1454889 308.92025,20.6027397 308.92025,21.1015588 C308.92025,21.5865218 309.22229,22.1961896 310.032304,22.7227208 C310.732485,23.1661156 311.020795,23.4570934 311.020795,23.8589199 C311.020795,24.3438829 310.554008,24.6348607 310.197052,24.6348607 C309.922471,24.6348607 309.743994,24.6210046 309.5106,24.4547315 C309.263477,24.2746024 309.043812,23.9559125 308.933979,23.6233664 C308.851605,23.3739569 308.796689,23.3323886 308.755502,23.3323886 C308.700586,23.3323886 308.673127,23.4293812 308.686856,23.6095103 L308.755502,24.371595 C308.755502,24.4685876 308.892792,24.5932924 308.988896,24.6348607 C309.400767,24.7872776 309.867555,24.8704141 310.183323,24.8704141 Z M253.372502,33.362935 C253.550979,33.362935 253.880476,33.210518 253.880476,32.8364037 C253.880476,32.6008503 253.715728,32.3098725 253.39996,32.3098725 C253.180295,32.3098725 252.919443,32.5038577 252.919443,32.8502598 C252.919443,33.1273815 253.125379,33.362935 253.372502,33.362935 Z M254.127599,39.8752952 C254.237432,39.8752952 254.347264,39.8475831 254.347264,39.7783026 C254.347264,39.7228783 254.278619,39.6951661 254.141328,39.6674539 C253.921664,39.6120296 253.784373,39.5427492 253.756915,39.2656275 C253.729457,39.030074 253.729457,38.0047237 253.729457,36.8408125 C253.729457,35.954023 253.729457,35.1088018 253.756915,34.8316801 C253.770644,34.6792631 253.743186,34.6376949 253.701999,34.6376949 C253.674541,34.6376949 253.605895,34.665407 253.496063,34.7346875 C253.207753,34.8593922 252.878256,34.9979531 252.507571,35.0949457 C252.38401,35.1226578 252.342823,35.1642261 252.342823,35.2057944 C252.342823,35.2335065 252.38401,35.2750748 252.452655,35.316643 C252.794356,35.5013909 252.84317,35.5876065 252.849799,35.7407267 L252.849724,35.942158 C252.844527,36.5043829 252.821724,38.5108783 252.80961,38.8776571 C252.795881,39.4457566 252.67232,39.5566053 252.370281,39.6397418 C252.178074,39.6674539 252.109429,39.7090222 252.109429,39.7644465 C252.109429,39.8198709 252.205532,39.8475831 252.301635,39.8475831 C252.452655,39.8475831 252.67232,39.8198709 253.125379,39.8198709 C253.496063,39.8198709 254.004038,39.8752952 254.127599,39.8752952 Z M260.20957,39.8752952 C260.34686,39.8752952 260.456693,39.8614391 260.456693,39.7783026 C260.456693,39.7228783 260.374319,39.6951661 260.250757,39.6397418 C259.880073,39.5427492 259.838886,39.4596127 259.825156,38.5173988 C259.825156,37.8245946 259.811427,37.7137459 259.811427,36.9793733 C259.797698,36.1895764 259.687866,35.4967722 259.372098,35.1642261 C259.19362,34.9702409 258.864123,34.6931192 258.301232,34.6931192 C258.067838,34.6931192 257.779528,34.7208314 257.491217,34.8593922 C257.189178,34.984097 256.859681,35.2196504 256.516455,35.4829161 C256.488997,35.5106282 256.447809,35.46906 256.447809,35.4413478 C256.43408,35.2473626 256.461538,34.8732483 256.475268,34.7069753 C256.488997,34.6376949 256.420351,34.5822705 256.379164,34.5961266 C256.14577,34.7485435 255.596608,34.984097 255.294569,35.0672335 C255.171007,35.1088018 255.102362,35.15037 255.102362,35.1780822 C255.102362,35.2196504 255.12982,35.2473626 255.212195,35.302787 C255.541692,35.4829161 255.56915,35.635333 255.56915,35.7738939 L255.568133,36.9311336 C255.566099,37.7152854 255.559997,38.5035427 255.541692,39.1686349 C255.527963,39.4457566 255.473047,39.5427492 255.12982,39.6120296 C254.965072,39.6397418 254.84151,39.6951661 254.84151,39.7505905 C254.84151,39.8198709 254.951343,39.8475831 255.102362,39.8475831 C255.363214,39.8475831 255.651524,39.8198709 255.830002,39.8198709 C256.14577,39.8198709 256.818494,39.8752952 256.928326,39.8752952 C257.065617,39.8752952 257.202907,39.8752952 257.202907,39.7921587 C257.202907,39.7228783 257.134262,39.6951661 256.969513,39.6535979 C256.749849,39.5843174 256.5851,39.515037 256.543913,39.2102031 C256.516455,39.0162179 256.475268,38.6559597 256.461538,37.7553141 L256.460342,37.3167081 C256.457,36.6848456 256.447809,36.1870572 256.447809,36.0510156 C256.447809,35.9401669 256.516455,35.7323256 256.612558,35.635333 C256.969513,35.3304991 257.326469,35.1919383 257.683424,35.1919383 C257.999192,35.1919383 258.260044,35.2889309 258.46598,35.4552039 C258.809207,35.7184695 258.90531,36.0510156 258.90531,37.1733585 L258.90531,39.0577862 C258.90531,39.4596127 258.850394,39.5566053 258.520896,39.6397418 C258.342419,39.68131 258.260044,39.7367344 258.260044,39.7921587 C258.260044,39.8475831 258.356148,39.8752952 258.479709,39.8752952 C258.685645,39.8752952 258.864123,39.8198709 259.330911,39.8198709 C259.63295,39.8198709 260.031092,39.8752952 260.20957,39.8752952 Z M266.387644,39.9722878 C266.826974,39.9722878 267.252574,39.7644465 267.444781,39.3764761 C267.499697,39.2517714 267.444781,39.2102031 267.362407,39.2517714 C267.211387,39.3349079 267.074097,39.3764761 266.964264,39.3764761 C266.579851,39.3764761 266.456289,39.1132105 266.456289,38.8499449 C266.456289,38.4896867 266.497476,37.1733585 266.497476,36.6606834 C266.497476,36.2311447 266.44256,35.6630452 266.30527,35.3997796 C266.140521,34.9702409 265.71492,34.6931192 265.248132,34.6931192 C265.014739,34.6931192 264.740157,34.7762557 264.424389,34.9425287 C264.149808,35.0810896 263.696749,35.3720674 263.380981,35.7461817 C263.216233,35.9401669 263.120129,36.0648717 263.120129,36.1618643 C263.120129,36.2172886 263.188774,36.3004251 263.25742,36.286569 C263.353523,36.272713 263.765395,36.0787278 263.902685,35.9817352 C263.930143,35.954023 263.957601,35.9124547 263.957601,35.8708865 C263.957601,35.7738939 263.957601,35.6630452 263.971331,35.6076208 C263.998789,35.4552039 264.081163,35.3582113 264.177266,35.2750748 C264.383202,35.15037 264.520493,35.1088018 264.726428,35.1088018 C264.891177,35.1088018 265.124571,35.1919383 265.303049,35.3304991 C265.536443,35.5106282 265.632546,35.8985986 265.632546,36.4666982 C265.632546,36.6606834 265.632546,36.9378051 265.605088,37.1040781 C265.605088,37.1595024 265.536443,37.2842072 265.42661,37.3119194 C265.1383,37.4227681 263.888956,37.7968824 263.559459,37.9770115 C263.435897,38.0462919 263.065213,38.3234136 263.065213,38.7668084 C263.065213,39.4873248 263.614375,39.9584317 264.163537,39.9584317 C264.685241,39.9584317 265.097113,39.7228783 265.508984,39.3349079 C265.522714,39.3210518 265.563901,39.3210518 265.57763,39.348764 C265.701191,39.6674539 266.00323,39.9722878 266.387644,39.9722878 Z M264.767616,39.4319005 C264.342015,39.4319005 263.943872,39.1132105 263.943872,38.6559597 C263.943872,38.2541332 264.12235,38.0462919 264.287099,37.9631554 C264.575409,37.8107385 265.371694,37.5197607 265.550172,37.4920485 C265.57763,37.4781924 265.605088,37.5474728 265.605088,37.5613289 C265.605088,38.0878602 265.57763,38.6421036 265.536443,38.8776571 C265.522714,39.030074 265.440339,39.1547788 265.385423,39.2102031 C265.234403,39.348764 265.001009,39.4319005 264.767616,39.4319005 Z M274.666263,40 C274.70745,40 274.762366,39.9445757 274.844741,39.7367344 C275.009489,39.2933396 275.256612,38.6698158 275.490006,38.1155724 C275.915607,37.1317903 276.327478,36.1757204 276.574601,35.6769013 C276.753079,35.302787 276.917828,35.1088018 277.164951,35.0395213 C277.370886,34.984097 277.412073,34.9425287 277.412073,34.8871044 C277.412073,34.8316801 277.343428,34.817824 277.219867,34.817824 C277.013931,34.817824 276.670705,34.8593922 276.533414,34.8593922 C276.313749,34.8593922 276.066626,34.817824 275.833232,34.817824 C275.737129,34.817824 275.654755,34.8455361 275.654755,34.9009605 C275.654755,34.9425287 275.695942,34.984097 275.87442,35.0395213 C276.231375,35.1365139 276.286291,35.2612187 276.286291,35.3859235 C276.286291,35.4829161 276.190188,35.7323256 276.066626,36.0510156 C275.901878,36.5221225 275.242883,38.1017163 275.078134,38.4481184 C275.078134,38.4758306 275.050676,38.5312549 275.009489,38.4619745 C274.817282,38.0324358 274.089643,36.0233034 273.938623,35.5937648 C273.773874,35.1642261 273.856249,35.1088018 274.172017,35.0395213 C274.281849,35.0118092 274.377953,34.9563848 274.377953,34.9009605 C274.377953,34.8593922 274.323037,34.8316801 274.172017,34.8316801 C273.924894,34.8316801 273.760145,34.8593922 273.362003,34.8593922 C273.073693,34.8593922 272.716737,34.8039679 272.428427,34.8039679 C272.291137,34.8039679 272.222491,34.8455361 272.222491,34.9009605 C272.222491,34.9563848 272.291137,34.984097 272.414698,35.0118092 C272.703008,35.0810896 272.82657,35.2335065 272.936402,35.46906 L273.169796,36.0371595 C273.197254,36.1064399 273.156067,36.2034325 273.142338,36.272713 C273.005047,36.6329712 272.400969,37.9770115 272.181304,38.4481184 C272.167575,38.4896867 272.112659,38.4758306 272.09893,38.4342623 C271.783162,37.6583215 271.192812,36.0787278 270.986877,35.4413478 C270.93196,35.2196504 270.918231,35.0949457 271.247729,35.0395213 C271.343832,35.0256652 271.481123,34.9702409 271.481123,34.9286726 C271.481123,34.8593922 271.37129,34.817824 271.247729,34.817824 C270.973148,34.817824 270.698567,34.8593922 270.451444,34.8593922 C270.06703,34.8593922 269.655158,34.8039679 269.476681,34.8039679 C269.325661,34.8039679 269.229558,34.8316801 269.229558,34.9009605 C269.229558,34.9563848 269.311932,34.9979531 269.421765,35.0256652 C269.764991,35.1088018 269.92974,35.302787 270.025843,35.5660526 C270.176863,35.8154621 270.959419,37.8661628 271.206541,38.5589671 C271.439935,39.2102031 271.52231,39.5566053 271.590955,39.7505905 C271.632142,39.9030074 271.673329,40 271.728246,40 C271.783162,40 271.851807,39.9168635 271.920452,39.7367344 C272.071472,39.3210518 272.195033,39.0162179 272.400969,38.5589671 C272.593176,38.0740041 273.169796,36.7853881 273.293358,36.5359786 C273.320816,36.4666982 273.348274,36.4944103 273.362003,36.5359786 L274.185746,38.7945205 L274.515243,39.7505905 C274.570159,39.9445757 274.611347,40 274.666263,40 Z M279.773471,39.9722878 C280.556027,39.9722878 281.132647,39.6951661 281.681809,39.0993544 C281.764183,39.0023618 281.8191,38.9192253 281.8191,38.8776571 C281.8191,38.8083766 281.764183,38.7806645 281.654351,38.8915131 C281.324854,39.2102031 280.912982,39.3349079 280.350091,39.3349079 C279.897032,39.3349079 279.34787,39.1824909 278.977186,38.7668084 C278.62023,38.3649819 278.345649,37.7968824 278.345649,37.090222 C278.345649,36.7022516 278.386836,36.4944103 278.455482,36.3281373 C278.48294,36.286569 278.551585,36.2172886 278.579043,36.2172886 L279.320412,36.2172886 C279.63618,36.2172886 281.420957,36.2450008 281.530789,36.2588569 C281.599435,36.2588569 281.66808,36.1757204 281.66808,36.1064399 C281.66808,35.2612187 280.80315,34.6931192 279.993135,34.6931192 C279.279225,34.6931192 278.647688,35.0256652 278.277004,35.3859235 C277.700384,35.954023 277.480719,36.771532 277.480719,37.408912 C277.480719,38.1571406 277.727842,38.8222327 278.139713,39.2656275 C278.551585,39.7090222 279.128205,39.9722878 279.773471,39.9722878 Z M278.633959,36.0233034 C278.606501,36.0233034 278.579043,35.9955912 278.579043,35.9678791 C278.579043,35.8570304 278.702604,35.5937648 278.867353,35.3997796 C279.169392,35.0810896 279.512619,34.8871044 279.869574,34.8871044 C280.185342,34.8871044 280.418736,35.0118092 280.556027,35.15037 C280.707046,35.316643 280.748233,35.5660526 280.748233,35.7323256 C280.748233,35.8570304 280.720775,36.0094473 280.418736,36.0094473 L278.633959,36.0233034 Z M284.812033,39.9722878 C285.594589,39.9722878 286.171209,39.6951661 286.720371,39.0993544 C286.802746,39.0023618 286.857662,38.9192253 286.857662,38.8776571 C286.857662,38.8083766 286.802746,38.7806645 286.692913,38.8915131 C286.363416,39.2102031 285.951545,39.3349079 285.388653,39.3349079 C284.935595,39.3349079 284.386432,39.1824909 284.015748,38.7668084 C283.658793,38.3649819 283.384212,37.7968824 283.384212,37.090222 C283.384212,36.7022516 283.425399,36.4944103 283.494044,36.3281373 C283.521502,36.286569 283.590147,36.2172886 283.617605,36.2172886 L284.358974,36.2172886 C284.674743,36.2172886 286.459519,36.2450008 286.569352,36.2588569 C286.637997,36.2588569 286.706642,36.1757204 286.706642,36.1064399 C286.706642,35.2612187 285.841712,34.6931192 285.031698,34.6931192 C284.317787,34.6931192 283.686251,35.0256652 283.315566,35.3859235 C282.738946,35.954023 282.519281,36.771532 282.519281,37.408912 C282.519281,38.1571406 282.766404,38.8222327 283.178276,39.2656275 C283.590147,39.7090222 284.166768,39.9722878 284.812033,39.9722878 Z M283.672522,36.0233034 C283.645064,36.0233034 283.617605,35.9955912 283.617605,35.9678791 C283.617605,35.8570304 283.741167,35.5937648 283.905916,35.3997796 C284.207955,35.0810896 284.551181,34.8871044 284.908136,34.8871044 C285.223905,34.8871044 285.457299,35.0118092 285.594589,35.15037 C285.745609,35.316643 285.786796,35.5660526 285.786796,35.7323256 C285.786796,35.8570304 285.759338,36.0094473 285.457299,36.0094473 L283.672522,36.0233034 Z M292.843529,39.8891513 C292.953362,39.8891513 293.076923,39.8752952 293.076923,39.7921587 C293.076923,39.7367344 292.994549,39.6951661 292.870987,39.6674539 C292.459116,39.5704613 292.266909,39.4180444 291.882495,39.0162179 C291.23723,38.3511258 290.248738,37.2842072 289.836867,36.7992442 C289.823137,36.771532 289.795679,36.7299638 289.823137,36.7022516 C290.08399,36.4528421 290.756713,35.8570304 291.113668,35.5937648 C291.67656,35.15037 291.909954,35.0672335 292.376741,34.984097 C292.54149,34.9563848 292.582677,34.9009605 292.582677,34.8732483 C292.582677,34.817824 292.527761,34.7762557 292.376741,34.7762557 C292.019786,34.7762557 291.470624,34.8593922 291.168585,34.8593922 C291.017565,34.8593922 290.701797,34.8455361 290.482132,34.8455361 C290.358571,34.8455361 290.262467,34.8871044 290.262467,34.9425287 C290.262467,34.9979531 290.3723,35.0395213 290.495861,35.0533774 C290.7979,35.1088018 290.894004,35.1919383 290.894004,35.2750748 C290.894004,35.3304991 290.825358,35.4274917 290.742984,35.5106282 C290.495861,35.8431743 289.809408,36.4666982 289.260246,36.9100929 C289.150414,36.9932294 289.040581,37.0625098 288.985665,37.0625098 C288.944478,37.0625098 288.91702,36.9932294 288.91702,36.8408125 C288.91702,35.316643 288.985665,33.4876397 288.985665,33.0581011 C288.985665,32.0327507 289.026852,30.8134152 289.054311,30.3561644 C289.054311,30.286884 289.026852,30.2453157 289.013123,30.2453157 C288.958207,30.2453157 288.889562,30.2730279 288.793459,30.3145961 C288.724813,30.3423083 288.367858,30.4947252 287.818696,30.6471422 C287.681405,30.6887104 287.599031,30.7164226 287.599031,30.771847 C287.599031,30.7995591 287.653947,30.8272713 287.722592,30.8688396 C287.887341,30.9519761 288.010902,31.0351126 288.038361,31.1459613 C288.079548,31.2983782 288.093277,31.4646512 288.093277,31.7833412 C288.093277,32.8641159 288.05209,34.6376949 288.038361,35.7184695 C288.038361,36.7992442 288.024632,37.9631554 287.969715,38.9746497 C287.942257,39.4319005 287.846154,39.5566053 287.420553,39.6674539 C287.32445,39.68131 287.242076,39.7228783 287.242076,39.7644465 C287.242076,39.8198709 287.32445,39.8614391 287.46174,39.8614391 C287.626489,39.8614391 287.914799,39.8198709 288.354129,39.8198709 C288.711084,39.8198709 288.999394,39.8614391 289.383808,39.8614391 C289.534827,39.8614391 289.64466,39.833727 289.64466,39.7644465 C289.64466,39.7090222 289.576015,39.68131 289.438724,39.6397418 C289.013123,39.5427492 288.903291,39.5011809 288.903291,38.8360888 C288.891087,38.1586802 288.900579,37.7221279 288.912481,37.4583111 L288.91702,37.3673437 C288.91702,37.3119194 288.930749,37.2287829 288.971936,37.2287829 C289.026852,37.2287829 289.122956,37.3257755 289.232788,37.4366242 C289.64466,37.8523067 290.619423,38.8915131 290.907733,39.2240592 C291.031294,39.4180444 291.003836,39.5427492 290.770442,39.5981735 C290.523319,39.6535979 290.454674,39.68131 290.454674,39.7505905 C290.454674,39.833727 290.550777,39.833727 290.701797,39.833727 C290.907733,39.833727 291.08621,39.8198709 291.319604,39.8198709 C291.855037,39.8198709 292.376741,39.8891513 292.843529,39.8891513 Z M293.969312,39.9861439 C294.230164,39.9861439 294.559661,39.7921587 294.559661,39.3626201 C294.559661,39.0854983 294.367454,38.7529523 294.010499,38.7529523 C293.681001,38.7529523 293.392691,39.030074 293.392691,39.3764761 C293.392691,39.6951661 293.653543,39.9861439 293.969312,39.9861439 Z M294.957803,32.8225476 C295.163739,32.8225476 296.193418,32.4207211 296.193418,31.4785073 C296.193418,30.9658322 295.850192,30.4947252 295.314759,30.4947252 C295.095094,30.4947252 294.902887,30.6748544 294.902887,30.8826956 C294.902887,31.0489687 295.040178,31.1321052 295.177468,31.1736734 C295.548153,31.25681 295.699172,31.4369391 295.699172,31.7140608 C295.699172,32.1297433 295.383404,32.4345772 294.971532,32.6424185 C294.889158,32.6839868 294.834242,32.725555 294.834242,32.7532672 C294.834242,32.7948355 294.875429,32.8225476 294.957803,32.8225476 Z M296.673935,32.8225476 C296.879871,32.8225476 297.90955,32.4207211 297.90955,31.4785073 C297.90955,30.9658322 297.566323,30.4947252 297.058348,30.4947252 C296.811226,30.4947252 296.632748,30.6748544 296.632748,30.8826956 C296.632748,31.0489687 296.770038,31.1321052 296.8936,31.1736734 C297.264284,31.25681 297.415304,31.4369391 297.415304,31.7279169 C297.415304,32.1297433 297.113265,32.4345772 296.687664,32.6424185 L296.598425,32.7030389 C296.570967,32.722091 296.550374,32.7394111 296.550374,32.7532672 C296.550374,32.7948355 296.60529,32.8225476 296.673935,32.8225476 Z"/>
  </g>
</svg>
