<svg xmlns="http://www.w3.org/2000/svg" width="74" height="21" viewBox="0 0 74 21">
  <g fill="#535E5E" fill-rule="evenodd" opacity=".598" transform="translate(.762)">
    <path fill-rule="nonzero" d="M10.6119899.0403019247C9.73200024.162128097 8.98000134.521258956 8.35999097 1.1242863 7.71799268 1.74733317 7.28699292 2.51930583 7.09898938 3.38234294 7.04599561 3.62330974 7.038 3.74733317 7.038 4.23121989 7.038 4.7102238 7.04900159 4.84035075 7.09898938 5.06935466 7.17899121 5.43727458 7.30299939 5.79713786 7.46399487 6.12623942 7.59898938 6.40822185 7.92600049 6.93117107 7.95099438 6.90626872 7.95898999 6.90114177 7.94499768 6.79030192 7.92299451 6.6633488 7.63799084 5.14430583 7.77399243 3.9602238 8.3209895 3.15529216 8.77499951 2.48317302 9.61899365 1.94313396 10.5069941 1.75221599 10.8299922 1.68312419 11.5080012 1.68312419 11.8319911 1.75026286 12.6259974 1.91823161 13.2229976 2.23927653 13.7710017 2.79030192 14.0949916 3.11622966 14.3159999 3.42921794 14.5019893 3.81935466 14.7509974 4.34230388 14.8389949 4.79030192 14.814001 5.41823161 14.7949885 6.00416911 14.6480006 6.52223552 14.3519954 7.07521403 14.2189998 7.31935466 14.2580012 7.30714763 14.5399989 7.03126872 15.2649897 6.31715739 15.6439875 5.16627849 15.5419978 3.97926677 15.485998 3.32423747 15.3619899 2.84816325 15.0989894 2.30812419 14.8889979 1.8742863 14.656988 1.55324138 14.310995 1.22121013 13.3619899.306171065 11.9559993-.142803544 10.6119899.0403019247zM54.0149904 2.34963065C53.9930024 2.40260916 53.3179994 3.9016326 52.5159974 5.68361502 51.7129884 7.46144705 51.026999 8.98659354 50.9909883 9.06642752L50.928 9.21047049 51.4119935 9.20461112 51.8960023 9.19655448 52.2719941 8.35841971 52.6480012 7.52248221 54.072989 7.52858573 55.500998 7.53639823 55.8769899 8.36647635 56.2529969 9.19655448 56.7430024 9.20461112C57.0139985 9.2075408 57.230002 9.20241385 57.22399 9.19045096 57.2159944 9.17751151 56.5100007 7.63063651 55.6559968 5.75246268 54.8010011 3.87355643 54.0900026 2.31642752 54.079001 2.29445487 54.0620027 2.26662283 54.0449891 2.28053885 54.0149904 2.34963065zM54.6319948 5.63063651C54.9090028 6.23341971 55.1269899 6.73146658 55.1220002 6.7375701 55.1159883 6.74562674 54.6369996 6.74562674 54.0559907 6.74245291L53.0019899 6.73439627 53.499991 5.62746268C53.773993 5.01955252 54.0119996 4.49049979 54.0289979 4.45143729L54.0559907 4.38258963 54.0949922 4.4575408C54.1169954 4.49953299 54.3579927 5.02443533 54.6319948 5.63063651z"/>
    <path fill-rule="nonzero" d="M10.8394175 2.45778056C9.8874216 2.66774149 9.14341831 3.29274149 8.65141391 4.29982157 8.37442112 4.86964579 8.2604227 5.38185282 8.2604227 6.07081767 8.2604227 6.75367899 8.35241794 7.22169657 8.68141269 8.22877665 8.75341892 8.45582743 8.88041782 8.87867899 8.95842075 9.16871806 9.0354166 9.45680399 9.13241672 9.79469462 9.1684122 9.91285868 9.4144144 10.6987474 9.55841159 12.076677 9.48642063 12.9177415 9.38641452 14.0576341 9.1624155 14.5608079 8.43241977 15.2966477 7.70442295 16.0246751 6.96041965 16.4057786 5.85942173 16.6137864 5.36142063 16.7077806 4.94142246 16.7268235 4.67041111 16.6687181 4.10041904 16.5498216 3.58241367 16.1157395 3.30841159 15.5317552 3.26141452 15.4267747 3.18141269 15.2107102 3.1314249 15.0507981L3.04042148 14.7578294 3.04042148 14.9946458C3.0354166 15.6897142 3.2894144 16.3037278 3.7624216 16.7517259 4.10542392 17.0757005 4.47041416 17.2468431 4.95741367 17.3137376 6.11142063 17.4736497 7.33142185 16.9128587 8.56541538 15.647722L8.93042087 15.2717454 8.93042087 15.3737962C8.93042087 15.4297044 8.90541172 15.5876634 8.87541294 15.725847L8.82241916 15.9748704 8.56541538 16.22072C7.30941867 17.4187181 6.10041904 17.9416673 4.81341648 17.8386399 4.11142063 17.7837083 3.55542087 17.529802 3.09042453 17.0478684 2.6644144 16.6076829 2.42941379 16.1328294 2.24641513 15.3466966 2.21841526 15.2278001 2.1854105 15.1418626 2.17442417 15.1528489 2.1334238 15.1948411 2.11641025 15.8056809 2.14941501 16.0966966 2.19641208 16.4868333 2.29042148 16.8017747 2.46742343 17.1638352 3.0104227 18.2627122 4.15541172 18.8767259 5.52441501 18.798845 6.47941684 18.7468431 7.31442356 18.3867356 8.13641452 17.6787278 8.68942356 17.1997239 10.2384195 15.5068528 10.6044168 14.9836595 11.0384226 14.3586595 11.4894113 13.9358079 12.00142 13.6787278 12.8144236 13.2717454 13.7494211 13.2168138 14.8834238 13.5097825 15.8024149 13.7507493 16.5464182 14.206804 17.1914225 14.9287278 17.8524179 15.6728684 18.0684214 16.0986497 18.0684214 16.6657884 18.0684214 17.2248704 17.8414164 17.7087571 17.3294229 18.2517259L17.1334238 18.4616868 17.323411 18.3567063C17.899415 18.0437181 18.2834177 17.576677 18.4804239 16.956804 18.5354166 16.7768724 18.5434122 16.6938645 18.5434122 16.3337571 18.5414133 15.9548509 18.5354166 15.8996751 18.4664164 15.7038743 18.2094126 14.9677903 17.7274179 14.4028489 16.9694223 13.9526536 16.3364115 13.5737474 15.2764139 13.2058274 14.5464182 13.1086595 14.402421 13.0886399 14.2724161 13.0666673 14.2614145 13.0556809 14.2304239 13.0288255 14.4634104 12.9338548 14.7674112 12.84572L15.0224161 12.7736985 15.3184214 12.8486497C15.7114115 12.9507005 16.2334146 13.1308763 16.6354227 13.3017747 17.7364206 13.7746751 18.4804239 14.4616868 18.9364176 15.423845 19.2544107 16.0986497 19.2934122 16.8047044 19.0444193 17.4658372 18.8704233 17.9248216 18.6464243 18.2517259 18.175416 18.7216966 17.9824228 18.9157884 17.8884134 19.0288255 17.9264231 19.0178392 18.0684214 18.9736497 18.5824137 18.6906907 18.7624216 18.5556809 19.3244181 18.1347825 19.7304239 17.5407884 19.9044199 16.8767259 19.9654245 16.6496751 19.9764109 16.5498216 19.9794926 16.1816575 19.9824228 15.6067063 19.8964243 15.2358567 19.6364145 14.7107102 19.0524149 13.5256517 18.0594187 12.8017747 16.4824228 12.4057786 16.3224192 12.3667161 16.0674143 12.2927415 15.9154215 12.239763 15.7634134 12.187761 15.2464151 12.0268724 14.7674112 11.8828294 13.8294229 11.6037767 13.3654184 11.4426438 12.8584146 11.2278001 11.7414103 10.7458665 10.9334116 10.1128099 10.6204233 9.4736497 10.0484171 8.29469462 9.94241428 7.0698411 10.3194132 5.89381571 10.5464182 5.17970438 10.7314157 4.81471415 11.0134134 4.51881571 11.323411 4.18971415 11.6584177 4.02369853 12.1454172 3.95167704 12.4604197 3.90480204 12.7924204 3.94264384 13.3294229 4.08180399 13.4394236 4.10865946 13.2234201 3.96779032 12.9884195 3.85475321 12.6544199 3.69679423 12.399415 3.64479228 11.9874124 3.64479228 11.5584116 3.64479228 11.3094187 3.69972392 10.9834146 3.87184306 10.6874247 4.02369853 10.4794168 4.1948411 10.277421 4.45167704 9.96742343 4.84474345 9.75441074 5.32374735 9.66342258 5.84669657 9.60841465 6.16481181 9.60841465 6.89283915 9.66342258 7.30983134 9.73841953 7.88575907 9.89341831 8.52980204 10.0484171 8.92872782L10.1174173 9.10572978 10.0424204 9.08571024C9.94542026 9.0608079 9.68042087 8.90065165 9.60241794 8.81764384 9.56141758 8.77369853 9.5084238 8.61866923 9.43141269 8.29786845 9.03842258 6.69874735 9.08841037 5.60572978 9.59741306 4.56886454 10.0564127 3.63868876 10.728425 3.10182353 11.6384134 2.9448411 12.103425 2.86183329 12.5684214 2.9057786 13.201417 3.08571024 13.3814249 3.1377122 13.5364237 3.1767747 13.5394144 3.17164774 13.5674143 3.1467454 13.1164103 2.85280009 12.8444223 2.72072001 12.3714151 2.49073954 12.1114206 2.42970438 11.5444193 2.41578837 11.1604166 2.40773173 11.0324106 2.41578837 10.8394175 2.45778056zM25.6500096 2.60511133C25.7750096 2.89808008 28.6110082 9.31922266 28.638001 9.37122461 28.6690068 9.42908594 28.8209996 9.1031582 30.2120061 5.99622461 31.0590062 4.10413477 31.7530065 2.54920313 31.7530065 2.53504297 31.7530065 2.52405664 31.5350042 2.51917383 31.266007 2.52210352L30.7819982 2.53016016 29.7389989 4.87317773C29.1670079 6.16199609 28.69101 7.219125 28.6820073 7.219125 28.6740117 7.219125 28.2010045 6.16516992 27.6280065 4.87317773L26.5940099 2.53016016 26.1009984 2.52210352 25.612 2.516 25.6500096 2.60511133z"/>
    <path fill-rule="nonzero" d="M11.6000672 4.6521875C11.1290589 5.19710938 11.1900635 6.18709961 11.7240601 6.72103516 11.9980622 6.99496094 12.482071 7.19100586 12.8860627 7.19100586 13.107071 7.19100586 13.401062 7.1221582 13.6020661 7.02010742 13.9540711 6.84798828 14.2860718 6.42513672 14.3940583 6.01302734 14.4770661 5.69710938 14.4410706 5.28207031 14.305069 4.97811523 14.2420655 4.83211914 14.1030732 4.60702148 14.0890656 4.62411133 14.0840607 4.6299707 14.0980683 4.74618164 14.1230622 4.88119141 14.1720734 5.1690332 14.1590729 5.52303711 14.0920716 5.74398438 13.9900666 6.07113281 13.6520691 6.38314453 13.276062 6.50008789 12.305069 6.80111328 11.3230591 5.89901367 11.5720673 4.93709961 11.5970612 4.84798828 11.6380616 4.72103516 11.6690674 4.65414063 11.6960602 4.58797852 11.7160645 4.535 11.7100678 4.535 11.7050629 4.535 11.6550598 4.58797852 11.6000672 4.6521875zM33.6096817 4.75664182C32.7186905 4.9446301 32.007692 5.65263791 31.8166825 6.54057736 31.7856919 6.68144651 31.777681 6.84257932 31.7886826 7.12163205 31.7996842 7.45952268 31.8106858 7.54253049 31.8856827 7.7715344 32.0106827 8.14751096 32.1406876 8.35258908 32.4586808 8.67363401 32.6986862 8.9146008 32.7686783 8.96660276 32.9976822 9.08061643 33.3516861 9.25151486 33.5286881 9.29643674 33.9526841 9.31255002 34.3696915 9.32963986 34.6796891 9.28252072 35.0196854 9.15263791 35.3626877 9.01958127 35.725679 8.76445432 35.95569 8.4915051L36.0686814 8.35844846 35.7306839 8.10649533 35.3936783 7.85454221 35.2386795 8.00444455C34.7436844 8.49345822 34.0266892 8.62163205 33.4266831 8.3274426 33.152681 8.19243283 32.9926926 8.05644651 32.853685 7.84355588 32.7656876 7.70561643 32.6106888 7.30644651 32.6106888 7.21562619 32.6106888 7.20146604 33.3136917 7.19047971 34.4636856 7.19047971L36.3176895 7.19047971 36.3176895 7.11357541C36.3176895 7.07158322 36.303682 6.92558713 36.2866837 6.7896008 36.1736924 5.85161252 35.5986801 5.12749143 34.7376877 4.8364758 34.5056931 4.75664182 34.4386917 4.74858518 34.1046921 4.73955197 33.8996903 4.73442502 33.6756913 4.74248166 33.6096817 4.75664182zM34.2846848 5.5864758C34.5196854 5.62456174 34.8096787 5.77763791 34.981691 5.95146604 35.1116806 6.08452268 35.3216873 6.39165158 35.3216873 6.44951291 35.3216873 6.46049924 34.7376877 6.47148557 34.0216843 6.47148557 33.3076798 6.47148557 32.7216812 6.46049924 32.7216812 6.44951291 32.7216812 6.4355969 32.7656876 6.35258908 32.8206803 6.26152463 33.1356827 5.73564572 33.6726853 5.48662229 34.2846848 5.5864758zM39.5819967 4.77316831C39.2810018 4.85422299 39.072994 5.03317807 38.7830007 5.45920346L38.6139944 5.7082269 38.6139944 5.28830503 38.6139944 4.86716245 38.1580007 4.86716245 37.701 4.86716245 37.701 7.03928159 37.701 9.21115659 38.1710012 9.21115659 38.6390035 9.21115659 38.6469991 7.84714292 38.6560018 6.48630307 38.7439993 6.30026792C38.9159963 5.93527768 39.2609976 5.69724057 39.6289938 5.68918393 39.7349966 5.68625424 39.8729971 5.69211362 39.9419973 5.70627378L40.0660055 5.72531674 40.2020071 5.26926206C40.277004 5.01730893 40.329006 4.80417417 40.3209951 4.79611753 40.2519949 4.72629331 39.8120077 4.71310971 39.5819967 4.77316831zM42.6675011 4.75748874C41.9344994 4.90348483 41.2704979 5.57828952 41.0464989 6.40348483 40.9605004 6.71842624 40.9605004 7.32731295 41.0464989 7.64835788 41.2484948 8.39738131 41.7905022 9.01237155 42.4435021 9.23038913 42.6424919 9.29728366 42.7114922 9.3053403 43.0405022 9.30826999 43.4695031 9.30826999 43.6604973 9.26139499 43.9894921 9.06730319 44.1754967 8.95939303 44.4854943 8.6803403 44.6265007 8.49235202L44.7005059 8.39542819 44.7005059 8.80143405 44.7005059 9.21134616 45.1574913 9.21134616 45.6135002 9.21134616 45.6135002 7.03947116 45.6135002 4.86735202 45.1574913 4.86735202 44.7005059 4.86735202 44.7005059 5.30241061 44.7005059 5.73942233 44.6424919 5.6424985C44.4025017 5.24430514 43.9344994 4.90348483 43.4614922 4.78239108 43.245504 4.72648288 42.8774926 4.71549655 42.6675011 4.75748874zM43.6854912 5.62833835C43.945501 5.68449069 44.1864983 5.81950045 44.396505 6.02946139 44.6785027 6.31242038 44.8114983 6.63029147 44.8114983 7.025311 44.8114983 7.91129733 44.0425011 8.59147311 43.1765038 8.4694028 42.2354943 8.33732272 41.6684929 7.27750827 42.0784966 6.41740085 42.2025048 6.1593442 42.4984948 5.86637545 42.7724968 5.73649264 43.0855004 5.59049655 43.3504998 5.55631686 43.6854912 5.62833835zM59.5064562 4.78431869C58.807451 4.96742416 58.2014482 5.60634018 57.9744432 6.40345932 57.9214494 6.5914476 57.9104479 6.68544174 57.9134538 7.03944564 57.9164446 7.40736557 57.9244554 7.48231674 57.9884508 7.69838119 58.1844499 8.34242416 58.6054552 8.85731674 59.1634538 9.13929916 59.6614549 9.39125228 60.3204515 9.38026596 60.8324449 9.11146713 61.0364549 9.00331283 61.3494432 8.73231674 61.5264452 8.51136947L61.6314562 8.37538314 61.6314562 9.81727768 61.6314562 11.2584398 62.0884416 11.2584398 62.5444505 11.2584398 62.5444505 8.06337143 62.5444505 4.8673265 62.0884416 4.8673265 61.6314562 4.8673265 61.6284502 5.28846908C61.6284502 5.6954515 61.6264513 5.70839096 61.5814531 5.64247299 61.0924547 4.92347885 60.2704485 4.58534408 59.5064562 4.78431869zM60.580446 5.62538314C60.8234422 5.67836166 60.9754503 5.75038314 61.1834429 5.90541244 61.3774431 6.0523851 61.5704515 6.30336166 61.659456 6.52748275 61.7364519 6.71840072 61.7614458 7.09437728 61.7174547 7.33534408 61.6234453 7.8114183 61.2414415 8.25428939 60.7874468 8.40931869 59.9354418 8.70228744 58.9954546 8.11024643 58.8844469 7.21132064 58.8294542 6.77137924 58.9644487 6.37831283 59.2914446 6.03529525 59.6484544 5.65931869 60.0824449 5.52040268 60.580446 5.62538314zM70.0555011 4.75748874C69.3224994 4.90348483 68.6584979 5.57828952 68.4344989 6.40348483 68.3485004 6.71842624 68.3485004 7.32731295 68.4344989 7.64835788 68.6364948 8.39738131 69.1785022 9.01237155 69.8315021 9.23038913 70.0304919 9.29728366 70.0994922 9.3053403 70.4285022 9.30826999 70.8575031 9.30826999 71.0484973 9.26139499 71.3774921 9.06730319 71.5634967 8.95939303 71.8734943 8.6803403 72.0145007 8.49235202L72.0884906 8.39542819 72.0884906 8.80143405 72.0884906 9.21134616 72.5454913 9.21134616 73.0015002 9.21134616 73.0015002 7.03947116 73.0015002 4.86735202 72.5454913 4.86735202 72.0884906 4.86735202 72.0884906 5.30241061 72.0884906 5.73942233 72.0304919 5.6424985C71.7905017 5.24430514 71.3224994 4.90348483 70.8494922 4.78239108 70.633504 4.72648288 70.2654926 4.71549655 70.0555011 4.75748874zM71.0734912 5.62833835C71.333501 5.68449069 71.5744983 5.81950045 71.784505 6.02946139 72.0665027 6.31242038 72.1994983 6.63029147 72.1994983 7.025311 72.1994983 7.91129733 71.4305011 8.59147311 70.5645038 8.4694028 69.6234943 8.33732272 69.0564929 7.27750827 69.4664966 6.41740085 69.5905048 6.1593442 69.8864948 5.86637545 70.1604968 5.73649264 70.4735004 5.59049655 70.7384998 5.55631686 71.0734912 5.62833835zM63.7109956 6.33892383C63.7230043 7.98491992 63.7199983 7.94707813 63.9240083 8.367 64.1209993 8.76494922 64.4970063 9.08599414 64.9340028 9.22710742 65.1090059 9.28594531 65.2329988 9.30498828 65.5039949 9.31304492 65.9159974 9.33013477 66.1870088 9.27715625 66.5279969 9.1079668 66.8149995 8.96709766 67.1390046 8.64092578 67.2799958 8.35308398 67.479001 7.94097461 67.4770021 7.97710742 67.4880037 6.33892383L67.4990052 4.867 67.0420045 4.867 66.5830049 4.867 66.5830049 6.09014453C66.5830049 6.76494922 66.5689973 7.40703906 66.555005 7.52105273 66.506009 7.8970293 66.3229951 8.17608203 66.0350007 8.31695117 65.9000062 8.38408984 65.8469972 8.39214648 65.6289949 8.39214648 65.4930085 8.39214648 65.3270082 8.37505664 65.2629976 8.35894336 65.0920076 8.30913867 64.8930024 8.16192188 64.8070039 8.02105273 64.6520051 7.76909961 64.6470002 7.69195117 64.6470002 6.21807422L64.6470002 4.867 64.1730012 4.867 63.703 4.867 63.7109956 6.33892383z"/>
    <path fill-rule="nonzero" d="M59.4209968 10.0522216C59.2519905 10.1071533 59.0250007 10.2702392 58.9090034 10.4201415 58.764991 10.6052001 58.693 10.8151611 58.693 11.0641845 58.693 11.4352783 58.8590004 11.7372802 59.1720039 11.9472411 59.5949928 12.2292236 60.1679908 12.1542724 60.5219948 11.7702392 60.712989 11.5602783 60.7849952 11.3661865 60.7849952 11.0641845 60.7849952 10.7631591 60.712989 10.5693115 60.5219948 10.3591064 60.3140022 10.1352294 60.0900032 10.0322021 59.7799904 10.0212158 59.6279976 10.0160888 59.4979927 10.0273193 59.4209968 10.0522216zM24.4606927 10.2261191C24.4716943 10.2539512 25.1967004 12.192916 26.0756982 14.5359336L27.6746973 18.7969199 28.5027002 18.7969199 29.3267053 18.7969199 30.9286951 14.5500938C31.8086999 12.2151328 32.5357049 10.2759238 32.5437006 10.2400352L32.5606988 10.179 31.6197046 10.179C30.8926996 10.179 30.6766962 10.1870566 30.6656946 10.211959 30.6607049 10.2319785 30.1786951 11.5039512 29.5946954 13.0420371 29.0137018 14.5779258 28.529693 15.8530723 28.5186914 15.8721152 28.5077051 15.8921348 28.0126947 14.6221152 27.4206995 13.0510703L26.3386987 10.192916 25.3926996 10.1851035C24.4996942 10.179 24.4467004 10.1819297 24.4606927 10.2261191zM49.9677077 10.2261191C49.9787093 10.2539512 50.7037154 12.192916 51.5827132 14.5359336L53.1817122 18.7969199 54.0087081 18.7969199 54.833705 18.7969199 56.43571 14.5500938C57.3147078 12.2151328 58.0427046 10.2759238 58.0507155 10.2400352L58.0677138 10.179 57.1267043 10.179C56.3997145 10.179 56.1837111 10.1870566 56.1727095 10.211959 56.1667128 10.2319785 55.68571 11.5039512 55.1017104 13.0420371 54.5207167 14.5779258 54.0367079 15.8530723 54.0257063 15.8721152 54.0147048 15.8921348 53.5197096 14.6221152 52.9277144 13.0510703L51.8457137 10.192916 50.8997145 10.1851035C50.0057173 10.179 49.9537154 10.1819297 49.9677077 10.2261191zM63.4020087 12.1989941L63.4020087 13.1670117 63.0830084 13.1670117 62.765 13.1670117 62.765 13.9550977 62.765 14.743916 63.0830084 14.743916 63.4020087 14.743916 63.4020087 16.7771191 63.4020087 18.8100781 64.2590033 18.8100781 65.117005 18.8100781 65.117005 16.7771191 65.117005 14.743916 65.518006 14.743916 65.919007 14.743916 65.919007 13.9550977 65.919007 13.1670117 65.518006 13.1670117 65.117005 13.1670117 65.117005 12.1989941 65.117005 11.23 64.2590033 11.23 63.4020087 11.23 63.4020087 12.1989941zM3.60428999 12.2682256C2.72829817 12.4232548 1.87829207 12.8712529 1.2142906 13.5260381.855297073 13.8812627.611293777 14.215247.395290359 14.6471318.0742912136 15.2921513-.019702927 15.7650517.00329206812 16.583167.0222892605 17.3111943.127284988 17.7591923.423290237 18.387122.94329451 19.4881963 1.75928877 20.2272099 2.84429549 20.5812138 3.35329817 20.7472295 3.63228987 20.7882451 4.25529097 20.7882451 4.84928511 20.7882451 5.0792961 20.755042 5.55529402 20.6031865 6.67829512 20.2462529 7.65528487 19.3580693 8.15829085 18.2381963 8.24729536 18.0392216 8.2412834 18.0411748 7.9892845 18.2572392 7.16228865 18.9630498 6.3352928 19.425208 5.56928633 19.6022099 5.2372856 19.6791142 4.65629195 19.6742314 4.32429121 19.5880498 3.32029341 19.3312138 2.46729658 18.6610478 2.00529097 17.767249 1.73429488 17.2421025 1.59928511 16.675208 1.59928511 16.0721806 1.59928511 15.3360966 1.80929182 14.6390752 2.21828841 14.0240849 2.85529707 13.0702275 3.94529341 12.4950322 5.15429304 12.4701298L5.40029524 12.4672002 5.27828596 12.4142216C5.20928572 12.3841923 5.05428694 12.3370732 4.93229292 12.3041142 4.63929366 12.2320927 3.92528914 12.2101201 3.60428999 12.2682256zM17.4781066 12.3043146L17.3811065 12.3233576 17.5471069 12.3763361C17.6391021 12.4034357 17.868106 12.4893732 18.0591003 12.5643244 19.5591003 13.1673517 20.4191009 13.966424 20.7010986 15.0262385 20.917102 15.8343439 20.8371001 16.711297 20.4740935 17.4774103 20.2500945 17.9532404 19.7910949 18.5064631 19.3461028 18.8333674 18.9330932 19.1343927 18.3531066 19.3863459 17.8190948 19.494256 17.4760924 19.5604181 16.7980987 19.5604181 16.4821044 19.4913263 15.4920989 19.2752619 14.6790954 18.6944513 14.1170989 17.8013849 13.9510986 17.532342 13.9480926 17.5384455 14.0480987 17.9564142 14.2800933 18.921258 15.0710937 19.815301 16.164096 20.3463068 17.4290954 20.9632502 18.7401 20.9774103 19.9131042 20.3873224 21.1250945 19.7794123 22.0511047 18.5594416 22.3091003 17.2342463 22.3831054 16.8433771 22.3781005 16.1553888 22.2950927 15.7674494 22.1010924 14.8602228 21.717105 14.1353693 21.0910979 13.513299 20.6071044 13.0294123 20.0981017 12.7103205 19.4731017 12.5032892 19.0141021 12.3482599 18.7401 12.3062677 18.1281005 12.2952814 17.8240996 12.2903986 17.5311004 12.2933283 17.4781066 12.3043146z"/>
    <path fill-rule="nonzero" d="M4.2155812 12.9586234C3.85258987 13.0616507 3.53458145 13.296514 3.33557632 13.6036429 3.21658828 13.7806449 3.13658645 13.940557 3.16158035 13.940557 3.16658523 13.940557 3.23058059 13.888555 3.30557754 13.8275199 3.92758682 13.2855277 4.48958328 13.1966605 5.02557876 13.5565238 5.24158218 13.7005668 5.37158706 13.8526664 5.48758438 14.0936332 5.61758926 14.3675589 5.65358474 14.6356254 5.59857681 14.9095511 5.47658279 15.4925589 5.07257583 15.888555 4.49757888 15.9906058 4.24557998 16.0355277 4.31258133 16.065557 4.66957595 16.0687308 4.99258926 16.0716605 5.22758987 15.9967093 5.50758865 15.8055472 6.01358535 15.4596 6.26857498 14.9237113 6.19858291 14.3555961 6.1155751 13.7005668 5.74258926 13.1995902 5.18057754 12.9945121 4.9675801 12.9205375 4.42258194 12.8985648 4.2155812 12.9586234zM34.1303344 13.0840021C33.1233306 13.2549005 32.2623382 13.9580255 31.9223418 14.8879572 31.5823302 15.8120294 31.7263274 17.0481134 32.2623382 17.8010431 32.6993346 18.4089533 33.3473296 18.7859064 34.1523375 18.8930841 34.464334 18.938006 35.1173339 18.9160334 35.391336 18.8549982 35.9833312 18.7251154 36.4233336 18.490008 36.8193297 18.0910822 37.0043273 17.9030939 37.3143401 17.4880548 37.3143401 17.4270197 37.3143401 17.4131037 36.9683318 17.2890802 36.5483336 17.1479669L35.7813353 16.8930841 35.740335 16.9599787C35.6243377 17.1389337 35.3583312 17.3769709 35.1703277 17.470965 34.816339 17.6460138 34.4533324 17.6599298 34.1353393 17.5100275 33.7703338 17.3359552 33.4713378 16.878924 33.4683318 16.4919611L33.4683318 16.4040705 35.4743285 16.4040705 37.4803405 16.4040705 37.4803405 16.1379572C37.4803405 15.615008 37.3533416 15.036883 37.1453338 14.6279474 37.0103393 14.3589044 36.8553405 14.1460138 36.6113372 13.8921076 36.0693297 13.326922 35.4083342 13.0529962 34.6033416 13.0590998 34.4123321 13.0620294 34.1993346 13.0730158 34.1303344 13.0840021zM35.0263305 14.2600275C35.3083281 14.3589044 35.5713286 14.701922 35.6933379 15.1230646L35.7343383 15.2690607 34.6003356 15.2690607C33.9773345 15.2690607 33.4683318 15.2580744 33.4683318 15.247088 33.4683318 15.1840998 33.560327 14.8930841 33.6103301 14.793963 33.6933379 14.6299005 33.9033294 14.4170099 34.063333 14.3340021 34.3453307 14.188006 34.7333312 14.1599298 35.0263305 14.2600275zM44.84133 13.087191C43.9423279 13.2641929 43.1293244 14.094271 42.8633331 15.1062339 42.6953339 15.7483238 42.7113251 16.4421714 42.9083313 17.068148 43.1403259 17.8032554 43.6323303 18.4182457 44.2303375 18.7163414 44.4963288 18.8491539 44.6923279 18.896273 45.0463318 18.9133628 45.6603302 18.9382652 46.0313324 18.8052085 46.4463257 18.4043296 46.5763306 18.2773765 46.739325 18.0991539 46.8063263 18.0083335L46.9273285 17.8391441 46.9363312 18.3262046 46.9413361 18.8103355 47.7853302 18.8103355 48.6293244 18.8103355 48.6293244 15.9892906 48.6293244 13.1672691 47.7853302 13.1672691 46.9413361 13.1672691 46.9413361 13.5461753 46.9413361 13.9221519 46.7563385 13.7422203C46.3803314 13.3833335 46.0253357 13.1721519 45.6743378 13.0981773 45.4723267 13.0532554 45.0353302 13.0483726 44.84133 13.087191zM45.9203247 14.771273C46.1473297 14.8161949 46.3023285 14.9043296 46.5073303 15.1062339 46.7313294 15.330355 46.8473267 15.5603355 46.8833374 15.8391441 46.9963288 16.7742027 46.3083252 17.5242027 45.4783386 17.3723472 44.8943237 17.2673667 44.5623383 16.8213218 44.5623383 16.1443199 44.5623383 15.8171714 44.6093353 15.6072105 44.7363342 15.3723472 44.9823364 14.9072593 45.4313263 14.6802085 45.9203247 14.771273zM69.1308356 13.087191C68.2318336 13.2641929 67.41883 14.094271 67.1528236 15.1062339 66.9838325 15.7483238 67.0008308 16.4421714 67.1968299 17.068148 67.4298316 17.8032554 67.921836 18.4182457 68.519828 18.7163414 68.7848273 18.8491539 68.9818336 18.896273 69.3358222 18.9133628 69.9498359 18.9382652 70.3208228 18.8052085 70.7348243 18.4043296 70.865821 18.2773765 71.0288306 18.0991539 71.0948249 18.0083335L71.2168342 17.8391441 71.2248298 18.3262046 71.2308265 18.8103355 72.0738288 18.8103355 72.917823 18.8103355 72.917823 15.9892906 72.917823 13.1672691 72.0738288 13.1672691 71.2308265 13.1672691 71.2308265 13.5461753 71.2308265 13.9221519 71.0448219 13.7422203C70.66883 13.3833335 70.3148261 13.1721519 69.9638282 13.0981773 69.7618324 13.0532554 69.3248359 13.0483726 69.1308356 13.087191zM70.2098304 14.771273C70.4368354 14.8161949 70.5918342 14.9043296 70.7958289 15.1062339 71.019828 15.330355 71.1368324 15.5603355 71.1728278 15.8391441 71.2858344 16.7742027 70.5968238 17.5242027 69.766822 17.3723472 69.1838294 17.2673667 68.8518287 16.8213218 68.8518287 16.1443199 68.8518287 15.8171714 68.8988258 15.6072105 69.0258247 15.3723472 69.2718269 14.9072593 69.7198249 14.6802085 70.2098304 14.771273zM41.2979979 13.1470785C41.2119994 13.1829672 41.0869994 13.2501059 41.0210051 13.2969809 40.8599944 13.4080649 40.5779967 13.7010336 40.469995 13.8721762L40.3850035 14.0081625 40.3850035 13.5870199 40.3850035 13.1670981 39.5409941 13.1670981 38.697 13.1670981 38.697 15.9891196 38.697 18.8101645 39.5550017 18.8101645 40.4119963 18.8101645 40.4119963 17.4051352C40.4119963 15.8670492 40.420999 15.7759848 40.5729918 15.4710531 40.7860045 15.054061 41.1760039 14.8650961 41.6959929 14.929061L41.9059996 14.9542074 41.9009948 14.0272055 41.8919921 13.0980063 41.670999 13.0921469C41.4909911 13.0870199 41.4190001 13.0980063 41.2979979 13.1470785zM58.892 15.9890215L58.892 18.8100664 59.7500017 18.8100664 60.6070116 18.8100664 60.6070116 15.9890215 60.6070116 13.167 59.7500017 13.167 58.892 13.167 58.892 15.9890215zM15.7413305 15.6677529C15.3183416 15.7727334 14.8893408 16.1267373 14.6903357 16.544706 14.455335 17.0317666 14.4633307 17.4707314 14.7153448 17.952665 14.9143347 18.3398721 15.2793402 18.6308877 15.6973394 18.7387978 15.7993444 18.7656533 15.9763311 18.7827431 16.1393408 18.7827431L16.4133429 18.7798135 16.2033361 18.702665C15.7273382 18.5246865 15.3703436 18.2707803 15.2403387 18.0137002 15.0553412 17.6506631 15.0523352 17.2278115 15.2293371 16.8486611 15.3233313 16.6467568 15.6413397 16.3288857 15.8493322 16.2268349 16.0873388 16.1096474 16.3993353 16.0576455 16.6263403 16.0937783 16.9783453 16.1457803 17.3153357 16.3586709 17.5393347 16.6657998 17.6193365 16.7737099 17.6193365 16.7737099 17.6003393 16.693876 17.5233435 16.3586709 17.1963324 15.9858681 16.8363318 15.8117959 16.4803442 15.6396767 16.0763372 15.5876748 15.7413305 15.6677529zM21.6278783 19.7682104C21.5118809 19.8170385 21.4148808 19.9032201 21.3618718 20.0062475 21.3098698 20.1080541 21.3128758 20.3431615 21.3708745 20.462058 21.4728795 20.6781225 21.7908726 20.7801732 22.0208836 20.6671361 22.4218846 20.4730443 22.3668767 19.8731908 21.9378758 19.7511205 21.8018742 19.7152318 21.7438756 19.7181615 21.6278783 19.7682104zM22.0208836 19.8402318C22.4138737 20.0611791 22.2638798 20.6642064 21.8128758 20.6642064 21.6528722 20.6642064 21.5418797 20.6112279 21.4478703 20.4872045 21.3508702 20.3600072 21.331873 20.2240209 21.3898717 20.0721654 21.4918767 19.8060522 21.7748814 19.7010717 22.0208836 19.8402318z"/>
    <path fill-rule="nonzero" d="M21.573,20.2191055 C21.573,20.5062148 21.5750142,20.5259902 21.6280079,20.5259902 C21.675005,20.5259902 21.6830006,20.5062148 21.6830006,20.4009902 C21.6830006,20.3130996 21.6940022,20.2772109 21.7220021,20.2772109 C21.7440052,20.2772109 21.7940083,20.3321426 21.8330098,20.4009902 C21.8830128,20.483998 21.9270039,20.5259902 21.9629994,20.5259902 C22.0180073,20.5259902 22.0180073,20.5259902 21.9570027,20.4210098 C21.9240132,20.3651016 21.8850117,20.3069961 21.8740101,20.2930801 C21.8630085,20.2820938 21.8800068,20.2462051 21.9069996,20.2191055 C21.9710103,20.1551406 21.977007,20.0191543 21.9160023,19.970082 C21.8939991,19.9500625 21.8050099,19.9310195 21.7220021,19.923207 L21.573,19.911 L21.573,20.2191055 Z M21.8330098,20.0440566 C21.8939991,20.1021621 21.8440114,20.1942031 21.7520009,20.1942031 C21.6920033,20.1942031 21.6830006,20.1829727 21.6830006,20.0970352 C21.6830006,20.0191543 21.6940022,20.0001113 21.7360096,20.0001113 C21.7660084,20.0001113 21.8110066,20.0191543 21.8330098,20.0440566 Z"/>
  </g>
</svg>
