<svg width="97" height="30" xmlns="http://www.w3.org/2000/svg"><g fill-rule="nonzero" fill="none"><path d="M14.1.057a5.069 5.069 0 00-2.992 1.544 6.452 6.452 0 00-1.675 3.214c-.07.343-.081.52-.081 1.209 0 .682.014.867.08 1.193a7 7 0 00.486 1.505c.18.401.614 1.146.647 1.11.01-.007-.008-.165-.037-.346-.38-2.162-.198-3.848.528-4.994.604-.957 1.725-1.726 2.905-1.997.43-.099 1.33-.099 1.76-.003 1.056.239 1.849.696 2.577 1.48.43.464.724.91.971 1.465.331.745.448 1.383.415 2.277-.025.834-.22 1.571-.614 2.359-.177.347-.125.33.25-.063.963-1.017 1.467-2.655 1.331-4.345-.074-.932-.239-1.61-.588-2.379a5.082 5.082 0 00-1.047-1.547A5.763 5.763 0 0014.1.057z" fill="#1F60AD"/><path d="M71.772 3.345c-.03.075-.926 2.21-1.992 4.746-1.067 2.531-1.978 4.703-2.026 4.816l-.084.205.643-.008.643-.011.5-1.194.5-1.19 1.893.01 1.897.01.5 1.182.5 1.182.65.011c.36.004.648-.003.64-.02-.01-.018-.949-2.22-2.084-4.895-1.136-2.674-2.08-4.891-2.095-4.922-.023-.04-.045-.02-.085.078zm.82 4.671c.368.858.657 1.567.65 1.576-.007.011-.644.011-1.416.007l-1.4-.012.662-1.575.702-1.675.036-.098.052.107c.03.06.35.807.714 1.67z" fill="#231F20" opacity=".88"/><path d="M14.403 3.499c-1.265.299-2.254 1.189-2.908 2.622-.368.812-.519 1.54-.519 2.522 0 .972.122 1.638.56 3.072.095.323.264.925.367 1.338.103.41.232.891.28 1.06.326 1.118.518 3.08.422 4.277-.133 1.623-.43 2.34-1.4 3.387-.968 1.037-1.956 1.58-3.42 1.875-.661.134-1.22.161-1.58.078-.757-.169-1.445-.787-1.809-1.618a8.027 8.027 0 01-.235-.685l-.121-.417v.337c-.007.99.33 1.864.96 2.502.455.46.94.704 1.587.8 1.533.227 3.155-.571 4.794-2.372l.485-.535v.145c0 .08-.033.304-.073.501l-.07.355-.342.35c-1.669 1.705-3.275 2.45-4.985 2.303-.933-.078-1.672-.44-2.29-1.126-.566-.626-.878-1.303-1.121-2.422-.037-.169-.081-.291-.096-.276-.054.06-.077.93-.033 1.344.062.555.187 1.004.423 1.52C4 26 5.52 26.873 7.34 26.762c1.268-.074 2.378-.587 3.47-1.595.735-.682 2.793-3.092 3.28-3.837.576-.89 1.175-1.491 1.856-1.857 1.08-.58 2.322-.658 3.83-.24 1.22.342 2.209.992 3.066 2.02.878 1.059 1.165 1.665 1.165 2.472 0 .796-.301 1.485-.982 2.258l-.26.299.252-.15c.766-.445 1.276-1.11 1.538-1.992.073-.257.083-.375.083-.887-.002-.54-.01-.618-.102-.897-.341-1.048-.982-1.852-1.99-2.493-.84-.54-2.249-1.064-3.219-1.202-.19-.028-.364-.06-.378-.075-.041-.039.268-.174.672-.3l.339-.102.393.107c.522.145 1.216.402 1.75.645 1.463.673 2.452 1.651 3.058 3.021.422.96.474 1.966.143 2.907-.231.654-.529 1.12-1.155 1.788-.256.276-.381.437-.33.422.188-.063.871-.466 1.11-.658a4.42 4.42 0 001.518-2.39c.08-.324.095-.466.1-.99.003-.819-.11-1.346-.456-2.094-.776-1.687-2.096-2.718-4.191-3.282a9.412 9.412 0 01-.754-.236 63.305 63.305 0 00-1.525-.508c-1.246-.397-1.863-.627-2.537-.933-1.484-.686-2.557-1.587-2.973-2.497-.76-1.678-.901-3.422-.4-5.096.301-1.017.547-1.537.922-1.958.412-.468.857-.705 1.504-.807.419-.067.86-.013 1.573.185.146.038-.14-.162-.453-.323-.444-.225-.782-.3-1.33-.3-.57 0-.9.08-1.334.324a2.71 2.71 0 00-.938.826 4.589 4.589 0 00-.816 1.986c-.073.453-.073 1.489 0 2.083.1.82.306 1.736.512 2.304l.091.252-.1-.028c-.128-.036-.48-.264-.584-.382-.054-.062-.125-.283-.227-.74-.522-2.276-.456-3.832.22-5.309.61-1.324 1.503-2.088 2.712-2.312.618-.118 1.236-.055 2.077.201.24.074.445.13.45.122.037-.035-.563-.454-.924-.642-.629-.327-.974-.414-1.727-.434-.51-.011-.68 0-.937.06z" fill="#1F60AD"/><path d="M34.082 3.709c.166.417 3.935 9.558 3.97 9.632.042.083.244-.381 2.092-4.804a591.615 591.615 0 002.047-4.928c0-.016-.29-.023-.647-.018l-.643.011-1.386 3.336c-.76 1.835-1.392 3.34-1.404 3.34-.01 0-.64-1.501-1.4-3.34l-1.374-3.336-.656-.011-.65-.01.051.128z" fill="#231F20" opacity=".88"/><path d="M15.413 6.623c-.625.776-.544 2.185.165 2.945.364.39 1.007.67 1.544.67.294 0 .685-.099.952-.244.467-.245.908-.847 1.052-1.434.11-.45.062-1.04-.118-1.473-.084-.208-.269-.528-.287-.504-.007.008.012.174.045.366.065.41.048.914-.041 1.228-.136.466-.585.91-1.085 1.077-1.29.428-2.595-.856-2.264-2.225.033-.127.088-.308.13-.403a.668.668 0 00.054-.17c-.007 0-.073.076-.147.167z" fill="#1F60AD"/><path d="M44.659 6.772c-1.184.267-2.13 1.275-2.383 2.54-.041.2-.052.43-.037.827.015.48.03.599.129.925.166.535.339.827.761 1.284.319.343.412.417.716.58.47.243.706.307 1.27.33.553.024.965-.043 1.417-.228.456-.19.938-.552 1.244-.941l.15-.19-.45-.358-.447-.359-.206.214c-.658.696-1.61.878-2.408.46-.364-.193-.576-.386-.761-.69-.117-.196-.323-.764-.323-.893 0-.02.934-.036 2.462-.036h2.464v-.11c0-.06-.019-.267-.041-.461-.15-1.335-.915-2.366-2.059-2.78-.308-.114-.397-.126-.84-.139-.273-.007-.57.005-.658.025zm.896 1.181c.313.054.698.272.927.52.172.19.451.626.451.709 0 .015-.776.031-1.727.031-.949 0-1.727-.016-1.727-.031 0-.02.058-.138.131-.268.419-.748 1.132-1.103 1.945-.96zM52.594 6.795c-.4.116-.676.37-1.061.977l-.225.355V6.929h-1.213v6.184h1.246l.01-1.941.013-1.938.117-.265c.228-.52.687-.858 1.176-.87.14-.004.324.005.416.025l.164.027.181-.65c.1-.358.169-.662.158-.673-.092-.1-.676-.118-.982-.033zM56.694 6.773c-.974.208-1.856 1.169-2.154 2.343-.114.449-.114 1.316 0 1.773.269 1.066.989 1.941 1.856 2.252.265.095.356.107.794.11.57 0 .823-.066 1.26-.342.248-.154.66-.551.847-.819l.098-.138v1.162h1.213V6.929h-1.213v1.242l-.077-.138a2.727 2.727 0 00-1.569-1.225 2.697 2.697 0 00-1.055-.035zm1.353 1.24c.345.08.665.272.944.57.375.404.552.856.552 1.419 0 1.26-1.022 2.23-2.173 2.055-1.25-.188-2.003-1.696-1.459-2.92a2.26 2.26 0 01.923-.97c.415-.208.768-.257 1.213-.154zM79.069 6.811c-.93.26-1.734 1.17-2.036 2.305-.07.268-.085.402-.081.906.004.523.015.63.1.938.26.917.82 1.65 1.56 2.051.663.359 1.538.343 2.218-.04.272-.153.687-.54.923-.854l.14-.193v4.104h1.212V6.93h-1.213l-.004.6c0 .58-.002.598-.062.504-.65-1.024-1.742-1.505-2.757-1.222zm1.427 1.198c.323.075.525.178.8.398.259.21.515.567.633.886.103.272.136.807.077 1.15-.124.678-.632 1.308-1.235 1.529-1.132.417-2.381-.426-2.529-1.706-.073-.626.106-1.186.54-1.674.475-.535 1.052-.733 1.714-.583zM93.086 6.773c-.974.208-1.857 1.169-2.154 2.343-.115.449-.115 1.316 0 1.773.268 1.066.988 1.941 1.856 2.252.264.095.356.107.793.11.57 0 .824-.066 1.261-.342.247-.154.66-.551.847-.819l.098-.138v1.162H97V6.929h-1.213v1.242l-.077-.138a2.727 2.727 0 00-1.57-1.225 2.697 2.697 0 00-1.054-.035zm1.352 1.24c.346.08.666.272.945.57.375.404.551.856.551 1.419 0 1.26-1.021 2.23-2.172 2.055-1.25-.188-2.004-1.696-1.46-2.92a2.26 2.26 0 01.923-.97c.416-.208.768-.257 1.213-.154zM84.655 9.024c.016 2.344.012 2.29.283 2.888a2.359 2.359 0 001.342 1.224c.233.084.398.111.758.123.547.024.907-.052 1.36-.292.382-.201.812-.665 1-1.075.264-.587.261-.535.276-2.868l.015-2.095H88.47V8.67c0 .96-.018 1.875-.037 2.037-.065.536-.308.933-.69 1.133-.18.096-.25.107-.54.107-.18 0-.401-.024-.486-.047a1.194 1.194 0 01-.606-.48c-.206-.36-.213-.47-.213-2.568V6.93h-1.254l.01 2.095z" fill="#231F20" opacity=".88"/><path d="M78.955 14.31c-.225.079-.526.311-.68.525a1.505 1.505 0 00-.287.917c0 .528.22.958.636 1.257.562.401 1.324.294 1.794-.252.254-.3.35-.576.35-1.005 0-.429-.096-.705-.35-1.004-.276-.319-.574-.466-.986-.481a1.455 1.455 0 00-.477.044zM32.502 14.558c.015.04.978 2.8 2.146 6.136l2.124 6.066h2.196l2.128-6.046a895.103 895.103 0 002.146-6.136l.023-.087h-1.25c-.967 0-1.254.012-1.268.047-.007.029-.647 1.84-1.423 4.03a607.574 607.574 0 01-1.43 4.028c-.015.029-.672-1.78-1.459-4.016l-1.438-4.069-1.257-.011c-1.186-.009-1.257-.004-1.238.058zM66.394 14.558c.015.04.978 2.8 2.146 6.136l2.125 6.066H72.86l2.128-6.046a991.362 991.362 0 002.146-6.136l.023-.087h-1.25c-.966 0-1.253.012-1.268.047-.008.029-.647 1.84-1.423 4.03a607.567 607.567 0 01-1.43 4.028c-.015.029-.672-1.78-1.459-4.016l-1.438-4.069-1.257-.011c-1.187-.009-1.257-.004-1.238.058zM84.245 17.367v1.378h-.847v2.245h.847v5.789H86.523V20.99h1.066v-2.245h-1.065v-2.758h-2.28v1.38z" fill="#231F20" opacity=".88"/><path d="M4.79 17.466c-1.165.22-2.294.858-3.177 1.79a5.735 5.735 0 00-1.088 1.596c-.426.919-.551 1.592-.52 2.757.025 1.036.164 1.674.557 2.568.691 1.567 1.776 2.62 3.217 3.123.677.237 1.047.295 1.875.295.79 0 1.095-.047 1.728-.263 1.492-.508 2.79-1.773 3.458-3.367.119-.283.11-.28-.224.027-1.1 1.005-2.198 1.663-3.216 1.915-.441.11-1.213.102-1.654-.02a4.886 4.886 0 01-3.081-2.593 5.496 5.496 0 01-.54-2.413c0-1.048.28-2.04.823-2.916a4.681 4.681 0 013.9-2.212l.328-.004-.163-.075a4.146 4.146 0 00-.46-.157c-.389-.103-1.337-.134-1.764-.051zM23.224 17.517l-.129.027.22.076c.123.038.427.16.68.267 1.994.859 3.137 1.996 3.511 3.505a5.444 5.444 0 01-.301 3.49c-.298.677-.908 1.465-1.5 1.93a5.318 5.318 0 01-2.028.941c-.456.094-1.357.094-1.777-.004-1.315-.308-2.395-1.135-3.142-2.406-.22-.383-.225-.374-.092.22.309 1.374 1.36 2.647 2.812 3.403 1.68.878 3.423.898 4.981.058 1.61-.865 2.841-2.602 3.184-4.488.098-.557.092-1.536-.019-2.089-.257-1.291-.768-2.323-1.6-3.209-.643-.689-1.319-1.143-2.15-1.438-.61-.22-.973-.28-1.786-.296-.404-.007-.794-.003-.864.013z" fill="#1F60AD"/><path d="M5.601 18.449a2.097 2.097 0 00-1.169.918c-.158.252-.264.48-.231.48.007 0 .092-.075.191-.161.827-.772 1.573-.899 2.286-.386.287.205.46.421.614.764.172.39.22.772.147 1.162-.162.83-.699 1.394-1.463 1.539-.335.064-.246.107.229.111.429.004.741-.102 1.113-.374.672-.493 1.011-1.256.918-2.065-.11-.932-.606-1.645-1.352-1.937-.283-.106-1.008-.137-1.283-.051z" fill="#1F60AD"/><path d="M45.35 18.627c-1.338.243-2.482 1.244-2.934 2.568-.451 1.316-.26 3.076.452 4.147.58.866 1.442 1.403 2.512 1.555.414.064 1.282.033 1.646-.054.786-.185 1.371-.52 1.897-1.088.246-.267.658-.858.658-.945 0-.02-.46-.196-1.018-.397l-1.019-.363-.054.095a2.423 2.423 0 01-.758.728c-.47.249-.952.269-1.375.055-.485-.248-.882-.898-.886-1.45v-.124H49.802v-.38c0-.744-.17-1.567-.446-2.149a4.061 4.061 0 00-.71-1.048c-.72-.804-1.598-1.194-2.667-1.185-.254.004-.537.02-.629.035zm1.19 1.674c.376.141.725.63.887 1.229l.055.208h-1.507c-.828 0-1.504-.016-1.504-.031 0-.09.122-.504.188-.646.11-.233.39-.536.602-.654.375-.208.89-.248 1.28-.106zM59.582 18.632c-1.194.252-2.274 1.433-2.628 2.874a5.45 5.45 0 00.06 2.793c.308 1.047.962 1.922 1.757 2.347.353.189.613.256 1.084.28.816.035 1.309-.154 1.86-.725.173-.18.39-.434.478-.563l.161-.241.012.693.007.69H64.616v-8.034H62.373v1.074l-.246-.256c-.5-.51-.971-.811-1.438-.917-.268-.064-.849-.07-1.107-.015zm1.434 2.397c.302.064.508.19.78.477.298.32.452.646.5 1.043.15 1.332-.764 2.4-1.867 2.183-.776-.15-1.217-.784-1.217-1.748 0-.466.062-.765.23-1.1.328-.661.924-.985 1.574-.855zM91.857 18.632c-1.195.252-2.275 1.433-2.628 2.874a5.451 5.451 0 00.058 2.793c.31 1.047.963 1.922 1.758 2.347.352.189.614.256 1.084.28.816.035 1.31-.154 1.86-.725.173-.18.39-.434.478-.563l.162-.241.01.693.008.69h2.242v-8.034h-2.242v1.074l-.247-.256c-.5-.51-.97-.811-1.436-.917-.269-.064-.85-.07-1.107-.015zm1.434 2.397c.301.064.507.19.778.477.298.32.453.646.501 1.043.15 1.332-.765 2.4-1.868 2.183-.775-.15-1.216-.784-1.216-1.748 0-.466.063-.765.231-1.1.327-.661.923-.985 1.574-.855zM54.874 18.717a2.25 2.25 0 00-.368.213 3.693 3.693 0 00-.732.82l-.113.193v-1.198H51.418V26.78h2.279v-2c0-2.19.012-2.32.214-2.754.283-.593.801-.862 1.492-.771l.28.036-.007-1.32-.012-1.323-.294-.008c-.24-.008-.335.008-.496.078zM78.252 22.763v4.016h2.279V18.745h-2.279v4.018z" fill="#231F20" opacity=".88"/><path d="M20.916 22.305c-.562.15-1.132.654-1.396 1.249-.313.693-.302 1.318.033 2.004.264.552.75.966 1.305 1.12.135.038.37.062.587.062l.364-.004-.279-.11c-.632-.253-1.107-.615-1.28-.98a1.996 1.996 0 01-.014-1.66c.125-.287.547-.74.824-.885.316-.167.73-.24 1.032-.19.468.075.916.378 1.213.815.107.154.107.154.081.04-.102-.477-.537-1.008-1.015-1.256-.473-.245-1.01-.319-1.455-.205z" fill="#1F60AD"/><path d="M28.738 28.143a.725.725 0 00-.354.339c-.069.145-.065.48.012.649.136.307.558.453.864.292.533-.277.46-1.13-.11-1.304-.181-.051-.258-.047-.412.024zm.522.103c.522.314.323 1.173-.276 1.173a.542.542 0 01-.485-.252.606.606 0 01-.077-.591c.135-.38.511-.529.838-.33z" fill="#535E5E"/><path d="M28.665 28.847c0 .467.004.5.11.5.094 0 .11-.033.11-.204 0-.143.022-.201.078-.201.044 0 .144.09.222.201.1.135.188.203.26.203.11 0 .11 0-.012-.17a2.727 2.727 0 00-.166-.208c-.022-.018.012-.077.066-.12.128-.105.14-.326.018-.406-.044-.032-.222-.063-.388-.076l-.298-.02v.501zm.52-.284c.122.094.022.244-.162.244-.12 0-.138-.018-.138-.158 0-.127.022-.158.106-.158.06 0 .15.031.194.072z" fill="#535E5E"/></g></svg>