<svg xmlns="http://www.w3.org/2000/svg" width="399" height="200" viewBox="0 0 399 200">
  <g fill="none" fill-rule="evenodd" transform="translate(-19 -9.25)">
    <g fill-rule="nonzero" stroke-linecap="round" stroke-linejoin="round" transform="translate(70.837 79.069)">
      <g stroke="#222F3C" stroke-width=".5" transform="translate(22.534 8.667)">
        <g transform="translate(66.306 26.326)">
          <g transform="translate(0 7.063)">
            <line x1="28.893" x2="28.893" y1="5.866" y2="8.872"/>
            <g transform="translate(2.255 12.485)">
              <g transform="translate(14.337 1.396)">
                <line y2="4.961"/>
                <line x1="21.862" x2="21.862" y2="4.961"/>
              </g>
              <rect width="5.813" height="6.453" x="23.759" rx="1"/>
              <line y2="4.961" transform="translate(0 1.396)"/>
            </g>
            <path d="M4.39786642,11.7890564 L18.4578998,11.7890564 L28.8329894,0 L10.3750895,0 L0,11.7890564"/>
            <line x1="28.928" x2="39.303" y1=".016" y2="11.805"/>
          </g>
          <g transform="translate(18.68)">
            <line x1="24.807" x2="24.807" y1="5.867" y2="8.872"/>
            <g transform="translate(21.928 12.338)">
              <line y2="4.961" transform="translate(12.44 1.408)"/>
              <rect width="5.813" height="6.453" rx="1"/>
            </g>
            <path d="M14.3707988,11.7892234 L24.7458883,0 L6.28807165,0 L0,7.01733523"/>
            <line x1="24.842" x2="35.217" y1=".017" y2="11.806"/>
          </g>
        </g>
        <g transform="translate(46.867 20.039)">
          <g transform="translate(0 7.063)">
            <line x1="24.356" x2="24.356" y1="5.866" y2="8.872"/>
            <g transform="translate(12.055 12.338)">
              <line y2="4.961" transform="translate(0 1.54)"/>
              <path d="M9.42153464,3.27709388 L9.42153464,0.590871981 C9.42153464,0.263964002 9.6858141,0 10.0101344,0 L12.4107699,0"/>
            </g>
            <path d="M4.40393703,11.7890564 L13.9203262,11.7890564 L24.2954157,0 L5.83759907,0 L0,6.67506691"/>
            <line x1="24.391" x2="29.784" y1=".016" y2="6.282"/>
          </g>
          <g transform="translate(14.143)">
            <line x1="24.807" x2="24.807" y1="5.867" y2="8.872"/>
            <path d="M0,1.0938709 L0,0.66367377 C0,0.298174991 0.264279465,0 0.588599764,0 L2.9129784,0" transform="translate(21.928 12.338)"/>
            <path d="M14.3707988,11.7892234 L24.7458883,0 L6.28807165,0 L0,7.01733523"/>
            <line x1="24.842" x2="30.321" y1=".016" y2="6.271"/>
          </g>
        </g>
        <g transform="translate(0 20.628)">
          <g transform="translate(17.496 12.761)">
            <line x1="10.547" x2="10.411" y1="5.866" y2="8.872"/>
            <g transform="translate(.849 12.338)">
              <g transform="translate(0 1.541)">
                <line x1="21.999" x2="21.862" y2="4.961"/>
                <line x1=".136" y2="4.961"/>
              </g>
              <path d="M7.62845495,6.7557148e-07 L11.4415929,6.7557148e-07 C11.9938777,6.7557148e-07 12.4415929,0.447715926 12.4415929,1.00000068 L12.4415929,5.45284361 C12.4415929,6.00512836 11.9938777,6.45284361 11.4415929,6.45284361 L7.62845495,6.45284361 C7.0761702,6.45284361 6.62845495,6.00512836 6.62845495,5.45284361 L6.62845495,1.00000068 C6.62845495,0.447715926 7.0761702,6.7557148e-07 7.62845495,6.7557148e-07 Z" transform="rotate(-180 9.535 3.226)"/>
              <line x1=".229" y2="4.961" transform="translate(36.2 1.541)"/>
            </g>
            <path d="M34.9063676,11.7890564 L20.8464174,11.7890564 L10.4713278,0 L28.9291445,0 L39.3042341,11.7890564"/>
            <line x1="10.375" y1=".016" y2="11.805"/>
          </g>
          <line x1="13.449" x2="13.313" y1="11.565" y2="14.57"/>
          <g transform="translate(3.752 18.11)">
            <line x1=".229" y2="4.961" transform="translate(0 1.468)"/>
            <path d="M7.62709247,6.75474944e-07 L11.4402304,6.75474944e-07 C11.9925152,6.75474944e-07 12.4402304,0.447715926 12.4402304,1.00000068 L12.4402304,5.45284361 C12.4402304,6.00512836 11.9925152,6.45284361 11.4402304,6.45284361 L7.62709247,6.45284361 C7.07480772,6.45284361 6.62709247,6.00512836 6.62709247,5.45284361 L6.62709247,1.00000068 C6.62709247,0.447715926 7.07480772,6.75474945e-07 7.62709247,6.75474944e-07 Z" transform="rotate(-180 9.534 3.226)"/>
          </g>
          <g transform="translate(2.902 5.698)">
            <path d="M20.8464154,11.7892234 L10.4713259,0 L28.9292257,0 L35.2172142,7.01733523"/>
            <line x1="10.375" y1=".017" y2="11.806"/>
          </g>
          <path d="M15.4526941,5.64876285 L10.4712174,0 L28.9291172,0 L32.3506964,3.88048787"/>
          <line x1="10.375" y1=".017" y2="11.806"/>
          <line x1="10.571" x2="10.435" y1="5.894" y2="8.899"/>
        </g>
        <g transform="translate(43.178 14.405)">
          <path d="M22.8694875,0 L10.3750895,0 L0,11.7892234" transform="translate(0 7.063)"/>
          <g transform="translate(18.68)">
            <path d="M19.5049554,5.61754131 L24.7458883,0 L6.28807165,0 L0,7.01733523"/>
            <line x1="24.841" x2="35.217" y1=".016" y2="11.805"/>
          </g>
        </g>
        <g transform="translate(47.552 5.684)">
          <path d="M19.2468298,0 L6.75243179,0 L0,7.60286448" transform="translate(0 7.063)"/>
          <g transform="translate(15.058)">
            <path d="M19.5049554,5.61754131 L24.7458883,0 L6.28807165,0 L0,7.01733523"/>
            <line x1="24.841" x2="35.216" y1=".016" y2="11.806"/>
          </g>
        </g>
        <path d="M20.8830672,0 L2.42516741,0 L0,3.03199638" transform="translate(30.988 23.302)"/>
        <line x1="97.081" x2="97.081" y1="19.522" y2="23.241"/>
        <g transform="translate(25.343 14.583)">
          <path d="M8.09760795,5.61754131 L2.85667507,0 L21.3145749,0 L24.2492578,3.25739258"/>
          <line x1="2.76" y1=".017" y2="3.04"/>
        </g>
        <g transform="translate(36.704 6.769)">
          <path d="M8.09656081,5.61754131 L2.85562793,0 L21.3134446,0 L24.2482107,3.25739258"/>
          <line x1="2.76" y1=".016" y2="3.039"/>
        </g>
        <g transform="translate(57.965)">
          <path d="M16.1515667,5.61754131 L21.3924996,0 L2.93468291,0 L0,3.25739258"/>
          <line x1="21.489" x2="24.249" y1=".017" y2="3.04"/>
        </g>
      </g>
      <g stroke="#222F3C" stroke-width=".5" transform="translate(0 53.788)">
        <line x2="133.139" y1="7.233" y2="7.233"/>
        <line x1="133.984" x2="183.578"/>
      </g>
      <path stroke="#222F3C" stroke-width=".5" d="M6.41730082,11.7282829 L21.4263453,11.7282829 C21.9549874,11.7282829 22.9155576,10.9801345 22.9155576,9.79288081 C22.9155576,8.60429148 21.9549874,7.85764568 20.7723825,7.85764568 L19.8758448,7.85764568 C20.0924741,7.85764568 20.2177948,6.84002355 20.2177948,6.29022376 C20.2177948,4.27134159 18.5882932,2.62194224 16.5772579,2.62194224 C15.6221762,2.62194224 14.7556589,2.9870841 14.1057709,3.59164681 C13.4558829,2.44813672 12.2309501,1.67260681 10.8248968,1.67260681 C10.2172537,1.67260681 9.64636677,1.81769519 9.13818181,2.07347814 C8.21578162,0.817770829 6.73613262,0 5.06438621,0 C2.26716521,0 0,2.30321531 0,5.10981548 C0,6.1124112 0.292969337,7.37346123 0.790260463,7.85764568" transform="translate(25.736)"/>
      <path stroke="#222F3C" stroke-width=".5" d="M5.28916513,0.195677299 C5.63660365,0.0657823003 6.00042449,0 6.37372548,0 C7.87923694,0 9.17768236,1.10377357 9.43381224,2.58504405 C10.3916382,3.04602103 11.0047699,4.01839696 11.0047699,5.08944634 C11.0047699,6.62130575 9.76353788,7.86732937 8.23756929,7.86732937 L2.76720059,7.86732937 C1.241232,7.86732937 0,6.62130575 0,5.08944634 C0,3.55758694 1.241232,2.31156332 2.76720059,2.31156332 C2.96345595,2.31156332 3.16095869,2.3334351 3.35580035,2.37584298 C3.43214036,2.06663277 3.55338626,1.77128026 3.72095174,1.49779953" transform="translate(21.241 7.663)"/>
      <g stroke="#222F3C" stroke-width=".5" transform="translate(153.177 32.322)">
        <path d="M11.8766925,3.93909089 C11.7486276,1.7438988 9.86025185,0 7.54269226,0 C5.22371896,0 3.33534322,1.7438988 3.20860883,3.93909089 C1.36114735,4.41910133 0,6.03577649 0,7.96299753 C0,9.88738026 1.3584031,11.5027197 3.20453404,11.9854015 C3.20187295,12.0361574 3.19638445,12.0852437 3.19638445,12.1359996 C3.19638445,14.4405506 5.14197361,16.3088347 7.54269226,16.3088347 C9.9419972,16.3088347 11.8890001,14.4405506 11.8890001,12.1359996 C11.8890001,12.0852437 11.882181,12.0361574 11.8808505,11.9854015"/>
        <line x1="7.593" x2="10.996" y1="9.145" y2="6.061"/>
        <line x1="7.354" x2="4.436" y1="10.952" y2="7.103"/>
        <line x1="7.451" x2="7.451" y1="6.788" y2="21.388"/>
        <g transform="translate(11.952 4.83)">
          <path d="M0,7.13554302 C0.343280563,8.17904397 1.21254212,8.99831744 2.32703973,9.28699155 C2.32570918,9.32522542 2.32030385,9.36362626 2.32030385,9.40319581 C2.32030385,11.1895025 3.84078394,12.6365461 5.71552159,12.6365461 C7.59034239,12.6365461 9.11082248,11.1895025 9.11082248,9.40319581 C9.11082248,9.36362626 9.10541715,9.32522542 9.10400344,9.28699155 C10.5455656,8.91350168 11.6069246,7.66213534 11.6069246,6.16984549 C11.6069246,4.6777226 10.5441519,3.42485362 9.09992865,3.0528664 C9.00188413,1.35137548 7.52630992,0 5.71552159,0 C4.48526658,0 3.41841912,0.630608498 2.82574456,1.56475055"/>
          <line x1="5.751" x2="8.413" y1="7.37" y2="4.697"/>
          <line x1="5.569" x2="3.289" y1="8.487" y2="5.504"/>
          <line x1="5.644" x2="5.644" y1="5.26" y2="16.572"/>
        </g>
      </g>
      <g stroke="#231F20" stroke-width=".4" transform="translate(111.302 66.212)">
        <path d="M5.01257813,10.0638571 C2.24812179,10.0638571 0,7.80572107 0,5.03201205 C0,2.25813607 2.24812179,0 5.01257813,0 C7.77562076,0 10.0237425,2.25813607 10.0237425,5.03201205 C10.0237425,7.80572107 7.77562076,10.0638571 5.01257813,10.0638571 Z" transform="translate(2.053 3.534)"/>
        <path d="M3.81226038,7.65378733 C1.70991641,7.65378733 0,5.93593432 0,3.82689367 C0,1.71651733 1.70991641,0 3.81226038,0 C5.91452119,0 7.6244376,1.71651733 7.6244376,3.82689367 C7.6244376,5.93593432 5.91452119,7.65378733 3.81226038,7.65378733 Z" transform="translate(18.12 5.944)"/>
        <path d="M3.02881896,0 C4.69915166,0 6.05755476,1.36356357 6.05755476,3.04051135 C6.05755476,4.71729216 4.69915166,6.08102269 3.02881896,6.08102269 C1.3584031,6.08102269 0,4.71729216 0,3.04051135 C0,2.45782041 0.164904398,1.89165853 0.475503454,1.40330009" transform="translate(4.037 5.526)"/>
        <path d="M1.83390655,3.68046961 C0.82294197,3.68046961 0,2.85568646 0,1.84090265 C0,0.826118837 0.82294197,0 1.83390655,0 C2.84478798,0 3.66772995,0.826118837 3.66772995,1.84090265 C3.66772995,2.85568646 2.84478798,3.68046961 1.83390655,3.68046961 Z" transform="translate(20.098 7.93)"/>
        <line x1="6.753" transform="translate(11.528 10.872)"/>
        <line x1="2.286" y1=".229" transform="translate(15.878 9.17)"/>
        <path d="M0.179873028,4.9991209 C0.0804148025,4.9991209 0,4.91831219 0,4.81847001 L0,0.180483925 C0,0.0806417539 0.0804148025,0 0.179873028,0 L10.2172537,0 C10.8194915,0 11.3099636,0.492365491 11.3099636,1.0969282 L11.3099636,4.68172965 C11.3099636,5.28629236 10.8194915,5.77865785 10.2172537,5.77865785 L10.0183372,5.77865785" transform="translate(15.71 4.172)"/>
        <path d="M2.03556725,8.17904397 L1.09270993,8.17904397 C0.490555243,8.17904397 0,7.68667848 0,7.08228273 L0,1.0969282 C0,0.492365491 0.490555243,0 1.09270993,0 L2.23315316,0" transform="translate(0 1.026)"/>
        <path d="M0,0 L3.71687695,0 C4.16784848,0 4.57798892,0.438894024 4.73873537,1.0938709" transform="translate(4.72 1.026)"/>
        <path d="M1.54775626,2.20070178 L0.178459324,2.20070178 C0.0790010986,2.20070178 0,2.13224811 0,2.04609667 L0,0.154605102 C0,0.0697893439 0.0790010986,0 0.178459324,0 L1.54775626,0 C1.64588394,0 1.72621558,0.0697893439 1.72621558,0.154605102 L1.72621558,2.04609667 C1.72621558,2.13224811 1.64588394,2.20070178 1.54775626,2.20070178 Z" transform="translate(19.432 1.97)"/>
        <line y1="1.969" transform="translate(20.116)"/>
        <line y2="2.001" transform="translate(23.36 2.151)"/>
        <line x2="1.093" y2="1.094" transform="translate(14.869 3.313)"/>
        <line x1="2.036" y2="2.044" transform="translate(13.726 2.424)"/>
        <path d="M0,0 L1.65577987,4.35866175 L3.52494586,4.35866175" transform="translate(8.954 .306)"/>
        <line y1="1.394" transform="translate(16.737 5.463)"/>
        <line y1="1.394" transform="translate(17.55 5.463)"/>
        <line y1="1.394" transform="translate(18.363 5.463)"/>
      </g>
      <g stroke="#222F3C" stroke-width=".5" transform="translate(2.646 30.282)">
        <path d="M17.0772933,5.66395623 C16.894676,2.50707366 14.1779529,0 10.8452708,0 C7.51267184,0 4.79727934,2.50707366 4.61466207,5.66395623 C1.95781354,6.35467038 0,8.67975747 0,11.4494594 C0,14.2176588 1.95373875,16.5400745 4.60784302,17.233627 C4.60518193,17.3060877 4.59694919,17.3772127 4.59694919,17.4496734 C4.59694919,20.7636655 7.39417019,23.4498874 10.8452708,23.4498874 C14.2964546,23.4498874 17.0950061,20.7636655 17.0950061,17.4496734 C17.0950061,17.3772127 17.0854429,17.3060877 17.0826986,17.233627"/>
        <line x1="10.919" x2="13.089" y1="13.15" y2="10.758"/>
        <line x1="10.575" x2="6.589" y1="15.748" y2="11.747"/>
        <line x1="10.714" x2="10.714" y1="7.059" y2="30.563"/>
        <line x1="10.571" x2="8.992" y1="11.06" y2="9.476"/>
      </g>
      <path stroke="#222F3C" stroke-width=".5" d="M6.49497137,0 C4.95403415,0.162786149 4.85316222,1.73020806 4.84908743,1.7958234 L4.81091743,2.5152547 L4.24418849,2.0761495 C2.40204919,0.646803632 0.0245319201,1.24051394 0,1.24602362" transform="translate(145.127 27.925)"/>
      <path stroke="#222F3C" stroke-width=".5" d="M6.49355767,0 C4.95253729,0.162786149 4.85174852,1.73020806 4.84900427,1.7958234 L4.81083427,2.5152547 L4.24410533,2.0761495 C2.40204919,0.646970593 0.0231182162,1.24051394 0,1.24602362" transform="translate(139.653 18.032)"/>
      <g stroke="#231F20" stroke-width=".4" transform="translate(35.503 74.16)">
        <g transform="translate(12.153)">
          <path d="M17.5854782,14.4433889 C17.6686373,14.4433889 17.7340003,14.3762709 17.7340003,14.2942935 L17.7340003,0.149095417 C17.7340003,0.0669510213 17.6686373,0 17.5854782,0 L5.87768174,0 C5.84907502,0 5.82188201,0.00818104749 5.79735009,0.0232074613 C5.68017899,0.0985064902 2.95114841,1.87245812 2.09818602,4.15380164 C1.8352371,4.15931133 1.06410322,4.13460123 0.539535924,3.65592647 C0.181203572,3.32901849 0,2.84633669 0,2.22390924" transform="translate(3.354)"/>
          <g transform="translate(0 4.445)">
            <path d="M9.36158561,9.99826183 C9.44333096,9.99826183 9.51010767,9.93114385 9.51010767,9.84916642 L9.51010767,6.13430301"/>
            <path d="M2.69501853,0 L0.025945624,4.01839696 C0.00956329088,4.04310706 0,4.07182421 0,4.10187704 L0,5.91690086 C0,5.99887829 0.0667767181,6.06599628 0.149935769,6.06599628 L6.24291629,6.06599628 L6.24291629,9.84914638 C6.24291629,9.93112382 6.3082793,9.9982418 6.39143835,9.9982418 L7.94052516,9.9982418 C8.02227051,9.9982418 8.08904722,9.93112382 8.08904722,9.84914638 L8.08904722,6.10973984 L10.2581679,6.10973984"/>
          </g>
          <path d="M0,2.33610646 L0,3.78865979 C0,3.86796586 0.0654461733,3.93374816 0.144447272,3.93374816 L1.65403353,3.93374816 C1.73444833,3.93374816 1.7984808,3.86796586 1.7984808,3.78865979 L1.7984808,0" transform="translate(17.846 10.51)"/>
          <path d="M0,0 L5.53440117,0 C5.56708268,1.35271116 6.6734307,2.44145832 8.02767584,2.44145832" transform="translate(9.362 10.55)"/>
          <path d="M0.92578125,5.48731239 L0.92578125,4.35632431 C0.92578125,4.31658779 0.900669643,4.2796896 0.852678571,4.25097245 L0,3.74074223 L0,0" transform="translate(22.123 1.46)"/>
          <g transform="translate(2.476 6.516)">
            <path d="M0,0 C0,0.13720409 0.0667767181,0.249538192 0.148522065,0.249538192 L1.0354965,0.249538192 C1.1185724,0.249538192 1.18534912,0.13720409 1.18534912,0"/>
          </g>
          <g transform="translate(12.073 14.443)">
            <line x2="10.453" y2=".229"/>
          </g>
          <g transform="translate(0 14.294)">
            <path d="M0,0 C0,0.13720409 0.0667767181,0.249538192 0.149935769,0.249538192 L9.9897305,0.249538192"/>
          </g>
        </g>
        <g transform="translate(0 11.188)">
          <line x1="3.183" x2="3.047" y1="1.777" y2="3.084"/>
          <line x1="4.647" x2="4.51" y2="3.084"/>
          <line x1="6.209" x2="6.072" y1="1.777" y2="3.084"/>
          <g>
            <line x1=".136" y1="1.777" y2="3.084"/>
            <line x1="1.6" x2="1.464" y2="3.084"/>
            <line x1="3.162" x2="3.026" y1="1.777" y2="3.084"/>
          </g>
          <line x1="9.251" x2="9.115" y1="1.777" y2="3.084"/>
          <line x1="10.715" x2="10.579" y2="3.084"/>
          <line x1="12.277" x2="12.141" y1="1.777" y2="3.084"/>
          <line x1="6.204" x2="6.068" y1="1.777" y2="3.084"/>
          <line x1="7.668" x2="7.532" y2="3.084"/>
          <line x1="9.23" x2="9.094" y1="1.777" y2="3.084"/>
        </g>
      </g>
      <g stroke="#231F20" stroke-width=".4" transform="translate(72.02 68.993)">
        <g transform="translate(6.085)">
          <path d="M17.5854782,14.443222 C17.6672236,14.443222 17.7340003,14.3776066 17.7340003,14.2941265 L17.7340003,0.149095417 C17.7340003,0.0669510213 17.6672236,0 17.5854782,0 L5.87776489,0 C5.84915818,0 5.82055147,0.00818104749 5.79735009,0.0245431425 C5.68017899,0.0998421715 2.95114841,1.87245812 2.09826918,4.15380164 C1.8352371,4.15931133 1.06410322,4.13460123 0.539535924,3.65592647 C0.181203572,3.32901849 0,2.84750541 0,2.22390924" transform="translate(3.354)"/>
          <g transform="translate(0 4.445)">
            <path d="M9.36022313,9.99809487 C9.44329902,9.99809487 9.5087452,9.93247953 9.5087452,9.84899946 L9.5087452,6.13430301"/>
            <path d="M2.69360483,0 L0.0258624649,4.01973264 C0.00948013183,4.04427578 0,4.07299293 0,4.10171008 L0,5.9167339 C0,6.00021398 0.0667767181,6.06582932 0.148522065,6.06582932 L6.24150258,6.06582932 L6.24150258,9.84897942 C6.24150258,9.9324595 6.3082793,9.99807484 6.39002465,9.99807484 L7.94052516,9.99807484 C8.02227051,9.99807484 8.08904722,9.9324595 8.08904722,9.84897942 L8.08904722,6.10957288 L10.2566711,6.10957288"/>
          </g>
          <path d="M0,2.33610646 L0,3.78732411 C0,3.86796586 0.0640324694,3.93224552 0.144447272,3.93224552 L1.65411669,3.93224552 C1.73311778,3.93224552 1.7984808,3.86796586 1.7984808,3.78732411 L1.7984808,0" transform="translate(17.846 10.511)"/>
          <path d="M0,0 L5.53440117,0 C5.56841322,1.35120852 6.6734307,2.44129136 8.02908955,2.44129136" transform="translate(9.36 10.55)"/>
          <path d="M0.928013393,5.48731239 L0.928013393,4.35749303 C0.928013393,4.31792348 0.900669643,4.27952264 0.854910714,4.25080549 L0,3.74074223 L0,0" transform="translate(22.121 1.46)"/>
          <g transform="translate(2.476 6.516)">
            <path d="M0,0 C0,0.139719032 0.0667767181,0.249538192 0.148522065,0.249538192 L1.0354965,0.249538192 C1.11724185,0.249538192 1.18401857,0.139719032 1.18401857,0"/>
          </g>
          <g transform="translate(12.073 14.443)">
            <line x2="10.453" y2=".229"/>
          </g>
          <g transform="translate(0 14.294)">
            <path d="M0,0 C0,0.139719032 0.0667767181,0.249538192 0.148522065,0.249538192 L9.98964734,0.249538192"/>
          </g>
        </g>
        <g transform="translate(0 11.188)">
          <line x1=".14" x2=".004" y1="1.777" y2="3.084"/>
          <line x1="3.183" x2="3.047" y1="1.777" y2="3.084"/>
          <line x1="4.647" x2="4.511" y2="3.084"/>
          <line x1="6.209" x2="6.073" y1="1.777" y2="3.084"/>
          <line x1=".136" y1="1.777" y2="3.084"/>
          <line x1="1.6" x2="1.464" y2="3.084"/>
          <line x1="3.162" x2="3.026" y1="1.777" y2="3.084"/>
        </g>
      </g>
    </g>
    <g fill-rule="nonzero" transform="translate(258.406 76.076)">
      <line x2="43.95" y1="56.908" y2="56.908" stroke="#222F3C" stroke-dasharray="0 3 0 3" stroke-linecap="round"/>
      <path stroke="#222F3C" stroke-linecap="round" stroke-width=".5" d="M39.8796674,52.5711573 L44.3154217,56.9945239 L39.8796674,61.4180556"/>
      <g transform="translate(46.163 48.434)">
        <path fill="#333838" d="M9.45060773,9.74747364 C9.52521477,9.74747364 9.569979,9.65819188 9.67442886,9.4052269 C10.3608136,7.76839466 11.5694477,4.95601928 12.5094964,2.90253885 C13.4495452,0.789537236 13.7181305,0.477051082 14.3448297,0.313367859 C14.613415,0.26872698 14.6880221,0.209205808 14.6880221,0.149684636 C14.6880221,0.0901634638 14.613415,0.0752831708 14.4194367,0.0752831708 C14.1508514,0.0752831708 13.7479733,0.134804343 13.3301739,0.134804343 C12.8825317,0.134804343 12.6736319,0.0752831708 12.2856753,0.0752831708 C12.0767756,0.0752831708 12.0320114,0.105043757 12.0320114,0.164564929 C12.0320114,0.224086101 12.1215398,0.253846687 12.3602824,0.328248152 C12.8526888,0.477051082 12.8676102,0.730016064 12.7930032,1.05738251 C12.4796536,2.15852419 10.6741632,6.32500624 9.95793562,7.87255672 C9.91317139,7.96183847 9.88332858,7.97671877 9.82364294,7.87255672 C9.31631506,6.75653474 8.65977309,5.3429069 8.28673788,4.46496961 C8.25689507,4.39056815 8.25689507,4.31616668 8.27181647,4.2864061 C8.52548042,3.82511701 9.25662942,2.351968 9.64458604,1.60795335 C10.1369925,0.744896357 10.4204993,0.432410203 10.9725914,0.313367859 C11.1814911,0.26872698 11.2560981,0.224086101 11.2560981,0.149684636 C11.2560981,0.0901634638 11.1814911,0.0752831708 11.0024342,0.0752831708 C10.6592418,0.0752831708 10.4204993,0.134804343 9.89824998,0.134804343 C9.51029337,0.134804343 9.27155083,0.0901634638 8.89851562,0.0901634638 C8.71945872,0.0901634638 8.62993027,0.11992405 8.62993027,0.164564929 C8.62993027,0.224086101 8.6746945,0.283607273 8.94327985,0.343128445 C9.58490041,0.491931375 9.59982182,0.640734306 9.13725816,1.7269957 C8.82390858,2.45613005 8.51055901,3.14062353 8.15244521,3.86975789 C8.10768098,3.94415936 8.04799535,3.92927906 8.03307394,3.89951848 C7.54066747,2.76861621 7.09302522,1.75675628 6.85428268,1.13178398 C6.63046156,0.581213134 6.77967564,0.402649617 7.18255367,0.328248152 C7.37653197,0.283607273 7.46606042,0.238966394 7.46606042,0.164564929 C7.46606042,0.105043757 7.36161057,0.0752831708 7.21239648,0.0752831708 C6.86920409,0.0752831708 6.5260117,0.134804343 5.988841,0.134804343 C5.4516703,0.134804343 5.16816354,0.0752831708 4.7354427,0.0752831708 C4.54146439,0.0752831708 4.45193594,0.11992405 4.45193594,0.164564929 C4.45193594,0.238966394 4.52654298,0.298487566 4.76528551,0.343128445 C5.22784917,0.462170789 5.34722044,0.640734306 5.77994128,1.56331247 C6.10821226,2.27756654 7.10794662,4.53937108 7.34668916,5.10482221 C7.34668916,5.1345828 7.34668916,5.23874485 7.31684634,5.28338573 C6.91396832,6.23572448 6.55585452,6.97973913 6.13805508,7.82791584 C6.09329086,7.9023173 6.03360522,7.93207789 5.988841,7.82791584 C4.97418523,5.59587188 3.49696581,2.42636947 2.87026665,0.878818994 C2.7658168,0.61097372 2.7658168,0.432410203 3.18361623,0.358008738 C3.36267313,0.328248152 3.45220158,0.283607273 3.45220158,0.209205808 C3.45220158,0.149684636 3.36267313,0.105043757 3.15377341,0.105043757 C2.84042384,0.105043757 2.48231004,0.134804343 2.15403905,0.134804343 C1.7063968,0.134804343 1.09461906,0.0752831708 0.736505262,0.0752831708 C0.542526954,0.0752831708 0.438077095,0.134804343 0.438077095,0.179445222 C0.438077095,0.238966394 0.57236977,0.298487566 0.751426671,0.313367859 C1.31844019,0.387769324 1.43781145,0.655614599 1.97498215,1.81627745 C2.67628835,3.27454617 3.67602271,5.47682954 4.49670016,7.36662675 C4.69067847,7.81303554 5.15324213,8.89929693 5.34722044,9.3903466 C5.4516703,9.65819188 5.48151311,9.74747364 5.57104156,9.74747364 C5.6307272,9.74747364 5.72025565,9.62843129 5.8097841,9.3903466 C6.13805508,8.52728961 6.92888972,6.78629532 7.49590324,5.68515364 C7.52574606,5.64051276 7.57051028,5.64051276 7.6003531,5.70003393 C8.03307394,6.65237269 8.88359422,8.49752902 9.19694379,9.4052269 C9.28647224,9.64331159 9.34615787,9.74747364 9.45060773,9.74747364 Z M16.5681195,9.62843129 C17.0456046,9.62843129 17.5081682,9.4052269 17.717068,8.98857869 C17.7767536,8.85465606 17.717068,8.81001518 17.6275395,8.85465606 C17.463404,8.94393781 17.3141899,8.98857869 17.1948187,8.98857869 C16.7770192,8.98857869 16.6427266,8.70585312 16.6427266,8.42312756 C16.6427266,8.03623994 16.6874908,6.6226121 16.6874908,6.07204126 C16.6874908,5.61075218 16.6278051,5.00066016 16.4785911,4.71793459 C16.2995342,4.25664551 15.8369705,3.95903965 15.3296426,3.95903965 C15.0759787,3.95903965 14.7775505,4.04832141 14.4343581,4.22688492 C14.13593,4.37568785 13.6435235,4.68817401 13.3003311,5.08994192 C13.1212742,5.29826602 13.0168243,5.43218866 13.0168243,5.53635071 C13.0168243,5.59587188 13.0914314,5.68515364 13.1660384,5.67027335 C13.2704883,5.65539305 13.7181305,5.44706895 13.8673446,5.3429069 C13.8971874,5.31314632 13.9270302,5.26850544 13.9270302,5.22386456 C13.9270302,5.11970251 13.9270302,5.00066016 13.9419516,4.94113899 C13.9717945,4.77745577 14.0613229,4.67329372 14.1657728,4.58401196 C14.3895939,4.45008932 14.538808,4.40544844 14.7626291,4.40544844 C14.941686,4.40544844 15.1953499,4.4947302 15.3893283,4.64353313 C15.6429922,4.83697694 15.7474421,5.25362514 15.7474421,5.86371716 C15.7474421,6.07204126 15.7474421,6.36964712 15.7175992,6.54821064 C15.7175992,6.60773181 15.6429922,6.74165445 15.5236209,6.77141503 C15.2102714,6.89045738 13.8524232,7.29222529 13.4943094,7.4856691 C13.3600167,7.56007056 12.9571387,7.85767642 12.9571387,8.3338458 C12.9571387,9.10762104 13.553995,9.613551 14.1508514,9.613551 C14.7178649,9.613551 15.1655071,9.36058602 15.6131494,8.94393781 C15.6280708,8.92905752 15.672835,8.92905752 15.6877564,8.95881811 C15.8220491,9.30106485 16.1503201,9.62843129 16.5681195,9.62843129 Z M14.8073933,9.04809986 C14.3448297,9.04809986 13.9121088,8.70585312 13.9121088,8.21480346 C13.9121088,7.78327496 14.1060871,7.56007056 14.285144,7.4707888 C14.5984936,7.30710558 15.4639353,6.99461943 15.6579136,6.96485884 C15.6877564,6.94997855 15.7175992,7.02438001 15.7175992,7.03926031 C15.7175992,7.60471144 15.6877564,8.19992316 15.6429922,8.45288814 C15.6280708,8.61657137 15.5385423,8.750494 15.4788567,8.81001518 C15.3147212,8.95881811 15.0610573,9.04809986 14.8073933,9.04809986 Z M20.0746505,9.59867071 C20.4924499,9.59867071 20.9550136,9.46474807 21.2832845,9.21178309 C21.4772629,9.06298016 21.6115555,8.91417723 21.6115555,8.82489547 C21.6115555,8.7653743 21.5667913,8.750494 21.4623414,8.82489547 C21.3280488,8.91417723 21.0594634,9.04809986 20.641664,9.04809986 C20.2537074,9.04809986 19.9403578,8.92905752 19.7165367,8.64633195 C19.6120868,8.49752902 19.582244,8.31896551 19.5524012,7.84279613 C19.5374798,7.38150705 19.5225584,5.04530104 19.5225584,4.79233606 C19.5225584,4.7030543 19.5524012,4.65841342 19.7314581,4.65841342 C20.1343361,4.65841342 20.8654851,4.67329372 21.3877344,4.67329372 C21.4623414,4.67329372 21.5369485,4.55425137 21.5369485,4.30128639 C21.5369485,4.19712434 21.4772629,4.09296229 21.44742,4.09296229 C21.1340705,4.09296229 19.8955936,4.13760317 19.6270082,4.13760317 C19.5673226,4.13760317 19.5524012,4.04832141 19.5524012,4.00368053 C19.5374798,3.82511701 19.5673226,3.40846881 19.5673226,3.27454617 C19.5673226,3.20014471 19.4628727,3.17038412 19.3285801,3.31918705 C18.9704663,3.78047613 18.4780598,4.18224405 18.1050246,4.31616668 C17.9408891,4.39056815 17.9259677,4.43520903 17.9259677,4.46496961 C17.9259677,4.52449079 18.0005747,4.56913166 18.119946,4.59889225 L18.3269805,4.64353313 C18.3922617,4.65841342 18.448217,4.67329372 18.4780598,4.68817401 C18.5377454,4.71793459 18.5526668,4.82209665 18.5526668,4.98577987 L18.5526668,8.06600052 C18.5526668,8.42312756 18.6123525,8.72073342 18.7317237,8.91417723 C18.9853877,9.3903466 19.4479513,9.59867071 20.0746505,9.59867071 Z M24.4466231,9.62843129 C25.2971434,9.62843129 25.9238425,9.33082543 26.5206989,8.69097283 C26.6102273,8.58681078 26.669913,8.49752902 26.669913,8.45288814 C26.669913,8.37848668 26.6102273,8.34872609 26.4908561,8.46776844 C26.1327423,8.81001518 25.6851,8.94393781 25.0733223,8.94393781 C24.5809158,8.94393781 23.9840595,8.78025459 23.5811814,8.3338458 C23.1932248,7.9023173 22.8947966,7.29222529 22.8947966,6.53333034 C22.8947966,6.11668214 22.9395609,5.89347774 23.0141679,5.71491423 C23.0440107,5.67027335 23.1186178,5.59587188 23.1484606,5.59587188 L23.9542166,5.59587188 C24.297409,5.59587188 26.2371921,5.62563247 26.3565634,5.64051276 C26.4311704,5.64051276 26.5057775,5.551231 26.5057775,5.47682954 C26.5057775,4.56913166 25.5657287,3.95903965 24.6853656,3.95903965 C23.9094524,3.95903965 23.2230676,4.31616668 22.8201896,4.7030543 C22.1934905,5.31314632 21.9547479,6.1910836 21.9547479,6.87557708 C21.9547479,7.67911291 22.2233333,8.39336697 22.6709755,8.86953635 C23.1186178,9.34570573 23.7453169,9.62843129 24.4466231,9.62843129 Z M23.2081462,5.38754778 C23.1783034,5.38754778 23.1484606,5.35778719 23.1484606,5.32802661 C23.1484606,5.20898426 23.2827533,4.9262587 23.4618102,4.71793459 C23.7900811,4.37568785 24.1631164,4.16736375 24.551073,4.16736375 C24.8942654,4.16736375 25.1479293,4.30128639 25.2971434,4.45008932 C25.4612789,4.62865284 25.5060431,4.89649811 25.5060431,5.07506163 C25.5060431,5.20898426 25.4762003,5.37266749 25.1479293,5.37266749 L23.2081462,5.38754778 Z M27.3413763,9.55402983 C27.5502761,9.55402983 27.7144115,9.46474807 28.2515822,9.46474807 C28.8782814,9.46474807 29.3706879,9.52426924 29.6541946,9.52426924 C29.8780158,9.52426924 30.0123084,9.49450866 30.0123084,9.42010719 C30.0123084,9.34570573 29.9377014,9.31594514 29.7288017,9.28618455 C29.1617882,9.22666338 28.9827313,9.12250133 28.9230456,8.66121225 C28.8932028,8.34872609 28.86336,7.57495086 28.86336,6.47380917 C28.86336,6.17620331 28.8484386,5.74467481 28.8782814,5.5661113 C28.8932028,5.38754778 28.9678098,5.22386456 29.1319453,5.04530104 C29.3259236,4.86673752 29.5646662,4.74769518 29.7884873,4.74769518 C29.9526228,4.74769518 30.1466011,4.82209665 30.3107366,4.9262587 C30.4748721,5.01554045 30.5494791,5.03042075 30.5793219,5.03042075 C30.6240862,5.03042075 30.6837718,5.01554045 30.8180645,4.89649811 C30.9971214,4.73281489 31.1463355,4.4947302 31.1463355,4.39056815 C31.1463355,4.31616668 31.1164926,4.24176522 31.0418856,4.18224405 C30.8926715,4.0632017 30.6986932,3.98880024 30.5196363,3.98880024 C29.92278,3.98880024 29.3259236,4.53937108 28.9081242,5.06018133 C28.86336,5.10482221 28.8335172,5.08994192 28.8335172,5.04530104 C28.8335172,4.80721635 28.8484386,4.24176522 28.8484386,4.07808199 C28.8484386,3.92927906 28.8185958,3.86975789 28.7887529,3.86975789 C28.7439887,3.86975789 28.6693817,3.88463819 28.5649318,3.94415936 C28.3261893,4.07808199 27.9083899,4.22688492 27.6099617,4.30128639 C27.475669,4.34592727 27.3861406,4.40544844 27.3861406,4.43520903 C27.3861406,4.46496961 27.401062,4.50961049 27.5055118,4.58401196 C27.7890186,4.82209665 27.8934684,4.86673752 27.8934684,4.97089958 L27.8934684,6.6226121 C27.8934684,7.60471144 27.878547,8.45288814 27.8487042,8.70585312 C27.7890186,9.10762104 27.6248831,9.24154367 27.3115335,9.31594514 C27.1921623,9.34570573 27.0877124,9.42010719 27.0877124,9.46474807 C27.0877124,9.52426924 27.1623194,9.55402983 27.3413763,9.55402983 Z M6.8841255,25.9656403 C8.09275957,25.9656403 8.89851562,25.6531541 9.79380012,25.1472242 C9.86840717,25.1025833 9.91317139,25.0133015 9.94301421,24.9240198 C9.97285703,24.7603365 10.1519139,24.0014416 10.1519139,23.7484766 C10.1519139,23.6591949 10.1220711,23.5252722 10.0623855,23.5252722 C10.0026998,23.5252722 9.97285703,23.5847934 9.91317139,23.7782372 C9.68935027,24.3883292 9.33123647,24.9091395 8.76422295,25.2365059 C8.36134492,25.4894709 7.83909563,25.6531541 6.98857536,25.6531541 C6.19774071,25.6531541 5.16816354,25.340668 4.43701453,24.5520124 C3.6611013,23.718716 3.06424496,22.2902079 3.06424496,20.9509815 C3.06424496,19.5224734 3.55665144,18.1981273 4.198272,17.4987535 C4.81004974,16.8737812 5.67549142,16.3380907 6.79459705,16.3380907 C7.66003873,16.3380907 8.52548042,16.5761754 9.07757252,17.0821053 C9.34615787,17.2904294 9.67442886,17.7665988 9.79380012,18.2725288 C9.82364294,18.3915711 9.86840717,18.4659726 9.9280928,18.4659726 C9.95793562,18.4659726 10.0176213,18.3766908 10.0176213,18.2278879 C10.0176213,18.079085 9.94301421,17.4392324 9.97285703,17.0821053 C9.98777843,17.0077039 9.94301421,16.9035418 9.82364294,16.8291404 C9.33123647,16.5612951 8.10768098,16.100006 6.89904691,16.100006 C5.52627734,16.100006 4.21319341,16.6208163 3.42235876,17.3350703 C2.46738863,18.1981273 1.75116103,19.3141493 1.75116103,21.0997845 C1.75116103,22.3794897 2.37786018,23.7484766 3.00455933,24.3883292 C3.92968665,25.3109074 5.0935565,25.9656403 6.8841255,25.9656403 Z M14.6581792,25.8614782 C15.1356643,25.8614782 15.598228,25.6382738 15.8071277,25.2216256 C15.8668133,25.087703 15.8071277,25.0430621 15.7175992,25.087703 C15.5534637,25.1769847 15.4042497,25.2216256 15.2848784,25.2216256 C14.867079,25.2216256 14.7327863,24.9389001 14.7327863,24.6561745 C14.7327863,24.2692869 14.7775505,22.855659 14.7775505,22.3050882 C14.7775505,21.8437991 14.7178649,21.2337071 14.5686508,20.9509815 C14.3895939,20.4896924 13.9270302,20.1920866 13.4197024,20.1920866 C13.1660384,20.1920866 12.8676102,20.2813683 12.5244179,20.4599319 C12.2259897,20.6087348 11.7335832,20.9212209 11.3903908,21.3229889 C11.2113339,21.531313 11.1068841,21.6652356 11.1068841,21.7693976 C11.1068841,21.8289188 11.1814911,21.9182006 11.2560981,21.9033203 C11.360548,21.88844 11.8081903,21.6801159 11.9574043,21.5759538 C11.9872472,21.5461933 12.01709,21.5015524 12.01709,21.4569115 C12.01709,21.3527494 12.01709,21.2337071 12.0320114,21.1741859 C12.0618542,21.0105027 12.1513826,20.9063407 12.2558325,20.8170589 C12.4796536,20.6831363 12.6288677,20.6384954 12.8526888,20.6384954 C13.0317457,20.6384954 13.2854097,20.7277771 13.479388,20.8765801 C13.7330519,21.0700239 13.8375018,21.4866721 13.8375018,22.0967641 C13.8375018,22.3050882 13.8375018,22.6026941 13.807659,22.7812576 C13.807659,22.8407787 13.7330519,22.9747014 13.6136807,23.004462 C13.3003311,23.1235043 11.9424829,23.5252722 11.5843691,23.718716 C11.4500765,23.7931175 11.0471984,24.0907234 11.0471984,24.5668927 C11.0471984,25.340668 11.6440548,25.8465979 12.2409111,25.8465979 C12.8079246,25.8465979 13.2555669,25.593633 13.7032091,25.1769847 C13.7181305,25.1621045 13.7628947,25.1621045 13.7778162,25.191865 C13.9121088,25.5341118 14.2403798,25.8614782 14.6581792,25.8614782 Z M12.8974531,25.2811468 C12.4348894,25.2811468 12.0021686,24.9389001 12.0021686,24.4478504 C12.0021686,24.0163219 12.1961469,23.7931175 12.3752038,23.7038357 C12.6885533,23.5401525 13.553995,23.2276664 13.7479733,23.1979058 C13.7778162,23.1830255 13.807659,23.2574269 13.807659,23.2723072 C13.807659,23.8377584 13.7778162,24.4329701 13.7330519,24.6859351 C13.7181305,24.8496183 13.6286021,24.9835409 13.5689164,25.0430621 C13.4047809,25.191865 13.151117,25.2811468 12.8974531,25.2811468 Z M21.9249051,25.7573162 C22.0741192,25.7573162 22.1934905,25.7424359 22.1934905,25.6531541 C22.1934905,25.593633 22.103962,25.5638724 21.9696693,25.5043512 C21.5667913,25.4001891 21.5220271,25.3109074 21.5071057,24.2990475 C21.5071057,23.5550328 21.4921843,23.4359905 21.4921843,22.6473349 C21.4772629,21.7991582 21.3578916,21.0551436 21.0146992,20.6980165 C20.8207209,20.4896924 20.4626071,20.1920866 19.8508293,20.1920866 C19.5971654,20.1920866 19.2838158,20.2218472 18.9704663,20.3706501 C18.6421953,20.5045727 18.2840815,20.7575377 17.9110463,21.0402633 C17.8812034,21.0700239 17.8364392,21.025383 17.8364392,20.9956224 C17.8215178,20.7872983 17.8513606,20.3855304 17.866282,20.2069669 C17.8812034,20.1325654 17.8065964,20.0730442 17.7618322,20.0879245 C17.5081682,20.2516078 16.9113119,20.5045727 16.5830409,20.5938545 C16.4487482,20.6384954 16.3741412,20.6831363 16.3741412,20.7128968 C16.3741412,20.7575377 16.403984,20.7872983 16.4935125,20.8468195 C16.8516263,21.0402633 16.8814691,21.2039465 16.8814691,21.3527494 C16.8814691,22.5580532 16.8814691,23.9270401 16.8516263,24.9984212 C16.8367049,25.2960271 16.7770192,25.4001891 16.403984,25.4745906 C16.2249271,25.5043512 16.0906344,25.5638724 16.0906344,25.6233935 C16.0906344,25.697795 16.2100057,25.7275556 16.3741412,25.7275556 C16.657648,25.7275556 16.9709975,25.697795 17.1649758,25.697795 C17.5081682,25.697795 18.2393172,25.7573162 18.3586885,25.7573162 C18.5079026,25.7573162 18.6571167,25.7573162 18.6571167,25.6680344 C18.6571167,25.593633 18.5825096,25.5638724 18.4034527,25.5192315 C18.1647102,25.44483 17.9856533,25.3704286 17.9408891,25.0430621 C17.9110463,24.834738 17.866282,24.4478504 17.8513606,23.4806313 C17.8513606,22.5878138 17.8364392,21.8289188 17.8364392,21.6503553 C17.8364392,21.531313 17.9110463,21.3081086 18.0154961,21.2039465 C18.4034527,20.8765801 18.7914094,20.7277771 19.179366,20.7277771 C19.5225584,20.7277771 19.8060651,20.8319392 20.0298862,21.0105027 C20.4029215,21.2932283 20.5073713,21.6503553 20.5073713,22.855659 L20.5073713,24.8793789 C20.5073713,25.3109074 20.4476857,25.4150694 20.0895719,25.5043512 C19.8955936,25.5489921 19.8060651,25.6085132 19.8060651,25.6680344 C19.8060651,25.7275556 19.910515,25.7573162 20.0448077,25.7573162 C20.2686288,25.7573162 20.4626071,25.697795 20.969935,25.697795 C21.298206,25.697795 21.7309268,25.7573162 21.9249051,25.7573162 Z M26.4311704,25.8614782 C26.9086555,25.8614782 27.3712192,25.6382738 27.5801189,25.2216256 C27.6398045,25.087703 27.5801189,25.0430621 27.4905904,25.087703 C27.3264549,25.1769847 27.1772408,25.2216256 27.0578696,25.2216256 C26.6400701,25.2216256 26.5057775,24.9389001 26.5057775,24.6561745 C26.5057775,24.2692869 26.5505417,22.855659 26.5505417,22.3050882 C26.5505417,21.8437991 26.4908561,21.2337071 26.341642,20.9509815 C26.1625851,20.4896924 25.7000214,20.1920866 25.1926935,20.1920866 C24.9390296,20.1920866 24.6406014,20.2813683 24.297409,20.4599319 C23.9989809,20.6087348 23.5065744,20.9212209 23.163382,21.3229889 C22.9843251,21.531313 22.8798752,21.6652356 22.8798752,21.7693976 C22.8798752,21.8289188 22.9544823,21.9182006 23.0290893,21.9033203 C23.1335392,21.88844 23.5811814,21.6801159 23.7303955,21.5759538 C23.7602383,21.5461933 23.7900811,21.5015524 23.7900811,21.4569115 C23.7900811,21.3527494 23.7900811,21.2337071 23.8050026,21.1741859 C23.8348454,21.0105027 23.9243738,20.9063407 24.0288237,20.8170589 C24.2526448,20.6831363 24.4018589,20.6384954 24.62568,20.6384954 C24.8047369,20.6384954 25.0584009,20.7277771 25.2523792,20.8765801 C25.5060431,21.0700239 25.610493,21.4866721 25.610493,22.0967641 C25.610493,22.3050882 25.610493,22.6026941 25.5806501,22.7812576 C25.5806501,22.8407787 25.5060431,22.9747014 25.3866718,23.004462 C25.0733223,23.1235043 23.7154741,23.5252722 23.3573603,23.718716 C23.2230676,23.7931175 22.8201896,24.0907234 22.8201896,24.5668927 C22.8201896,25.340668 23.4170459,25.8465979 24.0139023,25.8465979 C24.5809158,25.8465979 25.028558,25.593633 25.4762003,25.1769847 C25.4911217,25.1621045 25.5358859,25.1621045 25.5508073,25.191865 C25.6851,25.5341118 26.013371,25.8614782 26.4311704,25.8614782 Z M24.6704442,25.2811468 C24.2078806,25.2811468 23.7751597,24.9389001 23.7751597,24.4478504 C23.7751597,24.0163219 23.969138,23.7931175 24.1481949,23.7038357 C24.4615445,23.5401525 25.3269862,23.2276664 25.5209645,23.1979058 C25.5508073,23.1830255 25.5806501,23.2574269 25.5806501,23.2723072 C25.5806501,23.8377584 25.5508073,24.4329701 25.5060431,24.6859351 C25.4911217,24.8496183 25.4015932,24.9835409 25.3419076,25.0430621 C25.1777721,25.191865 24.9241082,25.2811468 24.6704442,25.2811468 Z M30.1167583,25.7275556 C30.3107366,25.7275556 30.4151865,25.6829147 30.4151865,25.6233935 C30.4151865,25.5787527 30.3107366,25.5341118 30.2212081,25.5192315 C29.8034087,25.44483 29.7138803,25.340668 29.6989589,24.9389001 C29.6866706,24.7060672 29.6743824,24.1906633 29.6704281,22.9688316 L29.6702904,19.9410591 C29.6786492,17.860634 29.7288017,15.6895579 29.7288017,15.594076 C29.7288017,15.5196746 29.7138803,15.4303928 29.6840374,15.4303928 C29.6243518,15.4303928 29.5497448,15.4601534 29.5049805,15.4750337 C29.1767096,15.594076 28.8185958,15.7279987 28.3858749,15.8172804 C28.2515822,15.847041 28.1620538,15.8916819 28.1620538,15.9363228 C28.1620538,15.9809637 28.206818,16.0107242 28.3112679,16.0702454 C28.6992245,16.3083301 28.7290673,16.3827316 28.7290673,16.710098 C28.7439887,17.3648309 28.7290673,18.5850149 28.7290673,19.7903187 C28.7141459,21.5759538 28.6544603,24.0907234 28.6246175,24.6412942 C28.5649318,25.2960271 28.4754034,25.4299497 28.1023682,25.5043512 C27.9083899,25.5489921 27.8337828,25.5638724 27.8337828,25.6382738 C27.8337828,25.7126753 27.9083899,25.7275556 28.0874468,25.7275556 C28.3112679,25.7275556 28.6992245,25.697795 29.0871811,25.697795 C29.3408451,25.697795 29.8780158,25.7275556 30.1167583,25.7275556 Z" transform="translate(13.513 27.05)"/>
        <g stroke="#222F3C" stroke-linecap="round">
          <g stroke-linejoin="round" stroke-width=".5">
            <line x1="59.502" y1=".228"/>
            <line x2="59.502" y1=".228" transform="translate(0 16.345)"/>
            <line x2="59.502" y1=".228" transform="translate(0 16.345)"/>
          </g>
          <g stroke-width=".4" transform="translate(21.328 3.845)">
            <g transform="translate(2.218 2.683)">
              <path d="M.159730828 2.00613405L.977395095 2.96670162.0806106066 3.97631312M.0792531962 4.00279882L.896784488 4.96336639 0 5.97314302M.240341434 0L1.0580057.960567566.161221213 1.9703442"/>
            </g>
            <path d="M.157685138 2.00613405L.975349405 2.96670162.0784319416 3.97647825M.079120221 4.00279882L.896784488 4.96336639 0 5.97314302M.238162769 0L1.05582704.960567566.159042548 1.9703442"/>
            <g transform="translate(5.396)">
              <g transform="translate(2.22 2.683)">
                <path d="M.157552163 2.00613405L.97521643 2.96670162.0784319416 3.97631312M.0792531962 4.00279882L.896917463 4.96336639 0 5.97314302M.238295744 0L1.05582704.960567566.159042548 1.9703442"/>
              </g>
              <path d="M.159730828 2.00613405L.977395095 2.96670162.0806106066 3.97647825M.0792531962 4.00279882L.896784488 4.96336639 0 5.97314302M.240341434 0L1.0580057.960567566.161221213 1.9703442"/>
            </g>
            <g transform="translate(10.792)">
              <g transform="translate(2.22 2.683)">
                <path d="M.159863803 2.00613405L.977395095 2.96670162.0806106066 3.97631312M.079120221 4.00279882L.896784488 4.96336639 0 5.97314302M.240474409 0L1.0580057.960567566.161221213 1.9703442"/>
              </g>
              <path d="M.159730828 2.00613405L.977395095 2.96670162.0806106066 3.97647825M.079120221 4.00279882L.896784488 4.96336639 0 5.97314302M.240474409 0L1.0580057.960567566.161221213 1.9703442"/>
            </g>
            <g transform="translate(16.188)">
              <path d="M.159863803 2.00613405L.977395095 2.96670162.0806106066 3.97647825M.079120221 4.00279882L.896784488 4.96336639 0 5.97314302M.240474409 0L1.05813868.960567566.161221213 1.9703442"/>
            </g>
          </g>
        </g>
      </g>
      <path fill="#333838" d="M6.06233016,10.8157023 C7.27096424,10.8157023 8.07672029,10.5032162 8.97200479,9.99728622 C9.04661183,9.95264534 9.09137605,9.86336358 9.12121887,9.77408182 C9.15106169,9.6103986 9.33011859,8.85150366 9.33011859,8.59853867 C9.33011859,8.50925692 9.30027577,8.37533428 9.24059014,8.37533428 C9.1809045,8.37533428 9.15106169,8.43485545 9.09137605,8.62829926 C8.86755493,9.23839127 8.50944113,9.75920153 7.94242761,10.086568 C7.53954959,10.339533 7.01730029,10.5032162 6.16678002,10.5032162 C5.37594538,10.5032162 4.3463682,10.19073 3.61521919,9.4020745 C2.83930596,8.56877809 2.24244963,7.14026996 2.24244963,5.80104359 C2.24244963,4.37253546 2.7348561,3.04818938 3.37647666,2.3488156 C3.9882544,1.7238433 4.85369608,1.18815275 5.97280171,1.18815275 C6.83824339,1.18815275 7.70368508,1.42623744 8.25577719,1.9321674 C8.52436254,2.1404915 8.85263352,2.61666088 8.97200479,3.12259084 C9.0018476,3.24163319 9.04661183,3.31603465 9.10629746,3.31603465 C9.13614028,3.31603465 9.19582591,3.22675289 9.19582591,3.07794996 C9.19582591,2.92914703 9.12121887,2.28929443 9.15106169,1.9321674 C9.1659831,1.85776593 9.12121887,1.75360388 9.0018476,1.67920242 C8.50944113,1.41135714 7.28588564,0.950068059 6.07725157,0.950068059 C4.704482,0.950068059 3.39139807,1.47087832 2.60056343,2.18513238 C1.64559329,3.04818938 0.929365691,4.16421135 0.929365691,5.94984652 C0.929365691,7.22955172 1.55606484,8.59853867 2.18276399,9.23839127 C3.10789131,10.1609694 4.27176116,10.8157023 6.06233016,10.8157023 Z M12.2248718,10.5776176 C12.4188501,10.5776176 12.5233,10.5329768 12.5233,10.4734556 C12.5233,10.4288147 12.4188501,10.3841738 12.3293217,10.3692935 C11.9115222,10.2948921 11.8219938,10.19073 11.8070724,9.78896212 C11.7947842,9.5561293 11.7824959,9.04072537 11.7785416,7.8188937 L11.7784039,4.7911212 C11.7867627,2.71069606 11.8369152,0.539619977 11.8369152,0.444138097 C11.8369152,0.369736632 11.8219938,0.280454873 11.792151,0.280454873 C11.7324653,0.280454873 11.6578583,0.310215459 11.6130941,0.325095752 C11.2848231,0.444138097 10.9267093,0.578060734 10.4939884,0.667342492 C10.3596958,0.697103078 10.2701673,0.741743957 10.2701673,0.786384836 C10.2701673,0.831025715 10.3149315,0.860786301 10.4193814,0.920307473 C10.807338,1.15839216 10.8371808,1.23279363 10.8371808,1.56016007 C10.8521022,2.21489297 10.8371808,3.43507699 10.8371808,4.64038073 C10.8222594,6.42601589 10.7625738,8.94078541 10.732731,9.49135626 C10.6730453,10.1460891 10.5835169,10.2800118 10.2104817,10.3544133 C10.0165034,10.3990541 9.94189633,10.4139344 9.94189633,10.4883359 C9.94189633,10.5627374 10.0165034,10.5776176 10.1955603,10.5776176 C10.4193814,10.5776176 10.807338,10.5478571 11.1952946,10.5478571 C11.4489586,10.5478571 11.9861293,10.5776176 12.2248718,10.5776176 Z M16.1492022,10.7264206 C16.6863729,10.7264206 17.3727577,10.5180965 17.8353213,10.1609694 C18.3128064,9.78896212 18.9842698,8.98542629 18.9842698,7.85452402 C18.9842698,6.27721296 17.7457929,5.04214864 16.1193594,5.04214864 C15.4031318,5.04214864 14.7316684,5.35463479 14.3287904,5.66712095 C13.7766983,6.11352974 13.254449,6.8426641 13.254449,7.97356637 C13.254449,9.52111684 14.6122971,10.7264206 16.1492022,10.7264206 Z M16.3581019,10.4734556 C15.8955383,10.4734556 15.3583676,10.2353709 14.9554895,9.68480006 C14.4780045,9.05982776 14.3287904,8.27117223 14.3287904,7.64619992 C14.3287904,6.09864945 15.1345464,5.29511362 15.8955383,5.29511362 C17.2086222,5.29511362 17.9248498,6.69386117 17.9248498,8.107489 C17.9248498,9.1788701 17.5219718,9.89312417 17.2981506,10.1014483 C17.0594081,10.3097724 16.7162157,10.4734556 16.3581019,10.4734556 Z M21.3120095,10.7264206 C21.6701233,10.7264206 22.1774512,10.6073782 22.5057222,10.3990541 C22.8041503,10.2056103 23.2816354,9.80384241 23.2816354,9.14910952 C23.2816354,8.39021457 22.8936788,8.01820725 21.9237872,7.39323494 C21.550752,7.17003054 20.9837385,6.81290351 20.9837385,6.1879312 C20.9837385,5.59271948 21.4015379,5.26535304 21.879023,5.26535304 C22.1625298,5.26535304 22.4161937,5.36951509 22.5803292,5.48855743 C22.8041503,5.66712095 22.863836,5.87544505 22.938443,6.09864945 C22.9832072,6.2028115 23.01305,6.27721296 23.0727357,6.27721296 C23.1174999,6.27721296 23.1473427,6.2028115 23.1473427,6.03912827 C23.1324213,5.80104359 23.0727357,5.50343772 23.0578143,5.3397545 C23.0578143,5.29511362 23.01305,5.23559245 22.9832072,5.20583186 C22.8041503,5.14631069 22.3714295,5.04214864 21.9685515,5.04214864 C21.4015379,5.04214864 20.9837385,5.23559245 20.7151532,5.45879685 C20.3868822,5.69688153 20.1481396,6.09864945 20.1481396,6.63433999 C20.1481396,7.28907289 20.744996,7.83964373 21.3866165,8.25629193 C21.9834729,8.62829926 22.3714295,8.94078541 22.3714295,9.50623655 C22.3714295,10.1163286 21.8193374,10.5032162 21.4015379,10.5032162 C21.1777168,10.5032162 20.9538957,10.4734556 20.7300746,10.3246527 C20.4614892,10.1609694 20.2227467,9.89312417 20.1033754,9.52111684 C19.9989256,9.23839127 19.9541613,9.23839127 19.9093971,9.23839127 C19.8795543,9.23839127 19.8347901,9.28303215 19.8646329,9.47647596 C19.8795543,9.64015919 19.9093971,10.0121665 19.9093971,10.2204906 C19.9093971,10.3097724 20.013847,10.4139344 20.1332182,10.4585753 C20.5808605,10.6371388 20.9240529,10.7264206 21.3120095,10.7264206 Z M26.6986379,10.7115403 C27.5491582,10.7115403 28.1758573,10.4139344 28.7727137,9.77408182 C28.8622421,9.66991977 28.9219277,9.58063801 28.9219277,9.53599713 C28.9219277,9.46159567 28.8622421,9.43183508 28.7428708,9.55087743 C28.384757,9.89312417 27.9371148,10.0270468 27.325337,10.0270468 C26.8329306,10.0270468 26.2360742,9.86336358 25.8331962,9.41695479 C25.4452396,8.98542629 25.1468114,8.37533428 25.1468114,7.61643933 C25.1468114,7.19979113 25.1915757,6.97658673 25.2661827,6.79802322 C25.2960255,6.75338234 25.3706326,6.67898087 25.4004754,6.67898087 L26.2062314,6.67898087 C26.5494238,6.67898087 28.4892069,6.70874146 28.6085782,6.72362175 C28.6831852,6.72362175 28.7577922,6.63433999 28.7577922,6.55993853 C28.7577922,5.65224066 27.8177435,5.04214864 26.9373804,5.04214864 C26.1614672,5.04214864 25.4750824,5.39927567 25.0722044,5.78616329 C24.4455052,6.39625531 24.2067627,7.27419259 24.2067627,7.95868607 C24.2067627,8.7622219 24.4753481,9.47647596 24.9229903,9.95264534 C25.3706326,10.4288147 25.9973317,10.7115403 26.6986379,10.7115403 Z M25.460161,6.47065677 C25.4303182,6.47065677 25.4004754,6.44089619 25.4004754,6.4111356 C25.4004754,6.29209326 25.534768,6.00936769 25.7138249,5.80104359 C26.0420959,5.45879685 26.4151311,5.25047274 26.8030878,5.25047274 C27.1462801,5.25047274 27.3999441,5.38439538 27.5491582,5.53319831 C27.7132937,5.71176183 27.7580579,5.9796071 27.7580579,6.15817062 C27.7580579,6.29209326 27.7282151,6.45577648 27.3999441,6.45577648 L25.460161,6.47065677 Z M33.8609139,10.6817797 C34.2787133,10.6817797 34.741277,10.5478571 35.069548,10.2948921 C35.2635263,10.1460891 35.397819,9.99728622 35.397819,9.90800446 C35.397819,9.84848329 35.3530547,9.833603 35.2486049,9.90800446 C35.1143122,9.99728622 34.8457268,10.1312089 34.4279274,10.1312089 C34.0399708,10.1312089 33.7266212,10.0121665 33.5028001,9.72944094 C33.3983502,9.58063801 33.3685074,9.4020745 33.3386646,8.92590512 C33.3237432,8.46461604 33.3088218,6.12841003 33.3088218,5.87544505 C33.3088218,5.78616329 33.3386646,5.74152241 33.5177215,5.74152241 C33.9205995,5.74152241 34.6517485,5.75640271 35.1739978,5.75640271 C35.2486049,5.75640271 35.3232119,5.63736036 35.3232119,5.38439538 C35.3232119,5.28023333 35.2635263,5.17607128 35.2336835,5.17607128 C34.9203339,5.17607128 33.681857,5.22071216 33.4132716,5.22071216 C33.353586,5.22071216 33.3386646,5.1314304 33.3386646,5.08678952 C33.3237432,4.908226 33.353586,4.4915778 33.353586,4.35765516 C33.353586,4.2832537 33.2491362,4.25349311 33.1148435,4.40229604 C32.7567297,4.86358512 32.2643232,5.26535304 31.891288,5.39927567 C31.7271525,5.47367714 31.7122311,5.51831802 31.7122311,5.5480786 C31.7122311,5.60759978 31.7868381,5.65224066 31.9062094,5.68200124 C32.0405021,5.71176183 32.2046376,5.74152241 32.2643232,5.771283 C32.3240088,5.80104359 32.3389302,5.90520564 32.3389302,6.06888886 L32.3389302,9.14910952 C32.3389302,9.50623655 32.3986159,9.80384241 32.5179871,9.99728622 C32.7716511,10.4734556 33.2342147,10.6817797 33.8609139,10.6817797 Z M38.6357646,10.7264206 C39.1729353,10.7264206 39.8593201,10.5180965 40.3218837,10.1609694 C40.7993688,9.78896212 41.4708322,8.98542629 41.4708322,7.85452402 C41.4708322,6.27721296 40.2323553,5.04214864 38.6059218,5.04214864 C37.8896942,5.04214864 37.2182308,5.35463479 36.8153528,5.66712095 C36.2632606,6.11352974 35.7410113,6.8426641 35.7410113,7.97356637 C35.7410113,9.52111684 37.0988595,10.7264206 38.6357646,10.7264206 Z M38.8446643,10.4734556 C38.3821006,10.4734556 37.8449299,10.2353709 37.4420519,9.68480006 C36.9645668,9.05982776 36.8153528,8.27117223 36.8153528,7.64619992 C36.8153528,6.09864945 37.6211088,5.29511362 38.3821006,5.29511362 C39.6951846,5.29511362 40.4114122,6.69386117 40.4114122,8.107489 C40.4114122,9.1788701 40.0085341,9.89312417 39.784713,10.1014483 C39.5459705,10.3097724 39.2027781,10.4734556 38.8446643,10.4734556 Z M3.51076933,26.9594675 C3.94349018,26.9594675 4.3463682,26.8404252 4.68956059,26.6172208 C5.43563101,26.1261711 6.21154424,24.8762265 6.21154424,22.2870555 C6.21154424,20.5907021 5.58484509,17.8824888 3.55553356,17.8824888 C3.18249835,17.8824888 2.86914878,17.9568902 2.5557992,18.1205735 C1.36208653,18.8050669 0.750308791,20.2335751 0.750308791,22.5697811 C0.750308791,24.2958951 1.4814578,26.9594675 3.51076933,26.9594675 Z M3.60029778,26.7511434 C2.69009188,26.7511434 2.3767423,24.444698 2.3767423,22.0192102 C2.3767423,20.025251 2.67517047,19.0282713 2.94375582,18.4777005 C3.06312708,18.2396158 3.25710539,18.1056932 3.43616229,18.1056932 C4.22699693,18.1056932 4.61495355,20.3674977 4.61495355,22.6441825 C4.61495355,24.1322118 4.42097524,25.4416776 4.24191834,26.0220091 C4.03301863,26.6618617 3.8091975,26.7511434 3.60029778,26.7511434 Z M8.12148451,26.9743478 C8.47959831,26.9743478 8.92724056,26.6618617 8.92724056,26.0964105 C8.92724056,25.6797623 8.6288124,25.2631141 8.13640592,25.2631141 C7.68876367,25.2631141 7.31572846,25.6351214 7.31572846,26.1112908 C7.31572846,26.5576996 7.65892085,26.9743478 8.12148451,26.9743478 Z M14.388476,26.8553055 C14.5824543,26.8553055 14.6719828,26.8106646 14.6719828,26.7511434 C14.6719828,26.6916222 14.5973757,26.6321011 14.4332402,26.6023405 C13.8065411,26.4981784 13.731934,26.4088967 13.6871698,25.4863185 C13.657327,24.8464659 13.6274842,21.7216044 13.6424056,20.4716598 C13.6722484,19.5044407 13.6871698,18.1800946 13.6871698,17.9866508 C13.6871698,17.8973691 13.657327,17.8824888 13.6274842,17.8824888 C13.5528771,17.8824888 13.4335059,17.9420099 13.2992132,17.9866508 C12.8814138,18.1652143 12.0607363,18.2842567 11.4041943,18.3735384 C11.2848231,18.3884187 11.1952946,18.4330596 11.1952946,18.4777005 C11.1952946,18.5372217 11.3295873,18.5818625 11.4191158,18.5967428 C11.5683298,18.6265034 11.6727797,18.6413837 11.792151,18.6860246 C11.9115222,18.7455458 11.9712079,18.8497078 11.9861293,19.013391 C12.0159721,19.3853984 12.0308935,19.876448 12.0308935,21.6769635 C12.0308935,24.2214936 12.0010507,25.0250294 11.9562865,25.4863185 C11.9264436,26.3642558 11.792151,26.4981784 11.0908448,26.6172208 C10.9416307,26.6469814 10.8521022,26.6767419 10.8521022,26.7362631 C10.8521022,26.8255449 10.9714735,26.8553055 11.1057662,26.8553055 C11.6280155,26.8553055 11.9115222,26.780904 12.6426712,26.780904 C13.1649205,26.780904 13.6274842,26.8553055 14.388476,26.8553055 Z M29.4889413,26.8701858 C29.6530767,26.8701858 29.7575266,26.8255449 29.7575266,26.7660237 C29.7575266,26.6916222 29.6530767,26.6469814 29.5187841,26.6023405 C28.9070063,26.423777 28.7577922,26.2452134 28.6981066,25.3970367 L28.684065,25.1442966 C28.6523388,24.5421011 28.6021498,23.3837397 28.5946161,22.103479 L28.5944625,20.9581709 C28.5963426,20.2243493 28.6026096,19.3556378 28.6234996,18.9389896 C28.6682638,18.1205735 28.6981066,17.9271296 29.5635483,17.7485661 C29.6679982,17.7336858 29.8022908,17.6741647 29.8022908,17.5997632 C29.8022908,17.540242 29.7276838,17.4956011 29.5337055,17.4956011 C28.6234996,17.4956011 28.1758573,17.5848829 27.5043939,17.5848829 C27.4297869,17.5848829 27.325337,17.7783267 27.325337,17.8080873 C27.2358086,18.1056932 27.1015159,18.4479399 26.8627734,19.013391 C26.5345024,19.7425254 24.7439334,23.4179578 24.326134,24.1619724 C24.2962912,24.2214936 24.2515269,24.2661345 24.2216841,24.1768527 C23.6994348,23.224514 21.5955162,18.9687502 21.0881884,17.7783267 C21.0434241,17.689045 20.9688171,17.5848829 20.9091315,17.5848829 C20.1033754,17.5848829 19.1334839,17.5104814 18.5664703,17.4956011 C18.4769419,17.4956011 18.3128064,17.5253617 18.3128064,17.5997632 C18.3128064,17.689045 18.4470991,17.7336858 18.5515489,17.7634464 C18.8350557,17.8229676 19.0737982,17.8676085 19.3274622,18.1205735 C19.6109689,18.4181793 19.6557332,18.6116231 19.6557332,19.5044407 C19.6557332,20.635343 19.4617549,23.6709228 19.3722264,24.5190995 C19.2677765,25.5756003 19.1931695,25.917847 19.029034,26.1559317 C18.8798199,26.3791361 18.6559988,26.4684178 18.223278,26.5874602 C18.0143782,26.6469814 17.969614,26.7065025 17.969614,26.7511434 C17.969614,26.8255449 18.0292996,26.8553055 18.2531208,26.8553055 C18.4321777,26.8553055 18.8499771,26.780904 19.3274622,26.780904 C19.8347901,26.780904 20.3570394,26.8553055 20.6256247,26.8404252 C20.7748388,26.8553055 20.9091315,26.8255449 20.9091315,26.7213828 C20.9091315,26.6618617 20.819603,26.6023405 20.6703889,26.5725799 C20.2227467,26.4832981 19.9392399,26.2600937 19.8795543,25.917847 C19.8403856,25.7095229 19.8240653,25.535377 19.8205972,25.0963502 L19.8198687,24.8911068 C19.8198687,23.8643666 19.9541613,20.3228568 20.013847,19.6978845 C20.0436898,19.4895604 20.0735326,19.4895604 20.1332182,19.6234831 C20.5211748,20.382378 22.6847791,25.1440718 23.2219498,26.423777 C23.2965568,26.5874602 23.3711638,26.8106646 23.4606923,26.8106646 C23.5502207,26.8106646 23.6099064,26.7065025 23.7292776,26.4684178 C24.3112126,25.0696703 25.9227247,21.7364847 26.9075376,19.6978845 C26.9373804,19.5788422 26.9821447,19.6830042 26.9821447,19.7425254 C26.9821447,20.5609415 26.9672232,24.1619724 26.922459,24.9357477 C26.8776948,26.0815302 26.7881663,26.4088967 26.1763886,26.5428193 C26.0719387,26.5725799 25.9227247,26.6469814 25.9227247,26.7065025 C25.9227247,26.8106646 26.0868602,26.8255449 26.19131,26.8255449 C26.4002097,26.8255449 27.1313587,26.780904 27.7132937,26.780904 C28.2952286,26.780904 28.9517706,26.8701858 29.4889413,26.8701858 Z M31.7868381,20.0698918 C32.1151091,20.0698918 32.5179871,19.8466874 32.5179871,19.3258772 C32.5179871,18.9836305 32.2344804,18.6265034 31.8614452,18.6265034 C31.5480956,18.6265034 31.160139,18.8645881 31.160139,19.3853984 C31.160139,19.772286 31.4734886,20.0698918 31.7868381,20.0698918 Z M32.8761009,26.8553055 C32.9954722,26.8553055 33.0999221,26.8255449 33.0999221,26.7511434 C33.0999221,26.6916222 33.0551578,26.6469814 32.8910224,26.6023405 C32.5925942,26.527939 32.5179871,26.3940164 32.4881443,26.1410514 C32.4676274,25.9875984 32.4612159,25.3769832 32.4592122,24.4687731 L32.4587678,22.5760587 C32.4601667,22.0843115 32.4657622,21.598842 32.4881443,21.3644773 C32.5030657,21.2007941 32.4732229,21.1561532 32.4284587,21.1561532 C32.3836945,21.1561532 32.3240088,21.2007941 32.2046376,21.245435 C31.6823883,21.4537591 31.4138029,21.5579211 30.7423396,21.6918438 C30.5782041,21.7364847 30.5334398,21.7811255 30.5334398,21.8108861 C30.5334398,21.8704073 30.5782041,21.9150482 30.6528111,21.9745693 C31.0407677,22.2424146 31.0407677,22.3019358 31.0407677,22.5846614 C31.0407677,22.7334643 30.9960035,25.3226353 30.9960035,25.7690441 C30.9960035,26.2898543 30.8915536,26.4832981 30.503597,26.5725799 C30.3245401,26.6023405 30.2350117,26.6321011 30.2350117,26.7065025 C30.2350117,26.7660237 30.3543829,26.8106646 30.4886756,26.8106646 C30.6528111,26.8106646 30.9960035,26.780904 31.6525455,26.780904 C32.2792446,26.780904 32.622437,26.8553055 32.8761009,26.8553055 Z M36.2483392,26.8255449 C36.3975533,26.8255449 36.5467674,26.780904 36.5467674,26.7213828 C36.5467674,26.6469814 36.4423175,26.6023405 36.3527891,26.5874602 C35.9648325,26.4981784 35.875304,26.4386573 35.8603826,25.9624879 C35.8479481,25.7392835 35.8355136,25.2887413 35.8317142,24.0252942 L35.8313534,21.3893877 C35.8374156,19.0476752 35.875304,16.9366973 35.875304,16.8408683 C35.875304,16.7664668 35.8454612,16.677185 35.8156184,16.677185 C35.7559328,16.677185 35.6813257,16.7069456 35.6067187,16.7367062 C35.2933691,16.8408683 34.7114342,17.0640727 34.0996564,17.1533544 C33.9653638,17.183115 33.8758353,17.2277559 33.8758353,17.2723968 C33.8758353,17.3170376 33.9205995,17.3765588 34.0250494,17.43608 C34.3682418,17.6146435 34.4428488,17.7188055 34.4428488,18.0610523 C34.4577702,18.5669822 34.4428488,20.1442933 34.4428488,20.9627094 C34.4279274,22.3912176 34.3682418,25.1589521 34.338399,25.7690441 C34.3085561,26.4088967 34.2190277,26.4981784 33.8161497,26.5725799 C33.6967784,26.6023405 33.5923285,26.6321011 33.5923285,26.7065025 C33.5923285,26.780904 33.7116998,26.8106646 33.8609139,26.8106646 C34.2637919,26.8106646 34.5771415,26.780904 34.9800195,26.780904 C35.2038406,26.780904 35.800697,26.8255449 36.2483392,26.8255449 Z M39.8145558,26.9594675 C40.7844474,26.9594675 41.5454392,26.4832981 42.0080029,25.8285652 C42.0826099,25.7244032 42.1124527,25.6797623 42.1124527,25.6053608 C42.1124527,25.5309594 42.0527671,25.5011988 41.9483172,25.6202411 C41.575282,25.9773682 41.1127184,26.0666499 40.5606262,26.0666499 C40.187591,26.0666499 39.6205775,25.8880864 39.2624637,25.4863185 C38.8595857,25.05479 38.6059218,24.5042192 38.6059218,23.7304439 C38.6059218,23.5072395 38.6357646,23.2542745 38.6805288,23.1203519 C38.7103716,23.075711 38.7700572,23.0013096 38.8148215,23.0013096 L39.3519922,23.0013096 C39.7548702,23.0013096 41.6051248,23.0310702 41.7692603,23.0459504 C41.8438674,23.0459504 41.9483172,22.9417884 41.9483172,22.8376263 C41.9483172,21.9894496 41.1574826,21.2305547 40.0682198,21.2305547 C39.2773851,21.2305547 38.650686,21.5579211 38.247808,21.9001679 C37.5763446,22.465619 37.2480736,23.3733169 37.2480736,24.1768527 C37.2480736,24.950628 37.5017375,25.6946426 37.9643012,26.1856923 C38.4268649,26.6767419 39.053564,26.9594675 39.8145558,26.9594675 Z M38.8297429,22.7781052 C38.7849787,22.7781052 38.7551358,22.718584 38.7551358,22.6888234 C38.7551358,22.5400205 38.9043499,22.1680132 39.0834068,21.9299285 C39.3370708,21.6472029 39.5907347,21.4388788 39.9190057,21.4388788 C40.1726696,21.4388788 40.3666479,21.5728014 40.4710978,21.6918438 C40.6203119,21.9001679 40.6799975,22.1233723 40.6799975,22.4060978 C40.6799975,22.5400205 40.6501547,22.7632249 40.2472767,22.7632249 L38.8297429,22.7781052 Z M5.92803749,43.2073947 C5.97280171,43.2073947 6.03248734,43.1478736 6.12201579,42.9246692 C6.30107269,42.4484998 6.56965804,41.7788866 6.82332199,41.1836749 C7.28588564,40.1271741 7.73352789,39.1004339 8.00211324,38.5647433 C8.19609155,38.1629754 8.37514845,37.9546513 8.6437338,37.8802498 C8.86755493,37.8207287 8.91231915,37.7760878 8.91231915,37.7165666 C8.91231915,37.6570454 8.83771211,37.6421651 8.70341944,37.6421651 C8.47959831,37.6421651 8.1065631,37.686806 7.95734902,37.686806 C7.71860649,37.686806 7.45002114,37.6421651 7.19635719,37.6421651 C7.09190734,37.6421651 7.00237889,37.6719257 7.00237889,37.7314469 C7.00237889,37.7760878 7.04714311,37.8207287 7.24112142,37.8802498 C7.62907804,37.9844119 7.68876367,38.1183345 7.68876367,38.2522572 C7.68876367,38.3564192 7.58431381,38.6242645 7.45002114,38.9665112 C7.27096424,39.4724412 6.55473664,41.1687946 6.37567974,41.5408019 C6.37567974,41.5705625 6.34583692,41.6300837 6.30107269,41.5556822 C6.09217298,41.0943931 5.30133834,38.9367506 5.13720284,38.4754616 C4.95814594,38.0141725 5.04767439,37.9546513 5.39086679,37.8802498 C5.51023805,37.8504893 5.61468791,37.7909681 5.61468791,37.7314469 C5.61468791,37.686806 5.55500228,37.6570454 5.39086679,37.6570454 C5.12228143,37.6570454 4.94322453,37.686806 4.51050369,37.686806 C4.19715412,37.686806 3.8091975,37.6272849 3.49584793,37.6272849 C3.34663384,37.6272849 3.2720268,37.6719257 3.2720268,37.7314469 C3.2720268,37.7909681 3.34663384,37.8207287 3.48092652,37.8504893 C3.79427609,37.9248907 3.92856877,38.0885739 4.04794003,38.3415389 L4.30160398,38.9516309 C4.33144679,39.0260324 4.28668257,39.1301945 4.27176116,39.2045959 C4.12254708,39.5914835 3.46600511,41.034872 3.22726258,41.5408019 C3.21234117,41.5854428 3.15265553,41.5705625 3.13773413,41.5259216 C2.79454173,40.6926252 2.15292118,38.9962718 1.92910005,38.3117783 C1.86941442,38.0736936 1.85449301,37.939771 2.21260681,37.8802498 C2.31705667,37.8653695 2.46627075,37.8058484 2.46627075,37.7612075 C2.46627075,37.686806 2.34689948,37.6421651 2.21260681,37.6421651 C1.91417864,37.6421651 1.61575047,37.686806 1.34716512,37.686806 C0.929365691,37.686806 0.481723441,37.6272849 0.287745133,37.6272849 C0.123609641,37.6272849 0.0191597825,37.6570454 0.0191597825,37.7314469 C0.0191597825,37.7909681 0.108688232,37.835609 0.228059499,37.8653695 C0.601094708,37.9546513 0.780151608,38.1629754 0.884601466,38.445701 C1.04873696,38.7135462 1.89925723,40.9158296 2.16784258,41.6598443 C2.42150653,42.359218 2.51103498,42.7312254 2.58564202,42.9395495 C2.63040624,43.1032327 2.67517047,43.2073947 2.7348561,43.2073947 C2.79454173,43.2073947 2.86914878,43.118113 2.94375582,42.9246692 C3.10789131,42.4782604 3.24218398,42.1508939 3.46600511,41.6598443 C3.67490483,41.139034 4.30160398,39.7551668 4.43589665,39.4873215 C4.46573947,39.41292 4.49558228,39.4426806 4.51050369,39.4873215 L5.40578819,41.9128092 L5.76390199,42.9395495 C5.82358763,43.1478736 5.86835185,43.2073947 5.92803749,43.2073947 Z M12.7023569,43.1776342 C13.1798419,43.1776342 13.6424056,42.9544298 13.8513053,42.5377816 C13.9109909,42.4038589 13.8513053,42.359218 13.7617769,42.4038589 C13.5976414,42.4931407 13.4484273,42.5377816 13.329056,42.5377816 C12.9112566,42.5377816 12.7769639,42.255056 12.7769639,41.9723304 C12.7769639,41.5854428 12.8217281,40.171815 12.8217281,39.6212441 C12.8217281,39.159955 12.7620425,38.549863 12.6128284,38.2671375 C12.4337715,37.8058484 11.9712079,37.5082425 11.46388,37.5082425 C11.210216,37.5082425 10.9117879,37.5975243 10.5685955,37.7760878 C10.2701673,37.9248907 9.77776084,38.2373769 9.43456845,38.6391448 C9.25551155,38.8474689 9.15106169,38.9813915 9.15106169,39.0855536 C9.15106169,39.1450747 9.22566873,39.2343565 9.30027577,39.2194762 C9.40472563,39.2045959 9.85236788,38.9962718 10.001582,38.8921098 C10.0314248,38.8623492 10.0612676,38.8177083 10.0612676,38.7730674 C10.0612676,38.6689054 10.0612676,38.549863 10.076189,38.4903419 C10.1060318,38.3266586 10.1955603,38.2224966 10.3000101,38.1332148 C10.5238313,37.9992922 10.6730453,37.9546513 10.8968665,37.9546513 C11.0759234,37.9546513 11.3295873,38.0439331 11.5235656,38.192736 C11.7772296,38.3861798 11.8816794,38.802828 11.8816794,39.41292 C11.8816794,39.6212441 11.8816794,39.91885 11.8518366,40.0974135 C11.8518366,40.1569347 11.7772296,40.2908573 11.6578583,40.3206179 C11.3445087,40.4396602 9.98666055,40.8414282 9.62854675,41.034872 C9.49425408,41.1092734 9.09137605,41.4068793 9.09137605,41.8830487 C9.09137605,42.6568239 9.68823239,43.1627539 10.2850887,43.1627539 C10.8521022,43.1627539 11.2997445,42.9097889 11.7473867,42.4931407 C11.7623081,42.4782604 11.8070724,42.4782604 11.8219938,42.508021 C11.9562865,42.8502677 12.2845574,43.1776342 12.7023569,43.1776342 Z M10.9416307,42.5973027 C10.479067,42.5973027 10.0463462,42.255056 10.0463462,41.7640063 C10.0463462,41.3324778 10.2403245,41.1092734 10.4193814,41.0199917 C10.732731,40.8563084 11.5981727,40.5438223 11.792151,40.5140617 C11.8219938,40.4991814 11.8518366,40.5735829 11.8518366,40.5884632 C11.8518366,41.1539143 11.8219938,41.749126 11.7772296,42.002091 C11.7623081,42.1657742 11.6727797,42.2996969 11.6130941,42.359218 C11.4489586,42.508021 11.1952946,42.5973027 10.9416307,42.5973027 Z M16.3879447,43.0437115 C16.581923,43.0437115 16.6863729,42.9990706 16.6863729,42.9395495 C16.6863729,42.8949086 16.581923,42.8502677 16.4923946,42.8353874 C16.0745952,42.760986 15.9850667,42.6568239 15.9701453,42.255056 C15.9578571,42.0222232 15.9455689,41.5068192 15.9416145,40.2849876 L15.9414769,37.2572151 C15.9498356,35.1767899 15.9999881,33.0057138 15.9999881,32.910232 C15.9999881,32.8358305 15.9850667,32.7465487 15.9552239,32.7465487 C15.8955383,32.7465487 15.8209312,32.7763093 15.776167,32.7911896 C15.447896,32.910232 15.0897822,33.0441546 14.6570614,33.1334364 C14.5227687,33.1631969 14.4332402,33.2078378 14.4332402,33.2524787 C14.4332402,33.2971196 14.4780045,33.3268802 14.5824543,33.3864013 C14.9704109,33.624486 15.0002538,33.6988875 15.0002538,34.0262539 C15.0151752,34.6809868 15.0002538,35.9011709 15.0002538,37.1064746 C14.9853323,38.8921098 14.9256467,41.4068793 14.8958039,41.9574501 C14.8361183,42.612183 14.7465898,42.7461057 14.3735546,42.8205071 C14.1795763,42.865148 14.1049693,42.8800283 14.1049693,42.9544298 C14.1049693,43.0288312 14.1795763,43.0437115 14.3586332,43.0437115 C14.5824543,43.0437115 14.9704109,43.0139509 15.3583676,43.0139509 C15.6120315,43.0139509 16.1492022,43.0437115 16.3879447,43.0437115 Z M23.3711638,43.0883524 C23.4905351,43.0883524 23.6248278,43.0734721 23.6248278,42.9841903 C23.6248278,42.9246692 23.5352993,42.8800283 23.4010067,42.8502677 C22.9533644,42.7461057 22.7444647,42.5824224 22.3266653,42.1508939 C21.6253591,41.4366399 20.5510177,40.2908573 20.1033754,39.7700471 C20.088454,39.7402865 20.0586112,39.6956456 20.088454,39.665885 C20.3719608,39.3980397 21.1031098,38.7581871 21.4910664,38.4754616 C22.1028441,37.9992922 22.3565081,37.9100104 22.863836,37.8207287 C23.0428929,37.7909681 23.0876571,37.7314469 23.0876571,37.7016863 C23.0876571,37.6421651 23.0279714,37.5975243 22.863836,37.5975243 C22.4758793,37.5975243 21.879023,37.686806 21.550752,37.686806 C21.3866165,37.686806 21.0434241,37.6719257 20.8046816,37.6719257 C20.6703889,37.6719257 20.5659391,37.7165666 20.5659391,37.7760878 C20.5659391,37.835609 20.6853103,37.8802498 20.819603,37.8951301 C21.147874,37.9546513 21.2523239,38.0439331 21.2523239,38.1332148 C21.2523239,38.192736 21.1777168,38.296898 21.0881884,38.3861798 C20.819603,38.7433068 20.0735326,39.41292 19.4766763,39.8890894 C19.357305,39.9783712 19.2379337,40.0527726 19.1782481,40.0527726 C19.1334839,40.0527726 19.1036411,39.9783712 19.1036411,39.8146879 C19.1036411,38.1778557 19.1782481,36.213657 19.1782481,35.7523679 C19.1782481,34.6512263 19.2230123,33.3417605 19.2528551,32.8507108 C19.2528551,32.7763093 19.2230123,32.7316685 19.2080909,32.7316685 C19.1484053,32.7316685 19.0737982,32.761429 18.9693484,32.8060699 C18.8947413,32.8358305 18.5067847,32.9995137 17.9099284,33.1631969 C17.7607143,33.2078378 17.6711858,33.2375984 17.6711858,33.2971196 C17.6711858,33.3268802 17.7308715,33.3566408 17.8054785,33.4012816 C17.9845354,33.4905634 18.1188281,33.5798452 18.1486709,33.6988875 C18.1934351,33.8625707 18.2083565,34.0411342 18.2083565,34.383381 C18.2083565,35.5440438 18.1635923,37.4487213 18.1486709,38.6093842 C18.1486709,39.7700471 18.1337495,41.0199917 18.0740639,42.1062531 C18.0442211,42.5973027 17.9397712,42.7312254 17.4772075,42.8502677 C17.3727577,42.865148 17.2832292,42.9097889 17.2832292,42.9544298 C17.2832292,43.0139509 17.3727577,43.0585918 17.5219718,43.0585918 C17.7010287,43.0585918 18.0143782,43.0139509 18.4918633,43.0139509 C18.8798199,43.0139509 19.1931695,43.0585918 19.6109689,43.0585918 C19.7751044,43.0585918 19.8944757,43.0288312 19.8944757,42.9544298 C19.8944757,42.8949086 19.8198687,42.865148 19.6706546,42.8205071 C19.2080909,42.7163451 19.0887196,42.6717042 19.0887196,41.9574501 C19.0737982,41.139034 19.0887196,40.6479843 19.1036411,40.3801391 C19.1036411,40.3206179 19.1185625,40.2313361 19.1633267,40.2313361 C19.2110752,40.2313361 19.2874728,40.2979998 19.37724,40.385615 L19.4468334,40.4545405 C19.8944757,40.9009493 20.9538957,42.0169713 21.2672453,42.3740983 C21.4015379,42.5824224 21.3716951,42.7163451 21.1180312,42.7758662 C20.8494458,42.8353874 20.7748388,42.865148 20.7748388,42.9395495 C20.7748388,43.0288312 20.8792886,43.0288312 21.0434241,43.0288312 C21.2672453,43.0288312 21.4612236,43.0139509 21.7148875,43.0139509 C22.2968224,43.0139509 22.863836,43.0883524 23.3711638,43.0883524 Z M25.6839821,40.5587026 C25.7585892,40.5587026 25.8182748,40.4247799 25.8481176,40.1122938 C25.9078033,39.3385186 26.3405241,36.0648541 26.3405241,35.3803606 C26.3405241,34.8595504 26.1017816,34.3387401 25.6690607,34.3387401 C25.2661827,34.3387401 24.9975973,34.993473 25.0125188,35.4398818 C25.0423616,36.3624599 25.3706326,38.7730674 25.5049252,40.1569347 C25.534768,40.4694208 25.5944537,40.5587026 25.6839821,40.5587026 Z M25.6989035,43.1627539 C25.9227247,43.1627539 26.2957599,42.9395495 26.2957599,42.5229013 C26.2957599,42.3145772 26.1465458,41.8086472 25.6989035,41.8086472 C25.3706326,41.8086472 25.0125188,42.1062531 25.0125188,42.508021 C25.0125188,42.9544298 25.4153968,43.1627539 25.6989035,43.1627539 Z"/>
    </g>
    <rect width="435" height="217.5" y=".25" stroke="#979797"/>
  </g>
</svg>
