<svg id="Layer_1" data-name="Layer 1" xmlns="http://www.w3.org/2000/svg" viewBox="0 0 399 200"><defs><style>.cls-1,.cls-2,.cls-3,.cls-4,.cls-5,.cls-6,.cls-7{fill:none;stroke:#222f3c;}.cls-1,.cls-2,.cls-4{stroke-linecap:round;}.cls-1,.cls-2,.cls-4,.cls-5{stroke-linejoin:round;}.cls-1,.cls-6,.cls-7{stroke-width:0.5px;}.cls-2,.cls-3,.cls-5{stroke-width:0.4px;}.cls-3,.cls-6,.cls-7{stroke-miterlimit:10;}.cls-4{stroke-width:0.4px;}.cls-7{stroke-linecap:square;}.cls-8{fill:#333838;}</style></defs><line class="cls-1" x1="198.4218" y1="118.5362" x2="193.0177" y2="113.4331"/><path class="cls-1" d="M200.6136,118.5661l5.1462-5.45-6.1337-6.1338h0a.0644.0644,0,0,0-.0741-.0147h-.0009a.062.062,0,0,0-.0409.0629v10.4328"/><path class="cls-1" d="M199.4944,117.4637v-3.9143a.0663.0663,0,0,0-.02-.0459l.0006-.0006a.0731.0731,0,0,0-.0495-.0212l-6.4081-.0486"/><path class="cls-1" d="M201.644,119.6392h3.9888a.0677.0677,0,0,0,.0461-.02h0a.0725.0725,0,0,0,.0211-.0493l.0487-6.4277-5.1282,5.43"/><line class="cls-1" x1="192.9994" y1="113.4343" x2="193.0007" y2="113.433"/><path class="cls-1" d="M192.9994,113.4343l-6.12,6.12h0a.0681.0681,0,0,0-.0192.0336.07.07,0,0,0,.0043.04v.001a.0618.0618,0,0,0,.0631.0408H197.392"/><polyline class="cls-1" points="192.999 113.435 192.998 113.433 193 113.433"/><line class="cls-1" x1="192.9994" y1="113.4343" x2="198.4124" y2="118.5457"/><polyline class="cls-1" points="193.018 113.433 193.009 113.425 193 113.433"/><line class="cls-1" x1="193.0177" y1="113.4331" x2="193.0007" y2="113.433"/><line class="cls-1" x1="200.5457" y1="120.7376" x2="205.99" y2="125.8787"/><path class="cls-1" d="M198.43,120.7076l-5.1821,5.488,6.1336,6.1338h0a.0649.0649,0,0,0,.0742.0147h.0009c.0136-.0056.024,17.4784.031,17.4681s.01-17.5151.01-17.531V121.7745"/><path class="cls-1" d="M199.513,121.77v3.9925a.0659.0659,0,0,0,.02.0458v.0007a.0738.0738,0,0,0,.0494.0212l6.4081.0486"/><path class="cls-1" d="M198.4227,120.7l-5.1642,5.4686.0488-6.4277a.0725.0725,0,0,1,.0211-.0493h0a.0664.0664,0,0,1,.046-.02h4.02"/><line class="cls-1" x1="206.0083" y1="125.8776" x2="206.0071" y2="125.8788"/><path class="cls-1" d="M206.0083,125.8776l6.12-6.12h0a.0676.0676,0,0,0,.0193-.0336.07.07,0,0,0-.0045-.04v-.001a.0615.0615,0,0,0-.0629-.0408H201.641"/><polyline class="cls-1" points="206.008 125.878 206.01 125.879 206.007 125.879"/><line class="cls-1" x1="206.0083" y1="125.8776" x2="200.5552" y2="120.728"/><polyline class="cls-1" points="205.99 125.879 205.999 125.887 206.007 125.879"/><line class="cls-1" x1="205.99" y1="125.8787" x2="206.0071" y2="125.8788"/><line class="cls-1" x1="198.4301" y1="120.7076" x2="198.4227" y2="120.7003"/><line class="cls-1" x1="198.4218" y1="118.5362" x2="198.4124" y2="118.5457"/><line class="cls-1" x1="198.4227" y1="120.7003" x2="197.3951" y2="119.6727"/><line class="cls-1" x1="197.3917" y1="119.6693" x2="197.3951" y2="119.6727"/><polyline class="cls-1" points="201.644 119.639 201.666 119.618 200.621 118.573"/><polyline class="cls-1" points="199.513 121.77 199.503 121.781 199.497 121.775"/><line class="cls-1" x1="199.5134" y1="121.7699" x2="200.5457" y2="120.7376"/><polyline class="cls-1" points="199.494 117.463 199.503 117.455 199.511 117.463"/><line class="cls-1" x1="201.6407" y1="119.6425" x2="200.5552" y2="120.728"/><line class="cls-1" x1="198.4301" y1="120.7076" x2="199.4972" y2="121.7748"/><polyline class="cls-1" points="197.392 119.67 197.34 119.618 198.412 118.546"/><line class="cls-1" x1="199.4944" y1="117.4637" x2="198.4218" y2="118.5362"/><line class="cls-1" x1="200.6136" y1="118.5661" x2="199.5106" y2="117.463"/><line class="cls-1" x1="200.5457" y1="120.7376" x2="200.5552" y2="120.728"/><line class="cls-1" x1="201.6407" y1="119.6425" x2="201.644" y2="119.6392"/><line class="cls-1" x1="200.6136" y1="118.5661" x2="200.621" y2="118.5735"/><path class="cls-2" d="M74.3093,81.0422H72.0331a.5275.5275,0,0,1-.5275-.5274h0v-1.56a.5275.5275,0,0,1,.5275-.5274h5.9883"/><line class="cls-2" x1="70.9969" y1="95.3155" x2="72.6009" y2="95.3155"/><line class="cls-2" x1="73.0125" y1="85.3834" x2="73.0125" y2="81.7297"/><line class="cls-2" x1="72.4557" y1="95.3155" x2="70.4242" y2="95.3155"/><line class="cls-2" x1="69.5362" y1="93.9603" x2="69.5434" y2="93.9427"/><line class="cls-2" x1="69.5434" y1="93.9427" x2="73.0071" y2="85.4554"/><path class="cls-2" d="M69.5362,93.96a.98.98,0,0,0,.908,1.3538"/><path class="cls-2" d="M69.5362,93.96l.0072-.0176"/><line class="cls-2" x1="72.4557" y1="95.3155" x2="70.4242" y2="95.3155"/><line class="cls-2" x1="69.5362" y1="93.9603" x2="69.5434" y2="93.9427"/><line class="cls-2" x1="69.5434" y1="93.9427" x2="73.0071" y2="85.4554"/><path class="cls-2" d="M69.5362,93.96a.98.98,0,0,0,.908,1.3538"/><path class="cls-2" d="M69.5362,93.96l.0072-.0176"/><path class="cls-2" d="M78.2113,82.6269h3.17A.5076.5076,0,0,0,81.866,82.1V80.539a.5077.5077,0,0,0-.4847-.5275H75.3376a.5075.5075,0,0,0-.4848.5275V82.1a.5075.5075,0,0,0,.4848.5274h1.0455"/><line class="cls-2" x1="76.0516" y1="87.554" x2="76.0516" y2="83.9003"/><line class="cls-2" x1="82.6822" y1="97.486" x2="73.4632" y2="97.486"/><line class="cls-2" x1="72.5754" y1="96.1307" x2="72.5825" y2="96.1132"/><line class="cls-2" x1="72.5825" y1="96.1132" x2="76.0461" y2="87.6259"/><path class="cls-2" d="M72.5754,96.1307a.98.98,0,0,0,.9078,1.354"/><path class="cls-2" d="M72.5754,96.1307l.0071-.0175"/><line class="cls-2" x1="80.6667" y1="87.554" x2="80.6667" y2="83.9003"/><line class="cls-2" x1="73.6085" y1="97.486" x2="83.2551" y2="97.486"/><line class="cls-2" x1="84.1429" y1="96.1307" x2="84.1358" y2="96.1132"/><line class="cls-2" x1="84.1358" y1="96.1132" x2="80.6722" y2="87.6259"/><path class="cls-2" d="M84.1429,96.1307a.98.98,0,0,1-.9083,1.354"/><path class="cls-2" d="M84.1429,96.1307l-.0071-.0175"/><line class="cls-2" x1="73.6085" y1="97.486" x2="83.2551" y2="97.486"/><line class="cls-2" x1="84.1429" y1="96.1307" x2="84.1358" y2="96.1132"/><line class="cls-2" x1="84.1358" y1="96.1132" x2="80.6722" y2="87.6259"/><path class="cls-2" d="M84.1429,96.1307a.98.98,0,0,1-.9083,1.354"/><path class="cls-2" d="M84.1429,96.1307l-.0071-.0175"/><line class="cls-3" x1="79.1099" y1="84.7852" x2="80.7007" y2="84.7852"/><line class="cls-3" x1="79.1099" y1="83.8738" x2="80.7007" y2="83.8738"/><line class="cls-3" x1="79.1099" y1="85.7073" x2="80.7007" y2="85.7073"/><line class="cls-3" x1="79.1099" y1="86.6295" x2="80.7007" y2="86.6295"/><line class="cls-3" x1="79.1099" y1="87.5516" x2="80.7007" y2="87.5516"/><path class="cls-3" d="M75.6871,92.8618c0-.5233.9475-1.6623.9475-1.6623s.9475,1.139.9475,1.6623a.9475.9475,0,0,1-1.895,0Z"/><path class="cls-3" d="M77.6642,95.2072c0-.5234.9474-1.6623.9474-1.6623s.9475,1.1389.9475,1.6623a.9475.9475,0,0,1-1.8949,0Z"/><path class="cls-3" d="M78.1882,91.8484c0-.5233.9476-1.6623.9476-1.6623s.9475,1.139.9475,1.6623a.9476.9476,0,0,1-1.8951,0Z"/><path class="cls-3" d="M216.1932,59.3035l13.6138,12.81h0L220.37,82.1424a1.12,1.12,0,0,1-1.5831.0481L206.8042,70.916a1.12,1.12,0,0,1-.0482-1.5831h0l9.4366-10.0293Z"/><rect class="cls-4" x="216.0483" y="55.2298" width="9.5726" height="3.7384" transform="translate(27.9196 178.8037) rotate(-46.7436)"/><rect class="cls-4" x="219.022" y="58.3724" width="7.9772" height="3.7384" transform="translate(26.3158 181.3775) rotate(-46.7436)"/><rect class="cls-4" x="221.9958" y="61.5153" width="6.3818" height="3.7384" transform="translate(24.7117 183.9516) rotate(-46.7436)"/><rect class="cls-4" x="224.9694" y="64.6581" width="4.7863" height="3.7384" transform="translate(23.1076 186.5254) rotate(-46.7436)"/><rect class="cls-4" x="227.9434" y="67.8011" width="3.1909" height="3.7384" transform="translate(21.5036 189.0996) rotate(-46.7436)"/><polygon class="cls-5" points="233.914 65.02 231.336 66.246 232.848 67.668 233.914 65.02"/><polygon class="cls-5" points="231.336 66.246 229.273 67.226 231.995 69.787 232.848 67.668 231.336 66.246"/><polygon class="cls-5" points="232.284 61.296 229.706 62.522 231.218 63.945 232.284 61.296"/><polygon class="cls-5" points="229.706 62.522 227.643 63.502 230.366 66.063 231.218 63.945 229.706 62.522"/><polygon class="cls-5" points="230.655 57.572 228.076 58.798 229.589 60.221 230.655 57.572"/><polygon class="cls-5" points="228.076 58.798 226.013 59.778 228.736 62.339 229.589 60.221 228.076 58.798"/><polygon class="cls-5" points="229.026 53.849 226.447 55.074 227.96 56.497 229.026 53.849"/><polygon class="cls-5" points="226.447 55.074 224.385 56.054 227.108 58.616 227.96 56.497 226.447 55.074"/><polygon class="cls-5" points="227.397 50.125 224.818 51.351 226.33 52.773 227.397 50.125"/><polygon class="cls-5" points="224.818 51.351 222.755 52.331 225.478 54.892 226.33 52.773 224.818 51.351"/><line class="cls-1" x1="56.8205" y1="150.2446" x2="237.9689" y2="150.2446"/><path class="cls-6" d="M154.1459,101.5507a11.0631,11.0631,0,0,0,22.1062,0,9.5653,9.5653,0,0,0-.1217-1.8243"/><path class="cls-6" d="M168.2481,147.9652h3.9639a1.7533,1.7533,0,0,1,1.7533,1.7533v.4383h-5.7172Z"/><path class="cls-6" d="M162.15,150.1567h-5.717v-.4384a1.753,1.753,0,0,1,1.753-1.7532h3.964Z"/><path class="cls-6" d="M154.1459,101.5507c0-.12.0052-.2379.0094-.3565a2.007,2.007,0,0,0,.1812,4.01h.4844A10.1763,10.1763,0,0,1,154.1459,101.5507Z"/><path class="cls-6" d="M176.2427,101.1942c.0041.1186.0094.237.0094.3565a10.1807,10.1807,0,0,1-.675,3.6527h.4845a2.007,2.007,0,1,0,.1811-4.01h0Z"/><path class="cls-6" d="M171.6783,102.3726a1.24,1.24,0,0,1-2.4773,0"/><path class="cls-6" d="M161.197,102.3726a1.24,1.24,0,0,1-2.4774,0"/><path class="cls-6" d="M163.1027,107.4314a2.0982,2.0982,0,0,0,4.1926,0"/><path class="cls-6" d="M178.0236,116.8976a11.6285,11.6285,0,0,0-5.8456-5.57,3.1052,3.1052,0,0,0-1.1312-.4188,1.95,1.95,0,0,0-.4059-.0448c-.02,0-.04.0017-.0595.0023-.0156,0-.0307-.0023-.0464-.0023h-.0672a11.494,11.494,0,0,1-10.5368,0h-.0672c-.0157,0-.0307.002-.0464.0023-.02-.0006-.04-.0023-.0594-.0023a1.95,1.95,0,0,0-.4058.0448,3.1052,3.1052,0,0,0-1.1312.4188,11.6289,11.6289,0,0,0-5.8456,5.57c-.0985.2016-.1884.4065-.274.6119l3.7356.8325a7.8726,7.8726,0,0,1,.9779-1.4951v9.996h16.77v-9.996a7.863,7.863,0,0,1,.9779,1.4951l3.7355-.8325C178.212,117.3042,178.122,117.1,178.0236,116.8976Z"/><path class="cls-6" d="M159.8538,110.7133a5.3553,5.3553,0,0,0,10.7008,0"/><path class="cls-6" d="M175.4937,123.885a2.1578,2.1578,0,0,1,.93-.2105,2.1071,2.1071,0,0,1,1.8613,1.087,10.5783,10.5783,0,0,0-.4-7.16l-2.9033.6472A7.9,7.9,0,0,1,175.4937,123.885Z"/><ellipse class="cls-6" cx="176.4236" cy="125.6834" rx="2.0963" ry="2.0089"/><path class="cls-6" d="M151.25,123.05a3.0955,3.0955,0,0,0-1.1243-.22,8.2368,8.2368,0,0,0,2.3568-5.2528l2.9.6608a10.7863,10.7863,0,0,1-2.9717,6.58A2.0018,2.0018,0,0,0,151.25,123.05Z"/><ellipse class="cls-6" cx="150.3159" cy="124.8486" rx="2.0963" ry="2.0089"/><path class="cls-6" d="M165.2023,86.2279a11.1388,11.1388,0,0,0-4.0268.753,19.1594,19.1594,0,0,1-10.06-1.2992V89.23a9.4751,9.4751,0,0,0,2.622,6.4022h0a13.5476,13.5476,0,0,0-.2188,5.63,1.9079,1.9079,0,0,1,.6519-.1161h.0042a12.5164,12.5164,0,0,1,.835-4.3456,10.9925,10.9925,0,0,0,1.6584,1.0709,12.8261,12.8261,0,0,0,8.4632.7047,25.91,25.91,0,0,1,5.0215-.4891,19.504,19.504,0,0,1,5.88.9929,12.7424,12.7424,0,0,1,.1974,2.0664h.0041a1.9094,1.9094,0,0,1,.6518.1162,13.7,13.7,0,0,0,.1954-2.2331c0-.0224.0015-.0441.0015-.0664C177.0831,91.93,171.7639,86.2279,165.2023,86.2279Z"/><path class="cls-6" d="M165.2186,134.31v13.64h7.5835V134.174c.896-1.0411.8086-4.5414.8086-5.9845l-16.7964.0587"/><path class="cls-6" d="M165.2086,136.5275v11.4217H157.625v-13.776c-.896-1.0411-.8085-4.5414-.8085-5.9845l16.7963.0587"/><path class="cls-6" d="M146.4487,101.2618c.004.1186.0094.2368.0094.3565a10.18,10.18,0,0,1-.6751,3.6525h.4844a2.0066,2.0066,0,0,0,.1813-4.009Z"/><path class="cls-6" d="M141.8843,103.6272a1.24,1.24,0,0,0-2.4774,0"/><path class="cls-6" d="M131.4029,103.6272a1.24,1.24,0,0,0-2.4773,0"/><path class="cls-6" d="M133.3086,107.4989a2.0982,2.0982,0,0,0,4.1926,0"/><path class="cls-6" d="M149.3391,123.0483a3.1423,3.1423,0,0,1,1.1217-.2253,7.9341,7.9341,0,0,1-2.3072-5.1544l-2.8938.6728a10.3884,10.3884,0,0,0,2.91,6.4566A2.0082,2.0082,0,0,1,149.3391,123.0483Z"/><line class="cls-6" x1="127.1139" y1="113.3487" x2="145.6448" y2="113.3487"/><path class="cls-1" d="M142.034,111.1738a9.7,9.7,0,0,0,4.57-5.6553"/><path class="cls-6" d="M123.4629,101.324a2.0623,2.0623,0,0,0,0,3.661Z"/><path class="cls-6" d="M127.2979,112.34c0,2.9826-1.1648,3.8706-2.6669,5.7555l1.4111.3145a7.8853,7.8853,0,0,1,.9779-1.4953v10.0322h16.77V116.9142a7.8729,7.8729,0,0,1,.978,1.4953l3.7355-.8325c-.0855-.2055-.1909-.4032-.2739-.6118a11.9366,11.9366,0,0,0-7.44-6.1755"/><path class="cls-1" d="M147.209,101.2153V98.9322a11.83,11.83,0,0,0-23.66,0h0"/><path class="cls-6" d="M127.2979,111.9889v.3506c0,2.9826-1.15,3.8416-2.6516,5.7266"/><line class="cls-6" x1="127.2979" y1="111.9688" x2="127.2979" y2="111.9889"/><path class="cls-6" d="M130.0205,110.82a10.1733,10.1733,0,0,0-2.7226,1.1686"/><line class="cls-1" x1="123.5516" y1="117.8546" x2="123.5554" y2="115.3014"/><path class="cls-7" d="M123.5516,117.8546l-.0026,1.7407a17.8066,17.8066,0,0,1,1.0684-1.4944"/><line class="cls-1" x1="123.5554" y1="115.3014" x2="123.5797" y2="98.8045"/><path class="cls-6" d="M122.3,117.7711a16.1724,16.1724,0,0,1,1.2495-2.5336"/><path class="cls-1" d="M123.6009,98.963a11.8057,11.8057,0,0,1,23.6113-.0663"/><path class="cls-6" d="M146.321,100.08a13.9334,13.9334,0,0,1-1.651-.4447c-3.4207-1.245-5.4007-3.1087-6.2167-5.1927-3.2083,1.7772-7.2565,3.0622-8.28,4.0166-1.4737,1.3748-2.8758,3.3474-2.8758,5.3629v4.8956"/><path class="cls-6" d="M146.3307,100.0767l.0412.0088-.0413-.0091"/><line class="cls-6" x1="127.2979" y1="108.7175" x2="127.2979" y2="111.9688"/><path class="cls-6" d="M146.152,99.8954a5.2321,5.2321,0,0,1,.3213,1.6553A10.83,10.83,0,0,1,135.42,112.1431a11.2325,11.2325,0,0,1-8.1223-3.4256"/><line class="cls-6" x1="123.7207" y1="117.9042" x2="122.3522" y2="117.4893"/><path class="cls-6" d="M138.4233,147.9652h3.9639a1.7532,1.7532,0,0,1,1.7532,1.7533v.4383h-5.7171Z"/><path class="cls-6" d="M132.325,150.1567h-5.7171v-.4384a1.753,1.753,0,0,1,1.753-1.7532h3.9641Z"/><path class="cls-6" d="M135.393,134.31v13.64h7.5835V134.174c.896-1.0411.8087-4.5414.8087-5.9845l-16.7964.0587"/><path class="cls-6" d="M135.3837,136.5275v11.4217H127.8v-13.776c-.896-1.0411-.8086-4.5414-.8086-5.9845l16.7964.0587"/><path class="cls-6" d="M122.7359,117.577a8.235,8.235,0,0,1-2.3568,5.2528,3.1017,3.1017,0,0,1,1.1242.22,2.0018,2.0018,0,0,1,1.1607,1.7679,10.7858,10.7858,0,0,0,2.9718-6.58"/><ellipse class="cls-6" cx="120.5691" cy="124.8486" rx="2.0963" ry="2.0089"/><path class="cls-6" d="M112.1232,103.6272a1.24,1.24,0,0,0-2.4774,0"/><path class="cls-6" d="M101.6418,103.6272a1.24,1.24,0,0,0-2.4774,0"/><path class="cls-6" d="M103.5475,107.4989a2.0982,2.0982,0,0,0,4.1926,0"/><ellipse class="cls-6" cx="94.4192" cy="125.7509" rx="2.0963" ry="2.0089"/><path class="cls-6" d="M120.7,122.823a7.9353,7.9353,0,0,1-2.3072-5.1544l-2.8939.6728a10.3884,10.3884,0,0,0,2.91,6.4566"/><path class="cls-6" d="M94.87,118.095l1.4112.3145a7.88,7.88,0,0,1,.9778-1.4953v10.0322h16.77V116.9142a7.8773,7.8773,0,0,1,.9779,1.4953l3.7355-.8325c-.0856-.2055-.19-.4032-.2739-.6118a11.9375,11.9375,0,0,0-7.44-6.1755"/><path class="cls-6" d="M96.3056,118.41l-3.7356-.833c.0855-.2055.19-.4032.2738-.6118a11.9366,11.9366,0,0,1,7.44-6.1755"/><path class="cls-1" d="M93.0656,117.9194a12.4114,12.4114,0,0,0-.5076,6.91,2.1742,2.1742,0,0,1,2.791-.8764,8.034,8.034,0,0,1,.5122-5.6365"/><path class="cls-6" d="M108.6621,147.9652h3.9639a1.7533,1.7533,0,0,1,1.7532,1.7533v.4383h-5.7171Z"/><path class="cls-6" d="M102.5638,150.1567H96.8467v-.4384A1.7532,1.7532,0,0,1,98.6,147.9651h3.964Z"/><path class="cls-6" d="M105.6324,134.31v13.64h7.5835V134.174c.896-1.0411.8085-4.5414.8085-5.9845l-16.7963.0587"/><path class="cls-6" d="M105.6225,136.5275v11.4217H98.039v-13.776c-.896-1.0411-.8085-4.5414-.8085-5.9845l16.7963.0587"/><path class="cls-6" d="M96.4794,99.8434c3.2539-1.1749,5.1975-2.9079,6.0731-4.855,1.7846,2.584,5.8454,4.39,10.5746,4.39a23.1113,23.1113,0,0,0,3.3163-.255,10.9291,10.9291,0,1,1-21.6507,2.196c0-.3416.0178-.6789.049-1.0124A15.949,15.949,0,0,0,96.4794,99.8434Z"/><path class="cls-6" d="M90.2493,103.92V89.6338a6.7385,6.7385,0,0,1,13.0359-2.3358,7.6328,7.6328,0,0,0-1.5934-.168A7.5423,7.5423,0,0,0,94.12,94.6418a7.3863,7.3863,0,0,0,.0811,1.0733h0c.0286.1961.0622.3906.1056.5817l.013-.0475a11.521,11.521,0,0,0-.288,4.2438c.03.2576.071.5122.1174.7647a2,2,0,0,0,.644,3.9H95.5a10.8012,10.8012,0,0,0,1.4584,2.6363,5.05,5.05,0,0,1-10.0738-.4658V105.66A2.1392,2.1392,0,0,0,90.25,103.92Z"/><path class="cls-6" d="M105.73,87.4638a11.732,11.732,0,0,1,11.7735,11.475c.0013.07.0054.1395.0054.21a11.6581,11.6581,0,0,1-.1952,2.11,2.0282,2.0282,0,0,0-.6461-.1066h-.0044a10.7922,10.7922,0,0,0-.22-2.0291h.0008a23.107,23.107,0,0,1-3.3171.2551c-4.7292,0-8.79-1.8058-10.5746-4.39-.8756,1.9471-2.8191,3.68-6.0731,4.855,0,0-1.6546.4672-1.6376.4633q-.0393.4182-.0448.8455h-.004a2.023,2.023,0,0,0-.644.1058c-.0463-.2525-.0877-.5068-.1173-.7647A11.6657,11.6657,0,0,1,105.73,87.4639Z"/><path class="cls-6" d="M94.3063,96.2967a7.504,7.504,0,0,1,7.3855-9.1668,7.6144,7.6144,0,0,1,2.533.4321A11.7544,11.7544,0,0,0,94.3063,96.2967Z"/><path class="cls-6" d="M116.6679,101.3188c0-.056-.0035-.1111-.0044-.1669h.0044a2.0032,2.0032,0,0,1,.042,4.0062h-.7489A10.7464,10.7464,0,0,0,116.6679,101.3188Z"/><circle class="cls-6" cx="105.525" cy="119.3923" r="0.8297"/><circle class="cls-6" cx="105.525" cy="122.0659" r="0.8297"/><path class="cls-6" d="M130.6917,69.2008a4.96,4.96,0,0,0-4.96-4.96H67.8661a4.96,4.96,0,0,0-4.96,4.96v32.4464a4.96,4.96,0,0,0,4.96,4.96H84.8376"/><line class="cls-6" x1="130.6917" y1="69.2008" x2="130.6917" y2="85.8862"/><rect class="cls-6" x="88.326" y="64.3837" width="16.9463" height="5.6487"/><path class="cls-8" d="M238.6074,54.7044c.2774,0,1.0313.0772,1.4932.0772.4932,0,.97-.0464,1.2471-.0464.17,0,.2461.0307.2461.0923,0,.0771-.0918.1235-.2461.1543-.3692.0766-.462.1694-.462.2768a1.62,1.62,0,0,0,.2618.5855c.2773.477,1.6318,2.8173,2.0009,3.3252.0313.0156.1387.0927.1856.0156.5234-.8623,1.5088-2.479,1.832-3.0332a1.804,1.804,0,0,0,.3535-.8159c0-.1846-.1689-.3082-.5693-.3848-.1231-.0308-.2617-.0772-.2617-.1543,0-.0459.0927-.0767.247-.0767.4307,0,.6768.0616,1.1075.0616.37,0,.8632-.0772,1.0937-.0772.17,0,.2774.0308.2774.0923s-.0928.1235-.3389.1543a1.6988,1.6988,0,0,0-1.14.7851c-.8007,1.0313-1.8476,2.8482-2.3085,3.6026a1.7763,1.7763,0,0,0-.2168.6006c-.03.4926-.03,1.3857-.03,2.1093,0,.4,0,.6929.03,1.2164.0312.7236.1386.8925.6777,1,.2314.0308.3242.0772.3242.1539s-.1543.0927-.2773.0927c-.6162,0-.9082-.0771-1.4786-.0771-.5234,0-.8164.0615-1.247.0615-.2158,0-.3233-.0459-.3233-.123,0-.0616.1543-.108.3389-.1387.6162-.0772.708-.231.7549-.8316.03-.3076.06-1.3237.06-1.9858,0-.9546-.0156-1.2319-.03-1.4321a.8693.8693,0,0,0-.1084-.3384c-.5078-.9238-1.7852-3.064-2.2325-3.6953-.4921-.6773-.7695-.9082-1.23-1.0005-.2471-.0464-.3242-.1079-.3242-.1543C238.3145,54.7044,238.4072,54.7044,238.6074,54.7044Z"/><path class="cls-8" d="M251.4805,61.6483a2.9485,2.9485,0,0,1-2.9258,2.9711,2.9359,2.9359,0,0,1-1.8779-5.2343,3.1585,3.1585,0,0,1,1.8476-.647A2.89,2.89,0,0,1,251.4805,61.6483Zm-4.8037-.2159a3.5209,3.5209,0,0,0,.6464,2.1094,1.8286,1.8286,0,0,0,1.4473.8159,1.518,1.518,0,0,0,.97-.3847,3.0684,3.0684,0,0,0,.6465-2.063c0-1.4629-.7383-2.91-2.0937-2.91C247.5078,59,246.6768,59.8314,246.6768,61.4324Z"/><path class="cls-8" d="M253.2373,64.0193a1.6066,1.6066,0,0,1-.292-.9394c0-.5078,0-3.11-.0312-3.3716a.601.601,0,0,0-.3389-.5083c-.1387-.0923-.1846-.1382-.1846-.1846s.0762-.0771.2461-.0771a5.3967,5.3967,0,0,0,1.293-.2c.0469-.0151.0928.0771.0781.1694-.0469.878-.0625,2.9717-.0469,3.68a1.7081,1.7081,0,0,0,.23,1.0161,1.1336,1.1336,0,0,0,.8633.3853,1.7278,1.7278,0,0,0,1.3086-.4927.9429.9429,0,0,0,.2763-.7085c.0313-.4155.0313-1.0161.0313-1.57,0-.231-.0156-.9546-.0156-1.355-.0157-.5234-.169-.6-.6768-.708-.17-.0307-.2471-.0771-.2471-.123,0-.062.1387-.0928.2315-.0928h.6465a8.1768,8.1768,0,0,0,1.0625-.0923c.0459,0,.0761.0615.06.1694-.0762.7237-.1074,2.2632-.1074,4.0494a5.0817,5.0817,0,0,0,.0312.7851c.0313.1538.0762.1846.1993.1694a4.3292,4.3292,0,0,1,.6318-.1386.1844.1844,0,0,1,.1846.1694c0,.0615-.1387.0923-.293.1231a6.9586,6.9586,0,0,0-1.585.4155c-.123.0615-.1543.0464-.1845,0s-.0313-.1231-.0313-.2925c0-.1538.0157-.4927.0157-.6006,0-.0459-.0157-.1538-.0469-.1074a4.4316,4.4316,0,0,1-1.0615.7544,2.6452,2.6452,0,0,1-.9092.2309A1.5132,1.5132,0,0,1,253.2373,64.0193Z"/><path class="cls-8" d="M262.4463,61.3865a2.5892,2.5892,0,0,0,.77,2.0015,2.1842,2.1842,0,0,0,1.4316.5386,2.0623,2.0623,0,0,0,1.6006-.585c.03-.0307.1084-.0459.1084,0a.404.404,0,0,1-.123.2466,2.6642,2.6642,0,0,1-2.125,1.0161,2.8066,2.8066,0,0,1-1.9248-.7544,2.8994,2.8994,0,0,1-.77-2.0786,2.9454,2.9454,0,0,1,.9385-2.14,3.3771,3.3771,0,0,1,2.2793-.8931,2.34,2.34,0,0,1,1.4.3853.3524.3524,0,0,1,.2158.2924.5251.5251,0,0,1-.3847.4927.477.477,0,0,1-.2618-.1543,4.2228,4.2228,0,0,0-.8623-.6308A1.3819,1.3819,0,0,0,264.1553,59C263.5088,59,262.4463,59.616,262.4463,61.3865Z"/><path class="cls-8" d="M270.7617,59.5237a3.7361,3.7361,0,0,1,.2149,1.4009c0,.57-.0459,2.0322-.0459,2.4326a.5275.5275,0,0,0,.5693.585.9858.9858,0,0,0,.4473-.1387c.0918-.0459.1533,0,.0918.1387a1.2969,1.2969,0,0,1-1.1856.6621,1.0346,1.0346,0,0,1-.9082-.6929.0541.0541,0,0,0-.0771-.0156,2.1548,2.1548,0,0,1-1.5088.6929,1.2774,1.2774,0,0,1-1.2315-1.3237,1.0858,1.0858,0,0,1,.5537-.878c.37-.2,1.7715-.6157,2.0938-.7387a.2935.2935,0,0,0,.2012-.231,5.3219,5.3219,0,0,0,.03-.7085c0-.6309-.1084-1.062-.37-1.2622A1.17,1.17,0,0,0,268.99,59.2a1.0588,1.0588,0,0,0-.6152.1851.6146.6146,0,0,0-.2305.3691,1.5751,1.5751,0,0,0-.0156.293.1889.1889,0,0,1-.0625.123,3.3069,3.3069,0,0,1-.7226.3389c-.0772.0151-.1543-.0772-.1543-.1387,0-.1079.1074-.2466.2929-.4619a3.9842,3.9842,0,0,1,1.17-.8931,2.0677,2.0677,0,0,1,.9239-.2773A1.2626,1.2626,0,0,1,270.7617,59.5237Zm-1.0312,4.2339a.6405.6405,0,0,0,.1679-.37,10.8693,10.8693,0,0,0,.0782-1.4629c0-.0151-.0313-.0923-.0625-.0767a8.6911,8.6911,0,0,0-1.4161.5235.7967.7967,0,0,0-.3847.77.8941.8941,0,0,0,.9238.8623A1.0593,1.0593,0,0,0,269.7305,63.7576Z"/><path class="cls-8" d="M277.4141,59.262a3.2171,3.2171,0,0,1,.4921,2.0166c0,.8159.0157.94.0157,1.709.0156,1.0469.0615,1.1392.4765,1.2471.1387.0615.2315.0923.2315.1538,0,.0928-.1231.1079-.2764.1079-.2012,0-.6474-.0615-.9863-.0615-.5234,0-.7227.0615-.9541.0615-.1387,0-.2471-.0308-.2471-.0923s.0928-.123.293-.1694c.3691-.0923.4316-.2.4316-.6465V61.4944c0-1.247-.1074-1.6167-.4931-1.9091a1.3684,1.3684,0,0,0-.878-.2925,1.8374,1.8374,0,0,0-1.2.4927.792.792,0,0,0-.1845.4619c0,.1845.0156.97.0156,1.8935a12.4293,12.4293,0,0,0,.0918,1.6167c.0459.3384.23.4156.4766.4927.1855.0459.2617.0767.2617.1538,0,.0923-.1534.0923-.3067.0923-.123,0-.8779-.0615-1.2324-.0615-.2,0-.5234.0307-.8164.0307-.1689,0-.292-.0307-.292-.1079,0-.0615.1387-.123.3232-.1538.3848-.0771.4473-.1846.462-.4927.03-1.1084.03-2.5249.03-3.7719,0-.1538-.03-.3233-.4-.5235-.0918-.0615-.123-.0923-.123-.1386,0-.0308.0781-.0772.2168-.1231a5.8016,5.8016,0,0,0,1.2158-.5234c.0459-.0156.1231.0459.1074.123a7.0738,7.0738,0,0,0-.03.8159c0,.0308.0459.0772.0761.0464a5.2928,5.2928,0,0,1,1.0938-.6928,2.0766,2.0766,0,0,1,.9082-.1851A1.5744,1.5744,0,0,1,277.4141,59.262Z"/><path class="cls-8" d="M285.5449,59.0462a1.125,1.125,0,0,0,.5391.0772c.292,0,.9082-.0308,1.1387-.0308.0771,0,.1386.1538.1386.3384,0,.1543-.1074.2773-.17.2773-.2148,0-.7695-.0307-.9385-.0307a.14.14,0,0,0-.0927.0922c0,.1079.0312.354.0312.6314a2.5453,2.5453,0,0,1-.9707,2.0786,2.1194,2.1194,0,0,1-1.2.4,3.7133,3.7133,0,0,1-.6465-.0767.2965.2965,0,0,0-.1845.0459,2.3478,2.3478,0,0,0-.5391.5083.49.49,0,0,0-.17.3384c0,.4932.6308.647,1.4316.647.4785,0,1.3242-.0464,1.7559-.0464a1.59,1.59,0,0,1,1.7246,1.709,3.1083,3.1083,0,0,1-1.7246,2.51,3.6763,3.6763,0,0,1-1.8633.5078c-1.2315,0-2.2637-.585-2.2637-1.7242a.9817.9817,0,0,1,.2774-.6621c.1084-.123.6777-.8466.9863-1.1855.0146-.0308.03-.1231-.0156-.1387-.4317-.0923-1.2481-.6313-1.2481-1.2471a.1934.1934,0,0,1,.0928-.1538,6.7629,6.7629,0,0,0,1.2783-1.1391c.0156-.0156,0-.0772-.0312-.0928a2.3229,2.3229,0,0,1-1.1856-1.9243,1.8594,1.8594,0,0,1,.6465-1.478,2.3708,2.3708,0,0,1,1.6328-.6314A3.4894,3.4894,0,0,1,285.5449,59.0462Zm-2.5713,8.9912a2.1044,2.1044,0,0,0,1.4619.4619,2.3964,2.3964,0,0,0,1.4327-.3691,2.0574,2.0574,0,0,0,.831-1.5859c0-.647-.4-1.2164-1.3857-1.2164-.585,0-1.3389.0152-1.7549.0308a.9484.9484,0,0,0-.5234.1387,1.9467,1.9467,0,0,0-.6622,1.37A1.5762,1.5762,0,0,0,282.9736,68.0374Zm.1377-8.8374a2.158,2.158,0,0,0-.415,1.355,2.7954,2.7954,0,0,0,.4775,1.6475,1.2571,1.2571,0,0,0,.9551.4462c.707,0,1.17-.8466,1.17-1.5546a2.7494,2.7494,0,0,0-.4785-1.7247,1.082,1.082,0,0,0-.9228-.5234A1.1592,1.1592,0,0,0,283.1113,59.2Z"/><path class="cls-8" d="M292.5049,60.3089a.1809.1809,0,0,1-.1533.1689c-.1231-.0151-2.125-.0459-2.48-.0459h-.8311c-.0312,0-.1074.0772-.1387.1231a2.1152,2.1152,0,0,0-.123.8467,2.76,2.76,0,0,0,.708,1.8633,2.0809,2.0809,0,0,0,1.54.6308,1.966,1.966,0,0,0,1.4629-.4927c.1231-.123.1846-.0922.1846-.0151a.58.58,0,0,1-.1543.2461,2.7217,2.7217,0,0,1-2.14.97,2.4844,2.4844,0,0,1-1.8321-.7851,3.0107,3.0107,0,0,1-.7392-2.063,3.21,3.21,0,0,1,.8925-2.2481,2.8656,2.8656,0,0,1,1.9249-.77A1.7764,1.7764,0,0,1,292.5049,60.3089Zm-3.1406-.7852a1.3533,1.3533,0,0,0-.3233.6309.0665.0665,0,0,0,.0615.0615l2.002-.0151c.3379,0,.3691-.1694.3691-.3081a.9879.9879,0,0,0-.2158-.6465,1.0755,1.0755,0,0,0-.7695-.2925A1.5979,1.5979,0,0,0,289.3643,59.5237Z"/><path class="cls-8" d="M294.03,63.8651a1.7316,1.7316,0,0,1-.1846-.8775v-3.187c0-.1694-.0156-.2769-.0771-.3081a2.5292,2.5292,0,0,0-.3692-.0923c-.123-.0308-.2-.0767-.2-.1382,0-.0312.0156-.0771.1846-.1543a3.2812,3.2812,0,0,0,1.2627-1.0312c.1387-.1543.2461-.1236.2461-.0464,0,.1387-.03.57-.0147.7544,0,.0464.0147.1387.0762.1387.2773,0,1.5557-.0464,1.8789-.0464.03,0,.0918.1079.0918.2158,0,.2617-.0762.3848-.1533.3848-.5391,0-1.294-.0157-1.709-.0157-.1846,0-.2158.0464-.2158.1387,0,.2617.0156,2.6792.0312,3.1563a1.5791,1.5791,0,0,0,.169.8315,1.1377,1.1377,0,0,0,.9541.4155,1.5079,1.5079,0,0,0,.8476-.2309c.1075-.0772.1534-.0616.1534,0,0,.0923-.1387.2465-.3389.4a2.1124,2.1124,0,0,1-1.2471.4A1.4269,1.4269,0,0,1,294.03,63.8651Z"/><path class="cls-8" d="M300.4824,63.8651a1.7327,1.7327,0,0,1-.1845-.8775v-3.187c0-.1694-.0157-.2769-.0772-.3081a2.5273,2.5273,0,0,0-.3691-.0923c-.1231-.0308-.2-.0767-.2-.1382,0-.0312.0156-.0771.1845-.1543a3.28,3.28,0,0,0,1.2627-1.0312c.1387-.1543.2461-.1236.2461-.0464,0,.1387-.03.57-.0146.7544,0,.0464.0146.1387.0761.1387.2774,0,1.5557-.0464,1.879-.0464.03,0,.0918.1079.0918.2158,0,.2617-.0762.3848-.1534.3848-.539,0-1.2939-.0157-1.709-.0157-.1845,0-.2158.0464-.2158.1387,0,.2617.0157,2.6792.0313,3.1563a1.5794,1.5794,0,0,0,.1689.8315,1.1378,1.1378,0,0,0,.9541.4155,1.5083,1.5083,0,0,0,.8477-.2309c.1074-.0772.1533-.0616.1533,0,0,.0923-.1387.2465-.3389.4a2.11,2.11,0,0,1-1.247.4A1.427,1.427,0,0,1,300.4824,63.8651Z"/><path class="cls-8" d="M305.627,59.847a.7721.7721,0,0,0-.1543.5693,30.38,30.38,0,0,0,.0771,3.3106.5437.5437,0,0,0,.4922.5234c.2314.0459.3389.0767.3389.1538,0,.0464-.0918.0923-.2305.0923-.4316,0-.832-.0615-1.2783-.0615-.4776,0-.708.0615-1.001.0615-.169,0-.2461-.0308-.2461-.0923s.0615-.0923.2461-.1387c.4473-.1079.5547-.1538.57-.7387.0459-.6162.0615-2.0323.0615-4.48,0-2.3247.03-3.2642,0-3.8491-.0156-.4927-.123-.5386-.4619-.7237-.0615-.0458-.1084-.0766-.1084-.123s.0928-.0923.2617-.1387a6.342,6.342,0,0,0,1.1241-.37.3378.3378,0,0,1,.1543-.0615c.0459,0,.0927.1079.0771.3237-.0156.4155-.0771,5.1885-.0615,5.481,0,.0615.0459.0766.0615.0459A5.0533,5.0533,0,0,1,306.4736,59a2.42,2.42,0,0,1,1.0772-.2617,1.6393,1.6393,0,0,1,1.3857.6929,2.9689,2.9689,0,0,1,.3389,1.6474c.0156,1.1548.0156,2.1094.0312,2.6944,0,.3081.0616.416.5235.4926.2.0464.2461.0772.2461.1387s-.1074.1079-.2461.1079c-.4,0-.6934-.0771-1.1084-.0771-.5235,0-.6475.0615-1.001.0615-.1846,0-.2461-.0459-.2461-.0923,0-.0615.0762-.0923.2305-.123.416-.0923.4463-.2.5078-.647.0312-.354.0615-1.0313.0615-2.6323a2.4657,2.4657,0,0,0-.2305-1.1548,1.1523,1.1523,0,0,0-1.0625-.57A1.8583,1.8583,0,0,0,305.627,59.847Z"/><path class="cls-8" d="M315.4668,60.3089a.1809.1809,0,0,1-.1543.1689c-.123-.0151-2.125-.0459-2.4785-.0459h-.8311c-.0312,0-.1084.0772-.1386.1231a2.1089,2.1089,0,0,0-.1241.8467,2.761,2.761,0,0,0,.709,1.8633,2.0776,2.0776,0,0,0,1.5391.6308,1.9633,1.9633,0,0,0,1.4629-.4927c.123-.123.1845-.0922.1845-.0151a.585.585,0,0,1-.1533.2461,2.7223,2.7223,0,0,1-2.1406.97,2.4858,2.4858,0,0,1-1.832-.7851,3.0107,3.0107,0,0,1-.7393-2.063,3.21,3.21,0,0,1,.8936-2.2481,2.8625,2.8625,0,0,1,1.9238-.77A1.7768,1.7768,0,0,1,315.4668,60.3089Zm-3.1406-.7852a1.3436,1.3436,0,0,0-.3233.6309.0657.0657,0,0,0,.0616.0615l2.0009-.0151c.3389,0,.3692-.1694.3692-.3081a.9917.9917,0,0,0-.2149-.6465,1.08,1.08,0,0,0-.77-.2925A1.5961,1.5961,0,0,0,312.3262,59.5237Z"/><path class="cls-8" d="M239.8848,76.7239c0,.6465.5859,1.0157.9707,1.2471,1,.6465,1.4,1.0313,1.4,1.8164a1.5781,1.5781,0,0,1-.8008,1.293,2.55,2.55,0,0,1-1.2315.3389,3.12,3.12,0,0,1-1.2158-.2774c-.123-.0459-.2314-.1533-.2314-.2461,0-.2158-.03-.6006-.0459-.7695-.0313-.2.0156-.2461.0459-.2461.0459,0,.0927,0,.2.292a1.5025,1.5025,0,0,0,.6464.832,1.1863,1.1863,0,0,0,.6934.1846,1.0553,1.0553,0,0,0,1-1.0322c0-.585-.4-.9082-1.0156-1.293-.6621-.4307-1.2774-1.001-1.2774-1.6777a1.4612,1.4612,0,0,1,.584-1.2168,1.9953,1.9953,0,0,1,1.294-.4307,3.7744,3.7744,0,0,1,1.0468.1689.2564.2564,0,0,1,.0772.1387c.0156.169.0762.4775.0918.7236,0,.169-.03.2461-.0762.2461-.0625,0-.0928-.0771-.1387-.1845a1.1679,1.1679,0,0,0-.37-.6309,1.2631,1.2631,0,0,0-.7236-.2314A.8974.8974,0,0,0,239.8848,76.7239Z"/><path class="cls-8" d="M243.8584,80.6653a1.7353,1.7353,0,0,1-.1846-.8779V76.6009c0-.17-.0156-.2774-.0771-.3086a2.5582,2.5582,0,0,0-.37-.0918c-.1231-.0312-.1993-.0771-.1993-.1387,0-.0312.0157-.0771.1846-.1543a3.2831,3.2831,0,0,0,1.2627-1.0312c.1387-.1543.2461-.1231.2461-.0469,0,.1387-.0312.57-.0156.7549,0,.0459.0156.1387.0771.1387.2764,0,1.5547-.0459,1.878-.0459.0312,0,.0927.1074.0927.2148,0,.2617-.0771.3848-.1543.3848-.5381,0-1.2929-.0147-1.709-.0147-.1845,0-.2158.0459-.2158.1387,0,.2617.0157,2.6787.0313,3.1562a1.5747,1.5747,0,0,0,.17.8311,1.1383,1.1383,0,0,0,.9541.416,1.5031,1.5031,0,0,0,.8467-.2314c.1074-.0772.1543-.0616.1543,0,0,.0927-.1387.2461-.3389.4a2.1124,2.1124,0,0,1-1.2471.4A1.4274,1.4274,0,0,1,243.8584,80.6653Z"/><path class="cls-8" d="M253.0977,78.4476a2.9487,2.9487,0,0,1-2.9258,2.9717,2.9365,2.9365,0,0,1-1.8789-5.2344,3.1632,3.1632,0,0,1,1.8476-.6465A2.89,2.89,0,0,1,253.0977,78.4476Zm-4.8047-.2149a3.53,3.53,0,0,0,.6465,2.1094,1.8318,1.8318,0,0,0,1.4472.8154,1.5207,1.5207,0,0,0,.9707-.3847,3.069,3.069,0,0,0,.6465-2.0635c0-1.4619-.7393-2.9092-2.0937-2.9092C249.125,75.8,248.293,76.6312,248.293,78.2327Z"/><path class="cls-8" d="M255.9629,76.6624a.88.88,0,0,0-.2617.5381,8.7511,8.7511,0,0,0-.0157.9395c0,1.14.0313,1.94.0616,2.2636.0615.4766.2461.585.831.6465.2158.03.293.0615.293.1387s-.1387.1074-.3691.1074c-.293,0-.8008-.0615-1.4473-.0615a8.26,8.26,0,0,0-.94.0928c-.1855,0-.2617-.0313-.2617-.0928,0-.0459.1074-.1231.2305-.1543a.6355.6355,0,0,0,.5547-.6309c.0312-.2617.0459-1.14.0459-2.1552v-1.709c0-.1084-.1084-.1543-.4-.4-.1074-.0772-.1231-.1231-.1231-.1543s.0928-.0918.2315-.1387a4.6162,4.6162,0,0,0,.9844-.3691.4912.4912,0,0,1,.2314-.0772c.03,0,.0615.0615.0615.2158,0,.169-.0156.7539-.0156,1.001,0,.0459.0312.0615.0771.0147a2.5148,2.5148,0,0,1,1.6631-1.1084.8986.8986,0,0,1,.5391.2.2707.2707,0,0,1,.1074.2158,1.0551,1.0551,0,0,1-.3389.5234c-.1376.1231-.2.1387-.246.1387a.6933.6933,0,0,1-.2774-.1084,1.0785,1.0785,0,0,0-.5381-.1846A1.0466,1.0466,0,0,0,255.9629,76.6624Z"/><path class="cls-8" d="M260.7051,75.6771c.1543,0,.2617.0459.2617.1074s-.1074.1074-.1992.123c-.3389.1075-.3692.1846-.2305.585.1992.5391,1.0469,2.6172,1.3535,3.2646.0313.0616.0782.0459.0928,0,.2-.5244,1.0625-2.7412,1.1855-3.0947a1.1562,1.1562,0,0,0,.0772-.4473c0-.1074-.0772-.23-.3389-.3076-.2314-.0459-.2763-.0918-.2763-.1386,0-.0616.0761-.0918.2148-.0918.1855,0,.5078.0459.7393.0459.2763,0,.4775-.0459.708-.0459.0918,0,.1855.0146.1855.0615s-.0625.1074-.2168.1533c-.3076.0928-.4609.2-.707.77-.1856.3848-1.1406,2.7559-1.3711,3.3408-.1846.5078-.3232.8623-.6465,1.6934-.3691.8926-.9551,2.4941-1.17,3.0176a2.122,2.122,0,0,1-.293.5693.5781.5781,0,0,1-.5078.2617.5118.5118,0,0,1-.5078-.5078.4538.4538,0,0,1,.4307-.4463c.1084,0,.2.03.3076.03a.3714.3714,0,0,0,.4-.2617c.1543-.3233.6015-1.585,1.125-2.9248a.6732.6732,0,0,0-.0157-.4932c-.0927-.2461-1.2168-3.0937-1.91-4.6025a.8222.8222,0,0,0-.5537-.416c-.1846-.0459-.2764-.1075-.2764-.1543,0-.0772.1377-.1075.2461-.1075.2773,0,.708.0616,1.0771.0616C260.1055,75.723,260.5059,75.6771,260.7051,75.6771Z"/><path class="cls-8" d="M272.9473,78.4476a2.9487,2.9487,0,0,1-2.9248,2.9717,2.9355,2.9355,0,0,1-1.878-5.2344,3.1564,3.1564,0,0,1,1.8477-.6465A2.8883,2.8883,0,0,1,272.9473,78.4476Zm-4.8028-.2149a3.524,3.524,0,0,0,.6465,2.1094,1.8292,1.8292,0,0,0,1.4473.8154,1.5224,1.5224,0,0,0,.97-.3847,3.069,3.069,0,0,0,.6465-2.0635c0-1.4619-.7393-2.9092-2.0938-2.9092C268.9746,75.8,268.1445,76.6312,268.1445,78.2327Z"/><path class="cls-8" d="M274.5352,76.4925c0-.1074-.0157-.1846-.0772-.2-.0771,0-.2471,0-.4307-.0156-.1084-.0147-.2011-.0918-.2011-.1231,0-.0459.0771-.0918.1855-.1533s.2305-.1387.3692-.2314a.3007.3007,0,0,0,.1543-.2159,9.7826,9.7826,0,0,1,.2617-2.5244,3.5448,3.5448,0,0,1,1.5547-2.0478,2.52,2.52,0,0,1,1.3857-.4156c.6309,0,1.0469.2618,1.0469.4927a.7571.7571,0,0,1-.3848.5078.2765.2765,0,0,1-.3076-.0307,1.8232,1.8232,0,0,0-1.0938-.5235c-.6933,0-1.2314.4468-1.3857,2.0943-.0459.477-.0771,1.57-.0771,2.0478a4.4331,4.4331,0,0,0,.0156.4922.1214.1214,0,0,0,.123.0928c.1387,0,1.4473-.0313,1.6172-.0313.0606,0,.1231.0928.1231.2774,0,.2158-.0313.2773-.2159.2773-.2461,0-1.3544-.0312-1.57-.0312-.0459,0-.0771.123-.0771.1386,0,.5694.0312,3.3721.0469,3.8184.0449.585.1689.708.3222.7539.1231.0469.293.0469.4932.0928.1846.0459.2773.0771.2773.1387,0,.0771-.1084.1074-.247.1074-.4454,0-.6924-.0459-1.4776-.0459-.3545,0-.6924.0459-.9541.0615-.1387,0-.2314-.03-.2314-.0928s.1084-.1074.3076-.1533c.37-.0928.4473-.3086.4473-.8623Z"/><path class="cls-8" d="M280.2793,71.5042c.4766,0,.97.0772,1.3848.0772.4775,0,.9082-.0616,1.2627-.0616.1845,0,.247.0308.247.0767,0,.0771-.0927.1235-.2158.1543-.6318.123-.6621.2153-.708,1.2778-.0156.2617-.0312,1.6778-.0312,3.0791,0,1.4629.0156,3.002.0312,3.2949a2.8417,2.8417,0,0,0,.2148,1.2159c.17.2314.586.3857,1.8321.3857a6.77,6.77,0,0,0,1.3554-.0771c.3379-.0616.6778-.4473.9854-1.001.1074-.1846.1846-.2461.2461-.2461s.0459.23-.03.4307c-.0469.123-.34.97-.4,1.0781a.3677.3677,0,0,1-.3242.1533c-.1533,0-1.3242.0156-2.0781-.03-.77-.0312-1.8789-.0771-2.417-.0771-.4776,0-1.1709.0771-1.3858.0771-.1845,0-.3232-.0156-.3232-.1084,0-.0615.1387-.1074.2764-.123.6621-.1231.7549-.3389.8008-.8154.0625-.6163.0625-1.6319.0625-3.7569,0-2.0937-.0157-3.1562-.0469-3.68-.0459-.8774-.0918-.97-.7539-1.0932-.1856-.0308-.23-.0767-.23-.1387C280.0332,71.5506,280.125,71.5042,280.2793,71.5042Z"/><path class="cls-8" d="M291.3809,76.3235a3.7137,3.7137,0,0,1,.2158,1.4c0,.57-.0459,2.0332-.0459,2.4327a.5268.5268,0,0,0,.5693.5849.9814.9814,0,0,0,.4463-.1377c.0928-.0469.1543,0,.0928.1377a1.2969,1.2969,0,0,1-1.1856.6621,1.031,1.031,0,0,1-.9082-.6924.0534.0534,0,0,0-.0771-.0156,2.153,2.153,0,0,1-1.5088.6934,1.2777,1.2777,0,0,1-1.2324-1.3242,1.0852,1.0852,0,0,1,.5547-.878c.3691-.2,1.77-.6152,2.0937-.7392a.2906.2906,0,0,0,.2-.23,5.1363,5.1363,0,0,0,.0313-.708c0-.6318-.1084-1.0625-.37-1.2627A1.17,1.17,0,0,0,289.61,76a1.0633,1.0633,0,0,0-.6163.1846.6125.6125,0,0,0-.23.3691,1.56,1.56,0,0,0-.0157.293.1888.1888,0,0,1-.0615.123,3.3527,3.3527,0,0,1-.7236.3389c-.0772.0156-.1543-.0771-.1543-.1387,0-.1074.1084-.2461.293-.4619a3.9971,3.9971,0,0,1,1.17-.8926,2.0577,2.0577,0,0,1,.9238-.2773A1.2613,1.2613,0,0,1,291.3809,76.3235ZM290.35,80.5569a.6393.6393,0,0,0,.169-.3691,10.9316,10.9316,0,0,0,.0771-1.4629c0-.0156-.03-.0918-.0615-.0771a8.74,8.74,0,0,0-1.416.5234.7964.7964,0,0,0-.3858.77.895.895,0,0,0,.9238.8623A1.0569,1.0569,0,0,0,290.35,80.5569Z"/><path class="cls-8" d="M294.3691,76.7239c0,.6465.585,1.0157.9707,1.2471,1,.6465,1.4,1.0313,1.4,1.8164a1.5782,1.5782,0,0,1-.8007,1.293,2.5506,2.5506,0,0,1-1.2315.3389,3.1191,3.1191,0,0,1-1.2158-.2774c-.1231-.0459-.2315-.1533-.2315-.2461,0-.2158-.03-.6006-.0459-.7695-.0312-.2.0157-.2461.0459-.2461.0459,0,.0928,0,.2.292a1.5075,1.5075,0,0,0,.6465.832,1.1844,1.1844,0,0,0,.6934.1846,1.0562,1.0562,0,0,0,1.001-1.0322c0-.585-.4-.9082-1.0166-1.293-.6622-.4307-1.2784-1.001-1.2784-1.6777a1.46,1.46,0,0,1,.586-1.2168,1.99,1.99,0,0,1,1.2929-.4307,3.7684,3.7684,0,0,1,1.0469.1689.2564.2564,0,0,1,.0772.1387c.0156.169.0771.4775.0918.7236,0,.169-.03.2461-.0762.2461-.0625,0-.0928-.0771-.1387-.1845a1.1685,1.1685,0,0,0-.37-.6309,1.2633,1.2633,0,0,0-.7236-.2314A.8974.8974,0,0,0,294.3691,76.7239Z"/><path class="cls-8" d="M299.99,71.52c.3545.0152,1.293.0616,1.7862.0616.0615,0,.1386.0615.2.2153.6621,1.4629,2.833,5.7739,3.8027,7.59.0459.0928.0771.0313.1387-.0615.9082-1.7393,2.8632-5.5425,3.2334-6.2969a13.1894,13.1894,0,0,0,.4619-1.247c.0146-.0308.0762-.2.1533-.2.4316,0,1.2471-.0923,1.6787-.0923.1533,0,.2461.0307.2461.0923s-.123.123-.2314.1386c-.9082.2154-.97.3848-1.0157,1.293-.0312.5234-.0459,2.3711-.0459,3.1406,0,1.6787.0616,3.2032.0918,3.6953.0616.8926.2315,1.0313.8321,1.2168.1377.0459.2461.0918.2461.169,0,.0615-.0928.0928-.2774.0928-.293,0-1.124-.0928-1.54-.0928-.6309,0-1.0469.0312-1.2774.0312-.1543,0-.3232-.0156-.3232-.124,0-.0615.1533-.123.3076-.1377.6465-.17.7549-.416.8008-1.6943.0459-.8311.0459-4.9571.0459-5.65,0-.1543-.0459-.1543-.0772-.062-1.0312,2.0634-2.9248,5.7588-3.664,7.4062-.0772.1846-.1387.2764-.23.2764-.0771,0-.1846-.2461-.3232-.5391-.7237-1.5547-2.7715-5.8349-3.3565-7.02-.0771-.1387-.1084-.1387-.1387.0767-.0615.8935-.2314,4.8808-.2314,5.5117a3.8456,3.8456,0,0,0,.0928,1.124.9012.9012,0,0,0,.7851.6162c.169.03.2618.0918.2618.1533,0,.0928-.1387.1241-.3077.1084-.1855-.0156-.7392-.0771-1.2939-.0771s-.97.0928-1.124.0928c-.1993,0-.2764-.0313-.2764-.1084,0-.0459.0615-.1075.2764-.1534a1.1576,1.1576,0,0,0,.832-.4931,4.42,4.42,0,0,0,.3232-1.6631c.0928-.9082.3077-4.3262.3077-5.3115,0-.9234-.0918-1.1392-.3536-1.4468a1.3121,1.3121,0,0,0-.8476-.4c-.1377-.0308-.2461-.0923-.2461-.1543S299.8516,71.5042,299.99,71.52Z"/><path class="cls-8" d="M316.93,77.1087a.18.18,0,0,1-.1543.1689c-.1231-.0156-2.125-.0458-2.4785-.0458h-.8311c-.0312,0-.1084.0771-.1387.123a2.1128,2.1128,0,0,0-.124.8467,2.76,2.76,0,0,0,.709,1.8633,2.0774,2.0774,0,0,0,1.5391.6308,1.9671,1.9671,0,0,0,1.4629-.4922c.123-.123.1845-.0927.1845-.0156a.585.585,0,0,1-.1533.2461,2.7218,2.7218,0,0,1-2.1406.97,2.4839,2.4839,0,0,1-1.832-.7851,3.008,3.008,0,0,1-.7393-2.0625,3.21,3.21,0,0,1,.8936-2.2481,2.8622,2.8622,0,0,1,1.9238-.77A1.7764,1.7764,0,0,1,316.93,77.1087Zm-3.1406-.7852a1.3415,1.3415,0,0,0-.3233.6309.0653.0653,0,0,0,.0615.0615L315.5283,77c.3389,0,.3692-.1689.3692-.3076a.9917.9917,0,0,0-.2149-.6465,1.0779,1.0779,0,0,0-.77-.293A1.5968,1.5968,0,0,0,313.7891,76.3235Z"/><path class="cls-8" d="M319.6553,76.6624a.8852.8852,0,0,0-.2617.5381,9.0213,9.0213,0,0,0-.0157.9395c0,1.14.0313,1.94.0616,2.2636.0615.4766.247.585.832.6465.2148.03.292.0615.292.1387s-.1387.1074-.3692.1074c-.2929,0-.8007-.0615-1.4472-.0615a8.2852,8.2852,0,0,0-.94.0928c-.1846,0-.2617-.0313-.2617-.0928,0-.0459.1084-.1231.2314-.1543a.6348.6348,0,0,0,.5538-.6309c.0312-.2617.0468-1.14.0468-2.1552v-1.709c0-.1084-.1084-.1543-.4-.4-.1084-.0772-.123-.1231-.123-.1543s.0918-.0918.2305-.1387a4.6242,4.6242,0,0,0,.9853-.3691.4852.4852,0,0,1,.2315-.0772c.03,0,.0615.0615.0615.2158,0,.169-.0156.7539-.0156,1.001,0,.0459.03.0615.0771.0147a2.5152,2.5152,0,0,1,1.6621-1.1084.8963.8963,0,0,1,.5391.2.2693.2693,0,0,1,.1084.2158,1.0551,1.0551,0,0,1-.3389.5234c-.1387.1231-.2.1387-.2471.1387a.6917.6917,0,0,1-.2763-.1084,1.0853,1.0853,0,0,0-.5391-.1846A1.0488,1.0488,0,0,0,319.6553,76.6624Z"/><path class="cls-8" d="M323.0752,78.1859a2.5887,2.5887,0,0,0,.7695,2.0019,2.1915,2.1915,0,0,0,1.4317.5391,2.069,2.069,0,0,0,1.6015-.585c.03-.0312.1075-.0469.1075,0a.3965.3965,0,0,1-.1231.2461,2.6635,2.6635,0,0,1-2.125,1.0156,2.806,2.806,0,0,1-1.9238-.7539,2.8994,2.8994,0,0,1-.77-2.0781,2.9423,2.9423,0,0,1,.9394-2.1406,3.3762,3.3762,0,0,1,2.2783-.8926,2.3435,2.3435,0,0,1,1.4014.3848.3544.3544,0,0,1,.2158.2919.5264.5264,0,0,1-.3847.4932.471.471,0,0,1-.2618-.1543,4.2474,4.2474,0,0,0-.8623-.6308,1.3764,1.3764,0,0,0-.5849-.1231C324.1367,75.8,323.0752,76.4153,323.0752,78.1859Z"/><path class="cls-8" d="M332.3291,77.1087a.18.18,0,0,1-.1543.1689c-.123-.0156-2.125-.0458-2.4785-.0458h-.8311c-.0312,0-.1084.0771-.1386.123a2.1147,2.1147,0,0,0-.1231.8467,2.76,2.76,0,0,0,.708,1.8633,2.0776,2.0776,0,0,0,1.5391.6308,1.9671,1.9671,0,0,0,1.4629-.4922c.123-.123.1845-.0927.1845-.0156a.585.585,0,0,1-.1533.2461,2.7218,2.7218,0,0,1-2.1406.97,2.4839,2.4839,0,0,1-1.832-.7851,3.0085,3.0085,0,0,1-.7393-2.0625,3.21,3.21,0,0,1,.8936-2.2481,2.8622,2.8622,0,0,1,1.9238-.77A1.7764,1.7764,0,0,1,332.3291,77.1087Zm-3.1406-.7852a1.3415,1.3415,0,0,0-.3233.6309.0654.0654,0,0,0,.0616.0615L330.9277,77c.3389,0,.3692-.1689.3692-.3076a.9917.9917,0,0,0-.2149-.6465,1.0779,1.0779,0,0,0-.77-.293A1.5968,1.5968,0,0,0,329.1885,76.3235Z"/><path class="cls-8" d="M337.457,75.6917c.0313.0156.0772-.0459.0772-.0762,0-.2773-.0156-3.0029-.03-3.8188a.4135.4135,0,0,0-.0615-.2617.8423.8423,0,0,0-.4317-.2461c-.1074-.0308-.1845-.0772-.1845-.1231s.0771-.0927.1845-.1079a6.4888,6.4888,0,0,0,1.3243-.37.5181.5181,0,0,1,.2158-.0772c.0459,0,.0771.0772.0615.2618-.0312.4619-.1084,5.4663-.1084,7.0366,0,1.3389.0156,2.4014.0313,2.8017a.1366.1366,0,0,0,.1074.1387,3.9736,3.9736,0,0,0,.7236-.17c.0928-.03.1387.0156.1387.0615,0,.1084-.1074.2471-.3848.293a8.6691,8.6691,0,0,0-1.6015.4c-.0616.0156-.1075-.0615-.1075-.1074a4.7646,4.7646,0,0,0,.0313-.6319c0-.03-.0313-.0615-.0615-.03a2.8928,2.8928,0,0,1-1.7559.7237,2.5068,2.5068,0,0,1-1.6318-.6475,2.9152,2.9152,0,0,1-.8008-2.0625,3.0614,3.0614,0,0,1,1.34-2.54,3.4592,3.4592,0,0,1,1.9092-.586A4.2562,4.2562,0,0,1,337.457,75.6917Zm-2.2939.416a2.7349,2.7349,0,0,0-.8467,2.2324c0,1.6631.94,2.5254,1.8789,2.5254a1.61,1.61,0,0,0,1.0928-.4,1.033,1.033,0,0,0,.1689-.57,21.268,21.268,0,0,0-.0146-2.9707,1.0351,1.0351,0,0,0-.1387-.37,1.7147,1.7147,0,0,0-1.37-.708A1.14,1.14,0,0,0,335.1631,76.1077Z"/><path class="cls-8" d="M344.7266,77.1087a.18.18,0,0,1-.1543.1689c-.1231-.0156-2.125-.0458-2.4785-.0458h-.8311c-.0313,0-.1084.0771-.1387.123a2.1128,2.1128,0,0,0-.124.8467,2.76,2.76,0,0,0,.709,1.8633,2.0772,2.0772,0,0,0,1.539.6308,1.9668,1.9668,0,0,0,1.4629-.4922c.1231-.123.1846-.0927.1846-.0156a.585.585,0,0,1-.1533.2461,2.7218,2.7218,0,0,1-2.1406.97,2.484,2.484,0,0,1-1.8321-.7851,3.0084,3.0084,0,0,1-.7392-2.0625,3.21,3.21,0,0,1,.8935-2.2481,2.8627,2.8627,0,0,1,1.9239-.77A1.7765,1.7765,0,0,1,344.7266,77.1087Zm-3.1407-.7852a1.342,1.342,0,0,0-.3232.6309.0653.0653,0,0,0,.0615.0615L343.3252,77c.3389,0,.3691-.1689.3691-.3076a.9921.9921,0,0,0-.2148-.6465,1.0779,1.0779,0,0,0-.77-.293A1.597,1.597,0,0,0,341.5859,76.3235Z"/><path class="cls-8" d="M346.7285,76.7239c0,.6465.585,1.0157.9707,1.2471,1,.6465,1.4,1.0313,1.4,1.8164a1.5781,1.5781,0,0,1-.8008,1.293,2.55,2.55,0,0,1-1.2314.3389,3.1191,3.1191,0,0,1-1.2158-.2774c-.1231-.0459-.2315-.1533-.2315-.2461,0-.2158-.03-.6006-.0459-.7695-.0312-.2.0156-.2461.0459-.2461.0459,0,.0928,0,.2.292a1.507,1.507,0,0,0,.6465.832,1.1843,1.1843,0,0,0,.6934.1846,1.0561,1.0561,0,0,0,1.0009-1.0322c0-.585-.4-.9082-1.0166-1.293-.6621-.4307-1.2783-1.001-1.2783-1.6777a1.46,1.46,0,0,1,.5859-1.2168,1.99,1.99,0,0,1,1.293-.4307,3.7691,3.7691,0,0,1,1.0469.1689.2563.2563,0,0,1,.0771.1387c.0157.169.0772.4775.0918.7236,0,.169-.03.2461-.0761.2461-.0625,0-.0928-.0771-.1387-.1845a1.1691,1.1691,0,0,0-.37-.6309,1.2636,1.2636,0,0,0-.7237-.2314A.8974.8974,0,0,0,346.7285,76.7239Z"/><path class="cls-8" d="M352.55,75.9847a7.587,7.587,0,0,0,1.1084-.4.6187.6187,0,0,1,.2314-.1074c.0459,0,.0762.0459.0616.2148-.0313.3086-.0313,1.2471-.0313,2.2324,0,1.294,0,2.4327.0313,2.6944.03.3086.1845.3857.4306.4472.1543.03.2315.0616.2315.1231,0,.0771-.124.1074-.2471.1074-.1387,0-.708-.0615-1.124-.0615-.5078,0-.7539.0312-.9238.0312-.1075,0-.2149-.0312-.2149-.0927s.0772-.1075.292-.1387c.3389-.0928.4775-.2158.4932-.8467.0156-.4619.0459-3.2637.0459-3.418,0-.2158-.0157-.3076-.4463-.539-.0772-.0459-.1231-.0918-.1231-.1231C352.3652,76.0618,352.4111,76.015,352.55,75.9847Zm1.54-2.51a.5865.5865,0,0,1-.57.585.5478.5478,0,0,1-.5078-.5694.5712.5712,0,0,1,.5391-.6A.5635.5635,0,0,1,354.09,73.4749Z"/><path class="cls-8" d="M360.249,76.0618a3.216,3.216,0,0,1,.4922,2.0166c0,.8164.0156.9395.0156,1.709.0157,1.0469.0616,1.14.4776,1.2471.1386.0615.23.0928.23.1543,0,.0918-.123.1074-.2773.1074-.2,0-.6465-.0615-.9854-.0615-.5234,0-.7236.0615-.9541.0615-.1386,0-.246-.03-.246-.0928s.0918-.123.2919-.1689c.37-.0928.4317-.2.4317-.6465V78.2943c0-1.2471-.1084-1.6172-.4932-1.9092a1.3682,1.3682,0,0,0-.8769-.293,1.8423,1.8423,0,0,0-1.2012.4932.7934.7934,0,0,0-.1846.4619c0,.1846.0147.97.0147,1.8935a12.5294,12.5294,0,0,0,.0927,1.6162c.0459.3389.2305.4161.4776.4932.1846.0459.2617.0772.2617.1533,0,.0928-.1543.0928-.3086.0928-.123,0-.8769-.0615-1.2314-.0615-.2,0-.5235.0312-.8155.0312-.17,0-.2929-.0312-.2929-.1084,0-.0615.1386-.123.3232-.1533.3848-.0771.4463-.1855.4619-.4932.0313-1.1084.0313-2.5253.0313-3.7724,0-.1533-.0313-.3233-.4-.5235-.0928-.0615-.1231-.0917-.1231-.1376,0-.0313.0762-.0772.2149-.1241a5.7383,5.7383,0,0,0,1.2168-.5234c.0459-.0147.123.0469.1074.123a6.8893,6.8893,0,0,0-.03.8164c0,.0313.0459.0772.0762.0459a5.34,5.34,0,0,1,1.0937-.6923,2.0759,2.0759,0,0,1,.9083-.1846A1.5724,1.5724,0,0,1,360.249,76.0618Z"/><path d="M240.2852,94.8626a2.7255,2.7255,0,0,0,.6464,1.8936,2.0409,2.0409,0,0,0,1.34.539,1.9432,1.9432,0,0,0,1.4941-.5234c.0762-.0615.1377-.0615.1377,0a.5442.5442,0,0,1-.123.2773,2.5744,2.5744,0,0,1-2.1709,1.14,2.8326,2.8326,0,0,1-1.77-5.0195,3.8411,3.8411,0,0,1,2.2627-.878,2.363,2.363,0,0,1,1.51.416.4182.4182,0,0,1,.1846.293.5694.5694,0,0,1-.4932.6006.6292.6292,0,0,1-.2617-.1387,6.7394,6.7394,0,0,0-.97-.7236,1.1834,1.1834,0,0,0-.5693-.124C241.0859,92.6146,240.2852,93.1234,240.2852,94.8626Z"/><path d="M250.6641,95.2015a3.0825,3.0825,0,0,1-1.2012,2.417,3.2544,3.2544,0,0,1-1.8477.6006,2.9774,2.9774,0,0,1-3.0947-2.94A2.83,2.83,0,0,1,245.6133,93a3.1346,3.1346,0,0,1,1.9707-.709A2.9229,2.9229,0,0,1,250.6641,95.2015Zm-4.5118-.3389a4.62,4.62,0,0,0,.4776,2.2637,1.49,1.49,0,0,0,1.1709.8467.91.91,0,0,0,.707-.3545,3.6268,3.6268,0,0,0,.5088-2.0938c0-1.7549-.4932-2.9717-1.5713-2.9717C246.7842,92.553,246.1523,93.5237,246.1523,94.8626Z"/><path d="M253.6523,94.2933c0,2.001.0157,2.6172.0313,2.8945.0146.4922.1074.5537.5078.6465.0918.0156.1992.0615.1992.1387,0,.0615-.1533.1074-.3076.1074-.4619,0-1.0771-.0459-1.3086-.0459-.415,0-.7392.0312-1.1553.0312-.1533,0-.2763-.0312-.2763-.1084s.1074-.1074.2314-.1386c.4151-.0772.5078-.169.5381-.8311.03-.6308.0928-3.4951.1084-4.9726,0-.8467.0156-2.48,0-3.003,0-.3535-.0781-.4619-.4316-.6465-.1075-.0615-.1543-.123-.1543-.1689s.0927-.0928.2314-.1231a8.7384,8.7384,0,0,0,1.5547-.4316.6756.6756,0,0,1,.2158-.0615c.0313,0,.0615.0928.0615.17,0,.1074-.0459,2.6787-.0459,5.3418Z"/><path d="M261.2578,95.2015a3.0792,3.0792,0,0,1-1.2,2.417,3.2564,3.2564,0,0,1-1.8476.6006,2.9774,2.9774,0,0,1-3.0948-2.94A2.8278,2.8278,0,0,1,256.209,93a3.1308,3.1308,0,0,1,1.9707-.709A2.9211,2.9211,0,0,1,261.2578,95.2015Zm-4.51-.3389a4.6189,4.6189,0,0,0,.4766,2.2637,1.4885,1.4885,0,0,0,1.17.8467.914.914,0,0,0,.709-.3545,3.6457,3.6457,0,0,0,.5078-2.0938c0-1.7549-.4922-2.9717-1.57-2.9717C257.3789,92.553,256.748,93.5237,256.748,94.8626Z"/><path d="M264.4014,93.554a.631.631,0,0,0-.169.3545,10.004,10.004,0,0,0-.0312,1.1856c0,1.0927.0312,1.7392.0615,2.0937.0615.4619.1689.5693.7393.6465.2148.0312.2773.0771.2773.1543s-.1231.1074-.3242.1074c-.4307,0-.7071-.0615-1.4473-.0615-.9238,0-.9082.0771-1.2773.0771-.2,0-.293-.0459-.293-.1084s.0625-.1377.2314-.1689c.3545-.0772.4776-.2.5235-.6309.0146-.2617.03-1.14.0459-2.1562,0-.97.0156-1.37,0-1.5547,0-.0918-.0459-.1231-.4-.4307-.0918-.0771-.1231-.1084-.1231-.1543s.1075-.1074.17-.1386a7.8376,7.8376,0,0,0,1.4775-.5079.5192.5192,0,0,1,.2617-.0927c.03,0,.0772.0927.0772.17,0,.2764-.0313.708-.0313,1.0469,0,.0771.0625.0918.0781.0459.43-.5694.9844-1.1241,1.585-1.1241a.8653.8653,0,0,1,.5088.1543c.1533.1075.2148.1846.2148.3077a1.5775,1.5775,0,0,1-.4619.7392c-.1533.1543-.2314.1846-.3076.1846a.4354.4354,0,0,1-.2617-.1074,1.2564,1.2564,0,0,0-.6006-.2471A.7231.7231,0,0,0,264.4014,93.554Z"/><path d="M267.2041,92.7689a6.99,6.99,0,0,0,1.5088-.462,1.351,1.351,0,0,1,.2314-.0918c.0459,0,.0772.0459.0616.2149-.0313.3232-.0313,1.1084-.0313,1.7559,0,1.7236,0,2.956.0313,3.1865a.4658.4658,0,0,0,.416.4775c.1689.0459.2148.0918.2148.1533,0,.0772-.1074.1084-.2305.1084-.2617,0-.6162-.0771-1.2626-.0771-.6768,0-1.0323.0312-1.2012.0312-.1377,0-.2617-.0468-.2617-.1084,0-.0771.0927-.1074.2773-.1386.4-.0918.5088-.292.5088-.8311,0-.4619.0449-3.1406.0449-3.2949,0-.292,0-.3545-.4-.6309-.0761-.0615-.123-.1084-.123-.17C266.9883,92.8616,267.0352,92.8148,267.2041,92.7689Zm1.833-2.4483a.7378.7378,0,0,1-.7549.77.6978.6978,0,0,1-.6474-.709.7373.7373,0,0,1,.7246-.7851A.7251.7251,0,0,1,269.0371,90.3206Z"/><path d="M275.5039,92.8148a2.7377,2.7377,0,0,1,.5391,1.94c.0146.8926.03,1.0469.03,1.9092.0157.9541.0928,1.0771.5088,1.1855.0762.03.168.0615.168.1387,0,.0615-.0762.0918-.2148.0918-.3536,0-.8623-.0459-1.17-.0459a12.1447,12.1447,0,0,0-1.2783.0615c-.1533,0-.2617-.0459-.2617-.1074s.0928-.1084.2314-.1387c.4161-.123.4922-.2314.4922-.5849V95.0013c0-1.1856-.0918-1.5088-.4619-1.8008a1.2236,1.2236,0,0,0-.7236-.2158,1.3868,1.3868,0,0,0-.8311.292.4617.4617,0,0,0-.1533.3242c0,.292.0147,1.0156.0147,1.8008.0156.9551.0459,1.7246.0615,1.9092a.5208.5208,0,0,0,.4316.5234c.1836.0459.2461.0771.2461.1543,0,.0918-.17.1074-.2773.1074-.1543,0-1.0313-.0615-1.3858-.0615-.2,0-.6006.0312-1.0615.0312-.17,0-.293-.0468-.293-.124,0-.0615.1387-.123.2774-.1533.4306-.0772.4609-.2.4765-.5547.0313-.8926.0469-2.2324.0469-3.6484,0-.1543-.0469-.2774-.3545-.4932-.1386-.0918-.123-.123-.123-.1533,0-.0469.0771-.0928.2158-.124a7.8285,7.8285,0,0,0,1.6309-.6309c.0468-.0156.124.0459.124.123a5.9978,5.9978,0,0,0-.03.77c0,.0312.0449.0469.0762.0156a4.4478,4.4478,0,0,1,.9082-.6006,2.245,2.245,0,0,1,.9082-.2A1.5974,1.5974,0,0,1,275.5039,92.8148Z"/><path d="M281.541,92.6a1.2964,1.2964,0,0,0,.5235.0772c.2773,0,.831-.0313,1.0927-.0313.0616,0,.1084.1387.1084.3692,0,.1543-.0927.3232-.1543.3232-.2314,0-.6933-.03-.8623-.03-.03,0-.0771.0615-.0771.0772.0156.123.0156.4.0156.6006a2.5553,2.5553,0,0,1-.94,2.0166,2.4874,2.4874,0,0,1-1.3085.4306,3.461,3.461,0,0,1-.7237-.0918.2817.2817,0,0,0-.1689.03,1.3107,1.3107,0,0,0-.37.3086.4368.4368,0,0,0-.1231.292c0,.37.4463.5849,1.294.5849.4609,0,1.1386-.0146,1.6933-.0146a1.864,1.864,0,0,1,1.293.4307,1.7445,1.7445,0,0,1,.539,1.3545,3.1022,3.1022,0,0,1-1.4941,2.3408,3.9852,3.9852,0,0,1-2.2324.7236c-1.3848,0-2.2627-.6621-2.2627-1.6631a.8432.8432,0,0,1,.3076-.6465c.1387-.17.6465-.6777.9238-.9394a.0941.0941,0,0,0-.0312-.1074c-.292-.0928-1.2305-.6319-1.2305-1.3858,0-.1074.03-.17.0606-.1846a11.5736,11.5736,0,0,0,1.34-1.1708c.0156-.0147,0-.0459-.0312-.0616a2.1957,2.1957,0,0,1-1.2159-1.8623,1.8607,1.8607,0,0,1,.6465-1.5088,2.5112,2.5112,0,0,1,1.7246-.6621A3.8517,3.8517,0,0,1,281.541,92.6Zm-2.5869,8.7754a2.2777,2.2777,0,0,0,1.3545.416,2.6011,2.6011,0,0,0,1.4316-.3076,1.6436,1.6436,0,0,0,.74-1.2627c0-.6006-.34-1.14-1.3867-1.14-.5538,0-1.4317.0312-1.8624.0312a.9714.9714,0,0,0-.3857.0918,1.454,1.454,0,0,0-.5234,1.124A1.4752,1.4752,0,0,0,278.9541,101.3753Zm.2617-8.6221a2.2831,2.2831,0,0,0-.3076,1.2325,3.2581,3.2581,0,0,0,.3848,1.6933,1.0338,1.0338,0,0,0,.8008.5235c.5693,0,.8613-.8311.8613-1.5245a3.295,3.295,0,0,0-.4453-1.7861c-.2774-.3691-.4473-.4619-.7246-.4619A.8015.8015,0,0,0,279.2158,92.7532Z"/><path d="M291.165,97.1566a3.6157,3.6157,0,0,1-2.5556,1.0625,5.0923,5.0923,0,0,1-1.8936-.4151c-.0771-.0312-.1689-.0312-.4463.0762-.0625.0312-.1084-.0615-.1084-.1074a12.1145,12.1145,0,0,0,.1241-1.709c.03-.8311.0605-3.1865.0761-4.8037,0-1.2774-.0156-2.0782-.0615-2.3867-.0459-.2461-.0771-.3379-.4-.5381-.123-.0928-.1689-.1387-.1689-.17,0-.0459.0615-.1074.2461-.1386a10.7327,10.7327,0,0,0,1.5859-.4307.6838.6838,0,0,1,.2773-.0771c.03,0,.0616.0615.0616.2314-.0469.97-.0928,3.541-.0928,4.9111,0,.1075.0459.1231.0928.1075a2.611,2.611,0,0,1,1.416-.4307,2.5018,2.5018,0,0,1,1.94.8311,2.7878,2.7878,0,0,1,.708,1.8476A3.0565,3.0565,0,0,1,291.165,97.1566Zm-.7695-1.6163a3.6139,3.6139,0,0,0-.585-2.0322,1.8159,1.8159,0,0,0-1.3242-.6621,1.3,1.3,0,0,0-.5849.1387.4133.4133,0,0,0-.1084.2617c-.0616.2773-.0459,1.709-.0459,2.31a5.611,5.611,0,0,0,.2461,1.7549,1.1909,1.1909,0,0,0,.5234.4619,1.6684,1.6684,0,0,0,.6475.1386,1.0839,1.0839,0,0,0,.7851-.4931,3.9361,3.9361,0,0,0,.4307-1.878Z"/><path d="M299.0645,95.2015a3.08,3.08,0,0,1-1.2012,2.417,3.254,3.254,0,0,1-1.8467.6006,2.9767,2.9767,0,0,1-3.0947-2.94A2.8277,2.8277,0,0,1,294.0146,93a3.133,3.133,0,0,1,1.9708-.709A2.922,2.922,0,0,1,299.0645,95.2015Zm-4.5108-.3389a4.61,4.61,0,0,0,.4775,2.2637,1.4887,1.4887,0,0,0,1.17.8467.9108.9108,0,0,0,.708-.3545,3.6374,3.6374,0,0,0,.5078-2.0938c0-1.7549-.4922-2.9717-1.57-2.9717C295.1846,92.553,294.5537,93.5237,294.5537,94.8626Z"/><path d="M306.1641,95.2015a3.08,3.08,0,0,1-1.2012,2.417,3.2537,3.2537,0,0,1-1.8467.6006,2.9768,2.9768,0,0,1-3.0947-2.94A2.8274,2.8274,0,0,1,301.1143,93a3.1326,3.1326,0,0,1,1.9707-.709A2.922,2.922,0,0,1,306.1641,95.2015Zm-4.5108-.3389a4.6086,4.6086,0,0,0,.4776,2.2637,1.4884,1.4884,0,0,0,1.17.8467.9108.9108,0,0,0,.708-.3545,3.6374,3.6374,0,0,0,.5078-2.0938c0-1.7549-.4922-2.9717-1.57-2.9717C302.2842,92.553,301.6533,93.5237,301.6533,94.8626Z"/><path d="M311.293,92.4769c.5693,0,1.0781-.0772,1.6172-.0772.1689,0,.2617.0459.2617.0918,0,.0615-.0625.0928-.2471.1387a2.7044,2.7044,0,0,0-1.3389.6777,13.9388,13.9388,0,0,0-1.14,1.0313c-.03.0312,0,.0771.0156.1084.5537.7539,1.586,2.0322,2.1865,2.6943.4463.4922.6.6309,1.0469.708.1533.03.2149.0772.2149.1387,0,.0771-.1231.123-.292.123-.878,0-1.3555-.0771-2.0323-.0771-.2929,0-.5234.0312-.7392.0312-.1846,0-.2617-.0312-.2617-.1084s.0615-.1074.292-.1689c.247-.0772.3085-.1846.17-.4-.2315-.3076-1.0625-1.34-1.54-1.8936-.1533-.1855-.2617-.3085-.3076-.3085s-.0459.0468-.0615.123c-.0313.2471-.0156,1.0937,0,1.6172.03.7539.2305.8008.5693.8779.1543.03.2618.0918.2618.1533,0,.0928-.1846.1231-.292.1231-.4463,0-.94-.0459-1.34-.0459-.6006,0-1.14.0615-1.2158.0615-.1231,0-.2617-.0459-.2617-.1074s.0918-.1084.2148-.1387c.4619-.1084.5235-.2617.5547-.77.0615-1.124.0772-2.2793.0772-3.4649,0-.6464.03-3.3564.03-4.2187a3.2622,3.2622,0,0,0-.0615-.7383c0-.1084-.1387-.2158-.3691-.3389-.0616-.0459-.1387-.0927-.1387-.1386,0-.0616.1074-.1231.293-.1543a5.3891,5.3891,0,0,0,1.4931-.4307.8465.8465,0,0,1,.2774-.0771.1455.1455,0,0,1,.0615.1074c-.0156.539-.0928,2.0791-.0928,3.2334,0,.5234-.0771,3.1406-.0615,3.9111,0,.1387.03.2149.0771.2149a.7238.7238,0,0,0,.2618-.1377,8.1941,8.1941,0,0,0,1.6474-1.6016A.5076.5076,0,0,0,311.2627,93c0-.0771-.0928-.2158-.5547-.2773-.1543-.0313-.2461-.0616-.2461-.1387,0-.0615.1231-.1074.2617-.1074Z"/><path d="M315.9912,94.8782c-.2-1.8017-.8164-3.4023-.832-4.5107,0-.6162.416-1.3555,1.0322-1.3555.6768,0,1.0156.709,1.0156,1.3086,0,1.0166-.6465,3.0176-.831,4.5117-.0459.3848-.1231.4463-.1846.4463C316.0986,95.2786,316.0371,95.2015,315.9912,94.8782Zm-.6933,2.417a.9405.9405,0,0,1,.9082-.9541.92.92,0,0,1,.8779.9541.8942.8942,0,1,1-1.7861,0Z"/></svg>