<svg xmlns="http://www.w3.org/2000/svg" width="399" height="200" viewBox="0 0 399 200">
  <g fill="none" fill-rule="evenodd">
    <g fill-rule="nonzero" transform="translate(160 74)">
      <path fill="#333838" d="M25.2884665,40.8658544 C25.7069518,40.8658544 26.2126215,40.7352528 26.5090485,40.5524106 C27.0147182,40.2476736 27.2762715,39.7252673 27.2762715,39.2725152 C27.2762715,38.7414021 27.0670289,38.1841687 25.9946604,37.5311608 C25.2100005,37.0348749 24.826389,36.7562582 24.826389,36.2425587 C24.826389,35.6766185 25.3059034,35.3370544 25.7156702,35.3370544 C25.985942,35.3370544 26.203903,35.4067086 26.4131457,35.580844 C26.517767,35.6679117 26.7008543,35.9117013 26.7880387,36.1990248 C26.8316309,36.3296264 26.971126,36.4079873 27.0408736,36.4079873 C27.0931842,36.4079873 27.1193395,36.3209196 27.1193395,36.190318 C27.1193395,36.1554909 27.0321551,35.4850695 27.0321551,35.3718815 C27.0234367,35.3283476 26.9536891,35.2064528 26.9188154,35.1977461 C26.6834174,35.1542122 26.2213399,35.0497309 25.8202915,35.0497309 C25.1315346,35.0497309 24.7217677,35.2238664 24.4340591,35.467656 C24.1550689,35.694032 23.9022341,36.1119571 23.9022341,36.6082431 C23.9022341,37.3831457 24.3817485,37.8620182 25.2710296,38.4453719 C26.0731264,38.9677782 26.2562137,39.316049 26.2562137,39.6817334 C26.2562137,40.2389668 25.750544,40.5524106 25.3494956,40.5524106 C24.904855,40.5524106 24.3991853,40.2825007 24.1376321,39.7513876 C24.0068554,39.4814777 23.8673603,39.2725152 23.7976128,39.2725152 C23.7540206,39.2725152 23.6581177,39.39441 23.6581177,39.4553574 C23.6581177,39.7078537 23.7365837,40.0822449 23.8063312,40.3869819 C23.8063312,40.421809 23.9632632,40.6046512 24.0330107,40.6394783 C24.3904669,40.7787867 24.7740784,40.8658544 25.2884665,40.8658544 Z M31.4524057,40.8658544 C32.2545024,40.8658544 32.856075,40.6568919 32.9781332,40.613358 C33.1089099,40.5524106 33.2658418,40.4131022 33.2919972,40.3347413 C33.3704631,40.1780194 33.5099582,39.7949215 33.5535504,39.5772522 C33.5797058,39.4814777 33.5797058,39.2551016 33.4838029,39.2551016 C33.4140554,39.2551016 33.3530263,39.3334626 33.2484049,39.5250115 C33.0478808,39.8819892 32.8124828,40.1344856 32.4899004,40.3173278 C32.1847549,40.50017 31.7575512,40.5175835 31.6442114,40.5175835 C30.9641729,40.5175835 30.1707946,40.1780194 29.6912802,39.2202745 C29.4994745,38.8371766 29.3948532,38.3321838 29.3948532,37.7488301 C29.3948532,36.4254009 30.0487364,35.3283476 31.4349688,35.3283476 C31.9057647,35.3283476 32.3504053,35.5198966 32.7252984,35.8333404 C32.8735119,35.9465284 33.0042885,36.1816113 33.091473,36.4515212 C33.1350652,36.5821227 33.2135312,36.686604 33.2571234,36.686604 C33.3530263,36.686604 33.4140554,36.5385889 33.4053369,36.3557467 C33.3879,36.1032503 33.3704631,35.7985133 33.3617447,35.5547237 C33.3617447,35.4241221 33.2919972,35.3196409 33.2309681,35.3196409 C33.0304439,35.2935206 32.8124828,35.2412799 32.6032402,35.1890393 C32.2893762,35.1106783 31.870891,35.0497309 31.4698426,35.0497309 C30.7549303,35.0497309 29.8569306,35.2238664 29.115863,35.8333404 C28.7496884,36.1293706 28.1568343,36.8694462 28.1568343,37.9229656 C28.1568343,38.8894172 28.5578826,39.4988912 28.8891835,39.8819892 C29.2466396,40.2912074 30.1620761,40.8658544 31.4524057,40.8658544 Z M38.4794707,40.7526663 C38.6538396,40.7526663 39.351315,40.7091325 39.5431207,40.7091325 C39.804674,40.7091325 40.27547,40.7352528 40.4236835,40.7352528 C40.5806155,40.7352528 40.7026737,40.7091325 40.7026737,40.613358 C40.7026737,40.5437038 40.6154892,40.4827564 40.4585573,40.4305158 C40.1098195,40.3173278 40.0226351,40.2912074 40.0139167,39.9516434 C40.0060701,39.6930522 39.9840996,39.3004639 39.979784,38.602503 L39.9790429,38.3583042 C39.9790429,37.1219426 40.0051982,36.3383331 40.0487904,35.9291149 C40.0662273,35.6766185 40.118538,35.5373102 40.4324019,35.467656 C40.6329261,35.4154154 40.7113921,35.3631747 40.7113921,35.276107 C40.7113921,35.2064528 40.6067708,35.162919 40.4411204,35.162919 C40.3364991,35.162919 39.7872372,35.1977461 39.508247,35.1977461 C39.2815675,35.1977461 38.6364027,35.1716257 38.5230629,35.1716257 C38.3225387,35.1716257 38.2353543,35.2238664 38.2353543,35.2848138 C38.2353543,35.3718815 38.366131,35.4241221 38.4881892,35.4589492 C38.8369269,35.5547237 38.8805191,35.6417914 38.9153929,35.9552352 C38.9502666,36.2947993 38.9502666,37.3134916 38.9328297,37.4266796 C38.9241113,37.5572812 38.8892375,37.6443489 38.8543638,37.6443489 C37.9389272,37.6443489 36.7880928,37.679176 36.1952387,37.679176 C36.1342096,37.679176 36.0993358,37.6356421 36.0906173,37.5659879 C36.064462,37.4005593 36.0993358,36.3905738 36.1167727,36.07713 C36.1254911,35.7201524 36.1516464,35.5547237 36.517821,35.4763628 C36.7009083,35.4328289 36.8142481,35.3805883 36.8142481,35.2848138 C36.8142481,35.2064528 36.7096268,35.1716257 36.5265395,35.1716257 C36.3172969,35.1716257 35.9249669,35.1977461 35.5587923,35.1977461 C35.3321128,35.1977461 34.8525984,35.162919 34.6172005,35.162919 C34.4602685,35.162919 34.3469288,35.1977461 34.3469288,35.2848138 C34.3469288,35.354468 34.4428316,35.4154154 34.6433558,35.4763628 C34.9310644,35.5634305 35.0095304,35.659205 35.0269673,35.9465284 C35.0444042,36.2947993 35.0269673,36.7736717 35.0269673,37.0348749 C35.0269673,38.2277026 34.9833751,39.5250115 34.9485013,39.8732824 C34.9049091,40.2389668 34.8264431,40.3347413 34.4428316,40.4392226 C34.2946181,40.4827564 34.1987152,40.534997 34.1987152,40.6307715 C34.1987152,40.7004257 34.2771812,40.7439596 34.5038607,40.7439596 C34.8002878,40.7439596 35.2449284,40.7091325 35.4454526,40.7091325 C35.7505981,40.7091325 36.4742288,40.7352528 36.5352579,40.7352528 C36.6485977,40.7352528 36.8229665,40.7091325 36.8142481,40.6220648 C36.8142481,40.5454452 36.7361309,40.4855426 36.6111433,40.4378991 L36.5091026,40.4043955 C36.1516464,40.2999142 36.0993358,40.1693126 36.0906173,39.7600944 C36.0818989,39.4814777 36.064462,38.5498531 36.0818989,38.2277026 C36.0818989,38.1754619 36.1516464,38.1058078 36.1952387,38.097101 C36.3696075,38.0796875 38.1568883,38.1058078 38.8543638,38.1058078 C38.8892375,38.1058078 38.9241113,38.1406349 38.9241113,38.2189958 C38.9415482,38.4540786 38.9328297,39.2725152 38.9066744,39.620786 C38.8630822,40.2650871 38.8456453,40.3347413 38.4184416,40.4479293 C38.2963834,40.4827564 38.1830436,40.5524106 38.1830436,40.6307715 C38.1830436,40.7091325 38.2702281,40.7526663 38.4794707,40.7526663 Z M44.5387886,40.8658544 C45.2101087,40.8658544 45.9511763,40.6220648 46.4481276,40.2389668 C47.0584186,39.7513876 47.5466514,39.011312 47.5466514,37.8707249 C47.5466514,36.4776415 46.4306907,35.0497309 44.5039148,35.0497309 C43.7715656,35.0497309 43.0392164,35.3718815 42.6468864,35.6766185 C41.9930032,36.1990248 41.5222073,36.878153 41.5222073,37.9403791 C41.5222073,38.7414021 41.8011975,39.4292371 42.2719934,39.9342298 C42.8212553,40.5175835 43.6233521,40.8658544 44.5387886,40.8658544 Z M44.7916234,40.5437038 C43.5187307,40.5437038 42.6991971,39.089673 42.6991971,37.7488301 C42.6991971,36.7127243 43.013061,36.0858368 43.3094881,35.7985133 C43.5100123,35.5982576 43.9023422,35.354468 44.2946722,35.354468 C44.6782836,35.354468 45.1490796,35.5634305 45.4455066,35.8246336 C46.081953,36.4079873 46.3522247,37.4527999 46.3522247,38.1406349 C46.3522247,39.0722594 46.0470792,39.8210418 45.6809046,40.1867262 C45.5675648,40.2999142 45.2711378,40.5437038 44.7916234,40.5437038 Z M51.496106,40.8658544 C52.1674261,40.8658544 52.9084938,40.6220648 53.405445,40.2389668 C54.015736,39.7513876 54.5039689,39.011312 54.5039689,37.8707249 C54.5039689,36.4776415 53.3880082,35.0497309 51.4612323,35.0497309 C50.7288831,35.0497309 49.9965338,35.3718815 49.6042039,35.6766185 C48.9503207,36.1990248 48.4795248,36.878153 48.4795248,37.9403791 C48.4795248,38.7414021 48.7585149,39.4292371 49.2293109,39.9342298 C49.7785728,40.5175835 50.5806695,40.8658544 51.496106,40.8658544 Z M51.7489409,40.5437038 C50.4760482,40.5437038 49.6565146,39.089673 49.6565146,37.7488301 C49.6565146,36.7127243 49.9703785,36.0858368 50.2668056,35.7985133 C50.4673298,35.5982576 50.8596597,35.354468 51.2519896,35.354468 C51.6356011,35.354468 52.106397,35.5634305 52.4028241,35.8246336 C53.0392704,36.4079873 53.3095422,37.4527999 53.3095422,38.1406349 C53.3095422,39.0722594 53.0043967,39.8210418 52.6382221,40.1867262 C52.5248823,40.2999142 52.2284552,40.5437038 51.7489409,40.5437038 Z M59.3514231,40.7700799 C59.3862969,40.7700799 59.5345104,40.6743054 59.5519473,40.6220648 C59.604258,40.3782752 59.7350346,39.8994027 59.8309375,39.5946657 C59.8658113,39.4553574 59.8570928,39.3595829 59.7960637,39.3595829 C59.7350346,39.3595829 59.6391318,39.4205303 59.5606658,39.5337183 C59.3339862,39.8994027 59.1247436,40.0996585 59.0114039,40.2128465 C58.915501,40.2999142 58.8195981,40.3173278 58.7411321,40.3347413 C58.5842002,40.3695684 58.30521,40.3782752 58.1134042,40.3782752 C57.8692878,40.3782752 57.5554239,40.3608616 57.3897735,40.3347413 C57.3548997,40.3260345 57.0933464,40.2041397 57.0759095,39.9951772 C57.0410358,39.699147 57.0323173,38.9851917 57.0323173,38.3844245 C57.0323173,37.0958223 57.0323173,36.2164383 57.0933464,35.7810998 C57.1020649,35.6766185 57.1718124,35.5460169 57.6426083,35.4328289 C57.7297927,35.4067086 57.8344141,35.3457612 57.8344141,35.2674002 C57.8344141,35.2064528 57.7646665,35.162919 57.5641423,35.162919 C57.3548997,35.162919 56.7533271,35.1977461 56.4133079,35.1977461 C56.160473,35.1977461 55.7768615,35.1803325 55.5414636,35.1803325 C55.3845316,35.1803325 55.2799103,35.2151596 55.2799103,35.3022273 C55.2799103,35.3631747 55.3583763,35.4241221 55.5240267,35.467656 C55.9250751,35.5634305 55.9686673,35.7027388 55.9773857,35.998769 C55.9817449,36.1424308 55.9839245,36.2991527 55.9850144,36.5255287 L55.9861042,37.4702134 C55.9861042,38.7239886 55.9599488,39.6381996 55.9425119,39.8558689 C55.8989197,40.2389668 55.8204537,40.3956887 55.3409394,40.4827564 C55.2014443,40.5088767 55.1229783,40.5872377 55.1229783,40.6481851 C55.1229783,40.726546 55.2275996,40.7613731 55.3845316,40.7613731 C55.6548033,40.7613731 56.2563759,40.7091325 56.6748611,40.7091325 C58.4447051,40.7091325 59.2206465,40.7700799 59.3514231,40.7700799 Z"/>
      <g stroke="#222F3C" stroke-linecap="round" stroke-linejoin="round" stroke-width=".5" transform="translate(23.551 49.318)">
        <path d="M34.4527797,24.6276343 C34.7479607,24.6276343 34.9883321,24.3875846 34.9883321,24.0902936 L34.9883321,21.4883135 C34.9883321,21.0666703 34.6483761,20.7258029 34.2286003,20.7258029 L28.5329685,20.7258029 L28.5329685,0.762510584 C28.5329685,0.342082108 28.1917202,0 27.7732368,0 L17.4942041,0 L7.21517138,0 C6.79668795,0 6.45536358,0.342082108 6.45536358,0.762510584 L6.45536358,20.7258029 L0.759731784,20.7258029 C0.340032046,20.7258029 0,21.0666703 0,21.4883135 L0,24.0902936 C0,24.3875846 0.239155112,24.6276343 0.535552373,24.6276343"/>
        <line x1="17.494" x2="17.494" y1="20.655" y2=".199"/>
      </g>
      <path stroke="#222F3C" stroke-width=".5" d="M42.9346011,7.96050725 C44.4092896,7.96050725 45.5626467,7.58988034 46.5789419,7.2614633 C47.4159088,6.99271703 48.1383153,6.7588926 48.9092219,6.7588926 C49.6938878,6.7588926 50.451187,7.0077486 51.29682,7.54250812 C51.3890308,7.59974955 51.4961413,7.62966086 51.6044681,7.62966086 C51.7016201,7.62966086 51.7962635,7.60597475 51.8847494,7.55753969 C52.0690949,7.45672188 52.1836552,7.26267797 52.1836552,7.05253965 L52.1836552,0.844500969 C52.1836552,0.62692278 52.0628614,0.430297689 51.8697737,0.329631716 C51.4350982,0.108257675 50.9605889,0 50.4162944,0 C49.5680767,0 48.6701428,0.266165084 47.7198319,0.547361739 C46.6275179,0.870616425 45.499095,1.20525866 44.2822622,1.20525866 L44.2809699,1.20525866 C43.2771418,1.20525866 42.3492565,0.972648905 41.4425043,0.492549648 C41.2643923,0.400538216 41.0427215,0.406763412 40.8720593,0.508795891 C40.7001809,0.614472388 40.5930704,0.803505777 40.5930704,1.00498956 L40.5930704,12.8885849"/>
      <path stroke="#222F3C" stroke-linecap="round" stroke-linejoin="round" stroke-width=".5" d="M0,23.6044246 L0,19.5817334 L40.5848354,0 L82.0901063,19.6207547 L82.0901063,23.6584775" transform="translate(0 12.621)"/>
      <path stroke="#222F3C" stroke-linecap="round" stroke-linejoin="round" stroke-width=".5" d="M0,56.4924384 L0,17.6235297 L36.5263443,0 L73.8810653,17.6587552 L73.8810653,56.5410253" transform="translate(4.105 17.156)"/>
      <g transform="translate(77.979 24.604)">
        <g stroke="#222F3C" stroke-linecap="round" stroke-linejoin="round" transform="translate(0 13.685)">
          <g stroke-width=".5" transform="translate(19.136 27.92)">
            <g transform="translate(7.642)">
              <line y1="7.791"/>
              <line x2="3.761" y1="7.791" y2="7.791"/>
            </g>
            <line x1="3.761" x2="3.761" y1="7.791"/>
            <line x1="3.761" y1="7.791" y2="7.791"/>
          </g>
          <path stroke-width=".5" d="M35.4062057,2.52378553 C34.3823847,1.50254973 33.2465119,0.664273956 32.0396376,0 L17.6367376,0 C16.4298633,0.664273956 15.2927743,1.50254973 14.2689532,2.52378553 C8.43261063,8.35239092 8.43261063,17.8042122 14.2689532,23.6326657 C20.1065881,29.4612711 29.5697871,29.4612711 35.4062057,23.6326657 C41.2425483,17.8042122 41.2425483,8.3536056 35.4062057,2.52378553 Z"/>
          <g stroke-width=".5" transform="translate(23.003 12.67)">
            <line x1="2.495" x2="5.248" y1="1.004" y2="3.558"/>
            <line x2="1.173" y1="2.316" y2="1.144"/>
            <ellipse cx="1.937" cy=".622" rx="1" ry="1"/>
          </g>
          <ellipse cx="24.837" cy="13.078" stroke-width=".25" rx="12.455" ry="12.438"/>
          <g stroke-width=".5" transform="translate(35.406 22.04)">
            <path d="M0 1.5933392C2.92687544 4.51766295 7.67470497 4.51766295 10.6028727 1.5933392M11.9242994.27341516C11.5594093-.0911383867 10.967755-.0911383867 10.6028648.27341516 10.2391909.637816873 10.2391909 1.22860315 10.6028648 1.59300486 10.967755 1.9561919 11.5594093 1.9561919 11.9242994 1.59300486 12.2892657 1.22860315 12.2892657.637816873 11.9242994.27341516z"/>
          </g>
          <g stroke-width=".5" transform="translate(0 16.344)">
            <path d="M11.849573 4.09249846C9.97137674.407030633 5.4577611-1.05938259 1.76735294.81622339M.10110049 1.66280903C.336530681 2.12180335.899449819 2.30461154 1.3577671 2.07078711 1.8173767 1.83696268 2.00050597 1.2747212 1.7675844.815726879 1.53215421.356732555.970451369.173924362.510841766.407748794.0513081826.641573227-.131821082 1.2038147.10110049 1.66280903z"/>
          </g>
          <line x2="10.711" y1="16.249" stroke-width=".5" transform="translate(47.31 5.847)"/>
        </g>
        <g stroke="#222F3C" stroke-linecap="round" stroke-linejoin="round" stroke-width=".5" transform="translate(9.892)">
          <path d="M22.4748031,7.54068611 L29.8918044,5.09357677 L14.9459022,0 L0,5.09357677 L7.46496913,7.54068611"/>
          <path d="M22.4188533,5.09349782 L22.4188533,13.6510165 L7.4729511,13.6510165 L7.4729511,5.09349782 L7.4729511,5.10230419 C7.4729511,4.38959518 10.81831,3.81232213 14.9459022,3.81232213 C19.0734184,3.81232213 22.4188533,4.38959518 22.4188533,5.10230419 L22.4188533,5.09349782 Z"/>
          <line y1="5.093" y2="9.193"/>
        </g>
        <path fill="#222F3C" d="M24.3753799,36.6092826 C24.3505218,36.3481281 24.549767,36.1241729 24.8113477,36.1117225 L24.8113477,36.1117225 C25.0603852,36.0992721 25.2846407,36.2983265 25.2983241,36.5471825 L25.2983241,36.5471825 C25.3094988,36.8083371 25.1227206,37.0321405 24.86114,37.0445908 L24.86114,37.0445908 L24.86114,37.0445908 L24.86114,37.0445908 L24.8362058,37.0445908 L24.8362058,37.0445908 C24.5870923,37.0445908 24.3890633,36.8581386 24.3753799,36.6092826 Z M19.791979,35.6975192 C19.5565489,35.6229687 19.419563,35.3618141 19.4930732,35.1129581 L19.4930732,35.1129581 C19.581483,34.8642539 19.8417713,34.7274515 20.0908849,34.8144524 L20.0908849,34.8144524 C20.3288237,34.8891547 20.4645173,35.1503093 20.3897908,35.3990134 L20.3897908,35.3990134 C20.3288237,35.5980679 20.1407532,35.72242 19.9427243,35.72242 L19.9427243,35.72242 C19.892856,35.72242 19.8417713,35.7099696 19.791979,35.6975192 Z M29.323747,35.483585 C29.2116193,35.2473312 29.3124962,34.9737263 29.5479264,34.8616728 L29.5479264,34.8616728 C29.7721058,34.7497711 30.059837,34.8492224 30.1706724,35.085628 L30.1706724,35.085628 C30.2715493,35.3094314 30.1706724,35.5956385 29.9464929,35.6950898 L29.9464929,35.6950898 C29.8842336,35.732441 29.8095071,35.7448914 29.748464,35.7448914 L29.748464,35.7448914 C29.5728606,35.7448914 29.3984735,35.6452883 29.323747,35.483585 Z M15.8811164,31.867809 C15.7565976,31.6452203 15.8313241,31.3577985 16.0555035,31.234661 L16.0555035,31.234661 C16.29215,31.1090943 16.5785888,31.196247 16.7031836,31.4200504 L16.7031836,31.4200504 C16.8152353,31.6452203 16.7405088,31.9312756 16.5163294,32.0544131 L16.5163294,32.0544131 C16.4416029,32.0917642 16.3668765,32.1178797 16.29215,32.1178797 L16.29215,32.1178797 C16.1177629,32.1042146 15.9683099,32.0170619 15.8811164,31.867809 Z M33.18725,32.085539 C32.9506035,31.9983863 32.8260847,31.7247813 32.9256693,31.4885276 L32.9256693,31.4885276 C33.0128629,31.2396716 33.2869106,31.1277699 33.5360242,31.2272212 L33.5360242,31.2272212 C33.7725947,31.3143739 33.8847224,31.5879789 33.7975288,31.8242326 L33.7975288,31.8242326 C33.7228023,32.0108367 33.5484152,32.1228902 33.3616371,32.1228902 L33.3616371,32.1228902 C33.2993777,32.1228902 33.2370423,32.1104398 33.18725,32.085539 Z M14.5696402,26.795489 L14.5696402,26.795489 L14.5696402,26.795489 C14.5447061,26.5343344 14.7190932,26.3103792 14.9806738,26.2731799 L14.9806738,26.2731799 C15.2297114,26.2482791 15.4663579,26.4224328 15.5037591,26.6835873 L15.5037591,26.6835873 C15.5286933,26.9322915 15.3543062,27.1686971 15.0927255,27.2060483 L15.0927255,27.2060483 L15.0304661,27.2060483 L15.0304661,27.2060483 C14.8062867,27.2060483 14.6069655,27.0318946 14.5696402,26.795489 Z M34.3455483,26.7432581 L34.3455483,26.7432581 C34.3455483,26.4821035 34.5572606,26.269384 34.8051579,26.269384 L34.8051579,26.269384 C35.0666625,26.269384 35.2796672,26.4821035 35.2796672,26.7432581 L35.2796672,26.7432581 C35.2796672,26.9907476 35.0666625,27.2022524 34.8051579,27.2022524 L34.8051579,27.2022524 C34.5572606,27.2022524 34.3455483,26.9907476 34.3455483,26.7432581 Z M16.1052958,22.2120746 C15.8935835,22.0640364 15.8574745,21.7779811 16.0057112,21.5652616 L16.0057112,21.5652616 C16.1551641,21.3537568 16.4416029,21.3177721 16.6533153,21.467025 L16.6533153,21.467025 C16.8651036,21.6150632 16.9148959,21.9011185 16.7529759,22.113838 L16.7529759,22.113838 C16.6670747,22.2369754 16.5287965,22.3115259 16.3805598,22.3115259 L16.3805598,22.3115259 C16.2796829,22.3115259 16.1924894,22.2755413 16.1052958,22.2120746 Z M32.9880047,22.1261366 L32.9880047,22.1261366 C32.8384758,21.9147836 32.875877,21.6162778 33.0875893,21.467025 L33.0875893,21.467025 C33.2993777,21.3177721 33.5858165,21.3674218 33.7477365,21.5789267 L33.7477365,21.5789267 C33.8971894,21.7779811 33.8473971,22.0764868 33.6356088,22.2257397 L33.6356088,22.2257397 C33.5608823,22.2878398 33.4612217,22.3127406 33.3616371,22.3127406 L33.3616371,22.3127406 C33.2246512,22.3127406 33.0751223,22.2506405 32.9880047,22.1261366 Z M19.5453741,18.4954808 C19.4083882,18.283976 19.4706476,17.9854703 19.6823599,17.8486678 L19.6823599,17.8486678 C19.9065394,17.7106506 20.1930542,17.7741173 20.33004,17.9979207 L20.33004,17.9979207 C20.4658096,18.2094255 20.4047665,18.4954808 20.1792948,18.643519 L20.1792948,18.643519 C20.1058606,18.6820849 20.0186671,18.7069857 19.9314735,18.7069857 L19.9314735,18.7069857 C19.7820206,18.7069857 19.6325676,18.6322833 19.5453741,18.4954808 Z M29.5467101,18.6658386 C29.3224547,18.5302508 29.2601953,18.2441955 29.3971812,18.0190256 L29.3971812,18.0190256 C29.5342431,17.8076726 29.8331489,17.7454206 30.0448613,17.8835896 L30.0448613,17.8835896 C30.2565736,18.0190256 30.3313001,18.3052328 30.1943142,18.5302508 L30.1943142,18.5302508 C30.0947296,18.6658386 29.9452006,18.740541 29.7957477,18.740541 L29.7957477,18.740541 C29.7085541,18.740541 29.6214366,18.7156402 29.5467101,18.6658386 Z M24.7739464,17.4768262 C24.5123658,17.42581 24.3517381,17.1783205 24.4015304,16.9294645 L24.4015304,16.9294645 C24.4501064,16.6795456 24.6880452,16.5066067 24.9495498,16.5564082 L24.9495498,16.5564082 C25.1974471,16.6048433 25.3605834,16.854914 25.3219659,17.1036181 L25.3219659,17.1036181 C25.2721736,17.3263587 25.0728523,17.4768262 24.8498892,17.4768262 L24.8498892,17.4768262 L24.7739464,17.4768262 Z"/>
        <g stroke="#222F3C" stroke-linejoin="round" stroke-width=".5" transform="translate(19.641 21.968)">
          <path d="M3.38648504 0C3.38648504.78862604 2.62796956 1.42799921 1.69385067 1.42799921.758439465 1.42799921 0 .78862604 0 0M10.6713961 0C10.6713961.78862604 9.91409688 1.42799921 8.97876169 1.42799921 8.04335049 1.42799921 7.28612732.78862604 7.28612732 0"/>
        </g>
      </g>
    </g>
    <line x1="151" x2="313" y1="147.938" y2="147.938" stroke="#222F3C" stroke-linecap="round" stroke-linejoin="round" stroke-width=".5"/>
    <g fill-rule="nonzero" stroke="#222F3C" stroke-width=".5" transform="translate(75 104)">
      <g transform="translate(24.56)">
        <path d="M18.6712901 48.6621439L18.6712901 54.957661 22.15989 54.957661 22.5696947 48.6621439 18.6712901 48.6621439zM9.08784297 48.6621439L9.49757201 54.957661 12.9862476 54.957661 12.9862476 48.6621439 9.08784297 48.6621439zM25.967059 12.0246229C25.5851043 11.9291767 25.2156368 11.82768 24.8982368 11.7160488 21.7091008 10.6045769 19.8033386 8.96399112 18.944073 7.12131957 17.1945134 9.56737454 13.2142991 11.2761794 8.57695943 11.2761794 7.75485255 11.2761794 6.82369144 11.2217251 5.90736353 11.1188671 5.66064822 11.9663871 5.52427368 12.8585293 5.52427368 13.7816802 5.52427368 19.2314925 10.1380014 23.6501529 15.8293301 23.6501529 21.5206588 23.6501529 26.1331756 19.2314925 26.1331756 13.7816802 26.1331756 13.1819271 26.0749024 12.5945774 25.967059 12.0246229zM18.6718083 54.9579745L22.3539131 54.9579745C23.2639455 54.9579745 24.0016726 55.6957015 24.0016726 56.605734L24.0016726 56.9997761 24.0016726 56.9997761 18.6718083 56.9997761 18.6718083 54.9579745z"/>
        <path d="M7.65695954,54.9581983 L12.9868238,54.9581983 L12.9868238,55.3522404 C12.9868238,56.2622729 12.2490968,57 11.3390643,57 L7.65695954,57 L7.65695954,57 L7.65695954,54.9581983 Z" transform="rotate(180 10.322 55.98)"/>
        <path d="M15.8129306,43.9996676 L15.8129306,48.6618595 L23.6458391,48.6618595 L23.6458391,37.3364329 L8.01158057,37.3364329 L8.01158057,48.6618595 L15.844489,48.6618595 L15.844489,44.0509453"/>
        <g transform="translate(3.749 13.45)">
          <path d="M1.77559345.332019705C1.77559345.22053974 1.78051262.11026987 1.78422092 0 .784872545.0818326471 0 .884730412 0 1.86369694 0 2.89711773.874098727 3.73480571 1.95412149 3.73480571L2.40547429 3.73480571C1.99877242 2.67400653 1.77559345 1.52789569 1.77559345.332019705zM22.3758425 0C22.3796264.11026987 22.3845456.22053974 22.3845456.332019705 22.3845456 1.52789569 22.1625775 2.67400653 21.7558757 3.73480571L22.2072284 3.73480571C23.2859647 3.73480571 24.1613499 2.89711773 24.1613499 1.86369694 24.1613499.884730412 23.3764774.0818326471 22.3758425 0z"/>
        </g>
        <g transform="translate(9.788 14.547)">
          <path d="M12.0819594 0C12.0819594.610946509 11.5649168 1.10527015 10.9263328 1.10527015 10.2890353 1.10527015 9.77191702.610946509 9.77191702 0M2.31004238 0C2.31004238.610946509 1.79292406 1.10527015 1.15562663 1.10527015.517042641 1.10527015 0 .610946509 0 0"/>
        </g>
        <path d="M13.8752268 19.2599043C13.8752268 20.2945352 14.7494012 21.1322232 15.8293482 21.1322232 16.9080845 21.1322232 17.7834697 20.2945352 17.7834697 19.2599043M27.7848659 28.0800939C26.6539865 25.7567122 24.7370993 23.9414191 22.3353333 22.8906032 22.0203551 22.6972906 21.6645099 22.5622138 21.2813443 22.5001964 21.1561704 22.4741794 21.0297098 22.4593557 20.9019628 22.4593557 20.8833456 22.4593557 20.866015 22.4605658 20.8473978 22.4617759L20.8040334 22.4593557 20.7407653 22.4593557C19.2801502 23.2189926 17.6074809 23.6500888 15.82939 23.6500888 14.0512991 23.6500888 12.377419 23.2189926 10.9180147 22.4593557L10.8547466 22.4593557 10.8113822 22.4617759C10.792765 22.4605658 10.7741479 22.4593557 10.7556064 22.4593557 10.6278593 22.4593557 10.5013988 22.4741794 10.3774357 22.5001964 9.99427018 22.5622138 9.63713841 22.6972906 9.3234467 22.8906032 6.92168071 23.9414191 5.00479356 25.7567122 3.87270326 28.0800939 3.78097966 28.2684148 3.69788352 28.4579459 3.61849568 28.6500484L7.10028443 29.425719C7.3519946 28.9239836 7.65948058 28.4579459 8.0116175 28.0330514L8.0116175 37.3450319 23.6459517 37.3450319 23.6459517 28.0330514C23.9992995 28.4579459 24.3067854 28.9239836 24.5584956 29.425719L28.0402844 28.6500484C27.9608965 28.4579459 27.8765895 28.2684148 27.7848659 28.0800939zM15.8293943 0C9.51439043 0 4.38725272 4.85489952 4.28561509 10.879658 4.28440422 10.9391039 4.28062024 10.9985498 4.28062024 11.0592058 4.28062024 11.9873483 4.40216159 12.8894739 4.62783799 13.7507587 4.89195959 13.5834631 5.20065645 13.4768235 5.53425188 13.4483863 5.56149652 12.6441272 5.69045446 11.8634649 5.90742771 11.1175928 6.82375562 11.221661 7.75491672 11.2761152 8.5770236 11.2761152 13.2143633 11.2761152 17.1945775 9.5673104 18.9441372 7.12125544 19.8034028 8.96392699 21.709165 10.6045127 24.898301 11.7159846 25.215701 11.8276158 25.5851685 11.9291125 25.9671232 12.0245587 26.0551385 12.4892351 26.1084169 12.9638947 26.1245366 13.4483863 26.4581321 13.4768235 26.7668289 13.5834631 27.0309505 13.7507587 27.1524919 13.2872925 27.2417181 12.8126328 27.2999913 12.3281412 27.3496371 11.9118687 27.3768817 11.4892431 27.3768817 11.0592058 27.3768817 4.95155583 22.2075905 0 15.8293943 0z"/>
        <path d="M25.4264607,34.5892653 C25.6880848,34.4653819 25.9819485,34.3935325 26.2932185,34.3935325 C27.0495598,34.3935325 27.702977,34.8049647 28.0290802,35.4059279 C28.7048228,33.1370005 28.5262948,30.7987952 27.6559043,28.7355839 L24.9490741,29.3379085 C25.7290275,30.9362922 25.9360867,32.7887958 25.4264607,34.5892653 Z"/>
        <ellipse cx="26.294" cy="36.265" rx="1.954" ry="1.872"/>
        <path d="M2.8249775,33.8123156 C2.54594703,33.6784489 2.06856046,33.6065995 1.77719422,33.6065995 C3.07169281,32.2125705 3.92846093,30.4765386 3.97439841,28.7132795 L6.67744466,29.3278563 C6.49763007,31.5471698 5.56889071,33.7168694 3.90742201,35.4591031 C3.89622144,34.7825089 3.50193102,34.1345033 2.8249775,33.8123156 Z"/>
        <ellipse cx="1.954" cy="35.487" rx="1.954" ry="1.872"/>
      </g>
      <g transform="translate(0 .062)">
        <path d="M21.6814796,11.7172879 C18.4911328,10.605816 16.5865814,8.96523026 15.7273159,7.12255871 C13.9777562,9.56740358 9.99633108,11.2774185 5.36020225,11.2774185 C4.58153543,11.2774185 3.65029864,11.1435518 2.73404641,10.9750461 C2.45751336,11.8647682 2.3075165,12.8065243 2.3075165,13.7829194 C2.3075165,19.2327316 6.92124419,23.6513921 12.6125729,23.6513921 C18.3026151,23.6513921 22.9164184,19.2327316 22.9164184,13.7829194 C22.9164184,13.1745443 22.8556477,12.5809929 22.7465178,12.0034753 C22.3498057,11.9143821 21.9740567,11.8189358 21.6814796,11.7172879 Z"/>
        <g transform="translate(4.44 48.634)">
          <path d="M11.0146962,6.26237386 L14.6968003,6.26237386 C15.6068328,6.26237386 16.3445599,7.00010094 16.3445599,7.91013341 L16.3445599,8.30417554 L16.3445599,8.30417554 L11.0146962,8.30417554 L11.0146962,6.26237386 Z"/>
          <path d="M-1.40964135e-13,6.26259772 L5.32986429,6.26259772 L5.32986429,6.65663985 C5.32986429,7.56667233 4.59213721,8.30439941 3.68210473,8.30439941 L-1.40964135e-13,8.30439941 L-1.40964135e-13,8.30439941 L-1.40964135e-13,6.26259772 Z" transform="rotate(180 2.665 7.283)"/>
          <path d="M11.0143305.0421306535L11.0143305 6.26292445 14.5030061 6.26292445 14.907816.0421306535 11.0143305.0421306535zM1.43336329 0L1.84097331 6.26269332 5.32957322 6.26269332 5.32957322 0 1.43336329 0z"/>
        </g>
        <path d="M4.79462601 37.3141285L4.00498566 48.6120254 21.2185249 48.6120254 20.4288845 37.3141285 4.79462601 37.3141285zM22.7391352 17.1855638L22.2865715 17.1855638C21.4186028 19.4482894 19.7111966 21.3230285 17.5239821 22.4606687L17.5872502 22.4606687 17.6306146 22.4618788C17.6479452 22.4618788 17.6665624 22.4606687 17.6851796 22.4606687 17.8129266 22.4606687 17.9393872 22.4754923 18.0633502 22.5015094 18.4465158 22.5635267 18.8035719 22.6986035 19.1185501 22.8919161 20.1898697 23.3602227 21.1631843 23.9822114 22.0150333 24.7320162 23.3553937 22.2375575 23.9840636 19.2401532 24.2754299 16.468129 23.9170873 16.9043681 23.3628103 17.1855638 22.7391352 17.1855638zM2.93745426 17.1855057L2.48610146 17.1855057C1.85992892 17.1855057 1.30444107 16.9030999.947309301 16.4656507 1.23746467 19.2375236 1.86984294 22.2362893 3.21020333 24.7319581 4.06205227 23.9821533 5.03536688 23.3601647 6.10547562 22.891858 6.42037821 22.6985454 6.77750997 22.5634686 7.1606755 22.5014513 7.28463859 22.4754342 7.41109911 22.4606106 7.53884618 22.4606106 7.55738767 22.4606106 7.57600483 22.4618207 7.594622 22.4618207L7.63798638 22.4606106 7.70125448 22.4606106C5.51403999 21.3229704 3.80663381 19.4482313 2.93745426 17.1855057z"/>
        <g transform="translate(.53 13.45)">
          <path d="M1.77688.332019705C1.77688.22053974 1.78179917.11026987 1.78550747 0 .786159098.0816813853 0 .883520317 0 1.86354568 0 2.89711773.875385279 3.73465445 1.95540804 3.73465445L2.40676084 3.73465445C2.00005897 2.67400653 1.77688 1.52774443 1.77688.332019705zM22.3770824 0C22.3808664.11026987 22.3857856.22053974 22.3857856.332019705 22.3857856 1.52774443 22.1638175 2.67400653 21.7571156 3.73465445L22.2084684 3.73465445C23.2872046 3.73465445 24.1625899 2.89711773 24.1625899 1.86354568 24.1625899.883520317 23.3777173.0816813853 22.3770824 0z"/>
        </g>
        <g transform="translate(6.572 14.549)">
          <path d="M12.0807485 1.10527015C12.0807485.494323643 11.5636302 0 10.9263328 0 10.2890353 0 9.77191702.494323643 9.77191702 1.10527015M2.31004238 1.10527015C2.31004238.494323643 1.79292406 0 1.15441576 0 .517042641 0 0 .494323643 0 1.10527015"/>
        </g>
        <path d="M10.6584696 19.2611435C10.6584696 20.2945642 11.532644 21.1334623 12.6125911 21.1334623 13.6913273 21.1334623 14.5667126 20.2945642 14.5667126 19.2611435M12.6125747 0C6.3285995 0 1.18534205 4.66415836.743903273 10.5748654.72286436 10.8474392.709242042 11.1225845.709242042 11.4001499.709242042 12.2910821.725361785 13.3071078.783635033 14.3951341 1.09233189 13.8722219 1.65652289 13.505412 2.31372404 13.4509577 2.34467698 12.5934545 2.48975466 11.7631783 2.73404823 10.9751042L2.7315508 10.9738941C3.64908959 11.1423998 4.58153724 11.2774766 5.36020407 11.2774766 9.9963329 11.2774766 13.977758 9.56746167 15.7273177 7.1226168 16.5865832 8.96528834 18.4911346 10.6058741 21.6814814 11.717346 21.9740586 11.8189939 22.3498075 11.9144401 22.7465197 12.0035334 22.8358215 12.4744114 22.8903865 12.9576929 22.9090036 13.4509577 23.5661291 13.5042019 24.1303201 13.8710118 24.4403035 14.393924 24.4787487 13.6826909 24.4997876 12.999895 24.5084908 12.3653516 24.5134856 12.0309117 24.5159074 11.707514 24.5159074 11.4001499 24.5159074 5.10402775 19.1867053 0 12.6125747 0zM2.14713986 34.3947716C2.4596207 34.3947716 2.75348437 34.466621 3.013822 34.5905044 2.50427163 32.7900349 2.71254173 30.9375314 3.49249511 29.3389964L.785664878 28.7368231C-.0860121039 30.8000344-.264540147 33.1382396.412489049 35.407167.737305649 34.8062038 1.39200938 34.3947716 2.14713986 34.3947716z"/>
        <ellipse cx="2.148" cy="36.266" rx="1.954" ry="1.872"/>
        <path d="M24.5680797,28.0799716 C23.4372002,25.7579514 21.5203131,23.9425069 19.1185471,22.8918423 C18.8035688,22.6985297 18.4465127,22.5634529 18.0633472,22.5014355 C17.9393841,22.4754185 17.8129236,22.4605948 17.6851765,22.4605948 C17.6665594,22.4605948 17.6479422,22.4618049 17.6306116,22.4618049 L17.5872472,22.4605948 L17.5239791,22.4605948 C16.0633639,23.2200805 14.3906947,23.6513279 12.6126038,23.6513279 C10.8345129,23.6513279 9.16063276,23.2200805 7.70122844,22.4605948 L7.63796035,22.4605948 L7.59459597,22.4618049 C7.5759788,22.4618049 7.55736163,22.4605948 7.53882014,22.4605948 C7.41107308,22.4605948 7.28461256,22.4754185 7.16064947,22.5014355 C6.77748394,22.5634529 6.42035217,22.6985297 6.10544959,22.8918423 C3.7036836,23.9425069 1.78672076,25.7579514 0.655917025,28.0799716 C0.564193418,28.2684439 0.48109728,28.459185 0.400498566,28.6512875 L3.88349819,29.4257481 C4.13520836,28.9238613 4.44269434,28.459185 4.79483126,28.0329292 L4.79483126,37.3796999 L20.4291654,37.3796999 L20.4291654,28.0329292 C20.7825132,28.459185 21.0887883,28.9238613 21.3417094,29.4257481 L24.8234981,28.6512875 C24.7441103,28.459185 24.6598033,28.2684439 24.5680797,28.0799716 Z"/>
        <path d="M25.6517405,33.8470114 C25.930771,33.7131447 26.4080818,33.6412953 26.6995238,33.6412953 C25.4050252,32.2472664 24.5481814,30.5112344 24.5023196,28.7479753 L21.7992733,29.3625521 C21.9802988,31.5818656 22.9077516,33.7515652 24.569296,35.4937989 C24.5804209,34.8172048 24.974787,34.1691991 25.6517405,33.8470114 Z"/>
        <ellipse cx="26.523" cy="35.522" rx="1.954" ry="1.872"/>
      </g>
    </g>
    <line x1="52" x2="164" y1="161.938" y2="161.938" stroke="#222F3C" stroke-linecap="round" stroke-linejoin="round" stroke-width=".5"/>
    <path fill="#333838" fill-rule="nonzero" d="M286.848076,70.5223394 C287.080613,70.5223394 287.258435,70.345094 287.258435,70.1678485 C287.258435,69.990603 287.121649,69.8951632 286.984862,69.8815289 C286.615539,69.786089 286.478753,69.6224778 286.478753,69.3361582 C286.478753,68.8998616 286.779683,68.6271763 287.190042,68.409028 C287.272114,68.3817595 287.340507,68.3408567 287.340507,68.3135881 C287.340507,68.2454168 287.285792,68.2454168 287.217399,68.2454168 C286.998541,68.2454168 286,68.6271763 286,69.581575 C286,70.0724086 286.328287,70.5223394 286.848076,70.5223394 Z M288.557906,70.5223394 C288.776765,70.5223394 288.981944,70.345094 288.981944,70.1678485 C288.981944,69.990603 288.831479,69.8951632 288.708371,69.8815289 C288.339048,69.786089 288.188583,69.6224778 288.188583,69.3361582 C288.188583,68.9134959 288.503192,68.6271763 288.913551,68.409028 C288.995623,68.3817595 289.050337,68.3408567 289.050337,68.3135881 C289.050337,68.2726853 288.995623,68.2454168 288.92723,68.2454168 C288.735729,68.2454168 287.696152,68.6271763 287.696152,69.581575 C287.696152,70.0724086 288.038118,70.5223394 288.557906,70.5223394 Z M298.023527,77.693964 C298.09192,77.693964 298.132956,77.6121584 298.228707,77.3803759 C298.857924,75.8806065 299.965895,73.30373 300.827649,71.4222011 C301.689404,69.4861351 301.935619,69.1998155 302.510122,69.0498386 C302.756338,69.0089358 302.824731,68.9543987 302.824731,68.8998616 C302.824731,68.8453246 302.756338,68.8316903 302.578515,68.8316903 C302.3323,68.8316903 301.962976,68.8862274 301.579974,68.8862274 C301.169615,68.8862274 300.978114,68.8316903 300.622469,68.8316903 C300.430968,68.8316903 300.389933,68.8589588 300.389933,68.9134959 C300.389933,68.968033 300.472004,68.9953015 300.690863,69.0634728 C301.142258,69.1998155 301.155937,69.4315981 301.087543,69.7315519 C300.800292,70.7404877 299.145176,74.5580826 298.488601,75.9760464 C298.447565,76.057852 298.420208,76.0714862 298.365493,75.9760464 C297.900419,74.9534763 297.298559,73.6582209 296.956593,72.8537991 C296.929236,72.7856278 296.929236,72.7174565 296.942914,72.6901879 C297.175451,72.2675257 297.845705,70.9177332 298.20135,70.2360198 C298.652745,69.4452323 298.912639,69.1589127 299.418749,69.0498386 C299.61025,69.0089358 299.678643,68.968033 299.678643,68.8998616 C299.678643,68.8453246 299.61025,68.8316903 299.446106,68.8316903 C299.131497,68.8316903 298.912639,68.8862274 298.433887,68.8862274 C298.078242,68.8862274 297.859384,68.8453246 297.517417,68.8453246 C297.353274,68.8453246 297.271202,68.8725931 297.271202,68.9134959 C297.271202,68.968033 297.312238,69.02257 297.558453,69.0771071 C298.146635,69.2134498 298.160314,69.3497925 297.736276,70.345094 C297.449024,71.0131731 297.161773,71.6403494 296.833485,72.3084285 C296.792449,72.3765998 296.737735,72.3629655 296.724056,72.335697 C296.272661,71.2994927 295.862302,70.3723625 295.643443,69.7997233 C295.438264,69.2952554 295.57505,69.1316442 295.944374,69.0634728 C296.122196,69.02257 296.204268,68.9816672 296.204268,68.9134959 C296.204268,68.8589588 296.108517,68.8316903 295.971731,68.8316903 C295.657122,68.8316903 295.342513,68.8862274 294.850082,68.8862274 C294.357651,68.8862274 294.097757,68.8316903 293.701076,68.8316903 C293.523254,68.8316903 293.441182,68.8725931 293.441182,68.9134959 C293.441182,68.9816672 293.509575,69.0362043 293.728433,69.0771071 C294.152471,69.1861813 294.2619,69.3497925 294.658581,70.195117 C294.959511,70.8495619 295.87598,72.9219705 296.094839,73.4400726 C296.094839,73.4673412 296.094839,73.562781 296.067481,73.6036838 C295.698158,74.476277 295.369871,75.1579903 294.986869,75.9351435 C294.945833,76.0033149 294.891118,76.0305834 294.850082,75.9351435 C293.919934,73.8900035 292.565749,70.9859045 291.991246,69.5679407 C291.895495,69.3225239 291.895495,69.1589127 292.278497,69.0907414 C292.442641,69.0634728 292.524713,69.02257 292.524713,68.9543987 C292.524713,68.8998616 292.442641,68.8589588 292.25114,68.8589588 C291.963888,68.8589588 291.635601,68.8862274 291.334671,68.8862274 C290.924312,68.8862274 290.363487,68.8316903 290.0352,68.8316903 C289.857377,68.8316903 289.761627,68.8862274 289.761627,68.9271302 C289.761627,68.9816672 289.884735,69.0362043 290.048878,69.0498386 C290.568667,69.1180099 290.678096,69.3634267 291.170527,70.4268996 C291.813423,71.7630578 292.729892,73.7809293 293.482218,75.5124813 C293.66004,75.9215093 294.084078,76.9168108 294.2619,77.3667416 C294.357651,77.6121584 294.385008,77.693964 294.46708,77.693964 C294.521795,77.693964 294.603866,77.5848899 294.685938,77.3667416 C294.986869,76.5759541 295.711837,74.9807448 296.231625,73.9718091 C296.258982,73.9309063 296.300018,73.9309063 296.327376,73.9854433 C296.724056,74.8580364 297.503739,76.5486856 297.79099,77.3803759 C297.873062,77.5985242 297.927777,77.693964 298.023527,77.693964 Z M303.64545,77.5848899 C304.425132,77.5848899 304.999635,77.3122045 305.546781,76.7259311 C305.628853,76.6304912 305.683567,76.5486856 305.683567,76.5077828 C305.683567,76.4396114 305.628853,76.4123429 305.519424,76.521417 C305.191136,76.8350052 304.780777,76.9577136 304.219953,76.9577136 C303.768557,76.9577136 303.221412,76.8077367 302.852088,76.3987086 C302.496444,76.0033149 302.222871,75.4443099 302.222871,74.7489623 C302.222871,74.3672028 302.263907,74.1626888 302.3323,73.9990776 C302.359657,73.9581748 302.42805,73.8900035 302.455408,73.8900035 L303.194054,73.8900035 C303.508663,73.8900035 305.286887,73.917272 305.396316,73.9309063 C305.464709,73.9309063 305.533102,73.8491007 305.533102,73.7809293 C305.533102,72.949239 304.671348,72.3902341 303.864308,72.3902341 C303.153018,72.3902341 302.523801,72.7174565 302.154477,73.0719474 C301.579974,73.6309524 301.361116,74.4353741 301.361116,75.0625504 C301.361116,75.7988009 301.607332,76.4532457 302.017691,76.8895423 C302.42805,77.3258388 303.002553,77.5848899 303.64545,77.5848899 Z M302.510122,73.6991237 C302.482765,73.6991237 302.455408,73.6718552 302.455408,73.6445866 C302.455408,73.5355125 302.578515,73.2764614 302.742659,73.0855817 C303.043589,72.7719935 303.385555,72.5811138 303.7412,72.5811138 C304.055809,72.5811138 304.288346,72.7038222 304.425132,72.8401649 C304.575597,73.0037761 304.616633,73.2491929 304.616633,73.4128041 C304.616633,73.5355125 304.589276,73.6854895 304.288346,73.6854895 L302.510122,73.6991237 Z M315.149188,77.4758158 C315.354368,77.4758158 315.655298,77.4349129 315.983586,77.4349129 C316.298194,77.4349129 316.776947,77.4621815 316.927412,77.4621815 C317.091556,77.4621815 317.159949,77.4349129 317.159949,77.3667416 C317.159949,77.3258388 317.105234,77.284936 316.913733,77.2440332 C316.612803,77.1894961 316.530731,77.0940563 316.517053,76.6441254 L316.462338,74.680791 C316.462338,74.1763231 316.393945,73.6582209 316.298194,73.3855356 C316.120372,72.8537991 315.668977,72.3902341 314.916651,72.3902341 C314.232719,72.3902341 313.603502,72.7583593 313.042677,73.30373 C313.01532,73.3173642 312.960606,73.30373 312.946927,73.2764614 C312.645997,72.6901879 312.20828,72.4038683 311.579063,72.4038683 C310.990881,72.4038683 310.334306,72.7992621 309.882911,73.2082901 C309.828196,73.2491929 309.814518,73.1673873 309.814518,73.1264845 C309.800839,72.9765076 309.814518,72.6220166 309.814518,72.4720397 C309.814518,72.3902341 309.78716,72.335697 309.746124,72.335697 C309.69141,72.335697 309.623017,72.3629655 309.540945,72.4175026 C309.322086,72.5947481 308.898049,72.7583593 308.610797,72.8265306 C308.501368,72.8537991 308.446653,72.8810677 308.446653,72.9219705 L308.460332,72.9219705 C308.460332,72.9901418 308.487689,73.0174104 308.58344,73.0719474 C308.802298,73.1946558 308.88437,73.3173642 308.898049,73.5491468 C308.925406,73.8081979 308.911727,74.1490545 308.911727,74.6535224 C308.911727,75.4443099 308.911727,76.5486856 308.857013,76.8350052 C308.829655,76.9986164 308.829655,77.1485933 308.405617,77.2440332 C308.214116,77.2713017 308.132045,77.3122045 308.132045,77.3667416 C308.132045,77.4212787 308.255152,77.4621815 308.37826,77.4621815 C308.556082,77.4621815 308.843334,77.4349129 309.267372,77.4349129 C309.595659,77.4349129 310.047055,77.4621815 310.306949,77.4621815 C310.402699,77.4621815 310.512128,77.4349129 310.512128,77.3667416 C310.512128,77.3258388 310.457414,77.284936 310.306949,77.2576675 C309.978661,77.1894961 309.896589,77.0258849 309.869232,76.8077367 C309.841875,76.5623198 309.78716,75.6079211 309.78716,74.5989854 C309.78716,74.1354203 309.828196,73.8218321 309.841875,73.6718552 C309.855554,73.5764153 309.882911,73.4400726 310.006019,73.3309985 C310.211198,73.1401188 310.553164,72.9083362 311.031917,72.9083362 C311.455955,72.9083362 311.674813,73.0310446 311.866314,73.2219244 C312.139887,73.5218782 312.20828,73.8354664 312.20828,74.5853511 L312.194601,76.7941024 C312.194601,77.1213248 312.057815,77.1894961 311.770564,77.2440332 C311.592741,77.284936 311.524348,77.3394731 311.524348,77.3803759 C311.524348,77.4349129 311.592741,77.4621815 311.743206,77.4621815 C311.893671,77.4621815 312.221959,77.4349129 312.522889,77.4349129 C312.91957,77.4349129 313.329929,77.4621815 313.576144,77.4621815 C313.72661,77.4621815 313.808681,77.4349129 313.808681,77.3803759 C313.808681,77.3258388 313.740288,77.3122045 313.589823,77.2576675 C313.247857,77.1758619 313.206821,77.080422 313.165785,76.6986625 C313.138428,76.3305373 313.097392,74.2444944 313.070035,73.8627349 C313.070035,73.6173181 313.111071,73.4673412 313.165785,73.4128041 C313.398322,73.1810216 313.82236,72.9083362 314.32847,72.9083362 C314.998723,72.9083362 315.354368,73.2491929 315.477476,73.9445405 C315.53219,74.3535685 315.600584,75.0080134 315.573226,76.6441254 C315.573226,77.0531535 315.504833,77.1758619 315.108152,77.2576675 C314.998723,77.284936 314.875616,77.3258388 314.875616,77.3940101 C314.875616,77.4485472 314.971366,77.4758158 315.149188,77.4758158 Z M318.869779,71.0813444 C319.047602,71.0813444 319.375889,70.9313675 319.375889,70.5632422 C319.375889,70.3314597 319.211745,70.0451401 318.897137,70.0451401 C318.678278,70.0451401 318.418384,70.2360198 318.418384,70.5768765 C318.418384,70.8495619 318.623564,71.0813444 318.869779,71.0813444 Z M319.622105,77.48945 C319.731534,77.48945 319.840963,77.4621815 319.840963,77.3940101 C319.840963,77.3394731 319.77257,77.3122045 319.635783,77.284936 C319.416925,77.2303989 319.280139,77.1622276 319.252781,76.8895423 C319.225424,76.6577597 319.225424,75.6488239 319.225424,74.5035455 C319.225424,73.6309524 319.225424,72.7992621 319.252781,72.5265767 C319.26646,72.3765998 319.239103,72.335697 319.198067,72.335697 C319.170709,72.335697 319.102316,72.3629655 318.992887,72.4311369 C318.705636,72.5538453 318.377348,72.6901879 318.008025,72.7856278 C317.884917,72.8128963 317.843881,72.8537991 317.843881,72.8947019 C317.843881,72.9219705 317.884917,72.9628733 317.95331,73.0037761 C318.336312,73.2082901 318.349991,73.2900957 318.349991,73.4809754 C318.349991,73.6173181 318.322634,76.0987548 318.308955,76.5077828 C318.295276,77.0667877 318.172169,77.1758619 317.871238,77.2576675 C317.679737,77.284936 317.611344,77.3258388 317.611344,77.3803759 C317.611344,77.4349129 317.707095,77.4621815 317.802845,77.4621815 C317.95331,77.4621815 318.172169,77.4349129 318.623564,77.4349129 C318.992887,77.4349129 319.498997,77.48945 319.622105,77.48945 Z M321.78333,77.5985242 C322.111618,77.5985242 322.576692,77.48945 322.877622,77.2985703 C323.151195,77.1213248 323.588911,76.7531996 323.588911,76.1532918 C323.588911,75.4579442 323.233266,75.1170875 322.344155,74.5444483 C322.002189,74.3399343 321.4824,74.0127119 321.4824,73.4400726 C321.4824,72.8947019 321.865402,72.5947481 322.303119,72.5947481 C322.563013,72.5947481 322.79555,72.6901879 322.946015,72.7992621 C323.151195,72.9628733 323.205909,73.153753 323.274302,73.358267 C323.315338,73.4537069 323.342696,73.5218782 323.39741,73.5218782 C323.438446,73.5218782 323.465803,73.4537069 323.465803,73.30373 C323.452125,73.0855817 323.39741,72.8128963 323.383732,72.6629194 C323.383732,72.6220166 323.342696,72.5674795 323.315338,72.540211 C323.151195,72.4856739 322.754514,72.3902341 322.385191,72.3902341 C321.865402,72.3902341 321.4824,72.5674795 321.236185,72.7719935 C320.935254,72.9901418 320.716396,73.358267 320.716396,73.8491007 C320.716396,74.4490084 321.263542,74.9534763 321.851724,75.3352358 C322.398869,75.6760925 322.754514,75.9624121 322.754514,76.4805142 C322.754514,77.0395192 322.248404,77.3940101 321.865402,77.3940101 C321.660223,77.3940101 321.455043,77.3667416 321.249863,77.2303989 C321.003648,77.080422 320.784789,76.8350052 320.67536,76.4941485 C320.57961,76.2350974 320.538574,76.2350974 320.497538,76.2350974 C320.470181,76.2350974 320.429145,76.2760002 320.456502,76.4532457 C320.470181,76.6032226 320.497538,76.9440793 320.497538,77.1349591 C320.497538,77.2167647 320.593288,77.3122045 320.702717,77.3531073 C321.113077,77.5167186 321.427686,77.5985242 321.78333,77.5985242 Z M325.668065,77.5985242 C325.996352,77.5985242 326.461426,77.48945 326.762356,77.2985703 C327.035929,77.1213248 327.473646,76.7531996 327.473646,76.1532918 C327.473646,75.4579442 327.118001,75.1170875 326.228889,74.5444483 C325.886923,74.3399343 325.367135,74.0127119 325.367135,73.4400726 C325.367135,72.8947019 325.750137,72.5947481 326.187853,72.5947481 C326.447748,72.5947481 326.680285,72.6901879 326.83075,72.7992621 C327.035929,72.9628733 327.090644,73.153753 327.159037,73.358267 C327.200073,73.4537069 327.22743,73.5218782 327.282145,73.5218782 C327.323181,73.5218782 327.350538,73.4537069 327.350538,73.30373 C327.336859,73.0855817 327.282145,72.8128963 327.268466,72.6629194 C327.268466,72.6220166 327.22743,72.5674795 327.200073,72.540211 C327.035929,72.4856739 326.639249,72.3902341 326.269925,72.3902341 C325.750137,72.3902341 325.367135,72.5674795 325.120919,72.7719935 C324.819989,72.9901418 324.601131,73.358267 324.601131,73.8491007 C324.601131,74.4490084 325.148276,74.9534763 325.736458,75.3352358 C326.283604,75.6760925 326.639249,75.9624121 326.639249,76.4805142 C326.639249,77.0395192 326.133139,77.3940101 325.750137,77.3940101 C325.544957,77.3940101 325.339777,77.3667416 325.134598,77.2303989 C324.888382,77.080422 324.669524,76.8350052 324.560095,76.4941485 C324.464344,76.2350974 324.423308,76.2350974 324.382272,76.2350974 C324.354915,76.2350974 324.313879,76.2760002 324.341237,76.4532457 C324.354915,76.6032226 324.382272,76.9440793 324.382272,77.1349591 C324.382272,77.2167647 324.478023,77.3122045 324.587452,77.3531073 C324.997811,77.5167186 325.31242,77.5985242 325.668065,77.5985242 Z M332.151742,77.5576214 C332.534744,77.5576214 332.958782,77.4349129 333.259712,77.2031304 C333.437534,77.0667877 333.560642,76.9304451 333.560642,76.8486395 C333.560642,76.7941024 333.519606,76.7804681 333.423856,76.8486395 C333.300748,76.9304451 333.054532,77.0531535 332.67153,77.0531535 C332.315885,77.0531535 332.028634,76.9440793 331.823454,76.6850282 C331.727704,76.5486856 331.700347,76.3850744 331.672989,75.9487778 C331.659311,75.5261155 331.645632,73.3855356 331.645632,73.153753 C331.645632,73.0719474 331.672989,73.0310446 331.837133,73.0310446 C332.206456,73.0310446 332.87671,73.0446789 333.355462,73.0446789 C333.423856,73.0446789 333.492249,72.9356048 333.492249,72.7038222 C333.492249,72.6083823 333.437534,72.5129425 333.410177,72.5129425 C333.122925,72.5129425 331.987598,72.5538453 331.741382,72.5538453 C331.686668,72.5538453 331.672989,72.4720397 331.672989,72.4311369 C331.659311,72.2675257 331.686668,71.8857662 331.686668,71.7630578 C331.686668,71.6948864 331.590917,71.6676179 331.46781,71.8039606 C331.139522,72.2266229 330.688127,72.5947481 330.346161,72.7174565 C330.195696,72.7856278 330.182017,72.8265306 330.182017,72.8537991 C330.182017,72.9083362 330.25041,72.949239 330.35984,72.9765076 C330.482947,73.0037761 330.633412,73.0310446 330.688127,73.0583132 C330.742842,73.0855817 330.75652,73.1810216 330.75652,73.3309985 L330.75652,76.1532918 C330.75652,76.4805142 330.811235,76.7531996 330.920664,76.9304451 C331.153201,77.3667416 331.577239,77.5576214 332.151742,77.5576214 Z M339.2236,77.5030843 C339.346708,77.5030843 339.442459,77.4621815 339.442459,77.4076444 C339.442459,77.3531073 339.401423,77.3258388 339.2236,77.284936 C338.813241,77.2167647 338.758526,77.1213248 338.758526,76.8486395 C338.744848,76.3305373 338.744848,75.4852127 338.731169,74.4626427 C338.71749,73.6036838 338.567025,73.1810216 338.430239,73.0037761 C338.101951,72.540211 337.623199,72.3902341 337.199161,72.3902341 C336.829838,72.3902341 336.474193,72.4993082 336.241656,72.6220166 C335.968083,72.7583593 335.585081,73.0310446 335.420937,73.1810216 C335.407259,73.2082901 335.366223,73.1946558 335.366223,73.1401188 C335.352544,72.8810677 335.407259,68.6544448 335.420937,68.2863196 C335.434616,68.0954399 335.39358,68 335.352544,68 C335.325187,68 335.284151,68.0136343 335.215758,68.0545371 C334.955864,68.1908797 334.641255,68.2590511 334.217217,68.3817595 C334.066752,68.4226623 333.98468,68.4635651 333.98468,68.5044679 C333.98468,68.5453707 334.025716,68.5726392 334.08043,68.613542 C334.381361,68.7771532 334.477111,68.818056 334.49079,69.2543526 C334.518147,69.7724547 334.49079,70.604145 334.49079,72.6629194 C334.49079,74.8307679 334.477111,76.0851205 334.436075,76.6304912 C334.422396,77.1485933 334.326646,77.1894961 333.929965,77.284936 C333.765822,77.3258388 333.711107,77.3531073 333.711107,77.4076444 C333.711107,77.4621815 333.7795,77.48945 333.929965,77.48945 C334.18986,77.48945 334.395039,77.4349129 334.819077,77.4349129 C335.215758,77.4349129 335.571403,77.48945 335.954405,77.48945 C336.077512,77.48945 336.159584,77.4485472 336.159584,77.4076444 C336.159584,77.3394731 336.063834,77.3122045 335.858654,77.2713017 C335.557724,77.2167647 335.461973,77.0531535 335.420937,76.8077367 C335.39358,76.5759541 335.338866,75.9215093 335.352544,73.8763692 C335.352544,73.5900496 335.420937,73.4264384 335.489331,73.3719013 C335.708189,73.1401188 336.118548,72.8674334 336.693051,72.8674334 C337.158125,72.8674334 337.459055,73.0719474 337.636878,73.3719013 C337.801021,73.6718552 337.842057,74.0536147 337.842057,74.3944713 C337.842057,75.8124351 337.8147,76.4123429 337.787343,76.7259311 C337.732628,77.1213248 337.705271,77.2167647 337.335947,77.2985703 C337.199161,77.3258388 337.130768,77.3531073 337.130768,77.4076444 C337.130768,77.4485472 337.185482,77.48945 337.349626,77.48945 C337.664235,77.48945 337.773664,77.4349129 338.238738,77.4349129 C338.608061,77.4349129 338.867955,77.5030843 339.2236,77.5030843 Z M342.342331,77.5848899 C343.122013,77.5848899 343.696517,77.3122045 344.243662,76.7259311 C344.325734,76.6304912 344.380449,76.5486856 344.380449,76.5077828 C344.380449,76.4396114 344.325734,76.4123429 344.216305,76.521417 C343.888018,76.8350052 343.477658,76.9577136 342.916834,76.9577136 C342.465439,76.9577136 341.918293,76.8077367 341.54897,76.3987086 C341.193325,76.0033149 340.919752,75.4443099 340.919752,74.7489623 C340.919752,74.3672028 340.960788,74.1626888 341.029181,73.9990776 C341.056538,73.9581748 341.124932,73.8900035 341.152289,73.8900035 L341.890936,73.8900035 C342.205544,73.8900035 343.983768,73.917272 344.093197,73.9309063 C344.16159,73.9309063 344.229984,73.8491007 344.229984,73.7809293 C344.229984,72.949239 343.368229,72.3902341 342.561189,72.3902341 C341.8499,72.3902341 341.220682,72.7174565 340.851359,73.0719474 C340.276856,73.6309524 340.057997,74.4353741 340.057997,75.0625504 C340.057997,75.7988009 340.304213,76.4532457 340.714572,76.8895423 C341.124932,77.3258388 341.699435,77.5848899 342.342331,77.5848899 Z M341.207003,73.6991237 C341.179646,73.6991237 341.152289,73.6718552 341.152289,73.6445866 C341.152289,73.5355125 341.275397,73.2764614 341.43954,73.0855817 C341.740471,72.7719935 342.082437,72.5811138 342.438081,72.5811138 C342.75269,72.5811138 342.985227,72.7038222 343.122013,72.8401649 C343.272479,73.0037761 343.313514,73.2491929 343.313514,73.4128041 C343.313514,73.5355125 343.286157,73.6854895 342.985227,73.6854895 L341.207003,73.6991237 Z M351.739559,77.4758158 C351.944738,77.4758158 352.245668,77.4349129 352.573956,77.4349129 C352.888565,77.4349129 353.367317,77.4621815 353.517782,77.4621815 C353.681926,77.4621815 353.750319,77.4349129 353.750319,77.3667416 C353.750319,77.3258388 353.695605,77.284936 353.504104,77.2440332 C353.203173,77.1894961 353.121102,77.0940563 353.107423,76.6441254 L353.052708,74.680791 C353.052708,74.1763231 352.984315,73.6582209 352.888565,73.3855356 C352.710742,72.8537991 352.259347,72.3902341 351.507022,72.3902341 C350.82309,72.3902341 350.193872,72.7583593 349.633048,73.30373 C349.60569,73.3173642 349.550976,73.30373 349.537297,73.2764614 C349.236367,72.6901879 348.79865,72.4038683 348.169433,72.4038683 C347.581251,72.4038683 346.924676,72.7992621 346.473281,73.2082901 C346.418566,73.2491929 346.404888,73.1673873 346.404888,73.1264845 C346.391209,72.9765076 346.404888,72.6220166 346.404888,72.4720397 C346.404888,72.3902341 346.377531,72.335697 346.336495,72.335697 C346.28178,72.335697 346.213387,72.3629655 346.131315,72.4175026 C345.912457,72.5947481 345.488419,72.7583593 345.201167,72.8265306 C345.091738,72.8537991 345.037024,72.8810677 345.037024,72.9219705 L345.050702,72.9219705 C345.050702,72.9901418 345.078059,73.0174104 345.17381,73.0719474 C345.392668,73.1946558 345.47474,73.3173642 345.488419,73.5491468 C345.515776,73.8081979 345.502097,74.1490545 345.502097,74.6535224 C345.502097,75.4443099 345.502097,76.5486856 345.447383,76.8350052 C345.420026,76.9986164 345.420026,77.1485933 344.995988,77.2440332 C344.804487,77.2713017 344.722415,77.3122045 344.722415,77.3667416 C344.722415,77.4212787 344.845523,77.4621815 344.96863,77.4621815 C345.146453,77.4621815 345.433704,77.4349129 345.857742,77.4349129 C346.18603,77.4349129 346.637425,77.4621815 346.897319,77.4621815 C346.993069,77.4621815 347.102499,77.4349129 347.102499,77.3667416 C347.102499,77.3258388 347.047784,77.284936 346.897319,77.2576675 C346.569032,77.1894961 346.48696,77.0258849 346.459602,76.8077367 C346.432245,76.5623198 346.377531,75.6079211 346.377531,74.5989854 C346.377531,74.1354203 346.418566,73.8218321 346.432245,73.6718552 C346.445924,73.5764153 346.473281,73.4400726 346.596389,73.3309985 C346.801568,73.1401188 347.143535,72.9083362 347.622287,72.9083362 C348.046325,72.9083362 348.265183,73.0310446 348.456684,73.2219244 C348.730257,73.5218782 348.79865,73.8354664 348.79865,74.5853511 L348.784972,76.7941024 C348.784972,77.1213248 348.648185,77.1894961 348.360934,77.2440332 C348.183111,77.284936 348.114718,77.3394731 348.114718,77.3803759 C348.114718,77.4349129 348.183111,77.4621815 348.333577,77.4621815 C348.484042,77.4621815 348.812329,77.4349129 349.113259,77.4349129 C349.50994,77.4349129 349.920299,77.4621815 350.166515,77.4621815 C350.31698,77.4621815 350.399052,77.4349129 350.399052,77.3803759 C350.399052,77.3258388 350.330658,77.3122045 350.180193,77.2576675 C349.838227,77.1758619 349.797191,77.080422 349.756155,76.6986625 C349.728798,76.3305373 349.687762,74.2444944 349.660405,73.8627349 C349.660405,73.6173181 349.701441,73.4673412 349.756155,73.4128041 C349.988692,73.1810216 350.41273,72.9083362 350.91884,72.9083362 C351.589094,72.9083362 351.944738,73.2491929 352.067846,73.9445405 C352.122561,74.3535685 352.190954,75.0080134 352.163597,76.6441254 C352.163597,77.0531535 352.095203,77.1758619 351.698523,77.2576675 C351.589094,77.284936 351.465986,77.3258388 351.465986,77.3940101 C351.465986,77.4485472 351.561736,77.4758158 351.739559,77.4758158 Z M295.506657,92.458636 C295.944374,92.458636 296.368411,92.254122 296.559912,91.8723625 C296.614627,91.7496541 296.559912,91.7087513 296.477841,91.7496541 C296.327376,91.8314597 296.190589,91.8723625 296.08116,91.8723625 C295.698158,91.8723625 295.57505,91.6133114 295.57505,91.3542603 C295.57505,90.9997694 295.616086,89.704514 295.616086,89.2000461 C295.616086,88.7773838 295.561372,88.2183789 295.424585,87.9593278 C295.260441,87.5366655 294.836403,87.2639802 294.37133,87.2639802 C294.138793,87.2639802 293.86522,87.3457858 293.550611,87.509397 C293.277038,87.6457397 292.825643,87.9320593 292.511034,88.3001845 C292.34689,88.4910642 292.25114,88.6137726 292.25114,88.7092125 C292.25114,88.7637496 292.319533,88.8455552 292.387926,88.8319209 C292.483677,88.8182866 292.894036,88.6274069 293.030823,88.531967 C293.05818,88.5046985 293.085537,88.4637957 293.085537,88.4228929 C293.085537,88.327453 293.085537,88.2183789 293.099216,88.1638418 C293.126573,88.0138649 293.208645,87.918425 293.304395,87.8366194 C293.509575,87.713911 293.646361,87.6730082 293.851541,87.6730082 C294.015685,87.6730082 294.248222,87.7548138 294.426044,87.8911565 C294.658581,88.0684019 294.754332,88.4501614 294.754332,89.0091664 C294.754332,89.2000461 294.754332,89.4727315 294.726974,89.6363427 C294.726974,89.6908797 294.658581,89.8135881 294.549152,89.8408567 C294.2619,89.9499308 293.017144,90.318056 292.688856,90.4953015 C292.565749,90.5634728 292.196425,90.8361582 292.196425,91.2724547 C292.196425,91.9814366 292.743571,92.4450017 293.290717,92.4450017 C293.810505,92.4450017 294.220864,92.2132192 294.631224,91.8314597 C294.644902,91.8178254 294.685938,91.8178254 294.699617,91.845094 C294.822725,92.1586821 295.123655,92.458636 295.506657,92.458636 Z M293.892577,91.9268996 C293.468539,91.9268996 293.071858,91.6133114 293.071858,91.1633806 C293.071858,90.7679869 293.249681,90.5634728 293.413825,90.4816672 C293.701076,90.3316903 294.494437,90.0453707 294.67226,90.0181022 C294.699617,90.0044679 294.726974,90.0726392 294.726974,90.0862735 C294.726974,90.6043756 294.699617,91.1497463 294.658581,91.3815289 C294.644902,91.5315058 294.562831,91.6542142 294.508116,91.7087513 C294.357651,91.845094 294.125114,91.9268996 293.892577,91.9268996 Z M297.038665,92.3904647 C297.230166,92.3904647 297.380631,92.3086591 297.873062,92.3086591 C298.447565,92.3086591 298.89896,92.3631961 299.158855,92.3631961 C299.364034,92.3631961 299.487142,92.3359276 299.487142,92.2677563 C299.487142,92.1995849 299.418749,92.1723164 299.227248,92.1450478 C298.707459,92.0905108 298.543316,91.9950709 298.488601,91.5724086 C298.461244,91.286089 298.433887,90.5771071 298.433887,89.5681713 C298.433887,89.295486 298.420208,88.9000922 298.447565,88.736481 C298.461244,88.5728698 298.529637,88.4228929 298.680102,88.2592817 C298.857924,88.0956705 299.076783,87.9865963 299.281962,87.9865963 C299.432428,87.9865963 299.61025,88.0547677 299.760715,88.1502075 C299.91118,88.2320131 299.979573,88.2456474 300.006931,88.2456474 C300.047966,88.2456474 300.102681,88.2320131 300.225789,88.122939 C300.389933,87.9729621 300.526719,87.7548138 300.526719,87.6593739 C300.526719,87.5912026 300.499362,87.5230312 300.430968,87.4684942 C300.294182,87.35942 300.11636,87.2912487 299.952216,87.2912487 C299.40507,87.2912487 298.857924,87.7957166 298.474922,88.2729159 C298.433887,88.3138187 298.406529,88.3001845 298.406529,88.2592817 C298.406529,88.0411334 298.420208,87.5230312 298.420208,87.3730543 C298.420208,87.2367116 298.392851,87.1821746 298.365493,87.1821746 C298.324457,87.1821746 298.256064,87.1958088 298.160314,87.2503459 C297.941455,87.3730543 297.558453,87.509397 297.284881,87.5775683 C297.161773,87.6184711 297.079701,87.6730082 297.079701,87.7002767 C297.079701,87.7275453 297.09338,87.7684481 297.18913,87.8366194 C297.449024,88.0547677 297.544775,88.0956705 297.544775,88.1911103 L297.543635,90.1422624 C297.539835,90.8482775 297.526537,91.4201593 297.503739,91.6133114 C297.449024,91.9814366 297.298559,92.104145 297.011308,92.1723164 C296.901879,92.1995849 296.806128,92.2677563 296.806128,92.3086591 C296.806128,92.3631961 296.874521,92.3904647 297.038665,92.3904647 Z M303.453949,92.4722703 C303.94638,92.4722703 304.575597,92.2813905 304.999635,91.9541681 C305.437352,91.6133114 306.052891,90.877061 306.052891,89.8408567 C306.052891,88.3956244 304.917563,87.2639802 303.426591,87.2639802 C302.770016,87.2639802 302.154477,87.5502998 301.785154,87.8366194 C301.279044,88.2456474 300.800292,88.9137265 300.800292,89.9499308 C300.800292,91.3678946 302.045048,92.4722703 303.453949,92.4722703 Z M303.64545,92.2404877 C303.221412,92.2404877 302.72898,92.0223394 302.359657,91.5178716 C301.921941,90.9452323 301.785154,90.2226162 301.785154,89.6499769 C301.785154,88.2320131 302.523801,87.4957627 303.221412,87.4957627 C304.425132,87.4957627 305.081707,88.7773838 305.081707,90.0726392 C305.081707,91.0543065 304.712384,91.7087513 304.507204,91.899631 C304.288346,92.0905108 303.973737,92.2404877 303.64545,92.2404877 Z M310.772023,92.4450017 C311.168703,92.254122 312.016779,92.0905108 312.180923,92.0768765 C312.317709,92.049608 312.440817,92.0223394 312.440817,91.9678024 C312.440817,91.899631 312.372424,91.8178254 312.276673,91.8178254 C312.194601,91.8178254 311.852635,91.899631 311.715849,91.9405338 C311.60642,91.9541681 311.565384,91.9268996 311.538027,91.7905569 C311.516141,91.6705753 311.511764,91.5069641 311.510888,91.278781 L311.510669,91.0952093 C311.510669,89.5136343 311.538027,88.1502075 311.60642,87.509397 C311.620098,87.4139571 311.592741,87.35942 311.551705,87.35942 C311.40124,87.35942 311.182382,87.4412256 310.607879,87.4412256 L310.033376,87.4412256 C309.951304,87.4412256 309.828196,87.4684942 309.828196,87.5230312 C309.828196,87.563934 309.896589,87.6048368 310.047055,87.6321054 C310.49845,87.7275453 310.635236,87.7957166 310.648915,88.2592817 C310.648915,88.6137726 310.662593,89.2545832 310.662593,89.4590972 L310.660843,90.054642 C310.658216,90.3491422 310.651651,90.6289173 310.635236,90.8497925 C310.621558,91.1497463 310.539486,91.3406261 310.389021,91.4769688 C310.033376,91.8041912 309.705088,91.9132653 309.226336,91.9132653 C308.939084,91.9132653 308.638154,91.7905569 308.460332,91.5724086 C308.37826,91.4633345 308.268831,91.2451862 308.255152,90.672547 C308.241474,90.0453707 308.255152,88.1911103 308.296188,87.4139571 C308.309867,87.3321515 308.268831,87.2503459 308.227795,87.2639802 C308.022615,87.3185172 307.530184,87.4412256 307.078789,87.4412256 C306.928324,87.4412256 306.859931,87.4684942 306.859931,87.509397 C306.859931,87.5502998 306.900967,87.5912026 307.024074,87.6730082 C307.174539,87.7684481 307.311326,87.8775222 307.325005,88.122939 C307.352362,88.3547215 307.352362,90.6589127 307.352362,91.1088435 C307.36604,91.3678946 307.420755,91.7223856 307.612256,91.9405338 C307.913186,92.3222933 308.28251,92.4313675 308.802298,92.4313675 C309.034835,92.4313675 309.349444,92.3359276 309.609338,92.2268535 C309.855554,92.1314136 310.252234,91.8314597 310.553164,91.5587744 C310.580522,91.5178716 310.5942,91.6133114 310.5942,91.6542142 C310.5942,91.7496541 310.580522,92.049608 310.580522,92.1859507 C310.580522,92.3359276 310.580522,92.4040989 310.607879,92.4450017 C310.635236,92.4859045 310.662593,92.4995388 310.772023,92.4450017 Z M317.980668,92.3631961 C318.117454,92.3631961 318.226883,92.3495619 318.226883,92.2677563 C318.226883,92.2132192 318.144811,92.1859507 318.021703,92.1314136 C317.65238,92.0359737 317.611344,91.9541681 317.597666,91.0270379 C317.597666,90.3453246 317.583987,90.2362504 317.583987,89.5136343 C317.570308,88.736481 317.460879,88.0547677 317.14627,87.7275453 C316.968448,87.5366655 316.64016,87.2639802 316.079336,87.2639802 C315.846799,87.2639802 315.559548,87.2912487 315.272296,87.4275914 C314.971366,87.5502998 314.643079,87.7820823 314.301113,88.0411334 C314.273755,88.0684019 314.232719,88.0274991 314.232719,88.0002306 C314.219041,87.8093509 314.246398,87.4412256 314.260077,87.2776144 C314.273755,87.2094431 314.205362,87.154906 314.164326,87.1685403 C313.931789,87.3185172 313.384643,87.5502998 313.083713,87.6321054 C312.960606,87.6730082 312.892212,87.713911 312.892212,87.7411795 C312.892212,87.7820823 312.91957,87.8093509 313.001641,87.8638879 C313.329929,88.0411334 313.357286,88.1911103 313.357286,88.327453 L313.356273,89.4661668 C313.354246,90.2377654 313.348167,91.0134037 313.329929,91.6678485 C313.31625,91.9405338 313.261536,92.0359737 312.91957,92.104145 C312.755426,92.1314136 312.632318,92.1859507 312.632318,92.2404877 C312.632318,92.3086591 312.741747,92.3359276 312.892212,92.3359276 C313.152107,92.3359276 313.439358,92.3086591 313.61718,92.3086591 C313.931789,92.3086591 314.602043,92.3631961 314.711472,92.3631961 C314.848258,92.3631961 314.985045,92.3631961 314.985045,92.2813905 C314.985045,92.2132192 314.916651,92.1859507 314.752508,92.1450478 C314.533649,92.0768765 314.369506,92.0087052 314.32847,91.7087513 C314.301113,91.5178716 314.260077,91.1633806 314.246398,90.2771532 L314.245206,89.8455687 C314.241876,89.2238216 314.232719,88.7340021 314.232719,88.6001384 C314.232719,88.4910642 314.301113,88.2865502 314.396863,88.1911103 C314.752508,87.8911565 315.108152,87.7548138 315.463797,87.7548138 C315.778406,87.7548138 316.0383,87.8502537 316.24348,88.0138649 C316.585446,88.2729159 316.681196,88.6001384 316.681196,89.704514 L316.681196,91.5587744 C316.681196,91.9541681 316.626482,92.049608 316.298194,92.1314136 C316.120372,92.1723164 316.0383,92.2268535 316.0383,92.2813905 C316.0383,92.3359276 316.134051,92.3631961 316.257158,92.3631961 C316.462338,92.3631961 316.64016,92.3086591 317.105234,92.3086591 C317.406165,92.3086591 317.802845,92.3631961 317.980668,92.3631961 Z M322.740835,92.4859045 C323.09648,92.3495619 323.643626,92.2132192 324.163414,92.1314136 C324.40963,92.0905108 324.50538,91.9678024 324.50538,91.8723625 C324.50538,91.8314597 324.464344,91.7905569 324.382272,91.8178254 C324.053985,91.9132653 323.821448,91.9678024 323.739376,91.9678024 C323.69834,91.9678024 323.643626,91.9132653 323.643626,91.845094 C323.629947,91.490603 323.616268,90.5498386 323.616268,89.3636573 C323.616268,87.9729621 323.684662,83.5418252 323.712019,83.1327972 C323.725698,82.969186 323.69834,82.9010146 323.657304,82.9010146 C323.616268,82.9010146 323.534197,82.9282832 323.465803,82.969186 C323.342696,83.0373573 322.768193,83.2146028 322.28944,83.2964084 C322.19369,83.3100427 322.125296,83.3509455 322.125296,83.3918483 C322.125296,83.4327511 322.19369,83.4736539 322.28944,83.5009224 C322.439905,83.5418252 322.604049,83.6236308 322.672442,83.7190707 C322.713478,83.7736077 322.727157,83.8417791 322.727157,83.9508532 C322.740835,84.6734694 322.754514,87.0867347 322.754514,87.3321515 C322.754514,87.35942 322.713478,87.4139571 322.686121,87.4003228 C322.508298,87.3457858 322.097939,87.2776144 321.78333,87.2776144 C321.140434,87.2776144 320.524895,87.4957627 320.087179,87.7957166 C319.540033,88.1774761 318.897137,88.9137265 318.897137,90.0453707 C318.897137,90.877061 319.26646,91.5587744 319.608426,91.8723625 C320.059821,92.2677563 320.593288,92.4450017 321.058362,92.4450017 C321.509757,92.4450017 322.015867,92.2677563 322.617728,91.8041912 C322.645085,91.7769226 322.672442,91.8041912 322.672442,91.8314597 C322.686121,91.9950709 322.658763,92.1859507 322.645085,92.3904647 C322.645085,92.4313675 322.686121,92.4995388 322.740835,92.4859045 Z M321.564472,91.9814366 C320.730075,91.9814366 319.895678,91.2179177 319.895678,89.7454168 C319.895678,88.7228468 320.251322,88.0684019 320.648003,87.7684481 C320.853183,87.6184711 321.017326,87.5366655 321.331935,87.5366655 C321.742294,87.5366655 322.234726,87.7275453 322.549334,88.1638418 C322.576692,88.2047446 322.645085,88.327453 322.672442,88.4910642 C322.754514,88.9546293 322.727157,90.6998155 322.686121,91.1224778 C322.672442,91.3406261 322.617728,91.5315058 322.535656,91.6269457 C322.248404,91.8859968 321.892759,91.9814366 321.564472,91.9814366 Z M328.184935,92.9631039 C328.704724,92.9631039 329.374977,92.7313213 329.867408,92.4722703 C331.385738,91.6678485 332.028634,90.468033 332.028634,89.5 C332.028634,88.8319209 331.823454,88.3956244 331.481488,88.0547677 C331.112165,87.6866425 330.523983,87.509397 330.086267,87.4957627 L329.935802,87.4957627 C329.894766,87.4957627 329.881087,87.4548599 329.908444,87.4275914 C330.701806,86.9640263 331.26263,86.4322899 331.26263,85.6278681 C331.26263,84.9870575 330.715484,84.1553672 329.5528,84.1553672 C328.718402,84.1553672 327.856648,84.7007379 327.418931,85.4915254 C327.350538,85.6005996 327.364217,85.6824052 327.43261,85.6824052 C327.446289,85.6824052 327.487324,85.6687709 327.624111,85.518794 C327.966077,85.0961317 328.403794,84.8916177 328.814153,84.8916177 C329.511764,84.8916177 330.004195,85.4097198 330.004195,86.3095815 C330.004195,87.0731004 329.634871,87.4821284 329.005654,87.8638879 C328.732081,88.0411334 328.581616,88.1093047 328.403794,88.2047446 C328.321722,88.2456474 328.280686,88.327453 328.280686,88.3956244 C328.280686,88.4637957 328.376436,88.4365272 328.513223,88.3956244 C328.663688,88.3410873 328.937261,88.2865502 329.087726,88.2865502 C329.457049,88.2865502 329.757979,88.3956244 330.127303,88.736481 C330.441911,89.0228006 330.742842,89.6363427 330.742842,90.3725931 C330.742842,91.2451862 330.332482,91.8587282 329.990516,92.1314136 C329.744301,92.3359276 329.416013,92.4722703 328.991975,92.4722703 C328.280686,92.4722703 327.760897,92.0768765 327.583075,91.9268996 C327.542039,91.8859968 327.446289,91.8859968 327.405253,91.9132653 C327.172716,92.0632422 327.022251,92.2677563 327.022251,92.3359276 C327.022251,92.7176871 327.692504,92.9631039 328.184935,92.9631039 Z M340.222141,92.3768304 C340.304213,92.3768304 340.454678,92.3495619 340.454678,92.2813905 C340.454678,92.2132192 340.399964,92.1859507 340.222141,92.1450478 C339.852818,92.0768765 339.811782,91.9132653 339.811782,91.6814828 L339.784425,89.2409489 C339.770746,88.4637957 339.63396,88.0411334 339.442459,87.8093509 C339.12785,87.4003228 338.690133,87.2230774 338.156666,87.2230774 C337.869415,87.2230774 337.51377,87.3185172 337.322269,87.4275914 C337.103411,87.5230312 336.775123,87.7411795 336.583622,87.9047907 C336.556265,87.9320593 336.515229,87.8911565 336.515229,87.8638879 C336.50155,87.6593739 336.583622,83.4872881 336.583622,83.2827741 C336.583622,83.0646259 336.542586,83.023723 336.50155,83.023723 C336.474193,83.023723 336.433157,83.0373573 336.323728,83.0782601 C335.913369,83.2691399 335.352544,83.3918483 334.914828,83.5145567 C334.764363,83.5554595 334.682291,83.5963623 334.682291,83.6508993 C334.682291,83.6918021 334.723327,83.7327049 334.778041,83.7736077 C335.120007,83.937219 335.161043,83.9644875 335.188401,84.400784 C335.215758,84.8507149 335.202079,85.8323821 335.202079,87.8775222 C335.202079,89.7454168 335.188401,91.0406722 335.161043,91.5178716 C335.147365,91.9541681 335.09265,92.049608 334.709648,92.1314136 C334.545504,92.1723164 334.49079,92.2132192 334.49079,92.2677563 C334.49079,92.3222933 334.58654,92.3631961 334.737005,92.3631961 C335.065293,92.3631961 335.243115,92.3086591 335.831297,92.3086591 C336.063834,92.3086591 336.610979,92.3768304 337.00766,92.3768304 C337.171804,92.3768304 337.253876,92.3086591 337.253876,92.2677563 C337.253876,92.2132192 337.158125,92.1723164 337.00766,92.1450478 C336.679373,92.0768765 336.610979,91.899631 336.569943,91.64058 C336.528908,91.1770149 336.487872,89.7726853 336.50155,88.4501614 C336.50155,88.2865502 336.569943,88.1502075 336.638337,88.0956705 C336.80248,87.9456935 337.103411,87.7820823 337.459055,87.7820823 C337.8147,87.7820823 338.101951,87.9047907 338.293452,88.2320131 C338.430239,88.47743 338.471275,88.9818978 338.471275,89.3363888 C338.471275,90.4543987 338.443918,91.1633806 338.41656,91.4769688 C338.375524,91.9268996 338.361846,92.049608 337.965165,92.1586821 C337.828379,92.1859507 337.759985,92.2132192 337.759985,92.2677563 C337.759985,92.3086591 337.8147,92.3631961 337.978844,92.3631961 C338.402882,92.3631961 338.430239,92.3086591 339.114171,92.3086591 C339.647638,92.3086591 339.811782,92.3768304 340.222141,92.3768304 Z M343.792267,92.4722703 C344.298377,92.4722703 344.96863,92.2950248 345.433704,91.9405338 C345.857742,91.6133114 346.500638,90.8906953 346.500638,89.7999539 C346.500638,88.3819901 345.392668,87.2230774 343.76491,87.2230774 C343.204085,87.2230774 342.574868,87.4003228 342.014043,87.8502537 C341.590005,88.1774761 341.04286,88.8319209 341.04286,89.8681252 C341.04286,91.3269918 342.232902,92.4722703 343.792267,92.4722703 Z M343.956411,92.254122 C343.587087,92.254122 343.204085,91.9814366 342.916834,91.5042373 C342.574868,90.9179638 342.492796,90.1544448 342.492796,89.5 C342.492796,88.3138187 343.05362,87.4548599 343.641802,87.4548599 C344.599307,87.4548599 345.037024,88.531967 345.037024,90.0862735 C345.037024,91.0952093 344.749772,91.7496541 344.585628,91.9405338 C344.435163,92.1314136 344.202626,92.254122 343.956411,92.254122 Z M351.041948,92.4722703 C351.438628,92.2813905 352.560277,92.0905108 352.710742,92.0768765 C352.847529,92.049608 353.011672,92.0223394 353.011672,91.9541681 C353.011672,91.8859968 352.943279,91.7769226 352.83385,91.7769226 C352.710742,91.7905569 352.505563,91.845094 352.368776,91.8723625 C352.286704,91.8859968 352.218311,91.8178254 352.204633,91.7360198 C352.184115,91.59286 352.178985,91.4880466 352.177703,91.231765 L352.17807,90.4200848 C352.181652,89.2887598 352.198249,87.880249 352.245668,87.4548599 C352.245668,87.3730543 352.218311,87.304883 352.177275,87.304883 C351.999453,87.304883 351.561736,87.4275914 351.069305,87.4275914 L350.358016,87.4275914 C350.262265,87.4275914 350.125479,87.4548599 350.125479,87.5230312 C350.125479,87.563934 350.207551,87.6184711 350.371694,87.6457397 C350.768375,87.713911 350.82309,87.7820823 350.864125,88.2456474 C350.884643,88.5115156 350.889773,89.0074621 350.891055,89.3250979 L350.891483,89.5681713 C350.891483,89.909028 350.877804,90.5907414 350.850447,91.0270379 C350.836768,91.3269918 350.768375,91.4633345 350.672624,91.5451401 C350.453766,91.7360198 350.221229,91.8178254 349.920299,91.8178254 C349.633048,91.8178254 349.386832,91.7360198 349.195331,91.5178716 C349.126938,91.4087974 349.031187,91.2451862 349.017509,90.6861813 C349.00383,89.8681252 349.017509,88.1774761 349.058545,87.4003228 C349.058545,87.3321515 349.031187,87.2367116 348.976473,87.2503459 C348.771293,87.304883 348.10104,87.4275914 347.38975,87.4275914 C347.266642,87.4275914 347.18457,87.4548599 347.18457,87.4957627 C347.18457,87.5366655 347.225606,87.5912026 347.335036,87.6593739 C347.553894,87.7820823 347.635966,87.8502537 347.649644,88.122939 C347.663323,88.3683558 347.677002,90.5362043 347.69068,90.9861351 C347.704359,91.3815289 347.759073,91.7087513 347.964253,91.9405338 C348.265183,92.3086591 348.634507,92.4313675 349.044866,92.4313675 C349.400511,92.4313675 349.701441,92.3495619 349.947656,92.2404877 C350.180193,92.1450478 350.563195,91.8723625 350.795732,91.6542142 C350.82309,91.6269457 350.836768,91.6678485 350.836768,91.7360198 C350.836768,91.8723625 350.82309,92.1177793 350.82309,92.254122 C350.82309,92.3495619 350.82309,92.4177332 350.850447,92.4722703 C350.877804,92.4995388 350.932519,92.5131731 351.041948,92.4722703 Z M353.43571,92.3768304 C353.763998,92.3768304 353.750319,92.3086591 354.571038,92.3086591 C355.227613,92.3086591 355.473828,92.3631961 355.85683,92.3631961 C356.034653,92.3631961 356.144082,92.3359276 356.144082,92.2677563 C356.144082,92.1995849 356.089367,92.1586821 355.897866,92.1314136 C355.391756,92.0632422 355.296006,91.9678024 355.241291,91.5587744 C355.213934,91.2451862 355.186577,90.672547 355.186577,89.704514 C355.186577,89.4454629 355.172898,88.9137265 355.213934,88.6546754 C355.241291,88.531967 355.268649,88.4365272 355.364399,88.3410873 C355.501185,88.2047446 355.665329,88.1502075 355.829473,88.1502075 C355.979938,88.1502075 356.212475,88.2592817 356.36294,88.3683558 C356.499726,88.4637957 356.56812,88.4637957 356.595477,88.4637957 C356.66387,88.4637957 356.732263,88.4365272 356.86905,88.3001845 C357.101587,88.0684019 357.279409,87.7684481 357.279409,87.6457397 C357.279409,87.5366655 357.224695,87.4684942 357.087908,87.3730543 C356.978479,87.2912487 356.814335,87.2367116 356.636513,87.2367116 C356.103046,87.2367116 355.610615,87.7275453 355.227613,88.2320131 C355.213934,88.2729159 355.159219,88.2592817 355.159219,88.1911103 C355.159219,87.8911565 355.186577,87.509397 355.186577,87.2639802 C355.186577,87.1958088 355.145541,87.1140032 355.118183,87.1140032 C355.063469,87.1140032 355.008754,87.1276375 354.885647,87.1958088 C354.625752,87.3321515 354.147,87.4957627 353.572497,87.6457397 C353.517782,87.6730082 353.422032,87.7275453 353.422032,87.7684481 C353.422032,87.8093509 353.449389,87.8366194 353.531461,87.9047907 C353.84607,88.1774761 353.887106,88.2047446 353.887106,88.2865502 C353.900784,88.4501614 353.887106,88.8046524 353.887106,89.6636112 C353.873427,90.5634728 353.859748,91.3406261 353.84607,91.5724086 C353.805034,91.9541681 353.695605,92.0632422 353.380996,92.1314136 C353.230531,92.1586821 353.175816,92.2268535 353.175816,92.2813905 C353.175816,92.3359276 353.257888,92.3768304 353.43571,92.3768304 Z M359.030275,92.4722703 C359.440635,92.4722703 360.042495,92.3222933 360.370782,92.0905108 C360.603319,91.9132653 361,91.5042373 361,90.9452323 C361,90.2498847 360.671713,89.8953938 359.809958,89.3227545 C359.249134,88.9682636 358.78406,88.7092125 358.78406,88.1774761 C358.78406,87.7275453 359.221776,87.4412256 359.563742,87.4412256 C359.864673,87.4412256 360.09721,87.5502998 360.275032,87.6866425 C360.49389,87.8775222 360.548605,88.1093047 360.616998,88.3138187 C360.658034,88.4228929 360.685391,88.4910642 360.740106,88.4910642 C360.79482,88.4910642 360.835856,88.4228929 360.822178,88.2729159 C360.808499,87.918425 360.753784,87.6730082 360.753784,87.5366655 C360.753784,87.4821284 360.712748,87.4275914 360.671713,87.4003228 C360.480212,87.3185172 360.042495,87.2230774 359.604778,87.2230774 C359.139705,87.2230774 358.701988,87.35942 358.442094,87.5502998 C358.004377,87.8229851 357.77184,88.2729159 357.77184,88.7637496 C357.77184,89.2409489 358.07277,89.8408567 358.87981,90.3589588 C359.577421,90.7952554 359.864673,91.081575 359.864673,91.4769688 C359.864673,91.9541681 359.399599,92.2404877 359.043954,92.2404877 C358.770381,92.2404877 358.592559,92.2268535 358.360022,92.0632422 C358.113806,91.8859968 357.894948,91.5724086 357.785519,91.2451862 C357.703447,90.9997694 357.648732,90.9588666 357.607697,90.9588666 C357.552982,90.9588666 357.525625,91.0543065 357.539303,91.2315519 L357.607697,91.9814366 C357.607697,92.0768765 357.744483,92.1995849 357.840233,92.2404877 C358.250593,92.3904647 358.715667,92.4722703 359.030275,92.4722703 Z M294.576509,107.332382 C295.356192,107.332382 295.930695,107.059697 296.477841,106.473423 C296.559912,106.377983 296.614627,106.296178 296.614627,106.255275 C296.614627,106.187104 296.559912,106.159835 296.450483,106.268909 C296.122196,106.582497 295.711837,106.705206 295.151012,106.705206 C294.699617,106.705206 294.152471,106.555229 293.783148,106.146201 C293.427503,105.750807 293.15393,105.191802 293.15393,104.496455 C293.15393,104.114695 293.194966,103.910181 293.263359,103.74657 C293.290717,103.705667 293.35911,103.637496 293.386467,103.637496 L294.125114,103.637496 C294.439723,103.637496 296.217946,103.664764 296.327376,103.678398 C296.395769,103.678398 296.464162,103.596593 296.464162,103.528422 C296.464162,102.696731 295.602407,102.137726 294.795367,102.137726 C294.084078,102.137726 293.45486,102.464949 293.085537,102.81944 C292.511034,103.378445 292.292176,104.182866 292.292176,104.810043 C292.292176,105.546293 292.538391,106.200738 292.948751,106.637034 C293.35911,107.073331 293.933613,107.332382 294.576509,107.332382 Z M293.441182,103.446616 C293.413825,103.446616 293.386467,103.419347 293.386467,103.392079 C293.386467,103.283005 293.509575,103.023954 293.673719,102.833074 C293.974649,102.519486 294.316615,102.328606 294.67226,102.328606 C294.986869,102.328606 295.219405,102.451314 295.356192,102.587657 C295.506657,102.751268 295.547693,102.996685 295.547693,103.160296 C295.547693,103.283005 295.520336,103.432982 295.219405,103.432982 L293.441182,103.446616 Z M299.364034,107.373285 C299.40507,107.373285 299.459785,107.346016 299.528178,107.141502 C299.678643,106.664303 299.924859,106.187104 300.184753,105.614464 C300.321539,105.287242 301.01915,103.760204 301.333759,103.078491 C301.497903,102.696731 301.648368,102.53312 301.921941,102.464949 C302.045048,102.424046 302.12712,102.396777 302.12712,102.34224 C302.12712,102.287703 302.03137,102.260435 301.935619,102.260435 C301.812511,102.260435 301.456867,102.301337 301.238008,102.301337 C300.937078,102.301337 300.731899,102.260435 300.567755,102.260435 C300.458326,102.260435 300.403611,102.274069 300.403611,102.314972 C300.403611,102.369509 300.458326,102.410412 300.567755,102.43768 C300.937078,102.519486 301.01915,102.669463 301.01915,102.751268 C301.01915,102.91488 300.950757,103.064856 300.868685,103.310273 C300.704541,103.801107 299.938537,105.614464 299.760715,105.941687 C299.747036,105.98259 299.719679,105.968955 299.706,105.914418 C299.528178,105.587196 298.707459,103.473884 298.584352,103.051222 C298.474922,102.642194 298.50228,102.560389 298.857924,102.464949 C298.967354,102.43768 299.049425,102.396777 299.049425,102.34224 C299.049425,102.287703 298.981032,102.260435 298.844246,102.260435 C298.625388,102.260435 298.392851,102.301337 298.023527,102.301337 C297.613168,102.301337 297.380631,102.2468 296.997629,102.2468 C296.833485,102.2468 296.765092,102.287703 296.765092,102.34224 C296.765092,102.383143 296.833485,102.424046 296.956593,102.451314 C297.298559,102.53312 297.435346,102.669463 297.572132,102.928514 C297.804669,103.36481 298.611709,105.491756 298.857924,106.118932 C299.049425,106.637034 299.145176,106.964257 299.213569,107.168771 C299.268284,107.359651 299.322998,107.373285 299.364034,107.373285 Z M304.589276,107.332382 C305.368959,107.332382 305.943462,107.059697 306.490607,106.473423 C306.572679,106.377983 306.627394,106.296178 306.627394,106.255275 C306.627394,106.187104 306.572679,106.159835 306.46325,106.268909 C306.134963,106.582497 305.724603,106.705206 305.163779,106.705206 C304.712384,106.705206 304.165238,106.555229 303.795915,106.146201 C303.44027,105.750807 303.166697,105.191802 303.166697,104.496455 C303.166697,104.114695 303.207733,103.910181 303.276126,103.74657 C303.303483,103.705667 303.371877,103.637496 303.399234,103.637496 L304.137881,103.637496 C304.45249,103.637496 306.230713,103.664764 306.340142,103.678398 C306.408535,103.678398 306.476929,103.596593 306.476929,103.528422 C306.476929,102.696731 305.615174,102.137726 304.808134,102.137726 C304.096845,102.137726 303.467627,102.464949 303.098304,102.81944 C302.523801,103.378445 302.304943,104.182866 302.304943,104.810043 C302.304943,105.546293 302.551158,106.200738 302.961517,106.637034 C303.371877,107.073331 303.94638,107.332382 304.589276,107.332382 Z M303.453949,103.446616 C303.426591,103.446616 303.399234,103.419347 303.399234,103.392079 C303.399234,103.283005 303.522342,103.023954 303.686486,102.833074 C303.987416,102.519486 304.329382,102.328606 304.685026,102.328606 C304.999635,102.328606 305.232172,102.451314 305.368959,102.587657 C305.519424,102.751268 305.56046,102.996685 305.56046,103.160296 C305.56046,103.283005 305.533102,103.432982 305.232172,103.432982 L303.453949,103.446616 Z M307.242933,107.264211 C307.434434,107.264211 307.584899,107.182405 308.07733,107.182405 C308.651833,107.182405 309.103228,107.236942 309.363122,107.236942 C309.568302,107.236942 309.69141,107.209674 309.69141,107.141502 C309.69141,107.073331 309.623017,107.046062 309.431516,107.018794 C308.911727,106.964257 308.747583,106.868817 308.692869,106.446155 C308.665512,106.159835 308.638154,105.450853 308.638154,104.441917 C308.638154,104.169232 308.624476,103.773838 308.651833,103.610227 C308.665512,103.446616 308.733905,103.296639 308.88437,103.133028 C309.062192,102.969417 309.281051,102.860342 309.48623,102.860342 C309.636695,102.860342 309.814518,102.928514 309.964983,103.023954 C310.115448,103.105759 310.183841,103.119394 310.211198,103.119394 C310.252234,103.119394 310.306949,103.105759 310.430057,102.996685 C310.5942,102.846708 310.730987,102.62856 310.730987,102.53312 C310.730987,102.464949 310.703629,102.396777 310.635236,102.34224 C310.49845,102.233166 310.320627,102.164995 310.156484,102.164995 C309.609338,102.164995 309.062192,102.669463 308.67919,103.146662 C308.638154,103.187565 308.610797,103.173931 308.610797,103.133028 C308.610797,102.91488 308.624476,102.396777 308.624476,102.2468 C308.624476,102.110458 308.597118,102.055921 308.569761,102.055921 C308.528725,102.055921 308.460332,102.069555 308.364581,102.124092 C308.145723,102.2468 307.762721,102.383143 307.489148,102.451314 C307.36604,102.492217 307.283969,102.546754 307.283969,102.574023 C307.283969,102.601291 307.297647,102.642194 307.393398,102.710366 C307.653292,102.928514 307.749042,102.969417 307.749042,103.064856 L307.749042,104.57826 C307.749042,105.478122 307.735364,106.255275 307.708007,106.487058 C307.653292,106.855183 307.502827,106.977891 307.215575,107.046062 C307.106146,107.073331 307.010396,107.141502 307.010396,107.182405 C307.010396,107.236942 307.078789,107.264211 307.242933,107.264211 Z M312.085172,111 C312.235637,111 312.399781,110.959097 312.536568,110.768217 C312.632318,110.645509 312.700711,110.509166 312.796462,110.26375 C312.987963,109.800184 313.507751,108.382221 313.836039,107.591433 C314.12329,106.855183 314.246398,106.541595 314.410542,106.091664 C314.615721,105.573562 315.463797,103.473884 315.627941,103.133028 C315.846799,102.62856 315.983586,102.53312 316.257158,102.451314 C316.393945,102.410412 316.448659,102.355875 316.448659,102.314972 C316.448659,102.274069 316.366588,102.260435 316.284516,102.260435 C316.079336,102.260435 315.901514,102.301337 315.655298,102.301337 C315.450119,102.301337 315.162867,102.260435 314.998723,102.260435 C314.875616,102.260435 314.807222,102.287703 314.807222,102.34224 C314.807222,102.383143 314.848258,102.424046 315.053438,102.464949 C315.285975,102.53312 315.354368,102.642194 315.354368,102.737634 C315.354368,102.805805 315.354368,102.969417 315.285975,103.133028 C315.176546,103.446616 314.410542,105.40995 314.232719,105.873516 C314.219041,105.914418 314.178005,105.928053 314.150647,105.873516 C313.877075,105.300876 313.124749,103.46025 312.946927,102.983051 C312.823819,102.62856 312.851176,102.560389 313.152107,102.464949 C313.234178,102.451314 313.329929,102.410412 313.329929,102.355875 C313.329929,102.301337 313.234178,102.260435 313.097392,102.260435 C312.91957,102.260435 312.563925,102.301337 312.372424,102.301337 C312.044136,102.301337 311.661134,102.2468 311.414919,102.2468 C311.319168,102.2468 311.196061,102.274069 311.196061,102.34224 C311.196061,102.383143 311.278132,102.43768 311.442276,102.478583 C311.674813,102.53312 311.838957,102.669463 311.934707,102.846708 C312.550246,104.182866 313.425679,106.391618 313.630859,106.923354 C313.671895,107.046062 313.699252,107.182405 313.644538,107.359651 C313.179464,108.545832 312.782783,109.663842 312.645997,109.950161 C312.563925,110.141041 312.454496,110.181944 312.290352,110.181944 L312.016779,110.154675 L312.016779,110.154675 C311.811599,110.154675 311.633777,110.345555 311.633777,110.550069 C311.633777,110.822755 311.866314,111 312.085172,111 Z M323.465803,107.359651 C323.506839,107.359651 323.561554,107.305114 323.643626,107.1006 C323.807769,106.664303 324.053985,106.050761 324.286522,105.50539 C324.71056,104.537357 325.120919,103.596593 325.367135,103.105759 C325.544957,102.737634 325.709101,102.546754 325.955316,102.478583 C326.160496,102.424046 326.201532,102.383143 326.201532,102.328606 C326.201532,102.274069 326.133139,102.260435 326.010031,102.260435 C325.804851,102.260435 325.462885,102.301337 325.326099,102.301337 C325.107241,102.301337 324.861025,102.260435 324.628488,102.260435 C324.532738,102.260435 324.450666,102.287703 324.450666,102.34224 C324.450666,102.383143 324.491702,102.424046 324.669524,102.478583 C325.025169,102.574023 325.079883,102.696731 325.079883,102.81944 C325.079883,102.91488 324.984133,103.160296 324.861025,103.473884 C324.696881,103.93745 324.040306,105.491756 323.876163,105.832613 C323.876163,105.859881 323.848805,105.914418 323.807769,105.846247 C323.616268,105.423585 322.8913,103.446616 322.740835,103.023954 C322.576692,102.601291 322.658763,102.546754 322.973372,102.478583 C323.082801,102.451314 323.178552,102.396777 323.178552,102.34224 C323.178552,102.301337 323.123837,102.274069 322.973372,102.274069 C322.727157,102.274069 322.563013,102.301337 322.166332,102.301337 C321.879081,102.301337 321.523436,102.2468 321.236185,102.2468 C321.099398,102.2468 321.031005,102.287703 321.031005,102.34224 C321.031005,102.396777 321.099398,102.424046 321.222506,102.451314 C321.509757,102.519486 321.632865,102.669463 321.742294,102.901245 L321.974831,103.46025 C322.002189,103.528422 321.961153,103.623861 321.947474,103.692033 C321.810688,104.046524 321.208827,105.369048 320.989969,105.832613 C320.97629,105.873516 320.921576,105.859881 320.907897,105.818978 C320.593288,105.055459 320.005107,103.501153 319.799927,102.873977 C319.745212,102.655828 319.731534,102.53312 320.059821,102.478583 C320.155572,102.464949 320.292358,102.410412 320.292358,102.369509 C320.292358,102.301337 320.182929,102.260435 320.059821,102.260435 C319.786248,102.260435 319.512676,102.301337 319.26646,102.301337 C318.883458,102.301337 318.473099,102.2468 318.295276,102.2468 C318.144811,102.2468 318.049061,102.274069 318.049061,102.34224 C318.049061,102.396777 318.131133,102.43768 318.240562,102.464949 C318.582528,102.546754 318.746672,102.737634 318.842422,102.996685 C318.992887,103.242102 319.77257,105.259973 320.018785,105.941687 C320.251322,106.582497 320.333394,106.923354 320.401787,107.114234 C320.442823,107.264211 320.483859,107.359651 320.538574,107.359651 C320.593288,107.359651 320.661682,107.277845 320.730075,107.1006 C320.88054,106.691572 321.003648,106.391618 321.208827,105.941687 C321.400328,105.464487 321.974831,104.196501 322.097939,103.951084 C322.125296,103.882912 322.152654,103.910181 322.166332,103.951084 L322.987051,106.173469 L323.315338,107.114234 C323.370053,107.305114 323.411089,107.359651 323.465803,107.359651 Z M328.554259,107.332382 C329.333941,107.332382 329.908444,107.059697 330.45559,106.473423 C330.537662,106.377983 330.592376,106.296178 330.592376,106.255275 C330.592376,106.187104 330.537662,106.159835 330.428233,106.268909 C330.099945,106.582497 329.689586,106.705206 329.128762,106.705206 C328.677366,106.705206 328.130221,106.555229 327.760897,106.146201 C327.405253,105.750807 327.13168,105.191802 327.13168,104.496455 C327.13168,104.114695 327.172716,103.910181 327.241109,103.74657 C327.268466,103.705667 327.336859,103.637496 327.364217,103.637496 L328.102863,103.637496 C328.417472,103.637496 330.195696,103.664764 330.305125,103.678398 C330.373518,103.678398 330.441911,103.596593 330.441911,103.528422 C330.441911,102.696731 329.580157,102.137726 328.773117,102.137726 C328.061827,102.137726 327.43261,102.464949 327.063287,102.81944 C326.488784,103.378445 326.269925,104.182866 326.269925,104.810043 C326.269925,105.546293 326.516141,106.200738 326.9265,106.637034 C327.336859,107.073331 327.911362,107.332382 328.554259,107.332382 Z M327.418931,103.446616 C327.391574,103.446616 327.364217,103.419347 327.364217,103.392079 C327.364217,103.283005 327.487324,103.023954 327.651468,102.833074 C327.952398,102.519486 328.294364,102.328606 328.650009,102.328606 C328.964618,102.328606 329.197155,102.451314 329.333941,102.587657 C329.484406,102.751268 329.525442,102.996685 329.525442,103.160296 C329.525442,103.283005 329.498085,103.432982 329.197155,103.432982 L327.418931,103.446616 Z M333.574321,107.332382 C334.354003,107.332382 334.928506,107.059697 335.475652,106.473423 C335.557724,106.377983 335.612438,106.296178 335.612438,106.255275 C335.612438,106.187104 335.557724,106.159835 335.448295,106.268909 C335.120007,106.582497 334.709648,106.705206 334.148824,106.705206 C333.697428,106.705206 333.150283,106.555229 332.780959,106.146201 C332.425315,105.750807 332.151742,105.191802 332.151742,104.496455 C332.151742,104.114695 332.192778,103.910181 332.261171,103.74657 C332.288528,103.705667 332.356921,103.637496 332.384279,103.637496 L333.122925,103.637496 C333.437534,103.637496 335.215758,103.664764 335.325187,103.678398 C335.39358,103.678398 335.461973,103.596593 335.461973,103.528422 C335.461973,102.696731 334.600219,102.137726 333.793179,102.137726 C333.081889,102.137726 332.452672,102.464949 332.083349,102.81944 C331.508846,103.378445 331.289987,104.182866 331.289987,104.810043 C331.289987,105.546293 331.536203,106.200738 331.946562,106.637034 C332.356921,107.073331 332.931424,107.332382 333.574321,107.332382 Z M332.438993,103.446616 C332.411636,103.446616 332.384279,103.419347 332.384279,103.392079 C332.384279,103.283005 332.507386,103.023954 332.67153,102.833074 C332.97246,102.519486 333.314426,102.328606 333.670071,102.328606 C333.98468,102.328606 334.217217,102.451314 334.354003,102.587657 C334.504468,102.751268 334.545504,102.996685 334.545504,103.160296 C334.545504,103.283005 334.518147,103.432982 334.217217,103.432982 L332.438993,103.446616 Z M341.576327,107.250577 C341.685756,107.250577 341.808864,107.236942 341.808864,107.155137 C341.808864,107.1006 341.726792,107.059697 341.603684,107.032428 C341.193325,106.936988 341.001824,106.787011 340.618822,106.391618 C339.975926,105.737173 338.991063,104.687334 338.580704,104.210135 C338.567025,104.182866 338.539668,104.141964 338.567025,104.114695 C338.82692,103.869278 339.497173,103.283005 339.852818,103.023954 C340.413642,102.587657 340.646179,102.505851 341.111253,102.424046 C341.275397,102.396777 341.316433,102.34224 341.316433,102.314972 C341.316433,102.260435 341.261718,102.219532 341.111253,102.219532 C340.755608,102.219532 340.208463,102.301337 339.907532,102.301337 C339.757067,102.301337 339.442459,102.287703 339.2236,102.287703 C339.100492,102.287703 339.004742,102.328606 339.004742,102.383143 C339.004742,102.43768 339.114171,102.478583 339.237279,102.492217 C339.538209,102.546754 339.63396,102.62856 339.63396,102.710366 C339.63396,102.764903 339.565566,102.860342 339.483494,102.942148 C339.237279,103.26937 338.553347,103.882912 338.006201,104.319209 C337.896772,104.401015 337.787343,104.469186 337.732628,104.469186 C337.691592,104.469186 337.664235,104.401015 337.664235,104.251038 C337.664235,102.751268 337.732628,100.951545 337.732628,100.528883 C337.732628,99.519947 337.773664,98.3201314 337.801021,97.8702006 C337.801021,97.8020293 337.773664,97.7611265 337.759985,97.7611265 C337.705271,97.7611265 337.636878,97.788395 337.541127,97.8292978 C337.472734,97.8565664 337.117089,98.0065433 336.569943,98.1565202 C336.433157,98.197423 336.351085,98.2246916 336.351085,98.2792286 C336.351085,98.3064972 336.4058,98.3337657 336.474193,98.3746685 C336.638337,98.4564741 336.761444,98.5382797 336.788802,98.6473539 C336.829838,98.7973308 336.843516,98.960942 336.843516,99.2745302 C336.843516,100.338003 336.80248,102.083189 336.788802,103.146662 C336.788802,104.210135 336.775123,105.355413 336.720409,106.350715 C336.693051,106.800646 336.597301,106.923354 336.173263,107.032428 C336.077512,107.046062 335.99544,107.086965 335.99544,107.127868 C335.99544,107.182405 336.077512,107.223308 336.214299,107.223308 C336.378442,107.223308 336.665694,107.182405 337.103411,107.182405 C337.459055,107.182405 337.746307,107.223308 338.129309,107.223308 C338.279774,107.223308 338.389203,107.196039 338.389203,107.127868 C338.389203,107.073331 338.32081,107.046062 338.184023,107.00516 C337.759985,106.90972 337.650556,106.868817 337.650556,106.214372 C337.638397,105.547808 337.647854,105.118244 337.659713,104.858651 L337.664235,104.76914 C337.664235,104.714603 337.677914,104.632797 337.718949,104.632797 C337.773664,104.632797 337.869415,104.728237 337.978844,104.837311 C338.389203,105.246339 339.360387,106.268909 339.647638,106.596132 C339.770746,106.787011 339.743389,106.90972 339.510852,106.964257 C339.264636,107.018794 339.196243,107.046062 339.196243,107.114234 C339.196243,107.196039 339.291993,107.196039 339.442459,107.196039 C339.647638,107.196039 339.825461,107.182405 340.057997,107.182405 C340.591465,107.182405 341.111253,107.250577 341.576327,107.250577 Z M342.697976,107.346016 C342.95787,107.346016 343.286157,107.155137 343.286157,106.732474 C343.286157,106.459789 343.094656,106.132567 342.739011,106.132567 C342.410724,106.132567 342.123473,106.405252 342.123473,106.746109 C342.123473,107.059697 342.383367,107.346016 342.697976,107.346016 Z M343.682838,100.2971 C343.888018,100.2971 344.913916,99.9017064 344.913916,98.9745763 C344.913916,98.4701084 344.57195,98.0065433 344.038483,98.0065433 C343.819624,98.0065433 343.628123,98.1837888 343.628123,98.3883028 C343.628123,98.551914 343.76491,98.6337196 343.901696,98.6746224 C344.27102,98.756428 344.421485,98.9336735 344.421485,99.2063588 C344.421485,99.6153868 344.106876,99.9153407 343.696517,100.119855 C343.614445,100.160758 343.55973,100.20166 343.55973,100.228929 C343.55973,100.269832 343.600766,100.2971 343.682838,100.2971 Z M345.392668,100.2971 C345.597848,100.2971 346.623746,99.9017064 346.623746,98.9745763 C346.623746,98.4701084 346.28178,98.0065433 345.77567,98.0065433 C345.529455,98.0065433 345.351632,98.1837888 345.351632,98.3883028 C345.351632,98.551914 345.488419,98.6337196 345.611527,98.6746224 C345.98085,98.756428 346.131315,98.9336735 346.131315,99.2199931 C346.131315,99.6153868 345.830385,99.9153407 345.406347,100.119855 L345.317436,100.179505 C345.290078,100.198252 345.26956,100.215295 345.26956,100.228929 C345.26956,100.269832 345.324275,100.2971 345.392668,100.2971 Z"/>
  </g>
</svg>
