<svg xmlns="http://www.w3.org/2000/svg" width="399" height="200" viewBox="0 0 399 200">
  <g fill="none" fill-rule="evenodd">
    <g fill-rule="nonzero" stroke="#222F3C" stroke-linecap="round" stroke-linejoin="round" stroke-width=".5" transform="translate(188 108)">
      <line x1="10.516" x2="5.601" y1="10.264" y2="5.738"/>
      <path d="M12.5096374 10.291746L17.1901375 5.45829669 11.6107308.0192264396 11.6120519.0180139852C11.6018715.00922369115 11.5916911.00285830578 11.5801896.000433397065 11.5687658-.000779057292 11.5560208.000433397065 11.5445193.00558632808L11.5432759.00558632808C11.530531.0104361455 11.521594.0180139852 11.5152992.0265011657 11.5089268.0352914598 11.5063622.0465066626 11.5063622.0613592285L11.5063622 5.44708148 11.5063622 5.55529303 11.5063622 6.02815023 11.5063622 9.31329531M11.4910534 9.31277462L11.4910534 5.84273025 11.4910534 5.8415178C11.4910534 5.82545278 11.4846809 5.81181266 11.4732571 5.80059746L11.4745005 5.80059746C11.4617556 5.78938226 11.4465238 5.78180442 11.4286498 5.78180442L5.60102771 5.73845918M13.4468186 11.2421314L17.0730638 11.2421314 17.0743072 11.2421314C17.0908601 11.2421314 17.1048484 11.2348567 17.1163499 11.2248539L17.1163499 11.2248539C17.1277738 11.2136387 17.1354673 11.1975737 17.1354673 11.1815087L17.1799969 5.48145765 12.5160496 10.2973264"/>
      <line x1="5.584" x2="5.712" y1="5.863" y2="5.738"/>
      <path d="M5.58448973,5.73970073 L0.0190713668,11.1666464 L0.0178279584,11.1666464 C0.00889096042,11.1751336 0.00251849228,11.1863488 0.00127508386,11.1963516 C-0.00128944599,11.2075668 0,11.2199944 0.00508302214,11.2324221 L0.00508302214,11.2324221 C0.0102120819,11.2448497 0.0178279584,11.2545494 0.0267649564,11.2609148 C0.0356242414,11.2657646 0.0483691776,11.2697051 0.0623575223,11.2697051 L5.58068179,11.2697051 L5.69142285,11.2697051 L6.17782868,11.2697051 L9.57862841,11.2697051"/>
      <path d="M5.64686472,5.8626145 L5.58320221,5.73845918 L5.71052723,5.73845918"/>
      <line x1="5.584" x2="10.507" y1="5.74" y2="10.273"/>
      <path d="M5.71307373,5.85516518 L5.64686472,5.73100986 L5.58574871,5.85516518"/>
      <line x1="5.713" x2="5.586" y1="5.863" y2="5.738"/>
      <line x1="12.447" x2="17.399" y1="12.216" y2="16.776"/>
      <path d="M10.5233689 12.1895699L5.80984075 17.0563617 11.3892475 22.4957351 11.3879263 22.4969475C11.3981067 22.5054347 11.4082871 22.5118001 11.4197887 22.5130125 11.4312125 22.5154375 11.4439574 22.514225 11.4553812 22.5093752L11.4567024 22.5093752C11.4694473 22.5042223 11.4783066 38.0099979 11.484679 38 11.4910515 37.9927204 11.493616 22.4684548 11.493616 22.4532992L11.493616 17.0675769 11.493616 16.9596685 11.493616 16.4865082 11.493616 13.1355874M11.5089087 13.1319088L11.5089087 16.6713662 11.5089087 16.6725787C11.5089087 16.6877344 11.5152812 16.7025869 11.526705 16.7138021L11.5254616 16.7138021C11.5381288 16.7247142 11.5534383 16.7322921 11.5712346 16.7322921L17.3989344 16.7756373M10.517002 12.1832215L5.82002675 17.0327358 5.86455631 11.3329879C5.86455631 11.3166198 5.8722499 11.3005547 5.88367372 11.2893395L5.88367372 11.2893395C5.89517525 11.2781243 5.90916359 11.2720621 5.92571646 11.2720621L5.92695987 11.2720621 9.58250291 11.2720621"/>
      <line x1="17.542" x2="17.415" y1="16.775" y2="16.899"/>
      <path d="M17.4155103 16.7744491L22.9808509 11.3478065 22.982172 11.3478065C22.991109 11.3390162 22.9974038 11.327801 22.9987249 11.3177983 23.0012894 11.3065831 23 11.2944585 22.994917 11.2820309L22.994917 11.2820309C22.9897879 11.2696032 22.982172 11.2596005 22.973235 11.2532351 22.964298 11.2483853 22.9528742 11.2447479 22.9375648 11.2447479L17.4193182 11.2447479 17.3085771 11.2447479 16.8221713 11.2447479 13.4429758 11.2447479M17.4757105 16.7746261L17.5415683 16.8987814 17.4142432 16.8987814"/>
      <line x1="17.416" x2="12.456" y1="16.775" y2="12.208"/>
      <path d="M17.3989642,16.7758677 L17.4645366,16.900023 L17.5262893,16.7808339"/>
      <line x1="17.399" x2="17.526" y1="16.775" y2="16.9"/>
      <line x1="10.644" x2="10.517" y1="12.307" y2="12.183"/>
      <line x1="10.635" x2="10.507" y1="10.264" y2="10.388"/>
      <line x1="10.517" x2="9.582" y1="12.183" y2="11.272"/>
      <line x1="9.579" x2="9.706" y1="11.269" y2="11.393"/>
      <path d="M13.44643 11.2422478L13.4658583 11.2234548 12.5160496 10.2974428M11.6209547 13.1319088L11.5380924 13.2560642 11.4936297 13.191984"/>
      <line x1="11.509" x2="12.447" y1="13.132" y2="12.216"/>
      <path d="M11.4910832,9.42959702 L11.5577773,9.3054417 L11.6184082,9.4196646"/>
      <line x1="13.443" x2="12.456" y1="11.245" y2="12.208"/>
      <line x1="10.523" x2="11.494" y1="12.19" y2="13.136"/>
      <path d="M9.57968534,11.2692492 L9.53282439,11.223479 L10.5078897,10.2726117"/>
      <line x1="11.491" x2="10.516" y1="9.313" y2="10.264"/>
      <line x1="12.509" x2="11.506" y1="10.291" y2="9.312"/>
      <line x1="12.447" x2="12.575" y1="12.332" y2="12.208"/>
      <line x1="13.443" x2="13.571" y1="11.366" y2="11.242"/>
      <line x1="12.509" x2="12.637" y1="10.291" y2="10.415"/>
    </g>
    <g fill-rule="nonzero" transform="translate(234 59)">
      <path fill="#333838" d="M5.1975,9.63851429 C5.3075,9.63851429 5.445,9.62468571 5.445,9.55554286 C5.445,9.4864 5.3625,9.44491429 5.15625,9.41725714 C4.675,9.32045714 4.57875,9.16834286 4.55125,8.5184 C4.52375,8.04822857 4.52375,7.78548571 4.52375,7.42594286 C4.52375,6.776 4.52375,5.97394286 4.55125,5.53142857 C4.565,5.40697143 4.63375,5.18571429 4.74375,4.99211429 C5.15625,4.31451429 6.09125,2.68274286 6.80625,1.75622857 C7.08125,1.38285714 7.32875,1.14777143 7.82375,1.05097143 C8.04375,1.02331429 8.12625,0.968 8.12625,0.912685714 C8.12625,0.857371429 8.03,0.829714286 7.87875,0.829714286 C7.6725,0.829714286 7.2325,0.898857143 6.9025,0.898857143 C6.5175,0.898857143 6.2975,0.843542857 5.9125,0.843542857 C5.775,0.843542857 5.6925,0.8712 5.6925,0.912685714 C5.6925,0.981828571 5.81625,1.02331429 5.92625,1.05097143 C6.28375,1.12011429 6.435,1.23074286 6.435,1.39668571 C6.435,1.5488 6.3525,1.7424 6.11875,2.1296 C5.83,2.62742857 4.95,4.07942857 4.4825,4.85382857 C4.44125,4.92297143 4.345,4.85382857 4.3175,4.84 C3.9875,4.38365714 2.7775,2.28171429 2.53,1.85302857 C2.37875,1.60411429 2.29625,1.41051429 2.29625,1.32754286 C2.29625,1.23074286 2.37875,1.14777143 2.70875,1.07862857 C2.84625,1.05097143 2.92875,1.00948571 2.92875,0.940342857 C2.92875,0.885028571 2.86,0.857371429 2.70875,0.857371429 C2.46125,0.857371429 2.035,0.898857143 1.595,0.898857143 C1.1825,0.898857143 0.50875,0.829714286 0.26125,0.829714286 C0.0825,0.829714286 3.55271368e-13,0.829714286 3.55271368e-13,0.912685714 C3.55271368e-13,0.954171429 0.06875,1.00948571 0.28875,1.05097143 C0.70125,1.13394286 0.94875,1.34137143 1.38875,1.94982857 C1.7875,2.5168 2.92875,4.43897143 3.3825,5.26868571 C3.42375,5.324 3.465,5.46228571 3.47875,5.57291429 C3.4925,5.75268571 3.50625,6.0016 3.50625,6.85897143 C3.50625,7.4536 3.47875,8.36628571 3.45125,8.64285714 C3.41,9.18217143 3.3275,9.32045714 2.7775,9.3896 C2.6125,9.41725714 2.475,9.45874286 2.475,9.51405714 C2.475,9.5832 2.57125,9.62468571 2.76375,9.62468571 C3.14875,9.62468571 3.41,9.56937143 3.8775,9.56937143 C4.38625,9.56937143 4.6475,9.63851429 5.1975,9.63851429 Z M9.14375,9.73531429 C9.63875,9.73531429 10.27125,9.54171429 10.6975,9.20982857 C11.1375,8.86411429 11.75625,8.11737143 11.75625,7.0664 C11.75625,5.60057143 10.615,4.4528 9.11625,4.4528 C8.45625,4.4528 7.8375,4.7432 7.46625,5.0336 C6.9575,5.44845714 6.47625,6.12605714 6.47625,7.17702857 C6.47625,8.6152 7.7275,9.73531429 9.14375,9.73531429 Z M9.33625,9.50022857 C8.91,9.50022857 8.415,9.27897143 8.04375,8.76731429 C7.60375,8.18651429 7.46625,7.4536 7.46625,6.8728 C7.46625,5.43462857 8.20875,4.68788571 8.91,4.68788571 C10.12,4.68788571 10.78,5.98777143 10.78,7.30148571 C10.78,8.29714286 10.40875,8.96091429 10.2025,9.15451429 C9.9825,9.34811429 9.66625,9.50022857 9.33625,9.50022857 Z M16.5,9.70765714 C16.89875,9.51405714 17.75125,9.34811429 17.91625,9.33428571 C18.05375,9.30662857 18.1775,9.27897143 18.1775,9.22365714 C18.1775,9.15451429 18.10875,9.07154286 18.0125,9.07154286 C17.93,9.07154286 17.58625,9.15451429 17.44875,9.196 C17.33875,9.20982857 17.2975,9.18217143 17.27,9.04388571 C17.248,8.92219429 17.2436,8.75625143 17.24272,8.52481646 L17.2425,8.33862857 C17.2425,6.73451429 17.27,5.35165714 17.33875,4.70171429 C17.3525,4.60491429 17.325,4.5496 17.28375,4.5496 C17.1325,4.5496 16.9125,4.63257143 16.335,4.63257143 L15.7575,4.63257143 C15.675,4.63257143 15.55125,4.66022857 15.55125,4.71554286 C15.55125,4.75702857 15.62,4.79851429 15.77125,4.82617143 C16.225,4.92297143 16.3625,4.99211429 16.37625,5.46228571 C16.37625,5.82182857 16.39,6.47177143 16.39,6.6792 C16.39,7.17702857 16.39,7.71634286 16.3625,8.08971429 C16.34875,8.39394286 16.26625,8.58754286 16.115,8.72582857 C15.7575,9.05771429 15.4275,9.16834286 14.94625,9.16834286 C14.6575,9.16834286 14.355,9.04388571 14.17625,8.82262857 C14.09375,8.712 13.98375,8.49074286 13.97,7.90994286 C13.95625,7.27382857 13.97,5.39314286 14.01125,4.60491429 C14.025,4.52194286 13.98375,4.43897143 13.9425,4.4528 C13.73625,4.50811429 13.24125,4.63257143 12.7875,4.63257143 C12.63625,4.63257143 12.5675,4.66022857 12.5675,4.70171429 C12.5675,4.7432 12.60875,4.78468571 12.7325,4.86765714 C12.88375,4.96445714 13.02125,5.07508571 13.035,5.324 C13.0625,5.55908571 13.0625,7.89611429 13.0625,8.35245714 C13.07625,8.6152 13.13125,8.97474286 13.32375,9.196 C13.62625,9.5832 13.9975,9.69382857 14.52,9.69382857 C14.75375,9.69382857 15.07,9.59702857 15.33125,9.4864 C15.57875,9.3896 15.9775,9.08537143 16.28,8.8088 C16.3075,8.76731429 16.32125,8.86411429 16.32125,8.9056 C16.32125,9.0024 16.3075,9.30662857 16.3075,9.44491429 C16.3075,9.59702857 16.3075,9.66617143 16.335,9.70765714 C16.3625,9.74914286 16.39,9.76297143 16.5,9.70765714 Z M23.03125,9.72148571 C24.04875,9.72148571 24.68125,9.14068571 24.92875,8.8088 C25.01125,8.712 25.03875,8.64285714 25.03875,8.58754286 C25.03875,8.54605714 24.97,8.55988571 24.9425,8.58754286 C24.46125,9.01622857 24.10375,9.11302857 23.5125,9.11302857 C23.1,9.11302857 22.59125,8.96091429 22.23375,8.62902857 C21.90375,8.33862857 21.54625,7.75782857 21.54625,6.83131429 C21.54625,5.24102857 22.495,4.68788571 23.0725,4.68788571 C23.22375,4.68788571 23.43,4.71554286 23.595,4.79851429 C23.80125,4.90914286 24.145,5.14422857 24.365,5.36548571 C24.4475,5.44845714 24.54375,5.50377143 24.59875,5.50377143 C24.695,5.50377143 24.9425,5.324 24.9425,5.06125714 C24.9425,4.99211429 24.90125,4.88148571 24.75,4.79851429 C24.51625,4.61874286 24.09,4.4528 23.49875,4.4528 C22.605,4.4528 21.89,4.85382857 21.46375,5.25485714 C21.05125,5.64205714 20.625,6.30582857 20.625,7.17702857 C20.625,7.9376 20.8725,8.60137143 21.3125,9.04388571 C21.76625,9.4864 22.4125,9.72148571 23.03125,9.72148571 Z M29.05375,9.72148571 C29.49375,9.72148571 29.92,9.51405714 30.1125,9.12685714 C30.1675,9.0024 30.1125,8.96091429 30.03,9.0024 C29.87875,9.08537143 29.74125,9.12685714 29.63125,9.12685714 C29.24625,9.12685714 29.1225,8.86411429 29.1225,8.60137143 C29.1225,8.24182857 29.16375,6.92811429 29.16375,6.41645714 C29.16375,5.98777143 29.10875,5.4208 28.97125,5.15805714 C28.80625,4.72937143 28.38,4.4528 27.9125,4.4528 C27.67875,4.4528 27.40375,4.53577143 27.0875,4.70171429 C26.8125,4.84 26.35875,5.1304 26.0425,5.50377143 C25.8775,5.69737143 25.78125,5.82182857 25.78125,5.91862857 C25.78125,5.97394286 25.85,6.05691429 25.91875,6.04308571 C26.015,6.02925714 26.4275,5.83565714 26.565,5.73885714 C26.5925,5.7112 26.62,5.66971429 26.62,5.62822857 C26.62,5.53142857 26.62,5.4208 26.63375,5.36548571 C26.66125,5.21337143 26.74375,5.11657143 26.84,5.0336 C27.04625,4.90914286 27.18375,4.86765714 27.39,4.86765714 C27.555,4.86765714 27.78875,4.95062857 27.9675,5.08891429 C28.20125,5.26868571 28.2975,5.65588571 28.2975,6.22285714 C28.2975,6.41645714 28.2975,6.69302857 28.27,6.85897143 C28.27,6.91428571 28.20125,7.03874286 28.09125,7.0664 C27.8025,7.17702857 26.55125,7.5504 26.22125,7.73017143 C26.0975,7.79931429 25.72625,8.07588571 25.72625,8.5184 C25.72625,9.23748571 26.27625,9.70765714 26.82625,9.70765714 C27.34875,9.70765714 27.76125,9.47257143 28.17375,9.08537143 C28.1875,9.07154286 28.22875,9.07154286 28.2425,9.0992 C28.36625,9.41725714 28.66875,9.72148571 29.05375,9.72148571 Z M27.43125,9.18217143 C27.005,9.18217143 26.60625,8.86411429 26.60625,8.40777143 C26.60625,8.00674286 26.785,7.79931429 26.95,7.71634286 C27.23875,7.56422857 28.03625,7.27382857 28.215,7.24617143 C28.2425,7.23234286 28.27,7.30148571 28.27,7.31531429 C28.27,7.8408 28.2425,8.39394286 28.20125,8.62902857 C28.1875,8.78114286 28.105,8.9056 28.05,8.96091429 C27.89875,9.0992 27.665,9.18217143 27.43125,9.18217143 Z M32.73875,9.54171429 C32.73875,9.47257143 32.67,9.44491429 32.505,9.40342857 C32.285,9.33428571 32.12,9.26514286 32.07875,8.96091429 C32.05125,8.76731429 32.01,8.40777143 31.99625,7.50891429 C31.99625,6.6792 31.9825,5.97394286 31.9825,5.808 C31.9825,5.69737143 32.05125,5.48994286 32.1475,5.39314286 C32.505,5.08891429 32.8625,4.95062857 33.22,4.95062857 C33.53625,4.95062857 33.7975,5.04742857 34.00375,5.21337143 C34.3475,5.47611429 34.44375,5.808 34.44375,6.92811429 L34.44375,8.8088 C34.44375,9.20982857 34.38875,9.30662857 34.05875,9.3896 C33.88,9.43108571 33.7975,9.4864 33.7975,9.54171429 C33.7975,9.59702857 33.89375,9.62468571 34.0175,9.62468571 C34.22375,9.62468571 34.4025,9.56937143 34.87,9.56937143 C35.1725,9.56937143 35.57125,9.62468571 35.75,9.62468571 C35.8875,9.62468571 35.9975,9.61085714 35.9975,9.52788571 C35.9975,9.47257143 35.915,9.44491429 35.79125,9.3896 C35.42,9.2928 35.37875,9.20982857 35.365,8.26948571 C35.365,7.57805714 35.35125,7.46742857 35.35125,6.73451429 C35.3375,5.94628571 35.2275,5.25485714 34.91125,4.92297143 C34.7325,4.72937143 34.4025,4.4528 33.83875,4.4528 C33.605,4.4528 33.31625,4.48045714 33.0275,4.61874286 C32.725,4.7432 32.395,4.97828571 32.05125,5.24102857 C32.02375,5.26868571 31.9825,5.2272 31.9825,5.19954286 C31.96875,5.00594286 31.99625,4.63257143 32.01,4.46662857 C32.02375,4.39748571 31.955,4.34217143 31.91375,4.356 C31.68,4.50811429 31.13,4.7432 30.8275,4.82617143 C30.70375,4.86765714 30.635,4.90914286 30.635,4.9368 C30.635,4.97828571 30.6625,5.00594286 30.745,5.06125714 C31.075,5.24102857 31.1025,5.39314286 31.1025,5.53142857 C31.1025,6.65154286 31.1025,7.92377143 31.075,8.91942857 C31.06125,9.196 31.00625,9.2928 30.6625,9.36194286 C30.4975,9.3896 30.37375,9.44491429 30.37375,9.50022857 C30.37375,9.56937143 30.48375,9.59702857 30.635,9.59702857 C30.89625,9.59702857 31.185,9.56937143 31.36375,9.56937143 C31.68,9.56937143 32.35375,9.62468571 32.46375,9.62468571 C32.60125,9.62468571 32.73875,9.62468571 32.73875,9.54171429 Z M40.6175,13.6902857 C41.23625,13.6902857 41.7725,13.5243429 42.28125,13.2339429 C43.0925,12.7914286 43.82125,11.9202286 43.82125,10.9798857 C43.82125,10.5097143 43.67,10.0672 43.35375,9.80445714 C43.0925,9.59702857 42.845,9.44491429 42.28125,9.44491429 C41.89625,9.44491429 41.14,9.4864 40.71375,9.4864 C39.99875,9.4864 39.435,9.34811429 39.435,8.9056 C39.435,8.85028571 39.4625,8.712 39.58625,8.60137143 C39.72375,8.43542857 39.91625,8.228 40.0675,8.14502857 C40.08125,8.1312 40.1775,8.08971429 40.2325,8.10354286 C40.35625,8.1312 40.63125,8.17268571 40.81,8.17268571 C41.03,8.17268571 41.45625,8.11737143 41.8825,7.81314286 C42.3775,7.4536 42.74875,6.776 42.74875,5.94628571 C42.74875,5.69737143 42.72125,5.47611429 42.72125,5.37931429 C42.72125,5.35165714 42.77625,5.29634286 42.80375,5.29634286 C42.955,5.29634286 43.45,5.324 43.6425,5.324 C43.6975,5.324 43.79375,5.21337143 43.79375,5.07508571 C43.79375,4.90914286 43.73875,4.77085714 43.67,4.77085714 C43.46375,4.77085714 42.91375,4.79851429 42.6525,4.79851429 C42.39125,4.79851429 42.28125,4.78468571 42.17125,4.72937143 C42.03375,4.6464 41.4425,4.36982857 40.76875,4.36982857 C40.26,4.36982857 39.71,4.5496 39.31125,4.9368 C38.9675,5.25485714 38.73375,5.64205714 38.73375,6.26434286 C38.73375,7.10788571 39.325,7.71634286 39.7925,7.99291429 C39.82,8.00674286 39.83375,8.06205714 39.82,8.07588571 C39.6275,8.33862857 39.05,8.85028571 38.67875,9.0992 C38.65125,9.11302857 38.59625,9.16834286 38.59625,9.23748571 C38.59625,9.79062857 39.325,10.2746286 39.71,10.3576 C39.75125,10.3714286 39.7375,10.4544 39.72375,10.4820571 C39.44875,10.7862857 38.94,11.4362286 38.84375,11.5468571 C38.73375,11.6713143 38.59625,11.8649143 38.59625,12.1414857 C38.59625,13.1648 39.5175,13.6902857 40.6175,13.6902857 Z M40.90625,7.96525714 C40.52125,7.96525714 40.26,7.78548571 40.05375,7.56422857 C39.8475,7.32914286 39.6275,6.73451429 39.6275,6.08457143 C39.6275,5.65588571 39.75125,5.1304 39.99875,4.86765714 C40.205,4.67405714 40.43875,4.5496 40.7,4.5496 C41.085,4.5496 41.2775,4.71554286 41.525,5.01977143 C41.8275,5.39314286 41.95125,5.96011429 41.95125,6.56857143 C41.95125,7.20468571 41.53875,7.96525714 40.90625,7.96525714 Z M41.18125,13.2201143 C40.52125,13.2201143 40.2325,13.068 39.875,12.8052571 C39.47625,12.5010286 39.33875,12.0170286 39.33875,11.7542857 C39.33875,11.2564571 39.64125,10.7724571 39.93,10.5235429 C39.985,10.4820571 40.08125,10.4267429 40.3975,10.3990857 C40.76875,10.3852571 41.4425,10.3714286 41.965,10.3714286 C42.845,10.3714286 43.2025,10.8830857 43.2025,11.4638857 C43.2025,12.0446857 42.845,12.6254857 42.46,12.8882286 C42.02,13.2062857 41.4975,13.2201143 41.18125,13.2201143 Z M46.48875,9.72148571 C47.2725,9.72148571 47.85,9.44491429 48.4,8.85028571 C48.4825,8.75348571 48.5375,8.67051429 48.5375,8.62902857 C48.5375,8.55988571 48.4825,8.53222857 48.3725,8.64285714 C48.0425,8.96091429 47.63,9.08537143 47.06625,9.08537143 C46.6125,9.08537143 46.0625,8.93325714 45.69125,8.5184 C45.33375,8.11737143 45.05875,7.5504 45.05875,6.84514286 C45.05875,6.45794286 45.1,6.25051429 45.16875,6.08457143 C45.19625,6.04308571 45.265,5.97394286 45.2925,5.97394286 L46.035,5.97394286 C46.35125,5.97394286 48.13875,6.0016 48.24875,6.01542857 C48.3175,6.01542857 48.38625,5.93245714 48.38625,5.86331429 C48.38625,5.01977143 47.52,4.4528 46.70875,4.4528 C45.99375,4.4528 45.36125,4.78468571 44.99,5.14422857 C44.4125,5.7112 44.1925,6.52708571 44.1925,7.1632 C44.1925,7.90994286 44.44,8.57371429 44.8525,9.01622857 C45.265,9.45874286 45.8425,9.72148571 46.48875,9.72148571 Z M45.3475,5.78034286 C45.32,5.78034286 45.2925,5.75268571 45.2925,5.72502857 C45.2925,5.6144 45.41625,5.35165714 45.58125,5.15805714 C45.88375,4.84 46.2275,4.6464 46.585,4.6464 C46.90125,4.6464 47.135,4.77085714 47.2725,4.90914286 C47.42375,5.07508571 47.465,5.324 47.465,5.48994286 C47.465,5.6144 47.4375,5.76651429 47.135,5.76651429 L45.3475,5.78034286 Z M50.985,9.69382857 C51.37,9.69382857 51.79625,9.56937143 52.09875,9.33428571 C52.2775,9.196 52.40125,9.05771429 52.40125,8.97474286 C52.40125,8.91942857 52.36,8.9056 52.26375,8.97474286 C52.14,9.05771429 51.8925,9.18217143 51.5075,9.18217143 C51.15,9.18217143 50.86125,9.07154286 50.655,8.8088 C50.55875,8.67051429 50.53125,8.50457143 50.50375,8.06205714 C50.49,7.63337143 50.47625,5.46228571 50.47625,5.2272 C50.47625,5.14422857 50.50375,5.10274286 50.66875,5.10274286 C51.04,5.10274286 51.71375,5.11657143 52.195,5.11657143 C52.26375,5.11657143 52.3325,5.00594286 52.3325,4.77085714 C52.3325,4.67405714 52.2775,4.57725714 52.25,4.57725714 C51.96125,4.57725714 50.82,4.61874286 50.5725,4.61874286 C50.5175,4.61874286 50.50375,4.53577143 50.50375,4.49428571 C50.49,4.32834286 50.5175,3.94114286 50.5175,3.81668571 C50.5175,3.74754286 50.42125,3.71988571 50.2975,3.85817143 C49.9675,4.28685714 49.51375,4.66022857 49.17,4.78468571 C49.01875,4.85382857 49.005,4.89531429 49.005,4.92297143 C49.005,4.97828571 49.07375,5.01977143 49.18375,5.04742857 C49.3075,5.07508571 49.45875,5.10274286 49.51375,5.1304 C49.56875,5.15805714 49.5825,5.25485714 49.5825,5.40697143 L49.5825,8.26948571 C49.5825,8.60137143 49.6375,8.87794286 49.7475,9.05771429 C49.98125,9.50022857 50.4075,9.69382857 50.985,9.69382857 Z M56.74625,9.69382857 C57.13125,9.69382857 57.5575,9.56937143 57.86,9.33428571 C58.03875,9.196 58.1625,9.05771429 58.1625,8.97474286 C58.1625,8.91942857 58.12125,8.9056 58.025,8.97474286 C57.90125,9.05771429 57.65375,9.18217143 57.26875,9.18217143 C56.91125,9.18217143 56.6225,9.07154286 56.41625,8.8088 C56.32,8.67051429 56.2925,8.50457143 56.265,8.06205714 C56.25125,7.63337143 56.2375,5.46228571 56.2375,5.2272 C56.2375,5.14422857 56.265,5.10274286 56.43,5.10274286 C56.80125,5.10274286 57.475,5.11657143 57.95625,5.11657143 C58.025,5.11657143 58.09375,5.00594286 58.09375,4.77085714 C58.09375,4.67405714 58.03875,4.57725714 58.01125,4.57725714 C57.7225,4.57725714 56.58125,4.61874286 56.33375,4.61874286 C56.27875,4.61874286 56.265,4.53577143 56.265,4.49428571 C56.25125,4.32834286 56.27875,3.94114286 56.27875,3.81668571 C56.27875,3.74754286 56.1825,3.71988571 56.05875,3.85817143 C55.72875,4.28685714 55.275,4.66022857 54.93125,4.78468571 C54.78,4.85382857 54.76625,4.89531429 54.76625,4.92297143 C54.76625,4.97828571 54.835,5.01977143 54.945,5.04742857 C55.06875,5.07508571 55.22,5.10274286 55.275,5.1304 C55.33,5.15805714 55.34375,5.25485714 55.34375,5.40697143 L55.34375,8.26948571 C55.34375,8.60137143 55.39875,8.87794286 55.50875,9.05771429 C55.7425,9.50022857 56.16875,9.69382857 56.74625,9.69382857 Z M63.855,9.63851429 C63.97875,9.63851429 64.075,9.59702857 64.075,9.54171429 C64.075,9.4864 64.03375,9.45874286 63.855,9.41725714 C63.4425,9.34811429 63.3875,9.25131429 63.3875,8.97474286 C63.37375,8.44925714 63.37375,7.59188571 63.36,6.55474286 C63.34625,5.68354286 63.195,5.25485714 63.0575,5.07508571 C62.7275,4.60491429 62.24625,4.4528 61.82,4.4528 C61.44875,4.4528 61.09125,4.56342857 60.8575,4.68788571 C60.5825,4.82617143 60.1975,5.10274286 60.0325,5.25485714 C60.01875,5.28251429 59.9775,5.26868571 59.9775,5.21337143 C59.96375,4.95062857 60.01875,0.663771429 60.0325,0.2904 C60.04625,0.0968 60.005,-1.83117014e-13 59.96375,-1.83117014e-13 C59.93625,-1.83117014e-13 59.895,0.0138285714 59.82625,0.0553142857 C59.565,0.1936 59.24875,0.262742857 58.8225,0.3872 C58.67125,0.428685714 58.58875,0.470171429 58.58875,0.511657143 C58.58875,0.553142857 58.63,0.5808 58.685,0.622285714 C58.9875,0.788228571 59.08375,0.829714286 59.0975,1.27222857 C59.125,1.79771429 59.0975,2.64125714 59.0975,4.72937143 C59.0975,6.92811429 59.08375,8.20034286 59.0425,8.75348571 C59.02875,9.27897143 58.9325,9.32045714 58.53375,9.41725714 C58.36875,9.45874286 58.31375,9.4864 58.31375,9.54171429 C58.31375,9.59702857 58.3825,9.62468571 58.53375,9.62468571 C58.795,9.62468571 59.00125,9.56937143 59.4275,9.56937143 C59.82625,9.56937143 60.18375,9.62468571 60.56875,9.62468571 C60.6925,9.62468571 60.775,9.5832 60.775,9.54171429 C60.775,9.47257143 60.67875,9.44491429 60.4725,9.40342857 C60.17,9.34811429 60.07375,9.18217143 60.0325,8.93325714 C60.005,8.69817143 59.95,8.0344 59.96375,5.96011429 C59.96375,5.66971429 60.0325,5.50377143 60.10125,5.44845714 C60.32125,5.21337143 60.73375,4.9368 61.31125,4.9368 C61.77875,4.9368 62.08125,5.14422857 62.26,5.44845714 C62.425,5.75268571 62.46625,6.13988571 62.46625,6.4856 C62.46625,7.92377143 62.43875,8.53222857 62.41125,8.85028571 C62.35625,9.25131429 62.32875,9.34811429 61.9575,9.43108571 C61.82,9.45874286 61.75125,9.4864 61.75125,9.54171429 C61.75125,9.5832 61.80625,9.62468571 61.97125,9.62468571 C62.2875,9.62468571 62.3975,9.56937143 62.865,9.56937143 C63.23625,9.56937143 63.4975,9.63851429 63.855,9.63851429 Z M66.99,9.72148571 C67.77375,9.72148571 68.35125,9.44491429 68.90125,8.85028571 C68.98375,8.75348571 69.03875,8.67051429 69.03875,8.62902857 C69.03875,8.55988571 68.98375,8.53222857 68.87375,8.64285714 C68.54375,8.96091429 68.13125,9.08537143 67.5675,9.08537143 C67.11375,9.08537143 66.56375,8.93325714 66.1925,8.5184 C65.835,8.11737143 65.56,7.5504 65.56,6.84514286 C65.56,6.45794286 65.60125,6.25051429 65.67,6.08457143 C65.6975,6.04308571 65.76625,5.97394286 65.79375,5.97394286 L66.53625,5.97394286 C66.8525,5.97394286 68.64,6.0016 68.75,6.01542857 C68.81875,6.01542857 68.8875,5.93245714 68.8875,5.86331429 C68.8875,5.01977143 68.02125,4.4528 67.21,4.4528 C66.495,4.4528 65.8625,4.78468571 65.49125,5.14422857 C64.91375,5.7112 64.69375,6.52708571 64.69375,7.1632 C64.69375,7.90994286 64.94125,8.57371429 65.35375,9.01622857 C65.76625,9.45874286 66.34375,9.72148571 66.99,9.72148571 Z M65.84875,5.78034286 C65.82125,5.78034286 65.79375,5.75268571 65.79375,5.72502857 C65.79375,5.6144 65.9175,5.35165714 66.0825,5.15805714 C66.385,4.84 66.72875,4.6464 67.08625,4.6464 C67.4025,4.6464 67.63625,4.77085714 67.77375,4.90914286 C67.925,5.07508571 67.96625,5.324 67.96625,5.48994286 C67.96625,5.6144 67.93875,5.76651429 67.63625,5.76651429 L65.84875,5.78034286 Z M73.0125,9.73531429 C73.3425,9.73531429 73.81,9.62468571 74.1125,9.43108571 C74.3875,9.25131429 74.8275,8.87794286 74.8275,8.26948571 C74.8275,7.56422857 74.47,7.21851429 73.57625,6.63771429 C73.2325,6.43028571 72.71,6.0984 72.71,5.5176 C72.71,4.96445714 73.095,4.66022857 73.535,4.66022857 C73.79625,4.66022857 74.03,4.75702857 74.18125,4.86765714 C74.3875,5.0336 74.4425,5.2272 74.51125,5.43462857 C74.5525,5.53142857 74.58,5.60057143 74.635,5.60057143 C74.67625,5.60057143 74.70375,5.53142857 74.70375,5.37931429 C74.69,5.15805714 74.635,4.88148571 74.62125,4.72937143 C74.62125,4.68788571 74.58,4.63257143 74.5525,4.60491429 C74.3875,4.5496 73.98875,4.4528 73.6175,4.4528 C73.095,4.4528 72.71,4.63257143 72.4625,4.84 C72.16,5.06125714 71.94,5.43462857 71.94,5.93245714 C71.94,6.54091429 72.49,7.05257143 73.08125,7.43977143 C73.63125,7.78548571 73.98875,8.07588571 73.98875,8.60137143 C73.98875,9.16834286 73.48,9.52788571 73.095,9.52788571 C72.88875,9.52788571 72.6825,9.50022857 72.47625,9.36194286 C72.22875,9.20982857 72.00875,8.96091429 71.89875,8.6152 C71.8025,8.35245714 71.76125,8.35245714 71.72,8.35245714 C71.6925,8.35245714 71.65125,8.39394286 71.67875,8.57371429 C71.6925,8.72582857 71.72,9.07154286 71.72,9.26514286 C71.72,9.34811429 71.81625,9.44491429 71.92625,9.4864 C72.33875,9.65234286 72.655,9.73531429 73.0125,9.73531429 Z M77.495,9.69382857 C77.88,9.69382857 78.30625,9.56937143 78.60875,9.33428571 C78.7875,9.196 78.91125,9.05771429 78.91125,8.97474286 C78.91125,8.91942857 78.87,8.9056 78.77375,8.97474286 C78.65,9.05771429 78.4025,9.18217143 78.0175,9.18217143 C77.66,9.18217143 77.37125,9.07154286 77.165,8.8088 C77.06875,8.67051429 77.04125,8.50457143 77.01375,8.06205714 C77,7.63337143 76.98625,5.46228571 76.98625,5.2272 C76.98625,5.14422857 77.01375,5.10274286 77.17875,5.10274286 C77.55,5.10274286 78.22375,5.11657143 78.705,5.11657143 C78.77375,5.11657143 78.8425,5.00594286 78.8425,4.77085714 C78.8425,4.67405714 78.7875,4.57725714 78.76,4.57725714 C78.47125,4.57725714 77.33,4.61874286 77.0825,4.61874286 C77.0275,4.61874286 77.01375,4.53577143 77.01375,4.49428571 C77,4.32834286 77.0275,3.94114286 77.0275,3.81668571 C77.0275,3.74754286 76.93125,3.71988571 76.8075,3.85817143 C76.4775,4.28685714 76.02375,4.66022857 75.68,4.78468571 C75.52875,4.85382857 75.515,4.89531429 75.515,4.92297143 C75.515,4.97828571 75.58375,5.01977143 75.69375,5.04742857 C75.8175,5.07508571 75.96875,5.10274286 76.02375,5.1304 C76.07875,5.15805714 76.0925,5.25485714 76.0925,5.40697143 L76.0925,8.26948571 C76.0925,8.60137143 76.1475,8.87794286 76.2575,9.05771429 C76.49125,9.50022857 76.9175,9.69382857 77.495,9.69382857 Z M81.895,9.73531429 C82.39,9.73531429 83.0225,9.54171429 83.44875,9.20982857 C83.88875,8.86411429 84.5075,8.11737143 84.5075,7.0664 C84.5075,5.60057143 83.36625,4.4528 81.8675,4.4528 C81.2075,4.4528 80.58875,4.7432 80.2175,5.0336 C79.70875,5.44845714 79.2275,6.12605714 79.2275,7.17702857 C79.2275,8.6152 80.47875,9.73531429 81.895,9.73531429 Z M82.0875,9.50022857 C81.66125,9.50022857 81.16625,9.27897143 80.795,8.76731429 C80.355,8.18651429 80.2175,7.4536 80.2175,6.8728 C80.2175,5.43462857 80.96,4.68788571 81.66125,4.68788571 C82.87125,4.68788571 83.53125,5.98777143 83.53125,7.30148571 C83.53125,8.29714286 83.16,8.96091429 82.95375,9.15451429 C82.73375,9.34811429 82.4175,9.50022857 82.0875,9.50022857 Z M85.415,9.65234286 C85.6075,9.65234286 85.75875,9.56937143 86.25375,9.56937143 C86.83125,9.56937143 87.285,9.62468571 87.54625,9.62468571 C87.7525,9.62468571 87.87625,9.59702857 87.87625,9.52788571 C87.87625,9.45874286 87.8075,9.43108571 87.615,9.40342857 C87.0925,9.34811429 86.9275,9.25131429 86.8725,8.82262857 C86.845,8.53222857 86.8175,7.81314286 86.8175,6.78982857 C86.8175,6.51325714 86.80375,6.11222857 86.83125,5.94628571 C86.845,5.78034286 86.91375,5.62822857 87.065,5.46228571 C87.24375,5.29634286 87.46375,5.18571429 87.67,5.18571429 C87.82125,5.18571429 88,5.25485714 88.15125,5.35165714 C88.3025,5.43462857 88.37125,5.44845714 88.39875,5.44845714 C88.44,5.44845714 88.495,5.43462857 88.61875,5.324 C88.78375,5.17188571 88.92125,4.95062857 88.92125,4.85382857 C88.92125,4.78468571 88.89375,4.71554286 88.825,4.66022857 C88.6875,4.5496 88.50875,4.48045714 88.34375,4.48045714 C87.79375,4.48045714 87.24375,4.99211429 86.85875,5.47611429 C86.8175,5.5176 86.79,5.50377143 86.79,5.46228571 C86.79,5.24102857 86.80375,4.71554286 86.80375,4.56342857 C86.80375,4.42514286 86.77625,4.36982857 86.74875,4.36982857 C86.7075,4.36982857 86.63875,4.38365714 86.5425,4.43897143 C86.3225,4.56342857 85.9375,4.70171429 85.6625,4.77085714 C85.53875,4.81234286 85.45625,4.86765714 85.45625,4.89531429 C85.45625,4.92297143 85.47,4.96445714 85.56625,5.0336 C85.8275,5.25485714 85.92375,5.29634286 85.92375,5.39314286 L85.92375,6.92811429 C85.92375,7.8408 85.91,8.62902857 85.8825,8.86411429 C85.8275,9.23748571 85.67625,9.36194286 85.3875,9.43108571 C85.2775,9.45874286 85.18125,9.52788571 85.18125,9.56937143 C85.18125,9.62468571 85.25,9.65234286 85.415,9.65234286 Z M90.2825,13.4413714 C90.43375,13.4413714 90.59875,13.3998857 90.73625,13.2062857 C90.8325,13.0818286 90.90125,12.9435429 90.9975,12.6946286 C91.19,12.2244571 91.7125,10.7862857 92.0425,9.98422857 C92.33125,9.23748571 92.455,8.91942857 92.62,8.46308571 C92.82625,7.9376 93.67875,5.808 93.84375,5.46228571 C94.06375,4.95062857 94.20125,4.85382857 94.47625,4.77085714 C94.61375,4.72937143 94.66875,4.67405714 94.66875,4.63257143 C94.66875,4.59108571 94.58625,4.57725714 94.50375,4.57725714 C94.2975,4.57725714 94.11875,4.61874286 93.87125,4.61874286 C93.665,4.61874286 93.37625,4.57725714 93.21125,4.57725714 C93.0875,4.57725714 93.01875,4.60491429 93.01875,4.66022857 C93.01875,4.70171429 93.06,4.7432 93.26625,4.78468571 C93.5,4.85382857 93.56875,4.96445714 93.56875,5.06125714 C93.56875,5.1304 93.56875,5.29634286 93.5,5.46228571 C93.39,5.78034286 92.62,7.77165714 92.44125,8.24182857 C92.4275,8.28331429 92.38625,8.29714286 92.35875,8.24182857 C92.08375,7.66102857 91.3275,5.79417143 91.14875,5.31017143 C91.025,4.95062857 91.0525,4.88148571 91.355,4.78468571 C91.4375,4.77085714 91.53375,4.72937143 91.53375,4.67405714 C91.53375,4.61874286 91.4375,4.57725714 91.3,4.57725714 C91.12125,4.57725714 90.76375,4.61874286 90.57125,4.61874286 C90.24125,4.61874286 89.85625,4.56342857 89.60875,4.56342857 C89.5125,4.56342857 89.38875,4.59108571 89.38875,4.66022857 C89.38875,4.70171429 89.47125,4.75702857 89.63625,4.79851429 C89.87,4.85382857 90.035,4.99211429 90.13125,5.17188571 C90.75,6.52708571 91.63,8.76731429 91.83625,9.30662857 C91.8775,9.43108571 91.905,9.56937143 91.85,9.74914286 C91.3825,10.9522286 90.98375,12.0861714 90.84625,12.3765714 C90.76375,12.5701714 90.65375,12.6116571 90.48875,12.6116571 C90.3925,12.6116571 90.31,12.584 90.21375,12.584 C90.0075,12.584 89.82875,12.7776 89.82875,12.9850286 C89.82875,13.2616 90.0625,13.4413714 90.2825,13.4413714 Z M3.135,24.8210286 C3.63,24.8210286 4.2625,24.6274286 4.68875,24.2955429 C5.12875,23.9498286 5.7475,23.2030857 5.7475,22.1521143 C5.7475,20.6862857 4.60625,19.5385143 3.1075,19.5385143 C2.4475,19.5385143 1.82875,19.8289143 1.4575,20.1193143 C0.94875,20.5341714 0.4675,21.2117714 0.4675,22.2627429 C0.4675,23.7009143 1.71875,24.8210286 3.135,24.8210286 Z M3.3275,24.5859429 C2.90125,24.5859429 2.40625,24.3646857 2.035,23.8530286 C1.595,23.2722286 1.4575,22.5393143 1.4575,21.9585143 C1.4575,20.5203429 2.2,19.7736 2.90125,19.7736 C4.11125,19.7736 4.77125,21.0734857 4.77125,22.3872 C4.77125,23.3828571 4.4,24.0466286 4.19375,24.2402286 C3.97375,24.4338286 3.6575,24.5859429 3.3275,24.5859429 Z M6.69625,24.7104 C6.93,24.6965714 7.2325,24.6550857 7.54875,24.6550857 C8.25,24.6550857 8.47,24.6965714 8.86875,24.6965714 C8.9925,24.6965714 9.08875,24.6689143 9.08875,24.5997714 C9.08875,24.5444571 9.00625,24.5168 8.84125,24.4753143 C8.6625,24.4338286 8.51125,24.4338286 8.40125,24.3923429 C8.26375,24.3508571 8.15375,24.2402286 8.1125,23.7147429 C8.09875,23.3137143 8.07125,20.7969143 8.07125,20.2852571 C8.07125,20.2714286 8.09875,20.1608 8.14,20.1608 C8.3325,20.1608 9.3225,20.1884571 9.5425,20.1884571 C9.7075,20.1884571 9.735,20.1331429 9.735,19.9395429 C9.735,19.7736 9.68,19.6906286 9.625,19.6906286 C9.47375,19.6906286 8.305,19.7182857 8.18125,19.7182857 C8.1125,19.7182857 8.07125,19.6629714 8.07125,19.6353143 C8.0575,19.5523429 8.0575,19.3449143 8.0575,19.1928 C8.0575,18.7641143 8.085,17.7822857 8.12625,17.3536 C8.26375,15.8739429 8.745,15.4729143 9.36375,15.4729143 C9.85875,15.4729143 10.1475,15.8186286 10.34,15.9430857 C10.395,15.9984 10.5325,16.0260571 10.615,15.9707429 C10.7525,15.9016 10.95875,15.6803429 10.95875,15.5144 C10.95875,15.3069714 10.5875,15.0718857 10.02375,15.0718857 C9.6525,15.0718857 9.19875,15.1686857 8.78625,15.4452571 C8.07125,15.8739429 7.63125,16.5377143 7.3975,17.2844571 C7.2325,17.8376 7.1775,18.5843429 7.16375,19.5523429 C7.16375,19.5938286 7.1225,19.6906286 7.02625,19.7459429 L6.69625,19.9533714 C6.6,20.0086857 6.53125,20.0501714 6.53125,20.0916571 C6.53125,20.1193143 6.61375,20.1884571 6.71,20.2022857 C6.875,20.2161143 7.02625,20.2161143 7.095,20.2161143 C7.15,20.2299429 7.16375,20.2990857 7.16375,20.3958857 L7.16375,23.7147429 C7.16375,24.2125714 7.095,24.4061714 6.765,24.4891429 C6.58625,24.5306286 6.49,24.5721143 6.49,24.6274286 C6.49,24.6827429 6.5725,24.7104 6.69625,24.7104 Z M17.5175,24.7518857 C17.61375,24.7518857 17.7375,24.7242286 17.80625,24.6136 C17.86125,24.5168 18.1225,23.7562286 18.16375,23.6456 C18.2325,23.4658286 18.24625,23.2584 18.19125,23.2584 C18.13625,23.2584 18.0675,23.3137143 17.97125,23.4796571 C17.69625,23.9774857 17.39375,24.3232 17.09125,24.3785143 C16.8575,24.4338286 16.5,24.4476571 15.88125,24.4476571 C14.7675,24.4476571 14.39625,24.3093714 14.245,24.1019429 C14.12125,23.9498286 14.09375,23.5626286 14.0525,23.0094857 C14.03875,22.7467429 14.025,21.3638857 14.025,20.0501714 C14.025,18.7917714 14.03875,17.5195429 14.0525,17.2844571 C14.09375,16.3302857 14.12125,16.2473143 14.685,16.1366857 C14.795,16.1090286 14.8775,16.0675429 14.8775,15.9984 C14.8775,15.9569143 14.8225,15.9292571 14.6575,15.9292571 C14.34125,15.9292571 13.95625,15.9845714 13.53,15.9845714 C13.15875,15.9845714 12.71875,15.9154286 12.2925,15.9154286 C12.155,15.9154286 12.0725,15.9569143 12.0725,15.9984 C12.0725,16.0537143 12.11375,16.0952 12.27875,16.1228571 C12.87,16.2334857 12.91125,16.3164571 12.9525,17.1046857 C12.9765625,17.5160857 12.9900977,18.2980482 12.9931055,19.7470232 L12.9928906,21.664225 C12.9903125,22.7519286 12.98,23.3690286 12.93875,23.7838857 C12.8975,24.2125714 12.815,24.4061714 12.22375,24.5168 C12.1,24.5306286 11.97625,24.5721143 11.97625,24.6274286 C11.97625,24.7104 12.1,24.7242286 12.265,24.7242286 C12.4575,24.7242286 13.07625,24.6550857 13.5025,24.6550857 C13.98375,24.6550857 14.97375,24.6965714 15.66125,24.7242286 C16.335,24.7657143 17.38,24.7518857 17.5175,24.7518857 Z M22.28875,24.8072 C22.72875,24.8072 23.155,24.5997714 23.3475,24.2125714 C23.4025,24.0881143 23.3475,24.0466286 23.265,24.0881143 C23.11375,24.1710857 22.97625,24.2125714 22.86625,24.2125714 C22.48125,24.2125714 22.3575,23.9498286 22.3575,23.6870857 C22.3575,23.3275429 22.39875,22.0138286 22.39875,21.5021714 C22.39875,21.0734857 22.34375,20.5065143 22.20625,20.2437714 C22.04125,19.8150857 21.615,19.5385143 21.1475,19.5385143 C20.91375,19.5385143 20.63875,19.6214857 20.3225,19.7874286 C20.0475,19.9257143 19.59375,20.2161143 19.2775,20.5894857 C19.1125,20.7830857 19.01625,20.9075429 19.01625,21.0043429 C19.01625,21.0596571 19.085,21.1426286 19.15375,21.1288 C19.25,21.1149714 19.6625,20.9213714 19.8,20.8245714 C19.8275,20.7969143 19.855,20.7554286 19.855,20.7139429 C19.855,20.6171429 19.855,20.5065143 19.86875,20.4512 C19.89625,20.2990857 19.97875,20.2022857 20.075,20.1193143 C20.28125,19.9948571 20.41875,19.9533714 20.625,19.9533714 C20.79,19.9533714 21.02375,20.0363429 21.2025,20.1746286 C21.43625,20.3544 21.5325,20.7416 21.5325,21.3085714 C21.5325,21.5021714 21.5325,21.7787429 21.505,21.9446857 C21.505,22 21.43625,22.1244571 21.32625,22.1521143 C21.0375,22.2627429 19.78625,22.6361143 19.45625,22.8158857 C19.3325,22.8850286 18.96125,23.1616 18.96125,23.6041143 C18.96125,24.3232 19.51125,24.7933714 20.06125,24.7933714 C20.58375,24.7933714 20.99625,24.5582857 21.40875,24.1710857 C21.4225,24.1572571 21.46375,24.1572571 21.4775,24.1849143 C21.60125,24.5029714 21.90375,24.8072 22.28875,24.8072 Z M20.66625,24.2678857 C20.24,24.2678857 19.84125,23.9498286 19.84125,23.4934857 C19.84125,23.0924571 20.02,22.8850286 20.185,22.8020571 C20.47375,22.6499429 21.27125,22.3595429 21.45,22.3318857 C21.4775,22.3180571 21.505,22.3872 21.505,22.4010286 C21.505,22.9265143 21.4775,23.4796571 21.43625,23.7147429 C21.4225,23.8668571 21.34,23.9913143 21.285,24.0466286 C21.13375,24.1849143 20.9,24.2678857 20.66625,24.2678857 Z M35.915,24.7380571 C36.08,24.7380571 36.1625,24.7104 36.1625,24.6550857 C36.1625,24.5997714 36.1009,24.5621577 36.0129,24.5280841 L35.9425,24.5029714 C35.40625,24.3370286 35.255,24.2125714 35.2,23.4105143 C35.1725,22.968 35.1175,21.5989714 35.1175,20.0916571 C35.1175,19.4002286 35.13125,17.7408 35.15875,17.2706286 C35.2,16.4547429 35.255,16.3026286 36.06625,16.1090286 C36.1625,16.0952 36.2725,16.0398857 36.2725,15.9845714 C36.2725,15.9292571 36.19,15.9016 36.0525,15.9016 C35.6675,15.9016 34.93875,15.9845714 34.55375,15.9845714 C34.485,15.9845714 34.43,16.1366857 34.41625,16.1643429 C34.33375,16.4409143 34.155,16.9387429 34.00375,17.2844571 C33.67375,17.9620571 31.9275,21.3777143 31.11625,22.9403429 C31.06125,23.0233143 31.03375,23.0786286 30.9925,22.9956571 C30.12625,21.3638857 28.1875,17.4918857 27.59625,16.1781714 C27.54125,16.0398857 27.4725,15.9845714 27.4175,15.9845714 C26.9775,15.9845714 26.13875,15.9292571 25.8225,15.9154286 C25.69875,15.9154286 25.575,15.9430857 25.575,15.9984 C25.575,16.0537143 25.67125,16.0952 25.795,16.1228571 C26.05625,16.192 26.30375,16.2196571 26.55125,16.4962286 C26.785,16.7728 26.8675,16.9664 26.8675,17.7961143 C26.8675,18.6811429 26.675,21.7510857 26.5925,22.5669714 C26.51,23.4243429 26.44125,23.8530286 26.30375,24.0604571 C26.1525,24.2678857 25.9875,24.42 25.56125,24.5029714 C25.36875,24.5444571 25.31375,24.5997714 25.31375,24.6412571 C25.31375,24.7104 25.3825,24.7380571 25.56125,24.7380571 C25.69875,24.7380571 26.07,24.6550857 26.565,24.6550857 C27.06,24.6550857 27.555,24.7104 27.72,24.7242286 C27.87125,24.7380571 27.995,24.7104 27.995,24.6274286 C27.995,24.5721143 27.9125,24.5168 27.76125,24.4891429 C27.445,24.42 27.12875,24.2678857 27.06,23.936 C26.9775,23.6594286 26.9775,23.3828571 26.9775,22.9265143 C26.9775,22.3595429 27.12875,18.7641143 27.18375,17.9620571 C27.21125,17.7822857 27.23875,17.7822857 27.3075,17.8929143 C27.83,18.9715429 29.65875,22.8158857 30.305,24.2125714 C30.42875,24.4753143 30.525,24.6965714 30.59375,24.6965714 C30.67625,24.6965714 30.73125,24.6136 30.8,24.4476571 C31.46,22.968 33.15125,19.6491429 34.0725,17.7961143 C34.1,17.7131429 34.14125,17.7131429 34.14125,17.8514286 L34.1401363,19.0809407 C34.1375375,20.4310103 34.128875,22.4037943 34.1,22.9265143 C34.05875,24.0742857 33.9625,24.2955429 33.385,24.4476571 C33.2475,24.4614857 33.11,24.5168 33.11,24.5721143 C33.11,24.6689143 33.26125,24.6827429 33.39875,24.6827429 C33.605,24.6827429 33.97625,24.6550857 34.54,24.6550857 C34.91125,24.6550857 35.65375,24.7380571 35.915,24.7380571 Z M39.05,24.8072 C39.83375,24.8072 40.41125,24.5306286 40.96125,23.936 C41.04375,23.8392 41.09875,23.7562286 41.09875,23.7147429 C41.09875,23.6456 41.04375,23.6179429 40.93375,23.7285714 C40.60375,24.0466286 40.19125,24.1710857 39.6275,24.1710857 C39.17375,24.1710857 38.62375,24.0189714 38.2525,23.6041143 C37.895,23.2030857 37.62,22.6361143 37.62,21.9308571 C37.62,21.5436571 37.66125,21.3362286 37.73,21.1702857 C37.7575,21.1288 37.82625,21.0596571 37.85375,21.0596571 L38.59625,21.0596571 C38.9125,21.0596571 40.7,21.0873143 40.81,21.1011429 C40.87875,21.1011429 40.9475,21.0181714 40.9475,20.9490286 C40.9475,20.1054857 40.08125,19.5385143 39.27,19.5385143 C38.555,19.5385143 37.9225,19.8704 37.55125,20.2299429 C36.97375,20.7969143 36.75375,21.6128 36.75375,22.2489143 C36.75375,22.9956571 37.00125,23.6594286 37.41375,24.1019429 C37.82625,24.5444571 38.40375,24.8072 39.05,24.8072 Z M37.90875,20.8660571 C37.88125,20.8660571 37.85375,20.8384 37.85375,20.8107429 C37.85375,20.7001143 37.9775,20.4373714 38.1425,20.2437714 C38.445,19.9257143 38.78875,19.7321143 39.14625,19.7321143 C39.4625,19.7321143 39.69625,19.8565714 39.83375,19.9948571 C39.985,20.1608 40.02625,20.4097143 40.02625,20.5756571 C40.02625,20.7001143 39.99875,20.8522286 39.69625,20.8522286 L37.90875,20.8660571 Z M41.7175,24.7380571 C41.91,24.7380571 42.06125,24.6550857 42.55625,24.6550857 C43.13375,24.6550857 43.5875,24.7104 43.84875,24.7104 C44.055,24.7104 44.17875,24.6827429 44.17875,24.6136 C44.17875,24.5444571 44.11,24.5168 43.9175,24.4891429 C43.395,24.4338286 43.23,24.3370286 43.175,23.9083429 C43.1475,23.6179429 43.12,22.8988571 43.12,21.8755429 C43.12,21.5989714 43.10625,21.1979429 43.13375,21.032 C43.1475,20.8660571 43.21625,20.7139429 43.3675,20.548 C43.54625,20.3820571 43.76625,20.2714286 43.9725,20.2714286 C44.12375,20.2714286 44.3025,20.3405714 44.45375,20.4373714 C44.605,20.5203429 44.67375,20.5341714 44.70125,20.5341714 C44.7425,20.5341714 44.7975,20.5203429 44.92125,20.4097143 C45.08625,20.2576 45.22375,20.0363429 45.22375,19.9395429 C45.22375,19.8704 45.19625,19.8012571 45.1275,19.7459429 C44.99,19.6353143 44.81125,19.5661714 44.64625,19.5661714 C44.09625,19.5661714 43.54625,20.0778286 43.16125,20.5618286 C43.12,20.6033143 43.0925,20.5894857 43.0925,20.548 C43.0925,20.3267429 43.10625,19.8012571 43.10625,19.6491429 C43.10625,19.5108571 43.07875,19.4555429 43.05125,19.4555429 C43.01,19.4555429 42.94125,19.4693714 42.845,19.5246857 C42.625,19.6491429 42.24,19.7874286 41.965,19.8565714 C41.84125,19.8980571 41.75875,19.9533714 41.75875,19.9810286 C41.75875,20.0086857 41.7725,20.0501714 41.86875,20.1193143 C42.13,20.3405714 42.22625,20.3820571 42.22625,20.4788571 L42.22625,22.0138286 C42.22625,22.9265143 42.2125,23.7147429 42.185,23.9498286 C42.13,24.3232 41.97875,24.4476571 41.69,24.5168 C41.58,24.5444571 41.48375,24.6136 41.48375,24.6550857 C41.48375,24.7104 41.5525,24.7380571 41.7175,24.7380571 Z M47.905,24.8072 C48.9225,24.8072 49.555,24.2264 49.8025,23.8945143 C49.885,23.7977143 49.9125,23.7285714 49.9125,23.6732571 C49.9125,23.6317714 49.84375,23.6456 49.81625,23.6732571 C49.335,24.1019429 48.9775,24.1987429 48.38625,24.1987429 C47.97375,24.1987429 47.465,24.0466286 47.1075,23.7147429 C46.7775,23.4243429 46.42,22.8435429 46.42,21.9170286 C46.42,20.3267429 47.36875,19.7736 47.94625,19.7736 C48.0975,19.7736 48.30375,19.8012571 48.46875,19.8842286 C48.675,19.9948571 49.01875,20.2299429 49.23875,20.4512 C49.32125,20.5341714 49.4175,20.5894857 49.4725,20.5894857 C49.56875,20.5894857 49.81625,20.4097143 49.81625,20.1469714 C49.81625,20.0778286 49.775,19.9672 49.62375,19.8842286 C49.39,19.7044571 48.96375,19.5385143 48.3725,19.5385143 C47.47875,19.5385143 46.76375,19.9395429 46.3375,20.3405714 C45.925,20.7277714 45.49875,21.3915429 45.49875,22.2627429 C45.49875,23.0233143 45.74625,23.6870857 46.18625,24.1296 C46.64,24.5721143 47.28625,24.8072 47.905,24.8072 Z M52.78625,24.8072 C53.57,24.8072 54.1475,24.5306286 54.6975,23.936 C54.78,23.8392 54.835,23.7562286 54.835,23.7147429 C54.835,23.6456 54.78,23.6179429 54.67,23.7285714 C54.34,24.0466286 53.9275,24.1710857 53.36375,24.1710857 C52.91,24.1710857 52.36,24.0189714 51.98875,23.6041143 C51.63125,23.2030857 51.35625,22.6361143 51.35625,21.9308571 C51.35625,21.5436571 51.3975,21.3362286 51.46625,21.1702857 C51.49375,21.1288 51.5625,21.0596571 51.59,21.0596571 L52.3325,21.0596571 C52.64875,21.0596571 54.43625,21.0873143 54.54625,21.1011429 C54.615,21.1011429 54.68375,21.0181714 54.68375,20.9490286 C54.68375,20.1054857 53.8175,19.5385143 53.00625,19.5385143 C52.29125,19.5385143 51.65875,19.8704 51.2875,20.2299429 C50.71,20.7969143 50.49,21.6128 50.49,22.2489143 C50.49,22.9956571 50.7375,23.6594286 51.15,24.1019429 C51.5625,24.5444571 52.14,24.8072 52.78625,24.8072 Z M51.645,20.8660571 C51.6175,20.8660571 51.59,20.8384 51.59,20.8107429 C51.59,20.7001143 51.71375,20.4373714 51.87875,20.2437714 C52.18125,19.9257143 52.525,19.7321143 52.8825,19.7321143 C53.19875,19.7321143 53.4325,19.8565714 53.57,19.9948571 C53.72125,20.1608 53.7625,20.4097143 53.7625,20.5756571 C53.7625,20.7001143 53.735,20.8522286 53.4325,20.8522286 L51.645,20.8660571 Z M59.4,24.8348571 C59.7575,24.6965714 60.3075,24.5582857 60.83,24.4753143 C61.0775,24.4338286 61.17375,24.3093714 61.17375,24.2125714 C61.17375,24.1710857 61.1325,24.1296 61.05,24.1572571 C60.72,24.2540571 60.48625,24.3093714 60.40375,24.3093714 C60.3625,24.3093714 60.3075,24.2540571 60.3075,24.1849143 C60.2958654,23.8806857 60.2842308,23.1507172 60.2809263,22.2044514 L60.2810122,21.3212711 C60.289611,19.6363726 60.3507143,15.7336816 60.37625,15.3484571 C60.39,15.1825143 60.3625,15.1133714 60.32125,15.1133714 C60.28,15.1133714 60.1975,15.1410286 60.12875,15.1825143 C60.005,15.2516571 59.4275,15.4314286 58.94625,15.5144 C58.85,15.5282286 58.78125,15.5697143 58.78125,15.6112 C58.78125,15.6526857 58.85,15.6941714 58.94625,15.7218286 C59.0975,15.7633143 59.2625,15.8462857 59.33125,15.9430857 C59.3725,15.9984 59.38625,16.0675429 59.38625,16.1781714 C59.4,16.9110857 59.41375,19.3587429 59.41375,19.6076571 C59.41375,19.6353143 59.3725,19.6906286 59.345,19.6768 C59.16625,19.6214857 58.75375,19.5523429 58.4375,19.5523429 C57.79125,19.5523429 57.1725,19.7736 56.7325,20.0778286 C56.1825,20.4650286 55.53625,21.2117714 55.53625,22.3595429 C55.53625,23.2030857 55.9075,23.8945143 56.25125,24.2125714 C56.705,24.6136 57.24125,24.7933714 57.70875,24.7933714 C58.1625,24.7933714 58.67125,24.6136 59.27625,24.1434286 C59.30375,24.1157714 59.33125,24.1434286 59.33125,24.1710857 C59.345,24.3370286 59.3175,24.5306286 59.30375,24.7380571 C59.30375,24.7795429 59.345,24.8486857 59.4,24.8348571 Z M58.2175,24.3232 C57.37875,24.3232 56.54,23.5488 56.54,22.0553143 C56.54,21.0181714 56.8975,20.3544 57.29625,20.0501714 C57.5025,19.8980571 57.6675,19.8150857 57.98375,19.8150857 C58.39625,19.8150857 58.89125,20.0086857 59.2075,20.4512 C59.235,20.4926857 59.30375,20.6171429 59.33125,20.7830857 C59.41375,21.2532571 59.38625,23.0233143 59.345,23.452 C59.33125,23.6732571 59.27625,23.8668571 59.19375,23.9636571 C58.905,24.2264 58.5475,24.3232 58.2175,24.3232 Z M63.9375,24.8072 C64.72125,24.8072 65.29875,24.5306286 65.84875,23.936 C65.93125,23.8392 65.98625,23.7562286 65.98625,23.7147429 C65.98625,23.6456 65.93125,23.6179429 65.82125,23.7285714 C65.49125,24.0466286 65.07875,24.1710857 64.515,24.1710857 C64.06125,24.1710857 63.51125,24.0189714 63.14,23.6041143 C62.7825,23.2030857 62.5075,22.6361143 62.5075,21.9308571 C62.5075,21.5436571 62.54875,21.3362286 62.6175,21.1702857 C62.645,21.1288 62.71375,21.0596571 62.74125,21.0596571 L63.48375,21.0596571 C63.8,21.0596571 65.5875,21.0873143 65.6975,21.1011429 C65.76625,21.1011429 65.835,21.0181714 65.835,20.9490286 C65.835,20.1054857 64.96875,19.5385143 64.1575,19.5385143 C63.4425,19.5385143 62.81,19.8704 62.43875,20.2299429 C61.86125,20.7969143 61.64125,21.6128 61.64125,22.2489143 C61.64125,22.9956571 61.88875,23.6594286 62.30125,24.1019429 C62.71375,24.5444571 63.29125,24.8072 63.9375,24.8072 Z M62.79625,20.8660571 C62.76875,20.8660571 62.74125,20.8384 62.74125,20.8107429 C62.74125,20.7001143 62.865,20.4373714 63.03,20.2437714 C63.3325,19.9257143 63.67625,19.7321143 64.03375,19.7321143 C64.35,19.7321143 64.58375,19.8565714 64.72125,19.9948571 C64.8725,20.1608 64.91375,20.4097143 64.91375,20.5756571 C64.91375,20.7001143 64.88625,20.8522286 64.58375,20.8522286 L62.79625,20.8660571 Z M67.925,24.8210286 C68.255,24.8210286 68.7225,24.7104 69.025,24.5168 C69.3,24.3370286 69.74,23.9636571 69.74,23.3552 C69.74,22.6499429 69.3825,22.3042286 68.48875,21.7234286 C68.145,21.516 67.6225,21.1841143 67.6225,20.6033143 C67.6225,20.0501714 68.0075,19.7459429 68.4475,19.7459429 C68.70875,19.7459429 68.9425,19.8427429 69.09375,19.9533714 C69.3,20.1193143 69.355,20.3129143 69.42375,20.5203429 C69.465,20.6171429 69.4925,20.6862857 69.5475,20.6862857 C69.58875,20.6862857 69.61625,20.6171429 69.61625,20.4650286 C69.6025,20.2437714 69.5475,19.9672 69.53375,19.8150857 C69.53375,19.7736 69.4925,19.7182857 69.465,19.6906286 C69.3,19.6353143 68.90125,19.5385143 68.53,19.5385143 C68.0075,19.5385143 67.6225,19.7182857 67.375,19.9257143 C67.0725,20.1469714 66.8525,20.5203429 66.8525,21.0181714 C66.8525,21.6266286 67.4025,22.1382857 67.99375,22.5254857 C68.54375,22.8712 68.90125,23.1616 68.90125,23.6870857 C68.90125,24.2540571 68.3925,24.6136 68.0075,24.6136 C67.80125,24.6136 67.595,24.5859429 67.38875,24.4476571 C67.14125,24.2955429 66.92125,24.0466286 66.81125,23.7009143 C66.715,23.4381714 66.67375,23.4381714 66.6325,23.4381714 C66.605,23.4381714 66.56375,23.4796571 66.59125,23.6594286 C66.605,23.8115429 66.6325,24.1572571 66.6325,24.3508571 C66.6325,24.4338286 66.72875,24.5306286 66.83875,24.5721143 C67.25125,24.7380571 67.5675,24.8210286 67.925,24.8210286 Z M73.68625,18.2109714 C73.865,18.2109714 74.195,18.0588571 74.195,17.6854857 C74.195,17.4504 74.03,17.16 73.71375,17.16 C73.49375,17.16 73.2325,17.3536 73.2325,17.6993143 C73.2325,17.9758857 73.43875,18.2109714 73.68625,18.2109714 Z M74.4425,24.7104 C74.5525,24.7104 74.6625,24.6827429 74.6625,24.6136 C74.6625,24.5582857 74.59375,24.5306286 74.45625,24.5029714 C74.23625,24.4476571 74.09875,24.3785143 74.07125,24.1019429 C74.0516071,23.9340245 74.0459949,23.3639487 74.0443914,22.6285751 L74.0443079,20.9777455 C74.0457955,20.3789714 74.05125,19.8779429 74.07125,19.6768 C74.085,19.5246857 74.0575,19.4832 74.01625,19.4832 C73.98875,19.4832 73.92,19.5108571 73.81,19.58 C73.52125,19.7044571 73.19125,19.8427429 72.82,19.9395429 C72.69625,19.9672 72.655,20.0086857 72.655,20.0501714 C72.655,20.0778286 72.69625,20.1193143 72.765,20.1608 C73.15,20.3682286 73.16375,20.4512 73.16375,20.6448 C73.16375,20.7830857 73.13625,23.2998857 73.1225,23.7147429 C73.10875,24.2817143 72.985,24.3923429 72.6825,24.4753143 C72.49,24.5029714 72.42125,24.5444571 72.42125,24.5997714 C72.42125,24.6550857 72.5175,24.6827429 72.61375,24.6827429 C72.765,24.6827429 72.985,24.6550857 73.43875,24.6550857 C73.81,24.6550857 74.31875,24.7104 74.4425,24.7104 Z M80.53375,24.7104 C80.67125,24.7104 80.78125,24.6965714 80.78125,24.6136 C80.78125,24.5582857 80.69875,24.5306286 80.575,24.4753143 C80.20375,24.3785143 80.1625,24.2955429 80.14875,23.3552 C80.14875,22.6637714 80.135,22.5531429 80.135,21.8202286 C80.12125,21.032 80.01125,20.3405714 79.695,20.0086857 C79.51625,19.8150857 79.18625,19.5385143 78.6225,19.5385143 C78.38875,19.5385143 78.1,19.5661714 77.81125,19.7044571 C77.50875,19.8289143 77.17875,20.064 76.835,20.3267429 C76.8075,20.3544 76.76625,20.3129143 76.76625,20.2852571 C76.7525,20.0916571 76.78,19.7182857 76.79375,19.5523429 C76.8075,19.4832 76.73875,19.4278857 76.6975,19.4417143 C76.46375,19.5938286 75.91375,19.8289143 75.61125,19.9118857 C75.4875,19.9533714 75.41875,19.9948571 75.41875,20.0225143 C75.41875,20.064 75.44625,20.0916571 75.52875,20.1469714 C75.85875,20.3267429 75.88625,20.4788571 75.88625,20.6171429 C75.88625,21.7372571 75.88625,23.0094857 75.85875,24.0051429 C75.845,24.2817143 75.79,24.3785143 75.44625,24.4476571 C75.28125,24.4753143 75.1575,24.5306286 75.1575,24.5859429 C75.1575,24.6550857 75.2675,24.6827429 75.41875,24.6827429 C75.68,24.6827429 75.96875,24.6550857 76.1475,24.6550857 C76.46375,24.6550857 77.1375,24.7104 77.2475,24.7104 C77.385,24.7104 77.5225,24.7104 77.5225,24.6274286 C77.5225,24.5582857 77.45375,24.5306286 77.28875,24.4891429 C77.06875,24.42 76.90375,24.3508571 76.8625,24.0466286 C76.835,23.8530286 76.79375,23.4934857 76.78,22.5946286 C76.78,21.7649143 76.76625,21.0596571 76.76625,20.8937143 C76.76625,20.7830857 76.835,20.5756571 76.93125,20.4788571 C77.28875,20.1746286 77.64625,20.0363429 78.00375,20.0363429 C78.32,20.0363429 78.58125,20.1331429 78.7875,20.2990857 C79.13125,20.5618286 79.2275,20.8937143 79.2275,22.0138286 L79.2275,23.8945143 C79.2275,24.2955429 79.1725,24.3923429 78.8425,24.4753143 C78.66375,24.5168 78.58125,24.5721143 78.58125,24.6274286 C78.58125,24.6827429 78.6775,24.7104 78.80125,24.7104 C79.0075,24.7104 79.18625,24.6550857 79.65375,24.6550857 C79.95625,24.6550857 80.355,24.7104 80.53375,24.7104 Z"/>
      <path fill="#000" d="M2.9425,39.8790857 C3.96,39.8790857 4.60625,39.2844571 4.88125,38.8557714 C4.96375,38.7313143 4.99125,38.6621714 4.99125,38.6068571 C4.99125,38.5515429 4.93625,38.5515429 4.8675,38.6068571 C4.46875,38.9664 4.125,39.0770286 3.53375,39.0770286 C3.2175,39.0770286 2.70875,38.9525714 2.3375,38.5930286 C1.98,38.2611429 1.76,37.5697143 1.76,36.8921143 C1.76,35.3294857 2.475,34.8731429 2.84625,34.8731429 C3.0525,34.8731429 3.17625,34.9008 3.355,34.9837714 C3.5475,35.0667429 4.0425,35.4816 4.22125,35.6337143 C4.30375,35.7028571 4.41375,35.7581714 4.455,35.7581714 C4.66125,35.7581714 4.895,35.5369143 4.895,35.2188571 C4.895,35.1497143 4.82625,35.0114286 4.73,34.9561143 C4.5375,34.804 4.13875,34.5827429 3.3825,34.5827429 C2.62625,34.5827429 1.815,34.9837714 1.36125,35.3709714 C0.935,35.7305143 0.44,36.4357714 0.44,37.3069714 C0.44,38.0813714 0.67375,38.7174857 1.11375,39.1738286 C1.5675,39.6301714 2.24125,39.8790857 2.9425,39.8790857 Z M8.305,39.9067429 C8.81375,39.9067429 9.4875,39.7269714 9.955,39.3674286 C10.38125,39.0355429 11.0275,38.3026286 11.0275,37.1963429 C11.0275,35.7581714 9.91375,34.5827429 8.2775,34.5827429 C7.71375,34.5827429 7.08125,34.7625143 6.5175,35.2188571 C6.09125,35.5507429 5.54125,36.2145143 5.54125,37.2654857 C5.54125,38.7451429 6.7375,39.9067429 8.305,39.9067429 Z M8.47,39.6854857 C8.09875,39.6854857 7.71375,39.4089143 7.425,38.9249143 C7.08125,38.3302857 6.99875,37.5558857 6.99875,36.8921143 C6.99875,35.6890286 7.5625,34.8178286 8.15375,34.8178286 C9.11625,34.8178286 9.55625,35.9102857 9.55625,37.4867429 C9.55625,38.5100571 9.2675,39.1738286 9.1025,39.3674286 C8.95125,39.5610286 8.7175,39.6854857 8.47,39.6854857 Z M14.08,39.7822857 C14.2175,39.7822857 14.355,39.7408 14.355,39.6854857 C14.355,39.6163429 14.25875,39.5748571 14.17625,39.5610286 C13.81875,39.4780571 13.73625,39.4227429 13.7225,38.9802286 C13.70875,38.7313143 13.695,38.1781714 13.695,36.3804571 L13.695,35.3018286 C13.695,32.9094857 13.73625,30.6001143 13.73625,30.5033143 C13.73625,30.4341714 13.70875,30.3512 13.68125,30.3512 C13.62625,30.3512 13.5575,30.3788571 13.48875,30.4065143 C13.2,30.5033143 12.66375,30.7107429 12.1,30.7937143 C11.97625,30.8213714 11.89375,30.8628571 11.89375,30.9043429 C11.89375,30.9458286 11.935,31.0011429 12.03125,31.0564571 C12.3475,31.2224 12.41625,31.3192 12.41625,31.6372571 C12.43,32.1074286 12.41625,33.5732571 12.41625,34.3338286 C12.4025,35.6613714 12.3475,38.2334857 12.32,38.8004571 C12.2925,39.3950857 12.21,39.4780571 11.83875,39.5472 C11.72875,39.5748571 11.6325,39.6025143 11.6325,39.6716571 C11.6325,39.7408 11.7425,39.7684571 11.88,39.7684571 C12.25125,39.7684571 12.54,39.7408 12.91125,39.7408 C13.1175,39.7408 13.6675,39.7822857 14.08,39.7822857 Z M17.765,39.9067429 C18.27375,39.9067429 18.9475,39.7269714 19.415,39.3674286 C19.84125,39.0355429 20.4875,38.3026286 20.4875,37.1963429 C20.4875,35.7581714 19.37375,34.5827429 17.7375,34.5827429 C17.17375,34.5827429 16.54125,34.7625143 15.9775,35.2188571 C15.55125,35.5507429 15.00125,36.2145143 15.00125,37.2654857 C15.00125,38.7451429 16.1975,39.9067429 17.765,39.9067429 Z M17.93,39.6854857 C17.55875,39.6854857 17.17375,39.4089143 16.885,38.9249143 C16.54125,38.3302857 16.45875,37.5558857 16.45875,36.8921143 C16.45875,35.6890286 17.0225,34.8178286 17.61375,34.8178286 C18.57625,34.8178286 19.01625,35.9102857 19.01625,37.4867429 C19.01625,38.5100571 18.7275,39.1738286 18.5625,39.3674286 C18.41125,39.5610286 18.1775,39.6854857 17.93,39.6854857 Z M21.35375,39.8099429 C21.68375,39.8099429 21.67,39.7408 22.495,39.7408 C23.155,39.7408 23.4025,39.7961143 23.7875,39.7961143 C23.96625,39.7961143 24.07625,39.7684571 24.07625,39.6993143 C24.07625,39.6301714 24.02125,39.5886857 23.82875,39.5610286 C23.32,39.4918857 23.22375,39.3950857 23.16875,38.9802286 C23.14125,38.6621714 23.11375,38.0813714 23.11375,37.0995429 C23.11375,36.8368 23.1,36.2974857 23.14125,36.0347429 C23.16875,35.9102857 23.19625,35.8134857 23.2925,35.7166857 C23.43,35.5784 23.595,35.5230857 23.76,35.5230857 C23.91125,35.5230857 24.145,35.6337143 24.29625,35.7443429 C24.43375,35.8411429 24.5025,35.8411429 24.53,35.8411429 C24.59875,35.8411429 24.6675,35.8134857 24.805,35.6752 C25.03875,35.4401143 25.2175,35.1358857 25.2175,35.0114286 C25.2175,34.9008 25.1625,34.8316571 25.025,34.7348571 C24.915,34.6518857 24.75,34.5965714 24.57125,34.5965714 C24.035,34.5965714 23.54,35.0944 23.155,35.6060571 C23.14125,35.6475429 23.08625,35.6337143 23.08625,35.5645714 C23.08625,35.2603429 23.11375,34.8731429 23.11375,34.6242286 C23.11375,34.5550857 23.0725,34.4721143 23.045,34.4721143 C22.99,34.4721143 22.935,34.4859429 22.81125,34.5550857 C22.55,34.6933714 22.06875,34.8593143 21.49125,35.0114286 C21.43625,35.0390857 21.34,35.0944 21.34,35.1358857 C21.34,35.1773714 21.3675,35.2050286 21.45,35.2741714 C21.76625,35.5507429 21.8075,35.5784 21.8075,35.6613714 C21.82125,35.8273143 21.8075,36.1868571 21.8075,37.0580571 C21.79375,37.9707429 21.78,38.7589714 21.76625,38.9940571 C21.725,39.3812571 21.615,39.4918857 21.29875,39.5610286 C21.1475,39.5886857 21.0925,39.6578286 21.0925,39.7131429 C21.0925,39.7684571 21.175,39.8099429 21.35375,39.8099429 Z M26.7575,33.5041143 C27.06,33.5041143 27.43125,33.2966857 27.43125,32.8126857 C27.43125,32.4946286 27.17,32.1627429 26.82625,32.1627429 C26.5375,32.1627429 26.18,32.384 26.18,32.868 C26.18,33.2275429 26.46875,33.5041143 26.7575,33.5041143 Z M27.76125,39.8099429 C27.87125,39.8099429 27.9675,39.7822857 27.9675,39.7131429 C27.9675,39.6578286 27.92625,39.6163429 27.775,39.5748571 C27.5,39.5057143 27.43125,39.3812571 27.40375,39.1461714 C27.37625,38.9387429 27.37625,37.8324571 27.37625,36.2836571 C27.37625,35.7028571 27.37625,34.9976 27.40375,34.7072 C27.4175,34.5550857 27.39,34.5136 27.34875,34.5136 C27.3075,34.5136 27.2525,34.5550857 27.1425,34.5965714 C26.66125,34.7901714 26.41375,34.8869714 25.795,35.0114286 C25.64375,35.0529143 25.6025,35.0944 25.6025,35.1220571 C25.6025,35.1773714 25.64375,35.2188571 25.7125,35.2741714 C26.07,35.5230857 26.07,35.5784 26.07,35.8411429 C26.07,35.9794286 26.02875,38.3856 26.02875,38.8004571 C26.02875,39.2844571 25.9325,39.4642286 25.575,39.5472 C25.41,39.5748571 25.3275,39.6025143 25.3275,39.6716571 C25.3275,39.7269714 25.4375,39.7684571 25.56125,39.7684571 C25.7125,39.7684571 26.02875,39.7408 26.63375,39.7408 C27.21125,39.7408 27.5275,39.8099429 27.76125,39.8099429 Z M31.94125,39.7961143 C32.05125,39.7961143 32.29875,39.7408 33.0825,39.7408 C33.3575,39.7408 33.81125,39.7822857 34.1275,39.7822857 C34.25125,39.7822857 34.32,39.7546286 34.32,39.6993143 C34.32,39.6301714 34.2375,39.6025143 34.16875,39.5748571 C33.7975,39.4780571 33.72875,39.3674286 33.715,38.5100571 C33.715,37.7356571 33.70125,37.5973714 33.6875,36.7953143 C33.6875,35.9932571 33.53625,35.3709714 33.20625,35.0529143 C32.9725,34.804 32.6425,34.5827429 32.10625,34.5827429 C31.8175,34.5827429 31.5425,34.6518857 31.295,34.7625143 C31.02,34.8869714 30.75875,35.0805714 30.48375,35.3018286 C30.45625,35.3294857 30.415,35.3156571 30.415,35.288 C30.40125,35.0944 30.42875,34.7486857 30.4425,34.5965714 C30.4425,34.5274286 30.37375,34.4721143 30.3325,34.4859429 C30.1125,34.6104 29.3425,34.9561143 28.875,35.0529143 C28.75125,35.0805714 28.6825,35.1220571 28.6825,35.1635429 C28.6825,35.1912 28.66875,35.2188571 28.7925,35.3018286 C29.0675,35.4954286 29.10875,35.6060571 29.10875,35.7443429 C29.10875,37.0165714 29.095,38.2196571 29.0675,39.0217143 C29.05375,39.3397714 29.02625,39.4504 28.64125,39.5195429 C28.5175,39.5472 28.39375,39.6025143 28.39375,39.6578286 C28.39375,39.7269714 28.50375,39.7684571 28.655,39.7684571 C29.0675,39.7684571 29.425,39.7408 29.60375,39.7408 C29.92,39.7408 30.70375,39.7961143 30.84125,39.7961143 C30.9375,39.7961143 31.08875,39.7822857 31.08875,39.6993143 C31.08875,39.6301714 31.03375,39.6025143 30.86875,39.5610286 C30.62125,39.4780571 30.525,39.3950857 30.48375,39.0908571 C30.47,38.9249143 30.4425,38.2334857 30.42875,37.3761143 C30.42875,36.6708571 30.415,36.0209143 30.415,35.7581714 C30.415,35.6475429 30.48375,35.5230857 30.5525,35.4677714 C30.7175,35.3294857 31.00625,35.2050286 31.295,35.2050286 C31.4875,35.2050286 31.735,35.2465143 31.94125,35.3986286 C32.27125,35.6613714 32.35375,35.9517714 32.35375,37.0165714 L32.35375,39.0493714 C32.35375,39.3674286 32.285,39.4642286 31.91375,39.5748571 C31.79,39.6025143 31.7075,39.644 31.7075,39.6993143 C31.7075,39.7546286 31.80375,39.7961143 31.94125,39.7961143 Z M36.905,43.6542857 C37.55125,43.6542857 38.21125,43.4606857 38.89875,43.0043429 C39.5175,42.6171429 40.2325,41.7736 40.2325,40.9024 C40.2325,40.3630857 40.05375,39.9620571 39.75125,39.6854857 C39.5175,39.4780571 39.16,39.2982857 38.59625,39.2982857 C38.10125,39.2982857 37.49625,39.3121143 37.08375,39.3121143 C36.3275,39.3121143 35.92875,39.1185143 35.92875,38.7866286 C35.92875,38.7313143 35.9425,38.6345143 36.03875,38.5238857 C36.135,38.4132571 36.2725,38.2888 36.36875,38.2473143 C36.39625,38.2334857 36.465,38.2058286 36.52,38.2196571 C36.67125,38.2611429 36.97375,38.3026286 37.16625,38.3026286 C37.41375,38.3026286 37.93625,38.2058286 38.335,37.9154286 C38.83,37.5420571 39.17375,36.8506286 39.17375,36.1038857 L39.17287,35.8682469 C39.17155,35.7471086 39.16825,35.6309486 39.16,35.5645714 C39.16,35.5507429 39.20125,35.4954286 39.22875,35.4954286 C39.38,35.4954286 39.7925,35.5230857 39.99875,35.5230857 C40.05375,35.5230857 40.13625,35.3709714 40.13625,35.2326857 C40.13625,35.0252571 40.095,34.9008 40.04,34.9008 C39.80625,34.9008 39.31125,34.9284571 39.06375,34.9284571 C38.87125,34.9284571 38.72,34.9146286 38.59625,34.8593143 C38.43125,34.7625143 37.79875,34.4997714 37.11125,34.4997714 C36.56125,34.4997714 35.95625,34.7072 35.57125,35.0944 C35.24125,35.4124571 34.99375,35.7581714 34.99375,36.4496 C34.99375,37.2378286 35.54375,37.8324571 36.08,38.1228571 C36.1075,38.1366857 36.12125,38.1643429 36.1075,38.1781714 C35.9425,38.3994286 35.21375,38.9940571 34.91125,39.2291429 C34.88375,39.2429714 34.85625,39.2982857 34.85625,39.3950857 C34.85625,40.0726857 35.695,40.5566857 35.95625,40.6396571 C35.98375,40.6534857 35.9975,40.7088 35.98375,40.7364571 C35.73625,40.9715429 35.2825,41.4278857 35.15875,41.58 C35.0075,41.7321143 34.88375,41.8842286 34.88375,42.1608 C34.88375,43.0596571 35.6675,43.6542857 36.905,43.6542857 Z M37.30375,38.0952 C37.015,38.0952 36.7675,37.8877714 36.58875,37.6250286 C36.45125,37.4037714 36.245,36.9059429 36.245,36.1038857 C36.245,35.6752 36.34125,35.2603429 36.52,34.9976 C36.63,34.8593143 36.8225,34.7072 37.02875,34.7072 C37.27625,34.7072 37.4275,34.7901714 37.675,35.1220571 C37.9225,35.4677714 38.07375,36.0900571 38.07375,36.7261714 C38.07375,37.3484571 37.8125,38.0952 37.30375,38.0952 Z M37.49625,43.1149714 C37.02875,43.1149714 36.64375,42.9905143 36.28625,42.7416 C35.90125,42.4788571 35.7225,42.0225143 35.7225,41.8012571 C35.7225,41.4693714 35.84625,41.0821714 36.19,40.7917714 C36.2175,40.7779429 36.3275,40.7226286 36.53375,40.7088 C36.91875,40.7088 37.7025,40.6811429 38.1975,40.6811429 C39.1325,40.6811429 39.435,41.1651429 39.435,41.7044571 C39.435,42.1054857 39.16,42.5894857 38.775,42.8384 C38.3625,43.1149714 37.8125,43.1149714 37.49625,43.1149714 Z M44.9075,39.9067429 C45.69125,39.9067429 46.5575,39.6025143 47.19,38.9525714 C47.4925,38.6483429 47.905,37.9845714 47.905,37.0304 C47.905,36.4634286 47.69875,35.8411429 47.2725,35.3709714 C46.95625,35.0114286 46.40625,34.6242286 45.54,34.6242286 C45.0725,34.6242286 44.59125,34.7901714 44.275,35.0114286 C44.23375,35.0252571 44.1925,35.0114286 44.1925,34.9146286 C44.1925,33.6838857 44.23375,31.3745143 44.275,30.5033143 C44.275,30.3512 44.2475,30.2958857 44.22,30.2958857 C44.165,30.2958857 44.09625,30.3097143 43.9725,30.3650286 C43.4775,30.5724571 42.72125,30.7107429 42.55625,30.7522286 C42.39125,30.7798857 42.33625,30.8352 42.33625,30.8766857 C42.33625,30.9043429 42.3775,30.9458286 42.4875,31.0288 C42.77625,31.2085714 42.80375,31.2915429 42.845,31.5128 C42.88625,31.7893714 42.9,32.5084571 42.9,33.6562286 C42.88625,35.1082286 42.85875,37.224 42.83125,37.9707429 C42.80375,38.9249143 42.7625,39.2568 42.72125,39.5057143 C42.72125,39.5472 42.7625,39.6301714 42.8175,39.6025143 C43.065,39.5057143 43.1475,39.5057143 43.21625,39.5333714 C43.65625,39.7408 44.37125,39.9067429 44.9075,39.9067429 Z M45.4025,39.6301714 C45.22375,39.6301714 44.94875,39.5748571 44.825,39.5057143 C44.64625,39.4089143 44.42625,39.2568 44.3575,39.0908571 C44.22,38.8004571 44.1375,38.0260571 44.1375,37.5144 C44.1375,36.9750857 44.12375,35.6890286 44.17875,35.4401143 C44.1925,35.3433143 44.22,35.2465143 44.275,35.2050286 C44.37125,35.1497143 44.5775,35.0805714 44.7975,35.0805714 C45.36125,35.0805714 45.80125,35.4539429 45.98,35.6752 C46.37875,36.1730286 46.5025,37.0304 46.5025,37.5005714 L46.48875,37.5005714 C46.48875,38.1366857 46.32375,38.8557714 46.10375,39.1876571 C45.91125,39.4918857 45.5675,39.6301714 45.4025,39.6301714 Z M51.52125,39.9067429 C52.03,39.9067429 52.70375,39.7269714 53.17125,39.3674286 C53.5975,39.0355429 54.24375,38.3026286 54.24375,37.1963429 C54.24375,35.7581714 53.13,34.5827429 51.49375,34.5827429 C50.93,34.5827429 50.2975,34.7625143 49.73375,35.2188571 C49.3075,35.5507429 48.7575,36.2145143 48.7575,37.2654857 C48.7575,38.7451429 49.95375,39.9067429 51.52125,39.9067429 Z M51.68625,39.6854857 C51.315,39.6854857 50.93,39.4089143 50.64125,38.9249143 C50.2975,38.3302857 50.215,37.5558857 50.215,36.8921143 C50.215,35.6890286 50.77875,34.8178286 51.37,34.8178286 C52.3325,34.8178286 52.7725,35.9102857 52.7725,37.4867429 C52.7725,38.5100571 52.48375,39.1738286 52.31875,39.3674286 C52.1675,39.5610286 51.93375,39.6854857 51.68625,39.6854857 Z M57.86,39.9067429 C58.36875,39.9067429 59.0425,39.7269714 59.51,39.3674286 C59.93625,39.0355429 60.5825,38.3026286 60.5825,37.1963429 C60.5825,35.7581714 59.46875,34.5827429 57.8325,34.5827429 C57.26875,34.5827429 56.63625,34.7625143 56.0725,35.2188571 C55.64625,35.5507429 55.09625,36.2145143 55.09625,37.2654857 C55.09625,38.7451429 56.2925,39.9067429 57.86,39.9067429 Z M58.025,39.6854857 C57.65375,39.6854857 57.26875,39.4089143 56.98,38.9249143 C56.63625,38.3302857 56.55375,37.5558857 56.55375,36.8921143 C56.55375,35.6890286 57.1175,34.8178286 57.70875,34.8178286 C58.67125,34.8178286 59.11125,35.9102857 59.11125,37.4867429 C59.11125,38.5100571 58.8225,39.1738286 58.6575,39.3674286 C58.50625,39.5610286 58.2725,39.6854857 58.025,39.6854857 Z M67.2375,39.8099429 C67.38875,39.8099429 67.49875,39.7684571 67.49875,39.6993143 C67.49875,39.644 67.44375,39.6025143 67.30625,39.5748571 C66.9075,39.5057143 66.77,39.3812571 66.37125,38.9387429 C65.835,38.3441143 64.91375,37.1963429 64.41875,36.5187429 C64.405,36.4910857 64.3775,36.4496 64.405,36.4219429 C64.72125,36.0900571 65.10625,35.7443429 65.4225,35.4816 C65.84875,35.1220571 66.15125,34.9837714 66.61875,34.8731429 C66.78375,34.8454857 66.83875,34.804 66.83875,34.7625143 C66.83875,34.7072 66.75625,34.6657143 66.605,34.6657143 C66.12375,34.6657143 65.67,34.7486857 65.16125,34.7486857 C65.05125,34.7486857 64.845,34.7348571 64.6525,34.7348571 C64.52875,34.7348571 64.41875,34.7763429 64.41875,34.8316571 C64.41875,34.9008 64.50125,34.9284571 64.63875,34.9561143 C65.05125,35.0252571 65.13375,35.1358857 65.13375,35.2050286 C65.13375,35.2603429 65.07875,35.3433143 65.01,35.4262857 C64.7625,35.8134857 64.02,36.5464 63.53875,36.8782857 C63.45625,36.9336 63.36,37.0027429 63.305,37.0027429 C63.26375,37.0027429 63.23625,36.9336 63.23625,36.8091429 C63.2225,36.1177143 63.29125,33.7668571 63.29125,33.2966857 C63.29125,32.2595429 63.36,30.8766857 63.37375,30.3926857 C63.37375,30.3512 63.3325,30.2958857 63.31875,30.2958857 C63.26375,30.2958857 63.1675,30.3235429 63.07125,30.3650286 C63.0575,30.3788571 62.645,30.5862857 61.7375,30.7522286 C61.5725,30.7798857 61.47625,30.8352 61.47625,30.8905143 C61.47625,30.932 61.545,30.9734857 61.6,31.0149714 C61.80625,31.1256 61.93,31.2224 61.93,31.3192 C61.97125,31.5404571 61.985,31.6649143 61.985,31.9829714 C61.985,32.7573714 61.9575,35.1912 61.9575,35.772 C61.9575,36.8368 61.94375,37.8739429 61.88875,38.8834286 C61.86125,39.3397714 61.80625,39.4780571 61.39375,39.5748571 C61.28375,39.6025143 61.20125,39.644 61.20125,39.6993143 C61.20125,39.7546286 61.325,39.7961143 61.435,39.7961143 C61.50375,39.7961143 61.985,39.7408 62.52125,39.7408 C62.87875,39.7408 63.31875,39.7822857 63.7175,39.7822857 C63.81375,39.7822857 63.97875,39.7546286 63.97875,39.6716571 C63.97875,39.6163429 63.8825,39.5610286 63.745,39.5333714 C63.4425,39.4642286 63.26375,39.4227429 63.23625,38.7451429 C63.2225,38.2749714 63.20875,37.5144 63.23625,37.2931429 C63.25,37.224 63.25,37.1825143 63.29125,37.1825143 C63.3325,37.1825143 63.42875,37.2931429 63.56625,37.4590857 C63.9925,37.9569143 64.735,38.8834286 64.94125,39.16 C65.065,39.3536 65.01,39.4504 64.79,39.5195429 C64.58375,39.5748571 64.52875,39.6025143 64.52875,39.6716571 C64.52875,39.7408 64.5975,39.7684571 64.7625,39.7684571 C64.955,39.7684571 65.16125,39.7408 65.4225,39.7408 C66.0275,39.7408 66.45375,39.8099429 67.2375,39.8099429 Z M69.53375,37.2654857 C69.58875,37.2654857 69.6575,37.2101714 69.69875,36.8644571 C69.86375,35.5230857 70.44125,33.7253714 70.44125,32.8126857 C70.44125,32.2733714 70.13875,31.6372571 69.53375,31.6372571 C68.98375,31.6372571 68.6125,32.3010286 68.6125,32.8541714 C68.62625,33.8498286 69.17625,35.288 69.355,36.9059429 C69.39625,37.1963429 69.45125,37.2654857 69.53375,37.2654857 Z M69.5475,39.9205714 C69.8775,39.9205714 70.33125,39.6025143 70.33125,39.0770286 C70.33125,38.6898286 70.05625,38.2196571 69.5475,38.2196571 C69.12125,38.2196571 68.73625,38.5930286 68.73625,39.0770286 C68.75,39.5472 69.1075,39.9205714 69.5475,39.9205714 Z"/>
    </g>
    <g fill-rule="nonzero" stroke="#222F3C" stroke-width=".4" transform="translate(83 83)">
      <path stroke-linecap="round" stroke-linejoin="round" d="M5.27044616 2.33272537L3.2647045 2.33272537C3.00812376 2.33272537 2.8009318 2.1217404 2.8009318 1.86197279L2.8009318.469533011C2.8009318.209765397 3.00812376 0 3.2647045 0L8.54170005 0"/>
      <g stroke-linecap="round" stroke-linejoin="round" transform="translate(0 2.27)">
        <g transform="translate(.352 10.795)">
          <line x1="2" x2="3.413" y1="2" y2="2.2"/>
          <path/>
        </g>
        <line x1="4.128" x2="4.128" y1="3.936" y2=".677"/>
        <g transform="translate(1 4)">
          <line x1="2.638" x2=".848" y1="8.795" y2="8.92"/>
          <path/>
          <line x1=".065" x2=".189" y1="7.696" y2="7.571"/>
          <line x1=".072" x2="3.123" y1="7.571"/>
          <path d="M.0654250778 7.58651438C.0234897863 7.68895795 0 7.79993848 0 7.9185413 0 8.40179443.38735561 8.79388498.865960006 8.79388498"/>
          <line x1=".065" x2=".189" y1="7.695" y2="7.57"/>
        </g>
        <g transform="translate(1 4)">
          <line x1="2.638" x2=".848" y1="8.795" y2="8.92"/>
          <path/>
          <line x1=".065" x2=".189" y1="7.696" y2="7.571"/>
          <line x1=".072" x2="3.123" y1="7.571"/>
          <path d="M.0654250778 7.58651438C.0234897863 7.68895795 0 7.79993848 0 7.9185413 0 8.40179443.38735561 8.79388498.865960006 8.79388498"/>
          <line x1=".065" x2=".189" y1="7.695" y2="7.57"/>
        </g>
      </g>
      <g transform="translate(5.824 11.008)">
        <path/>
      </g>
      <g transform="translate(2.678 1.414)">
        <path stroke-linecap="round" stroke-linejoin="round" d="M6.03028654 2.33303026L8.82293603 2.33303026C9.05979137 2.33303026 9.25102233 2.1217404 9.25102233 1.86197279L9.25102233.469533011C9.25102233.209765397 9.05979137 0 8.82293603 0L3.49911149 0C3.26353604 0 3.07230508.209765397 3.07230508.469533011L3.07230508 1.86197279C3.07230508 2.1217404 3.26353604 2.33303026 3.49911149 2.33303026L4.42055859 2.33303026"/>
        <g stroke-linecap="round" stroke-linejoin="round" transform="translate(0 3.468)">
          <line x1="4.128" x2="4.128" y1="3.259"/>
          <g transform="translate(1 3.323)">
            <line x1="8.97" x2=".847" y1="8.796" y2="8.796"/>
            <path/>
            <line x1=".065" x2=".188" y1="7.696" y2="7.571"/>
            <line x1=".071" x2="3.123" y1="7.571"/>
            <path d="M.06534979 7.58614851C.0234144985 7.68859208 0 7.80109706 0 7.91848032 0 8.40173345.38735561 8.793824.864680113 8.793824"/>
            <line x1=".065" x2=".189" y1="7.696" y2="7.571"/>
          </g>
          <line x1="8.194" x2="8.318" y1="3.259"/>
          <g transform="translate(.975 3.323)">
            <line x1="1" x2="9.5" y1="8.796" y2="8.92"/>
            <path/>
            <line x1="10.399" x2="10.276" y1="7.696" y2="7.571"/>
            <line x1="10.275" x2="7.224" y1="7.571"/>
            <path d="M10.2814108 7.58614851C10.3233461 7.68859208 10.3467606 7.80109706 10.3467606 7.91848032 10.3467606 8.40173345 9.9594803 8.793824 9.48208051 8.793824"/>
            <line x1="10.399" x2="10.275" y1="7.696" y2="7.571"/>
          </g>
          <g transform="translate(.975 3.323)">
            <line x1="1" x2="9.5" y1="8.796" y2="8.92"/>
            <path/>
            <line x1="10.399" x2="10.276" y1="7.696" y2="7.571"/>
            <line x1="10.275" x2="7.224" y1="7.571"/>
            <path d="M10.2814108 7.58614851C10.3233461 7.68859208 10.3467606 7.80109706 10.3467606 7.91848032 10.3467606 8.40173345 9.9594803 8.793824 9.48208051 8.793824"/>
            <line x1="10.399" x2="10.275" y1="7.696" y2="7.571"/>
          </g>
        </g>
        <line x1="6.823" x2="8.224" y1="4.258" y2="4.383"/>
        <line x1="6.823" x2="8.224" y1="3.445" y2="3.569"/>
        <line x1="6.823" x2="8.224" y1="5.08" y2="5.205"/>
        <line x1="6.823" x2="8.224" y1="5.903" y2="6.028"/>
        <line x1="6.823" x2="8.224" y1="6.725" y2="6.85"/>
      </g>
      <g transform="translate(6.484 11.393)">
        <path d="M0,1.48238279 C0,1.17179992 0.278364006,0.67767232 0.835092017,0 C1.39182003,0.67767232 1.67018403,1.17179992 1.67018403,1.48238279 C1.67018403,1.94947667 1.29638022,2.3278471 0.835092017,2.3278471 C0.373728523,2.3278471 0,1.94947667 0,1.48238279 Z"/>
      </g>
      <g transform="translate(8.227 13.485)">
        <path d="M0,1.48360236 C0,1.17220644 0.277962471,0.67767232 0.833887413,0 C1.39061542,0.67767232 1.66897943,1.17220644 1.66897943,1.48360236 C1.66897943,1.94947667 1.29517562,2.3278471 0.833887413,2.3278471 C0.37380381,2.3278471 0,1.94947667 0,1.48360236 Z"/>
      </g>
      <g transform="translate(8.688 10.489)">
        <path d="M0,1.48238279 C0,1.17179992 0.278364006,0.67767232 0.835092017,0 C1.39182003,0.67767232 1.67018403,1.17179992 1.67018403,1.48238279 C1.67018403,1.94947667 1.29638022,2.3278471 0.835092017,2.3278471 C0.373728523,2.3278471 0,1.94947667 0,1.48238279 Z"/>
      </g>
    </g>
    <g fill-rule="nonzero" stroke="#222F3C" stroke-width=".4" transform="translate(205 57)">
      <path d="M2.39150132,11.9914354 L19.0205341,11.8795177 L18.9380222,24.129299 C18.9343376,24.6763199 18.4917959,25.1188592 17.944775,25.1225408 L3.31587831,25.220997 C2.76360607,25.2247139 2.31288779,24.780022 2.30917086,24.2277497 C2.30914065,24.2232612 2.30914066,24.2187725 2.30917089,24.214284 L2.39150132,11.9914354 L2.39150132,11.9914354 Z" transform="rotate(43.256 10.661 18.554)"/>
      <polygon stroke-linecap="round" stroke-linejoin="round" points="11.656 1.917 14.982 1.895 14.924 10.404 11.599 10.426" transform="rotate(43.256 13.29 6.16)"/>
      <polygon stroke-linecap="round" stroke-linejoin="round" points="13.599 5.401 16.925 5.379 16.877 12.47 13.551 12.492" transform="rotate(43.256 15.238 8.935)"/>
      <polygon stroke-linecap="round" stroke-linejoin="round" points="15.543 8.887 18.869 8.864 18.831 14.537 15.505 14.559" transform="rotate(43.256 17.187 11.712)"/>
      <polygon stroke-linecap="round" stroke-linejoin="round" points="17.486 12.372 20.812 12.35 20.783 16.604 17.457 16.627" transform="rotate(43.256 19.135 14.488)"/>
      <polygon stroke-linecap="round" stroke-linejoin="round" points="19.429 15.856 22.755 15.834 22.736 18.67 19.41 18.693" transform="rotate(43.256 21.082 17.263)"/>
      <g stroke-linejoin="round" transform="translate(20.844 13.156)">
        <path d="M4.15590819 0L1.84746199 1.08199915 3.20165455 2.33909861 4.15590819 0zM1.84669577 1.08199915L0 1.94783999 2.43750071 4.21055863 3.20088833 2.33909861 1.84669577 1.08199915z"/>
      </g>
      <g stroke-linejoin="round" transform="translate(19.385 9.868)">
        <path d="M4.15590819 0L1.84746199 1.08199915 3.20165455 2.33909861 4.15590819 0zM1.84669577 1.08199915L0 1.94753809 2.43750071 4.21025673 3.20088833 2.33909861 1.84669577 1.08199915z"/>
      </g>
      <g stroke-linejoin="round" transform="translate(17.928 6.579)">
        <path d="M4.15457833,0 L1.84620862,1.08199915 L3.20040118,2.33909861 L4.15457833,0 Z"/>
        <path d="M1.84669577,1.08199915 L0,1.94753809 L2.43750071,4.21025673 L3.20088833,2.33909861 L1.84669577,1.08199915 Z"/>
      </g>
      <g stroke-linejoin="round" transform="translate(16.469 3.29)">
        <path d="M4.15457833,0 L1.84620862,1.08169725 L3.20032468,2.33879671 L4.15457833,0 Z"/>
        <path d="M1.84677227,1.08199915 L0,1.94783999 L2.43750071,4.21055863 L3.20088833,2.33909861 L1.84677227,1.08199915 Z"/>
      </g>
      <g stroke-linejoin="round" transform="translate(15.01)">
        <path d="M4.15465483,0 L1.84620862,1.08199915 L3.20040118,2.33909861 L4.15465483,0 Z"/>
        <path d="M1.84669577,1.08199915 L0,1.94753809 L2.43750071,4.21025673 L3.20088833,2.33909861 L1.84669577,1.08199915 Z"/>
      </g>
    </g>
    <line x2="162" stroke="#222F3C" stroke-linecap="round" stroke-linejoin="round" stroke-width=".5" transform="translate(72 147)"/>
    <g fill-rule="nonzero" stroke="#222F3C" stroke-width=".5" transform="translate(99 87)">
      <g transform="translate(28.204 2.434)">
        <g transform="translate(26.558)">
          <path d="M5.2905886 14.1686045C5.2905886 19.3910339 9.70918287 23.626228 15.1603109 23.626228 20.6101419 23.626228 25.0287362 19.3910339 25.0287362 14.1686045 25.0287362 13.5936582 25.0225565 13.0861551 24.9200203 12.539895M17.8820435 55.6092707L21.421073 55.6092707C22.2856197 55.6092707 22.9864733 56.3101243 22.9864733 57.1746711L22.9864733 57.5660067 22.9864733 57.5660067 17.8820435 57.5660067 17.8820435 55.6092707z"/>
          <path d="M7.33303213,55.6095344 L12.437462,55.6095344 L12.437462,56.00087 C12.437462,56.8654168 11.7366084,57.5662704 10.8720616,57.5662704 L7.33303213,57.5662704 L7.33303213,57.5662704 L7.33303213,55.6095344 Z" transform="rotate(180 9.885 56.588)"/>
          <g transform="translate(3.59 13.85)">
            <path d="M1.70123165.318600848C1.70123165.211179872 1.70619062.106200283 1.70992892 0 .75246638.0787346923 0 .847466049 0 1.78617889 0 2.77616084.838752446 3.57998711 1.87243053 3.57998711L2.30492895 3.57998711C1.91492509 2.56223441 1.70123165 1.46483148 1.70123165.318600848zM21.430674 0C21.4344123.106200283 21.4393713.211179872 21.4393713.318600848 21.4393713 1.46483148 21.2256778 2.56223441 20.835674 3.57998711L21.2681724 3.57998711C22.3018505 3.57998711 23.1406029 2.77616084 23.1406029 1.78617889 23.1406029.847466049 22.3881365.0787346923 21.430674 0z"/>
          </g>
          <g transform="translate(9.374 14.902)">
            <path d="M11.5709545 0C11.5709545.584711901 11.0759731 1.05986661 10.4647229 1.05986661 9.85347271 1.05986661 9.35849127.584711901 9.35849127 0M2.21246325 0C2.21246325.584711901 1.71748182 1.05986661 1.10623162 1.05986661.496278394 1.05986661 0 .584711901 0 0"/>
          </g>
          <path d="M13.2878675 19.4185874C13.2878675 20.4100952 14.1265437 21.2123956 15.160298 21.2123956 16.1927555 21.2123956 17.0315079 20.4100952 17.0315079 19.4185874M26.6099589 27.8711192C25.5262334 25.6448805 23.6913384 23.9047828 21.3913684 22.8974059 21.0888713 22.7121658 20.7476179 22.5833827 20.3801202 22.5235687 20.2614101 22.4985445 20.1401823 22.4848117 20.0188783 22.4848117 20.0001868 22.4848117 19.9826397 22.4860324 19.9651689 22.4860324L19.923895 22.4848117 19.8639296 22.4848117C18.4651951 23.2123447 16.8627613 23.6261596 15.160309 23.6261596 13.4565597 23.6261596 11.854126 23.2123447 10.4553915 22.4848117L10.3954261 22.4848117 10.3541522 22.4860324C10.3366814 22.4860324 10.3192106 22.4848117 10.3004428 22.4848117 10.179215 22.4848117 10.057911 22.4985445 9.93920093 22.5235687 9.57170315 22.5833827 9.23044977 22.7121658 8.92795264 22.8974059 6.62805895 23.9047828 4.7930877 25.6448805 3.70936217 27.8711192 3.62185544 28.0508662 3.54190159 28.2333598 3.46438909 28.4170741L6.80055479 29.1598657C7.04049261 28.6798282 7.33551314 28.2333598 7.67302823 27.8247328L7.67302823 36.7510497 22.6463692 36.7510497 22.6463692 27.8247328C22.9838079 28.2333598 23.2788285 28.6798282 23.5188426 29.1598657L26.854932 28.4170741C26.7787165 28.2333598 26.6974657 28.0508662 26.6099589 27.8711192z"/>
          <path d="M10.3879477 22.3485629C10.3879477 24.8775334 12.5266367 26.927382 15.1640455 26.927382 17.8027512 26.927382 19.9414403 24.8775334 19.9414403 22.3485629M24.3512701 34.1097315C24.6012785 33.9894932 24.8825665 33.9208293 25.181249 33.9208293 25.9050297 33.9208293 26.5312331 34.3160286 26.8425038 34.8921956 27.4912132 32.7172261 27.3199381 30.4772546 26.4862209 28.4985114L23.8938243 29.0771198C24.6412554 30.6084791 24.8399956 32.3833665 24.3512701 34.1097315z"/>
          <ellipse cx="25.181" cy="35.715" rx="1.872" ry="1.794"/>
          <path d="M2.7057095,33.3633901 C2.43815403,33.2361328 1.98192885,33.1671637 1.70193781,33.1671637 C2.94190902,31.8311153 3.76311435,30.1673109 3.80568519,28.4772616 L6.39556415,29.0671614 C6.22184764,31.1936084 5.33312404,33.2721433 3.74190522,34.9423563 C3.73061403,34.2935581 3.35319831,33.6734461 2.7057095,33.3633901 Z"/>
          <ellipse cx="1.872" cy="34.97" rx="1.872" ry="1.794"/>
          <path d="M15.1628303,0.487361642 C13.900353,0.487361642 12.6903645,0.725091585 11.5678827,1.15996343 C8.18922245,1.53502133 5.0918502,1.14745133 2.58566338,0 L2.58566338,3.16861361 C2.58566338,5.28254854 3.46309579,7.3061522 4.92561029,8.8848133 L4.92561029,8.8848133 C4.68681684,9.83237617 4.55559488,10.8287668 4.55559488,11.8587264 C4.55559488,12.5600145 4.61685722,13.2448232 4.73060835,13.9110163 C4.91431909,13.8447937 5.10932103,13.8072574 5.31309652,13.8072574 L5.31683482,13.8072574 C5.33560261,12.4348934 5.59804653,11.1247848 6.0618246,9.92728504 C6.52056741,10.2861688 7.01554884,10.6075162 7.5430306,10.8836979 C9.78417958,12.0598355 12.5353395,12.0372527 15.0990503,11.5123548 C16.4827554,11.2297644 18.0252237,11.081145 19.5826453,11.0762622 C21.3663484,11.1049485 23.1175512,11.3924217 24.8325154,11.9624853 C24.9400106,12.5612352 25.0000523,13.1773799 25.0087495,13.8072574 L25.0124878,13.8072574 C25.2162633,13.8072574 25.4112652,13.8447937 25.594976,13.9110163 C25.7049888,13.2637439 25.7650305,12.5987715 25.7687688,11.9173196 L25.7699895,11.8587264 C25.7699895,5.57856657 21.0213567,0.487361642 15.1628303,0.487361642 Z"/>
          <g transform="translate(7.673 37.952)">
            <path d="M7.50353096,5.46473696 L7.50353096,17.6423694 L14.274584,17.6423694 L14.274584,5.34358319 C15.0745802,4.41372037 14.9970677,1.28874653 14.9970677,0 L0,0.0524897949"/>
            <path d="M7.4944402,7.44500602 L7.4944402,17.6423694 L0.724607828,17.6423694 L0.724607828,5.34358319 C-0.0766090354,4.41372037 0.00212413952,1.28874653 0.00212413952,0 L14.9979712,0.0524897949"/>
          </g>
        </g>
        <g transform="translate(0 1.267)">
          <path d="M0.593703069,0 C0.597517661,0.106200283 0.60247663,0.211485046 0.60247663,0.318906021 C0.60247663,1.46513666 0.390003866,2.56376027 0,3.57998711 L0.432498419,3.57998711 C1.4662528,3.57998711 2.30370828,2.77646601 2.30370828,1.78617889 C2.30370828,0.847466049 1.55246257,0.0787346923 0.593703069,0 Z" transform="translate(24.383 12.642)"/>
          <g transform="translate(9.333 13.695)">
            <path d="M11.5697339 1.06017179C11.5697339.475154713 11.0747524 0 10.4635022 0 9.85347271 0 9.35849127.475154713 9.35849127 1.06017179M2.21124258 1.06017179C2.21124258.475154713 1.71626115 0 1.10623162 0 .494981433 0 0 .475154713 0 1.06017179"/>
          </g>
          <path d="M13.2462195 18.2110975C13.2462195 19.2023002 14.083675 20.0049057 15.1173531 20.0049057 16.1511074 20.0049057 16.9885629 19.2023002 16.9885629 18.2110975M27.5583256 32.0947532C27.8258811 31.9671908 28.2808093 31.8960855 28.5595797 31.8936441 27.334638 30.5871975 26.5296065 28.9548259 26.4996238 27.2910215L23.9159245 27.8925179C24.0721702 29.9847856 24.9409053 32.0248686 26.5146533 33.6572402 26.5296065 33.0185126 26.9109131 32.4048092 27.5583256 32.0947532z"/>
          <line x1="7.715" x2="24.26" y1="23.434" y2="23.434"/>
          <g stroke-linecap="round" stroke-linejoin="round" transform="translate(21.036 16.444)">
            <path d="M0 5.04878585C2.0886416 3.83511193 3.26117083 2.32145273 4.08107919 0"/>
          </g>
          <path d="M4.45519116,12.6986437 C3.86522639,13.0059531 3.46149,13.6196565 3.46149,14.3310153 C3.46149,15.042374 3.86522639,15.6597395 4.45519116,15.9673541 L4.45519116,12.6986437 Z"/>
          <g transform="translate(4.533)">
            <path d="M3.34619411 22.5334783C3.34619411 25.1958095 2.3061838 25.9895651.964973322 27.6722903L2.224933 27.9533548C2.46616778 27.4720966 2.75996764 27.0259334 3.0987034 26.6185271L3.0987034 35.574751 18.0707474 35.574751 18.0707474 26.6185271C18.4094831 27.0259334 18.703283 27.4720966 18.9445178 27.9533548L22.2793865 27.2096477C22.203171 27.0259334 22.1094083 26.8495433 22.0356341 26.6633876 21.0444505 24.1685965 17.9170193 21.7534556 15.3920647 21.1498229"/>
            <path stroke-linecap="round" stroke-linejoin="round" d="M21.1243702,12.6012128 L21.1243702,11.7525261 L21.1243702,10.5626557 C21.1243702,4.72896431 16.3945053,0 10.5622233,0 C4.728568,0 0,4.72896431 0,10.5626557"/>
            <path/>
          </g>
          <g transform="translate(3.418 .028)">
            <path/>
            <g transform="translate(0 10.421)">
              <path d="M4.46118038,11.7711514 L4.46118038,12.0848695 C4.46118038,14.7472007 3.4349026,15.5147114 2.09369212,17.1974366"/>
              <line x1="4.461" x2="4.461" y1="11.754" y2="11.879"/>
              <path d="M6.89231861,10.7286602 C6.11231088,10.9148158 5.27607606,11.2898737 4.46112667,11.7711319"/>
              <line x1="1.117" x2="1.242" y1="17.009" y2="14.729" stroke-linecap="round" stroke-linejoin="round"/>
              <path stroke-linecap="square" d="M1.11618984,17.0085539 L1.11496918,18.5637166 C1.44622833,18.0473635 1.75871969,17.6161538 2.06869342,17.2285838"/>
              <line x1="1.12" x2="1.245" y1="14.729" stroke-linecap="round" stroke-linejoin="round"/>
              <path stroke-linecap="round" stroke-linejoin="round"/>
              <path d="M0,16.9345726 C0.155025011,16.4023505 0.801216863,15.19478 1.11500519,14.6723234"/>
            </g>
            <path stroke-linecap="round" stroke-linejoin="round" d="M1.1612179 10.5626557C1.1612179 4.72896431 5.88986219 0 11.7234412 0 17.5557994 0 22.2418729 4.67006588 22.2418729 10.5037573"/>
            <path/>
          </g>
          <g transform="translate(7.879 6.554)">
            <path d="M16.9845463 5.03352719C16.4495117 4.9160355 15.910815 4.78236962 15.5108169 4.63619165 12.4571599 3.52475076 10.68841 1.86125151 9.95967033 0 7.09605626 1.58751112 3.48112019 2.73496245 2.56737287 3.58609058 1.25248307 4.81349729 0 6.57495715 0 8.37486884L0 12.7461701M16.9932802 5.03120787L17.1182767 5.15620683 16.9932802 5.03120787"/>
            <line y1="12.746" y2="15.649"/>
            <path d="M16.8332596 4.86870923C16.9982788 5.36247951 17.1207272 5.84739977 17.1207272 6.34727351 17.1207272 11.5697029 12.702133 15.804897 7.25230194 15.804897 4.38113498 15.804897 1.80369159 14.6223507 0 12.7461457"/>
          </g>
          <line x1="4.685" x2="3.464" y1="27.502" y2="27.132"/>
          <path d="M17.8123127,54.3417813 L21.3513422,54.3417813 C22.215889,54.3417813 22.9167426,55.0426349 22.9167426,55.9071817 L22.9167426,56.2985173 L22.9167426,56.2985173 L17.8123127,56.2985173 L17.8123127,54.3417813 Z"/>
          <path d="M7.26263491,54.342045 L12.3670648,54.342045 L12.3670648,54.7333807 C12.3670648,55.5979274 11.6662112,56.298781 10.8016645,56.298781 L7.26263491,56.298781 L7.26263491,56.298781 L7.26263491,54.342045 Z" transform="rotate(180 9.815 55.32)"/>
          <g transform="translate(7.604 36.685)">
            <path d="M7.50353096,5.46473696 L7.50353096,17.6423694 L14.2746603,17.6423694 L14.2746603,5.34358319 C15.0745802,4.41372037 14.995847,1.28874653 14.995847,0 L0,0.0524897949"/>
            <path d="M7.49444562,7.44500602 L7.49444562,17.6423694 L0.723392578,17.6423694 L0.723392578,5.34358319 C-0.0766036158,4.41372037 0.00212955911,1.28874653 0.00212955911,0 L14.9979766,0.0524897949"/>
          </g>
          <path d="M3.8065067 27.2097722C3.76271519 28.8998215 2.94150986 30.5636259 1.70153865 31.8996743 1.98152969 31.8996743 2.43905183 31.9686435 2.70523405 32.0959007 3.35401982 32.4059567 3.73151183 33.0260687 3.74150606 33.674867 5.33394555 32.0046539 6.22266915 29.9273397 6.39516499 27.799672"/>
          <ellipse cx="1.872" cy="33.702" rx="1.872" ry="1.794"/>
        </g>
        <path/>
      </g>
      <g transform="translate(10.965 17.396)">
        <path d="M11.5697339 1.06017179C11.5697339.475154713 11.0747524 0 10.4635022 0 9.85347271 0 9.35849127.475154713 9.35849127 1.06017179M2.21246325 1.06017179C2.21246325.475154713 1.71626115 0 1.10623162 0 .494981433 0 0 .475154713 0 1.06017179"/>
      </g>
      <path d="M14.8783387,21.9123165 C14.8783387,22.9035192 15.7157942,23.7061247 16.7494722,23.7061247 C17.7832266,23.7061247 18.6206821,22.9035192 18.6206821,21.9123165"/>
      <ellipse cx="6.728" cy="38.209" rx="1.872" ry="1.794"/>
      <path d="M30.1916989,35.5948631 C28.9667572,34.2884165 28.1617257,32.6560449 28.131743,30.9922405 L25.5480437,31.5937369 C25.7042894,33.6860046 26.5730245,35.7260876 28.1467725,37.3584592"/>
      <g transform="translate(5.077 24.851)">
        <path d="M2.05244326 6.52246736L3.31240293 6.8035319C3.55363772 6.32227372 3.84743758 5.87611047 4.18617333 5.46870421L4.18617333 14.424928 19.1582173 14.424928 19.1582173 5.46870421C19.496953 5.87611047 19.7907529 6.32227372 20.0319877 6.8035319L23.3668564 6.05982475C23.2906409 5.87611047 23.1968782 5.69972034 23.123104 5.51356467 22.1319205 3.01877355 19.0044892.603632641 16.4795346 0"/>
        <path d="M3.33486874 6.8035319L0 6.05982475C.0762155443 5.87611047.169978211 5.69972034.243752416 5.51356467 1.23493595 3.01877355 4.36236719.603632641 6.88724551 0"/>
      </g>
      <g transform="translate(4.826 16.217)">
        <path/>
        <g transform="translate(0 14)">
          <path/>
          <path stroke-linecap="round" stroke-linejoin="round" d="M0.693610855,1 C-0.102647039,2.48497292 -0.153915153,5.8635457 0.239827014,7.16846642 C0.77608233,6.28865201 1.78481299,5.98347878 2.7322813,6.38600227 C2.26980019,4.71365299 2.43100484,2.91496199 3.18972715,1.35369577"/>
          <path stroke-linecap="square"/>
          <path/>
        </g>
        <path stroke-linecap="round" stroke-linejoin="round"/>
        <path/>
      </g>
      <path d="M19.4445137 58.0430003L22.9835432 58.0430003C23.84809 58.0430003 24.5489436 58.7438539 24.5489436 59.6084007L24.5489436 59.9997363 24.5489436 59.9997363 19.4445137 59.9997363 19.4445137 58.0430003z"/>
      <path d="M8.89475409,58.043264 L13.999184,58.043264 L13.999184,58.4345996 C13.999184,59.2991464 13.2983303,60 12.4337836,60 L8.89475409,60 L8.89475409,60 L8.89475409,58.043264 Z" transform="rotate(180 11.447 59.022)"/>
      <g transform="translate(9.236 40.386)">
        <path d="M7.50353096,5.46473696 L7.50353096,17.6423694 L14.274584,17.6423694 L14.274584,5.34358319 C15.0745802,4.41372037 14.995847,1.28874653 14.995847,0 L0,0.0524897949"/>
        <path d="M7.49444562,7.44500602 L7.49444562,17.6423694 L0.723392578,17.6423694 L0.723392578,5.34358319 C-0.0766036158,4.41372037 0.00212955911,1.28874653 0.00212955911,0 L14.9979766,0.0524897949"/>
      </g>
      <path d="M8.56728451,15.0773957 C11.4721725,14.0288205 13.2084221,12.4812871 13.9896505,10.7424101 C15.5833106,13.0498248 19.2082409,14.6623601 23.4306126,14.6623601 C24.3630514,14.6623601 25.3980265,14.5824048 26.3918039,14.4337854 C26.5230259,15.067325 26.5917648,15.7237526 26.5917648,16.3948285 C26.5917648,21.7448204 22.2206241,26.0822474 16.8270201,26.0822474 C11.4334162,26.0822474 7.06105479,21.7448204 7.06105479,16.3948285 C7.06105479,16.0899605 7.07730495,15.7887545 7.10477001,15.4912106 C7.61851924,15.368531 8.14104202,15.231203 8.56728451,15.0773957 Z"/>
      <path d="M3.00490655,18.7174946 L3.00490655,5.96247449 C3.00490655,2.66996055 5.69610107,0 9.01471965,0 C11.5933837,0 13.7908175,1.61253533 14.6433024,3.87631032 C14.1845596,3.77865488 13.709643,3.72616509 13.2208412,3.72616509 C9.48719499,3.72616509 6.45978235,6.72876446 6.45978235,10.4335674 C6.45978235,10.7585769 6.4873237,11.0787036 6.53233589,11.391201 L6.53233589,11.391201 C6.55858028,11.5660653 6.58856297,11.740014 6.62731922,11.9112162 L6.63853412,11.8687971 C6.42484069,12.6961217 6.3097926,13.5637292 6.3097926,14.4572764 C6.3097926,14.8637671 6.33603699,15.2635441 6.38104917,15.6575227 C6.40859053,15.8873181 6.44482915,16.1149774 6.48602674,16.33989 C5.77361357,16.5785355 5.25856739,17.2462545 5.25856739,18.0348221 C5.25856739,19.0223627 6.06604018,19.8222217 7.06103831,19.8222217 L7.69227696,19.8222217 L7.69227696,19.8222217 C8.01598322,20.6712136 8.4572552,21.4610019 8.99473119,22.1760228 C8.78225842,24.4510892 6.85482148,26.2311646 4.50739797,26.2311646 C2.01868198,26.2311646 0,24.2298386 0,21.7597665 L0,20.2699108 C1.2662156,21.1485046 3.00490655,20.2509901 3.00490655,18.7174946 Z"/>
      <path d="M16.8270366,4.0249663 C22.5718882,4.0249663 27.2380495,8.59493536 27.3392887,14.2699367 C27.3392887,14.3324972 27.343027,14.3950577 27.343027,14.457313 C27.343027,15.1012285 27.2817647,15.7298854 27.1692342,16.3411474 C26.9880411,16.2798075 26.7942599,16.2462385 26.5917813,16.2462385 L26.588043,16.2462385 C26.5792695,15.6261265 26.5130481,15.0200525 26.3918204,14.4338147 L26.3930411,14.4338147 C25.3993399,14.5824341 24.3630679,14.6623894 23.4306291,14.6623894 C19.2082574,14.6623894 15.5833271,13.0498541 13.9896669,10.7424393 C13.2084385,12.4813164 11.4721889,14.0288498 8.56730099,15.077425 C7.58232252,15.355743 7.09481769,15.4936813 7.10478649,15.4912399 C7.08235669,15.7399561 7.06854787,15.9923344 7.06480957,16.2462385 L7.06107127,16.2462385 C6.8598134,16.2462385 6.6673291,16.2798075 6.4860597,16.3399267 C6.44486211,16.115014 6.40862349,15.8873548 6.38108213,15.6575593 C6.33606995,15.2635807 6.30982556,14.8638038 6.30982556,14.457313 C6.30982556,8.69503218 11.0184814,4.0249663 16.8270366,4.0249663 Z"/>
      <path d="M0.167536872,8.18505109 C0.060041675,7.70867569 0,7.21490541 0,6.70740233 C0,3.00259937 3.02741264,0 6.76105881,0 C7.55479907,0 8.31603901,0.137633125 9.02349321,0.386349304 C4.7061382,0.932609379 1.20747089,4.07375739 0.167536872,8.18505109 Z" transform="translate(6.46 3.726)"/>
      <path d="M26.5917709,16.3947333 C26.5917709,16.3446849 26.5892533,16.2961624 26.5880326,16.246114 L26.5917709,16.246114 C27.5879897,16.246114 28.3954625,17.045973 28.3954625,18.0347342 C28.3954625,19.0222748 27.5879897,19.8221338 26.5917709,19.8221338 L25.9605323,19.8221338 C26.368007,18.7573844 26.5917709,17.6023038 26.5917709,16.3947333 Z"/>
      <g transform="translate(15.903 31.791)">
        <ellipse cx=".741" cy=".741" rx="1" ry="1"/>
        <ellipse cx=".741" cy="3.128" rx="1" ry="1"/>
      </g>
    </g>
    <g fill-rule="nonzero" stroke="#222F3C" stroke-width=".5" transform="translate(78 70)">
      <path d="M60,4.44905566 C60,1.99152877 58.0346183,0 55.61066,0 L4.39055013,0 C1.96659191,0 0,1.99152877 0,4.44905566 L0,33.5521707 C0,36.0084712 1.96659191,38 4.39055013,38 L19.4121629,38"/>
      <line x1="60.001" x2="60.001" y1="4.449" y2="19.415"/>
      <rect width="15" height="5.067" x="22.501" y=".128"/>
    </g>
  </g>
</svg>
