<?xml version="1.0" encoding="utf-8"?>
<!-- Generator: Adobe Illustrator 25.2.3, SVG Export Plug-In . SVG Version: 6.00 Build 0)  -->
<svg version="1.1" id="Layer_1" xmlns="http://www.w3.org/2000/svg" xmlns:xlink="http://www.w3.org/1999/xlink" x="0px" y="0px"
	 viewBox="0 0 399 200" style="enable-background:new 0 0 399 200;" xml:space="preserve">
<style type="text/css">
	.st0{fill:#333838;}
	.st1{fill:none;stroke:#222F3C;stroke-width:0.5;stroke-linecap:round;stroke-linejoin:round;}
	.st2{fill:none;stroke:#222F3C;stroke-width:0.5;}
	.st3{fill:none;stroke:#222F3C;stroke-width:0.25;stroke-linecap:round;stroke-linejoin:round;}
	.st4{fill:#222F3C;}
	.st5{fill:none;stroke:#222F3C;stroke-width:0.5;stroke-linejoin:round;}
	.st6{fill:none;stroke:#222F3C;stroke-width:0.5;stroke-linecap:round;}
</style>
<g>
	<g transform="translate(159 65)">
		<g transform="translate(0 12.022)">
			<path class="st0" d="M24.8,40.8c0.4,0,0.9-0.1,1.2-0.3c0.5-0.3,0.8-0.8,0.8-1.3c0-0.5-0.2-1.1-1.3-1.7c-0.8-0.5-1.2-0.8-1.2-1.3
				c0-0.6,0.5-0.9,0.9-0.9c0.3,0,0.5,0.1,0.7,0.2c0.1,0.1,0.3,0.3,0.4,0.6c0,0.1,0.2,0.2,0.3,0.2c0.1,0,0.1-0.1,0.1-0.2
				c0,0-0.1-0.7-0.1-0.8c0,0-0.1-0.2-0.1-0.2c-0.2,0-0.7-0.1-1.1-0.1c-0.7,0-1.1,0.2-1.4,0.4c-0.3,0.2-0.5,0.6-0.5,1.1
				c0,0.8,0.5,1.3,1.4,1.8c0.8,0.5,1,0.9,1,1.2c0,0.6-0.5,0.9-0.9,0.9c-0.4,0-1-0.3-1.2-0.8c-0.1-0.3-0.3-0.5-0.3-0.5
				c0,0-0.1,0.1-0.1,0.2c0,0.3,0.1,0.6,0.1,0.9c0,0,0.2,0.2,0.2,0.3C23.9,40.7,24.3,40.8,24.8,40.8z M31,40.8c0.8,0,1.4-0.2,1.5-0.3
				c0.1-0.1,0.3-0.2,0.3-0.3c0.1-0.2,0.2-0.5,0.3-0.8c0-0.1,0-0.3-0.1-0.3c-0.1,0-0.1,0.1-0.2,0.3c-0.2,0.4-0.4,0.6-0.8,0.8
				c-0.3,0.2-0.7,0.2-0.8,0.2c-0.7,0-1.5-0.3-2-1.3c-0.2-0.4-0.3-0.9-0.3-1.5c0-1.3,0.7-2.4,2-2.4c0.5,0,0.9,0.2,1.3,0.5
				c0.1,0.1,0.3,0.3,0.4,0.6c0,0.1,0.1,0.2,0.2,0.2c0.1,0,0.2-0.1,0.1-0.3c0-0.3,0-0.6,0-0.8c0-0.1-0.1-0.2-0.1-0.2
				c-0.2,0-0.4-0.1-0.6-0.1C31.8,35.1,31.4,35,31,35c-0.7,0-1.6,0.2-2.4,0.8c-0.4,0.3-1,1-1,2.1c0,1,0.4,1.6,0.7,2
				C28.8,40.3,29.7,40.8,31,40.8z M38,40.7c0.2,0,0.9,0,1.1,0c0.3,0,0.7,0,0.9,0c0.2,0,0.3,0,0.3-0.1c0-0.1-0.1-0.1-0.2-0.2
				c-0.3-0.1-0.4-0.1-0.4-0.5c0-0.3,0-0.7,0-1.3l0-0.2c0-1.2,0-2,0.1-2.4c0-0.3,0.1-0.4,0.4-0.5c0.2-0.1,0.3-0.1,0.3-0.2
				c0-0.1-0.1-0.1-0.3-0.1c-0.1,0-0.7,0-0.9,0c-0.2,0-0.9,0-1,0c-0.2,0-0.3,0.1-0.3,0.1c0,0.1,0.1,0.1,0.3,0.2
				c0.3,0.1,0.4,0.2,0.4,0.5c0,0.3,0,1.4,0,1.5c0,0.1,0,0.2-0.1,0.2c-0.9,0-2.1,0-2.7,0c-0.1,0-0.1,0-0.1-0.1c0-0.2,0-1.2,0-1.5
				c0-0.4,0-0.5,0.4-0.6c0.2,0,0.3-0.1,0.3-0.2c0-0.1-0.1-0.1-0.3-0.1c-0.2,0-0.6,0-1,0c-0.2,0-0.7,0-0.9,0c-0.2,0-0.3,0-0.3,0.1
				c0,0.1,0.1,0.1,0.3,0.2c0.3,0.1,0.4,0.2,0.4,0.5c0,0.3,0,0.8,0,1.1c0,1.2,0,2.5-0.1,2.8c0,0.4-0.1,0.5-0.5,0.6
				c-0.1,0-0.2,0.1-0.2,0.2c0,0.1,0.1,0.1,0.3,0.1c0.3,0,0.7,0,0.9,0c0.3,0,1,0,1.1,0c0.1,0,0.3,0,0.3-0.1c0-0.1-0.1-0.1-0.2-0.2
				l-0.1,0c-0.4-0.1-0.4-0.2-0.4-0.6c0-0.3,0-1.2,0-1.5c0-0.1,0.1-0.1,0.1-0.1c0.2,0,2,0,2.7,0c0,0,0.1,0,0.1,0.1c0,0.2,0,1.1,0,1.4
				c0,0.6-0.1,0.7-0.5,0.8c-0.1,0-0.2,0.1-0.2,0.2S37.8,40.7,38,40.7z M44.1,40.8c0.7,0,1.4-0.2,1.9-0.6c0.6-0.5,1.1-1.2,1.1-2.4
				c0-1.4-1.1-2.8-3-2.8c-0.7,0-1.5,0.3-1.9,0.6c-0.7,0.5-1.1,1.2-1.1,2.3c0,0.8,0.3,1.5,0.7,2C42.4,40.5,43.2,40.8,44.1,40.8z
				 M44.3,40.5c-1.3,0-2.1-1.5-2.1-2.8c0-1,0.3-1.7,0.6-1.9c0.2-0.2,0.6-0.4,1-0.4c0.4,0,0.9,0.2,1.2,0.5c0.6,0.6,0.9,1.6,0.9,2.3
				c0,0.9-0.3,1.7-0.7,2C45.1,40.3,44.8,40.5,44.3,40.5z M51,40.8c0.7,0,1.4-0.2,1.9-0.6c0.6-0.5,1.1-1.2,1.1-2.4
				c0-1.4-1.1-2.8-3-2.8c-0.7,0-1.5,0.3-1.9,0.6c-0.7,0.5-1.1,1.2-1.1,2.3c0,0.8,0.3,1.5,0.7,2C49.3,40.5,50.1,40.8,51,40.8z
				 M51.3,40.5c-1.3,0-2.1-1.5-2.1-2.8c0-1,0.3-1.7,0.6-1.9c0.2-0.2,0.6-0.4,1-0.4c0.4,0,0.9,0.2,1.2,0.5c0.6,0.6,0.9,1.6,0.9,2.3
				c0,0.9-0.3,1.7-0.7,2C52.1,40.3,51.8,40.5,51.3,40.5z M58.9,40.7c0,0,0.2-0.1,0.2-0.1c0.1-0.2,0.2-0.7,0.3-1c0-0.1,0-0.2,0-0.2
				s-0.2,0.1-0.2,0.2c-0.2,0.4-0.4,0.6-0.5,0.7c-0.1,0.1-0.2,0.1-0.3,0.1c-0.2,0-0.4,0-0.6,0c-0.2,0-0.6,0-0.7,0
				c0,0-0.3-0.1-0.3-0.3c0-0.3,0-1,0-1.6c0-1.3,0-2.2,0.1-2.6c0-0.1,0.1-0.2,0.5-0.3c0.1,0,0.2-0.1,0.2-0.2c0-0.1-0.1-0.1-0.3-0.1
				c-0.2,0-0.8,0-1.2,0c-0.3,0-0.6,0-0.9,0c-0.2,0-0.3,0-0.3,0.1c0,0.1,0.1,0.1,0.2,0.2c0.4,0.1,0.4,0.2,0.5,0.5c0,0.1,0,0.3,0,0.5
				l0,0.9c0,1.3,0,2.2,0,2.4c0,0.4-0.1,0.5-0.6,0.6c-0.1,0-0.2,0.1-0.2,0.2c0,0.1,0.1,0.1,0.3,0.1c0.3,0,0.9-0.1,1.3-0.1
				C58,40.7,58.8,40.7,58.9,40.7z"/>
			<g transform="translate(23.55 49.28)">
				<path class="st1" d="M34.5,24.6c0.3,0,0.5-0.2,0.5-0.5v-2.6c0-0.4-0.3-0.8-0.8-0.8h-5.7V0.8c0-0.4-0.3-0.8-0.8-0.8H17.5H7.2
					C6.8,0,6.5,0.3,6.5,0.8v19.9H0.8c-0.4,0-0.8,0.3-0.8,0.8v2.6c0,0.3,0.2,0.5,0.5,0.5"/>
				<line class="st1" x1="17.5" y1="20.6" x2="17.5" y2="0.2"/>
			</g>
			<path class="st2" d="M42.9,8c1.5,0,2.6-0.4,3.6-0.7c0.8-0.3,1.6-0.5,2.3-0.5c0.8,0,1.5,0.2,2.4,0.8c0.1,0.1,0.2,0.1,0.3,0.1
				c0.1,0,0.2,0,0.3-0.1c0.2-0.1,0.3-0.3,0.3-0.5V0.8c0-0.2-0.1-0.4-0.3-0.5C51.4,0.1,51,0,50.4,0c-0.8,0-1.7,0.3-2.7,0.5
				c-1.1,0.3-2.2,0.7-3.4,0.7l0,0c-1,0-1.9-0.2-2.8-0.7c-0.2-0.1-0.4-0.1-0.6,0c-0.2,0.1-0.3,0.3-0.3,0.5v11.9"/>
			<path class="st1" d="M0,36.2v-4l40.6-19.6l41.5,19.6v4"/>
			<path class="st1" d="M4.1,73.6V34.8l36.5-17.6L78,34.8v38.9"/>
		</g>
		<g transform="translate(77.977 36.607)">
			<g transform="translate(0 13.674)">
				<g transform="translate(19.135 27.898)">
					<g transform="translate(7.642)">
						<line class="st1" x1="0" y1="7.8" x2="0" y2="0"/>
						<line class="st1" x1="0" y1="7.8" x2="3.8" y2="7.8"/>
					</g>
					<line class="st1" x1="3.8" y1="7.8" x2="3.8" y2="0"/>
					<line class="st1" x1="3.8" y1="7.8" x2="0" y2="7.8"/>
				</g>
				<path class="st1" d="M35.4,2.5c-1-1-2.2-1.9-3.4-2.5H17.6c-1.2,0.7-2.3,1.5-3.4,2.5c-5.8,5.8-5.8,15.3,0,21.1
					c5.8,5.8,15.3,5.8,21.1,0C41.2,17.8,41.2,8.3,35.4,2.5z"/>
				<g transform="translate(23.002 12.66)">
					<line class="st1" x1="2.5" y1="1" x2="5.2" y2="3.6"/>
					<line class="st1" x1="0" y1="2.3" x2="1.2" y2="1.1"/>
					<ellipse class="st1" cx="1.9" cy="0.6" rx="1" ry="1"/>
				</g>
				<ellipse class="st3" cx="24.8" cy="13.1" rx="12.5" ry="12.4"/>
				<g transform="translate(35.405 22.022)">
					<path class="st1" d="M0,1.6c2.9,2.9,7.7,2.9,10.6,0 M11.9,0.3c-0.4-0.4-1-0.4-1.3,0c-0.4,0.4-0.4,1,0,1.3c0.4,0.4,1,0.4,1.3,0
						C12.3,1.2,12.3,0.6,11.9,0.3z"/>
				</g>
				<g transform="translate(0 16.331)">
					<path class="st1" d="M11.9,4.1C10,0.4,5.5-1.1,1.8,0.8 M0.1,1.7c0.2,0.5,0.8,0.6,1.3,0.4C1.8,1.8,2,1.3,1.8,0.8
						C1.5,0.4,1,0.2,0.5,0.4S-0.1,1.2,0.1,1.7z"/>
				</g>
				<line class="st1" x1="47.3" y1="22.1" x2="58" y2="5.8"/>
			</g>
			<g transform="translate(9.891)">
				<path class="st1" d="M22.5,7.5l7.4-2.4L14.9,0L0,5.1l7.5,2.4"/>
				<path class="st1" d="M22.4,5.1v8.6H7.5V5.1v0c0-0.7,3.3-1.3,7.5-1.3S22.4,4.4,22.4,5.1L22.4,5.1z"/>
				<line class="st1" x1="0" y1="5.1" x2="0" y2="9.2"/>
			</g>
			<path class="st4" d="M24.4,36.6c0-0.3,0.2-0.5,0.4-0.5l0,0c0.2,0,0.5,0.2,0.5,0.4l0,0c0,0.3-0.2,0.5-0.4,0.5l0,0l0,0l0,0h0l0,0
				C24.6,37,24.4,36.8,24.4,36.6z M19.8,35.7c-0.2-0.1-0.4-0.3-0.3-0.6l0,0c0.1-0.2,0.3-0.4,0.6-0.3l0,0c0.2,0.1,0.4,0.3,0.3,0.6
				l0,0c-0.1,0.2-0.3,0.3-0.4,0.3l0,0C19.9,35.7,19.8,35.7,19.8,35.7z M29.3,35.5c-0.1-0.2,0-0.5,0.2-0.6l0,0c0.2-0.1,0.5,0,0.6,0.2
				l0,0c0.1,0.2,0,0.5-0.2,0.6l0,0c-0.1,0-0.1,0-0.2,0l0,0C29.6,35.7,29.4,35.6,29.3,35.5z M15.9,31.8c-0.1-0.2,0-0.5,0.2-0.6l0,0
				c0.2-0.1,0.5,0,0.6,0.2l0,0c0.1,0.2,0,0.5-0.2,0.6l0,0c-0.1,0-0.1,0.1-0.2,0.1l0,0C16.1,32.1,16,32,15.9,31.8z M33.2,32.1
				c-0.2-0.1-0.4-0.4-0.3-0.6l0,0c0.1-0.2,0.4-0.4,0.6-0.3l0,0c0.2,0.1,0.3,0.4,0.3,0.6l0,0c-0.1,0.2-0.2,0.3-0.4,0.3l0,0
				C33.3,32.1,33.2,32.1,33.2,32.1z M14.6,26.8L14.6,26.8L14.6,26.8c0-0.3,0.1-0.5,0.4-0.5l0,0c0.2,0,0.5,0.1,0.5,0.4l0,0
				c0,0.2-0.1,0.5-0.4,0.5l0,0H15l0,0C14.8,27.2,14.6,27,14.6,26.8z M34.3,26.7L34.3,26.7c0-0.3,0.2-0.5,0.5-0.5l0,0
				c0.3,0,0.5,0.2,0.5,0.5l0,0c0,0.2-0.2,0.5-0.5,0.5l0,0C34.6,27.2,34.3,27,34.3,26.7z M16.1,22.2c-0.2-0.1-0.2-0.4-0.1-0.6l0,0
				c0.1-0.2,0.4-0.2,0.6-0.1l0,0c0.2,0.1,0.3,0.4,0.1,0.6l0,0c-0.1,0.1-0.2,0.2-0.4,0.2l0,0C16.3,22.3,16.2,22.3,16.1,22.2z
				 M33,22.1L33,22.1c-0.1-0.2-0.1-0.5,0.1-0.7l0,0c0.2-0.1,0.5-0.1,0.7,0.1l0,0c0.1,0.2,0.1,0.5-0.1,0.6l0,0
				c-0.1,0.1-0.2,0.1-0.3,0.1l0,0C33.2,22.3,33.1,22.2,33,22.1z M19.5,18.5c-0.1-0.2-0.1-0.5,0.1-0.6l0,0c0.2-0.1,0.5-0.1,0.6,0.1
				l0,0c0.1,0.2,0.1,0.5-0.1,0.6l0,0c-0.1,0-0.2,0.1-0.2,0.1l0,0C19.8,18.7,19.6,18.6,19.5,18.5z M29.5,18.7
				c-0.2-0.1-0.3-0.4-0.1-0.6l0,0c0.1-0.2,0.4-0.3,0.6-0.1l0,0c0.2,0.1,0.3,0.4,0.1,0.6l0,0c-0.1,0.1-0.2,0.2-0.4,0.2l0,0
				C29.7,18.7,29.6,18.7,29.5,18.7z M24.8,17.5c-0.3-0.1-0.4-0.3-0.4-0.5l0,0c0-0.2,0.3-0.4,0.5-0.4l0,0c0.2,0,0.4,0.3,0.4,0.5l0,0
				C25.3,17.3,25.1,17.5,24.8,17.5L24.8,17.5L24.8,17.5z"/>
			<g transform="translate(19.642 21.951)">
				<path class="st5" d="M3.4,0c0,0.8-0.8,1.4-1.7,1.4C0.8,1.4,0,0.8,0,0 M10.7,0c0,0.8-0.8,1.4-1.7,1.4C8,1.4,7.3,0.8,7.3,0"/>
			</g>
			<line class="st6" x1="19.8" y1="24.5" x2="19.8" y2="27.7"/>
			<line class="st6" x1="30.3" y1="24.5" x2="30.2" y2="27.7"/>
		</g>
		<g transform="translate(14.897)">
			<path class="st2" d="M42.9,8c1.5,0,2.6-0.4,3.6-0.7c0.8-0.3,1.6-0.5,2.3-0.5c0.8,0,1.5,0.2,2.4,0.8c0.1,0.1,0.2,0.1,0.3,0.1
				c0.1,0,0.2,0,0.3-0.1c0.2-0.1,0.3-0.3,0.3-0.5V0.8c0-0.2-0.1-0.4-0.3-0.5C51.4,0.1,51,0,50.4,0c-0.8,0-1.7,0.3-2.7,0.5
				c-1.1,0.3-2.2,0.7-3.4,0.7l0,0c-1,0-1.9-0.2-2.8-0.7c-0.2-0.1-0.4-0.1-0.6,0c-0.2,0.1-0.3,0.3-0.3,0.5v11.9"/>
			<g transform="translate(0 12.611)">
				<path class="st1" d="M40.6,0l41.5,19.6v4"/>
				<line class="st1" x1="0" y1="23.6" x2="0" y2="19.6"/>
				<line class="st1" x1="37.6" y1="1.6" x2="40.6" y2="0"/>
				<line class="st1" x1="0" y1="19.6" x2="25.6" y2="7.2"/>
			</g>
		</g>
	</g>
	<line class="st1" x1="150" y1="150.9" x2="312" y2="150.9"/>
	<g transform="translate(74 107)">
		<g transform="translate(24.56)">
			<path class="st2" d="M18.7,48.7V55h3.5l0.4-6.3H18.7z M9.1,48.7L9.5,55H13v-6.3H9.1z M26,12c-0.4-0.1-0.8-0.2-1.1-0.3
				c-3.2-1.1-5.1-2.8-6-4.6c-1.8,2.4-5.7,4.2-10.4,4.2c-0.8,0-1.8-0.1-2.7-0.2c-0.2,0.8-0.4,1.7-0.4,2.7c0,5.4,4.6,9.9,10.3,9.9
				c5.7,0,10.3-4.4,10.3-9.9C26.1,13.2,26.1,12.6,26,12z M18.7,55h3.7c0.9,0,1.6,0.7,1.6,1.6V57l0,0h-5.3V55z"/>
			<path class="st2" d="M13,57H7.7v-0.4c0-0.9,0.7-1.6,1.6-1.6H13l0,0V57z"/>
			<path class="st2" d="M15.8,44v4.7h7.8V37.3H8v11.3h7.8L15.8,44"/>
			<g transform="translate(3.749 13.45)">
				<path class="st2" d="M1.8,0.3c0-0.1,0-0.2,0-0.3C0.8,0.1,0,0.9,0,1.9c0,1,0.9,1.9,2,1.9h0.5C2,2.7,1.8,1.5,1.8,0.3z M22.4,0
					c0,0.1,0,0.2,0,0.3c0,1.2-0.2,2.3-0.6,3.4h0.5c1.1,0,2-0.8,2-1.9C24.2,0.9,23.4,0.1,22.4,0z"/>
			</g>
			<g transform="translate(9.788 14.547)">
				<path class="st2" d="M12.1,0c0,0.6-0.5,1.1-1.2,1.1c-0.6,0-1.2-0.5-1.2-1.1 M2.3,0c0,0.6-0.5,1.1-1.2,1.1C0.5,1.1,0,0.6,0,0"/>
			</g>
			<path class="st2" d="M13.9,19.3c0,1,0.9,1.9,2,1.9s2-0.8,2-1.9 M27.8,28.1c-1.1-2.3-3-4.1-5.4-5.2c-0.3-0.2-0.7-0.3-1.1-0.4
				c-0.1,0-0.3,0-0.4,0c0,0,0,0-0.1,0l0,0h-0.1c-1.5,0.8-3.1,1.2-4.9,1.2c-1.8,0-3.5-0.4-4.9-1.2h-0.1l0,0c0,0,0,0-0.1,0
				c-0.1,0-0.3,0-0.4,0c-0.4,0.1-0.7,0.2-1.1,0.4c-2.4,1.1-4.3,2.9-5.4,5.2c-0.1,0.2-0.2,0.4-0.3,0.6l3.5,0.8c0.3-0.5,0.6-1,0.9-1.4
				v9.3h15.6V28c0.4,0.4,0.7,0.9,0.9,1.4l3.5-0.8C28,28.5,27.9,28.3,27.8,28.1z M15.8,0C9.5,0,4.4,4.9,4.3,10.9c0,0.1,0,0.1,0,0.2
				c0,0.9,0.1,1.8,0.3,2.7c0.3-0.2,0.6-0.3,0.9-0.3c0-0.8,0.2-1.6,0.4-2.3c0.9,0.1,1.8,0.2,2.7,0.2c4.6,0,8.6-1.7,10.4-4.2
				c0.9,1.8,2.8,3.5,6,4.6c0.3,0.1,0.7,0.2,1.1,0.3c0.1,0.5,0.1,0.9,0.2,1.4c0.3,0,0.6,0.1,0.9,0.3c0.1-0.5,0.2-0.9,0.3-1.4
				c0.1-0.4,0.1-0.8,0.1-1.3C27.4,5,22.2,0,15.8,0z"/>
			<path class="st2" d="M25.4,34.6c0.3-0.1,0.6-0.2,0.9-0.2c0.8,0,1.4,0.4,1.7,1c0.7-2.3,0.5-4.6-0.4-6.7l-2.7,0.6
				C25.7,30.9,25.9,32.8,25.4,34.6z"/>
			<ellipse class="st2" cx="26.3" cy="36.3" rx="2" ry="1.9"/>
			<path class="st2" d="M2.8,33.8c-0.3-0.1-0.8-0.2-1-0.2c1.3-1.4,2.2-3.1,2.2-4.9l2.7,0.6c-0.2,2.2-1.1,4.4-2.8,6.1
				C3.9,34.8,3.5,34.1,2.8,33.8z"/>
			<ellipse class="st2" cx="2" cy="35.5" rx="2" ry="1.9"/>
		</g>
		<g transform="translate(0 .062)">
			<path class="st2" d="M21.7,11.7c-3.2-1.1-5.1-2.8-6-4.6C14,9.6,10,11.3,5.4,11.3c-0.8,0-1.7-0.1-2.6-0.3
				c-0.3,0.9-0.4,1.8-0.4,2.8c0,5.4,4.6,9.9,10.3,9.9c5.7,0,10.3-4.4,10.3-9.9c0-0.6-0.1-1.2-0.2-1.8C22.3,11.9,22,11.8,21.7,11.7z"
				/>
			<g transform="translate(4.44 48.634)">
				<path class="st2" d="M11,6.3h3.7c0.9,0,1.6,0.7,1.6,1.6v0.4l0,0H11V6.3z"/>
				<path class="st2" d="M5.3,8.3H0V7.9C0,7,0.7,6.3,1.6,6.3h3.7l0,0V8.3z"/>
				<path class="st2" d="M11,0v6.2h3.5L14.9,0H11z M1.4,0l0.4,6.3h3.5V0H1.4z"/>
			</g>
			<path class="st2" d="M4.8,37.3L4,48.6h17.2l-0.8-11.3H4.8z M22.7,17.2h-0.5c-0.9,2.3-2.6,4.1-4.8,5.3h0.1l0,0c0,0,0,0,0.1,0
				c0.1,0,0.3,0,0.4,0c0.4,0.1,0.7,0.2,1.1,0.4c1.1,0.5,2,1.1,2.9,1.8c1.3-2.5,2-5.5,2.3-8.3C23.9,16.9,23.4,17.2,22.7,17.2z
				 M2.9,17.2H2.5c-0.6,0-1.2-0.3-1.5-0.7c0.3,2.8,0.9,5.8,2.3,8.3C4.1,24,5,23.4,6.1,22.9c0.3-0.2,0.7-0.3,1.1-0.4
				c0.1,0,0.3,0,0.4,0c0,0,0,0,0.1,0l0,0h0.1C5.5,21.3,3.8,19.4,2.9,17.2z"/>
			<g transform="translate(.532 13.45)">
				<path class="st2" d="M1.8,0.3c0-0.1,0-0.2,0-0.3C0.8,0.1,0,0.9,0,1.9c0,1,0.9,1.9,2,1.9h0.5C2,2.7,1.8,1.5,1.8,0.3z M22.4,0
					c0,0.1,0,0.2,0,0.3c0,1.2-0.2,2.3-0.6,3.4h0.5c1.1,0,2-0.8,2-1.9C24.2,0.9,23.4,0.1,22.4,0z"/>
			</g>
			<g transform="translate(6.572 14.549)">
				<path class="st2" d="M12.1,1.1c0-0.6-0.5-1.1-1.2-1.1c-0.6,0-1.2,0.5-1.2,1.1 M2.3,1.1C2.3,0.5,1.8,0,1.2,0C0.5,0,0,0.5,0,1.1"
					/>
			</g>
			<path class="st2" d="M10.7,19.3c0,1,0.9,1.9,2,1.9c1.1,0,2-0.8,2-1.9 M12.6,0C6.3,0,1.2,4.7,0.7,10.6c0,0.3,0,0.5,0,0.8
				c0,0.9,0,1.9,0.1,3c0.3-0.5,0.9-0.9,1.5-0.9c0-0.9,0.2-1.7,0.4-2.5l0,0c0.9,0.2,1.8,0.3,2.6,0.3c4.6,0,8.6-1.7,10.4-4.2
				c0.9,1.8,2.8,3.5,6,4.6c0.3,0.1,0.7,0.2,1.1,0.3c0.1,0.5,0.1,1,0.2,1.4c0.7,0.1,1.2,0.4,1.5,0.9c0-0.7,0.1-1.4,0.1-2
				c0-0.3,0-0.7,0-1C24.5,5.1,19.2,0,12.6,0z M2.1,34.4c0.3,0,0.6,0.1,0.9,0.2c-0.5-1.8-0.3-3.7,0.5-5.3l-2.7-0.6
				c-0.9,2.1-1.1,4.4-0.4,6.7C0.7,34.8,1.4,34.4,2.1,34.4z"/>
			<ellipse class="st2" cx="2.1" cy="36.3" rx="2" ry="1.9"/>
			<path class="st2" d="M24.6,28.1c-1.1-2.3-3-4.1-5.4-5.2c-0.3-0.2-0.7-0.3-1.1-0.4c-0.1,0-0.3,0-0.4,0c0,0,0,0-0.1,0l0,0h-0.1
				c-1.5,0.8-3.1,1.2-4.9,1.2c-1.8,0-3.5-0.4-4.9-1.2H7.6l0,0c0,0,0,0-0.1,0c-0.1,0-0.3,0-0.4,0c-0.4,0.1-0.7,0.2-1.1,0.4
				c-2.4,1.1-4.3,2.9-5.5,5.2c-0.1,0.2-0.2,0.4-0.3,0.6l3.5,0.8c0.3-0.5,0.6-1,0.9-1.4v9.3h15.6V28c0.4,0.4,0.7,0.9,0.9,1.4l3.5-0.8
				C24.7,28.5,24.7,28.3,24.6,28.1z"/>
			<path class="st2" d="M25.7,33.8c0.3-0.1,0.8-0.2,1-0.2c-1.3-1.4-2.2-3.1-2.2-4.9l-2.7,0.6c0.2,2.2,1.1,4.4,2.8,6.1
				C24.6,34.8,25,34.2,25.7,33.8z"/>
			<ellipse class="st2" cx="26.5" cy="35.5" rx="2" ry="1.9"/>
		</g>
	</g>
	<line class="st1" x1="50" y1="164.9" x2="162" y2="164.9"/>
	<path class="st0" d="M286.8,73.5c0.2,0,0.4-0.2,0.4-0.4s-0.1-0.3-0.3-0.3c-0.4-0.1-0.5-0.3-0.5-0.5c0-0.4,0.3-0.7,0.7-0.9
		c0.1,0,0.2-0.1,0.2-0.1c0-0.1-0.1-0.1-0.1-0.1c-0.2,0-1.2,0.4-1.2,1.3C286,73.1,286.3,73.5,286.8,73.5z M288.6,73.5
		c0.2,0,0.4-0.2,0.4-0.4s-0.2-0.3-0.3-0.3c-0.4-0.1-0.5-0.3-0.5-0.5c0-0.4,0.3-0.7,0.7-0.9c0.1,0,0.1-0.1,0.1-0.1
		c0,0-0.1-0.1-0.1-0.1c-0.2,0-1.2,0.4-1.2,1.3C287.7,73.1,288,73.5,288.6,73.5z M298,80.7c0.1,0,0.1-0.1,0.2-0.3
		c0.6-1.5,1.7-4.1,2.6-6c0.9-1.9,1.1-2.2,1.7-2.4c0.2,0,0.3-0.1,0.3-0.1c0-0.1-0.1-0.1-0.2-0.1c-0.2,0-0.6,0.1-1,0.1
		c-0.4,0-0.6-0.1-1-0.1c-0.2,0-0.2,0-0.2,0.1c0,0.1,0.1,0.1,0.3,0.1c0.5,0.1,0.5,0.4,0.4,0.7c-0.3,1-1.9,4.8-2.6,6.2
		c0,0.1-0.1,0.1-0.1,0c-0.5-1-1.1-2.3-1.4-3.1c0-0.1,0-0.1,0-0.2c0.2-0.4,0.9-1.8,1.3-2.5c0.5-0.8,0.7-1.1,1.2-1.2
		c0.2,0,0.3-0.1,0.3-0.1c0-0.1-0.1-0.1-0.2-0.1c-0.3,0-0.5,0.1-1,0.1c-0.4,0-0.6,0-0.9,0c-0.2,0-0.2,0-0.2,0.1c0,0.1,0,0.1,0.3,0.2
		c0.6,0.1,0.6,0.3,0.2,1.3c-0.3,0.7-0.6,1.3-0.9,2c0,0.1-0.1,0.1-0.1,0c-0.5-1-0.9-2-1.1-2.5c-0.2-0.5-0.1-0.7,0.3-0.7
		c0.2,0,0.3-0.1,0.3-0.1c0-0.1-0.1-0.1-0.2-0.1c-0.3,0-0.6,0.1-1.1,0.1s-0.8-0.1-1.1-0.1c-0.2,0-0.3,0-0.3,0.1
		c0,0.1,0.1,0.1,0.3,0.2c0.4,0.1,0.5,0.3,0.9,1.1c0.3,0.7,1.2,2.7,1.4,3.2c0,0,0,0.1,0,0.2c-0.4,0.9-0.7,1.6-1.1,2.3
		c0,0.1-0.1,0.1-0.1,0c-0.9-2-2.3-4.9-2.9-6.4c-0.1-0.2-0.1-0.4,0.3-0.5c0.2,0,0.2-0.1,0.2-0.1c0-0.1-0.1-0.1-0.3-0.1
		c-0.3,0-0.6,0-0.9,0c-0.4,0-1-0.1-1.3-0.1c-0.2,0-0.3,0.1-0.3,0.1c0,0.1,0.1,0.1,0.3,0.1c0.5,0.1,0.6,0.3,1.1,1.4
		c0.6,1.3,1.6,3.4,2.3,5.1c0.2,0.4,0.6,1.4,0.8,1.9c0.1,0.2,0.1,0.3,0.2,0.3c0.1,0,0.1-0.1,0.2-0.3c0.3-0.8,1-2.4,1.5-3.4
		c0,0,0.1,0,0.1,0c0.4,0.9,1.2,2.6,1.5,3.4C297.9,80.6,297.9,80.7,298,80.7z M303.6,80.6c0.8,0,1.4-0.3,1.9-0.9
		c0.1-0.1,0.1-0.2,0.1-0.2c0-0.1-0.1-0.1-0.2,0c-0.3,0.3-0.7,0.4-1.3,0.4c-0.5,0-1-0.1-1.4-0.6c-0.4-0.4-0.6-1-0.6-1.6
		c0-0.4,0-0.6,0.1-0.7c0,0,0.1-0.1,0.1-0.1h0.7c0.3,0,2.1,0,2.2,0c0.1,0,0.1-0.1,0.1-0.1c0-0.8-0.9-1.4-1.7-1.4
		c-0.7,0-1.3,0.3-1.7,0.7c-0.6,0.6-0.8,1.4-0.8,2c0,0.7,0.2,1.4,0.7,1.8C302.4,80.3,303,80.6,303.6,80.6z M302.5,76.7
		C302.5,76.7,302.4,76.7,302.5,76.7c-0.1-0.2,0.1-0.4,0.2-0.6c0.3-0.3,0.6-0.5,1-0.5c0.3,0,0.5,0.1,0.7,0.3c0.2,0.2,0.2,0.4,0.2,0.6
		c0,0.1,0,0.3-0.3,0.3L302.5,76.7z M315.1,80.5c0.2,0,0.5,0,0.8,0c0.3,0,0.8,0,0.9,0c0.2,0,0.2,0,0.2-0.1c0,0-0.1-0.1-0.2-0.1
		c-0.3-0.1-0.4-0.1-0.4-0.6l-0.1-2c0-0.5-0.1-1-0.2-1.3c-0.2-0.5-0.6-1-1.4-1c-0.7,0-1.3,0.4-1.9,0.9c0,0-0.1,0-0.1,0
		c-0.3-0.6-0.7-0.9-1.4-0.9c-0.6,0-1.2,0.4-1.7,0.8c-0.1,0-0.1,0-0.1-0.1c0-0.1,0-0.5,0-0.7c0-0.1,0-0.1-0.1-0.1
		c-0.1,0-0.1,0-0.2,0.1c-0.2,0.2-0.6,0.3-0.9,0.4c-0.1,0-0.2,0.1-0.2,0.1h0c0,0.1,0,0.1,0.1,0.1c0.2,0.1,0.3,0.2,0.3,0.5
		c0,0.3,0,0.6,0,1.1c0,0.8,0,1.9-0.1,2.2c0,0.2,0,0.3-0.5,0.4c-0.2,0-0.3,0.1-0.3,0.1c0,0.1,0.1,0.1,0.2,0.1c0.2,0,0.5,0,0.9,0
		c0.3,0,0.8,0,1,0c0.1,0,0.2,0,0.2-0.1c0,0-0.1-0.1-0.2-0.1c-0.3-0.1-0.4-0.2-0.4-0.4c0-0.2-0.1-1.2-0.1-2.2c0-0.5,0-0.8,0.1-0.9
		c0-0.1,0-0.2,0.2-0.3c0.2-0.2,0.5-0.4,1-0.4c0.4,0,0.6,0.1,0.8,0.3c0.3,0.3,0.3,0.6,0.3,1.4l0,2.2c0,0.3-0.1,0.4-0.4,0.4
		c-0.2,0-0.2,0.1-0.2,0.1c0,0.1,0.1,0.1,0.2,0.1c0.2,0,0.5,0,0.8,0c0.4,0,0.8,0,1.1,0c0.2,0,0.2,0,0.2-0.1c0-0.1-0.1-0.1-0.2-0.1
		c-0.3-0.1-0.4-0.2-0.4-0.6c0-0.4-0.1-2.5-0.1-2.8c0-0.2,0-0.4,0.1-0.4c0.2-0.2,0.7-0.5,1.2-0.5c0.7,0,1,0.3,1.1,1
		c0.1,0.4,0.1,1.1,0.1,2.7c0,0.4-0.1,0.5-0.5,0.6c-0.1,0-0.2,0.1-0.2,0.1C314.9,80.4,314.9,80.5,315.1,80.5z M318.8,74.1
		c0.2,0,0.5-0.1,0.5-0.5c0-0.2-0.2-0.5-0.5-0.5c-0.2,0-0.5,0.2-0.5,0.5C318.4,73.8,318.6,74.1,318.8,74.1z M319.6,80.5
		c0.1,0,0.2,0,0.2-0.1c0-0.1-0.1-0.1-0.2-0.1c-0.2-0.1-0.4-0.1-0.4-0.4c0-0.2,0-1.2,0-2.4c0-0.9,0-1.7,0-2c0-0.1,0-0.2-0.1-0.2
		c0,0-0.1,0-0.2,0.1c-0.3,0.1-0.6,0.3-1,0.4c-0.1,0-0.2,0.1-0.2,0.1c0,0,0,0.1,0.1,0.1c0.4,0.2,0.4,0.3,0.4,0.5c0,0.1,0,2.6,0,3
		c0,0.6-0.1,0.7-0.4,0.7c-0.2,0-0.3,0.1-0.3,0.1c0,0.1,0.1,0.1,0.2,0.1c0.2,0,0.4,0,0.8,0C319,80.4,319.5,80.5,319.6,80.5z
		 M321.8,80.6c0.3,0,0.8-0.1,1.1-0.3c0.3-0.2,0.7-0.5,0.7-1.1c0-0.7-0.4-1-1.2-1.6c-0.3-0.2-0.9-0.5-0.9-1.1c0-0.5,0.4-0.8,0.8-0.8
		c0.3,0,0.5,0.1,0.6,0.2c0.2,0.2,0.3,0.4,0.3,0.6c0,0.1,0.1,0.2,0.1,0.2c0,0,0.1-0.1,0.1-0.2c0-0.2-0.1-0.5-0.1-0.6
		c0,0,0-0.1-0.1-0.1c-0.2-0.1-0.6-0.1-0.9-0.1c-0.5,0-0.9,0.2-1.1,0.4c-0.3,0.2-0.5,0.6-0.5,1.1c0,0.6,0.5,1.1,1.1,1.5
		c0.5,0.3,0.9,0.6,0.9,1.1c0,0.6-0.5,0.9-0.9,0.9c-0.2,0-0.4,0-0.6-0.2c-0.2-0.1-0.5-0.4-0.6-0.7c-0.1-0.3-0.1-0.3-0.2-0.3
		c0,0-0.1,0,0,0.2c0,0.1,0,0.5,0,0.7c0,0.1,0.1,0.2,0.2,0.2C321.1,80.5,321.4,80.6,321.8,80.6z M325.6,80.6c0.3,0,0.8-0.1,1.1-0.3
		c0.3-0.2,0.7-0.5,0.7-1.1c0-0.7-0.4-1-1.2-1.6c-0.3-0.2-0.9-0.5-0.9-1.1c0-0.5,0.4-0.8,0.8-0.8c0.3,0,0.5,0.1,0.6,0.2
		c0.2,0.2,0.3,0.4,0.3,0.6c0,0.1,0.1,0.2,0.1,0.2c0,0,0.1-0.1,0.1-0.2c0-0.2-0.1-0.5-0.1-0.6c0,0,0-0.1-0.1-0.1
		c-0.2-0.1-0.6-0.1-0.9-0.1c-0.5,0-0.9,0.2-1.1,0.4c-0.3,0.2-0.5,0.6-0.5,1.1c0,0.6,0.5,1.1,1.1,1.5c0.5,0.3,0.9,0.6,0.9,1.1
		c0,0.6-0.5,0.9-0.9,0.9c-0.2,0-0.4,0-0.6-0.2c-0.2-0.1-0.5-0.4-0.6-0.7c-0.1-0.3-0.1-0.3-0.2-0.3c0,0-0.1,0,0,0.2
		c0,0.1,0,0.5,0,0.7c0,0.1,0.1,0.2,0.2,0.2C325,80.5,325.3,80.6,325.6,80.6z M332.1,80.6c0.4,0,0.8-0.1,1.1-0.4
		c0.2-0.1,0.3-0.3,0.3-0.4c0-0.1,0-0.1-0.1,0c-0.1,0.1-0.4,0.2-0.8,0.2c-0.4,0-0.6-0.1-0.8-0.4c-0.1-0.1-0.1-0.3-0.2-0.7
		c0-0.4,0-2.6,0-2.8c0-0.1,0-0.1,0.2-0.1c0.4,0,1,0,1.5,0c0.1,0,0.1-0.1,0.1-0.3c0-0.1-0.1-0.2-0.1-0.2c-0.3,0-1.4,0-1.7,0
		c-0.1,0-0.1-0.1-0.1-0.1c0-0.2,0-0.5,0-0.7c0-0.1-0.1-0.1-0.2,0c-0.3,0.4-0.8,0.8-1.1,0.9c-0.2,0.1-0.2,0.1-0.2,0.1
		c0,0.1,0.1,0.1,0.2,0.1c0.1,0,0.3,0.1,0.3,0.1c0.1,0,0.1,0.1,0.1,0.3v2.8c0,0.3,0.1,0.6,0.2,0.8C331.1,80.4,331.5,80.6,332.1,80.6z
		 M339.2,80.5c0.1,0,0.2,0,0.2-0.1c0-0.1,0-0.1-0.2-0.1c-0.4-0.1-0.5-0.2-0.5-0.4c0-0.5,0-1.4,0-2.4c0-0.9-0.2-1.3-0.3-1.5
		c-0.3-0.5-0.8-0.6-1.2-0.6c-0.4,0-0.7,0.1-1,0.2c-0.3,0.1-0.7,0.4-0.8,0.6c0,0-0.1,0-0.1,0c0-0.3,0-4.5,0.1-4.9
		c0-0.2,0-0.3-0.1-0.3c0,0-0.1,0-0.1,0.1c-0.3,0.1-0.6,0.2-1,0.3c-0.2,0-0.2,0.1-0.2,0.1c0,0,0,0.1,0.1,0.1c0.3,0.2,0.4,0.2,0.4,0.6
		c0,0.5,0,1.3,0,3.4c0,2.2,0,3.4-0.1,4c0,0.5-0.1,0.6-0.5,0.7c-0.2,0-0.2,0.1-0.2,0.1c0,0.1,0.1,0.1,0.2,0.1c0.3,0,0.5-0.1,0.9-0.1
		c0.4,0,0.8,0.1,1.1,0.1c0.1,0,0.2,0,0.2-0.1c0-0.1-0.1-0.1-0.3-0.1c-0.3-0.1-0.4-0.2-0.4-0.5c0-0.2-0.1-0.9-0.1-2.9
		c0-0.3,0.1-0.4,0.1-0.5c0.2-0.2,0.6-0.5,1.2-0.5c0.5,0,0.8,0.2,0.9,0.5c0.2,0.3,0.2,0.7,0.2,1c0,1.4,0,2-0.1,2.3
		c-0.1,0.4-0.1,0.5-0.5,0.6c-0.1,0-0.2,0.1-0.2,0.1c0,0,0.1,0.1,0.2,0.1c0.3,0,0.4-0.1,0.9-0.1C338.6,80.4,338.8,80.5,339.2,80.5z
		 M342.3,80.6c0.8,0,1.4-0.3,1.9-0.9c0.1-0.1,0.1-0.2,0.1-0.2c0-0.1-0.1-0.1-0.2,0c-0.3,0.3-0.7,0.4-1.3,0.4c-0.5,0-1-0.1-1.4-0.6
		c-0.4-0.4-0.6-1-0.6-1.6c0-0.4,0-0.6,0.1-0.7c0,0,0.1-0.1,0.1-0.1h0.7c0.3,0,2.1,0,2.2,0c0.1,0,0.1-0.1,0.1-0.1
		c0-0.8-0.9-1.4-1.7-1.4c-0.7,0-1.3,0.3-1.7,0.7c-0.6,0.6-0.8,1.4-0.8,2c0,0.7,0.2,1.4,0.7,1.8C341.1,80.3,341.7,80.6,342.3,80.6z
		 M341.2,76.7C341.1,76.7,341.1,76.7,341.2,76.7c-0.1-0.2,0.1-0.4,0.2-0.6c0.3-0.3,0.6-0.5,1-0.5c0.3,0,0.5,0.1,0.7,0.3
		c0.2,0.2,0.2,0.4,0.2,0.6c0,0.1,0,0.3-0.3,0.3L341.2,76.7z M351.7,80.5c0.2,0,0.5,0,0.8,0c0.3,0,0.8,0,0.9,0c0.2,0,0.2,0,0.2-0.1
		c0,0-0.1-0.1-0.2-0.1c-0.3-0.1-0.4-0.1-0.4-0.6l-0.1-2c0-0.5-0.1-1-0.2-1.3c-0.2-0.5-0.6-1-1.4-1c-0.7,0-1.3,0.4-1.9,0.9
		c0,0-0.1,0-0.1,0c-0.3-0.6-0.7-0.9-1.4-0.9c-0.6,0-1.2,0.4-1.7,0.8c-0.1,0-0.1,0-0.1-0.1c0-0.1,0-0.5,0-0.7c0-0.1,0-0.1-0.1-0.1
		c-0.1,0-0.1,0-0.2,0.1c-0.2,0.2-0.6,0.3-0.9,0.4c-0.1,0-0.2,0.1-0.2,0.1h0c0,0.1,0,0.1,0.1,0.1c0.2,0.1,0.3,0.2,0.3,0.5
		c0,0.3,0,0.6,0,1.1c0,0.8,0,1.9-0.1,2.2c0,0.2,0,0.3-0.5,0.4c-0.2,0-0.3,0.1-0.3,0.1c0,0.1,0.1,0.1,0.2,0.1c0.2,0,0.5,0,0.9,0
		c0.3,0,0.8,0,1,0c0.1,0,0.2,0,0.2-0.1c0,0-0.1-0.1-0.2-0.1c-0.3-0.1-0.4-0.2-0.4-0.4c0-0.2-0.1-1.2-0.1-2.2c0-0.5,0-0.8,0.1-0.9
		c0-0.1,0-0.2,0.2-0.3c0.2-0.2,0.5-0.4,1-0.4c0.4,0,0.6,0.1,0.8,0.3c0.3,0.3,0.3,0.6,0.3,1.4l0,2.2c0,0.3-0.1,0.4-0.4,0.4
		c-0.2,0-0.2,0.1-0.2,0.1c0,0.1,0.1,0.1,0.2,0.1c0.2,0,0.5,0,0.8,0c0.4,0,0.8,0,1.1,0c0.2,0,0.2,0,0.2-0.1c0-0.1-0.1-0.1-0.2-0.1
		c-0.3-0.1-0.4-0.2-0.4-0.6c0-0.4-0.1-2.5-0.1-2.8c0-0.2,0-0.4,0.1-0.4c0.2-0.2,0.7-0.5,1.2-0.5c0.7,0,1,0.3,1.1,1
		c0.1,0.4,0.1,1.1,0.1,2.7c0,0.4-0.1,0.5-0.5,0.6c-0.1,0-0.2,0.1-0.2,0.1C351.4,80.4,351.5,80.5,351.7,80.5z M294.6,95.5
		c0.7,0,1.6-0.4,2.1-0.9c0.4-0.4,0.7-1,0.7-1.8c0-0.6-0.2-1.2-0.6-1.6c-0.3-0.4-0.9-0.7-1.6-0.7c-0.7,0-1.1,0.2-1.5,0.5
		c0,0-0.1,0-0.1-0.1c0-1.8,0-3.7,0.1-4.6c0-0.2,0-0.2,0-0.2s-0.1,0-0.2,0.1c-0.3,0.1-0.7,0.2-1,0.3c-0.2,0-0.3,0.1-0.3,0.1
		s0.1,0.1,0.2,0.1c0.3,0.2,0.3,0.2,0.4,0.5c0,0.2,0,1.2,0,2.1l0,0.2c0,0.8-0.1,3.8-0.1,4.5c0,0.7-0.1,1-0.1,1.2c0,0,0,0.1,0.1,0.1
		c0.2-0.1,0.3-0.1,0.4,0C293.5,95.3,294.1,95.5,294.6,95.5z M295,95.2c-0.3,0-0.7-0.1-0.9-0.3c-0.1-0.1-0.3-0.2-0.4-0.3
		c-0.1-0.2-0.2-1-0.2-1.5c0-0.5,0-1.6,0-1.8c0-0.2,0.1-0.3,0.1-0.4c0.1-0.1,0.4-0.2,0.8-0.2c0.6,0,1.1,0.4,1.4,0.7
		c0.4,0.4,0.5,1.1,0.5,1.6c0,0.6-0.2,1.3-0.5,1.7C295.7,95,295.3,95.2,295,95.2z M300.6,95.5c0.8,0,1.4-0.3,1.9-0.9
		c0.1-0.1,0.1-0.2,0.1-0.2c0-0.1-0.1-0.1-0.2,0c-0.3,0.3-0.7,0.4-1.3,0.4c-0.5,0-1-0.1-1.4-0.6c-0.4-0.4-0.6-1-0.6-1.6
		c0-0.4,0-0.6,0.1-0.7c0,0,0.1-0.1,0.1-0.1h0.7c0.3,0,2.1,0,2.2,0c0.1,0,0.1-0.1,0.1-0.1c0-0.8-0.9-1.4-1.7-1.4
		c-0.7,0-1.3,0.3-1.7,0.7c-0.6,0.6-0.8,1.4-0.8,2c0,0.7,0.2,1.4,0.7,1.8C299.4,95.2,300,95.5,300.6,95.5z M299.5,91.6
		C299.5,91.6,299.4,91.5,299.5,91.6c-0.1-0.2,0.1-0.4,0.2-0.6c0.3-0.3,0.6-0.5,1-0.5c0.3,0,0.5,0.1,0.7,0.3c0.2,0.2,0.2,0.4,0.2,0.6
		c0,0.1,0,0.3-0.3,0.3L299.5,91.6z M305.1,95.4c0.4,0,0.8-0.1,1.1-0.4c0.2-0.1,0.3-0.3,0.3-0.4c0-0.1,0-0.1-0.1,0
		c-0.1,0.1-0.4,0.2-0.8,0.2c-0.4,0-0.6-0.1-0.8-0.4c-0.1-0.1-0.1-0.3-0.2-0.7c0-0.4,0-2.6,0-2.8c0-0.1,0-0.1,0.2-0.1
		c0.4,0,1,0,1.5,0c0.1,0,0.1-0.1,0.1-0.3c0-0.1-0.1-0.2-0.1-0.2c-0.3,0-1.4,0-1.7,0c-0.1,0-0.1-0.1-0.1-0.1c0-0.2,0-0.5,0-0.7
		c0-0.1-0.1-0.1-0.2,0c-0.3,0.4-0.8,0.8-1.1,0.9c-0.2,0.1-0.2,0.1-0.2,0.1c0,0.1,0.1,0.1,0.2,0.1c0.1,0,0.3,0.1,0.3,0.1
		c0.1,0,0.1,0.1,0.1,0.3V94c0,0.3,0.1,0.6,0.2,0.8C304.1,95.2,304.5,95.4,305.1,95.4z M312.1,95.5c0,0,0.1-0.1,0.2-0.3
		c0.2-0.4,0.4-1,0.6-1.6c0.4-1,0.8-1.9,1.1-2.4c0.2-0.4,0.3-0.6,0.6-0.6c0.2-0.1,0.2-0.1,0.2-0.1c0-0.1-0.1-0.1-0.2-0.1
		c-0.2,0-0.5,0-0.7,0c-0.2,0-0.5,0-0.7,0c-0.1,0-0.2,0-0.2,0.1c0,0,0,0.1,0.2,0.1c0.4,0.1,0.4,0.2,0.4,0.3c0,0.1-0.1,0.3-0.2,0.7
		c-0.2,0.5-0.8,2-1,2.4c0,0,0,0.1-0.1,0c-0.2-0.4-0.9-2.4-1.1-2.8c-0.2-0.4-0.1-0.5,0.2-0.5c0.1,0,0.2-0.1,0.2-0.1
		c0,0-0.1-0.1-0.2-0.1c-0.2,0-0.4,0-0.8,0c-0.3,0-0.6-0.1-0.9-0.1c-0.1,0-0.2,0-0.2,0.1c0,0.1,0.1,0.1,0.2,0.1
		c0.3,0.1,0.4,0.2,0.5,0.4l0.2,0.6c0,0.1,0,0.2,0,0.2c-0.1,0.4-0.7,1.7-1,2.1c0,0-0.1,0-0.1,0c-0.3-0.8-0.9-2.3-1.1-2.9
		c-0.1-0.2-0.1-0.3,0.3-0.4c0.1,0,0.2-0.1,0.2-0.1c0-0.1-0.1-0.1-0.2-0.1c-0.3,0-0.5,0-0.8,0c-0.4,0-0.8-0.1-1-0.1
		c-0.2,0-0.2,0-0.2,0.1c0,0.1,0.1,0.1,0.2,0.1c0.3,0.1,0.5,0.3,0.6,0.5c0.2,0.2,0.9,2.3,1.2,2.9c0.2,0.6,0.3,1,0.4,1.2
		c0,0.1,0.1,0.2,0.1,0.2c0.1,0,0.1-0.1,0.2-0.3c0.2-0.4,0.3-0.7,0.5-1.2c0.2-0.5,0.8-1.7,0.9-2c0-0.1,0.1,0,0.1,0l0.8,2.2l0.3,0.9
		C312,95.4,312.1,95.5,312.1,95.5z M317.2,95.5c0.8,0,1.4-0.3,1.9-0.9c0.1-0.1,0.1-0.2,0.1-0.2c0-0.1-0.1-0.1-0.2,0
		c-0.3,0.3-0.7,0.4-1.3,0.4c-0.5,0-1-0.1-1.4-0.6c-0.4-0.4-0.6-1-0.6-1.6c0-0.4,0-0.6,0.1-0.7c0,0,0.1-0.1,0.1-0.1h0.7
		c0.3,0,2.1,0,2.2,0c0.1,0,0.1-0.1,0.1-0.1c0-0.8-0.9-1.4-1.7-1.4c-0.7,0-1.3,0.3-1.7,0.7c-0.6,0.6-0.8,1.4-0.8,2
		c0,0.7,0.2,1.4,0.7,1.8C316,95.2,316.6,95.5,317.2,95.5z M316.1,91.6C316,91.6,316,91.5,316.1,91.6c-0.1-0.2,0.1-0.4,0.2-0.6
		c0.3-0.3,0.6-0.5,1-0.5c0.3,0,0.5,0.1,0.7,0.3c0.2,0.2,0.2,0.4,0.2,0.6c0,0.1,0,0.3-0.3,0.3L316.1,91.6z M322.2,95.5
		c0.8,0,1.4-0.3,1.9-0.9c0.1-0.1,0.1-0.2,0.1-0.2c0-0.1-0.1-0.1-0.2,0c-0.3,0.3-0.7,0.4-1.3,0.4c-0.5,0-1-0.1-1.4-0.6
		c-0.4-0.4-0.6-1-0.6-1.6c0-0.4,0-0.6,0.1-0.7c0,0,0.1-0.1,0.1-0.1h0.7c0.3,0,2.1,0,2.2,0c0.1,0,0.1-0.1,0.1-0.1
		c0-0.8-0.9-1.4-1.7-1.4c-0.7,0-1.3,0.3-1.7,0.7c-0.6,0.6-0.8,1.4-0.8,2c0,0.7,0.2,1.4,0.7,1.8C321,95.2,321.6,95.5,322.2,95.5z
		 M321.1,91.6C321.1,91.6,321,91.5,321.1,91.6c-0.1-0.2,0.1-0.4,0.2-0.6c0.3-0.3,0.6-0.5,1-0.5c0.3,0,0.5,0.1,0.7,0.3
		c0.2,0.2,0.2,0.4,0.2,0.6c0,0.1,0,0.3-0.3,0.3L321.1,91.6z M330,95.4c0.1,0,0.2,0,0.2-0.1c0-0.1-0.1-0.1-0.2-0.1
		c-0.4-0.1-0.4-0.2-0.4-1.1c0-0.7,0-0.8,0-1.5c0-0.8-0.1-1.5-0.4-1.8c-0.2-0.2-0.5-0.5-1.1-0.5c-0.2,0-0.5,0-0.8,0.2
		c-0.3,0.1-0.6,0.4-1,0.6c0,0-0.1,0-0.1,0c0-0.2,0-0.6,0-0.7c0-0.1-0.1-0.1-0.1-0.1c-0.2,0.1-0.8,0.4-1.1,0.5
		c-0.1,0-0.2,0.1-0.2,0.1c0,0,0,0.1,0.1,0.1c0.3,0.2,0.4,0.3,0.4,0.5l0,1.1c0,0.8,0,1.5,0,2.2c0,0.3-0.1,0.4-0.4,0.4
		c-0.2,0-0.3,0.1-0.3,0.1c0,0.1,0.1,0.1,0.3,0.1c0.3,0,0.5,0,0.7,0c0.3,0,1,0.1,1.1,0.1c0.1,0,0.3,0,0.3-0.1c0-0.1-0.1-0.1-0.2-0.1
		c-0.2-0.1-0.4-0.1-0.4-0.4c0-0.2-0.1-0.5-0.1-1.4l0-0.4c0-0.6,0-1.1,0-1.2c0-0.1,0.1-0.3,0.2-0.4c0.4-0.3,0.7-0.4,1.1-0.4
		c0.3,0,0.6,0.1,0.8,0.3c0.3,0.3,0.4,0.6,0.4,1.7v1.9c0,0.4-0.1,0.5-0.4,0.6c-0.2,0-0.3,0.1-0.3,0.1c0,0.1,0.1,0.1,0.2,0.1
		c0.2,0,0.4-0.1,0.8-0.1C329.4,95.3,329.8,95.4,330,95.4z M336.9,95.4c0.2,0,0.3,0,0.3-0.1c0-0.1-0.1-0.1-0.2-0.1
		c-0.6-0.1-0.6-0.2-0.7-1c0-0.6-0.1-3.4,0-4.6c0-0.9,0-2.1,0-2.3c0-0.1,0-0.1-0.1-0.1c-0.1,0-0.2,0.1-0.3,0.1
		c-0.4,0.2-1.1,0.3-1.7,0.4c-0.1,0-0.2,0.1-0.2,0.1c0,0.1,0.1,0.1,0.2,0.1c0.1,0,0.2,0,0.3,0.1c0.1,0.1,0.2,0.1,0.2,0.3
		c0,0.3,0,0.8,0,2.4c0,2.3,0,3.1-0.1,3.5c0,0.8-0.2,0.9-0.8,1c-0.1,0-0.2,0.1-0.2,0.1c0,0.1,0.1,0.1,0.2,0.1c0.5,0,0.7-0.1,1.4-0.1
		C335.8,95.3,336.2,95.4,336.9,95.4z M343.3,95.4c0.1,0,0.3,0,0.3-0.1c0-0.1,0.3-1.2,0.5-1.4c0.1-0.1,0.1-0.3,0-0.3
		c0,0-0.1,0-0.2,0.2c-0.2,0.3-0.4,0.4-0.6,0.4c-0.2,0-0.5,0.1-1.1,0.1c-0.9,0-1.7,0-2-0.1c-0.1,0-0.1-0.1-0.1-0.1
		c0.7-0.8,1.2-1.3,2.1-2.4c0.8-0.9,1-1.7,1-2.4c0-1-0.7-2-2-2c-0.5,0-1.1,0.2-1.4,0.5c-0.3,0.2-0.6,0.6-0.9,1
		c-0.1,0.1-0.1,0.3,0,0.3c0.1,0,0.1-0.1,0.2-0.2c0.4-0.5,0.9-0.7,1.4-0.7c0.9,0,1.4,0.8,1.4,1.7c0,1.1-0.4,1.9-1.1,2.9
		c-0.7,1-1.3,1.6-1.9,2.2c-0.1,0.1-0.2,0.2-0.1,0.3c0,0.1,0.2,0.1,0.5,0.1c0.1,0,0.9,0,1.2,0l0.1,0
		C341.1,95.3,342.9,95.4,343.3,95.4z M348.5,95.4c0.4,0,0.9-0.1,1.2-0.4c0.2-0.2,0.3-0.3,0.3-0.4c0,0,0-0.1-0.2,0
		c-0.2,0.1-0.4,0.2-0.6,0.2c-0.2,0-0.5-0.1-0.7-0.3c-0.1-0.1-0.1-0.3-0.2-0.6c0-0.4,0-2.5,0-2.8c0-0.1,0-0.1,0.2-0.1h1.2
		c0.1,0,0.2,0,0.2-0.3c0-0.1-0.1-0.2-0.1-0.2c-0.2,0-1.1,0-1.4,0c-0.1,0-0.1-0.1-0.1-0.1c0-0.1,0-0.7,0-0.8c0-0.1-0.1-0.1-0.3,0.1
		c-0.4,0.4-1,0.8-1.3,1c-0.2,0.1-0.2,0.1-0.2,0.2c0,0.1,0.1,0.1,0.2,0.1c0.1,0,0.2,0.1,0.2,0.1c0.1,0.1,0.1,0.1,0.1,0.2V94
		c0,0.3,0,0.7,0.2,0.8C347.5,95.3,347.9,95.4,348.5,95.4z M353,95.5c0.5,0,1.2-0.2,1.6-0.5c0.4-0.3,1.1-1,1.1-2.1
		c0-1.4-1.1-2.6-2.7-2.6c-0.6,0-1.2,0.2-1.7,0.6c-0.4,0.3-1,1-1,2C350.3,94.3,351.5,95.5,353,95.5z M353.2,95.3
		c-0.4,0-0.8-0.3-1-0.7c-0.3-0.6-0.4-1.3-0.4-2c0-1.2,0.6-2,1.1-2c1,0,1.4,1.1,1.4,2.6c0,1-0.3,1.7-0.5,1.9
		C353.7,95.1,353.5,95.3,353.2,95.3z M362.6,95.4c0.2,0,0.3,0,0.3-0.1c0-0.1-0.1-0.1-0.2-0.1c-0.6-0.1-0.6-0.2-0.7-1
		c0-0.6-0.1-3.4,0-4.6c0-0.9,0-2.1,0-2.3c0-0.1,0-0.1-0.1-0.1c-0.1,0-0.2,0.1-0.3,0.1c-0.4,0.2-1.1,0.3-1.7,0.4
		c-0.1,0-0.2,0.1-0.2,0.1c0,0.1,0.1,0.1,0.2,0.1c0.1,0,0.2,0,0.3,0.1c0.1,0.1,0.2,0.1,0.2,0.3c0,0.3,0,0.8,0,2.4
		c0,2.3,0,3.1-0.1,3.5c0,0.8-0.2,0.9-0.8,1c-0.1,0-0.2,0.1-0.2,0.1c0,0.1,0.1,0.1,0.2,0.1c0.5,0,0.7-0.1,1.4-0.1
		C361.4,95.3,361.9,95.4,362.6,95.4z M365.3,96c0.6,0,1.9-0.3,2.8-1c0.6-0.5,1.2-1.2,1.2-2.3c0-0.9-0.5-1.7-1.6-2.3
		c-0.7-0.4-1.9-0.8-2.4-1c-0.1,0-0.2-0.1-0.1-0.2c0-0.1,0.1-0.4,0.2-0.5c0,0,0.1-0.1,0.2-0.1c0.6-0.1,1.8-0.1,2.4-0.2
		c0.1,0,0.2-0.1,0.2-0.2c0.2-0.4,0.4-0.9,0.5-1.1c0-0.1,0-0.2-0.1-0.1c-0.2,0.1-0.6,0.2-1,0.2c-0.7,0.1-1.4,0.2-1.7,0.2
		c0,0-0.2,0.1-0.2,0.1c-0.3,0.5-0.9,2.3-0.9,3c0,0.1,0,0.2,0.1,0.2c0.5,0.1,1.3,0.4,1.9,0.6c1,0.4,1.4,1.1,1.4,1.9
		c0,1.6-1.7,2.3-2.9,2.5c-0.2,0-0.2,0-0.2,0.1c0,0,0,0.1,0.1,0.1C365.1,96,365.2,96,365.3,96z M297.6,110.3c0.1,0,0.2,0,0.2-0.1
		s-0.1-0.1-0.2-0.1c-0.4-0.1-0.4-0.2-0.4-0.5l0-2.4c0-0.8-0.2-1.2-0.3-1.4c-0.3-0.4-0.8-0.6-1.3-0.6c-0.3,0-0.6,0.1-0.8,0.2
		c-0.2,0.1-0.5,0.3-0.7,0.5c0,0-0.1,0-0.1,0c0-0.2,0.1-4.4,0.1-4.6c0-0.2,0-0.3-0.1-0.3c0,0-0.1,0-0.2,0.1c-0.4,0.2-1,0.3-1.4,0.4
		c-0.2,0-0.2,0.1-0.2,0.1c0,0,0,0.1,0.1,0.1c0.3,0.2,0.4,0.2,0.4,0.6c0,0.4,0,1.4,0,3.5l0,0.7c0,1.5,0,2.5,0,3
		c0,0.4-0.1,0.5-0.5,0.6c-0.2,0-0.2,0.1-0.2,0.1s0.1,0.1,0.2,0.1c0.3,0,0.5-0.1,1.1-0.1c0.2,0,0.8,0.1,1.2,0.1
		c0.2,0,0.2-0.1,0.2-0.1c0-0.1-0.1-0.1-0.2-0.1c-0.3-0.1-0.4-0.2-0.4-0.5c0-0.5-0.1-1.9-0.1-3.2c0-0.2,0.1-0.3,0.1-0.4
		c0.2-0.1,0.5-0.3,0.8-0.3c0.4,0,0.6,0.1,0.8,0.4c0.1,0.2,0.2,0.7,0.2,1.1c0,1.1,0,1.8-0.1,2.1c0,0.4-0.1,0.6-0.5,0.7
		c-0.1,0-0.2,0.1-0.2,0.1c0,0,0.1,0.1,0.2,0.1c0.4,0,0.5-0.1,1.1-0.1C297.1,110.2,297.2,110.3,297.6,110.3z M301.2,110.3
		c0.5,0,1.2-0.2,1.6-0.5c0.4-0.3,1.1-1,1.1-2.1c0-1.4-1.1-2.6-2.7-2.6c-0.6,0-1.2,0.2-1.7,0.6c-0.4,0.3-1,1-1,2
		C298.5,109.2,299.7,110.3,301.2,110.3z M301.4,110.1c-0.4,0-0.8-0.3-1-0.7c-0.3-0.6-0.4-1.3-0.4-2c0-1.2,0.6-2,1.1-2
		c1,0,1.4,1.1,1.4,2.6c0,1-0.3,1.7-0.5,1.9C301.9,110,301.6,110.1,301.4,110.1z M308.5,110.3c0.4-0.2,1.5-0.4,1.7-0.4
		c0.1,0,0.3-0.1,0.3-0.1c0-0.1-0.1-0.2-0.2-0.2c-0.1,0-0.3,0.1-0.5,0.1c-0.1,0-0.2-0.1-0.2-0.1c0-0.1,0-0.2,0-0.5l0-0.8
		c0-1.1,0-2.5,0.1-3c0-0.1,0-0.1-0.1-0.1c-0.2,0-0.6,0.1-1.1,0.1h-0.7c-0.1,0-0.2,0-0.2,0.1c0,0,0.1,0.1,0.2,0.1
		c0.4,0.1,0.5,0.1,0.5,0.6c0,0.4,0,1.1,0,1.3c0,0.3,0,1,0,1.5c0,0.3-0.1,0.4-0.2,0.5c-0.2,0.2-0.5,0.3-0.8,0.3
		c-0.3,0-0.5-0.1-0.7-0.3c-0.1-0.1-0.2-0.3-0.2-0.8c0-0.8,0-2.5,0-3.3c0-0.1,0-0.2-0.1-0.1c-0.2,0.1-0.9,0.2-1.6,0.2
		c-0.1,0-0.2,0-0.2,0.1c0,0,0,0.1,0.2,0.2c0.2,0.1,0.3,0.2,0.3,0.5c0,0.2,0,2.4,0,2.9c0,0.4,0.1,0.7,0.3,1c0.3,0.4,0.7,0.5,1.1,0.5
		c0.4,0,0.7-0.1,0.9-0.2c0.2-0.1,0.6-0.4,0.8-0.6c0,0,0,0,0,0.1c0,0.1,0,0.4,0,0.5c0,0.1,0,0.2,0,0.2
		C308.3,110.4,308.3,110.4,308.5,110.3z M310.8,110.3c0.3,0,0.3-0.1,1.1-0.1c0.7,0,0.9,0.1,1.3,0.1c0.2,0,0.3,0,0.3-0.1
		s-0.1-0.1-0.2-0.1c-0.5-0.1-0.6-0.2-0.7-0.6c0-0.3-0.1-0.9-0.1-1.9c0-0.3,0-0.8,0-1c0-0.1,0.1-0.2,0.2-0.3c0.1-0.1,0.3-0.2,0.5-0.2
		c0.2,0,0.4,0.1,0.5,0.2c0.1,0.1,0.2,0.1,0.2,0.1c0.1,0,0.1,0,0.3-0.2c0.2-0.2,0.4-0.5,0.4-0.7c0-0.1-0.1-0.2-0.2-0.3
		c-0.1-0.1-0.3-0.1-0.5-0.1c-0.5,0-1,0.5-1.4,1c0,0-0.1,0-0.1,0c0-0.3,0-0.7,0-0.9c0-0.1,0-0.1-0.1-0.1c-0.1,0-0.1,0-0.2,0.1
		c-0.3,0.1-0.7,0.3-1.3,0.4c-0.1,0-0.2,0.1-0.2,0.1c0,0,0,0.1,0.1,0.1c0.3,0.3,0.4,0.3,0.4,0.4c0,0.2,0,0.5,0,1.4c0,0.9,0,1.7,0,1.9
		c0,0.4-0.2,0.5-0.5,0.6c-0.2,0-0.2,0.1-0.2,0.1S310.7,110.3,310.8,110.3z M316.4,110.3c0.4,0,1-0.1,1.3-0.4
		c0.2-0.2,0.6-0.6,0.6-1.1c0-0.7-0.3-1-1.2-1.6c-0.6-0.4-1-0.6-1-1.1c0-0.4,0.4-0.7,0.8-0.7c0.3,0,0.5,0.1,0.7,0.2
		c0.2,0.2,0.3,0.4,0.3,0.6c0,0.1,0.1,0.2,0.1,0.2c0.1,0,0.1-0.1,0.1-0.2c0-0.4-0.1-0.6-0.1-0.7c0-0.1,0-0.1-0.1-0.1
		c-0.2-0.1-0.6-0.2-1.1-0.2c-0.5,0-0.9,0.1-1.2,0.3c-0.4,0.3-0.7,0.7-0.7,1.2c0,0.5,0.3,1.1,1.1,1.6c0.7,0.4,1,0.7,1,1.1
		c0,0.5-0.5,0.8-0.8,0.8c-0.3,0-0.5,0-0.7-0.2c-0.2-0.2-0.5-0.5-0.6-0.8c-0.1-0.2-0.1-0.3-0.2-0.3c-0.1,0-0.1,0.1-0.1,0.3l0.1,0.7
		c0,0.1,0.1,0.2,0.2,0.3C315.7,110.3,316.1,110.3,316.4,110.3z M323.5,110.3c0.8,0,1.4-0.3,1.9-0.9c0.1-0.1,0.1-0.2,0.1-0.2
		c0-0.1-0.1-0.1-0.2,0c-0.3,0.3-0.7,0.4-1.3,0.4c-0.5,0-1-0.1-1.4-0.6c-0.4-0.4-0.6-1-0.6-1.6c0-0.4,0-0.6,0.1-0.7
		c0,0,0.1-0.1,0.1-0.1h0.7c0.3,0,2.1,0,2.2,0c0.1,0,0.1-0.1,0.1-0.1c0-0.8-0.9-1.4-1.7-1.4c-0.7,0-1.3,0.3-1.7,0.7
		c-0.6,0.6-0.8,1.4-0.8,2c0,0.7,0.2,1.4,0.7,1.8C322.3,110.1,322.9,110.3,323.5,110.3z M322.4,106.4
		C322.4,106.4,322.3,106.4,322.4,106.4c-0.1-0.2,0.1-0.4,0.2-0.6c0.3-0.3,0.6-0.5,1-0.5c0.3,0,0.5,0.1,0.7,0.3
		c0.2,0.2,0.2,0.4,0.2,0.6c0,0.1,0,0.3-0.3,0.3L322.4,106.4z M328.3,110.4c0,0,0.1,0,0.2-0.2c0.2-0.5,0.4-1,0.7-1.5
		c0.1-0.3,0.8-1.9,1.1-2.5c0.2-0.4,0.3-0.5,0.6-0.6c0.1,0,0.2-0.1,0.2-0.1s-0.1-0.1-0.2-0.1c-0.1,0-0.5,0-0.7,0c-0.3,0-0.5,0-0.7,0
		c-0.1,0-0.2,0-0.2,0.1c0,0.1,0.1,0.1,0.2,0.1c0.4,0.1,0.5,0.2,0.5,0.3c0,0.2-0.1,0.3-0.2,0.6c-0.2,0.5-0.9,2.3-1.1,2.6
		c0,0,0,0-0.1,0c-0.2-0.3-1-2.4-1.1-2.9c-0.1-0.4-0.1-0.5,0.3-0.6c0.1,0,0.2-0.1,0.2-0.1s-0.1-0.1-0.2-0.1c-0.2,0-0.5,0-0.8,0
		c-0.4,0-0.6-0.1-1-0.1c-0.2,0-0.2,0-0.2,0.1c0,0,0.1,0.1,0.2,0.1c0.3,0.1,0.5,0.2,0.6,0.5c0.2,0.4,1,2.6,1.3,3.2
		c0.2,0.5,0.3,0.8,0.4,1C328.2,110.4,328.3,110.4,328.3,110.4z M333.5,110.3c0.8,0,1.4-0.3,1.9-0.9c0.1-0.1,0.1-0.2,0.1-0.2
		c0-0.1-0.1-0.1-0.2,0c-0.3,0.3-0.7,0.4-1.3,0.4c-0.5,0-1-0.1-1.4-0.6c-0.4-0.4-0.6-1-0.6-1.6c0-0.4,0-0.6,0.1-0.7
		c0,0,0.1-0.1,0.1-0.1h0.7c0.3,0,2.1,0,2.2,0c0.1,0,0.1-0.1,0.1-0.1c0-0.8-0.9-1.4-1.7-1.4c-0.7,0-1.3,0.3-1.7,0.7
		c-0.6,0.6-0.8,1.4-0.8,2c0,0.7,0.2,1.4,0.7,1.8C332.3,110.1,332.9,110.3,333.5,110.3z M332.4,106.4
		C332.4,106.4,332.3,106.4,332.4,106.4c-0.1-0.2,0.1-0.4,0.2-0.6c0.3-0.3,0.6-0.5,1-0.5c0.3,0,0.5,0.1,0.7,0.3
		c0.2,0.2,0.2,0.4,0.2,0.6c0,0.1,0,0.3-0.3,0.3L332.4,106.4z M336.2,110.3c0.2,0,0.3-0.1,0.8-0.1c0.6,0,1,0.1,1.3,0.1
		c0.2,0,0.3,0,0.3-0.1s-0.1-0.1-0.3-0.1c-0.5-0.1-0.7-0.1-0.7-0.6c0-0.3-0.1-1-0.1-2c0-0.3,0-0.7,0-0.8c0-0.2,0.1-0.3,0.2-0.5
		c0.2-0.2,0.4-0.3,0.6-0.3c0.2,0,0.3,0.1,0.5,0.2c0.2,0.1,0.2,0.1,0.2,0.1c0,0,0.1,0,0.2-0.1c0.2-0.1,0.3-0.4,0.3-0.5
		c0-0.1,0-0.1-0.1-0.2c-0.1-0.1-0.3-0.2-0.5-0.2c-0.5,0-1.1,0.5-1.5,1c0,0-0.1,0-0.1,0c0-0.2,0-0.7,0-0.9c0-0.1,0-0.2-0.1-0.2
		c0,0-0.1,0-0.2,0.1c-0.2,0.1-0.6,0.3-0.9,0.3c-0.1,0-0.2,0.1-0.2,0.1s0,0.1,0.1,0.1c0.3,0.2,0.4,0.3,0.4,0.4v1.5c0,0.9,0,1.7,0,1.9
		c-0.1,0.4-0.2,0.5-0.5,0.6c-0.1,0-0.2,0.1-0.2,0.1C336,110.2,336,110.3,336.2,110.3z M341,114c0.2,0,0.3,0,0.5-0.2
		c0.1-0.1,0.2-0.3,0.3-0.5c0.2-0.5,0.7-1.9,1-2.7c0.3-0.7,0.4-1,0.6-1.5c0.2-0.5,1.1-2.6,1.2-3c0.2-0.5,0.4-0.6,0.6-0.7
		c0.1,0,0.2-0.1,0.2-0.1s-0.1-0.1-0.2-0.1c-0.2,0-0.4,0-0.6,0c-0.2,0-0.5,0-0.7,0c-0.1,0-0.2,0-0.2,0.1c0,0,0,0.1,0.2,0.1
		c0.2,0.1,0.3,0.2,0.3,0.3c0,0.1,0,0.2-0.1,0.4c-0.1,0.3-0.9,2.3-1.1,2.7c0,0-0.1,0.1-0.1,0c-0.3-0.6-1-2.4-1.2-2.9
		c-0.1-0.4-0.1-0.4,0.2-0.5c0.1,0,0.2-0.1,0.2-0.1c0-0.1-0.1-0.1-0.2-0.1c-0.2,0-0.5,0-0.7,0c-0.3,0-0.7-0.1-1-0.1
		c-0.1,0-0.2,0-0.2,0.1c0,0,0.1,0.1,0.2,0.1c0.2,0.1,0.4,0.2,0.5,0.4c0.6,1.3,1.5,3.5,1.7,4.1c0,0.1,0.1,0.3,0,0.4
		c-0.5,1.2-0.9,2.3-1,2.6c-0.1,0.2-0.2,0.2-0.4,0.2l-0.3,0l0,0c-0.2,0-0.4,0.2-0.4,0.4C340.6,113.8,340.8,114,341,114z M352.4,110.4
		c0,0,0.1-0.1,0.2-0.3c0.2-0.4,0.4-1,0.6-1.6c0.4-1,0.8-1.9,1.1-2.4c0.2-0.4,0.3-0.6,0.6-0.6c0.2-0.1,0.2-0.1,0.2-0.1
		s-0.1-0.1-0.2-0.1c-0.2,0-0.5,0-0.7,0c-0.2,0-0.5,0-0.7,0c-0.1,0-0.2,0-0.2,0.1c0,0,0,0.1,0.2,0.1c0.4,0.1,0.4,0.2,0.4,0.3
		c0,0.1-0.1,0.3-0.2,0.7c-0.2,0.5-0.8,2-1,2.4c0,0,0,0.1-0.1,0c-0.2-0.4-0.9-2.4-1.1-2.8c-0.2-0.4-0.1-0.5,0.2-0.5
		c0.1,0,0.2-0.1,0.2-0.1c0,0-0.1-0.1-0.2-0.1c-0.2,0-0.4,0-0.8,0c-0.3,0-0.6-0.1-0.9-0.1c-0.1,0-0.2,0-0.2,0.1s0.1,0.1,0.2,0.1
		c0.3,0.1,0.4,0.2,0.5,0.4l0.2,0.6c0,0.1,0,0.2,0,0.2c-0.1,0.4-0.7,1.7-1,2.1c0,0-0.1,0-0.1,0c-0.3-0.8-0.9-2.3-1.1-2.9
		c-0.1-0.2-0.1-0.3,0.3-0.4c0.1,0,0.2-0.1,0.2-0.1c0-0.1-0.1-0.1-0.2-0.1c-0.3,0-0.5,0-0.8,0c-0.4,0-0.8-0.1-1-0.1
		c-0.2,0-0.2,0-0.2,0.1c0,0.1,0.1,0.1,0.2,0.1c0.3,0.1,0.5,0.3,0.6,0.5c0.2,0.2,0.9,2.3,1.2,2.9c0.2,0.6,0.3,1,0.4,1.2
		c0,0.1,0.1,0.2,0.1,0.2c0.1,0,0.1-0.1,0.2-0.3c0.2-0.4,0.3-0.7,0.5-1.2c0.2-0.5,0.8-1.7,0.9-2c0-0.1,0.1,0,0.1,0l0.8,2.2l0.3,0.9
		C352.3,110.3,352.3,110.4,352.4,110.4z M357.5,110.3c0.8,0,1.4-0.3,1.9-0.9c0.1-0.1,0.1-0.2,0.1-0.2c0-0.1-0.1-0.1-0.2,0
		c-0.3,0.3-0.7,0.4-1.3,0.4c-0.5,0-1-0.1-1.4-0.6c-0.4-0.4-0.6-1-0.6-1.6c0-0.4,0-0.6,0.1-0.7c0,0,0.1-0.1,0.1-0.1h0.7
		c0.3,0,2.1,0,2.2,0c0.1,0,0.1-0.1,0.1-0.1c0-0.8-0.9-1.4-1.7-1.4c-0.7,0-1.3,0.3-1.7,0.7c-0.6,0.6-0.8,1.4-0.8,2
		c0,0.7,0.2,1.4,0.7,1.8C356.3,110.1,356.8,110.3,357.5,110.3z M356.3,106.4C356.3,106.4,356.3,106.4,356.3,106.4
		c-0.1-0.2,0.1-0.4,0.2-0.6c0.3-0.3,0.6-0.5,1-0.5c0.3,0,0.5,0.1,0.7,0.3c0.2,0.2,0.2,0.4,0.2,0.6c0,0.1,0,0.3-0.3,0.3L356.3,106.4z
		 M362.5,110.3c0.8,0,1.4-0.3,1.9-0.9c0.1-0.1,0.1-0.2,0.1-0.2c0-0.1-0.1-0.1-0.2,0c-0.3,0.3-0.7,0.4-1.3,0.4c-0.5,0-1-0.1-1.4-0.6
		c-0.4-0.4-0.6-1-0.6-1.6c0-0.4,0-0.6,0.1-0.7c0,0,0.1-0.1,0.1-0.1h0.7c0.3,0,2.1,0,2.2,0c0.1,0,0.1-0.1,0.1-0.1
		c0-0.8-0.9-1.4-1.7-1.4c-0.7,0-1.3,0.3-1.7,0.7c-0.6,0.6-0.8,1.4-0.8,2c0,0.7,0.2,1.4,0.7,1.8C361.3,110.1,361.9,110.3,362.5,110.3
		z M361.4,106.4C361.3,106.4,361.3,106.4,361.4,106.4c-0.1-0.2,0.1-0.4,0.2-0.6c0.3-0.3,0.6-0.5,1-0.5c0.3,0,0.5,0.1,0.7,0.3
		c0.2,0.2,0.2,0.4,0.2,0.6c0,0.1,0,0.3-0.3,0.3L361.4,106.4z M370.5,110.3c0.1,0,0.2,0,0.2-0.1c0-0.1-0.1-0.1-0.2-0.1
		c-0.4-0.1-0.6-0.2-1-0.6c-0.6-0.7-1.6-1.7-2-2.2c0,0,0-0.1,0-0.1c0.3-0.2,0.9-0.8,1.3-1.1c0.6-0.4,0.8-0.5,1.3-0.6
		c0.2,0,0.2-0.1,0.2-0.1c0-0.1-0.1-0.1-0.2-0.1c-0.4,0-0.9,0.1-1.2,0.1c-0.2,0-0.5,0-0.7,0c-0.1,0-0.2,0-0.2,0.1
		c0,0.1,0.1,0.1,0.2,0.1c0.3,0.1,0.4,0.1,0.4,0.2c0,0.1-0.1,0.1-0.2,0.2c-0.2,0.3-0.9,0.9-1.5,1.4c-0.1,0.1-0.2,0.1-0.3,0.1
		c0,0-0.1-0.1-0.1-0.2c0-1.5,0.1-3.3,0.1-3.7c0-1,0-2.2,0.1-2.7c0-0.1,0-0.1,0-0.1c-0.1,0-0.1,0-0.2,0.1c-0.1,0-0.4,0.2-1,0.3
		c-0.1,0-0.2,0.1-0.2,0.1c0,0,0.1,0.1,0.1,0.1c0.2,0.1,0.3,0.2,0.3,0.3c0,0.1,0.1,0.3,0.1,0.6c0,1.1,0,2.8-0.1,3.9
		c0,1.1,0,2.2-0.1,3.2c0,0.4-0.1,0.6-0.5,0.7c-0.1,0-0.2,0.1-0.2,0.1c0,0.1,0.1,0.1,0.2,0.1c0.2,0,0.5,0,0.9,0c0.4,0,0.6,0,1,0
		c0.2,0,0.3,0,0.3-0.1c0-0.1-0.1-0.1-0.2-0.1c-0.4-0.1-0.5-0.1-0.5-0.8c0-0.7,0-1.2,0-1.4c0-0.1,0-0.1,0.1-0.1c0,0,0.1,0.1,0.2,0.1
		l0.1,0.1c0.4,0.4,1.4,1.4,1.7,1.8c0.1,0.2,0.1,0.3-0.1,0.4c-0.2,0.1-0.3,0.1-0.3,0.1c0,0.1,0.1,0.1,0.2,0.1c0.2,0,0.4,0,0.6,0
		C369.5,110.2,370,110.3,370.5,110.3z M371.6,110.3c0.3,0,0.6-0.2,0.6-0.6c0-0.3-0.2-0.6-0.5-0.6c-0.3,0-0.6,0.3-0.6,0.6
		C371,110.1,371.3,110.3,371.6,110.3z M373.1,103.3c0.2,0,1.2-0.4,1.2-1.3c0-0.5-0.3-1-0.9-1c-0.2,0-0.4,0.2-0.4,0.4
		c0,0.2,0.1,0.2,0.3,0.3c0.4,0.1,0.5,0.3,0.5,0.5c0,0.4-0.3,0.7-0.7,0.9c-0.1,0-0.1,0.1-0.1,0.1C372.9,103.3,373,103.3,373.1,103.3z
		 M374.8,103.3c0.2,0,1.2-0.4,1.2-1.3c0-0.5-0.3-1-0.8-1c-0.2,0-0.4,0.2-0.4,0.4c0,0.2,0.1,0.2,0.3,0.3c0.4,0.1,0.5,0.3,0.5,0.5
		c0,0.4-0.3,0.7-0.7,0.9l-0.1,0.1c0,0,0,0,0,0C374.6,103.3,374.7,103.3,374.8,103.3z"/>
</g>
</svg>
