<svg xmlns="http://www.w3.org/2000/svg" width="399" height="200" viewBox="0 0 399 200">
  <g fill="none" fill-rule="evenodd" transform="translate(-20 -10)">
    <g fill-rule="nonzero" stroke="#222F3C" stroke-linecap="round" stroke-linejoin="round" stroke-width=".5" transform="translate(235.535 119.271)">
      <line x1="8.993" y1="11.825" y2="11.825"/>
      <line x1="35.765" x2="26.771" y1="11.825" y2="11.825"/>
      <line x1="25.792" x2="35.765" y1="8.437" y2="8.437"/>
      <line x2="9.973" y1="8.437" y2="8.437"/>
      <g transform="translate(5.306 32.749)">
        <line x2="2.284"/>
        <line x1="11.434" x2="13.718"/>
        <line x1="22.868" x2="25.152"/>
        <g transform="translate(5.718 3.067)">
          <line x2="2.284"/>
          <line x1="11.434" x2="13.718"/>
        </g>
      </g>
      <g transform="translate(0 21.135)">
        <path d="M0 7.38541059L5.96030021 5.12631662 11.9209351 7.38541059 16.1658376 5.77672691 16.1658376 0M35.7648174 7.38511197L29.8043498 5.126018 23.8438823 7.38511197 19.5989798 5.7764283 19.5989798.00135301198"/>
      </g>
      <ellipse cx="17.882" cy="12.498" rx="8.816" ry="8.898" transform="rotate(-67.5 17.882 12.498)"/>
      <path d="M11.6627877 18.7992742L.000559583466 18.7992742.000559583466 39.0888383 35.7655403 39.0888383 35.7655403 18.7992742 24.1031448 18.7992742M14.2340497 14.0474221C14.2340497 12.7214968 15.4499946 10.6157838 17.8818846 7.73028318 20.314667 10.6157838 21.5310582 12.7214968 21.5310582 14.0474221 21.5310582 16.0363101 19.8969875 17.6479667 17.8818846 17.6479667 15.8681204 17.6479667 14.2340497 16.0363101 14.2340497 14.0474221zM43.0979499 4.12502955L39.5116959 4.12502955 37.6716302 5.74956883 35.9339763 5.74956883 35.9339763 14.2131608 37.6716302 14.2131608 39.5116959 15.8377001 43.0979499 15.8377001"/>
    </g>
    <path fill="#333838" fill-rule="nonzero" d="M243.594499,82.0111915 C243.669511,82.0111915 243.714518,81.9202945 243.819535,81.6627528 C244.509647,79.9963065 245.724844,77.1330489 246.669998,75.0424163 C247.615151,72.8911857 247.885195,72.5730459 248.515297,72.4064013 C248.785341,72.3609528 248.860353,72.3003547 248.860353,72.2397567 C248.860353,72.1791586 248.785341,72.1640091 248.590309,72.1640091 C248.320265,72.1640091 247.9152,72.2246072 247.495131,72.2246072 C247.045058,72.2246072 246.835024,72.1640091 246.444961,72.1640091 C246.234927,72.1640091 246.18992,72.1943081 246.18992,72.2549062 C246.18992,72.3155042 246.279934,72.3458032 246.519973,72.4215508 C247.015054,72.5730459 247.030056,72.8305876 246.955044,73.1638769 C246.639993,74.2849407 244.824698,78.5268039 244.104582,80.1023531 C244.059574,80.1932502 244.029569,80.2083997 243.96956,80.1023531 C243.459477,78.9661397 242.79937,77.5269362 242.424309,76.633115 C242.394304,76.5573674 242.394304,76.4816199 242.409307,76.4513208 C242.664348,75.981686 243.399467,74.4818844 243.789531,73.7244088 C244.284611,72.8457371 244.569657,72.5275974 245.124747,72.4064013 C245.334781,72.3609528 245.409793,72.3155042 245.409793,72.2397567 C245.409793,72.1791586 245.334781,72.1640091 245.154752,72.1640091 C244.809696,72.1640091 244.569657,72.2246072 244.044572,72.2246072 C243.654509,72.2246072 243.41447,72.1791586 243.039409,72.1791586 C242.85938,72.1791586 242.769365,72.2094576 242.769365,72.2549062 C242.769365,72.3155042 242.814372,72.3761023 243.084416,72.4367003 C243.729521,72.5881954 243.744523,72.7396905 243.279448,73.8456049 C242.964397,74.5879309 242.649346,75.2848085 242.289287,76.0271345 C242.24428,76.1028821 242.18427,76.0877326 242.169268,76.0574336 C241.674188,74.9060707 241.224115,73.8759039 240.984076,73.2396244 C240.759039,72.6790925 240.909063,72.4972984 241.314129,72.4215508 C241.509161,72.3761023 241.599175,72.3306537 241.599175,72.2549062 C241.599175,72.1943081 241.494158,72.1640091 241.344134,72.1640091 C240.999078,72.1640091 240.654022,72.2246072 240.113935,72.2246072 C239.573847,72.2246072 239.288801,72.1640091 238.85373,72.1640091 C238.658699,72.1640091 238.568684,72.2094576 238.568684,72.2549062 C238.568684,72.3306537 238.643696,72.3912518 238.883735,72.4367003 C239.34881,72.5578964 239.46883,72.7396905 239.903901,73.6789603 C240.233954,74.4061368 241.239117,76.7088625 241.479156,77.284544 C241.479156,77.314843 241.479156,77.4208896 241.449151,77.4663381 C241.044085,78.4359068 240.684027,79.1933824 240.263959,80.0569046 C240.218952,80.1326521 240.158942,80.1629511 240.113935,80.0569046 C239.093769,77.7844779 237.608528,74.5576319 236.978426,72.9820827 C236.873409,72.7093915 236.873409,72.5275974 237.293477,72.4518498 C237.473506,72.4215508 237.563521,72.3761023 237.563521,72.3003547 C237.563521,72.2397567 237.473506,72.1943081 237.263472,72.1943081 C236.948421,72.1943081 236.588363,72.2246072 236.258309,72.2246072 C235.808236,72.2246072 235.193137,72.1640091 234.833078,72.1640091 C234.638047,72.1640091 234.53303,72.2246072 234.53303,72.2700557 C234.53303,72.3306537 234.668052,72.3912518 234.848081,72.4064013 C235.418173,72.4821489 235.538193,72.7548401 236.07828,73.9365019 C236.783395,75.4211541 237.788557,77.6632818 238.613691,79.5872697 C238.808723,80.0417551 239.273798,81.1476694 239.46883,81.6476033 C239.573847,81.9202945 239.603852,82.0111915 239.693866,82.0111915 C239.753876,82.0111915 239.843891,81.8899955 239.933905,81.6476033 C240.263959,80.7689316 241.059088,78.9964388 241.62918,77.8753749 C241.659185,77.8299264 241.704192,77.8299264 241.734197,77.8905244 C242.169268,78.8600932 243.024406,80.7386326 243.339458,81.6627528 C243.429472,81.905145 243.489482,82.0111915 243.594499,82.0111915 Z M250.750659,81.8899955 C251.230737,81.8899955 251.695813,81.6627528 251.905847,81.2385665 C251.965856,81.1022209 251.905847,81.0567723 251.815832,81.1022209 C251.650805,81.1931179 251.500781,81.2385665 251.380761,81.2385665 C250.960693,81.2385665 250.825671,80.9507257 250.825671,80.662885 C250.825671,80.2689977 250.870679,78.8297941 250.870679,78.2692622 C250.870679,77.7996274 250.810669,77.1784974 250.660645,76.8906567 C250.480616,76.4210218 250.01554,76.1180316 249.505457,76.1180316 C249.250416,76.1180316 248.950367,76.2089287 248.605311,76.3907228 C248.305263,76.5422179 247.810183,76.8603577 247.465127,77.2693945 C247.285097,77.4814876 247.18008,77.6178332 247.18008,77.7238798 C247.18008,77.7844779 247.255092,77.8753749 247.330105,77.8602254 C247.435122,77.8450759 247.885195,77.6329827 248.035219,77.5269362 C248.065224,77.4966371 248.095229,77.4511886 248.095229,77.4057401 C248.095229,77.2996935 248.095229,77.1784974 248.110231,77.1178994 C248.140236,76.9512547 248.230251,76.8452081 248.335268,76.7543111 C248.560304,76.6179655 248.710328,76.5725169 248.935365,76.5725169 C249.115394,76.5725169 249.370436,76.663414 249.565467,76.8149091 C249.820508,77.0118528 249.925526,77.4360391 249.925526,78.0571691 C249.925526,78.2692622 249.925526,78.5722524 249.895521,78.7540466 C249.895521,78.8146446 249.820508,78.9509902 249.700489,78.9812893 C249.385438,79.1024853 248.020217,79.5115222 247.660158,79.7084658 C247.525136,79.7842134 247.120071,80.0872036 247.120071,80.571988 C247.120071,81.3597626 247.720168,81.8748459 248.320265,81.8748459 C248.890358,81.8748459 249.340431,81.6173042 249.790504,81.1931179 C249.805506,81.1779684 249.850513,81.1779684 249.865516,81.2082674 C250.000538,81.5567062 250.330591,81.8899955 250.750659,81.8899955 Z M248.980372,81.2991645 C248.515297,81.2991645 248.080226,80.9507257 248.080226,80.4507919 C248.080226,80.011456 248.275258,79.7842134 248.455287,79.6933163 C248.770338,79.5266717 249.640479,79.2085319 249.835511,79.1782329 C249.865516,79.1630834 249.895521,79.238831 249.895521,79.2539805 C249.895521,79.8296619 249.865516,80.4356424 249.820508,80.6931841 C249.805506,80.8598287 249.715491,80.9961743 249.655482,81.0567723 C249.490455,81.2082674 249.235414,81.2991645 248.980372,81.2991645 Z M254.276231,81.8596964 C254.696299,81.8596964 255.161375,81.7233508 255.491428,81.4658091 C255.68646,81.314314 255.821482,81.1628189 255.821482,81.0719218 C255.821482,81.0113238 255.776474,80.9961743 255.671457,81.0719218 C255.536435,81.1628189 255.266392,81.2991645 254.846323,81.2991645 C254.45626,81.2991645 254.141209,81.1779684 253.916173,80.8901277 C253.811156,80.7386326 253.781151,80.5568384 253.751146,80.0720541 C253.736143,79.6024192 253.721141,77.2239459 253.721141,76.9664042 C253.721141,76.8755072 253.751146,76.8300586 253.931175,76.8300586 C254.336241,76.8300586 255.07136,76.8452081 255.596445,76.8452081 C255.671457,76.8452081 255.746469,76.7240121 255.746469,76.4664704 C255.746469,76.3604238 255.68646,76.2543772 255.656455,76.2543772 C255.341404,76.2543772 254.096202,76.2998257 253.826158,76.2998257 C253.766148,76.2998257 253.751146,76.2089287 253.751146,76.1634801 C253.736143,75.981686 253.766148,75.5574997 253.766148,75.4211541 C253.766148,75.3454065 253.661131,75.3151075 253.526109,75.4666026 C253.166051,75.9362375 252.670971,76.3452743 252.29591,76.4816199 C252.130883,76.5573674 252.115881,76.602816 252.115881,76.633115 C252.115881,76.693713 252.190893,76.7391616 252.310912,76.7694606 C252.445934,76.7997596 252.610961,76.8300586 252.670971,76.8603577 C252.73098,76.8906567 252.745983,76.9967033 252.745983,77.1633479 L252.745983,80.2992968 C252.745983,80.662885 252.805993,80.9658753 252.926012,81.1628189 C253.181053,81.6476033 253.646129,81.8596964 254.276231,81.8596964 Z M258.671944,81.8899955 C259.527082,81.8899955 260.157185,81.5870052 260.757282,80.9355762 C260.847296,80.8295297 260.907306,80.7386326 260.907306,80.6931841 C260.907306,80.6174365 260.847296,80.5871375 260.727277,80.7083336 C260.367219,81.0567723 259.917146,81.1931179 259.302046,81.1931179 C258.806966,81.1931179 258.206868,81.0264733 257.801803,80.571988 C257.411739,80.1326521 257.111691,79.5115222 257.111691,78.7388971 C257.111691,78.3147108 257.156698,78.0874681 257.23171,77.9056739 C257.261715,77.8602254 257.336727,77.7844779 257.366732,77.7844779 L258.176863,77.7844779 C258.521919,77.7844779 260.472236,77.8147769 260.592255,77.8299264 C260.667267,77.8299264 260.742279,77.7390293 260.742279,77.6632818 C260.742279,76.7391616 259.797126,76.1180316 258.911983,76.1180316 C258.131856,76.1180316 257.441744,76.4816199 257.036679,76.8755072 C256.406576,77.4966371 256.166537,78.3904583 256.166537,79.0873358 C256.166537,79.9054095 256.436581,80.632586 256.886654,81.1173704 C257.336727,81.6021547 257.966829,81.8899955 258.671944,81.8899955 Z M257.426742,77.5723847 C257.396737,77.5723847 257.366732,77.5420857 257.366732,77.5117866 C257.366732,77.3905906 257.501754,77.1027498 257.681783,76.8906567 C258.011837,76.5422179 258.386898,76.3301248 258.776961,76.3301248 C259.122017,76.3301248 259.377058,76.4664704 259.527082,76.6179655 C259.692109,76.7997596 259.737116,77.0724508 259.737116,77.254245 C259.737116,77.3905906 259.707112,77.5572352 259.377058,77.5572352 L257.426742,77.5723847 Z M261.582416,81.8142479 C261.79245,81.8142479 261.957476,81.7233508 262.497564,81.7233508 C263.127666,81.7233508 263.622747,81.7839489 263.907793,81.7839489 C264.132829,81.7839489 264.267851,81.7536499 264.267851,81.6779023 C264.267851,81.6021547 264.192839,81.5718557 263.982805,81.5415567 C263.412712,81.4809586 263.232683,81.3749121 263.172674,80.9052772 C263.142669,80.5871375 263.112664,79.7993629 263.112664,78.678299 C263.112664,78.3753088 263.097661,77.935973 263.127666,77.7541788 C263.142669,77.5723847 263.217681,77.4057401 263.382708,77.2239459 C263.577739,77.0421518 263.817778,76.9209557 264.042815,76.9209557 C264.207841,76.9209557 264.402873,76.9967033 264.5679,77.1027498 C264.732927,77.1936469 264.807939,77.2087964 264.837944,77.2087964 C264.882951,77.2087964 264.942961,77.1936469 265.077982,77.0724508 C265.258012,76.9058062 265.408036,76.663414 265.408036,76.5573674 C265.408036,76.4816199 265.378031,76.4058723 265.303019,76.3452743 C265.152995,76.2240782 264.957963,76.1483306 264.777934,76.1483306 C264.177837,76.1483306 263.577739,76.7088625 263.157671,77.2390954 C263.112664,77.284544 263.082659,77.2693945 263.082659,77.2239459 C263.082659,76.9815537 263.097661,76.4058723 263.097661,76.2392277 C263.097661,76.0877326 263.067657,76.0271345 263.037652,76.0271345 C262.992644,76.0271345 262.917632,76.042284 262.812615,76.1028821 C262.572576,76.2392277 262.152508,76.3907228 261.852459,76.4664704 C261.717438,76.5119189 261.627423,76.5725169 261.627423,76.602816 C261.627423,76.633115 261.642425,76.6785635 261.747442,76.7543111 C262.032489,76.9967033 262.137506,77.0421518 262.137506,77.1481984 L262.137506,78.8297941 C262.137506,79.8296619 262.122503,80.6931841 262.092498,80.9507257 C262.032489,81.3597626 261.867462,81.4961082 261.552411,81.5718557 C261.432391,81.6021547 261.327374,81.6779023 261.327374,81.7233508 C261.327374,81.7839489 261.402386,81.8142479 261.582416,81.8142479 Z M240.158942,96.9637593 C240.353973,96.9637593 240.458991,96.9486098 240.458991,96.8577128 C240.458991,96.7819652 240.383978,96.7516662 240.203949,96.7062176 C239.693866,96.5547225 239.543842,96.4486759 239.483832,95.9335926 C239.438825,95.4639577 239.378815,93.5854183 239.393818,92.7370456 L239.394847,92.425826 C239.400115,91.3530162 239.423823,88.5086487 239.423823,88.0103981 C239.423823,87.9043515 239.438825,87.7831554 239.513837,87.7680059 C239.693866,87.7452816 240.160817,87.7396006 240.579244,87.7381803 L240.969073,87.7377069 C242.019244,87.7377069 242.214275,87.7983049 242.349297,87.919501 C242.469316,88.0406971 242.589336,88.3588368 242.619341,88.631528 C242.634343,88.7072756 242.679351,88.8436212 242.73936,88.8436212 C242.784368,88.8436212 242.85938,88.7375746 242.85938,88.510332 C242.844377,87.9952486 242.844377,87.5407632 242.904387,87.3589691 C242.919389,87.237773 242.904387,87.207474 242.889385,87.1620254 C242.874382,87.1317264 242.829375,87.1468759 242.769365,87.1923245 C242.514324,87.3286701 242.24428,87.3589691 241.539166,87.3589691 L238.958747,87.3741186 C237.413497,87.3741186 235.928256,87.3286701 235.688217,87.3135205 C235.478183,87.298371 235.268149,87.237773 235.208139,87.1620254 C235.163132,87.1165769 235.118124,87.0862779 235.08812,87.1014274 C235.013107,87.1317264 235.013107,87.207474 234.998105,87.3286701 C234.998105,87.7225574 234.878086,88.1770427 234.803073,88.631528 C234.788071,88.7375746 234.788071,88.8587707 234.848081,88.8587707 C234.90809,88.8587707 234.983103,88.7830232 235.058115,88.601229 C235.268149,88.0103981 235.46318,87.8286039 235.748227,87.7680059 C236.048275,87.7377069 236.408334,87.7074078 237.023433,87.7074078 C237.713545,87.7074078 238.058601,87.7377069 238.148616,87.7528564 C238.193623,87.7528564 238.23863,87.7983049 238.253633,87.9346505 C238.283638,88.1467437 238.283638,94.1762492 238.178621,95.6457518 C238.133613,96.3426294 238.043599,96.5850215 237.323482,96.6910681 C237.158455,96.7213671 237.023433,96.7668157 237.023433,96.8274137 C237.023433,96.9031613 237.098446,96.9637593 237.293477,96.9637593 C237.533516,96.9637593 237.983589,96.8728623 238.748713,96.8728623 C239.34881,96.8728623 239.813886,96.9637593 240.158942,96.9637593 Z M241.869219,96.9637593 C242.079253,96.9637593 242.24428,96.8728623 242.784368,96.8728623 C243.41447,96.8728623 243.90955,96.9334603 244.194596,96.9334603 C244.419633,96.9334603 244.554655,96.9031613 244.554655,96.8274137 C244.554655,96.7516662 244.479642,96.7213671 244.269608,96.6910681 C243.699516,96.6304701 243.519487,96.5244235 243.459477,96.0547886 C243.429472,95.7366489 243.399467,94.9488743 243.399467,93.8278105 C243.399467,93.5248202 243.384465,93.0854844 243.41447,92.9036903 C243.429472,92.7218961 243.504484,92.5552515 243.669511,92.3734574 C243.864543,92.1916632 244.104582,92.0704671 244.329618,92.0704671 C244.494645,92.0704671 244.689677,92.1462147 244.854703,92.2522613 C245.01973,92.3431583 245.094742,92.3583079 245.124747,92.3583079 C245.169754,92.3583079 245.229764,92.3431583 245.364786,92.2219623 C245.544815,92.0553176 245.69484,91.8129254 245.69484,91.7068789 C245.69484,91.6311313 245.664835,91.5553837 245.589822,91.4947857 C245.439798,91.3735896 245.244767,91.2978421 245.064737,91.2978421 C244.46464,91.2978421 243.864543,91.858374 243.444475,92.3886069 C243.399467,92.4340554 243.369462,92.4189059 243.369462,92.3734574 C243.369462,92.1310652 243.384465,91.5553837 243.384465,91.3887391 C243.384465,91.237244 243.35446,91.176646 243.324455,91.176646 C243.279448,91.176646 243.204436,91.1917955 243.099419,91.2523935 C242.85938,91.3887391 242.439312,91.5402342 242.139263,91.6159818 C242.004241,91.6614303 241.914226,91.7220284 241.914226,91.7523274 C241.914226,91.7826264 241.929229,91.828075 242.034246,91.9038225 C242.319292,92.1462147 242.424309,92.1916632 242.424309,92.2977098 L242.423059,94.4657031 C242.418892,95.2501813 242.404306,95.8856191 242.379302,96.1002372 C242.319292,96.509274 242.154265,96.6456196 241.839214,96.7213671 C241.719195,96.7516662 241.614178,96.8274137 241.614178,96.8728623 C241.614178,96.9334603 241.68919,96.9637593 241.869219,96.9637593 Z M248.500294,97.0395069 C249.355433,97.0395069 249.985535,96.7365167 250.585633,96.0850877 C250.675647,95.9790411 250.735657,95.888144 250.735657,95.8426955 C250.735657,95.7669479 250.675647,95.7366489 250.555628,95.857845 C250.195569,96.2062838 249.745496,96.3426294 249.130397,96.3426294 C248.635316,96.3426294 248.035219,96.1759847 247.630153,95.7214994 C247.24009,95.2821636 246.940041,94.6610336 246.940041,93.8884085 C246.940041,93.4642222 246.985049,93.2369795 247.060061,93.0551854 C247.090066,93.0097368 247.165078,92.9339893 247.195083,92.9339893 L248.005214,92.9339893 C248.35027,92.9339893 250.300586,92.9642883 250.420606,92.9794378 C250.495618,92.9794378 250.57063,92.8885408 250.57063,92.8127932 C250.57063,91.888673 249.625477,91.267543 248.740333,91.267543 C247.960207,91.267543 247.270095,91.6311313 246.865029,92.0250186 C246.234927,92.6461486 245.994888,93.5399697 245.994888,94.2368473 C245.994888,95.0549209 246.264932,95.7820974 246.715005,96.2668818 C247.165078,96.7516662 247.79518,97.0395069 248.500294,97.0395069 Z M247.255092,92.7218961 C247.225088,92.7218961 247.195083,92.6915971 247.195083,92.6612981 C247.195083,92.540102 247.330105,92.2522613 247.510134,92.0401681 C247.840187,91.6917294 248.215248,91.4796362 248.605311,91.4796362 C248.950367,91.4796362 249.205409,91.6159818 249.355433,91.7674769 C249.52046,91.949271 249.565467,92.2219623 249.565467,92.4037564 C249.565467,92.540102 249.535462,92.7067466 249.205409,92.7067466 L247.255092,92.7218961 Z M255.086362,97.0395069 C255.56644,97.0395069 256.031516,96.8122642 256.24155,96.3880779 C256.301559,96.2517323 256.24155,96.2062838 256.151535,96.2517323 C255.986508,96.3426294 255.836484,96.3880779 255.716465,96.3880779 C255.296396,96.3880779 255.161375,96.1002372 255.161375,95.8123965 C255.161375,95.4185092 255.206382,93.9793056 255.206382,93.4187737 C255.206382,92.9491388 255.146372,92.3280088 254.996348,92.0401681 C254.816319,91.5705333 254.351243,91.267543 253.84116,91.267543 C253.586119,91.267543 253.28607,91.3584401 252.941014,91.5402342 C252.640966,91.6917294 252.145886,92.0098691 251.80083,92.4189059 C251.6208,92.6309991 251.515783,92.7673447 251.515783,92.8733912 C251.515783,92.9339893 251.590796,93.0248864 251.665808,93.0097368 C251.770825,92.9945873 252.220898,92.7824942 252.370922,92.6764476 C252.400927,92.6461486 252.430932,92.6007 252.430932,92.5552515 C252.430932,92.4492049 252.430932,92.3280088 252.445934,92.2674108 C252.475939,92.1007662 252.565954,91.9947196 252.670971,91.9038225 C252.896007,91.7674769 253.046032,91.7220284 253.271068,91.7220284 C253.451097,91.7220284 253.706139,91.8129254 253.90117,91.9644206 C254.156212,92.1613642 254.261229,92.5855505 254.261229,93.2066805 C254.261229,93.4187737 254.261229,93.7217639 254.231224,93.903558 C254.231224,93.9641561 254.156212,94.1005017 254.036192,94.1308007 C253.721141,94.2519968 252.35592,94.6610336 251.995861,94.8579772 C251.860839,94.9337248 251.455774,95.236715 251.455774,95.7214994 C251.455774,96.509274 252.055871,97.0243574 252.655968,97.0243574 C253.226061,97.0243574 253.676134,96.7668157 254.126207,96.3426294 C254.141209,96.3274799 254.186216,96.3274799 254.201219,96.3577789 C254.336241,96.7062176 254.666294,97.0395069 255.086362,97.0395069 Z M253.316075,96.4486759 C252.851,96.4486759 252.415929,96.1002372 252.415929,95.6003033 C252.415929,95.1609675 252.610961,94.9337248 252.79099,94.8428277 C253.106041,94.6761831 253.976182,94.3580434 254.171214,94.3277443 C254.201219,94.3125948 254.231224,94.3883424 254.231224,94.4034919 C254.231224,94.9791733 254.201219,95.5851538 254.156212,95.8426955 C254.141209,96.0093401 254.051194,96.1456857 253.991185,96.2062838 C253.826158,96.3577789 253.571117,96.4486759 253.316075,96.4486759 Z M258.611934,97.0092079 C259.032002,97.0092079 259.497078,96.8728623 259.827131,96.6153206 C260.022163,96.4638255 260.157185,96.3123303 260.157185,96.2214333 C260.157185,96.1608352 260.112177,96.1456857 260.00716,96.2214333 C259.872138,96.3123303 259.602095,96.4486759 259.182026,96.4486759 C258.791963,96.4486759 258.476912,96.3274799 258.251876,96.0396391 C258.146859,95.888144 258.116854,95.7063499 258.086849,95.2215655 C258.071846,94.7519307 258.056844,92.3734574 258.056844,92.1159157 C258.056844,92.0250186 258.086849,91.9795701 258.266878,91.9795701 C258.671944,91.9795701 259.407063,91.9947196 259.932148,91.9947196 C260.00716,91.9947196 260.082172,91.8735235 260.082172,91.6159818 C260.082172,91.5099352 260.022163,91.4038886 259.992158,91.4038886 C259.677107,91.4038886 258.431905,91.4493372 258.161861,91.4493372 C258.101851,91.4493372 258.086849,91.3584401 258.086849,91.3129916 C258.071846,91.1311974 258.101851,90.7070111 258.101851,90.5706655 C258.101851,90.4949179 257.996834,90.4646189 257.861812,90.616114 C257.501754,91.0857489 257.006674,91.4947857 256.631613,91.6311313 C256.466586,91.7068789 256.451584,91.7523274 256.451584,91.7826264 C256.451584,91.8432245 256.526596,91.888673 256.646615,91.918972 C256.781637,91.949271 256.946664,91.9795701 257.006674,92.0098691 C257.066683,92.0401681 257.081686,92.1462147 257.081686,92.3128593 L257.081686,95.4488082 C257.081686,95.8123965 257.141696,96.1153867 257.261715,96.3123303 C257.516756,96.7971147 257.981832,97.0092079 258.611934,97.0092079 Z M268.153481,96.9183108 C268.378518,96.9183108 268.708571,96.8728623 269.06863,96.8728623 C269.413686,96.8728623 269.938771,96.9031613 270.103797,96.9031613 C270.283827,96.9031613 270.358839,96.8728623 270.358839,96.7971147 C270.358839,96.7516662 270.298829,96.7062176 270.088795,96.6607691 C269.758741,96.6001711 269.668727,96.4941245 269.653724,95.9941906 L269.593715,93.812661 C269.593715,93.252129 269.518703,92.6764476 269.413686,92.3734574 C269.218654,91.7826264 268.723574,91.267543 267.89844,91.267543 C267.148318,91.267543 266.458206,91.6765798 265.843107,92.2825603 C265.813102,92.2977098 265.753092,92.2825603 265.73809,92.2522613 C265.408036,91.6008323 264.927958,91.2826925 264.237846,91.2826925 C263.592742,91.2826925 262.872625,91.7220284 262.377545,92.1765137 C262.317535,92.2219623 262.302532,92.1310652 262.302532,92.0856167 C262.28753,91.918972 262.302532,91.5250847 262.302532,91.3584401 C262.302532,91.267543 262.272528,91.206945 262.22752,91.206945 C262.167511,91.206945 262.092498,91.237244 262.002484,91.2978421 C261.762445,91.4947857 261.297369,91.6765798 260.982318,91.7523274 C260.862299,91.7826264 260.802289,91.8129254 260.802289,91.858374 L260.817292,91.858374 C260.817292,91.9341215 260.847296,91.9644206 260.952314,92.0250186 C261.192352,92.1613642 261.282367,92.2977098 261.297369,92.5552515 C261.327374,92.8430922 261.312372,93.22183 261.312372,93.7823619 L261.311434,94.4870509 C261.308621,95.2177781 261.297369,95.967679 261.252362,96.2062838 C261.222357,96.3880779 261.222357,96.5547225 260.757282,96.6607691 C260.547248,96.6910681 260.457233,96.7365167 260.457233,96.7971147 C260.457233,96.8577128 260.592255,96.9031613 260.727277,96.9031613 C260.922309,96.9031613 261.23736,96.8728623 261.702435,96.8728623 C262.062494,96.8728623 262.557574,96.9031613 262.84262,96.9031613 C262.947637,96.9031613 263.067657,96.8728623 263.067657,96.7971147 C263.067657,96.7516662 263.007647,96.7062176 262.84262,96.6759186 C262.482562,96.6001711 262.392547,96.4183769 262.362542,96.1759847 C262.332537,95.9032935 262.272528,94.8428277 262.272528,93.7217639 C262.272528,93.2066805 262.317535,92.8582417 262.332537,92.6915971 C262.34754,92.5855505 262.377545,92.4340554 262.512567,92.3128593 C262.737603,92.1007662 263.112664,91.8432245 263.637749,91.8432245 C264.102824,91.8432245 264.342863,91.9795701 264.552897,92.1916632 C264.852946,92.5249525 264.927958,92.8733912 264.927958,93.7066144 L264.912956,96.1608352 C264.912956,96.5244235 264.762931,96.6001711 264.44788,96.6607691 C264.252849,96.7062176 264.177837,96.7668157 264.177837,96.8122642 C264.177837,96.8728623 264.252849,96.9031613 264.417875,96.9031613 C264.582902,96.9031613 264.942961,96.8728623 265.273014,96.8728623 C265.708085,96.8728623 266.158158,96.9031613 266.428201,96.9031613 C266.593228,96.9031613 266.683243,96.8728623 266.683243,96.8122642 C266.683243,96.7516662 266.608231,96.7365167 266.443204,96.6759186 C266.068143,96.5850215 266.023136,96.478975 265.978128,96.0547886 C265.948124,95.6457518 265.903116,93.3278766 265.873111,92.9036903 C265.873111,92.6309991 265.918119,92.4643544 265.978128,92.4037564 C266.23317,92.1462147 266.698245,91.8432245 267.253335,91.8432245 C267.988454,91.8432245 268.378518,92.2219623 268.51354,92.9945873 C268.573549,93.4490727 268.648561,94.1762492 268.618557,95.9941906 C268.618557,96.4486759 268.543544,96.5850215 268.108474,96.6759186 C267.988454,96.7062176 267.853433,96.7516662 267.853433,96.8274137 C267.853433,96.8880118 267.95845,96.9183108 268.153481,96.9183108 Z M273.584362,97.0395069 C274.4395,97.0395069 275.069603,96.7365167 275.6697,96.0850877 C275.759715,95.9790411 275.819724,95.888144 275.819724,95.8426955 C275.819724,95.7669479 275.759715,95.7366489 275.639695,95.857845 C275.279637,96.2062838 274.829564,96.3426294 274.214464,96.3426294 C273.719384,96.3426294 273.119286,96.1759847 272.714221,95.7214994 C272.324157,95.2821636 272.024109,94.6610336 272.024109,93.8884085 C272.024109,93.4642222 272.069116,93.2369795 272.144128,93.0551854 C272.174133,93.0097368 272.249145,92.9339893 272.27915,92.9339893 L273.089282,92.9339893 C273.434337,92.9339893 275.384654,92.9642883 275.504673,92.9794378 C275.579685,92.9794378 275.654698,92.8885408 275.654698,92.8127932 C275.654698,91.888673 274.709544,91.267543 273.824401,91.267543 C273.044274,91.267543 272.354162,91.6311313 271.949097,92.0250186 C271.318994,92.6461486 271.078956,93.5399697 271.078956,94.2368473 C271.078956,95.0549209 271.348999,95.7820974 271.799072,96.2668818 C272.249145,96.7516662 272.879247,97.0395069 273.584362,97.0395069 Z M272.33916,92.7218961 C272.309155,92.7218961 272.27915,92.6915971 272.27915,92.6612981 C272.27915,92.540102 272.414172,92.2522613 272.594201,92.0401681 C272.924255,91.6917294 273.299316,91.4796362 273.689379,91.4796362 C274.034435,91.4796362 274.289476,91.6159818 274.4395,91.7674769 C274.604527,91.949271 274.649535,92.2219623 274.649535,92.4037564 C274.649535,92.540102 274.61953,92.7067466 274.289476,92.7067466 L272.33916,92.7218961 Z M282.120746,96.9334603 C282.27077,96.9334603 282.39079,96.9183108 282.39079,96.8274137 C282.39079,96.7668157 282.300775,96.7365167 282.165753,96.6759186 C281.760688,96.569872 281.71568,96.478975 281.700678,95.4488082 C281.700678,94.6913326 281.685675,94.5701365 281.685675,93.7672124 C281.670673,92.9036903 281.550654,92.1462147 281.205598,91.7826264 C281.010566,91.5705333 280.650508,91.267543 280.035408,91.267543 C279.780366,91.267543 279.465315,91.2978421 279.150264,91.4493372 C278.820211,91.5856828 278.460152,91.8432245 278.085092,92.1310652 C278.055087,92.1613642 278.010079,92.1159157 278.010079,92.0856167 C277.995077,91.8735235 278.025082,91.4644867 278.040084,91.2826925 C278.055087,91.206945 277.980075,91.1463469 277.935067,91.1614965 C277.680026,91.3281411 277.079929,91.5856828 276.749875,91.6765798 C276.614853,91.7220284 276.539841,91.7674769 276.539841,91.7977759 C276.539841,91.8432245 276.569846,91.8735235 276.65986,91.9341215 C277.019919,92.1310652 277.049924,92.2977098 277.049924,92.4492049 L277.048812,93.7144697 C277.04659,94.5718198 277.039922,95.4336587 277.019919,96.1608352 C277.004916,96.4638255 276.944907,96.569872 276.569846,96.6456196 C276.389817,96.6759186 276.254795,96.7365167 276.254795,96.7971147 C276.254795,96.8728623 276.374814,96.9031613 276.539841,96.9031613 C276.824887,96.9031613 277.139938,96.8728623 277.33497,96.8728623 C277.680026,96.8728623 278.415145,96.9334603 278.535165,96.9334603 C278.685189,96.9334603 278.835213,96.9334603 278.835213,96.8425632 C278.835213,96.7668157 278.760201,96.7365167 278.580172,96.6910681 C278.340133,96.6153206 278.160104,96.539573 278.115096,96.2062838 C278.085092,95.9941906 278.040084,95.6003033 278.025082,94.6155851 L278.023774,94.1360364 C278.020122,93.4451914 278.010079,92.9009358 278.010079,92.7521952 C278.010079,92.6309991 278.085092,92.4037564 278.190109,92.2977098 C278.580172,91.9644206 278.970235,91.8129254 279.360298,91.8129254 C279.705354,91.8129254 279.990401,91.918972 280.215437,92.1007662 C280.590498,92.3886069 280.695515,92.7521952 280.695515,93.9793056 L280.695515,96.0396391 C280.695515,96.478975 280.635505,96.5850215 280.275447,96.6759186 C280.080415,96.7213671 279.990401,96.7819652 279.990401,96.8425632 C279.990401,96.9031613 280.095418,96.9334603 280.230439,96.9334603 C280.455476,96.9334603 280.650508,96.8728623 281.16059,96.8728623 C281.490644,96.8728623 281.925714,96.9334603 282.120746,96.9334603 Z M285.10623,97.0092079 C285.526298,97.0092079 285.991374,96.8728623 286.321427,96.6153206 C286.516459,96.4638255 286.651481,96.3123303 286.651481,96.2214333 C286.651481,96.1608352 286.606473,96.1456857 286.501456,96.2214333 C286.366434,96.3123303 286.096391,96.4486759 285.676323,96.4486759 C285.286259,96.4486759 284.971208,96.3274799 284.746172,96.0396391 C284.641155,95.888144 284.61115,95.7063499 284.581145,95.2215655 C284.566142,94.7519307 284.55114,92.3734574 284.55114,92.1159157 C284.55114,92.0250186 284.581145,91.9795701 284.761174,91.9795701 C285.16624,91.9795701 285.901359,91.9947196 286.426444,91.9947196 C286.501456,91.9947196 286.576468,91.8735235 286.576468,91.6159818 C286.576468,91.5099352 286.516459,91.4038886 286.486454,91.4038886 C286.171403,91.4038886 284.926201,91.4493372 284.656157,91.4493372 C284.596147,91.4493372 284.581145,91.3584401 284.581145,91.3129916 C284.566142,91.1311974 284.596147,90.7070111 284.596147,90.5706655 C284.596147,90.4949179 284.49113,90.4646189 284.356108,90.616114 C283.99605,91.0857489 283.50097,91.4947857 283.125909,91.6311313 C282.960882,91.7068789 282.94588,91.7523274 282.94588,91.7826264 C282.94588,91.8432245 283.020892,91.888673 283.140911,91.918972 C283.275933,91.949271 283.44096,91.9795701 283.50097,92.0098691 C283.56098,92.0401681 283.575982,92.1462147 283.575982,92.3128593 L283.575982,95.4488082 C283.575982,95.8123965 283.635992,96.1153867 283.756011,96.3123303 C284.011052,96.7971147 284.476128,97.0092079 285.10623,97.0092079 Z M238.118611,112.113271 C238.268635,112.113271 238.433662,112.098121 238.433662,112.007224 C238.433662,111.946626 238.343648,111.901178 238.223628,111.870879 C237.533516,111.704234 237.443502,111.613337 237.428499,111.037655 C237.398494,110.355927 237.368489,107.992604 237.383492,107.719912 C237.383492,107.644165 237.503511,107.522969 237.533516,107.522969 L238.088491,107.52378 C239.694581,107.528877 239.911759,107.557596 240.128937,107.598716 C240.308966,107.644165 240.458991,107.79566 240.57901,108.128949 C240.669025,108.341042 240.729034,108.462239 240.789044,108.462239 C240.864056,108.462239 240.894061,108.40164 240.894061,108.204697 C240.879059,108.007753 240.834051,107.79566 240.834051,107.47752 C240.834051,107.159381 240.894061,106.704895 240.909063,106.538251 C240.924066,106.386755 240.894061,106.311008 240.834051,106.311008 C240.789044,106.311008 240.744037,106.371606 240.669025,106.523101 C240.443988,107.038184 240.233954,107.083633 240.02392,107.113932 C239.783881,107.144231 239.063764,107.159381 237.533516,107.159381 C237.503511,107.159381 237.398494,107.098782 237.398494,106.977586 C237.368489,105.235393 237.398494,103.493199 237.413497,103.069012 C237.413497,102.993265 237.518514,102.796321 237.623531,102.796321 L238.695375,102.797645 C239.370116,102.800624 239.781573,102.810305 240.113935,102.84177 C240.654022,102.887218 240.984076,103.114461 241.239117,103.705292 C241.314129,103.902236 241.359136,104.008282 241.419146,104.008282 C241.494158,104.008282 241.524163,103.871937 241.494158,103.720441 C241.464153,103.538647 241.419146,102.872069 241.389141,102.659976 C241.389141,102.553929 241.284124,102.478181 240.969073,102.478181 C240.398981,102.478181 238.808723,102.52363 237.233467,102.52363 C236.57336,102.52363 235.748227,102.463032 235.568197,102.463032 C235.433176,102.463032 235.343161,102.493331 235.343161,102.553929 C235.343161,102.629677 235.448178,102.675125 235.5832,102.705424 C236.123287,102.84177 236.168295,102.978115 236.1983,103.523498 C236.243307,104.447618 236.243307,105.371738 236.243307,106.977586 C236.243307,108.644033 236.243307,110.522572 236.1983,111.022506 C236.168295,111.583038 236.093283,111.704234 235.52319,111.82543 C235.328159,111.870879 235.253146,111.916327 235.253146,111.976925 C235.253146,112.052673 235.358163,112.082972 235.493185,112.082972 C235.703219,112.082972 236.07828,112.022374 236.648373,112.022374 C237.263472,112.022374 237.908577,112.113271 238.118611,112.113271 Z M245.289774,112.189018 C245.769852,112.189018 246.234927,111.961776 246.444961,111.537589 C246.504971,111.401244 246.444961,111.355795 246.354947,111.401244 C246.18992,111.492141 246.039895,111.537589 245.919876,111.537589 C245.499808,111.537589 245.364786,111.249749 245.364786,110.961908 C245.364786,110.568021 245.409793,109.128817 245.409793,108.568285 C245.409793,108.09865 245.349784,107.47752 245.199759,107.18968 C245.01973,106.720045 244.554655,106.417054 244.044572,106.417054 C243.789531,106.417054 243.489482,106.507952 243.144426,106.689746 C242.844377,106.841241 242.349297,107.159381 242.004241,107.568417 C241.824212,107.78051 241.719195,107.916856 241.719195,108.022903 C241.719195,108.083501 241.794207,108.174398 241.869219,108.159248 C241.974236,108.144099 242.424309,107.932006 242.574334,107.825959 C242.604338,107.79566 242.634343,107.750211 242.634343,107.704763 C242.634343,107.598716 242.634343,107.47752 242.649346,107.416922 C242.679351,107.250278 242.769365,107.144231 242.874382,107.053334 C243.099419,106.916988 243.249443,106.87154 243.474479,106.87154 C243.654509,106.87154 243.90955,106.962437 244.104582,107.113932 C244.359623,107.310876 244.46464,107.735062 244.46464,108.356192 C244.46464,108.568285 244.46464,108.871275 244.434635,109.053069 C244.434635,109.113668 244.359623,109.250013 244.239604,109.280312 C243.924552,109.401508 242.559331,109.810545 242.199273,110.007489 C242.064251,110.083236 241.659185,110.386226 241.659185,110.871011 C241.659185,111.658785 242.259282,112.173869 242.85938,112.173869 C243.429472,112.173869 243.879545,111.916327 244.329618,111.492141 C244.344621,111.476991 244.389628,111.476991 244.40463,111.50729 C244.539652,111.855729 244.869706,112.189018 245.289774,112.189018 Z M243.519487,111.598187 C243.054411,111.598187 242.619341,111.249749 242.619341,110.749815 C242.619341,110.310479 242.814372,110.083236 242.994402,109.992339 C243.309453,109.825695 244.179594,109.507555 244.374625,109.477256 C244.40463,109.462106 244.434635,109.537854 244.434635,109.553003 C244.434635,110.128685 244.40463,110.734665 244.359623,110.992207 C244.344621,111.158852 244.254606,111.295197 244.194596,111.355795 C244.029569,111.50729 243.774528,111.598187 243.519487,111.598187 Z M249.535462,112.189018 C250.645642,112.189018 251.335754,111.552739 251.605798,111.189151 C251.695813,111.083104 251.725817,111.007356 251.725817,110.946758 C251.725817,110.90131 251.650805,110.916459 251.6208,110.946758 C251.095715,111.416393 250.705652,111.52244 250.060547,111.52244 C249.610474,111.52244 249.055384,111.355795 248.665321,110.992207 C248.305263,110.674067 247.9152,110.037788 247.9152,109.02277 C247.9152,107.280577 248.950367,106.674596 249.58047,106.674596 C249.745496,106.674596 249.970533,106.704895 250.150562,106.795792 C250.375598,106.916988 250.750659,107.17453 250.990698,107.416922 C251.080713,107.507819 251.18573,107.568417 251.24574,107.568417 C251.350757,107.568417 251.6208,107.371474 251.6208,107.083633 C251.6208,107.007885 251.575793,106.886689 251.410766,106.795792 C251.155725,106.598849 250.69065,106.417054 250.045545,106.417054 C249.070387,106.417054 248.29026,106.85639 247.825185,107.295726 C247.375112,107.719912 246.910037,108.447089 246.910037,109.401508 C246.910037,110.234731 247.18008,110.961908 247.660158,111.446692 C248.155238,111.931477 248.860353,112.189018 249.535462,112.189018 Z M253.586119,104.962701 C253.781151,104.962701 254.141209,104.796057 254.141209,104.38702 C254.141209,104.129478 253.96118,103.811339 253.616124,103.811339 C253.376085,103.811339 253.091039,104.023432 253.091039,104.402169 C253.091039,104.70516 253.316075,104.962701 253.586119,104.962701 Z M254.411253,112.082972 C254.531272,112.082972 254.651292,112.052673 254.651292,111.976925 C254.651292,111.916327 254.57628,111.886028 254.426255,111.855729 C254.186216,111.795131 254.036192,111.719383 254.006187,111.416393 C253.976182,111.158852 253.976182,110.037788 253.976182,108.765229 C253.976182,107.79566 253.976182,106.87154 254.006187,106.56855 C254.02119,106.401905 253.991185,106.356456 253.946177,106.356456 C253.916173,106.356456 253.84116,106.386755 253.721141,106.462503 C253.40609,106.598849 253.046032,106.750344 252.640966,106.85639 C252.505944,106.886689 252.460937,106.932138 252.460937,106.977586 C252.460937,107.007885 252.505944,107.053334 252.580956,107.098782 C252.95435,107.300776 253.007692,107.39504 253.014936,107.562453 L253.014854,107.782687 C253.009174,108.397394 252.984257,110.59119 252.971019,110.992207 C252.956017,111.613337 252.820995,111.734533 252.490941,111.82543 C252.280907,111.855729 252.205895,111.901178 252.205895,111.961776 C252.205895,112.022374 252.310912,112.052673 252.415929,112.052673 C252.580956,112.052673 252.820995,112.022374 253.316075,112.022374 C253.721141,112.022374 254.276231,112.082972 254.411253,112.082972 Z M257.531759,112.052673 C257.72679,112.052673 257.831808,112.007224 257.831808,111.946626 C257.831808,111.901178 257.72679,111.855729 257.636776,111.84058 C257.216708,111.764832 257.126693,111.658785 257.111691,111.249749 C257.096688,110.961908 257.081686,110.249881 257.081686,108.341042 L257.081686,106.735194 C257.081686,104.462767 257.141696,101.841902 257.141696,101.735855 C257.141696,101.660108 257.126693,101.569211 257.096688,101.569211 C257.036679,101.569211 256.961666,101.59951 256.916659,101.614659 C256.586606,101.735855 256.226547,101.872201 255.791477,101.963098 C255.656455,101.993397 255.56644,102.038846 255.56644,102.084294 C255.56644,102.129743 255.611447,102.160042 255.716465,102.22064 C256.106528,102.463032 256.136533,102.53878 256.136533,102.872069 C256.151535,103.538647 256.136533,104.780907 256.136533,106.008018 C256.12153,107.825959 256.06152,110.386226 256.031516,110.946758 C255.971506,111.613337 255.881491,111.749682 255.50643,111.82543 C255.311399,111.870879 255.236387,111.886028 255.236387,111.961776 C255.236387,112.037523 255.311399,112.052673 255.491428,112.052673 C255.716465,112.052673 256.106528,112.022374 256.496591,112.022374 C256.751632,112.022374 257.29172,112.052673 257.531759,112.052673 Z M259.932148,104.962701 C260.12718,104.962701 260.487238,104.796057 260.487238,104.38702 C260.487238,104.129478 260.307209,103.811339 259.962153,103.811339 C259.722114,103.811339 259.437068,104.023432 259.437068,104.402169 C259.437068,104.70516 259.662104,104.962701 259.932148,104.962701 Z M260.757282,112.082972 C260.877301,112.082972 260.997321,112.052673 260.997321,111.976925 C260.997321,111.916327 260.922309,111.886028 260.772284,111.855729 C260.532245,111.795131 260.382221,111.719383 260.352216,111.416393 C260.322211,111.158852 260.322211,110.037788 260.322211,108.765229 C260.322211,107.79566 260.322211,106.87154 260.352216,106.56855 C260.367219,106.401905 260.337214,106.356456 260.292206,106.356456 C260.262202,106.356456 260.187189,106.386755 260.06717,106.462503 C259.752119,106.598849 259.392061,106.750344 258.986995,106.85639 C258.851973,106.886689 258.806966,106.932138 258.806966,106.977586 C258.806966,107.007885 258.851973,107.053334 258.926985,107.098782 C259.347053,107.326025 259.362056,107.416922 259.362056,107.629015 C259.362056,107.78051 259.332051,110.537722 259.317048,110.992207 C259.302046,111.613337 259.167024,111.734533 258.836971,111.82543 C258.626936,111.855729 258.551924,111.901178 258.551924,111.961776 C258.551924,112.022374 258.656941,112.052673 258.761958,112.052673 C258.926985,112.052673 259.167024,112.022374 259.662104,112.022374 C260.06717,112.022374 260.62226,112.082972 260.757282,112.082972 Z M263.757768,112.158719 C264.177837,112.158719 264.642912,112.022374 264.972965,111.764832 C265.167997,111.613337 265.303019,111.461842 265.303019,111.370945 C265.303019,111.310347 265.258012,111.295197 265.152995,111.370945 C265.017973,111.461842 264.747929,111.598187 264.327861,111.598187 C263.937798,111.598187 263.622747,111.476991 263.39771,111.189151 C263.292693,111.037655 263.262688,110.855861 263.232683,110.371077 C263.217681,109.901442 263.202678,107.522969 263.202678,107.265427 C263.202678,107.17453 263.232683,107.129082 263.412712,107.129082 C263.817778,107.129082 264.552897,107.144231 265.077982,107.144231 C265.152995,107.144231 265.228007,107.023035 265.228007,106.765493 C265.228007,106.659447 265.167997,106.5534 265.137992,106.5534 C264.822941,106.5534 263.577739,106.598849 263.307695,106.598849 C263.247686,106.598849 263.232683,106.507952 263.232683,106.462503 C263.217681,106.280709 263.247686,105.856523 263.247686,105.720177 C263.247686,105.644429 263.142669,105.61413 263.007647,105.765625 C262.647588,106.23526 262.152508,106.644297 261.777447,106.780643 C261.612421,106.85639 261.597418,106.901839 261.597418,106.932138 C261.597418,106.992736 261.67243,107.038184 261.79245,107.068483 C261.927472,107.098782 262.092498,107.129082 262.152508,107.159381 C262.212518,107.18968 262.22752,107.295726 262.22752,107.462371 L262.22752,110.59832 C262.22752,110.961908 262.28753,111.264898 262.407549,111.461842 C262.662591,111.946626 263.127666,112.158719 263.757768,112.158719 Z M266.608231,116.264237 C266.773257,116.264237 266.953287,116.218788 267.103311,116.006695 C267.208328,115.87035 267.28334,115.718854 267.388357,115.446163 C267.598391,114.93108 268.168484,113.355531 268.528542,112.476859 C268.843593,111.658785 268.978615,111.310347 269.158644,110.810413 C269.383681,110.234731 270.313831,107.901707 270.493861,107.522969 C270.7339,106.962437 270.883924,106.85639 271.183973,106.765493 C271.333997,106.720045 271.394007,106.659447 271.394007,106.613998 C271.394007,106.56855 271.303992,106.5534 271.213977,106.5534 C270.988941,106.5534 270.793909,106.598849 270.523866,106.598849 C270.298829,106.598849 269.983778,106.5534 269.803749,106.5534 C269.668727,106.5534 269.593715,106.583699 269.593715,106.644297 C269.593715,106.689746 269.638722,106.735194 269.863759,106.780643 C270.1188,106.85639 270.193812,106.977586 270.193812,107.083633 C270.193812,107.159381 270.193812,107.341175 270.1188,107.522969 C269.99878,107.871408 269.158644,110.052937 268.963613,110.568021 C268.94861,110.613469 268.903603,110.628619 268.873598,110.568021 C268.573549,109.931741 267.748415,107.886557 267.553384,107.356324 C267.418362,106.962437 267.448367,106.886689 267.77842,106.780643 C267.868435,106.765493 267.973452,106.720045 267.973452,106.659447 C267.973452,106.598849 267.868435,106.5534 267.718411,106.5534 C267.523379,106.5534 267.133316,106.598849 266.923282,106.598849 C266.563223,106.598849 266.143155,106.538251 265.873111,106.538251 C265.768094,106.538251 265.633072,106.56855 265.633072,106.644297 C265.633072,106.689746 265.723087,106.750344 265.903116,106.795792 C266.158158,106.85639 266.338187,107.007885 266.443204,107.204829 C267.118313,108.689481 268.078469,111.143702 268.303506,111.734533 C268.348513,111.870879 268.378518,112.022374 268.318508,112.219317 C267.808425,113.537325 267.373355,114.779585 267.22333,115.097725 C267.133316,115.309818 267.013296,115.355266 266.833267,115.355266 L266.533218,115.324967 L266.533218,115.324967 C266.308182,115.324967 266.11315,115.53706 266.11315,115.764303 C266.11315,116.067293 266.368192,116.264237 266.608231,116.264237 Z"/>
    <path fill="#333838" fill-rule="nonzero" d="M10.2377677,10.2750094 C10.520105,10.2750094 10.7875825,10.2598894 10.9213212,10.199409 C11.0253402,10.1691689 11.0847796,10.1086886 11.0847796,10.0784484 C11.0847796,10.0330882 10.9956205,9.98772795 10.8916015,9.98772795 C10.6092641,9.97260788 10.2229078,9.86676733 9.77711201,9.39804491 C9.46505497,9.08052327 9.15299792,8.68740124 8.69234228,8.0221178 C8.21682678,7.31147413 7.3698148,5.90530687 7.08747747,5.3307439 C7.02803803,5.17954312 7.01317817,5.08882265 7.07261761,5.05858249 C7.2955155,4.96786202 7.6967317,4.80154116 7.91962959,4.58986007 C8.26140636,4.33281874 8.76664158,3.8792164 8.76664158,2.89641132 C8.76664158,2.20088773 8.48430425,1.55072437 7.8453303,1.08200195 C7.35495494,0.719120078 6.7457007,0.537679141 5.85410914,0.537679141 C5.08139645,0.537679141 4.68018025,0.613279531 4.05606616,0.613279531 C3.53597108,0.613279531 3.10503516,0.567919297 2.89699713,0.567919297 C2.71867882,0.567919297 2.62951966,0.598159453 2.62951966,0.658639766 C2.62951966,0.734240156 2.74839853,0.764480312 2.88213727,0.794720469 C3.50625136,0.900561015 3.52111122,1.12736219 3.55083094,1.55072437 C3.57880244,2.03456687 3.63310006,2.90682273 3.63939123,4.75996018 L3.6399901,5.11906281 C3.6399901,7.00907257 3.61027038,8.21867882 3.5656908,9.08052327 C3.52111122,9.70044647 3.37251263,9.83652717 2.88213727,9.94236772 C2.6889591,9.97260788 2.59979994,10.0179681 2.59979994,10.0784484 C2.59979994,10.1540488 2.70381896,10.184289 2.85241755,10.184289 C3.13475488,10.184289 3.66970981,10.1086886 4.20466475,10.1086886 C4.75447955,10.1086886 5.20027533,10.184289 5.4677528,10.184289 C5.63121125,10.184289 5.75009013,10.1389287 5.75009013,10.0784484 C5.75009013,10.0179681 5.69065069,9.97260788 5.52719224,9.94236772 C5.00709716,9.85164725 4.88821828,9.68532639 4.8436387,9.50388545 C4.78419927,9.36780475 4.72475983,8.86884217 4.72475983,8.06747803 C4.70989997,7.49291507 4.70989997,5.73898601 4.73961969,5.55754507 C4.75447955,5.48194468 4.81391899,5.42146437 4.87335842,5.40634429 C5.18541547,5.39122421 5.36373378,5.42146437 5.49747252,5.45170452 C5.69065069,5.48194468 5.83924928,5.61802538 6.03242745,5.87506671 C6.32962464,6.34378913 7.41439437,8.18843866 8.06822819,9.06540319 C8.66262256,9.85164725 9.31645637,10.2750094 10.2377677,10.2750094 Z M5.18541547,5.17954312 C5.08139645,5.17954312 4.90307814,5.17954312 4.82877885,5.14930296 C4.76933941,5.14930296 4.70989997,5.08882265 4.70989997,4.89226163 L4.71042995,4.70698364 C4.71320216,3.96844353 4.72641093,1.44320382 4.73961969,1.1878425 C4.75447955,0.930801171 4.79905913,0.915681093 4.82877885,0.900561015 C4.90307814,0.840080703 5.11111617,0.794720469 5.30429434,0.794720469 C6.04728731,0.794720469 6.56738239,0.976161406 6.99831831,1.39952359 C7.38467466,1.79264562 7.59271269,2.36720859 7.59271269,3.13833257 C7.59271269,3.95481679 7.17663662,4.54449984 6.76056056,4.8469014 C6.43364366,5.05858249 5.57177181,5.16442304 5.18541547,5.17954312 Z M12.5856254,3.06273218 C12.7788036,3.06273218 13.1354402,2.89641132 13.1354402,2.48816922 C13.1354402,2.23112789 12.9571219,1.91360625 12.6153452,1.91360625 C12.3775874,1.91360625 12.0952501,2.12528734 12.0952501,2.50328929 C12.0952501,2.80569086 12.318148,3.06273218 12.5856254,3.06273218 Z M13.4029177,10.1691689 C13.5217966,10.1691689 13.6406754,10.1389287 13.6406754,10.0633283 C13.6406754,10.002848 13.5663762,9.97260788 13.4177776,9.94236772 C13.1800198,9.88188741 13.0314212,9.80628702 13.0017015,9.50388545 C12.9783503,9.30192441 12.9733465,8.56790633 12.9722742,7.64653484 L12.9725847,6.08790652 C12.9741923,5.43321054 12.9800872,4.88538887 13.0017015,4.66546046 C13.0165614,4.4991396 12.9868416,4.45377937 12.9422621,4.45377937 C12.9125423,4.45377937 12.838243,4.48401952 12.7193642,4.55961992 C12.4073071,4.69570062 12.0506705,4.8469014 11.6494543,4.95274195 C11.5157156,4.9829821 11.471136,5.02834234 11.471136,5.07370257 C11.471136,5.10394273 11.5157156,5.14930296 11.5900149,5.1946632 C12.0060909,5.42146437 12.0209508,5.51218484 12.0209508,5.72386593 C12.0209508,5.87506671 11.9912311,8.62692092 11.9763712,9.08052327 C11.9615113,9.70044647 11.8277726,9.82140709 11.5008557,9.91212756 C11.2928177,9.94236772 11.2185184,9.98772795 11.2185184,10.0482083 C11.2185184,10.1086886 11.3225374,10.1389287 11.4265564,10.1389287 C11.5900149,10.1389287 11.8277726,10.1086886 12.318148,10.1086886 C12.7193642,10.1086886 13.269179,10.1691689 13.4029177,10.1691689 Z M16.642367,10.3203697 C16.6869466,10.3203697 16.7463861,10.2901295 16.8206854,10.0633283 C16.9841438,9.53412561 17.2516213,9.00492288 17.5339586,8.3698796 C17.6825572,8.00699772 18.44041,6.31354897 18.7821868,5.55754507 C18.9605051,5.13418288 19.1239636,4.95274195 19.4211607,4.87714156 C19.5548995,4.83178132 19.6440586,4.80154116 19.6440586,4.74106085 C19.6440586,4.68058054 19.5400396,4.65034038 19.4360206,4.65034038 C19.3022819,4.65034038 18.9159255,4.69570062 18.6781678,4.69570062 C18.3512509,4.69570062 18.128353,4.65034038 17.9500347,4.65034038 C17.8311558,4.65034038 17.7717164,4.66546046 17.7717164,4.7108207 C17.7717164,4.77130101 17.8311558,4.81666124 17.9500347,4.8469014 C18.3512509,4.93762187 18.44041,5.10394273 18.44041,5.1946632 C18.44041,5.37610413 18.3661107,5.54242499 18.2769516,5.8145864 C18.0986333,6.35890921 17.2664811,8.3698796 17.073303,8.73276147 C17.0584431,8.77812171 17.0287234,8.76300163 17.0138635,8.70252131 C16.8206854,8.33963944 15.9290938,5.99602733 15.7953551,5.52730491 C15.6764762,5.07370257 15.7061959,4.9829821 16.0925522,4.87714156 C16.2114311,4.8469014 16.3005903,4.80154116 16.3005903,4.74106085 C16.3005903,4.68058054 16.226291,4.65034038 16.0776924,4.65034038 C15.8399346,4.65034038 15.587317,4.69570062 15.1861008,4.69570062 C14.740305,4.69570062 14.4876874,4.63522031 14.0716114,4.63522031 C13.8932931,4.63522031 13.8189938,4.68058054 13.8189938,4.74106085 C13.8189938,4.78642109 13.8932931,4.83178132 14.0270318,4.86202148 C14.3985283,4.95274195 14.5471269,5.10394273 14.6957255,5.39122421 C14.9483431,5.87506671 15.8250748,8.23379889 16.0925522,8.92932249 C16.3005903,9.50388545 16.4046093,9.86676733 16.4789086,10.0935685 C16.538348,10.3052496 16.5977875,10.3203697 16.642367,10.3203697 Z M22.3188333,10.2750094 C23.1658453,10.2750094 23.7899594,9.97260788 24.3843538,9.32244452 C24.4735129,9.21660397 24.5329524,9.1258835 24.5329524,9.08052327 C24.5329524,9.00492288 24.4735129,8.97468272 24.354634,9.09564335 C23.9979974,9.44340514 23.5522016,9.57948584 22.9429474,9.57948584 C22.4525721,9.57948584 21.8581777,9.41316499 21.4569615,8.95956264 C21.0706051,8.52108038 20.7734079,7.90115718 20.7734079,7.13003319 C20.7734079,6.70667101 20.8179875,6.47986983 20.8922868,6.2984289 C20.9220065,6.25306866 20.9963058,6.17746827 21.0260256,6.17746827 L21.828458,6.17746827 C22.1702347,6.17746827 24.1020164,6.20770843 24.2208953,6.22282851 C24.2951946,6.22282851 24.3694939,6.13210804 24.3694939,6.05650765 C24.3694939,5.13418288 23.4333228,4.51425968 22.5565911,4.51425968 C21.7838784,4.51425968 21.1003248,4.87714156 20.6991086,5.27026359 C20.0749946,5.89018679 19.8372368,6.7822714 19.8372368,7.47779499 C19.8372368,8.29427921 20.1047143,9.02004295 20.5505101,9.50388545 C20.9963058,9.98772795 21.6204199,10.2750094 22.3188333,10.2750094 Z M21.085465,5.96578718 C21.0557453,5.96578718 21.0260256,5.93554702 21.0260256,5.90530687 C21.0260256,5.78434624 21.1597643,5.49706476 21.3380826,5.28538366 C21.6649995,4.93762187 22.036496,4.72594077 22.4228523,4.72594077 C22.7646291,4.72594077 23.0172467,4.86202148 23.1658453,5.01322226 C23.3293038,5.1946632 23.3738833,5.4668246 23.3738833,5.64826554 C23.3738833,5.78434624 23.3441636,5.9506671 23.0172467,5.9506671 L21.085465,5.96578718 Z M25.201646,10.199409 C25.4096841,10.199409 25.5731425,10.1086886 26.1080975,10.1086886 C26.7322115,10.1086886 27.2225869,10.1691689 27.5049242,10.1691689 C27.7278221,10.1691689 27.8615609,10.1389287 27.8615609,10.0633283 C27.8615609,9.98772795 27.7872616,9.9574878 27.5792235,9.92724764 C27.0145489,9.86676733 26.8362306,9.76092678 26.7767911,9.29220436 C26.7470714,8.97468272 26.7173517,8.18843866 26.7173517,7.06955288 C26.7173517,6.76715132 26.7024918,6.32866905 26.7322115,6.14722812 C26.7470714,5.96578718 26.8213707,5.79946632 26.9848292,5.61802538 C27.1780073,5.43658445 27.4157651,5.31562382 27.638663,5.31562382 C27.8021214,5.31562382 27.9952996,5.39122421 28.158758,5.49706476 C28.3222165,5.58778523 28.3965158,5.6029053 28.4262355,5.6029053 C28.4708151,5.6029053 28.5302545,5.58778523 28.6639933,5.4668246 C28.8423116,5.30050374 28.9909102,5.05858249 28.9909102,4.95274195 C28.9909102,4.87714156 28.9611905,4.80154116 28.8868912,4.74106085 C28.7382926,4.62010023 28.5451144,4.54449984 28.3667961,4.54449984 C27.7724017,4.54449984 27.1780073,5.10394273 26.7619313,5.63314546 C26.7173517,5.67850569 26.687632,5.66338562 26.687632,5.61802538 C26.687632,5.37610413 26.7024918,4.80154116 26.7024918,4.63522031 C26.7024918,4.48401952 26.6727721,4.42353921 26.6430524,4.42353921 C26.5984728,4.42353921 26.5241735,4.43865929 26.4201545,4.4991396 C26.1823968,4.63522031 25.7663207,4.78642109 25.4691235,4.86202148 C25.3353848,4.90738171 25.2462256,4.96786202 25.2462256,4.99810218 C25.2462256,5.02834234 25.2610855,5.07370257 25.3651045,5.14930296 C25.6474418,5.39122421 25.7514608,5.43658445 25.7514608,5.54242499 L25.7514608,7.22075366 C25.7514608,8.21867882 25.736601,9.08052327 25.7068813,9.33756459 C25.6474418,9.7458067 25.4839834,9.88188741 25.1719263,9.9574878 C25.0530474,9.98772795 24.9490284,10.0633283 24.9490284,10.1086886 C24.9490284,10.1691689 25.0233277,10.199409 25.201646,10.199409 Z M9.14556799,26.8906007 C9.21986729,26.8906007 9.26444687,26.7998802 9.36846588,26.5428389 C10.0520194,24.8796303 11.255668,22.0219356 12.1918392,19.9353648 C13.1280103,17.7883137 13.3954878,17.4707921 14.0196019,17.3044712 C14.2870793,17.259111 14.3613786,17.1986307 14.3613786,17.1381503 C14.3613786,17.07767 14.2870793,17.06255 14.0939012,17.06255 C13.8264237,17.06255 13.4252075,17.1230303 13.0091314,17.1230303 C12.5633356,17.1230303 12.3552976,17.06255 11.9689413,17.06255 C11.7609032,17.06255 11.7163237,17.0927901 11.7163237,17.1532704 C11.7163237,17.2137507 11.8054828,17.2439909 12.0432406,17.3195913 C12.5336159,17.4707921 12.5484758,17.7278334 12.4741765,18.0604751 C12.1621194,19.1793609 10.3640765,23.4129828 9.65080321,24.9854709 C9.60622363,25.0761913 9.57650391,25.0913114 9.51706447,24.9854709 C9.01182926,23.851465 8.35799544,22.4150576 7.98649896,21.522973 C7.95677924,21.4473726 7.95677924,21.3717722 7.9716391,21.3415321 C8.22425671,20.8728096 8.95238982,19.3759219 9.33874616,18.619918 C9.82912152,17.7429535 10.1114588,17.4254318 10.6612736,17.3044712 C10.8693117,17.259111 10.943611,17.2137507 10.943611,17.1381503 C10.943611,17.07767 10.8693117,17.06255 10.6909934,17.06255 C10.3492166,17.06255 10.1114588,17.1230303 9.59136377,17.1230303 C9.20500743,17.1230303 8.96724968,17.07767 8.59575319,17.07767 C8.41743488,17.07767 8.32827573,17.1079102 8.32827573,17.1532704 C8.32827573,17.2137507 8.3728553,17.274231 8.64033277,17.3347114 C9.27930672,17.4859121 9.29416658,17.6371129 8.83351094,18.7408786 C8.5214539,19.4817624 8.20939685,20.177286 7.85276023,20.9181699 C7.80818065,20.9937703 7.74874121,20.9786502 7.73388135,20.94841 C7.24350599,19.7992841 6.79771021,18.7711188 6.55995246,18.1360755 C6.33705457,17.5766326 6.48565316,17.3951917 6.88686937,17.3195913 C7.08004754,17.274231 7.1692067,17.2288708 7.1692067,17.1532704 C7.1692067,17.0927901 7.06518768,17.06255 6.91658909,17.06255 C6.57481232,17.06255 6.23303556,17.1230303 5.69808062,17.1230303 C5.16312568,17.1230303 4.88078835,17.06255 4.44985243,17.06255 C4.25667426,17.06255 4.1675151,17.1079102 4.1675151,17.1532704 C4.1675151,17.2288708 4.2418144,17.2893511 4.47957215,17.3347114 C4.94022779,17.455672 5.05910667,17.6371129 5.49004259,18.5745578 C5.81695949,19.3003215 6.81257007,21.5985734 7.05032782,22.1731363 C7.05032782,22.2033765 7.05032782,22.3092171 7.0206081,22.3545773 C6.6193919,23.3222623 6.26275527,24.0782662 5.84667921,24.9401106 C5.80209963,25.015711 5.7426602,25.0459512 5.69808062,24.9401106 C4.68761018,22.6720989 3.2164841,19.4515223 2.59237001,17.8790342 C2.488351,17.6068728 2.488351,17.4254318 2.90442706,17.3498314 C3.08274537,17.3195913 3.17190453,17.274231 3.17190453,17.1986307 C3.17190453,17.1381503 3.08274537,17.0927901 2.87470734,17.0927901 C2.56265029,17.0927901 2.20601367,17.1230303 1.87909676,17.1230303 C1.43330098,17.1230303 0.824046747,17.06255 0.467410122,17.06255 C0.27423195,17.06255 0.170212935,17.1230303 0.170212935,17.1683905 C0.170212935,17.2288708 0.303951669,17.2893511 0.482269981,17.3044712 C1.04694464,17.3800716 1.16582351,17.652233 1.70077845,18.8315991 C2.39919184,20.3133667 3.39480242,22.5511383 4.21209468,24.4713882 C4.40527285,24.9249906 4.86592849,26.0287563 5.05910667,26.5277188 C5.16312568,26.7998802 5.1928454,26.8906007 5.28200456,26.8906007 C5.34144399,26.8906007 5.43060315,26.7696401 5.51976231,26.5277188 C5.84667921,25.6507543 6.63425176,23.8817052 7.19892641,22.7628194 C7.22864613,22.7174592 7.27322571,22.7174592 7.30294543,22.7779395 C7.73388135,23.7456245 8.58089333,25.6205142 8.89295038,26.5428389 C8.98210954,26.7847602 9.04154897,26.8906007 9.14556799,26.8906007 Z M16.2337209,26.7696401 C16.7092364,26.7696401 17.169892,26.5428389 17.3779301,26.1194767 C17.4373695,25.983396 17.3779301,25.9380358 17.2887709,25.983396 C17.1253125,26.0741165 16.9767139,26.1194767 16.857835,26.1194767 C16.4417589,26.1194767 16.3080202,25.8321952 16.3080202,25.5449138 C16.3080202,25.1517917 16.3525998,23.7153843 16.3525998,23.1559414 C16.3525998,22.687219 16.2931603,22.0672958 16.1445618,21.7800143 C15.9662434,21.3112919 15.5055878,21.0088903 15.0003526,21.0088903 C14.747735,21.0088903 14.4505378,21.0996108 14.108761,21.2810517 C13.8115638,21.4322525 13.3211885,21.7497742 12.9794117,22.1580163 C12.8010934,22.3696974 12.6970744,22.5057781 12.6970744,22.6116186 C12.6970744,22.6720989 12.7713737,22.7628194 12.845673,22.7476993 C12.949692,22.7325792 13.3954878,22.5208981 13.5440864,22.4150576 C13.5738061,22.3848174 13.6035258,22.3394572 13.6035258,22.294097 C13.6035258,22.1882564 13.6035258,22.0672958 13.6183857,22.0068155 C13.6481054,21.8404946 13.7372645,21.7346541 13.8412835,21.6439336 C14.0641814,21.5078529 14.21278,21.4624927 14.4356779,21.4624927 C14.6139962,21.4624927 14.8666138,21.5532131 15.059792,21.7044139 C15.3124096,21.9009749 15.4164286,22.3243371 15.4164286,22.9442603 C15.4164286,23.1559414 15.4164286,23.458343 15.3867089,23.6397839 C15.3867089,23.7002642 15.3124096,23.8363449 15.1935308,23.8665851 C14.8814737,23.9875457 13.5292265,24.3957878 13.1725899,24.5923488 C13.0388511,24.6679492 12.6376349,24.9703508 12.6376349,25.4541933 C12.6376349,26.2404374 13.2320293,26.75452 13.8264237,26.75452 C14.3910983,26.75452 14.8368941,26.4974787 15.2826899,26.0741165 C15.2975498,26.0589964 15.3421293,26.0589964 15.3569892,26.0892366 C15.4907279,26.4369984 15.8176448,26.7696401 16.2337209,26.7696401 Z M14.4802575,26.179957 C14.0196019,26.179957 13.5886659,25.8321952 13.5886659,25.3332327 C13.5886659,24.8947504 13.7818441,24.6679492 13.9601624,24.5772288 C14.2722195,24.4109079 15.1340913,24.0933863 15.3272695,24.0631461 C15.3569892,24.048026 15.3867089,24.1236264 15.3867089,24.1387465 C15.3867089,24.7133095 15.3569892,25.3181126 15.3124096,25.5751539 C15.2975498,25.7414748 15.2083906,25.8775555 15.1489512,25.9380358 C14.9854927,26.0892366 14.7328751,26.179957 14.4802575,26.179957 Z M19.7257879,26.7393999 C20.1418639,26.7393999 20.6025196,26.6033192 20.9294365,26.3462779 C21.1226146,26.1950771 21.2563534,26.0438763 21.2563534,25.9531559 C21.2563534,25.8926756 21.2117738,25.8775555 21.1077548,25.9531559 C20.974016,26.0438763 20.7065386,26.179957 20.2904625,26.179957 C19.9041062,26.179957 19.5920491,26.0589964 19.3691512,25.7717149 C19.2651322,25.6205142 19.2354125,25.4390732 19.2056928,24.9552307 C19.1908329,24.4865083 19.1759731,22.112656 19.1759731,21.8556147 C19.1759731,21.7648942 19.2056928,21.719534 19.3840111,21.719534 C19.7852273,21.719534 20.5133604,21.7346541 21.0334555,21.7346541 C21.1077548,21.7346541 21.1820541,21.6136935 21.1820541,21.3566521 C21.1820541,21.2508116 21.1226146,21.144971 21.0928949,21.144971 C20.7808379,21.144971 19.5474695,21.1903313 19.2799921,21.1903313 C19.2205526,21.1903313 19.2056928,21.0996108 19.2056928,21.0542506 C19.1908329,20.8728096 19.2205526,20.4494474 19.2205526,20.3133667 C19.2205526,20.2377664 19.1165336,20.2075262 18.9827949,20.358727 C18.6261583,20.8274494 18.1357829,21.2356915 17.7642864,21.3717722 C17.600828,21.4473726 17.5859681,21.4927328 17.5859681,21.522973 C17.5859681,21.5834533 17.6602674,21.6288135 17.7791463,21.6590537 C17.912885,21.6892938 18.0763435,21.719534 18.1357829,21.7497742 C18.1952223,21.7800143 18.2100822,21.8858549 18.2100822,22.0521757 L18.2100822,25.1820319 C18.2100822,25.5449138 18.2695216,25.8473153 18.3884005,26.0438763 C18.6410181,26.5277188 19.1016738,26.7393999 19.7257879,26.7393999 Z M24.0797267,26.7696401 C24.9267386,26.7696401 25.5508527,26.4672385 26.1452471,25.8170752 C26.2344063,25.7112346 26.2938457,25.6205142 26.2938457,25.5751539 C26.2938457,25.4995535 26.2344063,25.4693134 26.1155274,25.590274 C25.7588908,25.9380358 25.313095,26.0741165 24.7038407,26.0741165 C24.2134654,26.0741165 23.619071,25.9077956 23.2178548,25.4541933 C22.8314985,25.015711 22.5343013,24.3957878 22.5343013,23.6246638 C22.5343013,23.2013017 22.5788809,22.9745005 22.6531802,22.7930596 C22.6828999,22.7476993 22.7571992,22.6720989 22.7869189,22.6720989 L23.5893513,22.6720989 C23.9311281,22.6720989 25.8629098,22.7023391 25.9817887,22.7174592 C26.0560879,22.7174592 26.1303872,22.6267387 26.1303872,22.5511383 C26.1303872,21.6288135 25.1942161,21.0088903 24.3174844,21.0088903 C23.5447717,21.0088903 22.8612182,21.3717722 22.460002,21.7648942 C21.8358879,22.3848174 21.5981301,23.2769021 21.5981301,23.9724256 C21.5981301,24.7889099 21.8656076,25.5146736 22.3114034,25.9985161 C22.7571992,26.4823586 23.3813133,26.7696401 24.0797267,26.7696401 Z M22.8463583,22.4604178 C22.8166386,22.4604178 22.7869189,22.4301777 22.7869189,22.3999375 C22.7869189,22.2789769 22.9206576,21.9916954 23.0989759,21.7800143 C23.4258928,21.4322525 23.7973893,21.2205714 24.1837457,21.2205714 C24.5255224,21.2205714 24.77814,21.3566521 24.9267386,21.5078529 C25.0901971,21.6892938 25.1347767,21.9614553 25.1347767,22.1428962 C25.1347767,22.2789769 25.1050569,22.4452978 24.77814,22.4452978 L22.8463583,22.4604178 Z M26.9625394,26.6940397 C27.1705774,26.6940397 27.3340359,26.6033192 27.8689908,26.6033192 C28.4931049,26.6033192 28.9834802,26.6637995 29.2658176,26.6637995 C29.4887155,26.6637995 29.6224542,26.6335594 29.6224542,26.557959 C29.6224542,26.4823586 29.5481549,26.4521185 29.3401169,26.4218783 C28.7754422,26.361398 28.5971239,26.2555574 28.5376845,25.786835 C28.5079647,25.4693134 28.478245,24.6830693 28.478245,23.5641835 C28.478245,23.261782 28.4633852,22.8232997 28.4931049,22.6418588 C28.5079647,22.4604178 28.582264,22.294097 28.7457225,22.112656 C28.9389007,21.9312151 29.1766584,21.8102545 29.3995563,21.8102545 C29.5630148,21.8102545 29.7561929,21.8858549 29.9196514,21.9916954 C30.0831098,22.0824159 30.1574091,22.097536 30.1871289,22.097536 C30.2317084,22.097536 30.2911479,22.0824159 30.4248866,21.9614553 C30.6032049,21.7951344 30.7518035,21.5532131 30.7518035,21.4473726 C30.7518035,21.3717722 30.7220838,21.2961718 30.6477845,21.2356915 C30.4991859,21.1147309 30.3060077,21.0391305 30.1276894,21.0391305 C29.533295,21.0391305 28.9389007,21.5985734 28.5228246,22.1277761 C28.478245,22.1731363 28.4485253,22.1580163 28.4485253,22.112656 C28.4485253,21.8707348 28.4633852,21.2961718 28.4633852,21.129851 C28.4633852,20.9786502 28.4336654,20.9181699 28.4039457,20.9181699 C28.3593661,20.9181699 28.2850669,20.9332899 28.1810478,20.9937703 C27.9432901,21.129851 27.527214,21.2810517 27.2300168,21.3566521 C27.0962781,21.4020124 27.0071189,21.4624927 27.0071189,21.4927328 C27.0071189,21.522973 27.0219788,21.5683332 27.1259978,21.6439336 C27.4083351,21.8858549 27.5123542,21.9312151 27.5123542,22.0370556 L27.5123542,23.7153843 C27.5123542,24.7133095 27.4974943,25.5751539 27.4677746,25.8321952 C27.4083351,26.2404374 27.2448767,26.3765181 26.9328196,26.4521185 C26.8139408,26.4823586 26.7099218,26.557959 26.7099218,26.6033192 C26.7099218,26.6637995 26.7842211,26.6940397 26.9625394,26.6940397 Z" transform="translate(296.674 147.335)"/>
    <g fill-rule="nonzero" stroke-linecap="round" transform="translate(284.647 119.271)">
      <g stroke="#222F3C" stroke-width=".4" transform="translate(22.59 6.74)">
        <g transform="translate(2.247 2.662)">
          <path d="M.16002412 1.99092523L.989682055 2.9440467.0795953419 3.94633193M.0801588831 3.97245297L.910086713 4.92557444 0 5.92785967M.24377153 0L1.07369936.95344923.163612647 1.9554067"/>
        </g>
        <path d="M.162235102 1.99092523L.991893037 2.9440467.0818063236 3.94633193M.0804287784 3.97245297L.910086713 4.9259022 0 5.92785967M.244041426 0L1.07369936.95344923.163612647 1.9554067"/>
        <g transform="translate(5.463)">
          <g transform="translate(2.247 2.662)">
            <path d="M.162235102 1.99092523L.991893037 2.9440467.0818063236 3.94633193M.0804287784 3.97245297L.910086713 4.92557444 0 5.92785967M.244041426 0L1.07369936.95344923.163612647 1.9554067"/>
          </g>
          <path d="M.162235102 1.99092523L.992162932 2.9440467.0818063236 3.94633193M.0804287784 3.97245297L.910086713 4.9259022 0 5.92785967M.24377153 0L1.07369936.95344923.163612647 1.9554067"/>
        </g>
        <g transform="translate(10.926)">
          <g transform="translate(2.247 2.662)">
            <path d="M.161965207 1.99092523L.991893037 2.9440467.0818063236 3.94633193M.0804287784 3.97245297L.910086713 4.92557444 0 5.92785967M.244041426 0L1.07369936.95344923.163612647 1.9554067"/>
          </g>
          <path d="M.162235102 1.99092523L.991893037 2.9440467.0818063236 3.94633193M.0804287784 3.97245297L.910086713 4.9259022 0 5.92785967M.244041426 0L1.07369936.95344923.163612647 1.9554067"/>
        </g>
        <g transform="translate(16.39)">
          <path d="M.16002412 1.99092523L.989682055 2.9440467.0795953419 3.94633193M.0804287784 3.97245297L.910086713 4.9259022 0 5.92785967M.241830444 0L1.07148838.95344923.161401665 1.9554067"/>
        </g>
      </g>
      <g stroke="#231F20" stroke-linejoin="round" stroke-width=".5" transform="translate(8.507)">
        <path d="M28.1715299 3.40838952C12.9995624-1.0619075 7.03538074.294029059 0 3.24746014M27.50269 3.21104919C40.6450789 6.39948305 48.2571302 6.99436458 61.6519802 0"/>
      </g>
      <g stroke="#231F20" stroke-linejoin="round" stroke-width=".5" transform="translate(0 17.548)">
        <path d="M13.2823657.998860813C5.9998883 3.14403964 2.31808151 3.20598598 0 .217484752M12.961022 1.09339996C19.2698649-.437231834 22.9228382-.723037172 29.3525472 2.63452003"/>
      </g>
      <g stroke="#231F20" stroke-linejoin="round" stroke-width=".5" transform="translate(28.803 19.94)">
        <path d="M16.4574064.5666943C10.2555158 2.46769311 6.6260117 2.969819 0 0"/>
      </g>
    </g>
    <g fill-rule="nonzero" stroke-linecap="round" stroke-linejoin="round" transform="translate(87.198 72.164)">
      <g transform="translate(0 20.495)">
        <g stroke="#222F3C" stroke-width=".5" transform="translate(12.64)">
          <g transform="translate(.8 10.286)">
            <g transform="translate(14.68 7.088)">
              <line x1="10.582" x2="10.471" y1="5.889" y2="8.905"/>
              <g transform="translate(.854 12.53)">
                <g transform="translate(0 1.4)">
                  <line x1="22.102" x2="21.992" y2="4.98"/>
                  <line x1=".11" y2="4.98"/>
                </g>
                <path d="M7.6662942,6.90493431e-07 L11.513819,6.90493431e-07 C12.0661038,6.90493431e-07 12.513819,0.447715941 12.513819,1.00000069 L12.513819,5.47656139 C12.513819,6.02884614 12.0661038,6.47656139 11.513819,6.47656139 L7.6662942,6.47656139 C7.11400945,6.47656139 6.6662942,6.02884614 6.6662942,5.47656139 L6.6662942,1.00000069 C6.6662942,0.447715941 7.11400945,6.90493431e-07 7.6662942,6.90493431e-07 Z" transform="rotate(-180 9.59 3.238)"/>
                <line x1=".11" y2="4.98" transform="translate(36.414 1.4)"/>
              </g>
              <path d="M32.2104021,11.8323877 L20.9695524,11.8323877 L10.5330903,0 L29.1000919,0 L30.788503,1.99982602"/>
              <line x1="10.436" y1=".017" y2="11.849"/>
            </g>
            <line x1="10.582" x2="10.471" y1="5.888" y2="8.904"/>
            <g transform="translate(.854 12.384)">
              <line x1=".11" y2="4.98" transform="translate(0 1.413)"/>
              <path d="M7.6662942,6.90494342e-07 L11.513819,6.90494342e-07 C12.0661038,6.90494342e-07 12.513819,0.447715941 12.513819,1.00000069 L12.513819,5.47656139 C12.513819,6.02884614 12.0661038,6.47656139 11.513819,6.47656139 L7.6662942,6.47656139 C7.11400945,6.47656139 6.6662942,6.02884614 6.6662942,5.47656139 L6.6662942,1.00000069 C6.6662942,0.447715941 7.11400945,6.90494342e-07 7.6662942,6.90494342e-07 Z" transform="rotate(-180 9.59 3.238)"/>
            </g>
            <path d="M20.9694667,11.8323877 L10.5330046,0 L29.1000062,0 L35.4253578,7.04312783"/>
            <line x1="10.436" y1=".016" y2="11.848"/>
          </g>
          <g transform="translate(61.471 4.566)">
            <g transform="translate(0 12.808)">
              <line x1="26.796" x2="26.796" y1="5.889" y2="8.905"/>
              <g transform="translate(0 12.384)">
                <g transform="translate(14.422 1.546)">
                  <line y2="4.98"/>
                  <line x1="21.992" x2="21.992" y2="4.98"/>
                </g>
                <rect width="5.848" height="6.477" x="23.9" rx="1"/>
                <line y2="4.98" transform="translate(0 1.546)"/>
              </g>
              <g transform="translate(3.465)">
                <path d="M0,11.8323877 L12.8342334,11.8323877 L23.2706955,0 L4.70369393,0 L0.036471822,5.50580557"/>
                <line x1="23.367" x2="33.803" y1=".017" y2="11.849"/>
              </g>
            </g>
            <g transform="translate(16.523)">
              <line x1="24.953" x2="24.953" y1="11.608" y2="14.624"/>
              <g transform="translate(22.056 18.177)">
                <line y2="4.98" transform="translate(12.514 1.473)"/>
                <path d="M5.84803917,3.43325251 L5.84803917,1.37276477 C5.84803917,0.614995935 5.23404106,0 4.47750171,0 L1.37053746,0 C0.613998105,0 0,0.614995935 0,1.37276477 L0,5.10362839 C0,5.86139722 0.613998105,6.47639316 1.37053746,6.47639316 L3.10696425,6.47639316"/>
              </g>
              <g transform="translate(0 5.72)">
                <path d="M14.4558911,11.8323877 L24.8923531,0 L6.32535159,0 L0,7.04312783"/>
                <line x1="24.988" x2="35.425" y1=".016" y2="11.848"/>
              </g>
              <g transform="translate(5.803)">
                <path d="M16.998044,5.66969277 L22.0089043,0 L3.44190273,0 L0,3.89508597"/>
                <line x1="22.106" x2="32.542" y1=".017" y2="11.849"/>
              </g>
              <line x1=".11" y2="5.084" transform="translate(37.458 13.93)"/>
            </g>
            <line x1="44.371" x2="44.371" y1="5.916" y2="8.933"/>
          </g>
          <path d="M0,0 L12.5682233,0 L17.2076733,4.83517512" transform="translate(31.211 7.089)"/>
          <path d="M15.8044999,5.63818889 L10.5324813,0 L29.0994829,0 L35.4246672,7.04312783"/>
          <line x1="10.436" y1=".016" y2="11.849"/>
        </g>
        <g stroke="#222F3C" stroke-width=".5" transform="translate(0 29.148)">
          <line x1="141.947" x2="23.097" y1="7.37" y2="7.26"/>
          <line x1="22.247" y1=".111"/>
        </g>
        <g stroke="#222F3C" stroke-width=".5" transform="translate(56.739 15.283)">
          <path d="M11.7236832,3.88067462 C11.5988759,1.71863714 9.73362663,0 7.44610726,0 C5.15741678,0 3.29350591,1.71863714 3.16736025,3.88067462 C1.34309994,4.35423825 0,5.94685987 0,7.84379556 C0,9.73972581 1.34176153,11.3320123 3.1631777,11.8059111 C3.16183929,11.8551778 3.15497991,11.9044445 3.15497991,11.9540463 C3.15497991,14.2246716 5.07644264,16.0639619 7.44610726,16.0639619 C9.81577188,16.0639619 11.7358962,14.2246716 11.7358962,11.9540463 C11.7358962,11.9044445 11.7305425,11.8551778 11.7290368,11.8059111"/>
          <line x1="7.496" x2="10.855" y1="9.009" y2="5.972"/>
          <line x1="7.26" x2="4.379" y1="10.789" y2="6.997"/>
          <line x1="7.355" x2="7.355" y1="6.687" y2="21.068"/>
          <g transform="translate(11.799 4.76)">
            <path d="M0,7.02838133 C0.338619118,8.05661432 1.19654345,8.863985 2.29705558,9.14785506 C2.29571716,9.18639704 2.29153462,9.22359843 2.29153462,9.26180526 C2.29153462,11.020325 3.79089457,12.4467134 5.64259239,12.4467134 C7.4927845,12.4467134 8.99348287,11.020325 8.99348287,9.26180526 C8.99348287,9.22359843 8.9879619,9.18639704 8.98662349,9.14785506 C10.4106976,8.78019809 11.4590115,7.5458493 11.4590115,6.07723231 C11.4590115,4.60693957 10.4091918,3.37292593 8.98394666,3.00627441 C8.88523851,1.33154161 7.42971167,0 5.64259239,0 C4.42680922,0 3.37565116,0.621698888 2.78909057,1.54167918"/>
            <line x1="5.677" x2="8.305" y1="7.259" y2="4.627"/>
            <line x1="5.497" x2="3.247" y1="8.359" y2="5.421"/>
            <line x1="5.571" x2="5.571" y1="5.181" y2="16.323"/>
          </g>
        </g>
        <g stroke="#231F20" stroke-width=".4" transform="translate(31.746 43.455)">
          <path d="M0.149400629,14.4964764 C0.0659169627,14.4964764 0,14.4291117 0,14.3466654 L0,0.149475851 C0,0.0673646773 0.0659169627,0 0.149400629,0 L11.9264531,0 C11.955229,0 11.9826666,0.00837869121 12.0072599,0.0234603354 C12.1252078,0.100209147 14.8704653,1.87917286 15.7283896,4.16923675 C15.992894,4.17459911 16.7685057,4.14979818 17.296176,3.6695316 C17.6567117,3.34142205 17.8389035,2.85813915 17.8389035,2.23208334" transform="translate(1.595)"/>
          <g transform="translate(12.49 4.461)">
            <path d="M0.901825694,10.0348434 C0.819513141,10.0348434 0.752425065,9.96747875 0.752425065,9.88503242 L0.752425065,6.15684998"/>
            <path d="M7.60772093,0 L10.2927497,4.03450739 C10.3091453,4.05796773 10.3186815,4.08679042 10.3186815,4.11695371 L10.3186815,5.93848118 C10.3186815,6.0209275 10.2515934,6.08829218 10.1679425,6.08829218 L4.03883603,6.08829218 L4.03883603,9.88517989 C4.03883603,9.96762621 3.97308637,10.0349909 3.88943541,10.0349909 L2.33118517,10.0349909 C2.24903992,10.0349909 2.18178455,9.96762621 2.18178455,9.88517989 L2.18178455,6.13219652 L0,6.13219652"/>
          </g>
          <path d="M1.80903583,2.34335236 L1.80903583,3.80124463 C1.80903583,3.88201521 1.74328617,3.94669871 1.66381775,3.94669871 L0.14521808,3.94669871 C0.0644112453,3.94669871 0,3.88201521 0,3.80124463 L0,0" transform="translate(3.048 10.55)"/>
          <path d="M8.07516254,0 L2.50936174,0 C2.47506484,1.35600739 1.36233966,2.45026446 0,2.45026446" transform="translate(5.316 10.59)"/>
          <path d="M0,5.50748131 L0,4.37200107 C0,4.33245365 0.0242420505,4.29525226 0.0705713026,4.26642956 L0.893723596,3.75432396 L0.893723596,0" transform="translate(0 1.466)"/>
          <g transform="translate(19.126 6.54)">
            <path d="M1.1923609,0 C1.1923609,0.132738578 1.12527282,0.241195708 1.04296027,0.241195708 L0.150739044,0.241195708 C0.0672553782,0.241195708 0,0.132738578 0,0"/>
          </g>
          <g transform="translate(.15 14.496)">
            <line x1="10.515"/>
          </g>
          <g transform="translate(12.76 14.347)">
            <path d="M10.0488235,0 C10.0488235,0.132738578 9.9817354,0.241195708 9.89808443,0.241195708 L0,0.241195708"/>
          </g>
          <g transform="translate(22.82 11.23)">
            <line x1="6.105" x2="6.105" y1="1.784" y2="3.095"/>
            <line x1="3.044" x2="3.044" y1="1.784" y2="3.095"/>
            <line x1="1.571" x2="1.571" y2="3.095"/>
            <line y1="1.784" y2="3.095"/>
            <line x1="6.109" x2="6.109" y1="1.784" y2="3.095"/>
            <line x1="4.636" x2="4.636" y2="3.095"/>
            <line x1="3.065" x2="3.065" y1="1.784" y2="3.095"/>
          </g>
        </g>
        <g stroke="#222F3C" stroke-width=".4" transform="translate(60.41 46.656)">
          <g transform="translate(2.947)">
            <g transform="translate(0 1.708)">
              <path d="M3.4743593,11.6715169 L1.81321838,10.0336503 L0.0493540711,8.70881164 C0.0192397226,8.68568646 0,8.64982566 0,8.60994309 L0,7.95808091 C0,7.90713847 0.0329584814,7.86055295 0.0823125525,7.84279012 L1.68305748,7.27437971 C3.12218873,6.76361469 4.62556392,6.505551 6.15236139,6.505551 L7.47354478,6.505551 L7.4750505,0.122328892 C7.4750505,0.0549642143 7.52975823,0 7.59835202,0 L9.8090798,0 C9.84053257,0 9.87064692,0.0110598724 9.89390188,0.0331796172 L10.8602379,0.940424301 L11.317976,1.09827884 C11.33571,1.10531694 11.3522729,1.11470108 11.3644859,1.12844213 L12.0320206,1.79706169 C12.0676559,1.83124675 12.0785306,1.88487037 12.0594581,1.93011531 C12.0402184,1.97703598 11.9950469,2.00585868 11.9456928,2.00585868 L9.59376221,2.00585868 L9.56916883,5.43073249 L10.2626354,7.10278411 C10.2681563,7.11786576 10.2721716,7.13428799 10.2721716,7.14936964 L10.2721716,9.4709374 C10.2721716,9.50780364 10.255776,9.54232385 10.227,9.56544903 L7.67514361,11.6782198 C7.65305976,11.6973232 7.62578954,11.7070425 7.59701361,11.7070425 L3.5606871,11.7070425 C3.52789592,11.7070425 3.49761427,11.694642 3.4743593,11.6715169 Z M7.47354478,8.25602717 L7.47354478,7.4818361"/>
              <line x1=".11" y2="2.3" transform="translate(4.545 11.728)"/>
              <path d="M1.52228031,1.73740541 L0,0.694425927 L0,0" transform="translate(5.52 12.354)"/>
              <path d="M4.86212886,0 L3.35222889,1.59128103 L0,1.59128103" transform="translate(2.58 8.28)"/>
              <g transform="translate(9.609 2.545)">
                <line x2="1.533" y2=".111"/>
              </g>
            </g>
            <path d="M2.05312936,1.69383621 L2.05312936,0.123669482 C2.05312936,0.0549642143 1.99825432,0 1.93116625,0 L1.3568187,0 C1.32402752,0 1.29240745,0.012400463 1.26915249,0.0355256507 L0.830654112,0.476244808 L0.494879126,0.476244808 C0.46325906,0.476244808 0.431806297,0.488645271 0.408384026,0.512105607 L0.0356353123,0.885460087 C0.0137187587,0.908585275 0,0.939083711 0,0.97192818 L0,1.69383621" transform="translate(7.63)"/>
            <path d="M0,2.03702741 L0.969325601,2.03702741 C1.0436654,2.03702741 1.10328265,1.98206319 1.10328265,1.91335792 L1.10328265,1.1049818 C1.10328265,1.09124074 1.1003745,1.07749969 1.0958305,1.06375864 L0.66705887,0" transform="translate(9.597 4.27)"/>
          </g>
          <line x1="17.975" y1=".111" transform="translate(0 15.814)"/>
          <line x2=".11" y1="1.139" transform="translate(15.106 14.595)"/>
          <line x1=".11" y2=".785" transform="translate(14.229 15.247)"/>
          <line x2=".11" y1="1.674" transform="translate(13.365 14.061)"/>
          <line x2=".11" y1=".899" transform="translate(5.523 15.254)"/>
          <line x2=".11" y1="1.105" transform="translate(4.68 14.684)"/>
        </g>
      </g>
      <path stroke="#222F3C" stroke-width=".5" d="M6.5333079,0 C4.98325546,0.163216905 4.88187049,1.73639997 4.87768794,1.80376464 L4.8393758,2.52433209 L4.2692108,2.08394808 C2.41634186,0.650521586 0.0247606865,1.24507351 0,1.25043588" transform="translate(76.36 22.479)"/>
      <ellipse cx="7.527" cy="7.539" stroke="#222F3C" stroke-width=".5" rx="7.527" ry="7.539" transform="translate(95.248)"/>
      <path stroke="#222F3C" stroke-width=".5" d="M6.5333079,0 C4.98325546,0.163216905 4.88187049,1.73639997 4.87768794,1.80242405 L4.8393758,2.52433209 L4.2692108,2.08394808 C2.41617456,0.649180995 0.0245933846,1.24507351 0,1.25043588" transform="translate(85.631 15.93)"/>
    </g>
    <rect width="440" height="220.501" stroke="#979797"/>
  </g>
</svg>
