<svg xmlns="http://www.w3.org/2000/svg" width="399" height="200" viewBox="0 0 399 200">
  <g fill="none" fill-rule="evenodd" transform="translate(-18 -9)">
    <g fill-rule="nonzero" transform="translate(246 77)">
      <path fill="#333838" d="M6.91235007,10.8356479 C8.12471602,10.8356479 8.93295999,10.5225855 9.83100884,10.0157225 C9.90584625,9.97099929 9.95074869,9.88155289 9.98068365,9.79210648 C10.0106186,9.62812141 10.1902284,8.86782696 10.1902284,8.61439548 C10.1902284,8.52494908 10.1602934,8.39077947 10.1004235,8.39077947 C10.0405536,8.39077947 10.0106186,8.45041041 9.95074869,8.64421095 C9.72623647,9.25542805 9.36701693,9.77719875 8.79825266,10.1051689 C8.39413068,10.3586004 7.87026884,10.5225855 7.01712243,10.5225855 C6.22384595,10.5225855 5.19108976,10.209523 4.4576832,9.41941313 C3.67937419,8.58458001 3.08067496,7.15343753 3.08067496,5.81174145 C3.08067496,4.38059897 3.57460183,3.05381063 4.21820351,2.35314712 C4.83187022,1.72702228 5.69998411,1.19034385 6.82254518,1.19034385 C7.69065907,1.19034385 8.55877297,1.4288676 9.11256976,1.93573056 C9.38198441,2.14443884 9.71126899,2.62148634 9.83100884,3.1283493 C9.8609438,3.24761117 9.90584625,3.32214984 9.96571617,3.32214984 C9.99565113,3.32214984 10.0555211,3.23270344 10.0555211,3.0836261 C10.0555211,2.93454875 9.98068365,2.29351618 10.0106186,1.93573056 C10.0255861,1.86119189 9.98068365,1.75683775 9.8609438,1.68229908 C9.36701693,1.41395987 8.1396835,0.951820107 6.92731755,0.951820107 C5.55030931,0.951820107 4.23317099,1.4735908 3.4398945,2.18916204 C2.48197572,3.05381063 1.76353664,4.17189069 1.76353664,5.9608188 C1.76353664,7.24288394 2.39217084,8.61439548 3.02080504,9.25542805 C3.94878885,10.1797076 5.11625236,10.8356479 6.91235007,10.8356479 Z M13.0939197,10.5971241 C13.2884969,10.5971241 13.3932693,10.5524009 13.3932693,10.49277 C13.3932693,10.4480468 13.2884969,10.4033236 13.198692,10.3884159 C12.7796026,10.3138772 12.6897977,10.209523 12.6748302,9.80701422 C12.662504,9.57375202 12.6501779,9.05739763 12.6462113,7.83331274 L12.6460732,4.79995664 C12.6544578,2.71569493 12.7047652,0.540615105 12.7047652,0.444957144 C12.7047652,0.370418473 12.6897977,0.280972068 12.6598627,0.280972068 C12.5999928,0.280972068 12.5251554,0.310787537 12.480253,0.325695271 C12.1509684,0.444957144 11.7917488,0.579126752 11.3576919,0.668573157 C11.2229846,0.698388626 11.1331797,0.743111828 11.1331797,0.787835031 C11.1331797,0.832558233 11.1780821,0.862373702 11.2828545,0.922004638 C11.672009,1.16052839 11.701944,1.23506706 11.701944,1.56303721 C11.7169114,2.21897751 11.701944,3.44141172 11.701944,4.64893819 C11.6869765,6.43786629 11.6271065,8.95727337 11.5971716,9.50885953 C11.5373017,10.1647998 11.4474968,10.2989694 11.0733098,10.3735081 C10.8787325,10.4182313 10.8038951,10.4331391 10.8038951,10.5076777 C10.8038951,10.5822164 10.8787325,10.5971241 11.0583423,10.5971241 C11.2828545,10.5971241 11.672009,10.5673087 12.0611635,10.5673087 C12.3156107,10.5673087 12.85444,10.5971241 13.0939197,10.5971241 Z M17.0303672,10.7462015 C17.5691965,10.7462015 18.2577006,10.5374932 18.7216925,10.1797076 C19.2006519,9.80701422 19.8741885,9.00199657 19.8741885,7.86900877 C19.8741885,6.28878895 18.6318876,5.05144701 17.0004322,5.05144701 C16.2819931,5.05144701 15.6084565,5.36450943 15.2043345,5.67757185 C14.6505377,6.12480387 14.1266759,6.85528285 14.1266759,7.98827065 C14.1266759,9.538675 15.4887166,10.7462015 17.0303672,10.7462015 Z M17.2399119,10.49277 C16.77592,10.49277 16.2370907,10.2542462 15.8329687,9.70266008 C15.3540093,9.07653524 15.2043345,8.28642533 15.2043345,7.66030049 C15.2043345,6.10989614 16.0125784,5.30487849 16.77592,5.30487849 C18.0930583,5.30487849 18.8114974,6.70620551 18.8114974,8.12244025 C18.8114974,9.19579712 18.4073754,9.91136836 18.1828632,10.1200766 C17.9433835,10.3287849 17.5991314,10.49277 17.2399119,10.49277 Z M22.2091155,10.7462015 C22.5683351,10.7462015 23.0772294,10.6269396 23.406514,10.4182313 C23.7058636,10.2244308 24.184823,9.82192195 24.184823,9.16598165 C24.184823,8.4056872 23.7956685,8.03299385 22.8227823,7.40686901 C22.4485952,7.183253 21.879831,6.82546738 21.879831,6.19934254 C21.879831,5.60303318 22.2989204,5.27506302 22.7778798,5.27506302 C23.0622619,5.27506302 23.3167091,5.37941716 23.4813514,5.49867904 C23.7058636,5.67757185 23.7657336,5.88628013 23.840571,6.10989614 C23.8854734,6.21425028 23.9154084,6.28878895 23.9752783,6.28878895 C24.0201807,6.28878895 24.0501157,6.21425028 24.0501157,6.0502652 C24.0351482,5.81174145 23.9752783,5.51358677 23.9603108,5.34960169 C23.9603108,5.30487849 23.9154084,5.24524755 23.8854734,5.21543209 C23.7058636,5.15580115 23.2718067,5.05144701 22.8676847,5.05144701 C22.2989204,5.05144701 21.879831,5.24524755 21.6104163,5.46886357 C21.2811317,5.70738731 21.041652,6.10989614 21.041652,6.64657457 C21.041652,7.30251487 21.6403513,7.85410104 22.2839529,8.2715176 C22.8826522,8.64421095 23.2718067,8.95727337 23.2718067,9.52376727 C23.2718067,10.1349844 22.7180099,10.5225855 22.2989204,10.5225855 C22.0744082,10.5225855 21.849896,10.49277 21.6253838,10.3436926 C21.3559691,10.1797076 21.1164894,9.91136836 20.9967496,9.538675 C20.8919772,9.25542805 20.8470748,9.25542805 20.8021723,9.25542805 C20.7722374,9.25542805 20.7273349,9.30015126 20.7572699,9.4939518 C20.7722374,9.65793688 20.8021723,10.0306302 20.8021723,10.2393385 C20.8021723,10.3287849 20.9069447,10.4331391 21.0266845,10.4778623 C21.475709,10.6567551 21.819961,10.7462015 22.2091155,10.7462015 Z M27.6123761,10.7312937 C28.4655226,10.7312937 29.0941567,10.4331391 29.692856,9.79210648 C29.7826609,9.68775234 29.8425308,9.59830594 29.8425308,9.55358274 C29.8425308,9.47904407 29.7826609,9.4492286 29.662921,9.56849047 C29.3037015,9.91136836 28.8546771,10.045538 28.2410103,10.045538 C27.7470835,10.045538 27.1483842,9.88155289 26.7442622,9.43432086 C26.3551077,9.00199657 26.0557581,8.39077947 26.0557581,7.63048503 C26.0557581,7.21306847 26.1006606,6.98945246 26.175498,6.81055965 C26.2054329,6.76583644 26.2802703,6.69129777 26.3102053,6.69129777 L27.1184493,6.69129777 C27.4627013,6.69129777 29.4084738,6.72111324 29.5282137,6.73602097 C29.6030511,6.73602097 29.6778885,6.64657457 29.6778885,6.5720359 C29.6778885,5.66266411 28.7349372,5.05144701 27.8518558,5.05144701 C27.0735468,5.05144701 26.3850427,5.40923263 25.9809207,5.79683372 C25.3522865,6.40805082 25.1128068,7.28760714 25.1128068,7.97336291 C25.1128068,8.77838056 25.3822215,9.4939518 25.8312459,9.97099929 C26.2802703,10.4480468 26.9089045,10.7312937 27.6123761,10.7312937 Z M26.3700752,6.48258949 C26.3401403,6.48258949 26.3102053,6.45277402 26.3102053,6.42295856 C26.3102053,6.30369668 26.4449126,6.02044973 26.6245224,5.81174145 C26.953807,5.46886357 27.327994,5.26015529 27.7171485,5.26015529 C28.0614006,5.26015529 28.3158477,5.3943249 28.4655226,5.54340224 C28.6301648,5.72229505 28.6750673,5.99063426 28.6750673,6.16952707 C28.6750673,6.30369668 28.6451323,6.46768176 28.3158477,6.46768176 L26.3700752,6.48258949 Z M34.796767,10.7014783 C35.2158564,10.7014783 35.6798483,10.5673087 36.0091329,10.3138772 C36.2037102,10.1647998 36.3384175,10.0157225 36.3384175,9.92627609 C36.3384175,9.86664515 36.2935151,9.85173742 36.1887427,9.92627609 C36.0540354,10.0157225 35.7846207,10.1498921 35.3655312,10.1498921 C34.9763767,10.1498921 34.6620596,10.0306302 34.4375474,9.74738328 C34.3327751,9.59830594 34.3028401,9.41941313 34.2729051,8.94236563 C34.2579377,8.48022587 34.2429702,6.13971161 34.2429702,5.88628013 C34.2429702,5.79683372 34.2729051,5.75211052 34.4525149,5.75211052 C34.8566369,5.75211052 35.5900435,5.76701825 36.1139053,5.76701825 C36.1887427,5.76701825 36.2635801,5.64775638 36.2635801,5.3943249 C36.2635801,5.28997076 36.2037102,5.18561662 36.1737752,5.18561662 C35.8594581,5.18561662 34.6171572,5.23033982 34.3477425,5.23033982 C34.2878726,5.23033982 34.2729051,5.14089342 34.2729051,5.09617021 C34.2579377,4.9172774 34.2878726,4.49986085 34.2878726,4.36569124 C34.2878726,4.29115257 34.1831003,4.2613371 34.0483929,4.41041444 C33.6891734,4.8725542 33.1952465,5.27506302 32.8210595,5.40923263 C32.6564172,5.4837713 32.6414497,5.5284945 32.6414497,5.55830997 C32.6414497,5.61794091 32.7162871,5.66266411 32.836027,5.69247958 C32.9707343,5.72229505 33.1353766,5.75211052 33.1952465,5.78192599 C33.2551164,5.81174145 33.2700839,5.91609559 33.2700839,6.08008067 L33.2700839,9.16598165 C33.2700839,9.52376727 33.3299538,9.82192195 33.4496937,10.0157225 C33.7041409,10.49277 34.1681328,10.7014783 34.796767,10.7014783 Z M39.5863609,10.7462015 C40.1251902,10.7462015 40.8136943,10.5374932 41.2776862,10.1797076 C41.7566456,9.80701422 42.4301822,9.00199657 42.4301822,7.86900877 C42.4301822,6.28878895 41.1878813,5.05144701 39.5564259,5.05144701 C38.8379868,5.05144701 38.1644502,5.36450943 37.7603282,5.67757185 C37.2065314,6.12480387 36.6826696,6.85528285 36.6826696,7.98827065 C36.6826696,9.538675 38.0447103,10.7462015 39.5863609,10.7462015 Z M39.7959056,10.49277 C39.3319137,10.49277 38.7930844,10.2542462 38.3889624,9.70266008 C37.910003,9.07653524 37.7603282,8.28642533 37.7603282,7.66030049 C37.7603282,6.10989614 38.5685722,5.30487849 39.3319137,5.30487849 C40.649052,5.30487849 41.3674911,6.70620551 41.3674911,8.12244025 C41.3674911,9.19579712 40.9633691,9.91136836 40.7388569,10.1200766 C40.4993772,10.3287849 40.1551251,10.49277 39.7959056,10.49277 Z M4.35291083,27.0091842 C4.78696778,27.0091842 5.19108976,26.8899224 5.53534182,26.6663063 C6.28371587,26.1743511 7.06202488,24.9221014 7.06202488,22.3281557 C7.06202488,20.628674 6.43339068,17.9154664 4.39781328,17.9154664 C4.02362625,17.9154664 3.70930916,17.990005 3.39499206,18.1539901 C2.19759359,18.8397459 1.58392687,20.2708884 1.58392687,22.6114026 C1.58392687,24.3406998 2.31733343,27.0091842 4.35291083,27.0091842 Z M4.44271572,26.800476 C3.52969939,26.800476 3.21538229,24.4897772 3.21538229,22.0598165 C3.21538229,20.0621801 3.5147319,19.0633619 3.78414656,18.5117757 C3.90388641,18.273252 4.09846366,18.1390824 4.27807343,18.1390824 C5.07134992,18.1390824 5.46050442,20.405058 5.46050442,22.6859413 C5.46050442,24.1767147 5.26592717,25.4885953 5.0863174,26.069997 C4.87677267,26.7110295 4.65226045,26.800476 4.44271572,26.800476 Z M8.97786243,27.024092 C9.33708197,27.024092 9.7861064,26.7110295 9.7861064,26.1445356 C9.7861064,25.7271191 9.48675678,25.3097025 8.99282991,25.3097025 C8.54380548,25.3097025 8.16961846,25.6823959 8.16961846,26.1594434 C8.16961846,26.6066754 8.51387052,27.024092 8.97786243,27.024092 Z M15.2642044,26.9048301 C15.4587817,26.9048301 15.5485865,26.8601069 15.5485865,26.800476 C15.5485865,26.740845 15.4737491,26.6812141 15.3091068,26.6513986 C14.6804727,26.5470445 14.6056352,26.4575981 14.5607328,25.5333185 C14.5307978,24.892286 14.5008629,21.7616618 14.5158304,20.5094121 C14.5457653,19.5404094 14.5607328,18.2136211 14.5607328,18.0198205 C14.5607328,17.9303741 14.5307978,17.9154664 14.5008629,17.9154664 C14.4260255,17.9154664 14.3062856,17.9750973 14.1715783,18.0198205 C13.7524888,18.1987133 12.9292774,18.3179752 12.2707082,18.4074216 C12.1509684,18.4223293 12.0611635,18.4670525 12.0611635,18.5117757 C12.0611635,18.5714067 12.1958708,18.6161299 12.2856757,18.6310376 C12.4353505,18.6608531 12.5401229,18.6757608 12.6598627,18.720484 C12.7796026,18.780115 12.8394725,18.8844691 12.85444,19.0484542 C12.8843749,19.4211475 12.8993424,19.9131028 12.8993424,21.7169386 C12.8993424,24.2661611 12.8694075,25.0711788 12.824505,25.5333185 C12.7945701,26.4128749 12.6598627,26.5470445 11.9563911,26.6663063 C11.8067163,26.6961218 11.7169114,26.7259373 11.7169114,26.7855682 C11.7169114,26.8750146 11.8366513,26.9048301 11.9713586,26.9048301 C12.4952204,26.9048301 12.7796026,26.8302914 13.5130091,26.8302914 C14.036871,26.8302914 14.5008629,26.9048301 15.2642044,26.9048301 Z M30.4112951,26.9197378 C30.5759374,26.9197378 30.6807097,26.8750146 30.6807097,26.8153837 C30.6807097,26.740845 30.5759374,26.6961218 30.44123,26.6513986 C29.8275633,26.4725058 29.6778885,26.293613 29.6180186,25.4438721 L29.6039336,25.1906659 C29.5721094,24.5873599 29.5217655,23.4268623 29.5142086,22.1442406 L29.5140545,20.9968205 C29.5159404,20.2616456 29.5222267,19.3913321 29.5431812,18.9739155 C29.5880836,18.1539901 29.6180186,17.9601896 30.4861325,17.7812968 C30.5909048,17.766389 30.7256122,17.7067581 30.7256122,17.6322194 C30.7256122,17.5725885 30.6507748,17.5278653 30.4561975,17.5278653 C29.5431812,17.5278653 29.0941567,17.6173117 28.4206201,17.6173117 C28.3457827,17.6173117 28.2410103,17.8111122 28.2410103,17.8409277 C28.1512055,18.1390824 28.0164981,18.4819603 27.7770184,19.0484542 C27.4477339,19.7789331 25.6516361,23.4611435 25.2325467,24.2065302 C25.2026117,24.2661611 25.1577093,24.3108843 25.1277743,24.2214379 C24.6039125,23.2673429 22.4934977,19.003731 21.9846033,17.8111122 C21.9397009,17.7216658 21.8648635,17.6173117 21.8049936,17.6173117 C20.9967496,17.6173117 20.0238633,17.542773 19.4550991,17.5278653 C19.3652942,17.5278653 19.2006519,17.5576808 19.2006519,17.6322194 C19.2006519,17.7216658 19.3353592,17.766389 19.4401316,17.7962045 C19.7245137,17.8558354 19.9639934,17.9005586 20.2184406,18.1539901 C20.5028227,18.4521448 20.5477252,18.6459453 20.5477252,19.5404094 C20.5477252,20.6733972 20.3531479,23.714575 20.263343,24.5643158 C20.1585707,25.6227649 20.0837333,25.9656428 19.919091,26.2041666 C19.7694162,26.4277826 19.5449039,26.517229 19.110847,26.6364909 C18.9013023,26.6961218 18.8563998,26.7557527 18.8563998,26.800476 C18.8563998,26.8750146 18.9162697,26.9048301 19.140782,26.9048301 C19.3203917,26.9048301 19.7394812,26.8302914 20.2184406,26.8302914 C20.7273349,26.8302914 21.2511968,26.9048301 21.5206114,26.8899224 C21.6702862,26.9048301 21.8049936,26.8750146 21.8049936,26.7706605 C21.8049936,26.7110295 21.7151887,26.6513986 21.5655139,26.6215831 C21.1164894,26.5321367 20.8321073,26.3085207 20.7722374,25.9656428 C20.7329477,25.7569346 20.7165771,25.5824675 20.7130983,25.1426311 L20.7123674,24.9370092 C20.7123674,23.9083755 20.8470748,20.3603348 20.9069447,19.7342099 C20.9368797,19.5255017 20.9668146,19.5255017 21.0266845,19.6596713 C21.4158391,20.4199657 23.5861238,25.1904407 24.1249531,26.4725058 C24.1997905,26.6364909 24.2746279,26.8601069 24.3644328,26.8601069 C24.4542377,26.8601069 24.5141076,26.7557527 24.6338474,26.517229 C25.2175792,25.115902 26.8340671,21.7765695 27.8219209,19.7342099 C27.8518558,19.6149481 27.8967583,19.7193022 27.8967583,19.7789331 C27.8967583,20.5988585 27.8817908,24.2065302 27.8368884,24.9817324 C27.7919859,26.1296279 27.702181,26.4575981 27.0885143,26.5917677 C26.9837419,26.6215831 26.8340671,26.6961218 26.8340671,26.7557527 C26.8340671,26.8601069 26.9987094,26.8750146 27.1034818,26.8750146 C27.3130265,26.8750146 28.0464331,26.8302914 28.6301648,26.8302914 C29.2138966,26.8302914 29.8724658,26.9197378 30.4112951,26.9197378 Z M32.7162871,20.1069033 C33.0455717,20.1069033 33.4496937,19.8832873 33.4496937,19.3615166 C33.4496937,19.0186387 33.1653116,18.6608531 32.7911245,18.6608531 C32.4768074,18.6608531 32.0876529,18.8993768 32.0876529,19.4211475 C32.0876529,19.8087486 32.40197,20.1069033 32.7162871,20.1069033 Z M33.8089132,26.9048301 C33.9286531,26.9048301 34.0334254,26.8750146 34.0334254,26.800476 C34.0334254,26.740845 33.988523,26.6961218 33.8238807,26.6513986 C33.5245311,26.5768599 33.4496937,26.4426903 33.4197587,26.1892588 C33.3991784,26.0355228 33.3927471,25.4237816 33.3907373,24.5138967 L33.3902915,22.6176918 C33.3916947,22.1250378 33.3973075,21.638673 33.4197587,21.4038762 C33.4347262,21.2398911 33.4047912,21.1951679 33.3598888,21.1951679 C33.3149864,21.1951679 33.2551164,21.2398911 33.1353766,21.2846143 C32.6115148,21.4933226 32.3421001,21.5976767 31.6685635,21.7318463 C31.5039212,21.7765695 31.4590187,21.8212927 31.4590187,21.8511082 C31.4590187,21.9107391 31.5039212,21.9554623 31.5787586,22.0150933 C31.9679131,22.2834325 31.9679131,22.3430634 31.9679131,22.6263104 C31.9679131,22.7753877 31.9230106,25.3693335 31.9230106,25.8165655 C31.9230106,26.3383362 31.8182383,26.5321367 31.4290838,26.6215831 C31.249474,26.6513986 31.1596691,26.6812141 31.1596691,26.7557527 C31.1596691,26.8153837 31.279409,26.8601069 31.4141163,26.8601069 C31.5787586,26.8601069 31.9230106,26.8302914 32.5815798,26.8302914 C33.210214,26.8302914 33.5544661,26.9048301 33.8089132,26.9048301 Z M37.1915639,26.8750146 C37.3412387,26.8750146 37.4909135,26.8302914 37.4909135,26.7706605 C37.4909135,26.6961218 37.3861412,26.6513986 37.2963363,26.6364909 C36.9071818,26.5470445 36.8173769,26.4874135 36.8024094,26.010366 C36.7899365,25.78675 36.7774636,25.335377 36.7736524,24.0695999 L36.7732906,21.4288324 C36.7793715,19.0828016 36.8173769,16.9679308 36.8173769,16.871925 C36.8173769,16.7973863 36.7874419,16.7079399 36.757507,16.7079399 C36.697637,16.7079399 36.6227996,16.7377554 36.5479622,16.7675708 C36.2336451,16.871925 35.6499134,17.095541 35.0362467,17.1849874 C34.9015393,17.2148029 34.8117345,17.2595261 34.8117345,17.3042493 C34.8117345,17.3489725 34.8566369,17.4086034 34.9614093,17.4682343 C35.3056613,17.6471272 35.3804987,17.7514813 35.3804987,18.0943592 C35.3954662,18.6012221 35.3804987,20.181442 35.3804987,21.0013673 C35.3655312,22.4325098 35.3056613,25.2053484 35.2757264,25.8165655 C35.2457914,26.4575981 35.1559865,26.5470445 34.7518645,26.6215831 C34.6321247,26.6513986 34.5273523,26.6812141 34.5273523,26.7557527 C34.5273523,26.8302914 34.6470922,26.8601069 34.796767,26.8601069 C35.200889,26.8601069 35.5152061,26.8302914 35.919328,26.8302914 C36.1438402,26.8302914 36.7425395,26.8750146 37.1915639,26.8750146 Z M40.7687918,27.0091842 C41.7416781,27.0091842 42.5050196,26.5321367 42.9690115,25.8761964 C43.0438489,25.7718423 43.0737839,25.7271191 43.0737839,25.6525804 C43.0737839,25.5780417 43.013914,25.5482263 42.9091416,25.6674882 C42.5349546,26.0252738 42.0709627,26.1147202 41.5171659,26.1147202 C41.1429789,26.1147202 40.5742146,25.9358274 40.2149951,25.5333185 C39.8108731,25.1009943 39.5564259,24.5494081 39.5564259,23.7742059 C39.5564259,23.5505899 39.5863609,23.2971584 39.6312633,23.1629888 C39.6611983,23.1182656 39.7210682,23.0437269 39.7659706,23.0437269 L40.3047999,23.0437269 C40.7089219,23.0437269 42.5648896,23.0735424 42.7295318,23.0884501 C42.8043692,23.0884501 42.9091416,22.984096 42.9091416,22.8797419 C42.9091416,22.030001 42.1158651,21.2697066 41.023239,21.2697066 C40.2299625,21.2697066 39.6013283,21.5976767 39.1972064,21.9405546 C38.5236697,22.5070485 38.1943851,23.4164203 38.1943851,24.2214379 C38.1943851,24.9966401 38.4488323,25.7420268 38.9128242,26.2339821 C39.3768161,26.7259373 40.0054503,27.0091842 40.7687918,27.0091842 Z M39.7809381,22.8201109 C39.7360357,22.8201109 39.7061007,22.76048 39.7061007,22.7306645 C39.7061007,22.5815872 39.8557755,22.2088938 40.0353853,21.9703701 C40.2898325,21.6871231 40.5442796,21.4784148 40.8735642,21.4784148 C41.1280114,21.4784148 41.3225886,21.6125845 41.427361,21.7318463 C41.5770358,21.9405546 41.6369057,22.1641706 41.6369057,22.4474176 C41.6369057,22.5815872 41.6069708,22.8052032 41.2028488,22.8052032 L39.7809381,22.8201109 Z M6.77764274,43.2870747 C6.82254518,43.2870747 6.88241511,43.2274438 6.97221999,43.0038278 C7.15182976,42.5267803 7.42124442,41.8559322 7.67569159,41.2596229 C8.1396835,40.2011737 8.58870793,39.1725401 8.85812258,38.6358617 C9.05269983,38.2333528 9.23230961,38.0246445 9.50172426,37.9501059 C9.72623647,37.8904749 9.77113892,37.8457517 9.77113892,37.7861208 C9.77113892,37.7264899 9.69630151,37.7115821 9.56159419,37.7115821 C9.33708197,37.7115821 8.96289495,37.7563053 8.81322014,37.7563053 C8.57374045,37.7563053 8.30432579,37.7115821 8.04987861,37.7115821 C7.94510625,37.7115821 7.85530136,37.7413976 7.85530136,37.8010285 C7.85530136,37.8457517 7.90020381,37.8904749 8.09478106,37.9501059 C8.48393556,38.05446 8.54380548,38.1886296 8.54380548,38.3227992 C8.54380548,38.4271534 8.43903312,38.6954926 8.30432579,39.0383705 C8.12471602,39.5452334 7.40627694,41.2447151 7.22666717,41.6174085 C7.22666717,41.647224 7.1967322,41.7068549 7.15182976,41.6323162 C6.94228503,41.1701765 6.14900854,39.008555 5.98436625,38.5464152 C5.80475648,38.0842755 5.89456137,38.0246445 6.23881343,37.9501059 C6.35855327,37.9202904 6.46332564,37.8606595 6.46332564,37.8010285 C6.46332564,37.7563053 6.40345572,37.7264899 6.23881343,37.7264899 C5.96939877,37.7264899 5.789789,37.7563053 5.35573205,37.7563053 C5.04141496,37.7563053 4.65226045,37.6966744 4.33794335,37.6966744 C4.18826854,37.6966744 4.11343114,37.7413976 4.11343114,37.8010285 C4.11343114,37.8606595 4.18826854,37.8904749 4.32297587,37.9202904 C4.63729297,37.9948291 4.7720003,38.1588142 4.89174015,38.4122456 L5.14618732,39.0234627 C5.17612228,39.0980014 5.13121984,39.2023556 5.11625236,39.2768942 C4.96657755,39.6644953 4.30800839,41.1105455 4.0685287,41.6174085 C4.05356122,41.6621317 3.99369129,41.647224 3.97872381,41.6025008 C3.63447175,40.7676676 2.99087007,39.0681859 2.76635786,38.3824302 C2.70648794,38.1439064 2.69152046,38.0097368 3.05074,37.9501059 C3.15551236,37.9351981 3.30518717,37.8755672 3.30518717,37.830844 C3.30518717,37.7563053 3.18544732,37.7115821 3.05074,37.7115821 C2.75139038,37.7115821 2.45204076,37.7563053 2.18262611,37.7563053 C1.76353664,37.7563053 1.31451221,37.6966744 1.11993496,37.6966744 C0.955292672,37.6966744 0.850520306,37.7264899 0.850520306,37.8010285 C0.850520306,37.8606595 0.940325191,37.9053827 1.06006504,37.9351981 C1.43425206,38.0246445 1.61386183,38.2333528 1.7186342,38.5165998 C1.88327649,38.784939 2.7364229,40.9912837 3.00583755,41.7366704 C3.26028473,42.4373339 3.35008961,42.8100272 3.42492702,43.0187355 C3.46982946,43.1827206 3.5147319,43.2870747 3.57460183,43.2870747 C3.63447175,43.2870747 3.70930916,43.1976283 3.78414656,43.0038278 C3.94878885,42.5565957 4.08349618,42.2286256 4.30800839,41.7366704 C4.51755312,41.2148997 5.14618732,39.8284804 5.28089465,39.5601412 C5.31082961,39.4856025 5.34076457,39.515418 5.35573205,39.5601412 L6.25378091,41.9901018 L6.61300045,43.0187355 C6.67287037,43.2274438 6.71777282,43.2870747 6.77764274,43.2870747 Z M13.5728791,43.2572593 C14.0518385,43.2572593 14.5158304,43.0336432 14.7253751,42.6162267 C14.785245,42.4820571 14.7253751,42.4373339 14.6355702,42.4820571 C14.4709279,42.5715035 14.3212531,42.6162267 14.2015133,42.6162267 C13.7824238,42.6162267 13.6477165,42.3329797 13.6477165,42.0497328 C13.6477165,41.6621317 13.6926189,40.2458969 13.6926189,39.6943108 C13.6926189,39.232171 13.632749,38.6209539 13.4830742,38.337707 C13.3034644,37.8755672 12.8394725,37.5774125 12.3305782,37.5774125 C12.076131,37.5774125 11.7767814,37.6668589 11.4325293,37.8457517 C11.1331797,37.9948291 10.6392528,38.3078915 10.2950007,38.7104003 C10.115391,38.9191086 10.0106186,39.0532782 10.0106186,39.1576323 C10.0106186,39.2172633 10.085456,39.3067097 10.1602934,39.291802 C10.2650658,39.2768942 10.7140902,39.0681859 10.863765,38.9638318 C10.8937,38.9340163 10.9236349,38.8892931 10.9236349,38.8445699 C10.9236349,38.7402158 10.9236349,38.6209539 10.9386024,38.561323 C10.9685374,38.3973379 11.0583423,38.2929838 11.1631146,38.2035374 C11.3876269,38.0693678 11.5373017,38.0246445 11.7618139,38.0246445 C11.9414236,38.0246445 12.1958708,38.114091 12.3904481,38.2631683 C12.6448952,38.4569688 12.7496676,38.8743854 12.7496676,39.4856025 C12.7496676,39.6943108 12.7496676,39.9924655 12.7197327,40.1713583 C12.7197327,40.2309892 12.6448952,40.3651588 12.5251554,40.3949743 C12.2108383,40.5142362 10.8487975,40.916745 10.489578,41.1105455 C10.3548707,41.1850842 9.95074869,41.4832389 9.95074869,41.9602864 C9.95074869,42.7354886 10.5494479,43.2423515 11.1481472,43.2423515 C11.7169114,43.2423515 12.1659359,42.98892 12.6149603,42.5715035 C12.6299278,42.5565957 12.6748302,42.5565957 12.6897977,42.5864112 C12.824505,42.9292891 13.1537896,43.2572593 13.5728791,43.2572593 Z M11.8067163,42.6758576 C11.3427244,42.6758576 10.9086675,42.3329797 10.9086675,41.8410245 C10.9086675,41.4087002 11.1032447,41.1850842 11.2828545,41.0956378 C11.5971716,40.9316527 12.4652855,40.6185903 12.6598627,40.5887748 C12.6897977,40.5738671 12.7197327,40.6484058 12.7197327,40.6633135 C12.7197327,41.2298074 12.6897977,41.8261168 12.6448952,42.0795483 C12.6299278,42.2435333 12.5401229,42.3777029 12.480253,42.4373339 C12.3156107,42.5864112 12.0611635,42.6758576 11.8067163,42.6758576 Z M17.2698468,43.1230896 C17.4644241,43.1230896 17.5691965,43.0783664 17.5691965,43.0187355 C17.5691965,42.9740123 17.4644241,42.9292891 17.3746192,42.9143814 C16.9555297,42.8398427 16.8657249,42.7354886 16.8507574,42.3329797 C16.8384312,42.0997175 16.8261051,41.5833631 16.8221385,40.3592783 L16.8220004,37.3259222 C16.830385,35.2416604 16.8806923,33.0665806 16.8806923,32.9709227 C16.8806923,32.896384 16.8657249,32.8069376 16.8357899,32.8069376 C16.77592,32.8069376 16.7010826,32.8367531 16.6561801,32.8516608 C16.3268955,32.9709227 15.967676,33.1050923 15.5336191,33.1945387 C15.3989117,33.2243541 15.3091068,33.2690773 15.3091068,33.3138005 C15.3091068,33.3585237 15.3540093,33.3883392 15.4587817,33.4479702 C15.8479362,33.6864939 15.8778711,33.7610326 15.8778711,34.0890027 C15.8928386,34.744943 15.8778711,35.9673772 15.8778711,37.1749037 C15.8629036,38.9638318 15.8030337,41.4832389 15.7730988,42.034825 C15.7132288,42.6907654 15.6234239,42.824935 15.2492369,42.8994736 C15.0546597,42.9441968 14.9798223,42.9591046 14.9798223,43.0336432 C14.9798223,43.1081819 15.0546597,43.1230896 15.2342694,43.1230896 C15.4587817,43.1230896 15.8479362,43.0932742 16.2370907,43.0932742 C16.4915378,43.0932742 17.0303672,43.1230896 17.2698468,43.1230896 Z M24.2746279,43.1678128 C24.3943677,43.1678128 24.5290751,43.1529051 24.5290751,43.0634587 C24.5290751,43.0038278 24.4392702,42.9591046 24.3045629,42.9292891 C23.8555384,42.824935 23.6459937,42.6609499 23.2269042,42.2286256 C22.5234326,41.5130544 21.445774,40.3651588 20.9967496,39.8433881 C20.9817821,39.8135727 20.9518471,39.7688495 20.9817821,39.739034 C21.2661642,39.4706948 21.9995708,38.8296622 22.3887253,38.5464152 C23.002392,38.0693678 23.2568392,37.9799213 23.7657336,37.8904749 C23.9453433,37.8606595 23.9902458,37.8010285 23.9902458,37.7712131 C23.9902458,37.7115821 23.9303758,37.6668589 23.7657336,37.6668589 C23.376579,37.6668589 22.7778798,37.7563053 22.4485952,37.7563053 C22.2839529,37.7563053 21.9397009,37.7413976 21.7002212,37.7413976 C21.5655139,37.7413976 21.4607415,37.7861208 21.4607415,37.8457517 C21.4607415,37.9053827 21.5804813,37.9501059 21.7151887,37.9650136 C22.0444732,38.0246445 22.1492456,38.114091 22.1492456,38.2035374 C22.1492456,38.2631683 22.0744082,38.3675224 21.9846033,38.4569688 C21.7151887,38.8147545 20.9668146,39.4856025 20.3681154,39.96265 C20.2483755,40.0520964 20.1286357,40.1266351 20.0687658,40.1266351 C20.0238633,40.1266351 19.9939284,40.0520964 19.9939284,39.8881113 C19.9939284,38.2482606 20.0687658,36.2804396 20.0687658,35.8182999 C20.0687658,34.7151276 20.1136682,33.4032469 20.1436032,32.9112917 C20.1436032,32.8367531 20.1136682,32.7920298 20.0987007,32.7920298 C20.0388308,32.7920298 19.9639934,32.8218453 19.859221,32.8665685 C19.7843836,32.896384 19.3952291,33.0603691 18.7965299,33.2243541 C18.6468551,33.2690773 18.5570502,33.2988928 18.5570502,33.3585237 C18.5570502,33.3883392 18.6169201,33.4181547 18.6917575,33.4628779 C18.8713673,33.5523243 19.0060746,33.6417707 19.0360096,33.7610326 C19.080912,33.9250176 19.0958795,34.1039105 19.0958795,34.4467883 C19.0958795,35.6095916 19.0509771,37.5177816 19.0360096,38.6805849 C19.0360096,39.8433881 19.0210421,41.0956378 18.9611722,42.1839024 C18.9312372,42.6758576 18.8264649,42.8100272 18.3624729,42.9292891 C18.2577006,42.9441968 18.1678957,42.98892 18.1678957,43.0336432 C18.1678957,43.0932742 18.2577006,43.1379974 18.4073754,43.1379974 C18.5869852,43.1379974 18.9013023,43.0932742 19.3802617,43.0932742 C19.7694162,43.0932742 20.0837333,43.1379974 20.5028227,43.1379974 C20.667465,43.1379974 20.7872049,43.1081819 20.7872049,43.0336432 C20.7872049,42.9740123 20.7123674,42.9441968 20.5626926,42.8994736 C20.0987007,42.7951195 19.9789609,42.7503963 19.9789609,42.034825 C19.9639934,41.2148997 19.9789609,40.7229444 19.9939284,40.4546052 C19.9939284,40.3949743 20.0088958,40.3055279 20.0537983,40.3055279 C20.1016942,40.3055279 20.1783277,40.3723145 20.2683721,40.4600913 L20.3381804,40.5291439 C20.7872049,40.9763759 21.849896,42.094456 22.1642131,42.4522416 C22.2989204,42.6609499 22.2689855,42.7951195 22.0145383,42.8547504 C21.7451236,42.9143814 21.6702862,42.9441968 21.6702862,43.0187355 C21.6702862,43.1081819 21.7750586,43.1081819 21.9397009,43.1081819 C22.1642131,43.1081819 22.3587903,43.0932742 22.6132375,43.0932742 C23.1969693,43.0932742 23.7657336,43.1678128 24.2746279,43.1678128 Z M26.5945874,40.633498 C26.6694248,40.633498 26.7292948,40.4993284 26.7592297,40.186266 C26.8190997,39.4110638 27.2531566,36.1313623 27.2531566,35.4456065 C27.2531566,34.9238358 27.0136769,34.4020651 26.57962,34.4020651 C26.175498,34.4020651 25.9060833,35.0580054 25.9210508,35.5052375 C25.9509858,36.429517 26.2802703,38.8445699 26.4149777,40.2309892 C26.4449126,40.5440516 26.5047826,40.633498 26.5945874,40.633498 Z M26.6095549,43.2423515 C26.8340671,43.2423515 27.2082542,43.0187355 27.2082542,42.6013189 C27.2082542,42.3926107 27.0585793,41.8857477 26.6095549,41.8857477 C26.2802703,41.8857477 25.9210508,42.1839024 25.9210508,42.5864112 C25.9210508,43.0336432 26.3251728,43.2423515 26.6095549,43.2423515 Z"/>
      <line x1="1.919" x2="46.005" y1="57.013" y2="57.013" stroke="#222F3C" stroke-dasharray="0 3 0 3" stroke-linecap="round"/>
      <path stroke="#222F3C" stroke-linecap="round" stroke-width=".5" d="M41.9212879,52.6681053 L46.3707383,57.0997945 L41.9212879,61.5313184"/>
      <g transform="translate(48.224 48.524)">
        <path fill="#333838" d="M9.48248423,9.76544923 C9.55732163,9.76544923 9.60222408,9.67600282 9.70699644,9.42257134 C10.3955006,7.78272058 11.6078665,4.96515882 12.5508178,2.9078915 C13.4937691,0.790993244 13.7631838,0.477930826 14.391818,0.31394575 C14.6612326,0.269222547 14.73607,0.20959161 14.73607,0.149960674 C14.73607,0.0903297368 14.6612326,0.0754220026 14.4666554,0.0754220026 C14.1972407,0.0754220026 13.7931187,0.135052939 13.3740293,0.135052939 C12.9250048,0.135052939 12.7154601,0.0754220026 12.3263056,0.0754220026 C12.1167609,0.0754220026 12.0718584,0.105237471 12.0718584,0.164868408 C12.0718584,0.224499345 12.1616633,0.254314813 12.401143,0.328853484 C12.8950699,0.477930826 12.9100374,0.731362307 12.8352,1.05933246 C12.5208829,2.16250479 10.7098177,6.33667036 9.99137858,7.88707472 C9.94647614,7.97652113 9.91654118,7.99142886 9.85667125,7.88707472 C9.3477769,6.76899466 8.68920774,5.35275991 8.31502072,4.47320359 C8.28508576,4.39866492 8.28508576,4.32412625 8.30005324,4.29431078 C8.55450041,3.83217102 9.28790698,2.35630533 9.67706148,1.61091862 C10.1709884,0.746270041 10.4553705,0.433207623 11.0091673,0.31394575 C11.218712,0.269222547 11.2935494,0.224499345 11.2935494,0.149960674 C11.2935494,0.0903297368 11.218712,0.0754220026 11.0391022,0.0754220026 C10.6948502,0.0754220026 10.4553705,0.135052939 9.93150866,0.135052939 C9.54235415,0.135052939 9.30287446,0.0903297368 8.92868744,0.0903297368 C8.74907767,0.0903297368 8.65927278,0.120145205 8.65927278,0.164868408 C8.65927278,0.224499345 8.70417522,0.284130281 8.97358988,0.343761218 C9.61719156,0.49283856 9.63215904,0.641915902 9.16816713,1.7301805 C8.85385003,2.46065947 8.53953293,3.14641525 8.18031339,3.87689422 C8.13541095,3.95143289 8.07554103,3.93652516 8.06057355,3.90670969 C7.56664668,2.77372189 7.11762225,1.75999597 6.87814255,1.13387113 C6.65363034,0.582284965 6.80330515,0.403392155 7.20742713,0.328853484 C7.40200439,0.284130281 7.49180927,0.239407079 7.49180927,0.164868408 C7.49180927,0.105237471 7.38703691,0.0754220026 7.2373621,0.0754220026 C6.89311004,0.0754220026 6.54885798,0.135052939 6.01002866,0.135052939 C5.47119935,0.135052939 5.18681721,0.0754220026 4.75276027,0.0754220026 C4.55818302,0.0754220026 4.46837813,0.120145205 4.46837813,0.164868408 C4.46837813,0.239407079 4.54321554,0.299038016 4.78269523,0.343761218 C5.24668714,0.463023092 5.36642698,0.641915902 5.80048393,1.56619542 C6.12976851,2.28176666 7.13258973,4.54774226 7.37206942,5.11423616 C7.37206942,5.14405163 7.37206942,5.24840577 7.34213446,5.29312897 C6.93801248,6.24722396 6.57879294,6.99261067 6.15970347,7.84235152 C6.11480103,7.91689019 6.05493111,7.94670566 6.01002866,7.84235152 C4.99223996,5.60619139 3.51045935,2.43084401 2.88182516,0.880439649 C2.77705279,0.612100434 2.77705279,0.433207623 3.19614226,0.358668952 C3.37575203,0.328853484 3.46555691,0.284130281 3.46555691,0.20959161 C3.46555691,0.149960674 3.37575203,0.105237471 3.16620729,0.105237471 C2.85189019,0.105237471 2.49267065,0.135052939 2.16338607,0.135052939 C1.71436165,0.135052939 1.10069493,0.0754220026 0.741475389,0.0754220026 C0.546898138,0.0754220026 0.442125771,0.135052939 0.442125771,0.179776142 C0.442125771,0.239407079 0.576833099,0.299038016 0.75644287,0.31394575 C1.32520714,0.388484421 1.44494699,0.656823636 1.9837763,1.8196269 C2.68724791,3.28058485 3.69006912,5.48692951 4.51328057,7.38021176 C4.70785783,7.82744378 5.17184973,8.91570838 5.36642698,9.40766361 C5.47119935,9.67600282 5.50113431,9.76544923 5.5909392,9.76544923 C5.65080912,9.76544923 5.74061401,9.64618736 5.83041889,9.40766361 C6.15970347,8.54301502 6.95297996,6.79881012 7.52174423,5.69563779 C7.5516792,5.65091459 7.59658164,5.65091459 7.6265166,5.71054553 C8.06057355,6.66464052 8.91371996,8.51319956 9.22803706,9.42257134 C9.31784194,9.66109509 9.37771186,9.76544923 9.48248423,9.76544923 Z M16.6219726,9.64618736 C17.100932,9.64618736 17.5649239,9.42257134 17.7744686,9.00515478 C17.8343386,8.87098518 17.7744686,8.82626197 17.6846638,8.87098518 C17.5200215,8.96043158 17.3703467,9.00515478 17.2506068,9.00515478 C16.8315173,9.00515478 16.69681,8.72190784 16.69681,8.43866089 C16.69681,8.0510598 16.7417125,6.63482505 16.7417125,6.08323888 C16.7417125,5.62109912 16.6818425,5.00988202 16.5321677,4.72663507 C16.352558,4.26449531 15.8885661,3.96634063 15.3796717,3.96634063 C15.1252245,3.96634063 14.8258749,4.05578703 14.4816228,4.23467984 C14.1822732,4.38375718 13.6883464,4.6968196 13.3440943,5.09932843 C13.1644845,5.3080367 13.0597122,5.44220631 13.0597122,5.54656045 C13.0597122,5.60619139 13.1345496,5.69563779 13.209387,5.68073006 C13.3141593,5.66582233 13.7631838,5.45711405 13.9128586,5.35275991 C13.9427935,5.32294444 13.9727285,5.27822124 13.9727285,5.23349803 C13.9727285,5.12914389 13.9727285,5.00988202 13.987696,4.95025108 C14.0176309,4.78626601 14.1074358,4.68191187 14.2122082,4.59246546 C14.4367204,4.45829586 14.5863952,4.41357265 14.8109074,4.41357265 C14.9905172,4.41357265 15.2449644,4.50301906 15.4395416,4.6520964 C15.6939888,4.84589694 15.7987612,5.2633135 15.7987612,5.8745306 C15.7987612,6.08323888 15.7987612,6.38139357 15.7688262,6.56028638 C15.7688262,6.61991731 15.6939888,6.75408692 15.574249,6.78390239 C15.2599319,6.90316426 13.8978911,7.30567309 13.5386716,7.49947363 C13.4039642,7.5740123 12.9998422,7.87216699 12.9998422,8.34921448 C12.9998422,9.12441666 13.5985415,9.63127962 14.1972407,9.63127962 C14.766005,9.63127962 15.2150294,9.37784814 15.6640538,8.96043158 C15.6790213,8.94552385 15.7239238,8.94552385 15.7388912,8.97533932 C15.8735986,9.3182172 16.2028832,9.64618736 16.6219726,9.64618736 Z M14.8558099,9.06478572 C14.391818,9.06478572 13.957761,8.72190784 13.957761,8.22995261 C13.957761,7.79762832 14.1523383,7.5740123 14.331948,7.4845659 C14.6462651,7.32058082 15.514379,7.0075184 15.7089563,6.97770293 C15.7388912,6.9627952 15.7688262,7.03733387 15.7688262,7.05224161 C15.7688262,7.6187355 15.7388912,8.21504487 15.6939888,8.46847635 C15.6790213,8.63246143 15.5892164,8.76663104 15.5293465,8.82626197 C15.3647042,8.97533932 15.110257,9.06478572 14.8558099,9.06478572 Z M20.1393306,9.61637189 C20.5584201,9.61637189 21.022412,9.48220228 21.3516966,9.2287708 C21.5462738,9.07969346 21.6809812,8.93061611 21.6809812,8.84116971 C21.6809812,8.78153877 21.6360787,8.76663104 21.5313063,8.84116971 C21.396599,8.93061611 21.1271844,9.06478572 20.7080949,9.06478572 C20.3189404,9.06478572 20.0046233,8.94552385 19.7801111,8.6622769 C19.6753387,8.51319956 19.6454038,8.33430675 19.6154688,7.85725925 C19.6005013,7.39511949 19.5855338,5.05460522 19.5855338,4.80117374 C19.5855338,4.71172734 19.6154688,4.66700413 19.7950786,4.66700413 C20.1992005,4.66700413 20.9326071,4.68191187 21.4564689,4.68191187 C21.5313063,4.68191187 21.6061438,4.56264999 21.6061438,4.30921851 C21.6061438,4.20486437 21.5462738,4.10051023 21.5163389,4.10051023 C21.2020218,4.10051023 19.9597209,4.14523344 19.6903062,4.14523344 C19.6304363,4.14523344 19.6154688,4.05578703 19.6154688,4.01106383 C19.6005013,3.83217102 19.6304363,3.41475446 19.6304363,3.28058485 C19.6304363,3.20604618 19.5256639,3.17623071 19.3909566,3.32530806 C19.031737,3.78744782 18.5378102,4.18995664 18.1636231,4.32412625 C17.9989809,4.39866492 17.9840134,4.44338812 17.9840134,4.47320359 C17.9840134,4.53283453 18.0588508,4.57755773 18.1785906,4.6073732 L18.3862644,4.6520964 C18.4517472,4.66700413 18.5078752,4.68191187 18.5378102,4.6968196 C18.5976801,4.72663507 18.6126476,4.83098921 18.6126476,4.99497429 L18.6126476,8.08087526 C18.6126476,8.43866089 18.6725175,8.73681557 18.7922573,8.93061611 C19.0467045,9.40766361 19.5106964,9.61637189 20.1393306,9.61637189 Z M24.5248025,9.64618736 C25.3779489,9.64618736 26.0065831,9.34803267 26.6052824,8.7070001 C26.6950873,8.60264596 26.7549572,8.51319956 26.7549572,8.46847635 C26.7549572,8.39393768 26.6950873,8.36412221 26.5753474,8.48338409 C26.2161279,8.82626197 25.7671034,8.96043158 25.1534367,8.96043158 C24.6595099,8.96043158 24.0608106,8.79644651 23.6566886,8.34921448 C23.2675341,7.91689019 22.9681845,7.30567309 22.9681845,6.54537864 C22.9681845,6.12796209 23.013087,5.90434607 23.0879244,5.72545326 C23.1178593,5.68073006 23.1926967,5.60619139 23.2226317,5.60619139 L24.0308757,5.60619139 C24.3751277,5.60619139 26.3209002,5.63600686 26.4406401,5.65091459 C26.5154775,5.65091459 26.5903149,5.56146819 26.5903149,5.48692951 C26.5903149,4.57755773 25.6473636,3.96634063 24.7642822,3.96634063 C23.9859732,3.96634063 23.2974691,4.32412625 22.8933471,4.71172734 C22.2647129,5.32294444 22.0252332,6.20250076 22.0252332,6.88825653 C22.0252332,7.69327418 22.2946479,8.40884542 22.7436723,8.88589291 C23.1926967,9.36294041 23.8213309,9.64618736 24.5248025,9.64618736 Z M23.2825016,5.39748311 C23.2525667,5.39748311 23.2226317,5.36766764 23.2226317,5.33785217 C23.2226317,5.2185903 23.357339,4.93534335 23.5369488,4.72663507 C23.8662334,4.38375718 24.2404204,4.17504891 24.6295749,4.17504891 C24.973827,4.17504891 25.2282741,4.30921851 25.3779489,4.45829586 C25.5425912,4.63718867 25.5874937,4.90552788 25.5874937,5.08442069 C25.5874937,5.2185903 25.5575587,5.38257538 25.2282741,5.38257538 L23.2825016,5.39748311 Z M27.4284938,9.57164868 C27.6380386,9.57164868 27.8026808,9.48220228 28.3415102,9.48220228 C28.9701444,9.48220228 29.4640712,9.54183322 29.7484534,9.54183322 C29.9729656,9.54183322 30.1076729,9.51201775 30.1076729,9.43747908 C30.1076729,9.36294041 30.0328355,9.33312494 29.8232908,9.30330947 C29.2545265,9.24367853 29.0749167,9.13932439 29.0150468,8.67718463 C28.9851118,8.36412221 28.9551769,7.58892004 28.9551769,6.48574771 C28.9551769,6.18759302 28.9402094,5.75526873 28.9701444,5.57637592 C28.9851118,5.39748311 29.0599492,5.23349803 29.2245915,5.05460522 C29.4191688,4.87571241 29.6586485,4.75645054 29.8831607,4.75645054 C30.047803,4.75645054 30.2423802,4.83098921 30.4070225,4.93534335 C30.5716648,5.02478975 30.6465022,5.03969749 30.6764372,5.03969749 C30.7213396,5.03969749 30.7812095,5.02478975 30.9159169,4.90552788 C31.0955266,4.74154281 31.2452014,4.50301906 31.2452014,4.39866492 C31.2452014,4.32412625 31.2152665,4.24958758 31.1404291,4.18995664 C30.9907543,4.07069477 30.796177,3.9961561 30.6165673,3.9961561 C30.017868,3.9961561 29.4191688,4.54774226 29.0000793,5.06951296 C28.9551769,5.11423616 28.9252419,5.09932843 28.9252419,5.05460522 C28.9252419,4.81608148 28.9402094,4.24958758 28.9402094,4.0856025 C28.9402094,3.93652516 28.9102744,3.87689422 28.8803395,3.87689422 C28.835437,3.87689422 28.7605996,3.89180196 28.6558273,3.95143289 C28.4163476,4.0856025 27.9972581,4.23467984 27.6979085,4.30921851 C27.5632011,4.35394172 27.4733963,4.41357265 27.4733963,4.44338812 C27.4733963,4.47320359 27.4883637,4.51792679 27.5931361,4.59246546 C27.8775182,4.83098921 27.9822906,4.87571241 27.9822906,4.98006655 L27.9822906,6.63482505 C27.9822906,7.6187355 27.9673231,8.46847635 27.9373882,8.72190784 C27.8775182,9.12441666 27.712876,9.25858627 27.3985589,9.33312494 C27.278819,9.36294041 27.1740466,9.43747908 27.1740466,9.48220228 C27.1740466,9.54183322 27.248884,9.57164868 27.4284938,9.57164868 Z M6.90807752,26.0135243 C8.12044347,26.0135243 8.92868744,25.7004618 9.82673629,25.1935989 C9.9015737,25.1488757 9.94647614,25.0594293 9.9764111,24.9699829 C10.0063461,24.8059978 10.1859558,24.0457033 10.1859558,23.7922719 C10.1859558,23.7028255 10.1560209,23.5686558 10.0961509,23.5686558 C10.036281,23.5686558 10.0063461,23.6282868 9.94647614,23.8220873 C9.72196392,24.4333044 9.36274438,24.9550751 8.79398011,25.2830453 C8.38985813,25.5364768 7.86599629,25.7004618 7.01284988,25.7004618 C6.2195734,25.7004618 5.18681721,25.3873994 4.45341065,24.5972895 C3.67510164,23.7624564 3.07640241,22.3313139 3.07640241,20.9896178 C3.07640241,19.5584753 3.57032928,18.231687 4.21393096,17.5310235 C4.82759767,16.9048987 5.69571156,16.3682202 6.81827263,16.3682202 C7.68638652,16.3682202 8.55450041,16.606744 9.10829721,17.1136069 C9.37771186,17.3223152 9.70699644,17.7993627 9.82673629,18.3062257 C9.85667125,18.4254875 9.9015737,18.5000262 9.96144362,18.5000262 C9.99137858,18.5000262 10.0512485,18.4105798 10.0512485,18.2615025 C10.0512485,18.1124251 9.9764111,17.4713926 10.0063461,17.1136069 C10.0213135,17.0390683 9.9764111,16.9347141 9.85667125,16.8601755 C9.36274438,16.5918362 8.13541095,16.1296965 6.923045,16.1296965 C5.54603676,16.1296965 4.22889844,16.6514672 3.43562195,17.3670384 C2.47770317,18.231687 1.75926409,19.3497671 1.75926409,21.1386952 C1.75926409,22.4207603 2.38789829,23.7922719 3.01653248,24.4333044 C3.9445163,25.3575839 5.11197981,26.0135243 6.90807752,26.0135243 Z M14.7061351,25.9091701 C15.1850945,25.9091701 15.6490864,25.6855541 15.8586311,25.2681375 C15.918501,25.1339679 15.8586311,25.0892447 15.7688262,25.1339679 C15.6041839,25.2234143 15.4545091,25.2681375 15.3347693,25.2681375 C14.9156798,25.2681375 14.7809725,24.9848906 14.7809725,24.7016436 C14.7809725,24.3140426 14.8258749,22.8978078 14.8258749,22.3462216 C14.8258749,21.8840819 14.766005,21.2728648 14.6163302,20.9896178 C14.4367204,20.5274781 13.9727285,20.2293234 13.4638341,20.2293234 C13.209387,20.2293234 12.9100374,20.3187698 12.5657853,20.4976626 C12.2664357,20.6467399 11.7725088,20.9598024 11.4282567,21.3623112 C11.248647,21.5710195 11.1438746,21.7051891 11.1438746,21.8095432 C11.1438746,21.8691741 11.218712,21.9586206 11.2935494,21.9437128 C11.3983218,21.9288051 11.8473462,21.7200968 11.997021,21.6157427 C12.026956,21.5859272 12.0568909,21.541204 12.0568909,21.4964808 C12.0568909,21.3921267 12.0568909,21.2728648 12.0718584,21.2132338 C12.1017934,21.0492488 12.1915983,20.9448946 12.2963706,20.8554482 C12.5208829,20.7212786 12.6705577,20.6765554 12.8950699,20.6765554 C13.0746796,20.6765554 13.3291268,20.7660018 13.5237041,20.9150792 C13.7781512,21.1088797 13.8829236,21.5262963 13.8829236,22.1375134 C13.8829236,22.3462216 13.8829236,22.6443763 13.8529887,22.8232691 C13.8529887,22.8829001 13.7781512,23.0170697 13.6584114,23.0468851 C13.3440943,23.166147 11.9820535,23.5686558 11.622834,23.7624564 C11.4881267,23.8369951 11.0840047,24.1351497 11.0840047,24.6121972 C11.0840047,25.3873994 11.6827039,25.8942624 12.2814032,25.8942624 C12.8501674,25.8942624 13.2991919,25.6408309 13.7482163,25.2234143 C13.7631838,25.2085066 13.8080862,25.2085066 13.8230537,25.2383221 C13.957761,25.5812 14.2870456,25.9091701 14.7061351,25.9091701 Z M12.9399723,25.3277685 C12.4759804,25.3277685 12.0419235,24.9848906 12.0419235,24.4929354 C12.0419235,24.0606111 12.2365007,23.8369951 12.4161105,23.7475487 C12.7304276,23.5835636 13.5985415,23.2705012 13.7931187,23.2406857 C13.8230537,23.225778 13.8529887,23.3003166 13.8529887,23.3152244 C13.8529887,23.8817183 13.8230537,24.4780276 13.7781512,24.7314591 C13.7631838,24.8954442 13.6733789,25.0296138 13.613509,25.0892447 C13.4488667,25.2383221 13.1944195,25.3277685 12.9399723,25.3277685 Z M21.9952983,25.804816 C22.1449731,25.804816 22.2647129,25.7899082 22.2647129,25.7004618 C22.2647129,25.6408309 22.174908,25.6110154 22.0402007,25.5513845 C21.6360787,25.4470304 21.5911763,25.3575839 21.5762088,24.343858 C21.5762088,23.5984713 21.5612413,23.4792094 21.5612413,22.6890995 C21.5462738,21.8393587 21.426534,21.093972 21.0822819,20.7361863 C20.8877047,20.5274781 20.5284851,20.2293234 19.9148184,20.2293234 C19.6603712,20.2293234 19.3460541,20.2591389 19.031737,20.4082162 C18.7024525,20.5423858 18.3432329,20.7958173 17.9690459,21.0790642 C17.9391109,21.1088797 17.8942085,21.0641565 17.8942085,21.034341 C17.879241,20.8256328 17.909176,20.4231239 17.9241435,20.2442311 C17.9391109,20.1696924 17.8642735,20.1100615 17.8193711,20.1249692 C17.5649239,20.2889543 16.9662247,20.5423858 16.6369401,20.6318322 C16.5022328,20.6765554 16.4273954,20.7212786 16.4273954,20.7510941 C16.4273954,20.7958173 16.4573303,20.8256328 16.5471352,20.8852637 C16.9063548,21.0790642 16.9362897,21.2430493 16.9362897,21.3921267 C16.9362897,22.5996531 16.9362897,23.9711647 16.9063548,25.0445215 C16.8913873,25.3426762 16.8315173,25.4470304 16.4573303,25.521569 C16.2777206,25.5513845 16.1430132,25.6110154 16.1430132,25.6706464 C16.1430132,25.745185 16.2627531,25.7750005 16.4273954,25.7750005 C16.7117775,25.7750005 17.0260946,25.745185 17.2206719,25.745185 C17.5649239,25.745185 18.2983305,25.804816 18.4180703,25.804816 C18.5677451,25.804816 18.7174199,25.804816 18.7174199,25.7153696 C18.7174199,25.6408309 18.6425825,25.6110154 18.4629728,25.5662922 C18.2234931,25.4917536 18.0438833,25.4172149 17.9989809,25.0892447 C17.9690459,24.8805365 17.9241435,24.4929354 17.909176,23.5239326 C17.909176,22.6294686 17.8942085,21.8691741 17.8942085,21.6902813 C17.8942085,21.5710195 17.9690459,21.3474034 18.0738183,21.2430493 C18.4629728,20.9150792 18.8521273,20.7660018 19.2412818,20.7660018 C19.5855338,20.7660018 19.869916,20.870356 20.0944282,21.0492488 C20.4686152,21.3324957 20.5733876,21.6902813 20.5733876,22.8978078 L20.5733876,24.9252597 C20.5733876,25.3575839 20.5135176,25.4619381 20.1542981,25.5513845 C19.9597209,25.5961077 19.869916,25.6557386 19.869916,25.7153696 C19.869916,25.7750005 19.9746883,25.804816 20.1093957,25.804816 C20.3339079,25.804816 20.5284851,25.745185 21.0373795,25.745185 C21.3666641,25.745185 21.800721,25.804816 21.9952983,25.804816 Z M26.5154775,25.9091701 C26.9944369,25.9091701 27.4584288,25.6855541 27.6679735,25.2681375 C27.7278434,25.1339679 27.6679735,25.0892447 27.5781686,25.1339679 C27.4135263,25.2234143 27.2638515,25.2681375 27.1441117,25.2681375 C26.7250222,25.2681375 26.5903149,24.9848906 26.5903149,24.7016436 C26.5903149,24.3140426 26.6352173,22.8978078 26.6352173,22.3462216 C26.6352173,21.8840819 26.5753474,21.2728648 26.4256726,20.9896178 C26.2460628,20.5274781 25.7820709,20.2293234 25.2731766,20.2293234 C25.0187294,20.2293234 24.7193798,20.3187698 24.3751277,20.4976626 C24.0757781,20.6467399 23.5818512,20.9598024 23.2375992,21.3623112 C23.0579894,21.5710195 22.953217,21.7051891 22.953217,21.8095432 C22.953217,21.8691741 23.0280544,21.9586206 23.1028918,21.9437128 C23.2076642,21.9288051 23.6566886,21.7200968 23.8063634,21.6157427 C23.8362984,21.5859272 23.8662334,21.541204 23.8662334,21.4964808 C23.8662334,21.3921267 23.8662334,21.2728648 23.8812008,21.2132338 C23.9111358,21.0492488 24.0009407,20.9448946 24.1057131,20.8554482 C24.3302253,20.7212786 24.4799001,20.6765554 24.7044123,20.6765554 C24.8840221,20.6765554 25.1384692,20.7660018 25.3330465,20.9150792 C25.5874937,21.1088797 25.692266,21.5262963 25.692266,22.1375134 C25.692266,22.3462216 25.692266,22.6443763 25.6623311,22.8232691 C25.6623311,22.8829001 25.5874937,23.0170697 25.4677538,23.0468851 C25.1534367,23.166147 23.791396,23.5686558 23.4321764,23.7624564 C23.2974691,23.8369951 22.8933471,24.1351497 22.8933471,24.6121972 C22.8933471,25.3873994 23.4920463,25.8942624 24.0907456,25.8942624 C24.6595099,25.8942624 25.1085343,25.6408309 25.5575587,25.2234143 C25.5725262,25.2085066 25.6174286,25.2085066 25.6323961,25.2383221 C25.7671034,25.5812 26.096388,25.9091701 26.5154775,25.9091701 Z M24.7493147,25.3277685 C24.2853228,25.3277685 23.8512659,24.9848906 23.8512659,24.4929354 C23.8512659,24.0606111 24.0458431,23.8369951 24.2254529,23.7475487 C24.53977,23.5835636 25.4078839,23.2705012 25.6024612,23.2406857 C25.6323961,23.225778 25.6623311,23.3003166 25.6623311,23.3152244 C25.6623311,23.8817183 25.6323961,24.4780276 25.5874937,24.7314591 C25.5725262,24.8954442 25.4827213,25.0296138 25.4228514,25.0892447 C25.2582091,25.2383221 25.0037619,25.3277685 24.7493147,25.3277685 Z M30.2124453,25.7750005 C30.4070225,25.7750005 30.5117949,25.7302773 30.5117949,25.6706464 C30.5117949,25.6259232 30.4070225,25.5812 30.3172176,25.5662922 C29.8981282,25.4917536 29.8083233,25.3873994 29.7933558,24.9848906 C29.7810296,24.7516284 29.7687035,24.235274 29.7647369,23.0111891 L29.7645988,19.977833 C29.7729834,17.8935713 29.8232908,15.7184915 29.8232908,15.6228335 C29.8232908,15.5482948 29.8083233,15.4588484 29.7783883,15.4588484 C29.7185184,15.4588484 29.643681,15.4886639 29.5987785,15.5035716 C29.269494,15.6228335 28.9102744,15.7570031 28.4762175,15.8464495 C28.3415102,15.876265 28.2517053,15.9209882 28.2517053,15.9657114 C28.2517053,16.0104346 28.2966077,16.0402501 28.4013801,16.099881 C28.7905346,16.3384048 28.8204695,16.4129434 28.8204695,16.7409136 C28.835437,17.3968539 28.8204695,18.6192881 28.8204695,19.8268146 C28.8055021,21.6157427 28.7456321,24.1351497 28.7156972,24.6867359 C28.6558273,25.3426762 28.5660224,25.4768458 28.1918353,25.5513845 C27.9972581,25.5961077 27.9224207,25.6110154 27.9224207,25.6855541 C27.9224207,25.7600928 27.9972581,25.7750005 28.1768679,25.7750005 C28.4013801,25.7750005 28.7905346,25.745185 29.1796891,25.745185 C29.4341363,25.745185 29.9729656,25.7750005 30.2124453,25.7750005 Z" transform="translate(13.826 27.1)"/>
        <g stroke="#222F3C" stroke-linecap="round">
          <g stroke-linejoin="round" stroke-width=".5">
            <line x1="59.686" y1=".217"/>
            <line x2="59.686" y1=".217" transform="translate(0 16.375)"/>
            <line x2="59.686" y1=".217" transform="translate(0 16.375)"/>
          </g>
          <g stroke-width=".4" transform="translate(21.394 3.852)">
            <g transform="translate(2.225 2.687)">
              <path d="M.159961758 2.00983362L.977993984 2.9721726.08066 3.98381138M.0793017578 4.0101805L.897333984 4.97251947 0 5.98415826M.240621758 0L1.05918621.962338976.16132 1.97397777"/>
            </g>
            <path d="M.157781758 2.00983362L.975813984 2.9721726.07848 3.98381138M.0793017578 4.0101805L.897333984 4.97268491 0 5.98415826M.238441758 0L1.05647398.962338976.15914 1.97397777"/>
            <g transform="translate(5.413)">
              <g transform="translate(2.226 2.687)">
                <path d="M.157781758 2.00983362L.975813984 2.9721726.07848 3.98381138M.0793017578 4.0101805L.897333984 4.97251947 0 5.98415826M.238441758 0L1.05647398.962338976.15914 1.97397777"/>
              </g>
              <path d="M.157781758 2.00983362L.975813984 2.9721726.07848 3.98381138M.0787695312 4.0101805L.897333984 4.97268491 0 5.98415826M.240621758 0L1.05865398.962338976.16132 1.97397777"/>
            </g>
            <g transform="translate(10.826)">
              <g transform="translate(2.226 2.687)">
                <path d="M.159429531 2.00983362L.977993984 2.9721726.08066 3.98381138M.0793017578 4.0101805L.897333984 4.97251947 0 5.98415826M.240621758 0L1.05865398.962338976.16132 1.97397777"/>
              </g>
              <path d="M.159961758 2.00983362L.977993984 2.9721726.08066 3.98381138M.0793017578 4.0101805L.897333984 4.97268491 0 5.98415826M.240621758 0L1.05865398.962338976.16132 1.97397777"/>
            </g>
            <g transform="translate(16.238)">
              <path d="M.159961758 2.00983362L.977993984 2.9721726.08066 3.98381138M.0793017578 4.0101805L.897333984 4.97268491 0 5.98415826M.240621758 0L1.05865398.962338976.16132 1.97397777"/>
            </g>
          </g>
        </g>
      </g>
    </g>
    <g fill-rule="nonzero" stroke-linecap="round" stroke-linejoin="round" transform="translate(79 74)">
      <g stroke="#222F3C" stroke-width=".5" transform="translate(49.465 30.496)">
        <g transform="translate(46.78 10.242)">
          <g transform="translate(0 7.057)">
            <line x1="26.665" x2="26.802" y1="5.863" y2="8.867"/>
            <g transform="translate(0 12.477)">
              <g transform="translate(14.352 1.394)">
                <line y2="4.958"/>
                <line x1="22.021" x2="21.884" y2="4.958"/>
              </g>
              <rect width="5.819" height="6.449" x="23.783" rx="1"/>
              <line y2="4.958" transform="translate(0 1.394)"/>
            </g>
            <g transform="translate(5.033)">
              <path d="M0,11.7816316 L11.1859642,11.7816316 L21.5717893,0 L3.09500319,0 L1.41481103,1.99121938"/>
              <line x1="21.668" x2="32.053" y1=".017" y2="11.798"/>
            </g>
          </g>
          <g transform="translate(16.441)">
            <line x1="24.832" x2="24.832" y1="5.862" y2="8.866"/>
            <g transform="translate(21.95 12.33)">
              <line y2="4.958" transform="translate(12.453 1.408)"/>
              <rect width="5.819" height="6.449" rx="1"/>
            </g>
            <path d="M14.3855215,11.7814648 L24.7713466,0 L6.29456054,0 L0,7.01281637"/>
            <line x1="24.868" x2="35.253" y1=".016" y2="11.797"/>
          </g>
        </g>
        <g transform="translate(0 3.15)">
          <g transform="translate(14.608 7.058)">
            <line x1="10.557" x2="10.42" y1="5.862" y2="8.866"/>
            <g transform="translate(.85 12.33)">
              <g transform="translate(0 1.54)">
                <line x1="22.021" x2="21.884" y2="4.958"/>
                <line x1=".136" y2="4.958"/>
              </g>
              <path d="M7.63384348,6.78061387e-07 L11.4529033,6.78061387e-07 C12.005188,6.78061387e-07 12.4529033,0.447715928 12.4529033,1.00000068 L12.4529033,5.44868825 C12.4529033,6.000973 12.005188,6.44868825 11.4529033,6.44868825 L7.63384348,6.44868825 C7.08155873,6.44868825 6.63384348,6.000973 6.63384348,5.44868825 L6.63384348,1.00000068 C6.63384348,0.447715928 7.08155873,6.78061387e-07 7.63384348,6.78061387e-07 Z" transform="rotate(-180 9.543 3.224)"/>
            </g>
            <path d="M33.6391464,11.7816316 L20.867555,11.7816316 L10.4817299,0 L28.958516,0 L33.6028522,5.48194341"/>
            <line x1="10.386" y1=".016" y2="11.797"/>
          </g>
          <line x1="10.557" x2="10.42" y1="5.863" y2="8.866"/>
          <path d="M0.99999977,2.06723527e-07 L4.8190598,2.06723527e-07 C5.37134455,2.06723527e-07 5.8190598,0.447715457 5.8190598,1.00000021 L5.8190598,5.44868825 C5.8190598,6.000973 5.37134455,6.44868825 4.8190598,6.44868825 L0.99999977,6.44868825 C0.44771502,6.44868825 -2.30468931e-07,6.000973 -2.30468931e-07,5.44868825 L-2.30468931e-07,1.00000021 C-2.30468931e-07,0.447715457 0.44771502,2.06723527e-07 0.99999977,2.06723527e-07 Z" transform="rotate(-180 6.651 9.426)"/>
          <path d="M20.8674698,11.7816316 L10.4816447,0 L28.9584308,0 L35.2526583,7.01298322"/>
          <line x1="10.386" y1=".016" y2="11.798"/>
        </g>
        <g transform="translate(51.088)">
          <path d="M17.1239084,0 L4.61703219,0 L0,4.81419916" transform="translate(0 7.058)"/>
          <g transform="translate(12.93)">
            <path d="M19.5246586,5.61392385 L24.7710137,0 L6.29456054,0 L0,7.01281637"/>
            <line x1="24.867" x2="35.253" y1=".016" y2="11.798"/>
          </g>
        </g>
      </g>
      <g stroke="#222F3C" stroke-width=".5" transform="translate(5.057 59.518)">
        <line x2="133.275" y1="7.365" y2="7.229"/>
        <line x1="134.12" x2="160.851"/>
      </g>
      <g stroke="#222F3C" stroke-width=".5" transform="translate(32 45.464)">
        <g transform="translate(11.58)">
          <path d="M0.0123200772,3.90234949 C0.139183575,1.72775906 2.01316722,0 4.31236001,0 C6.61321767,0 8.48720131,1.72775906 8.61406481,3.90234949 C10.4470925,4.37804636 11.7986383,5.97999854 11.7986383,7.8881253 C11.7986383,9.79625207 10.4497563,11.3968694 8.61806051,11.8739011 C8.61972539,11.9244575 8.62638489,11.9723442 8.62638489,12.0229005 C8.62638489,14.3069463 6.69512954,16.1576757 4.31236001,16.1576757 C1.93125535,16.1576757 0,14.3069463 0,12.0229005 C0,11.9723442 0.00665950121,11.9244575 0.00799140145,11.8739011"/>
          <line x1="4.263" x2=".886" y1="9.06" y2="6.006"/>
          <line x1="4.5" x2="7.396" y1="10.851" y2="7.037"/>
          <line x1="4.54" x2="4.404" y1="6.725" y2="21.189"/>
        </g>
        <g transform="translate(0 4.787)">
          <path d="M11.5176073,7.06804459 C11.1783058,8.10286465 10.3149014,8.91476958 9.20875827,9.2004213 C9.21009017,9.23863055 9.21541777,9.27700666 9.21541777,9.31521592 C9.21541777,11.0853555 7.70704075,12.5191203 5.84670909,12.5191203 C3.98504552,12.5191203 2.4780004,11.0853555 2.4780004,9.31521592 C2.4780004,9.27700666 2.4819961,9.23863055 2.48366098,9.2004213 C1.05286714,8.83000844 0,7.59029335 0,6.11264639 C0,4.6336646 1.05419904,3.39261468 2.48765668,3.02353665 C2.58588432,1.33815816 4.04930971,0 5.84670909,0 C7.06739566,0 8.12459147,0.624696276 8.71362436,1.55006101"/>
          <line x1="5.811" x2="3.169" y1="7.301" y2="4.653"/>
          <line x1="5.992" x2="8.254" y1="8.407" y2="5.452"/>
          <line x1="6.054" x2="5.917" y1="5.211" y2="16.417"/>
        </g>
      </g>
      <path stroke="#222F3C" stroke-width=".5" d="M6.5,0 C4.95766567,0.162681322 4.85644126,1.72909389 4.85377746,1.79466697 L4.8158183,2.51363499 L4.2484288,2.07481255 C2.40441291,0.646553971 0.0229752792,1.2397151 0,1.24522124" transform="translate(80.26 23.935)"/>
      <g stroke="#222F3C" stroke-width=".4" transform="translate(66.248 73.776)">
        <g transform="translate(14.627)">
          <g transform="translate(2.945)">
            <g transform="translate(0 1.699)">
              <path d="M8.4665572,11.657827 L4.44987904,11.657827 C4.42124319,11.657827 4.39427221,11.6469815 4.37229585,11.6291283 L1.83269507,9.52561709 C1.80405921,9.50225772 1.78774343,9.46821978 1.78774343,9.4311785 L1.78774343,7.11993576 C1.78774343,7.10341735 1.79173913,7.08840061 1.79739971,7.07338387 L2.48732404,5.40852825 L2.46301686,1.99822719 L0.122535156,1.99822719 C0.0732548476,1.99822719 0.0283032144,1.96819372 0.00932363596,1.9231435 C-0.00965594249,1.87659162 0.000999259445,1.82470045 0.0352956907,1.78916084 L0.699247961,1.12341881 C0.712899939,1.11123857 0.729548692,1.10022629 0.74586447,1.09472016 L1.20137435,0.937544972 L2.16433823,0.0340379381 C2.18731351,0.0121802426 2.21728126,0 2.24724902,0 L4.44854714,0 C4.51547513,0 4.57141494,0.0560624863 4.57141494,0.122970394 L4.57141494,6.47888793 L5.88633345,6.47888793 C7.40703055,6.47888793 8.9030875,6.73584099 10.3352132,7.24424098 L11.9281659,7.81020512 C11.9771133,7.82655668 12.0087459,7.87310857 12.0087459,7.92499974 L12.0087459,8.57422335 C12.0087459,8.61243261 11.9907652,8.64947389 11.9607975,8.67266641 L10.204354,9.99163651 L8.55246476,11.6222873 C8.52948948,11.644145 8.49785685,11.657827 8.4665572,11.657827 Z M4.57141494,7.44930287 L4.57141494,8.22016205"/>
              <line y2="2.29" transform="translate(7.488 11.677)"/>
              <path d="M0,1.72992815 L1.51470355,0.691604184 L1.51470355,0" transform="translate(5.003 12.302)"/>
              <path d="M0,0 L1.50271645,1.58443265 L4.83879358,1.58443265" transform="translate(4.604 8.244)"/>
              <g transform="translate(.923 2.536)">
                <line x1="1.525"/>
              </g>
            </g>
            <path d="M0,1.68671332 L0,0.121635573 C0,0.0547276652 0.0559398101,0 0.122867797,0 L0.694253001,0 C0.726884557,0 0.758517188,0.0123470952 0.780160567,0.0355396118 L1.21802277,0.474362049 L1.55066486,0.474362049 C1.58362939,0.474362049 1.61492904,0.486542292 1.6382373,0.509901661 L2.00783961,0.881649338 C2.03081489,0.903507034 2.04446687,0.93487533 2.04446687,0.967745299 L2.04446687,1.68671332" transform="translate(2.373)"/>
            <path d="M1.09150327,2.02842752 L0.131268103,2.02842752 C0.0589807367,2.02842752 0,1.97236503 0,1.90545712 L0,1.10039315 C0,1.08671123 0.00287710911,1.07169449 0.00755241141,1.0593474 L0.431566366,0" transform="translate(1.45 4.252)"/>
          </g>
          <line x2="36.53" transform="translate(0 15.746)"/>
          <line y1="1.134" transform="translate(2.855 14.532)"/>
          <line y2=".776" transform="translate(3.726 15.182)"/>
          <line y1="1.667" transform="translate(4.587 14)"/>
          <line y1=".89" transform="translate(12.39 15.187)"/>
          <line y1="1.094" transform="translate(13.23 14.62)"/>
        </g>
        <g transform="translate(0 12.165)">
          <g transform="translate(2.864)">
            <g transform="translate(0 1.704)">
              <path d="M3.37703306,11.6443119 L1.76210402,10.0094897 L0.0476154336,8.68785 C0.0176476782,8.66449063 0,8.62895102 0,8.59074176 L0,7.94018333 C0,7.8881253 0.0312996557,7.84174027 0.0792480644,7.82388704 L1.63524052,7.25808974 C3.03306983,6.74818808 4.49516332,6.4899002 5.97923316,6.4899002 L7.26385094,6.4899002 L7.26518284,0.121635573 C7.26518284,0.0547276652 7.31845885,0 7.38405494,0 L9.53340895,0 C9.56337671,0 9.59334447,0.0110122741 9.61532082,0.0328699696 L10.5549764,0.937711824 L10.9994981,1.09622183 C11.0171458,1.10172797 11.0324627,1.11257339 11.0457817,1.12492048 L11.6937511,1.79199733 C11.7277146,1.82753694 11.7387028,1.87942811 11.7197232,1.92598 C11.7020755,1.97103021 11.6584558,2.00106369 11.6091755,2.00106369 L9.32330169,2.00106369 L9.30032641,5.41687089 L9.97393496,7.08589782 C9.97926256,7.10091456 9.98225934,7.11726612 9.98225934,7.13228286 L9.98225934,9.44903173 C9.98225934,9.48457134 9.96727546,9.52011095 9.9399715,9.54347032 L7.45897433,11.6511528 C7.43699797,11.6688392 7.41135889,11.6785167 7.38272304,11.6785167 L3.46027683,11.6785167 C3.4286442,11.6785167 3.39867644,11.6661696 3.37703306,11.6443119 Z M7.26385094,8.23534564 L7.26385094,7.46315164"/>
              <line x1=".218" y2="2.295" transform="translate(4.416 11.699)"/>
              <path d="M1.47940819,1.7332652 L0,0.692772152 L0,0" transform="translate(5.364 12.324)"/>
              <path d="M4.72591503,0 L3.25816097,1.58760285 L0,1.58760285" transform="translate(2.507 8.259)"/>
              <g transform="translate(9.338 2.54)">
                <line x2="1.49" y2=".219"/>
              </g>
            </g>
            <path d="M1.99518656,1.69071778 L1.99518656,0.122970394 C1.99518656,0.0560624863 1.94224353,0 1.87664744,0 L1.31891421,0 C1.28594968,0 1.25598193,0.0136819163 1.23433855,0.036874433 L0.807464522,0.47569687 L0.481481937,0.47569687 C0.450182282,0.47569687 0.418549651,0.489378787 0.396906272,0.511236482 L0.0352953564,0.882984159 C0.0123200772,0.906176676 0,0.937544972 0,0.970414941 L0,1.69071778" transform="translate(7.415)"/>
            <path d="M0,2.03126401 L0.960493435,2.03126401 C1.03262244,2.03126401 1.09150327,1.97653635 1.09150327,1.90962844 L1.09150327,1.10172797 C1.09150327,1.08804605 1.08855923,1.07436413 1.08377516,1.06068222 L0.660201235,0" transform="translate(9.326 4.262)"/>
          </g>
          <line x1="17.47" y1=".219" transform="translate(0 15.778)"/>
          <line x1=".218" y2=".778" transform="translate(13.83 15.213)"/>
          <line x2=".218" y1="1.67" transform="translate(12.99 14.028)"/>
          <line x2=".218" y1=".891" transform="translate(5.368 15.219)"/>
          <line x2=".218" y1="1.094" transform="translate(4.548 14.65)"/>
        </g>
      </g>
      <path stroke="#222F3C" stroke-width=".5" d="M6.50133805,0 C4.95899757,0.162681322 4.85810613,1.72909389 4.85510936,1.79466697 L4.8171502,2.51363499 L4.2484288,2.0749794 C2.40441291,0.646553971 0.0243071794,1.2397151 0,1.24522124" transform="translate(73.57 18.919)"/>
      <g stroke="#231F20" stroke-width=".4" transform="translate(0 53.157)">
        <path d="M0,5.0286048 C0,2.25534711 2.25057843,0 5.01760119,0 C7.78362501,0 10.0338705,2.25534711 10.0338705,5.0286048 C10.0338705,7.80069452 7.78362501,10.0558748 5.01760119,10.0558748 C2.25057843,10.0558748 0,7.80069452 0,5.0286048 Z" transform="translate(14.958 3.532)"/>
        <path d="M0,3.82442931 C0,1.71541197 1.71182479,0 3.81622717,0 C5.91929765,0 7.63078946,1.71541197 7.63078946,3.82442931 C7.63078946,5.93211183 5.91929765,7.6475238 3.81622717,7.6475238 C1.71182479,7.6475238 0,5.93211183 0,3.82442931 Z" transform="translate(1.278 5.94)"/>
        <path d="M3.03173793,0 C1.35987015,0 0,1.36285235 0,3.03855339 C0,4.71442128 1.35987015,6.07710677 3.03173793,6.07710677 C4.70260678,6.07710677 6.06380883,4.71442128 6.06380883,3.03855339 C6.06380883,2.45623768 5.8986532,1.89044039 5.58632259,1.40239642" transform="translate(16.943 5.522)"/>
        <path d="M0,1.83971718 C0,0.825586852 0.823780299,0 1.83569151,0 C2.84627082,0 3.67005112,0.825586852 3.67005112,1.83971718 C3.67005112,2.85401437 2.84627082,3.6782664 1.83569151,3.6782664 C0.823780299,3.6782664 0,2.85401437 0,1.83971718 Z" transform="translate(3.258 7.925)"/>
        <line x2="6.759" y2=".219" transform="translate(8.748 10.864)"/>
        <line x2="2.288" y1=".219" transform="translate(8.865 9.163)"/>
        <path d="M11.1416785,4.99456686 C11.2395732,4.99456686 11.3201531,4.91531186 11.3201531,4.81553398 L11.3201531,0.180534554 C11.3201531,0.0807566767 11.2395732,0 11.1416785,0 L1.09382307,0 C0.491138214,0 0,0.492048429 0,1.09622183 L0,4.67871482 C0,5.28288822 0.491138214,5.77493665 1.09382307,5.77493665 L1.29294216,5.77493665" transform="translate(0 4.169)"/>
        <path d="M0.196455286,8.17377702 L1.14143851,8.17377702 C1.74445634,8.17377702 2.23526158,7.68172859 2.23526158,7.07622037 L2.23526158,1.09622183 C2.23526158,0.490713608 1.74445634,0 1.14143851,0 L0,0" transform="translate(24.813 1.025)"/>
        <path d="M4.74356271,0 L1.02156749,0 C0.571385204,0 0.160826954,0.438586764 0,1.09375" transform="translate(17.58 1.025)"/>
        <path d="M0,2.04494593 L0,0.154505543 C0,0.0697444026 0.0805799646,0 0.180139508,0 L1.54933296,0 C1.6488925,0 1.72947246,0.0697444026 1.72947246,0.154505543 L1.72947246,2.04494593 C1.72947246,2.12954022 1.6488925,2.19928462 1.54933296,2.19928462 L0.180139508,2.19928462 C0.0805799646,2.19928462 0,2.12954022 0,2.04494593 Z" transform="translate(5.867 1.97)"/>
        <line x2=".218" y1="1.967" transform="translate(6.912)"/>
        <line x1=".218" y2="2" transform="translate(3.663 2.15)"/>
        <line x1="1.092" y2="1.094" transform="translate(11.31 3.31)"/>
        <line x2="2.039" y2="2.043" transform="translate(11.27 2.422)"/>
        <path d="M3.52853672,0 L1.87131984,4.35602181 L0,4.35602181" transform="translate(14.555 .305)"/>
        <line x2=".218" y1="1.393" transform="translate(10.294 5.458)"/>
        <line x2=".218" y1="1.393" transform="translate(9.48 5.458)"/>
        <line x2=".218" y1="1.393" transform="translate(8.666 5.458)"/>
      </g>
      <path stroke="#222F3C" stroke-width=".5" d="M6.50167103,0 C4.95899757,0.162681322 4.85810613,1.72909389 4.85411043,1.79600179 L4.8158183,2.51363499 L4.2484288,2.07481255 C2.40441291,0.647888793 0.0246401545,1.2397151 0,1.24522124" transform="translate(30.16 42.438)"/>
      <g stroke="#222F3C" stroke-width=".4" transform="translate(100.58 79.65)">
        <path d="M0,0.676587446 L2.07177083,0 L3.74030885,1.7202507" transform="translate(0 2.395)"/>
        <path d="M3.76290587,4.11975848 L16.9800179,0 L16.7712426,4.61864787 C16.6443791,4.63917074 16.5178485,4.6650329 16.390985,4.70607865 C15.216582,5.079328 14.4883655,6.19874235 14.5536287,7.375554 L6.59552471,9.90971186 L3.76290587,4.11975848 Z"/>
        <path d="M14.6713114,8.0346084 C15.1131693,9.42882904 16.59957,10.201023 17.9920717,9.75819615 C19.3832415,9.31386757 20.1537458,7.82404037 19.7118879,6.42981973 C19.309654,5.16140597 18.0440158,4.41106966 16.7713851,4.6188012 C16.6445216,4.63932407 16.5179911,4.66518623 16.3911276,4.70623198 C15.2167246,5.07948133 14.4885081,6.19889568 14.5537712,7.37570733 C14.5660913,7.59445114 14.6017196,7.81586459 14.6713114,8.0346084 Z M15.7744578,7.68321674 C15.7022022,7.45646401 15.6885502,7.22403828 15.7228467,7.00395965 C15.8057575,6.47086548 16.1740279,6.00334438 16.7171102,5.82030704 L16.7414174,5.81062959 C17.5242417,5.5618523 18.3603421,5.99516861 18.6087415,6.78121138 C18.8581398,7.56575248 18.4246063,8.40368643 17.6417819,8.65246371 C16.8589576,8.90107415 16.0228572,8.4679247 15.7744578,7.68321674 Z"/>
        <path d="M15.7228534,7.00432273 C15.8057642,6.47122855 16.1740346,6.00370746 16.7171169,5.82067012 L16.7414241,5.81099267 C17.5242484,5.56221538 18.3603488,5.99553168 18.6087482,6.78157446 C18.8581465,7.56611556 18.424613,8.40404951 17.6417886,8.65282679 C16.8589643,8.90143722 16.0228639,8.46828778 15.7744645,7.68357982 C15.7022089,7.45682708 15.6885569,7.22440136 15.7228534,7.00432273 Z"/>
        <line x1="12.436" y2="3.857" transform="translate(4.407 1.478)"/>
      </g>
      <g stroke="#222F3C" stroke-width=".5" transform="translate(35.46)">
        <path d="M16.51523,11.7208972 L1.49072935,11.7208972 C0.961631974,11.7208972 0,10.9732306 0,9.78674147 C0,8.59891754 0.961631974,7.85258569 2.14535831,7.85258569 L3.0427261,7.85258569 C2.82595934,7.85258569 2.70042774,6.83578572 2.70042774,6.28617313 C2.70042774,4.26875789 4.33167256,2.62025382 6.34483978,2.62025382 C7.30081117,2.62025382 8.16821121,2.9853274 8.81884448,3.5895008 C9.46947774,2.44672708 10.6954919,1.67169658 12.1029775,1.67169658 C12.7113229,1.67169658 13.2827081,1.81669152 13.791494,2.07214291 C14.7148339,0.817411073 16.1959069,0 17.8694396,0 C20.6694269,0 22.9389849,2.30189899 22.9389849,5.10669183 C22.9389849,6.10847507 22.6456339,7.36871304 22.1478361,7.85258569" transform="translate(0 7.08)"/>
        <path d="M13.5602827,8.80638979 C13.0568245,5.32901397 15.2744384,0.873047424 19.6866909,0.110364016 C23.7742927,-0.594922083 27.6597787,2.15380827 28.363688,6.25037423 C29.1218722,10.6639602 25.6918961,14.2588003 22.2369469,14.9462332"/>
        <path d="M15.5399461,1.20284067 C15.5399461,2.75156685 14.286295,4.01731096 12.7412907,4.01731096 C12.0074137,4.01731096 11.3404646,3.73566371 10.841335,3.27231393 C10.3422054,4.14979195 9.40088488,4.74578958 8.31938188,4.74578958 C7.85288382,4.74578958 7.4140227,4.6336646 7.02244402,4.43828017 C6.31453905,5.40051933 5.17709624,6.02922007 3.89247846,6.02922007 C1.74279147,6.02922007 0,4.26191693 0,2.10768252 C0,1.33949298 0.225091141,0.370412856 0.608345435,0" transform="translate(16.501 16.156)"/>
        <path d="M30.6310631,7.19376738 C33.476335,7.19376738 35.7825202,9.5065118 35.7825202,12.3578565 C35.7825202,15.2090344 33.476335,17.5217788 30.6310631,17.5217788"/>
      </g>
      <path stroke="#222F3C" stroke-width=".5" d="M6.50033913,0 C4.95766567,0.162681322 4.85677423,1.72909389 4.85411043,1.79466697 L4.8158183,2.51363499 L4.2470969,2.0749794 C2.40308101,0.646553971 0.0233082542,1.2397151 0,1.24522124" transform="translate(18.086 37.835)"/>
    </g>
    <rect width="435" height="218" stroke="#979797"/>
  </g>
</svg>
