<svg xmlns="http://www.w3.org/2000/svg" width="399" height="200" viewBox="0 0 399 200">
  <g fill="none" fill-rule="evenodd" transform="translate(3 65)">
    <g stroke="#222F3C" stroke-linecap="round" stroke-linejoin="round">
      <g stroke-width=".5" transform="translate(35 17)">
        <g transform="translate(0 13)">
          <g transform="translate(14 7)">
            <line x1="11.3" x2="11.3" y1="6.4" y2="9.4"/>
            <g transform="translate(1 13)">
              <g transform="translate(0 1)">
                <line x1="22.6" x2="22.6" y1=".4" y2="5.4"/>
                <line x1=".7" x2=".7" y1=".4" y2="5.4"/>
              </g>
              <path d="M8.4,6.4 L12.2,6.4 C12.8,6.4 13.2,6 13.2,5.4 L13.2,1 C13.2,0.4 12.8,0 12.2,0 L8.4,0 C7.8,0 7.4,0.4 7.4,1 L7.4,5.4 C7.4,6 7.8,6.4 8.4,6.4 Z"/>
              <line x1="36.9" x2="36.9" y1="1.4" y2="6.4"/>
            </g>
            <polyline points="35.8 12.3 21.7 12.3 11.3 .6 29.8 .6 40.1 12.3"/>
            <line x1="11.2" x2=".9" y1=".6" y2="12.4"/>
          </g>
          <line x1="10.7" x2="10.7" y1="6.4" y2="9.4"/>
          <g transform="translate(0 12)">
            <line x1="1.2" x2="1.2" y1="2.3" y2="7.2"/>
            <path d="M8.8,7.3 L12.6,7.3 C13.2,7.3 13.6,6.9 13.6,6.3 L13.6,1.9 C13.6,1.3 13.2,0.9 12.6,0.9 L8.8,0.9 C8.2,0.9 7.8,1.3 7.8,1.9 L7.8,6.3 C7.8,6.8 8.2,7.3 8.8,7.3 Z"/>
          </g>
          <polyline points="21.1 12.3 10.8 .6 29.2 .6 35.5 7.6"/>
          <line x1="10.7" x2=".3" y1=".6" y2="12.3"/>
        </g>
        <g transform="translate(29 7)">
          <g transform="translate(14 7)">
            <line x1="6.2" x2="6.2" y1="6.2" y2="9.2"/>
            <g transform="translate(6 12)">
              <line x1="12.5" x2="12.5" y1="2.2" y2="7.1"/>
              <path d="M3.1,3.9 L3.1,1.2 C3.1,0.9 2.8,0.6 2.5,0.6 L0.1,0.6"/>
            </g>
            <polyline points="26.2 12.1 16.7 12.1 6.3 .3 24.7 .3 30.6 7"/>
            <line x1="6.2" x2=".8" y1=".4" y2="6.6"/>
          </g>
          <line x1="5.7" x2="5.7" y1="6.2" y2="9.1"/>
          <path d="M8.5,13.6 L8.5,13.2 C8.5,12.9 8.2,12.6 7.9,12.6 L5.6,12.6"/>
          <polyline points="16.1 12.1 5.7 .3 24.2 .3 30.4 7.3"/>
          <line x1="5.6" x2=".1" y1=".3" y2="6.6"/>
        </g>
        <g transform="translate(63 7)">
          <g transform="translate(0 13)">
            <line x1="29.5" x2="29.5" y1="6.4" y2="9.4"/>
            <g transform="translate(2 12)">
              <g transform="translate(14 2)">
                <line x1="1.2" x2="1.2" y1=".4" y2="5.4"/>
                <line x1="23.1" x2="23.1" y1=".4" y2="5.4"/>
              </g>
              <path d="M29.4,7.3 L25.6,7.3 C25,7.3 24.6,6.9 24.6,6.3 L24.6,1.9 C24.6,1.3 25,0.9 25.6,0.9 L29.4,0.9 C30,0.9 30.4,1.3 30.4,1.9 L30.4,6.3 C30.4,6.9 30,7.3 29.4,7.3 Z"/>
              <line x1=".9" x2=".9" y1="2.4" y2="7.4"/>
            </g>
            <polyline points="5 12.3 19.1 12.3 29.4 .6 11 .6 .6 12.3"/>
            <line x1="29.5" x2="39.9" y1=".6" y2="12.4"/>
          </g>
          <g transform="translate(19)">
            <line x1="25.1" x2="25.1" y1="12.4" y2="15.4"/>
            <g transform="translate(22 18)">
              <line x1="12.6" x2="12.6" y1="2.4" y2="7.3"/>
              <path d="M5,7.3 L1.2,7.3 C0.6,7.3 0.2,6.9 0.2,6.3 L0.2,1.9 C0.2,1.3 0.6,0.9 1.2,0.9 L5,0.9 C5.6,0.9 6,1.3 6,1.9 L6,6.3 C6,6.9 5.6,7.3 5,7.3 Z"/>
            </g>
            <g transform="translate(0 6)">
              <polyline points="14.7 12.3 25 .6 6.6 .6 .3 7.6"/>
              <line x1="25.1" x2="35.5" y1=".6" y2="12.3"/>
            </g>
            <g transform="translate(6)">
              <polyline points="16.9 6.5 21.9 .9 3.5 .9 .1 4.8"/>
              <line x1="22" x2="32.4" y1=".9" y2="12.7"/>
            </g>
            <line x1="37.5" x2="37.5" y1="14.7" y2="19.8"/>
          </g>
          <line x1="47" x2="47" y1="6.8" y2="9.8"/>
        </g>
        <g transform="translate(23 1)">
          <polyline points="31.4 7.7 43.9 7.7 54.2 19.5"/>
          <polyline points="16.1 6.3 10.9 .7 29.3 .7 35.6 7.7"/>
          <line x1="10.8" x2=".4" y1=".7" y2="12.5"/>
        </g>
        <polyline points="53.7 .1 66.1 .1 72.9 7.6"/>
        <polyline points="68.6 10.6 87 10.6 89.4 13.6"/>
        <g transform="translate(70 1)">
          <polyline points="17 6.5 22.2 .9 3.8 .9 .8 4.1"/>
          <line x1="22.3" x2="25.1" y1=".9" y2="3.9"/>
        </g>
      </g>
      <g stroke-width=".5" transform="translate(0 48)">
        <line x1="165" x2="44.9" y1="8.5" y2="8.5"/>
        <line x1="44" y1="1.3" y2="1.3"/>
      </g>
      <g stroke-width=".5" transform="translate(148)">
        <path d="M6.8,19.7 L21.8,19.7 C22.3,19.7 23.3,19 23.3,17.8 C23.3,16.6 22.3,15.9 21.2,15.9 L20.3,15.9 C20.5,15.9 20.6,14.9 20.6,14.3 C20.6,12.3 19,10.7 17,10.7 C16,10.7 15.2,11.1 14.5,11.7 C13.8,10.6 12.6,9.8 11.2,9.8 C10.6,9.8 10,9.9 9.5,10.2 C8.6,9 7.1,8.1 5.4,8.1 C2.6,8.1 0.3,10.4 0.3,13.2 C0.3,14.2 0.6,15.5 1.1,15.9"/>
        <path d="M11.7,9.7 C11.2,6.2 13.4,1.8 17.8,1 C21.9,0.3 25.8,3 26.5,7.1 C27.3,11.5 23.8,15.1 20.4,15.8"/>
      </g>
      <g stroke-width=".5" transform="translate(2 27)">
        <g transform="translate(11)">
          <path d="M0.8,4.8 C0.9,2.6 2.8,0.9 5.1,0.9 C7.4,0.9 9.3,2.6 9.4,4.8 C11.2,5.3 12.6,6.9 12.6,8.8 C12.6,10.7 11.2,12.3 9.4,12.8 C9.4,12.9 9.4,12.9 9.4,12.9 C9.4,15.2 7.5,17.1 5.1,17.1 C2.7,17.1 0.8,15.2 0.8,12.9 C0.8,12.8 0.8,12.8 0.8,12.8"/>
          <line x1="5" x2="1.6" y1="10" y2="6.9"/>
          <line x1="5.3" x2="8.2" y1="11.8" y2="8"/>
          <line x1="5.2" x2="5.2" y1="7.7" y2="22.2"/>
        </g>
        <g transform="translate(0 5)">
          <path d="M11.7,7.8 C11.4,8.8 10.5,9.7 9.4,9.9 C9.4,9.9 9.4,10 9.4,10 C9.4,11.8 7.9,13.2 6,13.2 C4.1,13.2 2.6,11.8 2.6,10 C2.6,10 2.6,9.9 2.6,9.9 C1.2,9.5 0.1,8.3 0.1,6.8 C0.1,5.3 1.2,4.1 2.6,3.7 C2.7,2 4.2,0.7 6,0.7 C7.2,0.7 8.3,1.3 8.9,2.3"/>
          <line x1="5.9" x2="3.3" y1="8.1" y2="5.4"/>
          <line x1="6.1" x2="8.4" y1="9.2" y2="6.2"/>
          <line x1="6.1" x2="6.1" y1="6" y2="17.2"/>
        </g>
      </g>
      <path stroke-width=".5" d="M37.1 15.2C35.6 15.4 35.5 16.9 35.5 17L35.5 17.7 34.9 17.3C33.1 15.9 30.7 16.5 30.7 16.5M32 23.6C30.5 23.8 30.4 25.3 30.4 25.4L30.4 26.1 29.8 25.7C28 24.3 25.6 24.9 25.6 24.9"/>
      <g stroke-width=".4" transform="translate(9 53)">
        <g transform="translate(6)">
          <g transform="translate(0 2)">
            <path d="M8.7,12.2 L4.7,12.2 C4.7,12.2 4.6,12.2 4.6,12.2 L2.1,10.1 C2.1,10.1 2.1,10 2.1,10 L2.1,7.7 C2.1,7.7 2.1,7.7 2.1,7.7 L2.8,6 L2.8,2.6 L0.5,2.6 C0.5,2.6 0.4,2.6 0.4,2.5 C0.4,2.5 0.4,2.4 0.4,2.4 L1.1,1.7 C1.1,1.7 1.1,1.7 1.1,1.7 L1.6,1.5 L2.6,0.6 C2.6,0.6 2.7,0.6 2.7,0.6 L4.9,0.6 C5,0.6 5,0.7 5,0.7 L5,7 L6.3,7 C7.8,7 9.3,7.3 10.7,7.8 L12.3,8.4 C12.3,8.4 12.4,8.5 12.4,8.5 L12.4,9.1 C12.4,9.1 12.4,9.2 12.4,9.2 L10.6,10.5 L8.7,12.2 C8.7,12.2 8.7,12.2 8.7,12.2 Z M4.8,8 L4.8,8.8"/>
            <line x1="7.7" x2="7.7" y1="12.2" y2="14.5"/>
            <polyline points="5.2 14.5 6.7 13.5 6.7 12.8"/>
            <polyline points="4.8 8.8 6.3 10.4 9.6 10.4"/>
            <line x1="2.6" x2="1.1" y1="3.1" y2="3.1"/>
          </g>
          <path d="M2.6 2.6L2.6 1C2.6.9 2.7.9 2.7.9L3.3.9C3.3.9 3.4.9 3.4.9L3.8 1.3 4.1 1.3C4.1 1.3 4.2 1.3 4.2 1.3L4.6 1.7C4.6 1.7 4.6 1.8 4.6 1.8L4.6 2.5M2.7 7.1L1.8 7.1C1.7 7.1 1.7 7 1.7 7L1.7 6.2C1.7 6.2 1.7 6.2 1.7 6.2L2.1 5.1"/>
        </g>
        <line x1=".8" x2="21.1" y1="16.6" y2="16.6"/>
        <line x1="6.1" x2="6.1" y1="16.5" y2="15.4"/>
        <line x1="7" x2="7" y1="16" y2="16.5"/>
        <line x1="7.8" x2="7.8" y1="16.5" y2="14.8"/>
        <line x1="15.6" x2="15.6" y1="16.6" y2="16"/>
        <line x1="16.5" x2="16.5" y1="16.5" y2="15.4"/>
      </g>
      <g stroke-width=".4" transform="translate(25 58)">
        <g transform="translate(3)">
          <g transform="translate(0 1)">
            <path d="M4,12.3 L2.4,10.7 L0.6,9.4 C0.6,9.4 0.6,9.3 0.6,9.3 L0.6,8.7 C0.6,8.6 0.6,8.6 0.7,8.6 L2.3,8 C3.7,7.5 5.2,7.2 6.7,7.2 L8,7.2 L8,0.9 C8,0.8 8.1,0.8 8.1,0.8 L10.3,0.8 C10.3,0.8 10.4,0.8 10.4,0.8 L11.4,1.7 L11.9,1.9 C11.9,1.9 11.9,1.9 11.9,1.9 L12.6,2.6 C12.6,2.6 12.6,2.7 12.6,2.7 C12.6,2.7 12.5,2.8 12.5,2.8 L10.2,2.8 L10.2,6.2 L10.9,7.9 C10.9,7.9 10.9,7.9 10.9,7.9 L10.9,10.2 C10.9,10.2 10.9,10.3 10.9,10.3 L8.4,12.4 C8.4,12.4 8.4,12.4 8.3,12.4 L4,12.3 C4.1,12.4 4.1,12.4 4,12.3 Z M8,9 L8,8.2"/>
            <line x1="5.1" x2="5.1" y1="12.4" y2="14.7"/>
            <polyline points="7.6 14.7 6.1 13.7 6.1 13"/>
            <polyline points="8 9 6.5 10.6 3.2 10.6"/>
            <line x1="10.1" x2="11.7" y1="3.3" y2="3.3"/>
          </g>
          <path d="M10.2 1.8L10.2.2C10.2.1 10.1.1 10.1.1L9.5.1C9.5.1 9.4.1 9.4.1L9 .5 8.7.5C8.7.5 8.6.5 8.6.5L8.2.9C8.2.9 8.2 1 8.2 1L8.2 1.7M10.1 6.3L11 6.3C11.1 6.3 11.1 6.2 11.1 6.2L11.1 5.4C11.1 5.4 11.1 5.4 11.1 5.4L10.7 4.3"/>
        </g>
        <line x1="18.5" x2=".7" y1="15.8" y2="15.8"/>
        <line x1="15.7" x2="15.7" y1="15.7" y2="14.5"/>
        <line x1="14.8" x2="14.8" y1="15.2" y2="15.7"/>
        <line x1="13.9" x2="13.9" y1="15.7" y2="14"/>
        <line x1="6.2" x2="6.2" y1="15.8" y2="15.2"/>
        <line x1="5.3" x2="5.3" y1="15.7" y2="14.6"/>
      </g>
    </g>
    <g transform="translate(167 27)">
      <g fill="#333838" fill-rule="nonzero" transform="translate(46)">
        <path d="M1.3 2.2C2 2.1 2.8 2 3.2 1.8 3.3 1.8 3.5 1.7 3.5 1.7 3.5 1.7 3.6 1.7 3.6 1.8 3.6 2 3.6 3.3 3.6 4.3 3.6 5.6 3.6 8.7 3.6 9.3 3.6 10.2 3.7 10.3 4.3 10.4 4.5 10.4 4.5 10.5 4.5 10.5 4.5 10.6 4.4 10.6 4.2 10.6 3.4 10.6 3 10.5 2.4 10.5 1.7 10.5 1.4 10.6.9 10.6.8 10.6.6 10.6.6 10.5.6 10.4.7 10.4.8 10.4 1.5 10.3 1.6 10.1 1.7 9.3 1.7 8.8 1.8 8 1.8 5.5 1.8 3.7 1.8 3.2 1.8 2.8 1.8 2.6 1.7 2.5 1.6 2.5 1.5 2.5 1.4 2.4 1.2 2.4 1.1 2.4 1 2.3 1 2.3 1.1 2.3 1.2 2.2 1.3 2.2zM8.5 1.3C9.1 1.3 10 1.4 10.8 1.4 10.9 1.4 10.9 1.5 11 1.6 11.5 2.8 13.6 7.1 14.1 8 14.1 8.1 14.2 8 14.2 8 14.6 7.3 16.4 3.6 16.7 2.8 16.9 2.2 17.1 1.9 17.2 1.6 17.2 1.6 17.3 1.4 17.4 1.4 18.1 1.4 18.5 1.3 19.4 1.3 19.6 1.3 19.7 1.3 19.7 1.4 19.7 1.5 19.6 1.5 19.5 1.5 18.6 1.7 18.6 1.9 18.6 2.7 18.6 3.3 18.6 4.8 18.6 5.6 18.6 7.2 18.7 8.7 18.7 9.2 18.8 10.1 18.9 10.2 19.5 10.4 19.6 10.4 19.7 10.5 19.7 10.6 19.7 10.7 19.6 10.7 19.4 10.7 18.9 10.7 18.2 10.6 17.6 10.6 17 10.6 16.3 10.6 16.1 10.6 16 10.6 15.8 10.6 15.8 10.5 15.8 10.4 15.9 10.4 16.1 10.3 16.7 10.2 16.8 9.8 16.8 8.7 16.8 7.9 16.9 4.3 16.9 3.5 16.9 3.4 16.9 3.3 16.8 3.5 15.8 5.6 14.2 8.9 13.6 10.3 13.5 10.5 13.4 10.6 13.3 10.6 13.2 10.6 13.1 10.4 13.1 10.2 12.6 8.9 10.4 4.1 10 3.4 9.9 3.3 9.9 3.3 9.9 3.5 9.8 4.1 9.7 7.7 9.7 8.7 9.7 9.3 9.7 9.5 9.8 9.7 9.9 10 10.1 10.3 10.6 10.4 10.7 10.4 10.8 10.5 10.8 10.6 10.8 10.7 10.7 10.7 10.5 10.7 10.2 10.7 9.7 10.6 9.2 10.6 8.7 10.6 8.3 10.7 8.1 10.7 7.9 10.7 7.8 10.7 7.8 10.6 7.8 10.6 7.8 10.5 8.1 10.4 8.5 10.3 8.8 10.2 8.9 10 9.1 9.8 9.1 9.4 9.2 8.4 9.3 7.5 9.5 4.5 9.5 3.4 9.5 2.5 9.5 2.3 9.2 2 8.9 1.7 8.7 1.7 8.4 1.6 8.3 1.6 8.2 1.5 8.2 1.4 8.3 1.4 8.4 1.3 8.5 1.3zM20.7 5.5C21.4 5.4 21.6 5.3 22.2 5.1 22.3 5.1 22.4 5 22.4 5 22.4 5 22.5 5 22.5 5.2 22.5 5.5 22.5 6.3 22.5 6.9 22.5 8.6 22.5 9.8 22.5 10 22.5 10.3 22.6 10.4 22.9 10.5 23.1 10.5 23.1 10.6 23.1 10.6 23.1 10.7 23 10.7 22.9 10.7 22.6 10.7 22.3 10.6 21.7 10.6 21 10.6 20.7 10.6 20.5 10.6 20.4 10.6 20.2 10.6 20.2 10.5 20.2 10.4 20.3 10.4 20.5 10.4 20.9 10.3 21 10.1 21 9.6 21 9.2 21 6.5 21 6.4 21 6.1 21 6.1 20.6 5.8 20.5 5.7 20.5 5.7 20.5 5.6 20.5 5.6 20.6 5.6 20.7 5.5zM22.5 3.2C22.5 3.7 22.1 3.9 21.8 3.9 21.5 3.9 21.2 3.6 21.2 3.2 21.2 2.7 21.6 2.4 21.9 2.4 22.2 2.4 22.5 2.8 22.5 3.2zM25.8 7C25.8 8.9 25.8 9.5 25.8 9.8 25.8 10.3 25.9 10.3 26.3 10.4 26.4 10.4 26.5 10.5 26.5 10.5 26.5 10.6 26.4 10.6 26.2 10.6 25.8 10.6 25.2 10.6 24.9 10.6 24.5 10.6 24.2 10.6 23.8 10.6 23.7 10.6 23.5 10.6 23.5 10.5 23.5 10.4 23.6 10.4 23.7 10.4 24.1 10.3 24.2 10.2 24.2 9.6 24.2 9 24.3 6.2 24.3 4.8 24.3 4 24.3 2.4 24.3 1.9 24.3 1.6 24.2 1.5 23.9 1.3 23.8 1.2 23.8 1.2 23.8 1.1 23.8 1 23.9 1 24 1 24.6.9 25.2.7 25.5.6 25.6.6 25.7.5 25.7.5 25.7.5 25.8.6 25.8.7 25.8.8 25.8 3.3 25.8 5.9L25.8 7 25.8 7zM32 6.7C32 6.8 31.9 6.9 31.8 6.9 31.6 6.9 29.8 6.9 29.4 6.9L28.9 6.9C28.9 6.9 28.8 7 28.8 7 28.8 7.1 28.7 7.4 28.7 7.6 28.7 8.4 29 8.9 29.4 9.4 29.8 9.8 30.3 10 30.7 10 31.3 10 31.7 9.9 32.1 9.6 32.2 9.5 32.3 9.5 32.3 9.6 32.3 9.7 32.3 9.7 32.2 9.8 31.7 10.5 31 10.9 30 10.9 29.2 10.9 28.6 10.6 28.1 10.1 27.6 9.6 27.4 8.9 27.4 8.1 27.4 7.3 27.7 6.4 28.4 5.8 28.8 5.5 29.4 5.1 30.2 5.1 31.2 5.1 32 5.8 32 6.7zM29.1 5.8C28.9 6 28.8 6.4 28.8 6.6 28.8 6.6 28.8 6.7 28.9 6.7L30.3 6.7C30.7 6.7 30.7 6.5 30.7 6.3 30.7 6 30.6 5.8 30.5 5.6 30.4 5.5 30.2 5.3 29.9 5.3 29.6 5.3 29.4 5.5 29.1 5.8zM35.7 10.1C35.6 9.9 35.5 9.6 35.5 9.2L35.5 6.1C35.5 5.9 35.5 5.8 35.4 5.8 35.3 5.8 35.2 5.7 35 5.7 34.9 5.7 34.8 5.6 34.8 5.6 34.8 5.6 34.8 5.5 35 5.5 35.4 5.4 35.9 5 36.2 4.5 36.3 4.4 36.4 4.4 36.4 4.5 36.4 4.6 36.4 5.1 36.4 5.2 36.4 5.2 36.4 5.3 36.5 5.3 36.8 5.3 38 5.3 38.3 5.3 38.3 5.3 38.4 5.4 38.4 5.5 38.4 5.8 38.3 5.9 38.3 5.9 37.8 5.9 37 5.9 36.6 5.9 36.4 5.9 36.4 5.9 36.4 6 36.4 6.3 36.4 8.6 36.4 9.1 36.4 9.6 36.5 9.8 36.6 9.9 36.8 10.2 37.1 10.3 37.5 10.3 37.9 10.3 38.2 10.2 38.3 10.1 38.4 10 38.4 10 38.4 10.1 38.4 10.2 38.3 10.3 38.1 10.5 37.8 10.8 37.3 10.9 36.9 10.9 36.4 10.8 36 10.6 35.7 10.1zM44.7 7.9C44.7 9 44 9.8 43.5 10.2 43 10.6 42.3 10.8 41.8 10.8 40.3 10.8 38.9 9.6 38.9 8 38.9 6.9 39.4 6.1 40 5.7 40.4 5.4 41.1 5.1 41.8 5.1 43.5 5.1 44.7 6.4 44.7 7.9zM40 7.7C40 8.3 40.2 9.1 40.6 9.8 41 10.4 41.5 10.6 42 10.6 42.4 10.6 42.7 10.4 42.9 10.2 43.1 10 43.5 9.3 43.5 8.2 43.5 6.8 42.8 5.4 41.5 5.4 40.8 5.4 40 6.2 40 7.7zM49.4 5.3C49.5 5.3 49.7 5.3 49.7 5.4 49.7 5.4 49.5 5.5 49.4 5.5 49 5.6 49.1 5.7 49.1 5.9 49.3 6.6 50 8.3 50.3 9.1 50.3 9.1 50.4 9.2 50.4 9.1 50.6 8.6 51.3 7.1 51.4 6.7 51.4 6.6 51.5 6.5 51.4 6.4 51.3 6.2 51.2 6 51.1 5.8 51 5.5 50.8 5.4 50.5 5.3 50.4 5.3 50.3 5.2 50.3 5.2 50.3 5.2 50.4 5.1 50.5 5.1 50.8 5.1 51.2 5.1 51.5 5.1 51.9 5.1 52.1 5.1 52.4 5.1 52.6 5.1 52.6 5.1 52.6 5.2 52.6 5.3 52.5 5.3 52.4 5.3 52.1 5.4 52 5.4 52.1 5.9 52.3 6.4 53.1 8.5 53.3 9 53.3 9.1 53.4 9 53.4 9 53.6 8.6 54.3 6.9 54.5 6.4 54.6 6.1 54.7 5.8 54.7 5.7 54.7 5.6 54.6 5.4 54.3 5.3 54.1 5.2 54.1 5.2 54.1 5.2 54.1 5.1 54.2 5.1 54.3 5.1 54.6 5.1 54.8 5.1 55.1 5.1 55.3 5.1 55.6 5.1 55.8 5.1 55.9 5.1 56 5.1 56 5.2 56 5.3 56 5.3 55.7 5.3 55.4 5.4 55.3 5.6 55.1 6 54.8 6.5 54.4 7.6 53.9 8.6 53.6 9.2 53.4 9.9 53.2 10.4 53.1 10.6 53.1 10.7 53 10.7 52.9 10.7 52.9 10.6 52.8 10.4 52.7 10.2 52.6 9.9 52.4 9.4 52.1 8.6 51.8 7.7 51.5 6.9 51.5 6.9 51.5 6.8 51.4 6.9 51.3 7.2 50.6 8.6 50.4 9.1 50.2 9.6 50 9.9 49.9 10.4 49.8 10.6 49.8 10.7 49.7 10.7 49.6 10.7 49.6 10.6 49.6 10.4 49.5 10.2 49.4 9.8 49.2 9.1 48.9 8.4 48.1 6.2 47.9 5.9 47.8 5.6 47.6 5.4 47.2 5.3 47.1 5.3 47 5.2 47 5.2 47 5.1 47.1 5.1 47.3 5.1 47.5 5.1 47.9 5.2 48.4 5.2 48.8 5.3 49.1 5.3 49.4 5.3zM59.8 5.9C59.9 6.2 60 6.8 60 7.3 60 7.9 60 9.3 60 9.7 60 10 60.1 10.3 60.6 10.3 60.7 10.3 60.9 10.3 61 10.2 61.1 10.2 61.2 10.2 61.1 10.3 60.9 10.7 60.4 10.9 59.9 10.9 59.5 10.9 59.2 10.6 59 10.2 59 10.2 58.9 10.2 58.9 10.2 58.5 10.6 58 10.9 57.4 10.9 56.8 10.9 56.2 10.4 56.2 9.6 56.2 9.1 56.6 8.8 56.7 8.7 57.1 8.5 58.4 8.1 58.7 8 58.8 8 58.9 7.8 58.9 7.8 58.9 7.6 58.9 7.3 58.9 7.1 58.9 6.5 58.8 6.1 58.5 5.9 58.3 5.8 58.1 5.7 57.9 5.7 57.7 5.7 57.5 5.7 57.3 5.9 57.2 6 57.1 6.1 57.1 6.3 57.1 6.4 57.1 6.5 57.1 6.6 57.1 6.6 57.1 6.7 57 6.7 56.8 6.8 56.4 7 56.3 7 56.2 7 56.2 6.9 56.2 6.9 56.2 6.8 56.3 6.7 56.5 6.5 56.8 6.1 57.3 5.8 57.6 5.6 57.9 5.4 58.2 5.3 58.5 5.3 59.2 5.1 59.6 5.4 59.8 5.9zM58.8 10C58.9 9.9 58.9 9.8 59 9.6 59 9.3 59.1 8.7 59.1 8.2 59.1 8.2 59.1 8.1 59 8.1 58.8 8.1 57.9 8.4 57.6 8.6 57.4 8.7 57.2 8.9 57.2 9.3 57.2 9.8 57.6 10.1 58.1 10.1 58.4 10.2 58.6 10.1 58.8 10zM63.1 7C63.1 8.9 63.1 9.6 63.1 9.9 63.1 10.3 63.2 10.4 63.6 10.5 63.7 10.5 63.8 10.6 63.8 10.6 63.8 10.7 63.7 10.7 63.5 10.7 63.3 10.7 62.7 10.7 62.5 10.7 62.1 10.7 61.7 10.7 61.5 10.7 61.3 10.7 61.2 10.7 61.2 10.6 61.2 10.5 61.3 10.5 61.5 10.5 61.9 10.4 62 10.3 62 9.6 62 9 62.1 6.5 62.1 4.7 62.1 3.5 62.1 2.3 62.1 1.6 62.1 1.3 62.1 1.2 61.7 1 61.6.9 61.6.9 61.6.9 61.6.9 61.7.8 61.8.8 62.2.7 62.6.6 62.9.5 62.9.5 63 .5 63.1.5 63.1.5 63.1.6 63.1.7 63.1.8 63 3.4 63 5.6L63 7 63.1 7zM68.8 5.3C69.1 5.3 69.7 5.2 70.1 5.2 70.3 5.2 70.3 5.2 70.3 5.3 70.3 5.3 70.3 5.4 70.1 5.4 69.6 5.5 69.3 5.6 68.7 6.1 68.3 6.4 67.6 7 67.3 7.3 67.3 7.3 67.3 7.4 67.3 7.4 67.7 7.9 68.8 9.1 69.5 9.8 69.9 10.2 70.1 10.4 70.6 10.5 70.7 10.5 70.8 10.6 70.8 10.6 70.8 10.7 70.7 10.7 70.5 10.7 70 10.7 69.4 10.6 68.8 10.6 68.5 10.6 68.4 10.6 68.1 10.6 67.9 10.6 67.8 10.6 67.8 10.5 67.8 10.4 67.9 10.4 68.1 10.3 68.4 10.2 68.4 10.1 68.2 9.9 67.9 9.5 66.8 8.4 66.4 8 66.3 7.9 66.2 7.8 66.1 7.8 66.1 7.8 66 7.9 66 7.9 66 8.2 66 8.7 66 9.5 66 10.2 66.1 10.3 66.6 10.4 66.7 10.4 66.8 10.5 66.8 10.5 66.8 10.6 66.7 10.6 66.5 10.6 66.1 10.6 65.8 10.6 65.4 10.6 64.9 10.6 64.6 10.6 64.4 10.6 64.2 10.6 64.2 10.6 64.2 10.5 64.2 10.5 64.3 10.4 64.4 10.4 64.9 10.3 65 10.1 65 9.7 65.1 8.6 65.1 7.3 65.1 6.2 65.1 5 65.2 3.1 65.2 1.9 65.2 1.6 65.2 1.4 65.1 1.2 65.1 1.1 64.9 1 64.8.9 64.7.9 64.7.8 64.7.8 64.7.7 64.8.7 64.9.7 65.5.5 65.9.4 66 .3 66.1.3 66.2.2 66.2.2 66.2.2 66.2.2 66.2.3 66.2.8 66.1 2.1 66.1 3.2 66.1 3.7 66 5.6 66 7.3 66 7.5 66 7.5 66.1 7.5 66.2 7.5 66.3 7.4 66.4 7.3 67 6.8 67.7 6.1 68 5.8 68.1 5.7 68.2 5.6 68.2 5.5 68.2 5.4 68.1 5.3 67.8 5.3 67.7 5.3 67.5 5.2 67.5 5.2 67.5 5.2 67.6 5.1 67.7 5.1 68.3 5.3 68.6 5.3 68.8 5.3zM72.7 7.8C72.6 6.4 72.2 4 72.2 3.1 72.2 2.7 72.5 2 72.9 2 73.3 2 73.6 2.5 73.6 3 73.6 3.7 73.2 7 73.1 7.8 73.1 8.1 73 8.2 72.9 8.2 72.8 8.2 72.8 8.1 72.7 7.8zM72.2 10.1C72.2 9.7 72.6 9.4 72.9 9.4 73.3 9.4 73.5 9.9 73.5 10.1 73.5 10.5 73.1 10.7 72.9 10.7 72.6 10.8 72.2 10.6 72.2 10.1z"/>
      </g>
      <polyline stroke="#222F3C" stroke-linecap="round" stroke-width=".5" points="158.3 32.7 162.7 28.2 167.2 32.7"/>
      <g fill="#222F3C" fill-rule="nonzero" transform="translate(0 21)">
        <g transform="translate(59)">
          <g transform="translate(88 11)">
            <path d="M1.3 1.4C1.2 1.4 1 1.3 1 1.3 1 1.3.9 1.2.9 1.1.9 1 .9 1 .9.9.9.8.9.8.9.7.9.6 1 .6 1 .5 1 .5 1.1.4 1.2.4 1.3.3 1.5.3 1.6.4 1.7.4 1.7.5 1.8.5 1.9.6 1.9.7 1.9.9 1.9 1 1.9 1.1 1.8 1.2 1.6 1.3 1.5 1.4 1.3 1.4zM1.3 3.9C1.2 3.6 1.3 3.4 1.6 3.3L1.6 3.3C1.9 3.2 2.1 3.3 2.2 3.6L2.2 3.6 2.2 3.6 2.2 3.6C2.3 3.9 2.2 4.1 1.9 4.2L1.9 4.2C1.8 4.2 1.8 4.2 1.7 4.2L1.7 4.2C1.6 4.2 1.4 4.1 1.3 3.9zM8.3 9.1C8 9.1 7.8 8.9 7.8 8.6L7.8 8.6C7.8 8.3 8 8.1 8.3 8.1L8.3 8.1C8.6 8.1 8.8 8.3 8.8 8.6L8.8 8.6C8.8 8.9 8.6 9.1 8.3 9.1L8.3 9.1 8.3 9.1zM10.6 8.3C10.5 8 10.6 7.8 10.9 7.6L10.9 7.6C11.1 7.5 11.4 7.6 11.5 7.9L11.5 7.9C11.6 8.2 11.5 8.4 11.2 8.5L11.2 8.5C11.1 8.5 11.1 8.5 11 8.5L11 8.5C10.9 8.6 10.7 8.5 10.6 8.3zM5.3 8.4L5.3 8.4C5.1 8.3 4.9 8 5.1 7.7L5.1 7.7C5.2 7.5 5.5 7.3 5.8 7.5L5.8 7.5 5.8 7.5 5.8 7.5C6 7.6 6.1 7.9 6 8.2L6 8.2C5.9 8.4 5.7 8.5 5.6 8.5L5.6 8.5C5.4 8.5 5.3 8.5 5.3 8.4zM13.1 6.9C12.9 6.7 12.9 6.4 13.1 6.2L13.1 6.2C13.3 6 13.6 6 13.8 6.2L13.8 6.2C14 6.4 14 6.7 13.8 6.9L13.8 6.9C13.7 7 13.6 7 13.5 7L13.5 7C13.4 7 13.2 7 13.1 6.9zM2.9 6.5C2.7 6.3 2.8 6 3 5.8L3 5.8C3.2 5.6 3.5 5.6 3.7 5.9L3.7 5.9C3.9 6.1 3.9 6.4 3.6 6.6L3.6 6.6C3.5 6.7 3.4 6.7 3.3 6.7L3.3 6.7C3.1 6.7 3 6.6 2.9 6.5zM14.9 4.6C14.6 4.5 14.5 4.2 14.6 3.9L14.6 3.9C14.7 3.7 15 3.5 15.3 3.6L15.3 3.6C15.5 3.7 15.7 4 15.6 4.3L15.6 4.3C15.5 4.5 15.3 4.6 15.1 4.6L15.1 4.6C15 4.6 15 4.6 14.9 4.6zM15.7 1.8C15.6 1.8 15.4 1.8 15.3 1.7 15.3 1.7 15.2 1.6 15.2 1.5 15.2 1.4 15.2 1.4 15.2 1.3 15.2 1.2 15.2 1.2 15.2 1.1 15.2 1 15.3 1 15.3.9 15.4.9 15.4.8 15.5.8 15.6.8 15.8.8 15.9.8 16 .8 16 .9 16.1.9 16.2 1 16.2 1.1 16.2 1.2 16.2 1.3 16.1 1.5 16.1 1.6 15.9 1.8 15.8 1.8 15.7 1.8z"/>
          </g>
          <g transform="translate(73)">
            <path d="M1.3 8.4C1.2 8.4 1.2 8.4 1.1 8.4 1 8.4 1 8.3.9 8.3.8 8.2.8 8.1.8 8 .8 7.9.9 7.7.9 7.6 1 7.5 1.3 7.4 1.4 7.5 1.5 7.5 1.5 7.6 1.6 7.6 1.7 7.7 1.8 7.8 1.8 8 1.8 8.1 1.8 8.3 1.6 8.3 1.6 8.3 1.5 8.4 1.4 8.4 1.5 8.4 1.4 8.4 1.3 8.4zM1.7 5.4C1.4 5.3 1.3 5 1.4 4.7L1.4 4.7 1.4 4.7 1.4 4.7C1.5 4.5 1.8 4.3 2.1 4.4L2.1 4.4C2.3 4.5 2.5 4.8 2.4 5.1L2.4 5.1C2.3 5.3 2.1 5.4 1.9 5.4L1.9 5.4C1.9 5.5 1.8 5.4 1.7 5.4zM15.2 6L15.2 6C15.1 5.7 15.3 5.5 15.5 5.4L15.5 5.4C15.8 5.3 16 5.5 16.1 5.8L16.1 5.8 16.1 5.8 16.1 5.8C16.2 6.1 16 6.3 15.7 6.4L15.7 6.4C15.7 6.4 15.6 6.4 15.6 6.4L15.6 6.4C15.5 6.4 15.3 6.2 15.2 6zM14 3.6C13.8 3.4 13.9 3.1 14.1 2.9L14.1 2.9C14.3 2.7 14.6 2.8 14.8 3L14.8 3C15 3.2 15 3.5 14.7 3.7L14.7 3.7C14.6 3.8 14.5 3.8 14.4 3.8L14.4 3.8C14.2 3.7 14.1 3.7 14 3.6zM3.3 2.9C3.1 2.7 3.1 2.4 3.3 2.2L3.3 2.2C3.5 2 3.8 2 4 2.2L4 2.2C4.2 2.4 4.2 2.7 4 2.9L4 2.9C3.9 3 3.8 3 3.7 3L3.7 3C3.5 3 3.4 3 3.3 2.9zM11.8 1.8C11.6 1.7 11.5 1.4 11.6 1.1L11.6 1.1C11.7.9 12 .8 12.3.9L12.3.9 12.3.9 12.3.9C12.5 1 12.6 1.3 12.5 1.6L12.5 1.6C12.4 1.8 12.2 1.9 12.1 1.9L12.1 1.9C12 1.9 11.9 1.8 11.8 1.8zM5.7 1.1C5.6.8 5.7.6 6 .5L6 .5C6.3.4 6.5.5 6.6.8L6.6.8C6.7 1.1 6.6 1.3 6.3 1.4L6.3 1.4C6.2 1.4 6.2 1.4 6.1 1.4L6.1 1.4C6 1.5 5.8 1.3 5.7 1.1zM9.1 1.1C8.8 1.1 8.6.9 8.6.6L8.6.6C8.6.3 8.8.1 9.1.1L9.1.1C9.4.1 9.6.3 9.6.6L9.6.6C9.6.9 9.4 1.1 9.1 1.1L9.1 1.1C9.1 1.1 9.1 1.1 9.1 1.1zM16 9.4C15.9 9.4 15.7 9.4 15.6 9.2 15.5 9.1 15.5 9 15.5 8.9 15.5 8.8 15.6 8.6 15.6 8.6 15.7 8.5 15.7 8.5 15.8 8.5 15.9 8.5 16.1 8.5 16.2 8.5 16.3 8.5 16.3 8.6 16.4 8.6 16.5 8.7 16.5 8.8 16.5 8.9 16.5 9 16.5 9.2 16.4 9.2 16.3 9.3 16.1 9.4 16 9.4z"/>
          </g>
          <g transform="translate(59 8)">
            <path d="M.6 1.3C.5 1.3.3 1.2.3 1.2.3 1.2.2 1.1.2 1 .2.9.2.9.2.8.2.7.3.5.4.4.5.3.8.2.9.3 1 .3 1 .4 1.1.4 1.2.5 1.2.6 1.2.8 1.2.9 1.2.9 1.2 1 1.2 1.1 1.1 1.1 1.1 1.2.9 1.3.8 1.3.6 1.3zM.2 3.3C.2 3 .4 2.8.7 2.8L.7 2.8C1 2.8 1.2 3 1.2 3.3L1.2 3.3C1.2 3.6 1 3.8.7 3.8L.7 3.8C.4 3.8.2 3.6.2 3.3zM5.3 11.7L5.3 11.7C5 11.6 4.9 11.3 5 11.1L5 11.1C5.1 10.8 5.4 10.7 5.6 10.8L5.6 10.8 5.6 10.8 5.6 10.8C5.9 10.9 6 11.2 5.9 11.4L5.9 11.4C5.8 11.6 5.6 11.7 5.4 11.7L5.4 11.7C5.5 11.7 5.4 11.7 5.3 11.7zM3 10.4L3 10.4C2.8 10.2 2.8 9.9 2.9 9.7L2.9 9.7C3.1 9.5 3.4 9.5 3.6 9.6L3.6 9.6C3.8 9.8 3.8 10.1 3.7 10.3L3.7 10.3C3.6 10.4 3.5 10.5 3.3 10.5L3.3 10.5C3.2 10.5 3.1 10.5 3 10.4zM1.3 8.4C1.1 8.2 1.2 7.9 1.5 7.7L1.5 7.7C1.7 7.6 2 7.6 2.2 7.9L2.2 7.9C2.3 8.1 2.3 8.4 2 8.6L2 8.6C1.9 8.6 1.8 8.7 1.7 8.7L1.7 8.7C1.6 8.6 1.4 8.5 1.3 8.4zM.3 5.9L.3 5.9C.2 5.6.4 5.4.7 5.3L.7 5.3C1 5.2 1.2 5.4 1.3 5.7L1.3 5.7 1.3 5.7 1.3 5.7C1.4 6 1.2 6.2.9 6.3L.9 6.3C.9 6.3.8 6.3.8 6.3L.8 6.3C.6 6.3.4 6.2.3 5.9zM8 12.1C7.9 12.1 7.7 12.1 7.6 12 7.6 12 7.5 11.9 7.5 11.8 7.5 11.7 7.5 11.7 7.5 11.6 7.5 11.5 7.6 11.3 7.7 11.2 7.8 11.1 8.1 11 8.2 11.1 8.3 11.1 8.3 11.2 8.4 11.2 8.5 11.3 8.6 11.4 8.6 11.6 8.6 11.7 8.6 11.7 8.6 11.8 8.6 11.9 8.5 11.9 8.5 12 8.2 12.1 8.1 12.1 8 12.1z"/>
          </g>
          <g transform="translate(66 7)">
            <path d="M1 13.1C.9 13.1.9 13.1.8 13.1.5 13 .4 12.7.5 12.4.6 12.2.8 12 1.1 12.1 1.3 12.1 1.5 12.3 1.5 12.6 1.5 12.9 1.3 13.1 1 13.1zM3.1 12.3C3 12 3.1 11.8 3.4 11.7L3.4 11.7C3.4 11.7 3.4 11.7 3.4 11.7L3.4 11.7C3.6 11.6 3.9 11.7 4 12L4 12C4.1 12.2 4 12.5 3.7 12.6L3.7 12.6C3.6 12.6 3.6 12.6 3.5 12.6L3.5 12.6C3.4 12.7 3.2 12.5 3.1 12.3zM5.5 11.1C5.3 10.9 5.3 10.6 5.5 10.4L5.5 10.4C5.5 10.4 5.5 10.4 5.5 10.4L5.5 10.4C5.7 10.2 6 10.2 6.2 10.4L6.2 10.4C6.4 10.6 6.4 10.9 6.2 11.1L6.2 11.1C6.1 11.2 6 11.2 5.9 11.2L5.9 11.2C5.7 11.3 5.6 11.2 5.5 11.1zM7.2 9.2C7 9.1 6.9 8.8 7 8.5L7 8.5C7.1 8.3 7.4 8.2 7.7 8.3L7.7 8.3C7.9 8.4 8 8.7 7.9 9L7.9 9C7.8 9.2 7.6 9.3 7.5 9.3L7.5 9.3C7.4 9.2 7.3 9.2 7.2 9.2zM8.2 6.7C7.9 6.7 7.7 6.4 7.8 6.1L7.8 6.1C7.8 5.8 8.1 5.6 8.4 5.7L8.4 5.7C8.7 5.7 8.9 6 8.8 6.3L8.8 6.3C8.7 6.5 8.5 6.7 8.2 6.7L8.2 6.7C8.2 6.7 8.2 6.7 8.2 6.7zM7.8 3.5C7.8 3.2 8 3 8.3 3L8.3 3C8.6 3 8.8 3.2 8.8 3.5L8.8 3.5C8.8 3.8 8.6 4 8.3 4L8.3 4C8 4 7.8 3.8 7.8 3.5zM8.3 1.4C8.2 1.4 8 1.3 7.9 1.2 7.9 1.2 7.8 1.1 7.8 1 7.8.9 7.8.9 7.8.8 7.8.7 7.8.5 7.9.4 8 .3 8.3.2 8.4.3 8.5.3 8.5.4 8.6.4 8.7.5 8.8.6 8.8.8 8.8.9 8.8.9 8.8 1 8.8 1.1 8.7 1.1 8.7 1.2 8.6 1.3 8.5 1.4 8.3 1.4z"/>
          </g>
          <g transform="translate(44)">
            <path d="M1 8.4C.9 8.4.7 8.3.6 8.2.5 8.1.5 8 .5 7.8.5 7.7.6 7.5.6 7.4.8 7.2 1.1 7.2 1.3 7.4 1.4 7.5 1.4 7.6 1.4 7.8 1.4 7.9 1.3 8.1 1.3 8.2 1.2 8.3 1.1 8.4 1 8.4zM1.4 5.4C1.2 5.3 1 5 1.1 4.7L1.1 4.7 1.1 4.7 1.1 4.7C1.2 4.5 1.5 4.3 1.8 4.4L1.8 4.4C2 4.5 2.2 4.8 2.1 5.1L2.1 5.1C2 5.3 1.8 5.4 1.6 5.4L1.6 5.4C1.5 5.5 1.5 5.4 1.4 5.4zM14.9 6L14.9 6C14.8 5.7 15 5.5 15.2 5.4L15.2 5.4C15.5 5.3 15.8 5.5 15.8 5.8L15.8 5.8 15.8 5.8 15.8 5.8C15.9 6.1 15.7 6.3 15.5 6.4L15.5 6.4C15.5 6.4 15.4 6.4 15.4 6.4L15.4 6.4C15.1 6.4 15 6.2 14.9 6zM13.6 3.6L13.6 3.6C13.4 3.4 13.5 3.1 13.7 2.9L13.7 2.9C13.9 2.7 14.2 2.8 14.4 3L14.4 3 14.4 3 14.4 3C14.6 3.2 14.5 3.5 14.3 3.7L14.3 3.7C14.2 3.8 14.1 3.8 14 3.8L14 3.8C13.8 3.7 13.7 3.7 13.6 3.6zM2.9 2.9C2.7 2.7 2.7 2.4 2.9 2.2L2.9 2.2C3.1 2 3.4 2 3.6 2.2L3.6 2.2C3.8 2.4 3.8 2.7 3.6 2.9L3.6 2.9C3.5 3 3.4 3 3.3 3L3.3 3C3.2 3 3 3 2.9 2.9zM11.4 1.8C11.2 1.7 11.1 1.4 11.2 1.1L11.2 1.1C11.3.9 11.6.8 11.9.9L11.9.9 11.9.9 11.9.9C12.1 1 12.2 1.3 12.1 1.6L12.1 1.6C12 1.8 11.8 1.9 11.6 1.9L11.6 1.9C11.6 1.9 11.5 1.8 11.4 1.8zM5.4 1.1C5.3.8 5.4.6 5.7.5L5.7.5C6 .4 6.2.5 6.3.8L6.3.8C6.4 1.1 6.3 1.3 6 1.4L6 1.4C5.9 1.4 5.9 1.4 5.8 1.4L5.8 1.4C5.6 1.5 5.5 1.3 5.4 1.1zM8.8 1.1L8.8 1.1C8.5 1.1 8.3.9 8.3.6L8.3.6C8.3.3 8.6.1 8.8.1L8.8.1C9.1.1 9.3.3 9.3.6L9.3.6C9.3.9 9.1 1.1 8.8 1.1L8.8 1.1C8.8 1.1 8.8 1.1 8.8 1.1zM15.6 9.4C15.5 9.4 15.3 9.4 15.2 9.2 15.1 9.1 15.1 9 15.1 8.9 15.1 8.8 15.1 8.8 15.1 8.7 15.1 8.6 15.2 8.6 15.2 8.5 15.3 8.4 15.6 8.3 15.7 8.4 15.8 8.4 15.8 8.5 15.9 8.5 16 8.6 16 8.7 16 8.8 16 8.9 16 9.1 15.9 9.1 15.9 9.3 15.8 9.4 15.6 9.4z"/>
          </g>
          <g transform="translate(37 7)">
            <path d="M.6 13.1C.5 13.1.5 13.1.4 13.1.1 13 5.68434189e-14 12.7.1 12.4.2 12.2.4 12 .7 12.1.9 12.1 1.1 12.3 1.1 12.6 1.1 12.9.9 13.1.6 13.1zM2.8 12.3C2.7 12 2.8 11.8 3.1 11.7L3.1 11.7 3.1 11.7 3.1 11.7C3.4 11.6 3.6 11.7 3.7 12L3.7 12C3.8 12.2 3.7 12.5 3.4 12.6L3.4 12.6C3.3 12.6 3.3 12.6 3.2 12.6L3.2 12.6C3 12.7 2.8 12.5 2.8 12.3zM5.1 11.1C4.9 10.9 4.9 10.6 5.1 10.4L5.1 10.4 5.1 10.4 5.1 10.4C5.3 10.2 5.6 10.2 5.8 10.4L5.8 10.4C6 10.6 6 10.9 5.8 11.1L5.8 11.1C5.7 11.2 5.6 11.2 5.5 11.2L5.5 11.2C5.4 11.3 5.2 11.2 5.1 11.1zM6.9 9.2C6.7 9.1 6.6 8.8 6.7 8.5L6.7 8.5C6.8 8.3 7.1 8.2 7.4 8.3L7.4 8.3C7.6 8.4 7.7 8.7 7.6 9L7.6 9C7.5 9.2 7.3 9.3 7.2 9.3L7.2 9.3C7 9.2 7 9.2 6.9 9.2zM7.9 6.7C7.6 6.7 7.4 6.4 7.5 6.1L7.5 6.1C7.5 5.8 7.8 5.6 8 5.7L8 5.7C8.3 5.7 8.5 6 8.4 6.3L8.4 6.3C8.4 6.5 8.2 6.7 7.9 6.7L7.9 6.7C7.9 6.7 7.9 6.7 7.9 6.7zM7.5 3.5C7.5 3.2 7.7 3 8 3L8 3C8.3 3 8.5 3.2 8.5 3.5L8.5 3.5C8.5 3.8 8.3 4 8 4L8 4C7.7 4 7.5 3.8 7.5 3.5zM8 1.4C7.9 1.4 7.9 1.4 7.8 1.4 7.7 1.4 7.7 1.3 7.6 1.3 7.5 1.2 7.4 1.1 7.4 1 7.4.9 7.4.9 7.4.8 7.4.7 7.5.7 7.5.6 7.7.4 8 .4 8.2.6 8.3.7 8.4.8 8.4 1 8.4 1.1 8.4 1.2 8.2 1.3 8.2 1.3 8.1 1.4 8 1.4z"/>
          </g>
          <g transform="translate(29 8)">
            <path d="M1.3 1.3C1.2 1.3 1.2 1.3 1.1 1.3 1 1.3 1 1.2.9 1.2.8 1.1.8 1 .8.8.8.7.8.7.8.6.8.5.9.5.9.4 1 .4 1 .3 1.1.3 1.3.2 1.5.3 1.6.4 1.7.4 1.7.5 1.7.6 1.7.7 1.7.7 1.7.8 1.7.9 1.7 1.1 1.5 1.2 1.5 1.2 1.4 1.3 1.3 1.3 1.4 1.3 1.4 1.3 1.3 1.3zM.8 3.3C.8 3 1 2.8 1.3 2.8L1.3 2.8C1.6 2.8 1.8 3 1.8 3.3L1.8 3.3C1.8 3.6 1.6 3.8 1.3 3.8L1.3 3.8C1 3.8.8 3.6.8 3.3zM6 11.7L6 11.7C5.7 11.6 5.6 11.3 5.7 11.1L5.7 11.1C5.8 10.8 6.1 10.7 6.3 10.8L6.3 10.8 6.3 10.8 6.3 10.8C6.6 10.9 6.7 11.2 6.6 11.4L6.6 11.4C6.5 11.6 6.3 11.7 6.1 11.7L6.1 11.7C6.1 11.7 6 11.7 6 11.7zM3.7 10.4C3.5 10.2 3.5 9.9 3.6 9.7L3.6 9.7C3.8 9.5 4.1 9.5 4.3 9.6L4.3 9.6C4.5 9.8 4.5 10.1 4.4 10.3L4.4 10.3C4.3 10.4 4.2 10.5 4 10.5L4 10.5C3.9 10.5 3.8 10.5 3.7 10.4zM1.9 8.4C1.8 8.2 1.8 7.9 2.1 7.7L2.1 7.7C2.3 7.6 2.6 7.6 2.8 7.9L2.8 7.9C2.9 8.1 2.9 8.4 2.6 8.6L2.6 8.6C2.5 8.6 2.4 8.7 2.3 8.7L2.3 8.7C2.2 8.6 2 8.5 1.9 8.4zM1 5.9L1 5.9C1 5.6 1.1 5.4 1.4 5.3L1.4 5.3C1.7 5.2 1.9 5.4 2 5.7L2 5.7 2 5.7 2 5.7C2.1 6 1.9 6.2 1.6 6.3L1.6 6.3C1.6 6.3 1.5 6.3 1.5 6.3L1.5 6.3C1.2 6.3 1 6.2 1 5.9zM8.6 12.1C8.5 12.1 8.5 12.1 8.4 12.1 8.3 12.1 8.3 12 8.2 12 8.1 12 8.1 11.9 8.1 11.8 8.1 11.7 8.1 11.7 8.1 11.6 8.1 11.5 8.1 11.5 8.1 11.4 8.1 11.3 8.2 11.3 8.2 11.2 8.2 11.2 8.3 11.1 8.4 11.1 8.6 11 8.8 11.1 8.9 11.2 9 11.2 9 11.3 9 11.4 9 11.5 9 11.5 9 11.6 9 11.7 9 11.7 9 11.8 9 11.9 8.9 11.9 8.9 12 8.9 12 8.8 12.1 8.7 12.1 8.8 12.1 8.7 12.1 8.6 12.1z"/>
          </g>
          <g transform="translate(15)">
            <path d="M.6 8.4C.5 8.4.5 8.4.4 8.4.3 8.4.3 8.3.2 8.3.2 8.3.1 8.2.1 8.1.1 8 .1 8 .1 7.9.1 7.8.1 7.8.1 7.7.1 7.6.2 7.6.2 7.5.3 7.4.6 7.3.7 7.4.8 7.4.8 7.5.9 7.5.9 7.6 1 7.6 1 7.7 1 7.8 1 7.8 1 7.9 1 8 1 8 1 8.1 1 8.2.9 8.2.9 8.3.9 8.3.8 8.4.6 8.4zM1 5.4C.8 5.3.6 5 .8 4.7L.8 4.7.8 4.7.8 4.7C.9 4.5 1.2 4.3 1.5 4.4L1.5 4.4C1.8 4.5 1.9 4.8 1.8 5.1L1.8 5.1C1.7 5.3 1.5 5.4 1.3 5.4L1.3 5.4C1.2 5.5 1.1 5.4 1 5.4zM14.5 6L14.5 6C14.4 5.7 14.6 5.5 14.8 5.4L14.8 5.4C15.1 5.3 15.3 5.5 15.4 5.8L15.4 5.8C15.4 5.8 15.4 5.8 15.4 5.8L15.4 5.8C15.5 6.1 15.3 6.3 15 6.4L15 6.4C15 6.4 14.9 6.4 14.9 6.4L14.9 6.4C14.8 6.4 14.6 6.2 14.5 6zM13.2 3.6C13 3.4 13 3.1 13.3 2.9L13.3 2.9C13.5 2.7 13.8 2.8 14 3L14 3C14.2 3.2 14.1 3.5 13.9 3.7L13.9 3.7C13.8 3.8 13.7 3.8 13.6 3.8L13.6 3.8C13.5 3.7 13.3 3.7 13.2 3.6zM2.6 2.9C2.4 2.7 2.4 2.4 2.6 2.2L2.6 2.2 2.6 2.2 2.6 2.2C2.8 2 3.1 2 3.3 2.2L3.3 2.2C3.5 2.4 3.5 2.7 3.3 2.9L3.3 2.9C3.2 3 3.1 3 3 3L3 3C2.8 3 2.7 3 2.6 2.9zM11.1 1.8C10.9 1.7 10.8 1.4 10.9 1.1L10.9 1.1C11 .9 11.3.8 11.6.9L11.6.9C11.8 1 11.9 1.3 11.8 1.6L11.8 1.6C11.7 1.8 11.5 1.9 11.3 1.9L11.3 1.9C11.2 1.9 11.2 1.8 11.1 1.8zM5 1.1C4.9.8 5 .6 5.3.5L5.3.5C5.6.4 5.9.5 5.9.8L5.9.8C6 1 5.9 1.3 5.6 1.4L5.6 1.4C5.5 1.4 5.5 1.4 5.4 1.4L5.4 1.4C5.3 1.5 5.1 1.3 5 1.1zM8.4 1.1C8.1 1.1 7.9.9 7.9.6L7.9.6C7.9.3 8.2.1 8.4.1L8.4.1C8.7.1 8.9.3 8.9.6L8.9.6C8.9.9 8.7 1.1 8.4 1.1L8.4 1.1C8.4 1.1 8.4 1.1 8.4 1.1zM15.3 9.4C15.2 9.4 15.2 9.4 15.1 9.4 15 9.4 15 9.3 14.9 9.3 14.9 9.3 14.8 9.2 14.8 9.1 14.8 9 14.8 9 14.8 8.9 14.8 8.8 14.8 8.6 14.9 8.6 15.1 8.4 15.4 8.4 15.6 8.6 15.7 8.7 15.8 8.8 15.8 8.9 15.8 9 15.8 9 15.8 9.1 15.8 9.2 15.7 9.2 15.7 9.3 15.5 9.3 15.4 9.4 15.3 9.4z"/>
          </g>
          <g transform="translate(0 8)">
            <path d="M.9 1.3C.8 1.3.6 1.2.6 1.2.5 1.1.4 1 .4.8.4.7.5.5.6.4.7.3 1 .2 1.1.3 1.2.3 1.2.4 1.3.4 1.3.4 1.4.5 1.4.6 1.4.7 1.4.7 1.4.8 1.4.9 1.4.9 1.4 1 1.4 1.1 1.3 1.1 1.3 1.2 1.2 1.3 1.1 1.3.9 1.3zM.4 3.3C.4 3 .6 2.8.9 2.8L.9 2.8C1.2 2.8 1.4 3 1.4 3.3L1.4 3.3C1.4 3.6 1.2 3.8.9 3.8L.9 3.8C.7 3.8.4 3.6.4 3.3zM5.6 11.7L5.6 11.7C5.3 11.6 5.2 11.3 5.3 11.1L5.3 11.1C5.4 10.8 5.7 10.7 5.9 10.8L5.9 10.8C6.2 10.9 6.3 11.2 6.2 11.4L6.2 11.4C6.1 11.6 5.9 11.7 5.7 11.7L5.7 11.7C5.8 11.7 5.7 11.7 5.6 11.7zM3.3 10.4C3.1 10.2 3.1 9.9 3.2 9.7L3.2 9.7C3.4 9.5 3.7 9.5 3.9 9.6L3.9 9.6C4.1 9.8 4.1 10.1 4 10.3L4 10.3C3.9 10.4 3.8 10.5 3.6 10.5L3.6 10.5C3.5 10.5 3.4 10.5 3.3 10.4zM1.6 8.4C1.4 8.2 1.5 7.9 1.8 7.7L1.8 7.7C2 7.6 2.3 7.6 2.5 7.9L2.5 7.9C2.6 8.1 2.6 8.4 2.3 8.6L2.3 8.6C2.2 8.6 2.1 8.7 2 8.7L2 8.7C1.8 8.6 1.7 8.5 1.6 8.4zM.6 5.9C.5 5.6.7 5.4 1 5.3L1 5.3C1.3 5.2 1.5 5.4 1.6 5.7L1.6 5.7C1.6 6 1.5 6.2 1.2 6.3L1.2 6.3C1.2 6.3 1.1 6.3 1.1 6.3L1.1 6.3C.9 6.3.6 6.2.6 5.9zM8.3 12.1C8.2 12.1 8.2 12.1 8.1 12.1 8 12.1 8 12 7.9 12 7.8 11.9 7.7 11.8 7.7 11.6 7.7 11.5 7.7 11.5 7.7 11.4 7.7 11.3 7.8 11.3 7.8 11.2 7.8 11.2 7.9 11.1 8 11.1 8.2 11 8.4 11.1 8.5 11.2 8.6 11.3 8.6 11.4 8.6 11.5 8.6 11.6 8.6 11.8 8.5 11.9 8.5 12.1 8.4 12.1 8.3 12.1z"/>
          </g>
          <g transform="translate(7 7)">
            <path d="M1.3 13.1C1.2 13.1 1.2 13.1 1.1 13.1.8 13 .7 12.7.8 12.4.9 12.2 1.1 12 1.4 12.1 1.6 12.1 1.8 12.3 1.8 12.6 1.8 12.9 1.6 13.1 1.3 13.1zM3.4 12.3C3.3 12 3.4 11.8 3.7 11.7L3.7 11.7 3.7 11.7 3.7 11.7C4 11.6 4.2 11.7 4.3 12L4.3 12C4.4 12.2 4.3 12.5 4 12.6L4 12.6C3.9 12.6 3.9 12.6 3.8 12.6L3.8 12.6C3.7 12.7 3.5 12.5 3.4 12.3zM5.8 11.1C5.6 10.9 5.6 10.6 5.8 10.4L5.8 10.4 5.8 10.4 5.8 10.4C6 10.2 6.3 10.2 6.5 10.4L6.5 10.4C6.7 10.6 6.7 10.9 6.5 11.1L6.5 11.1C6.4 11.2 6.3 11.2 6.2 11.2L6.2 11.2C6 11.3 5.9 11.2 5.8 11.1zM7.5 9.2C7.3 9.1 7.2 8.8 7.3 8.5L7.3 8.5C7.4 8.3 7.7 8.2 8 8.3L8 8.3C8.2 8.4 8.3 8.7 8.2 9L8.2 9C8.1 9.2 7.9 9.3 7.7 9.3L7.7 9.3C7.7 9.2 7.6 9.2 7.5 9.2zM8.5 6.7C8.2 6.7 8 6.4 8.1 6.1L8.1 6.1C8.1 5.8 8.4 5.6 8.7 5.7L8.7 5.7C9 5.7 9.2 6 9.1 6.3L9.1 6.3C9 6.5 8.8 6.7 8.5 6.7L8.5 6.7C8.5 6.7 8.5 6.7 8.5 6.7zM8.1 3.5C8.1 3.2 8.3 3 8.6 3L8.6 3C8.9 3 9.1 3.2 9.1 3.5L9.1 3.5C9.1 3.8 8.9 4 8.6 4L8.6 4C8.3 4 8.1 3.8 8.1 3.5zM8.6 1.4C8.5 1.4 8.5 1.4 8.4 1.4 8.3 1.4 8.3 1.3 8.2 1.3 8.2 1.3 8.1 1.2 8.1 1.1 8.1 1 8.1 1 8.1.9 8.1.8 8.2.6 8.3.5 8.4.4 8.7.3 8.8.4 8.9.4 8.9.5 9 .5 9.1.6 9.1.7 9.1.9 9.1 1 9.1 1 9.1 1.1 9.1 1.2 9 1.2 9 1.3 8.9 1.3 8.8 1.4 8.6 1.4z"/>
          </g>
        </g>
        <g transform="translate(44)">
          <path d="M1.3 8.3C1.2 8.3 1.1 8.3 1 8.2 1 8.2.9 8.1.9 8 .9 7.9.9 7.9.9 7.8.9 7.7.9 7.7.9 7.6.9 7.5 1 7.5 1 7.4 1.2 7.2 1.5 7.2 1.7 7.4 1.7 7.4 1.8 7.5 1.8 7.6 1.8 7.7 1.8 7.7 1.8 7.8 1.8 7.9 1.8 7.9 1.8 8 1.8 8.1 1.7 8.1 1.7 8.2 1.5 8.3 1.4 8.3 1.3 8.3zM1.7 5.3C1.4 5.2 1.3 4.9 1.4 4.6L1.4 4.6C1.5 4.4 1.8 4.2 2.1 4.3L2.1 4.3C2.3 4.4 2.5 4.7 2.4 5L2.4 5C2.3 5.2 2.1 5.3 1.9 5.3L1.9 5.3C1.8 5.4 1.7 5.4 1.7 5.3zM15.2 5.9L15.2 5.9C15.1 5.6 15.3 5.4 15.5 5.3L15.5 5.3C15.8 5.2 16 5.4 16.1 5.6L16.1 5.6C16.1 5.6 16.1 5.6 16.1 5.6L16.1 5.6C16.2 5.9 16 6.1 15.8 6.2L15.8 6.2C15.8 6.2 15.7 6.2 15.7 6.2L15.7 6.2C15.5 6.3 15.2 6.2 15.2 5.9zM13.9 3.5L13.9 3.5C13.7 3.3 13.8 3 14 2.8L14 2.8C14.2 2.6 14.5 2.7 14.7 2.9L14.7 2.9 14.7 2.9 14.7 2.9C14.9 3.1 14.8 3.4 14.6 3.6L14.6 3.6C14.5 3.7 14.4 3.7 14.3 3.7L14.3 3.7C14.1 3.7 14 3.6 13.9 3.5zM3.2 2.8C3 2.6 3 2.3 3.2 2.1L3.2 2.1 3.2 2.1 3.2 2.1C3.4 1.9 3.7 1.9 3.9 2.1L3.9 2.1C4.1 2.3 4.1 2.6 3.9 2.8L3.9 2.8C3.8 2.9 3.7 2.9 3.6 2.9L3.6 2.9C3.5 2.9 3.3 2.9 3.2 2.8zM11.7 1.7C11.5 1.6 11.4 1.3 11.5 1L11.5 1C11.6.8 11.9.7 12.2.8L12.2.8C12.4.9 12.5 1.2 12.4 1.5L12.4 1.5C12.3 1.7 12.1 1.8 12 1.8L12 1.8C11.9 1.8 11.8 1.8 11.7 1.7zM5.7 1.1C5.6.8 5.7.6 6 .5L6 .5C6.3.4 6.5.5 6.6.8L6.6.8C6.7 1.1 6.6 1.3 6.3 1.4L6.3 1.4C6.2 1.4 6.2 1.4 6.1 1.4L6.1 1.4C5.9 1.4 5.7 1.3 5.7 1.1zM9.1 1C8.8 1 8.6.7 8.6.5L8.6.5C8.6.2 8.8 0 9.1 0L9.1 0C9.4 0 9.6.3 9.6.5L9.6.5C9.6.8 9.4 1 9.1 1L9.1 1C9.1 1 9.1 1 9.1 1zM15.9 9.3C15.8 9.3 15.6 9.3 15.6 9.2 15.5 9.1 15.4 9 15.4 8.8 15.4 8.7 15.5 8.5 15.6 8.4 15.7 8.3 16 8.2 16.1 8.3 16.2 8.3 16.2 8.4 16.3 8.4 16.4 8.5 16.4 8.6 16.4 8.8 16.4 8.9 16.4 9.1 16.3 9.2 16.2 9.3 16.1 9.3 15.9 9.3z"/>
        </g>
        <g transform="translate(37 7)">
          <path d="M.9 13.1C.6 13.1.4 12.9.4 12.6.4 12.3.6 12.1.9 12.1L.9 12.1C1.2 12.1 1.4 12.3 1.4 12.6 1.4 12.9 1.2 13.1.9 13.1zM3.1 12.3C3 12 3.1 11.8 3.4 11.7L3.4 11.7 3.4 11.7 3.4 11.7C3.6 11.6 3.9 11.7 4 12L4 12C4.1 12.3 4 12.5 3.7 12.6L3.7 12.6C3.6 12.6 3.6 12.6 3.5 12.6L3.5 12.6C3.3 12.6 3.1 12.5 3.1 12.3zM5.4 11.1C5.2 10.9 5.2 10.6 5.4 10.4L5.4 10.4C5.6 10.2 5.9 10.2 6.1 10.4L6.1 10.4C6.3 10.6 6.3 10.9 6.1 11.1L6.1 11.1C6 11.2 5.9 11.2 5.8 11.2L5.8 11.2C5.7 11.2 5.5 11.2 5.4 11.1zM7.2 9.1C7 9 6.9 8.7 7 8.4L7 8.4C7 8.4 7 8.4 7 8.4L7 8.4C7.1 8.2 7.4 8.1 7.7 8.2L7.7 8.2C7.9 8.3 8 8.6 7.9 8.9L7.9 8.9C7.8 9.1 7.6 9.2 7.4 9.2L7.4 9.2C7.3 9.1 7.3 9.1 7.2 9.1zM8.1 6.6C7.8 6.6 7.6 6.3 7.7 6L7.7 6C7.7 6 7.7 6 7.7 6L7.7 6C7.7 5.7 8 5.5 8.3 5.6L8.3 5.6C8.6 5.6 8.8 5.9 8.7 6.2L8.7 6.2C8.7 6.4 8.5 6.6 8.1 6.6L8.1 6.6C8.2 6.6 8.2 6.6 8.1 6.6zM7.8 3.5C7.8 3.2 8 3 8.3 3L8.3 3C8.6 3 8.8 3.2 8.8 3.5L8.8 3.5C8.8 3.8 8.6 4 8.3 4L8.3 4C8 4 7.8 3.7 7.8 3.5zM8.3 1.3C8.2 1.3 8 1.3 8 1.2 7.9 1.2 7.9 1.1 7.9 1 7.9.9 7.9.9 7.9.8 7.9.7 7.9.7 7.9.6 7.9.5 8 .5 8 .4 8 .4 8.1.3 8.2.3 8.4.2 8.6.3 8.8.4 8.8.4 8.9.5 8.9.6 8.9.7 8.9.7 8.9.8 8.9.9 8.9.9 8.9 1 8.9 1.1 8.8 1.1 8.8 1.2 8.7 1.2 8.7 1.3 8.6 1.3 8.4 1.3 8.3 1.3 8.3 1.3z"/>
        </g>
        <g transform="translate(30 8)">
          <path d="M.6 1.3C.5 1.3.5 1.3.4 1.3.3 1.3.3 1.2.2 1.2.2 1.2.1 1.1.1 1 .1.9.1.9.1.8.1.7.1.7.1.6.1.5.2.5.2.4.4.2.7.2.9.4.9.4 1 .5 1 .6 1 .7 1 .7 1 .8 1 .9 1 .9 1 1 1 1.1.9 1.1.9 1.2.9 1.3.8 1.3.7 1.3.7 1.2.7 1.3.6 1.3zM.1 3.3C.1 3 .3 2.8.6 2.8L.6 2.8C.9 2.8 1.1 3 1.1 3.3L1.1 3.3C1.1 3.6.9 3.8.6 3.8L.6 3.8C.3 3.8.1 3.5.1 3.3zM5.3 11.6L5.3 11.6C5 11.5 4.9 11.2 5 11L5 11C5.1 10.7 5.4 10.6 5.6 10.7L5.6 10.7 5.6 10.7 5.6 10.7C5.9 10.8 6 11.1 5.9 11.3L5.9 11.3C5.8 11.5 5.6 11.6 5.4 11.6L5.4 11.6C5.4 11.6 5.3 11.6 5.3 11.6zM3 10.3L3 10.3C2.8 10.1 2.8 9.8 2.9 9.6L2.9 9.6C3.1 9.4 3.4 9.4 3.6 9.5L3.6 9.5 3.6 9.5 3.6 9.5C3.8 9.7 3.8 10 3.7 10.2L3.7 10.2C3.6 10.3 3.5 10.4 3.3 10.4L3.3 10.4C3.2 10.4 3.1 10.4 3 10.3zM1.2 8.3C1 8.1 1.1 7.8 1.4 7.6L1.4 7.6C1.6 7.4 1.9 7.5 2.1 7.8L2.1 7.8C2.2 8 2.2 8.3 1.9 8.5L1.9 8.5C1.8 8.5 1.7 8.6 1.6 8.6L1.6 8.6C1.5 8.6 1.3 8.5 1.2 8.3zM.3 5.8C.2 5.5.4 5.3.7 5.2L.7 5.2C1 5.1 1.2 5.3 1.3 5.6L1.3 5.6C1.3 5.9 1.2 6.1.9 6.2L.9 6.2C.9 6.2.8 6.2.8 6.2L.8 6.2C.5 6.2.3 6.1.3 5.8zM7.9 12.1C7.8 12.1 7.8 12.1 7.7 12.1 7.6 12.1 7.6 12 7.5 12 7.5 12 7.4 11.9 7.4 11.8 7.4 11.7 7.4 11.7 7.4 11.6 7.4 11.5 7.4 11.3 7.5 11.2 7.7 11 8 11 8.2 11.2 8.3 11.3 8.3 11.4 8.3 11.6 8.3 11.7 8.3 11.7 8.3 11.8 8.3 11.9 8.2 11.9 8.2 12 8.2 12 8.1 12.1 7.9 12.1z"/>
        </g>
        <g transform="translate(15)">
          <path d="M.9 8.3C.8 8.3.7 8.3.6 8.2.5 8.2.5 8.1.5 8 .5 7.9.5 7.9.5 7.8.5 7.7.5 7.7.5 7.6.5 7.5.6 7.5.6 7.4.8 7.2 1.1 7.2 1.3 7.4 1.3 7.4 1.4 7.5 1.4 7.6 1.4 7.7 1.4 7.7 1.4 7.8 1.4 7.9 1.3 8.1 1.3 8.2 1.2 8.3 1 8.3.9 8.3zM1.3 5.3C1.1 5.2.9 4.9 1 4.6L1 4.6C1.1 4.4 1.4 4.2 1.7 4.3L1.7 4.3C1.9 4.4 2.1 4.7 2 5L2 5C1.9 5.2 1.7 5.3 1.5 5.3L1.5 5.3C1.4 5.4 1.4 5.4 1.3 5.3zM14.8 5.9L14.8 5.9C14.7 5.6 14.9 5.3 15.1 5.3L15.1 5.3C15.4 5.2 15.6 5.4 15.7 5.6L15.7 5.6 15.7 5.6 15.7 5.6C15.8 5.9 15.6 6.1 15.4 6.2L15.4 6.2C15.4 6.2 15.3 6.2 15.3 6.2L15.3 6.2C15.1 6.3 14.9 6.2 14.8 5.9zM13.5 3.5C13.3 3.3 13.4 3 13.6 2.8L13.6 2.8C13.8 2.6 14.1 2.7 14.3 2.9L14.3 2.9 14.3 2.9 14.3 2.9C14.5 3.1 14.4 3.4 14.2 3.6L14.2 3.6C14.1 3.7 14 3.7 13.9 3.7L13.9 3.7C13.8 3.7 13.6 3.6 13.5 3.5zM2.9 2.8C2.7 2.6 2.7 2.3 2.9 2.1L2.9 2.1 2.9 2.1 2.9 2.1C3.1 1.9 3.4 1.9 3.6 2.1L3.6 2.1C3.8 2.3 3.8 2.6 3.6 2.8L3.6 2.8C3.5 2.9 3.4 2.9 3.3 2.9L3.3 2.9C3.1 2.9 3 2.9 2.9 2.8zM11.4 1.7C11.2 1.6 11.1 1.3 11.2 1L11.2 1C11.3.8 11.6.7 11.9.8L11.9.8C12.1.9 12.2 1.2 12.1 1.5L12.1 1.5C12 1.7 11.8 1.8 11.6 1.8L11.6 1.8C11.5 1.8 11.5 1.8 11.4 1.7zM5.3 1.1C5.2.8 5.3.6 5.6.5L5.6.5C5.9.4 6.1.5 6.2.8L6.2.8C6.3 1.1 6.2 1.3 5.9 1.4L5.9 1.4C5.9 1.4 5.8 1.4 5.7 1.4L5.7 1.4C5.6 1.4 5.4 1.3 5.3 1.1zM8.7 1C8.4 1 8.2.7 8.2.5L8.2.5C8.2.2 8.5 0 8.7 0L8.7 0C9 0 9.2.3 9.2.5L9.2.5C9.2.8 9 1 8.7 1L8.7 1C8.7 1 8.7 1 8.7 1zM15.6 9.3C15.5 9.3 15.5 9.3 15.4 9.3 15.3 9.3 15.3 9.2 15.2 9.2 15.1 9.1 15.1 9 15.1 8.8 15.1 8.7 15.1 8.5 15.2 8.4 15.4 8.2 15.7 8.2 15.9 8.4 16 8.5 16 8.6 16 8.8 16 8.9 15.9 9.1 15.9 9.2 15.8 9.2 15.8 9.3 15.7 9.3 15.7 9.3 15.6 9.3 15.6 9.3z"/>
        </g>
        <g transform="translate(0 8)">
          <path d="M1.2 1.3C1.1 1.3.9 1.3.8 1.1.8 1.1.7 1 .7.9.7.8.7.8.7.7.7.6.7.6.7.5.7.4.8.4.8.3 1 .1 1.3.1 1.5.3 1.5.3 1.6.4 1.6.5 1.6.6 1.6.6 1.6.7 1.6.8 1.6.8 1.6.9 1.6 1 1.5 1 1.5 1.1 1.5 1.2 1.4 1.3 1.2 1.3zM.7 3.3C.7 3 .9 2.8 1.2 2.8L1.2 2.8C1.5 2.8 1.7 3 1.7 3.3L1.7 3.3C1.7 3.6 1.5 3.8 1.2 3.8L1.2 3.8C1 3.8.7 3.5.7 3.3zM5.9 11.6L5.9 11.6C5.6 11.5 5.5 11.2 5.6 11L5.6 11C5.7 10.7 6 10.6 6.2 10.7L6.2 10.7C6.5 10.8 6.6 11.1 6.5 11.3L6.5 11.3C6.4 11.5 6.2 11.6 6 11.6L6 11.6C6 11.6 6 11.6 5.9 11.6zM3.6 10.3C3.4 10.1 3.4 9.8 3.5 9.6L3.5 9.6C3.7 9.4 4 9.4 4.2 9.5L4.2 9.5C4.4 9.7 4.4 10 4.3 10.2L4.3 10.2C4.2 10.3 4.1 10.4 3.9 10.4L3.9 10.4C3.8 10.4 3.7 10.4 3.6 10.3zM1.9 8.3C1.8 8.1 1.8 7.8 2.1 7.6L2.1 7.6C2.3 7.4 2.6 7.5 2.8 7.8L2.8 7.8C2.9 8 2.9 8.3 2.6 8.5L2.6 8.5C2.5 8.5 2.4 8.6 2.3 8.6L2.3 8.6C2.1 8.6 2 8.5 1.9 8.3zM.9 5.8C.8 5.5 1 5.3 1.3 5.2L1.3 5.2C1.6 5.1 1.8 5.3 1.9 5.6L1.9 5.6C2 5.9 1.8 6.1 1.5 6.2L1.5 6.2C1.5 6.2 1.4 6.2 1.4 6.2L1.4 6.2C1.2 6.2.9 6.1.9 5.8zM8.6 12.1C8.5 12.1 8.5 12.1 8.4 12.1 8.3 12.1 8.3 12 8.2 12 8.2 12 8.1 11.9 8.1 11.8 8.1 11.7 8.1 11.7 8.1 11.6 8.1 11.5 8.1 11.3 8.2 11.2 8.4 11 8.7 11 8.9 11.2 9 11.3 9 11.4 9 11.6 9 11.7 9 11.7 9 11.8 9 11.9 8.9 11.9 8.9 12 8.8 12 8.7 12.1 8.6 12.1z"/>
        </g>
        <g transform="translate(8 7)">
          <path d="M.6 13.1C.3 13.1.1 12.9.1 12.6.1 12.3.3 12.1.6 12.1L.6 12.1C.9 12.1 1.1 12.3 1.1 12.6 1.1 12.9.8 13.1.6 13.1zM2.7 12.3C2.6 12 2.7 11.8 3 11.7L3 11.7 3 11.7 3 11.7C3.3 11.6 3.5 11.7 3.6 12L3.6 12C3.7 12.3 3.6 12.5 3.3 12.6L3.3 12.6C3.2 12.6 3.2 12.6 3.1 12.6L3.1 12.6C3 12.6 2.8 12.5 2.7 12.3zM5.1 11.1C4.9 10.9 4.9 10.6 5.1 10.4L5.1 10.4C5.3 10.2 5.6 10.2 5.8 10.4L5.8 10.4C6 10.6 6 10.9 5.8 11.1L5.8 11.1C5.7 11.2 5.6 11.2 5.5 11.2L5.5 11.2C5.3 11.2 5.2 11.2 5.1 11.1zM6.8 9.1C6.6 9 6.5 8.7 6.6 8.4L6.6 8.4C6.7 8.2 7 8.1 7.3 8.2L7.3 8.2C7.5 8.3 7.6 8.6 7.5 8.9L7.5 8.9C7.4 9.1 7.2 9.2 7.1 9.2L7.1 9.2C7 9.1 6.9 9.1 6.8 9.1zM7.8 6.6C7.5 6.6 7.3 6.3 7.4 6L7.4 6C7.4 6 7.4 6 7.4 6L7.4 6C7.4 5.7 7.7 5.5 7.9 5.6L7.9 5.6C8.2 5.6 8.4 5.9 8.3 6.2L8.3 6.2C8.3 6.4 8.1 6.6 7.8 6.6L7.8 6.6C7.8 6.6 7.8 6.6 7.8 6.6zM7.4 3.5C7.4 3.2 7.6 3 7.9 3L7.9 3C8.2 3 8.4 3.2 8.4 3.5L8.4 3.5C8.4 3.8 8.2 4 7.9 4L7.9 4C7.6 4 7.4 3.7 7.4 3.5zM7.9 1.3C7.8 1.3 7.6 1.3 7.5 1.2 7.5 1.2 7.4 1.1 7.4 1 7.4.9 7.4.9 7.4.8 7.4.7 7.4.7 7.4.6 7.4.5 7.5.5 7.5.4 7.7.2 8 .2 8.2.4 8.3.4 8.3.5 8.3.6 8.3.7 8.3.7 8.3.8 8.3.9 8.3 1.1 8.2 1.2 8.2 1.3 8 1.3 7.9 1.3z"/>
        </g>
      </g>
      <g transform="translate(169 20)">
        <g fill="#333838" fill-rule="nonzero" transform="translate(13 28)">
          <path d="M.6.2C1 .2 1.6.3 2 .3 2.3.3 2.7.3 3 .3 3.2.3 3.3.3 3.3.4 3.3.5 3.2.5 3 .5 2.6.6 2.6.8 2.7 1 3.3 2.6 4.8 5.7 5.8 8 5.8 8.1 5.9 8.1 5.9 8 6.3 7.1 6.7 6.4 7.1 5.4 7.1 5.4 7.1 5.3 7.1 5.2 6.9 4.6 5.9 2.4 5.5 1.6 5.1.7 4.9.5 4.5.4 4.3.4 4.2.3 4.2.2 4.2.2 4.3.1 4.5.1 4.9.1 5.2.2 5.8.2 6.4.2 6.7.1 7 .1 7.1.1 7.3.1 7.3.2 7.3.3 7.2.3 7 .4 6.6.5 6.4.7 6.7 1.2 6.9 1.8 7.4 2.8 7.9 4 7.9 4 8 4 8 4 8.4 3.3 8.7 2.6 9 1.8 9.5.7 9.4.6 8.8.4 8.5.3 8.5.3 8.5.2 8.5.2 8.6.1 8.8.1 9.2.1 9.4.1 9.8.1 10.3.1 10.6 5.68434189e-14 10.9 5.68434189e-14 11.1 5.68434189e-14 11.2 5.68434189e-14 11.2.1 11.2.2 11.1.2 10.9.3 10.3.4 10.1.7 9.6 1.6 9.2 2.3 8.5 3.8 8.2 4.3 8.2 4.3 8.2 4.4 8.2 4.5 8.6 5.4 9.2 6.8 9.7 7.9 9.8 8 9.8 8 9.8 7.9 10.5 6.3 12.3 2.2 12.6 1 12.7.7 12.7.4 12.2.3 12 .2 11.9.2 11.9.1 11.9 5.68434189e-14 11.9 5.68434189e-14 12.2 5.68434189e-14 12.6 5.68434189e-14 12.8.1 13.2.1 13.6.1 14 5.68434189e-14 14.3 5.68434189e-14 14.5 5.68434189e-14 14.6 5.68434189e-14 14.6.1 14.6.2 14.5.2 14.3.3 13.7.5 13.4.8 12.5 2.9 11.6 5 10.3 7.8 9.7 9.4 9.6 9.7 9.6 9.7 9.5 9.7 9.4 9.7 9.3 9.6 9.2 9.4 8.9 8.5 8 6.6 7.6 5.7 7.6 5.6 7.5 5.6 7.5 5.7 6.9 6.8 6.1 8.6 5.8 9.4 5.7 9.6 5.6 9.8 5.6 9.8 5.5 9.8 5.5 9.7 5.4 9.4 5.2 8.9 4.7 7.8 4.5 7.4 3.7 5.5 2.7 3.3 2 1.8 1.5.6 1.3.4.8.3.6.3.5.2.5.2.3.2.4.2.6.2zM16.4 4.8C16.5 5.1 16.6 5.7 16.6 6.2 16.6 6.8 16.6 8.2 16.6 8.6 16.6 8.9 16.7 9.2 17.2 9.2 17.3 9.2 17.5 9.2 17.6 9.1 17.7 9.1 17.8 9.1 17.7 9.2 17.5 9.6 17 9.8 16.5 9.8 16.1 9.8 15.8 9.5 15.6 9.1 15.6 9.1 15.5 9.1 15.5 9.1 15.1 9.5 14.6 9.8 14 9.8 13.4 9.8 12.8 9.3 12.8 8.5 12.8 8 13.2 7.7 13.3 7.6 13.7 7.4 15 7 15.3 6.9 15.4 6.9 15.5 6.7 15.5 6.7 15.5 6.5 15.5 6.2 15.5 6 15.5 5.4 15.4 5 15.1 4.8 14.9 4.6 14.7 4.6 14.5 4.6 14.3 4.6 14.1 4.6 13.9 4.8 13.8 4.9 13.7 5 13.7 5.2 13.7 5.3 13.7 5.4 13.7 5.5 13.7 5.5 13.7 5.6 13.6 5.6 13.4 5.7 13 5.9 12.9 5.9 12.8 5.9 12.8 5.8 12.8 5.8 12.8 5.7 12.9 5.6 13.1 5.4 13.4 5 13.9 4.7 14.2 4.5 14.5 4.3 14.8 4.2 15.1 4.2 15.8 4.1 16.2 4.4 16.4 4.8zM15.4 9C15.5 8.9 15.5 8.8 15.6 8.6 15.6 8.3 15.7 7.7 15.7 7.2 15.7 7.2 15.7 7.1 15.6 7.1 15.4 7.1 14.5 7.4 14.2 7.6 14 7.7 13.8 7.9 13.8 8.3 13.8 8.8 14.2 9.1 14.7 9.1 15 9.2 15.2 9.1 15.4 9zM18.7 9.1C18.6 8.9 18.5 8.6 18.5 8.2L18.5 5.1C18.5 4.9 18.5 4.8 18.4 4.8 18.3 4.8 18.2 4.7 18 4.7 17.9 4.7 17.8 4.6 17.8 4.6 17.8 4.6 17.8 4.5 18 4.4 18.4 4.3 18.9 3.9 19.2 3.4 19.3 3.3 19.4 3.3 19.4 3.4 19.4 3.5 19.4 4 19.4 4.1 19.4 4.1 19.4 4.2 19.5 4.2 19.8 4.2 21 4.2 21.3 4.2 21.3 4.2 21.4 4.3 21.4 4.4 21.4 4.7 21.3 4.8 21.3 4.8 20.8 4.8 20 4.8 19.6 4.8 19.4 4.8 19.4 4.8 19.4 4.9 19.4 5.2 19.4 7.5 19.4 8 19.4 8.5 19.5 8.7 19.6 8.8 19.8 9.1 20.1 9.2 20.5 9.2 20.9 9.2 21.2 9.1 21.3 9 21.4 8.9 21.4 8.9 21.4 9 21.4 9.1 21.3 9.2 21.1 9.4 20.8 9.7 20.3 9.8 19.9 9.8 19.4 9.8 18.9 9.5 18.7 9.1zM26.5 5.6C26.5 5.7 26.4 5.8 26.4 5.8 26.3 5.8 24.3 5.8 24 5.8L23.2 5.8C23.2 5.8 23.1 5.9 23.1 5.9 23 6.1 23 6.3 23 6.7 23 7.5 23.3 8.1 23.7 8.5 24.1 8.9 24.7 9.1 25.2 9.1 25.8 9.1 26.3 9 26.6 8.6 26.7 8.5 26.8 8.5 26.8 8.6 26.8 8.6 26.7 8.7 26.6 8.8 26 9.4 25.4 9.7 24.5 9.7 23.8 9.7 23.2 9.4 22.7 8.9 22.3 8.4 22 7.7 22 6.9 22 6.2 22.2 5.3 22.9 4.7 23.3 4.3 24 4 24.8 4 25.5 4.1 26.5 4.7 26.5 5.6zM23.4 4.8C23.2 5 23.1 5.3 23.1 5.4 23.1 5.4 23.1 5.5 23.2 5.5L25.1 5.5C25.4 5.5 25.5 5.3 25.5 5.2 25.5 5 25.5 4.8 25.3 4.6 25.2 4.5 24.9 4.3 24.6 4.3 24.1 4.3 23.8 4.5 23.4 4.8zM29.1 5.2C28.9 5.4 28.9 5.5 28.8 5.7 28.8 5.9 28.8 6.3 28.8 6.6 28.8 7.7 28.8 8.5 28.9 8.8 29 9.3 29.1 9.4 29.7 9.4 29.9 9.4 30 9.5 30 9.5 30 9.5 29.9 9.6 29.6 9.6 29.3 9.6 28.8 9.5 28.2 9.5 27.7 9.5 27.5 9.6 27.3 9.6 27.1 9.6 27 9.6 27 9.5 27 9.5 27.1 9.4 27.2 9.4 27.5 9.3 27.7 9.2 27.7 8.8 27.7 8.5 27.7 7.7 27.7 6.7 27.7 5.8 27.7 5.2 27.7 5 27.7 4.9 27.6 4.9 27.3 4.6 27.2 4.5 27.2 4.5 27.2 4.5 27.2 4.5 27.3 4.4 27.4 4.4 27.7 4.3 28.1 4.2 28.4 4 28.5 3.9 28.6 3.9 28.6 3.9 28.6 3.9 28.7 4 28.7 4.1 28.7 4.3 28.7 4.8 28.7 5.1 28.7 5.1 28.7 5.2 28.8 5.1 29.2 4.6 29.8 4 30.4 4 30.6 4 30.8 4.1 30.9 4.2 31 4.3 31 4.3 31 4.4 31 4.5 30.8 4.7 30.7 4.9 30.6 5 30.5 5 30.5 5 30.5 5 30.4 5 30.2 4.9 30 4.8 29.8 4.7 29.7 4.7 29.6 4.9 29.3 5 29.1 5.2zM10.9 17C11 17.1 11.1 17.2 11.1 17.3 11.1 17.7 11.1 18.3 11.1 18.5 11.1 18.7 11 18.7 11 18.7 10.9 18.7 10.9 18.6 10.9 18.5 10.8 18 10.5 17.5 10.2 17.3 9.6 16.8 8.8 16.6 7.9 16.6 6.8 16.6 5.9 17.1 5.3 17.8 4.7 18.5 4.2 19.8 4.2 21.3 4.2 22.6 4.8 24.1 5.6 24.9 6.3 25.7 7.4 26 8.2 26 9.1 26 9.6 25.8 10 25.6 10.6 25.3 10.9 24.7 11.2 24.1 11.3 23.9 11.3 23.8 11.4 23.8 11.5 23.8 11.5 23.9 11.5 24 11.5 24.3 11.3 25 11.3 25.2 11.3 25.3 11.2 25.4 11.2 25.4 10.3 25.9 9.5 26.2 8.3 26.2 6.5 26.2 5.3 25.5 4.4 24.6 3.8 24 3.1 22.6 3.1 21.3 3.1 19.5 3.8 18.4 4.8 17.5 5.6 16.8 6.9 16.3 8.3 16.3 9.1 16.3 10.4 16.8 10.9 17zM15.6 21.2C15.7 21.5 15.8 22.1 15.8 22.6 15.8 23.2 15.8 24.6 15.8 25 15.8 25.3 15.9 25.6 16.4 25.6 16.5 25.6 16.7 25.6 16.8 25.5 16.9 25.5 17 25.5 16.9 25.6 16.7 26 16.2 26.2 15.7 26.2 15.3 26.2 15 25.9 14.8 25.5 14.8 25.5 14.7 25.5 14.7 25.5 14.3 25.9 13.8 26.2 13.2 26.2 12.6 26.2 12 25.7 12 24.9 12 24.4 12.4 24.1 12.5 24 12.9 23.8 14.2 23.4 14.5 23.3 14.6 23.3 14.7 23.1 14.7 23.1 14.7 22.9 14.7 22.6 14.7 22.4 14.7 21.8 14.6 21.4 14.3 21.2 14.1 21 13.9 21 13.7 21 13.5 21 13.3 21 13.1 21.2 13 21.3 12.9 21.4 12.9 21.6 12.9 21.7 12.9 21.8 12.9 21.9 12.9 21.9 12.9 22 12.8 22 12.6 22.1 12.2 22.3 12.1 22.3 12 22.3 12 22.2 12 22.2 12 22.1 12.1 22 12.3 21.8 12.6 21.4 13.1 21.1 13.4 20.9 13.7 20.7 14 20.6 14.3 20.6 15 20.4 15.4 20.7 15.6 21.2zM14.6 25.3C14.7 25.2 14.7 25.1 14.8 24.9 14.8 24.6 14.9 24 14.9 23.5 14.9 23.5 14.9 23.4 14.8 23.4 14.6 23.4 13.7 23.7 13.4 23.9 13.2 24 13 24.2 13 24.6 13 25.1 13.4 25.4 13.9 25.4 14.2 25.5 14.4 25.4 14.6 25.3zM22.1 20.9C22.4 21.3 22.6 22 22.6 22.9 22.6 23.7 22.6 23.8 22.6 24.6 22.6 25.6 22.7 25.7 23.1 25.8 23.2 25.9 23.3 25.9 23.3 25.9 23.3 26 23.2 26 23 26 22.8 26 22.4 25.9 22 25.9 21.5 25.9 21.3 26 21.1 26 21 26 20.9 26 20.9 25.9 20.9 25.8 21 25.8 21.2 25.7 21.6 25.6 21.6 25.5 21.6 25.1L21.6 23.1C21.6 21.9 21.5 21.5 21.1 21.2 20.9 21 20.6 20.9 20.2 20.9 19.8 20.9 19.4 21.1 19 21.4 18.9 21.5 18.8 21.7 18.8 21.8 18.8 22 18.8 22.7 18.8 23.6 18.8 24.6 18.9 25 18.9 25.2 18.9 25.5 19.1 25.6 19.4 25.7 19.6 25.7 19.7 25.8 19.7 25.8 19.7 25.9 19.6 25.9 19.4 25.9 19.3 25.9 18.5 25.8 18.2 25.8 18 25.8 17.7 25.8 17.4 25.8 17.2 25.8 17.1 25.8 17.1 25.7 17.1 25.6 17.2 25.6 17.4 25.6 17.8 25.5 17.8 25.4 17.8 25.1 17.8 24 17.8 22.6 17.8 21.4 17.8 21.3 17.8 21.1 17.4 20.9 17.3 20.8 17.3 20.8 17.3 20.8 17.3 20.8 17.4 20.7 17.5 20.7 17.8 20.6 18.4 20.4 18.7 20.2 18.7 20.2 18.8 20.2 18.8 20.3 18.8 20.5 18.8 20.9 18.8 21.1 18.8 21.1 18.8 21.2 18.9 21.1 19.3 20.8 19.6 20.6 20 20.4 20.3 20.2 20.6 20.2 20.9 20.2 21.5 20.4 21.9 20.7 22.1 20.9zM27.4 21.2C27.5 21.5 27.6 22.1 27.6 22.6 27.6 23.2 27.6 24.6 27.6 25 27.6 25.3 27.7 25.6 28.2 25.6 28.3 25.6 28.5 25.6 28.6 25.5 28.7 25.5 28.8 25.5 28.7 25.6 28.5 26 28 26.2 27.5 26.2 27.1 26.2 26.8 25.9 26.6 25.5 26.6 25.5 26.5 25.5 26.5 25.5 26.1 25.9 25.6 26.2 25 26.2 24.4 26.2 23.8 25.7 23.8 24.9 23.8 24.4 24.2 24.1 24.3 24 24.7 23.8 26 23.4 26.3 23.3 26.4 23.3 26.5 23.1 26.5 23.1 26.5 22.9 26.5 22.6 26.5 22.4 26.5 21.8 26.4 21.4 26.1 21.2 25.9 21 25.7 21 25.5 21 25.3 21 25.1 21 24.9 21.2 24.8 21.3 24.7 21.4 24.7 21.6 24.7 21.7 24.7 21.8 24.7 21.9 24.7 21.9 24.7 22 24.6 22 24.4 22.1 24 22.3 23.9 22.3 23.8 22.3 23.8 22.2 23.8 22.2 23.8 22.1 23.9 22 24.1 21.8 24.4 21.4 24.9 21.1 25.2 20.9 25.5 20.7 25.8 20.6 26.1 20.6 26.8 20.4 27.2 20.7 27.4 21.2zM26.4 25.3C26.5 25.2 26.5 25.1 26.6 24.9 26.6 24.6 26.7 24 26.7 23.5 26.7 23.5 26.7 23.4 26.6 23.4 26.4 23.4 25.5 23.7 25.2 23.9 25 24 24.8 24.2 24.8 24.6 24.8 25.1 25.2 25.4 25.7 25.4 26 25.5 26.3 25.4 26.4 25.3zM30.8 22.3C30.8 24.2 30.8 24.9 30.8 25.2 30.8 25.6 30.9 25.7 31.3 25.8 31.4 25.8 31.5 25.9 31.5 25.9 31.5 26 31.4 26 31.2 26 31 26 30.4 26 30.2 26 29.8 26 29.4 26 29.2 26 29 26 28.9 26 28.9 25.9 28.9 25.8 29 25.8 29.2 25.8 29.6 25.7 29.7 25.6 29.7 24.9 29.7 24.3 29.8 21.8 29.8 20 29.8 18.8 29.8 17.6 29.8 16.9 29.8 16.6 29.8 16.5 29.4 16.3 29.3 16.2 29.3 16.2 29.3 16.2 29.3 16.2 29.4 16.1 29.5 16.1 29.9 16 30.3 15.9 30.6 15.8 30.6 15.8 30.7 15.8 30.8 15.8 30.8 15.8 30.8 15.9 30.8 16 30.8 16.1 30.7 18.7 30.7 20.9L30.7 22.3 30.8 22.3z"/>
        </g>
        <g stroke="#222F3C" stroke-linecap="round">
          <g stroke-linejoin="round" stroke-width=".5">
            <line x1="59.7" y1="1.2" y2="1.2"/>
            <line x2="59.7" y1="17.6" y2="17.6"/>
            <line x2="59.7" y1="17.6" y2="17.6"/>
          </g>
          <g stroke-width=".4" transform="translate(21 5)">
            <g transform="translate(2 2)">
              <polyline points=".7 2.8 1.2 3.8 .7 4.8"/>
              <polyline points=".7 4.8 1.2 5.8 .6 6.8"/>
              <polyline points=".8 .8 1.3 1.7 .7 2.7"/>
            </g>
            <polyline points=".5 2.1 1 3.1 .4 4.1"/>
            <polyline points=".4 4.1 .9 5.1 .4 6.1"/>
            <polyline points=".5 .1 1 1 .5 2.1"/>
            <g transform="translate(5)">
              <g transform="translate(2 2)">
                <polyline points="1.1 2.8 1.6 3.8 1.1 4.8"/>
                <polyline points="1.1 4.8 1.6 5.8 1 6.8"/>
                <polyline points="1.2 .8 1.7 1.7 1.1 2.7"/>
              </g>
              <polyline points=".9 2.1 1.4 3.1 .8 4.1"/>
              <polyline points=".8 4.1 1.4 5.1 .8 6.1"/>
              <polyline points=".9 .1 1.5 1 .9 2.1"/>
            </g>
            <g transform="translate(11)">
              <g transform="translate(2 2)">
                <polyline points=".5 2.8 1 3.8 .5 4.8"/>
                <polyline points=".5 4.8 1 5.8 .4 6.8"/>
                <polyline points=".6 .8 1.1 1.7 .5 2.7"/>
              </g>
              <polyline points=".3 2.1 .8 3.1 .3 4.1"/>
              <polyline points=".3 4.1 .8 5.1 .2 6.1"/>
              <polyline points=".4 .1 .9 1 .3 2.1"/>
            </g>
            <g transform="translate(16)">
              <polyline points=".7 2.1 1.2 3.1 .7 4.1"/>
              <polyline points=".7 4.1 1.2 5.1 .6 6.1"/>
              <polyline points=".8 .1 1.3 1 .7 2.1"/>
            </g>
          </g>
        </g>
      </g>
    </g>
  </g>
</svg>
