<?xml version="1.0" encoding="UTF-8"?>
<svg width="97px" height="30px" viewBox="0 0 97 30" version="1.1" xmlns="http://www.w3.org/2000/svg" xmlns:xlink="http://www.w3.org/1999/xlink">
    <title>VAVV</title>
    <g id="Mobile" stroke="none" stroke-width="1" fill="none" fill-rule="evenodd">
        <g id="TUNES_02" transform="translate(-103.000000, -143.000000)" fill-rule="nonzero">
            <g id="VAVV" transform="translate(103.000000, 143.000000)">
                <path d="M14.1005735,0.0573758272 C12.9312962,0.230813633 11.9320853,0.74209021 11.1082529,1.60058997 C10.2552042,2.48759053 9.68251763,3.58660925 9.43270984,4.81527186 C9.3622949,5.15832419 9.35167082,5.33489014 9.35167082,6.02377537 C9.35167082,6.70570918 9.36628907,6.89096439 9.43270984,7.21698576 C9.53901146,7.74077489 9.70378607,8.25309417 9.91770717,8.72161955 C10.0970798,9.12306377 10.5315924,9.86756032 10.5648028,9.8321081 C10.5754269,9.82480912 10.5568348,9.667012 10.5275983,9.4862752 C10.1489025,7.32368998 10.3296133,5.63797183 11.0564301,4.49203106 C11.6596912,3.53516878 12.7811399,2.76634227 13.9610615,2.49454194 C14.3902418,2.39617942 15.2911394,2.39617942 15.7216377,2.49176138 C16.7766655,2.73089006 17.5699233,3.1879456 18.2980783,3.97241278 C18.7285765,4.43641974 19.022239,4.88200544 19.2693705,5.43742351 C19.6002376,6.18192006 19.7171633,6.81971239 19.6839529,7.71366437 C19.6586903,8.54783417 19.4633816,9.28537931 19.0700677,10.0726271 C18.8933511,10.4201978 18.9451739,10.4028193 19.3198755,10.0100643 C20.2831997,8.99341988 20.7867891,7.35497135 20.6512713,5.66508235 C20.5768622,4.73255002 20.4120876,4.05478705 20.0626284,3.28596055 C19.7836044,2.66832732 19.4753236,2.21127178 19.0155889,1.73857556 C17.754608,0.435880377 15.8864123,-0.203302237 14.1005735,0.0573758272 Z" id="Path-21630" fill="#1F60AD"></path>
                <path d="M71.7718683,3.34505121 C71.7426521,3.42047406 70.8457487,5.55455848 69.7800968,8.09147741 C68.7131067,10.6224876 67.8016053,12.7937621 67.7537564,12.9074178 L67.6700613,13.1124845 L68.3131628,13.1041428 L68.9562846,13.092673 L69.4558799,11.8994626 L69.9554955,10.7093803 L71.8489335,10.7180696 L73.7463859,10.7291918 L74.2459812,11.9109324 L74.7455968,13.092673 L75.3966866,13.1041428 C75.7567699,13.1083136 76.0437823,13.1010147 76.0357939,13.0839837 C76.0251698,13.0655624 75.087088,10.8633542 73.952339,8.18949236 C72.8162721,5.51458785 71.8715401,3.29778159 71.8569218,3.26650022 C71.8343355,3.22687715 71.8117289,3.24668868 71.7718683,3.34505121 Z M72.5917067,8.01605455 C72.9597783,8.87420674 73.2494264,9.58325108 73.2427965,9.59194034 C73.2348081,9.60341018 72.5983568,9.60341018 71.8263472,9.59889176 L70.4258543,9.58742193 L71.0875682,8.01153613 C71.4516456,7.14608496 71.7678945,6.39289914 71.7904808,6.33728782 L71.8263472,6.23927286 L71.87817,6.34597709 C71.9074065,6.40575926 72.2276292,7.15303637 72.5917067,8.01605455 Z" id="Path-21631" fill="#231F20" opacity="0.879638672"></path>
                <path d="M14.4027656,3.4990188 C13.1378108,3.79792965 12.149224,4.68771078 11.4954781,6.12144013 C11.1274268,6.93267027 10.9759525,7.66187371 10.9759525,8.64271837 C10.9759525,9.61487377 11.0981903,10.2811669 11.5353387,11.7148963 C11.6310162,12.0381371 11.7997647,12.6401296 11.9034103,13.0530437 C12.0057178,13.4631771 12.1346057,13.9442151 12.1824343,14.1124393 C12.5093073,15.2312696 12.7006421,17.1929589 12.6049848,18.3903401 C12.4721027,20.013148 12.1744663,20.7294913 11.2044919,21.7770695 C10.2371735,22.8135255 9.24858673,23.3560835 7.78564695,23.6522138 C7.12393306,23.7860285 6.56586477,23.813139 6.20576119,23.7304172 C5.44839004,23.5611502 4.76009568,22.9431694 4.39601821,22.1117802 C4.33357133,21.9623248 4.22726972,21.6547246 4.16084894,21.4270658 L4.03992908,21.0099809 L4.03992908,21.3471245 C4.03327889,22.3366585 4.37077589,23.2107989 4.99927939,23.8485912 C5.45504023,24.3098176 5.94001728,24.5534647 6.58711293,24.6486991 C8.12048792,24.8763579 9.74155212,24.0779879 11.3812085,22.2768763 L11.8662058,21.7416173 L11.8662058,21.8869019 C11.8662058,21.9664956 11.8329751,22.1913739 11.7931146,22.3880989 L11.7226996,22.7426211 L11.3812085,23.0926248 C9.71231562,24.7981545 8.10586967,25.5426511 6.39577812,25.3959762 C5.46300829,25.3177728 4.72422927,24.9562992 4.10637013,24.2701946 C3.5403135,23.6435245 3.22805883,22.9674994 2.98490123,21.8483215 C2.94769668,21.6790546 2.90384194,21.5567097 2.88924397,21.5723504 C2.83476515,21.6321325 2.81215857,22.5017546 2.85601331,22.9160589 C2.91846019,23.471477 3.04337422,23.9198432 3.27856376,24.4352907 C4.00006851,25.9997066 5.521461,26.8738471 7.34051019,26.762972 C8.60945914,26.6889394 9.71896581,26.1762726 10.8111779,25.1683174 C11.5459831,24.4863836 13.6041957,22.076328 14.0905109,21.3314838 C14.6671916,20.4417027 15.2664383,19.8397102 15.9467646,19.4737182 C17.0270348,18.8943177 18.2694033,18.8161143 19.7761978,19.2331992 C20.9972979,19.5762515 21.9858847,20.2255137 22.8429275,21.2532804 C23.7212185,22.3126761 24.0082309,22.9188395 24.0082309,23.7262463 C24.0082309,24.5221833 23.7066003,25.2110686 23.0262943,25.9840659 L22.7658624,26.2829768 L23.0183059,26.1335214 C23.7836654,25.6879357 24.2939051,25.0230328 24.5556751,24.1405507 C24.628746,23.884391 24.6393701,23.766217 24.6393701,23.2535501 C24.6367141,22.7141203 24.628746,22.6355693 24.5370627,22.3568176 C24.1955715,21.3088917 23.5551261,20.504613 22.5479471,19.8636926 C21.7068404,19.3242627 20.2983794,18.8004736 19.328405,18.6621405 C19.1370702,18.6336397 18.9643276,18.6023583 18.9497093,18.5867176 C18.9085309,18.5484848 19.2181092,18.4132798 19.6220473,18.2878068 L19.9608824,18.1852734 L20.3541964,18.2919776 C20.876378,18.4372622 21.5699844,18.6937694 22.1041485,18.9370689 C23.5670883,19.6103135 24.5556751,20.5883776 25.161572,21.9581539 C25.5841022,22.9188395 25.635925,23.9240141 25.3050782,24.8652357 C25.0738828,25.5186687 24.7762464,25.9840659 24.1503989,26.6531396 C23.8939612,26.9294584 23.7690472,27.0903836 23.8195521,27.074743 C24.0082309,27.0118327 24.6911929,26.6089981 24.9303766,26.4167915 C25.6771237,25.8175795 26.2165999,24.9719399 26.4477952,24.0265475 C26.5288545,23.7033067 26.5434525,23.5611502 26.5475473,23.0370135 C26.5514408,22.2184844 26.4371711,21.6905244 26.0916858,20.9428997 C25.3157023,19.2557913 23.9962686,18.225244 21.9008515,17.6614843 C21.6882482,17.6058729 21.3494131,17.500559 21.1474542,17.4251362 C20.9454751,17.3511036 20.2585188,17.1220545 19.6220473,16.9169877 C18.3757049,16.5197143 17.7591636,16.2903176 17.0854875,15.9844554 C15.6012793,15.2983507 14.5276593,14.3970998 14.1117793,13.4871595 C13.3517319,11.8087404 13.2108817,10.0649779 13.7118152,8.39072958 C14.0134458,7.37408513 14.2592594,6.85446685 14.6339609,6.4332111 C15.045867,5.96468572 15.4910038,5.72833761 16.1380994,5.62580424 C16.5566557,5.55907066 16.9977983,5.61294412 17.711335,5.81105945 C17.8574972,5.84929223 17.5704848,5.64874391 17.2582302,5.48781865 C16.8144316,5.26294037 16.4755964,5.1889078 15.9281522,5.1889078 C15.3581217,5.1889078 15.0272749,5.26711122 14.5941004,5.5121486 C14.2008067,5.72833761 13.9244184,5.97198471 13.6560185,6.33762914 C13.2441124,6.89721805 12.9610739,7.57915187 12.8401743,8.32364842 C12.7670831,8.77653311 12.7670831,9.8129891 12.8401743,10.4066399 C12.9398258,11.2265593 13.1457788,12.143451 13.3517319,12.7113816 L13.4434152,12.9633704 L13.3437638,12.9348696 C13.2148759,12.8994174 12.8627606,12.671411 12.759115,12.5532369 C12.7046362,12.4906742 12.6342213,12.2699667 12.5318936,11.8132588 C12.009712,9.53667035 12.0761327,7.98059609 12.7524649,6.5044631 C13.362356,5.18021854 14.2552855,4.41591045 15.4644233,4.19242246 C16.0823027,4.0742484 16.7001619,4.13681114 17.5412483,4.39297078 C17.7804321,4.46700335 17.9863851,4.52261467 17.990359,4.51531569 C18.0275636,4.47986347 17.4282965,4.06138828 17.0668954,3.87335251 C16.4383919,3.54594086 16.0929268,3.45904817 15.3395296,3.43923664 C14.8292899,3.4277668 14.6592033,3.43923664 14.4027656,3.4990188 Z" id="Path-21632" fill="#1F60AD"></path>
                <path d="M34.0821891,3.70876623 C34.2482816,4.12585113 38.0165857,13.2673095 38.0524521,13.3413421 C38.0936509,13.4237163 38.2956097,12.9597094 40.1438954,8.53652398 C41.2693382,5.84285065 42.191484,3.62917253 42.191484,3.60901342 C42.191484,3.59337274 41.9018156,3.58642132 41.5443883,3.59059217 L40.9012666,3.60206201 L39.5153919,6.93769852 C38.7553648,8.77252452 38.1228874,10.2775059 38.1109251,10.2775059 C38.1003011,10.2775059 37.4717976,8.77704294 36.7104322,6.93769852 L35.3365198,3.60206201 L34.6814358,3.59059217 L34.0316842,3.5819029 L34.0821891,3.70876623 Z" id="Path-21633" fill="#231F20" opacity="0.879638672"></path>
                <path d="M15.4134711,6.62308582 C14.7876236,7.39886374 14.8686829,8.80826314 15.5782255,9.56840037 C15.9423029,9.95837476 16.5854247,10.2374741 17.1222245,10.2374741 C17.4158871,10.2374741 17.8065247,10.1394591 18.0736068,9.99417455 C18.5413298,9.74913717 18.9824724,9.14714462 19.1259583,8.56044519 C19.2362541,8.11068864 19.1884255,7.51981836 19.0077148,7.08709277 C18.9239994,6.87924546 18.7393148,6.55878523 18.7207024,6.58311518 C18.7140522,6.59145688 18.7326646,6.75690056 18.765875,6.94910718 C18.8309982,7.3588931 18.8137239,7.86287069 18.7246966,8.17742222 C18.5891585,8.64316703 18.1400478,9.08736245 17.6404322,9.25384884 C16.3502351,9.68240358 15.0453995,8.39812965 15.3762666,7.02870089 C15.409477,6.90183756 15.4639558,6.72110077 15.5051545,6.62586638 C15.5410209,6.53167471 15.5676014,6.45625186 15.5596333,6.45625186 C15.5529831,6.45625186 15.4865421,6.53167471 15.4134711,6.62308582 Z" id="Path-21634" fill="#1F60AD"></path>
                <path d="M44.6585223,6.77179219 C43.4746268,7.03942167 42.5298948,8.04737685 42.2760928,9.31149168 C42.2349144,9.51204 42.22427,9.7414367 42.2388882,10.1387101 C42.2535065,10.619748 42.2681247,10.737922 42.3677762,11.0639434 C42.5338686,11.5992024 42.7066113,11.8911618 43.1291415,12.3482173 C43.4480463,12.6912697 43.5410476,12.7653022 43.8453342,12.9276178 C44.3157133,13.1709173 44.5509028,13.2348703 45.1142832,13.25781 C45.6683776,13.28214 46.0802837,13.2150588 46.5320503,13.0301512 C46.9878112,12.8407251 47.4701322,12.4775137 47.775757,12.0889296 L47.925893,11.8995035 L47.4767824,11.5408105 L47.0289896,11.1821175 L46.8230366,11.3955259 C46.1653168,12.0917101 45.2126167,12.2741848 44.4153647,11.855362 C44.0512872,11.6631554 43.8387043,11.4695585 43.6539994,11.1664768 C43.5370737,10.9700993 43.3311206,10.4018211 43.3311206,10.2725248 C43.3311206,10.2523657 44.2652286,10.236725 45.7932713,10.236725 L48.2567601,10.236725 L48.2567601,10.1272402 C48.2567601,10.0674581 48.2381477,9.85961075 48.2155614,9.66601384 C48.0654253,8.33064701 47.3013837,7.29975216 46.1573488,6.88544782 C45.8490883,6.77179219 45.7600609,6.76032235 45.3162623,6.74746223 C45.0438682,6.74016325 44.7462318,6.75163308 44.6585223,6.77179219 Z M45.5554257,7.95318517 C45.8676804,8.00740621 46.253006,8.22533307 46.4815657,8.47280345 C46.6542881,8.66222951 46.9333323,9.09947352 46.9333323,9.18184778 C46.9333323,9.19748847 46.1573488,9.21312915 45.2059665,9.21312915 C44.2572403,9.21312915 43.4786007,9.19748847 43.4786007,9.18184778 C43.4786007,9.16203625 43.5370737,9.0438622 43.6101447,8.91421831 C44.0287009,8.1655509 44.7422376,7.81102874 45.5554257,7.95318517 Z" id="Path-21635" fill="#231F20" opacity="0.879638672"></path>
                <path d="M52.594175,6.79532012 C52.1942311,6.91071361 51.9178429,7.16548297 51.5325173,7.77199393 L51.3079518,8.1265161 L51.3079518,7.52869441 L51.3079518,6.92913486 L50.7020549,6.92913486 L50.0948198,6.92913486 L50.0948198,10.0214718 L50.0948198,13.1134613 L50.7193291,13.1134613 L51.3411825,13.1134613 L51.3518065,11.1715835 L51.3637688,9.23422409 L51.4806945,8.96937518 C51.7092338,8.4497569 52.1676507,8.11087542 52.6566219,8.09940558 C52.797472,8.09523473 52.9808388,8.10357643 53.0725222,8.12373554 L53.2372968,8.15084605 L53.4180075,7.50158389 C53.5176589,7.14289087 53.586756,6.8394616 53.5761116,6.82799177 C53.4844283,6.72858653 52.8997998,6.70981771 52.594175,6.79532012 Z" id="Path-21636" fill="#231F20" opacity="0.879638672"></path>
                <path d="M56.6940076,6.7729979 C55.720039,6.98084521 54.8377538,7.94153077 54.5401174,9.11631991 C54.4258477,9.56468619 54.4258477,10.4315276 54.5401174,10.8885832 C54.8085173,11.9549303 55.5287042,12.830461 56.3963711,13.1408417 C56.6607769,13.236076 56.7524603,13.2475459 57.189629,13.2517167 C57.7596595,13.2517167 58.0134412,13.1849831 58.4505896,12.9086644 C58.6977414,12.7550381 59.1096475,12.3577648 59.2970084,12.0901353 L59.3953419,11.9521497 L59.3953419,12.5301598 L59.3953419,13.1137311 L60.0025567,13.1137311 L60.6084739,13.1137311 L60.6084739,10.0217417 L60.6084739,6.92940474 L60.0025567,6.92940474 L59.3953419,6.92940474 L59.3953419,7.54877582 L59.3953419,8.17092747 L59.3182565,8.03294188 C58.9993719,7.46605398 58.3775186,6.98084521 57.7490151,6.80845012 C57.4620231,6.72885641 56.9730316,6.71321573 56.6940076,6.7729979 Z M58.0466516,8.01278278 C58.3921369,8.09272405 58.7123596,8.28493067 58.9914039,8.58384152 C59.3661054,8.98667602 59.542822,9.43921314 59.542822,10.0015826 C59.542822,11.2629169 58.5210248,12.231249 57.3703397,12.0574636 C56.1199829,11.8694278 55.3665856,10.3606232 55.9113738,9.13613145 C56.0761484,8.76874916 56.4694421,8.35166426 56.8335196,8.16675662 C57.2494198,7.95890931 57.6015351,7.9102494 58.0466516,8.01278278 Z" id="Path-21637" fill="#231F20" opacity="0.879638672"></path>
                <path d="M79.0685976,6.81119436 C78.1398017,7.07187243 77.3345816,7.98146508 77.032951,9.11628359 C76.9625361,9.38391307 76.9479178,9.51772781 76.951912,10.0217054 C76.9558859,10.5454945 76.9665302,10.6521987 77.0515634,10.9597989 C77.3119953,11.8766905 77.8714017,12.6097172 78.6128368,13.0111614 C79.2745507,13.3698545 80.1501856,13.3542138 80.8304917,12.9715384 C81.1015679,12.8175645 81.5174479,12.431761 81.7526374,12.1172095 L81.8921697,11.9236126 L81.8921697,13.9763654 L81.8921697,16.0280756 L82.4993845,16.0280756 L83.1053017,16.0280756 L83.1053017,11.4794171 L83.1053017,6.92936842 L82.4993845,6.92936842 L81.8921697,6.92936842 L81.8881755,7.52892797 C81.8881755,8.10832841 81.8855195,8.12674966 81.8257287,8.03290556 C81.175977,7.00930969 80.0837446,6.5279242 79.0685976,6.81119436 Z M80.4956507,8.0085756 C80.8185294,8.08399846 81.0205086,8.18653183 81.2968766,8.40723926 C81.5546524,8.61647685 81.8111104,8.97377958 81.9293743,9.29284953 C82.0316817,9.56464986 82.0648921,10.0999088 82.0064394,10.4429612 C81.8815254,11.1207241 81.3739417,11.7512175 80.7707008,11.9719249 C79.6386078,12.3890098 78.3896094,11.5461507 78.2421091,10.2663952 C78.1690382,9.64007272 78.3484107,9.0804838 78.7829031,8.5921469 C79.2572764,8.05688794 79.8339368,7.85912018 80.4956507,8.0085756 Z" id="Path-21638" fill="#231F20" opacity="0.879638672"></path>
                <path d="M93.0855336,6.7729979 C92.1115651,6.98084521 91.2292799,7.94153077 90.9316435,9.11631991 C90.8173738,9.56468619 90.8173738,10.4315276 90.9316435,10.8885832 C91.2000434,11.9549303 91.9202303,12.830461 92.7878972,13.1408417 C93.052303,13.236076 93.1439863,13.2475459 93.581155,13.2517167 C94.1511856,13.2517167 94.4049672,13.1849831 94.8421157,12.9086644 C95.0892674,12.7550381 95.5011735,12.3577648 95.6885345,12.0901353 L95.7868477,11.9521497 L95.7868477,12.5301598 L95.7868477,13.1137311 L96.3940828,13.1137311 L97,13.1137311 L97,10.0217417 L97,6.92940474 L96.3940828,6.92940474 L95.7868477,6.92940474 L95.7868477,7.54877582 L95.7868477,8.17092747 L95.7097826,8.03294188 C95.390898,7.46605398 94.7690447,6.98084521 94.1405412,6.80845012 C93.8535491,6.72885641 93.3645576,6.71321573 93.0855336,6.7729979 Z M94.4381776,8.01278278 C94.783663,8.09272405 95.1038857,8.28493067 95.38293,8.58384152 C95.7576315,8.98667602 95.9343481,9.43921314 95.9343481,10.0015826 C95.9343481,11.2629169 94.9125509,12.231249 93.7618658,12.0574636 C92.511509,11.8694278 91.7581117,10.3606232 92.3028999,9.13613145 C92.4676745,8.76874916 92.8609682,8.35166426 93.2250456,8.16675662 C93.6409459,7.95890931 93.9930611,7.9102494 94.4381776,8.01278278 Z" id="Path-21639" fill="#231F20" opacity="0.879638672"></path>
                <path d="M84.6553366,9.02440766 C84.671293,11.3677297 84.6672988,11.3138562 84.938375,11.9116779 C85.2001248,12.4782182 85.6997403,12.9352738 86.2803949,13.1361697 C86.5129285,13.2199342 86.6776828,13.2470447 87.0377661,13.2585146 C87.5852103,13.2828445 87.9453139,13.2074217 88.3983984,12.9665551 C88.7797502,12.7660068 89.2102687,12.3016523 89.3976093,11.8918664 C89.6620353,11.3051669 89.6593793,11.3566074 89.6739976,9.02440766 L89.6886158,6.92890359 L89.0813807,6.92890359 L88.4714897,6.92890359 L88.4714897,8.67023306 C88.4714897,9.63091862 88.4528772,10.5450297 88.4342851,10.7073452 C88.3691822,11.2426042 88.1260043,11.6398776 87.7433347,11.8404259 C87.5639621,11.9360079 87.4935269,11.9474777 87.2038586,11.9474777 C87.0231681,11.9474777 86.8025968,11.9231477 86.7175434,11.9002081 C86.4903422,11.8293036 86.2259161,11.6197185 86.1116464,11.4191701 C85.9056934,11.0604771 85.8990432,10.9506448 85.8990432,8.85236014 L85.8990432,6.92890359 L85.2692218,6.92890359 L84.6447125,6.92890359 L84.6553366,9.02440766 Z" id="Path-21640" fill="#231F20" opacity="0.879638672"></path>
                <path d="M78.9550444,14.3108433 C78.7304789,14.3890467 78.4288686,14.621224 78.2747384,14.8346324 C78.0833833,15.0980911 77.987726,15.3970019 77.987726,15.7515241 C77.987726,16.2798316 78.2082973,16.7097767 78.6241976,17.0086875 C79.1862398,17.4101317 79.9476051,17.3034275 80.4179842,16.7566987 C80.6717658,16.4577879 80.7674434,16.1814691 80.7674434,15.7515241 C80.7674434,15.3229694 80.6717658,15.0469982 80.4179842,14.7477398 C80.1416162,14.4290174 79.8439798,14.2823425 79.4320534,14.2667018 C79.2300945,14.2594029 79.0573518,14.2753911 78.9550444,14.3108433 Z" id="Path-21641" fill="#231F20" opacity="0.879638672"></path>
                <path d="M32.5018964,14.5584125 C32.5165146,14.5980356 33.4798591,17.3584425 34.6478185,20.694079 L36.7724721,26.7602313 L37.8726726,26.7602313 L38.967561,26.7602313 L41.0961886,20.7142381 C42.2654861,17.3900714 43.2314866,14.6293169 43.2421107,14.578224 L43.264697,14.4913313 L42.0143604,14.4913313 C41.04836,14.4913313 40.7613476,14.5028012 40.7467294,14.5382534 C40.7400995,14.5667542 40.0996337,16.3775978 39.3236502,18.5672936 C38.5516608,20.7538612 37.908539,22.5692232 37.8939208,22.5963337 C37.8793228,22.6248345 37.2215828,20.8167715 36.4349751,18.5801537 L34.9972777,14.5111429 L33.740291,14.5000206 C32.5537192,14.4913313 32.4833042,14.4955022 32.5018964,14.5584125 Z" id="Path-21642" fill="#231F20" opacity="0.879638672"></path>
                <path d="M66.3940827,14.5584125 C66.408701,14.5980356 67.3720454,17.3584425 68.5400048,20.694079 L70.6646585,26.7602313 L71.7635208,26.7602313 L72.8597271,26.7602313 L74.9883749,20.7142381 C76.1563343,17.3900714 77.1236527,14.6293169 77.134297,14.578224 L77.1568833,14.4913313 L75.9065265,14.4913313 C74.9405463,14.4913313 74.653534,14.5028012 74.6389157,14.5382534 C74.6309476,14.5667542 73.9918201,16.3775978 73.2158365,18.5672936 C72.4438471,20.7538612 71.8007254,22.5692232 71.7861071,22.5963337 C71.7714889,22.6248345 71.1137691,20.8167715 70.3271615,18.5801537 L68.889464,14.5111429 L67.6324773,14.5000206 C66.4445876,14.4913313 66.3754906,14.4955022 66.3940827,14.5584125 Z" id="Path-21643" fill="#231F20" opacity="0.879638672"></path>
                <path d="M84.2447733,17.3670956 L84.2447733,18.7452136 L83.820905,18.7452136 L83.3983545,18.7452136 L83.3983545,19.867172 L83.3983545,20.9901731 L83.820905,20.9901731 L84.2447733,20.9901731 L84.2447733,23.8847424 L84.2447733,26.778964 L85.3834962,26.778964 L86.5235572,26.778964 L86.5235572,23.8847424 L86.5235572,20.9901731 L87.0563832,20.9901731 L87.5892092,20.9901731 L87.5892092,19.867172 L87.5892092,18.7452136 L87.0563832,18.7452136 L86.5235572,18.7452136 L86.5235572,17.3670956 L86.5235572,15.9875873 L85.3834962,15.9875873 L84.2447733,15.9875873 L84.2447733,17.3670956 Z" id="Path-21644" fill="#231F20" opacity="0.879638672"></path>
                <path d="M4.78916362,17.4656569 C3.62519841,17.6863643 2.49576146,18.3241566 1.61347627,19.2563414 C1.13646728,19.7620568 0.812250381,20.2375336 0.525238039,20.8523863 C0.0987136935,21.7706682 -0.0261800636,22.4439128 0.00437430199,23.6086224 C0.0296166279,24.6450784 0.169128632,25.2828707 0.562442592,26.1768227 C1.25339297,27.7443668 2.33763704,28.7964634 3.77932866,29.300441 C4.4556608,29.5367891 4.82636817,29.595181 5.65417454,29.595181 C6.4434382,29.595181 6.74906296,29.5479114 7.38154036,29.3317224 C8.87371663,28.8235739 10.1718818,27.5591115 10.8402459,25.9648045 C10.9585097,25.6815343 10.9505214,25.6843149 10.6156804,25.991915 C9.5168181,26.9967421 8.41795579,27.6546935 7.40013249,27.9066823 C6.9589899,28.0161671 6.1870005,28.0092157 5.74585791,27.8865232 C4.41180606,27.5208788 3.27839521,26.566797 2.66450995,25.2943405 C2.30442665,24.5467158 2.1250338,23.7396565 2.1250338,22.8811568 C2.1250338,21.833231 2.40407809,20.8409165 2.94752813,19.9653857 C3.79394691,18.6074268 5.24226844,17.7885501 6.84871439,17.7530979 L7.17558731,17.7489271 L7.01346872,17.6735042 C6.92178535,17.630753 6.7158323,17.5636718 6.55373399,17.5167498 C6.1644142,17.4142164 5.21568797,17.382935 4.78916362,17.4656569 Z" id="Path-21645" fill="#1F60AD"></path>
                <path d="M23.2238562,17.5170351 L23.0949682,17.5441456 L23.3155395,17.6195685 C23.4377773,17.6581488 23.7420639,17.7804937 23.9958456,17.8871979 C25.9889553,18.7456977 27.1316723,19.8832968 27.5063739,21.3921014 C27.7933862,22.5425606 27.6870846,23.7910347 27.2047433,24.8817118 C26.9071069,25.5591272 26.2972158,26.3467225 25.7059371,26.8121197 C25.1571547,27.2406745 24.3865035,27.5993675 23.6769407,27.7529938 C23.2211799,27.8471854 22.3203025,27.8471854 21.9004284,27.7488229 C20.5849687,27.4412228 19.5046985,26.614352 18.7579514,25.3429382 C18.5373801,24.9599152 18.533386,24.9686045 18.666268,25.5636456 C18.9745285,26.9372452 20.0255622,28.2100493 21.4778779,28.9660157 C23.158733,29.844327 24.900717,29.8644861 26.4593344,29.0244076 C28.0697542,28.1589564 29.3001807,26.4221453 29.6429898,24.5355313 C29.7413233,23.9790705 29.7346731,22.9996161 29.6243774,22.4473262 C29.3666015,21.1557533 28.8563821,20.1238157 28.0245816,19.2382055 C27.3814801,18.5493202 26.705148,18.0950453 25.8746856,17.8003053 C25.2647945,17.5795978 24.900717,17.5198157 24.0875289,17.504175 C23.6835909,17.4972236 23.2942711,17.5013944 23.2238562,17.5170351 Z" id="Path-21646" fill="#1F60AD"></path>
                <path d="M5.60141059,18.4485416 C5.11908956,18.5952165 4.6965391,18.9295796 4.43211307,19.3668236 C4.27400892,19.6188124 4.16770731,19.8464712 4.20091769,19.8464712 C4.20756788,19.8464712 4.29260106,19.7724386 4.39225249,19.685546 C5.21874099,18.9139389 5.96548806,18.7874231 6.6776866,19.2997424 C6.96469894,19.5048092 7.13744161,19.7213457 7.29157186,20.0643981 C7.46431452,20.4543725 7.51214315,20.8360051 7.43905192,21.2259795 C7.27695361,22.0559785 6.74013348,22.6197382 5.97611214,22.7650228 C5.64127116,22.8289758 5.73029852,22.871727 6.20465149,22.8762455 C6.63385213,22.8804163 6.9461068,22.7737121 7.31815233,22.5015642 C7.9904903,22.0090564 8.32930516,21.2461386 8.23630392,20.4373415 C8.12600813,19.5048092 7.630407,18.791594 6.88363965,18.4996345 C6.60062147,18.3943206 5.87646071,18.3630392 5.60141059,18.4485416 Z" id="Path-21647" fill="#1F60AD"></path>
                <path d="M45.3503342,18.627037 C44.0122882,18.8703365 42.8682533,19.8713403 42.4164866,21.1952373 C41.9646996,22.5107926 42.1560344,24.2705433 42.8682533,25.3424515 C43.4489079,26.2079027 44.3099246,26.7445519 45.3795707,26.8971355 C45.7941328,26.9610885 46.6617998,26.9298072 47.0258772,26.8429145 C47.8124849,26.6580068 48.3971336,26.3232962 48.9233094,25.7553656 C49.169123,25.4877361 49.5810494,24.8968658 49.5810494,24.8099731 C49.5810494,24.7901616 49.1212944,24.6135957 48.5632261,24.4126998 L47.5440849,24.0498359 L47.4896061,24.1450703 C47.3354759,24.3998396 46.9820225,24.7387211 46.7322147,24.8725359 C46.2618559,25.1217441 45.7795146,25.1415556 45.3569844,24.9281472 C44.8719871,24.6803292 44.4746992,24.0296768 44.470705,23.4787772 L44.470705,23.3536517 L47.1361527,23.3536517 L49.8016207,23.3536517 L49.8016207,22.9747996 C49.8016207,22.230303 49.6328722,21.4072555 49.3564839,20.8250745 C49.1771114,20.4420515 48.9711583,20.1389698 48.6469414,19.7774962 C47.9267545,18.9728699 47.0484635,18.5828955 45.9788377,18.5915848 C45.7250358,18.5957556 45.4420176,18.6113963 45.3503342,18.627037 Z M46.5408799,20.3012853 C46.9155814,20.4420515 47.2650407,20.9303884 47.4271592,21.5299479 L47.4816381,21.7377953 L45.9748435,21.7377953 C45.1470372,21.7377953 44.470705,21.7221546 44.470705,21.7065139 C44.470705,21.6168406 44.5929428,21.2025363 44.6593838,21.0614226 C44.7696796,20.827855 45.0487036,20.5247733 45.2613069,20.4065993 C45.6360084,20.198752 46.1515601,20.1587813 46.5408799,20.3012853 Z" id="Path-21648" fill="#231F20" opacity="0.879638672"></path>
                <path d="M59.5824605,18.6315768 C58.3879207,18.8835656 57.3076505,20.0653062 56.9542174,21.505987 C56.7309901,22.420098 56.7522382,23.4078941 57.0140083,24.2990655 C57.3222688,25.3456011 57.9760146,26.2211318 58.7706106,26.6455157 C59.1240437,26.8345942 59.3844755,26.9016753 59.8548546,26.9260053 C60.6706988,26.9614575 61.1636642,26.7720314 61.7150823,26.2013203 C61.8878249,26.0205835 62.1044021,25.7668568 62.1934294,25.6375605 L62.3542098,25.396694 L62.3661721,26.0900976 L62.3728223,26.7793304 L63.4942709,26.7793304 L64.6157195,26.7793304 L64.6157195,22.7631504 L64.6157195,18.74558 L63.4942709,18.74558 L62.3728223,18.74558 L62.3728223,19.2850099 L62.3728223,19.8202688 L62.1270086,19.5641092 C61.6273931,19.0531802 61.1556961,18.7525315 60.6893112,18.6472175 C60.420891,18.5832645 59.8402364,18.5763131 59.5824605,18.6315768 Z M61.0161638,21.0291199 C61.3177944,21.0930729 61.5237475,21.218546 61.7961416,21.505987 C62.093778,21.8250569 62.2479082,22.1524686 62.2957571,22.5493944 C62.4458932,23.8805903 61.5317155,24.9483277 60.4288793,24.7321387 C59.6528755,24.5826833 59.2117532,23.9476715 59.2117532,22.9838578 C59.2117532,22.518113 59.2742,22.2192021 59.4429485,21.8848391 C59.7698214,21.2227168 60.3664122,20.899476 61.0161638,21.0291199 Z" id="Path-21649" fill="#231F20" opacity="0.879638672"></path>
                <path d="M91.8568938,18.6315768 C90.662354,18.8835656 89.5820838,20.0653062 89.2286304,21.505987 C89.0040852,22.420098 89.0266715,23.4078941 89.2871034,24.2990655 C89.5967021,25.3456011 90.2504479,26.2211318 91.0450236,26.6455157 C91.3971388,26.8345942 91.6589088,26.9016753 92.1292677,26.9260053 C92.9451321,26.9614575 93.4380772,26.7720314 93.9881774,26.2013203 C94.162238,26.0205835 94.3788354,25.7668568 94.4665246,25.6375605 L94.6286431,25.396694 L94.6392672,26.0900976 L94.6472353,26.7793304 L95.767366,26.7793304 L96.8888146,26.7793304 L96.8888146,22.7631504 L96.8888146,18.74558 L95.767366,18.74558 L94.6472353,18.74558 L94.6472353,19.2850099 L94.6472353,19.8202688 L94.4000835,19.5641092 C93.9004882,19.0531802 93.4301091,18.7525315 92.9637242,18.6472175 C92.6953243,18.5832645 92.1146697,18.5763131 91.8568938,18.6315768 Z M93.2905971,21.0291199 C93.5922277,21.0930729 93.7981808,21.218546 94.0692367,21.505987 C94.3668731,21.8250569 94.5223415,22.1524686 94.5701702,22.5493944 C94.7203265,23.8805903 93.8048107,24.9483277 92.7019542,24.7321387 C91.9273088,24.5826833 91.4861662,23.9476715 91.4861662,22.9838578 C91.4861662,22.518113 91.5486131,22.2192021 91.7173616,21.8848391 C92.0442345,21.2227168 92.6395073,20.899476 93.2905971,21.0291199 Z" id="Path-21650" fill="#231F20" opacity="0.879638672"></path>
                <path d="M54.8742942,18.7168358 C54.7600245,18.7679287 54.593932,18.8635106 54.5062428,18.9302442 C54.2923014,19.0883889 53.9175999,19.5054738 53.7740937,19.7491209 L53.6611622,19.9427178 L53.6611622,19.3431583 L53.6611622,18.7453366 L52.5396933,18.7453366 L51.4182447,18.7453366 L51.4182447,22.7629069 L51.4182447,26.7790869 L52.5583057,26.7790869 L53.6970286,26.7790869 L53.6970286,24.7788173 C53.6970286,22.5891215 53.7089908,22.4594776 53.9109497,22.0253618 C54.1939881,21.4317109 54.7121959,21.1626912 55.403126,21.2537547 L55.6821702,21.2895545 L55.6755201,19.9698283 L55.6635578,18.646974 L55.3699156,18.6386323 C55.1307319,18.6313334 55.0350746,18.646974 54.8742942,18.7168358 Z" id="Path-21651" fill="#231F20" opacity="0.879638672"></path>
                <path d="M78.2521452,22.7627673 L78.2521452,26.7789473 L79.3922063,26.7789473 L80.5309494,26.7789473 L80.5309494,22.7627673 L80.5309494,18.745197 L79.3922063,18.745197 L78.2521452,18.745197 L78.2521452,22.7627673 Z" id="Path-21652" fill="#231F20" opacity="0.879638672"></path>
                <path d="M20.9161326,22.3053933 C20.3540905,22.4548488 19.7840599,22.9588264 19.5196339,23.5538675 C19.2073792,24.2472711 19.2180033,24.8722034 19.5528646,25.558308 C19.8172703,26.1095552 20.3022677,26.5238596 20.8576799,26.6774858 C20.993218,26.7157186 21.2283873,26.7400486 21.4449847,26.7400486 L21.8090622,26.7358777 L21.5300179,26.6260454 C20.8975405,26.3726663 20.4231875,26.0111927 20.2504449,25.6452007 C20.0046312,25.128363 20.0006371,24.5263705 20.2358266,23.9865931 C20.3607204,23.6991521 20.7832708,23.2466149 21.0596388,23.1013304 C21.3758876,22.9344964 21.7904498,22.8604638 22.0920803,22.9119043 C22.5598034,22.9859369 23.0075759,23.2890186 23.3052123,23.7262626 C23.411514,23.8798889 23.411514,23.8798889 23.3862716,23.7662332 C23.2839642,23.2890186 22.8494515,22.758278 22.3711044,22.5104601 C21.8980895,22.2654227 21.3612694,22.1913901 20.9161326,22.3053933 Z" id="Path-21653" fill="#1F60AD"></path>
                <path d="M28.737823,28.1430088 C28.5836927,28.2125229 28.4548048,28.3352154 28.3843696,28.4818903 C28.3152725,28.6268273 28.3192667,28.9615379 28.3963318,29.1308049 C28.5318699,29.438405 28.9544001,29.5836895 29.2600249,29.4227643 C29.7928508,29.1464455 29.7197596,28.2924642 29.1497291,28.1186788 C28.9690184,28.0675859 28.8919532,28.0717568 28.737823,28.1430088 Z M29.2600249,28.2455421 C29.7822065,28.5600937 29.5829036,29.4185934 28.9836366,29.4185934 C28.7710334,29.4185934 28.6235533,29.3431706 28.4986393,29.1666046 C28.3697513,28.9855203 28.344509,28.7919234 28.4215741,28.5757344 C28.5571123,28.1968822 28.9331519,28.0474268 29.2600249,28.2455421 Z" id="Path-21654" fill="#535E5E"></path>
                <path d="M28.664904,28.8472837 C28.664904,29.3141356 28.6689324,29.3462912 28.7749199,29.3462912 C28.8689141,29.3462912 28.8849053,29.3141356 28.8849053,29.143036 C28.8849053,29.0001221 28.9069084,28.9417656 28.9629082,28.9417656 C29.0069145,28.9417656 29.1069207,29.0310868 29.1849236,29.143036 C29.2849297,29.2780102 29.3729119,29.3462912 29.4449028,29.3462912 C29.5549187,29.3462912 29.5549187,29.3462912 29.4329094,29.1755886 C29.3669304,29.0846795 29.2889275,28.9901975 29.2669243,28.9675695 C29.2449211,28.9497053 29.2789177,28.8913488 29.3329033,28.8472837 C29.4609246,28.7432742 29.472918,28.5221547 29.3509087,28.4423611 C29.3069023,28.4098085 29.1289238,28.3788438 28.9629082,28.3661404 L28.664904,28.3462912 L28.664904,28.8472837 Z M29.1849236,28.5626469 C29.3069023,28.6571289 29.2069268,28.8067914 29.0229058,28.8067914 C28.9029106,28.8067914 28.8849053,28.7885302 28.8849053,28.6487922 C28.8849053,28.5221547 28.9069084,28.49119 28.9909233,28.49119 C29.0509209,28.49119 29.1409172,28.5221547 29.1849236,28.5626469 Z" id="Path-21655" fill="#535E5E"></path>
            </g>
        </g>
    </g>
</svg>