<svg xmlns="http://www.w3.org/2000/svg" width="399" height="200" viewBox="0 0 399 200">
  <g fill="none" fill-rule="evenodd">
    <g fill-rule="nonzero" stroke="#222F3C" stroke-linecap="round" stroke-linejoin="round" stroke-width=".5" transform="translate(188 108)">
      <line x1="10.516" x2="5.601" y1="10.264" y2="5.738"/>
      <path d="M12.5096374 10.291746L17.1901375 5.45829669 11.6107308.0192264396 11.6120519.0180139852C11.6018715.00922369115 11.5916911.00285830578 11.5801896.000433397065 11.5687658-.000779057292 11.5560208.000433397065 11.5445193.00558632808L11.5432759.00558632808C11.530531.0104361455 11.521594.0180139852 11.5152992.0265011657 11.5089268.0352914598 11.5063622.0465066626 11.5063622.0613592285L11.5063622 5.44708148 11.5063622 5.55529303 11.5063622 6.02815023 11.5063622 9.31329531M11.4910534 9.31277462L11.4910534 5.84273025 11.4910534 5.8415178C11.4910534 5.82545278 11.4846809 5.81181266 11.4732571 5.80059746L11.4745005 5.80059746C11.4617556 5.78938226 11.4465238 5.78180442 11.4286498 5.78180442L5.60102771 5.73845918M13.4468186 11.2421314L17.0730638 11.2421314 17.0743072 11.2421314C17.0908601 11.2421314 17.1048484 11.2348567 17.1163499 11.2248539L17.1163499 11.2248539C17.1277738 11.2136387 17.1354673 11.1975737 17.1354673 11.1815087L17.1799969 5.48145765 12.5160496 10.2973264"/>
      <line x1="5.584" x2="5.712" y1="5.863" y2="5.738"/>
      <path d="M5.58448973,5.73970073 L0.0190713668,11.1666464 L0.0178279584,11.1666464 C0.00889096042,11.1751336 0.00251849228,11.1863488 0.00127508386,11.1963516 C-0.00128944599,11.2075668 0,11.2199944 0.00508302214,11.2324221 L0.00508302214,11.2324221 C0.0102120819,11.2448497 0.0178279584,11.2545494 0.0267649564,11.2609148 C0.0356242414,11.2657646 0.0483691776,11.2697051 0.0623575223,11.2697051 L5.58068179,11.2697051 L5.69142285,11.2697051 L6.17782868,11.2697051 L9.57862841,11.2697051"/>
      <path d="M5.64686472,5.8626145 L5.58320221,5.73845918 L5.71052723,5.73845918"/>
      <line x1="5.584" x2="10.507" y1="5.74" y2="10.273"/>
      <path d="M5.71307373,5.85516518 L5.64686472,5.73100986 L5.58574871,5.85516518"/>
      <line x1="5.713" x2="5.586" y1="5.863" y2="5.738"/>
      <line x1="12.447" x2="17.399" y1="12.216" y2="16.776"/>
      <path d="M10.5233689 12.1895699L5.80984075 17.0563617 11.3892475 22.4957351 11.3879263 22.4969475C11.3981067 22.5054347 11.4082871 22.5118001 11.4197887 22.5130125 11.4312125 22.5154375 11.4439574 22.514225 11.4553812 22.5093752L11.4567024 22.5093752C11.4694473 22.5042223 11.4783066 38.0099979 11.484679 38 11.4910515 37.9927204 11.493616 22.4684548 11.493616 22.4532992L11.493616 17.0675769 11.493616 16.9596685 11.493616 16.4865082 11.493616 13.1355874M11.5089087 13.1319088L11.5089087 16.6713662 11.5089087 16.6725787C11.5089087 16.6877344 11.5152812 16.7025869 11.526705 16.7138021L11.5254616 16.7138021C11.5381288 16.7247142 11.5534383 16.7322921 11.5712346 16.7322921L17.3989344 16.7756373M10.517002 12.1832215L5.82002675 17.0327358 5.86455631 11.3329879C5.86455631 11.3166198 5.8722499 11.3005547 5.88367372 11.2893395L5.88367372 11.2893395C5.89517525 11.2781243 5.90916359 11.2720621 5.92571646 11.2720621L5.92695987 11.2720621 9.58250291 11.2720621"/>
      <line x1="17.542" x2="17.415" y1="16.775" y2="16.899"/>
      <path d="M17.4155103 16.7744491L22.9808509 11.3478065 22.982172 11.3478065C22.991109 11.3390162 22.9974038 11.327801 22.9987249 11.3177983 23.0012894 11.3065831 23 11.2944585 22.994917 11.2820309L22.994917 11.2820309C22.9897879 11.2696032 22.982172 11.2596005 22.973235 11.2532351 22.964298 11.2483853 22.9528742 11.2447479 22.9375648 11.2447479L17.4193182 11.2447479 17.3085771 11.2447479 16.8221713 11.2447479 13.4429758 11.2447479M17.4757105 16.7746261L17.5415683 16.8987814 17.4142432 16.8987814"/>
      <line x1="17.416" x2="12.456" y1="16.775" y2="12.208"/>
      <path d="M17.3989642,16.7758677 L17.4645366,16.900023 L17.5262893,16.7808339"/>
      <line x1="17.399" x2="17.526" y1="16.775" y2="16.9"/>
      <line x1="10.644" x2="10.517" y1="12.307" y2="12.183"/>
      <line x1="10.635" x2="10.507" y1="10.264" y2="10.388"/>
      <line x1="10.517" x2="9.582" y1="12.183" y2="11.272"/>
      <line x1="9.579" x2="9.706" y1="11.269" y2="11.393"/>
      <path d="M13.44643 11.2422478L13.4658583 11.2234548 12.5160496 10.2974428M11.6209547 13.1319088L11.5380924 13.2560642 11.4936297 13.191984"/>
      <line x1="11.509" x2="12.447" y1="13.132" y2="12.216"/>
      <path d="M11.4910832,9.42959702 L11.5577773,9.3054417 L11.6184082,9.4196646"/>
      <line x1="13.443" x2="12.456" y1="11.245" y2="12.208"/>
      <line x1="10.523" x2="11.494" y1="12.19" y2="13.136"/>
      <path d="M9.57968534,11.2692492 L9.53282439,11.223479 L10.5078897,10.2726117"/>
      <line x1="11.491" x2="10.516" y1="9.313" y2="10.264"/>
      <line x1="12.509" x2="11.506" y1="10.291" y2="9.312"/>
      <line x1="12.447" x2="12.575" y1="12.332" y2="12.208"/>
      <line x1="13.443" x2="13.571" y1="11.366" y2="11.242"/>
      <line x1="12.509" x2="12.637" y1="10.291" y2="10.415"/>
    </g>
    <g fill-rule="nonzero" transform="translate(234 57)">
      <path fill="#333838" d="M5.1975,9.58375 C5.3075,9.58375 5.445,9.57 5.445,9.50125 C5.445,9.4325 5.3625,9.39125 5.15625,9.36375 C4.675,9.2675 4.57875,9.11625 4.55125,8.47 C4.52375,8.0025 4.52375,7.74125 4.52375,7.38375 C4.52375,6.7375 4.52375,5.94 4.55125,5.5 C4.565,5.37625 4.63375,5.15625 4.74375,4.96375 C5.15625,4.29 6.09125,2.6675 6.80625,1.74625 C7.08125,1.375 7.32875,1.14125 7.82375,1.045 C8.04375,1.0175 8.12625,0.9625 8.12625,0.9075 C8.12625,0.8525 8.03,0.825 7.87875,0.825 C7.6725,0.825 7.2325,0.89375 6.9025,0.89375 C6.5175,0.89375 6.2975,0.83875 5.9125,0.83875 C5.775,0.83875 5.6925,0.86625 5.6925,0.9075 C5.6925,0.97625 5.81625,1.0175 5.92625,1.045 C6.28375,1.11375 6.435,1.22375 6.435,1.38875 C6.435,1.54 6.3525,1.7325 6.11875,2.1175 C5.83,2.6125 4.95,4.05625 4.4825,4.82625 C4.44125,4.895 4.345,4.82625 4.3175,4.8125 C3.9875,4.35875 2.7775,2.26875 2.53,1.8425 C2.37875,1.595 2.29625,1.4025 2.29625,1.32 C2.29625,1.22375 2.37875,1.14125 2.70875,1.0725 C2.84625,1.045 2.92875,1.00375 2.92875,0.935 C2.92875,0.88 2.86,0.8525 2.70875,0.8525 C2.46125,0.8525 2.035,0.89375 1.595,0.89375 C1.1825,0.89375 0.50875,0.825 0.26125,0.825 C0.0825,0.825 3.55271368e-13,0.825 3.55271368e-13,0.9075 C3.55271368e-13,0.94875 0.06875,1.00375 0.28875,1.045 C0.70125,1.1275 0.94875,1.33375 1.38875,1.93875 C1.7875,2.5025 2.92875,4.41375 3.3825,5.23875 C3.42375,5.29375 3.465,5.43125 3.47875,5.54125 C3.4925,5.72 3.50625,5.9675 3.50625,6.82 C3.50625,7.41125 3.47875,8.31875 3.45125,8.59375 C3.41,9.13 3.3275,9.2675 2.7775,9.33625 C2.6125,9.36375 2.475,9.405 2.475,9.46 C2.475,9.52875 2.57125,9.57 2.76375,9.57 C3.14875,9.57 3.41,9.515 3.8775,9.515 C4.38625,9.515 4.6475,9.58375 5.1975,9.58375 Z M9.14375,9.68 C9.63875,9.68 10.27125,9.4875 10.6975,9.1575 C11.1375,8.81375 11.75625,8.07125 11.75625,7.02625 C11.75625,5.56875 10.615,4.4275 9.11625,4.4275 C8.45625,4.4275 7.8375,4.71625 7.46625,5.005 C6.9575,5.4175 6.47625,6.09125 6.47625,7.13625 C6.47625,8.56625 7.7275,9.68 9.14375,9.68 Z M9.33625,9.44625 C8.91,9.44625 8.415,9.22625 8.04375,8.7175 C7.60375,8.14 7.46625,7.41125 7.46625,6.83375 C7.46625,5.40375 8.20875,4.66125 8.91,4.66125 C10.12,4.66125 10.78,5.95375 10.78,7.26 C10.78,8.25 10.40875,8.91 10.2025,9.1025 C9.9825,9.295 9.66625,9.44625 9.33625,9.44625 Z M16.5,9.6525 C16.89875,9.46 17.75125,9.295 17.91625,9.28125 C18.05375,9.25375 18.1775,9.22625 18.1775,9.17125 C18.1775,9.1025 18.10875,9.02 18.0125,9.02 C17.93,9.02 17.58625,9.1025 17.44875,9.14375 C17.33875,9.1575 17.2975,9.13 17.27,8.9925 C17.248,8.8715 17.2436,8.7065 17.24272,8.47638 L17.2425,8.29125 C17.2425,6.69625 17.27,5.32125 17.33875,4.675 C17.3525,4.57875 17.325,4.52375 17.28375,4.52375 C17.1325,4.52375 16.9125,4.60625 16.335,4.60625 L15.7575,4.60625 C15.675,4.60625 15.55125,4.63375 15.55125,4.68875 C15.55125,4.73 15.62,4.77125 15.77125,4.79875 C16.225,4.895 16.3625,4.96375 16.37625,5.43125 C16.37625,5.78875 16.39,6.435 16.39,6.64125 C16.39,7.13625 16.39,7.6725 16.3625,8.04375 C16.34875,8.34625 16.26625,8.53875 16.115,8.67625 C15.7575,9.00625 15.4275,9.11625 14.94625,9.11625 C14.6575,9.11625 14.355,8.9925 14.17625,8.7725 C14.09375,8.6625 13.98375,8.4425 13.97,7.865 C13.95625,7.2325 13.97,5.3625 14.01125,4.57875 C14.025,4.49625 13.98375,4.41375 13.9425,4.4275 C13.73625,4.4825 13.24125,4.60625 12.7875,4.60625 C12.63625,4.60625 12.5675,4.63375 12.5675,4.675 C12.5675,4.71625 12.60875,4.7575 12.7325,4.84 C12.88375,4.93625 13.02125,5.04625 13.035,5.29375 C13.0625,5.5275 13.0625,7.85125 13.0625,8.305 C13.07625,8.56625 13.13125,8.92375 13.32375,9.14375 C13.62625,9.52875 13.9975,9.63875 14.52,9.63875 C14.75375,9.63875 15.07,9.5425 15.33125,9.4325 C15.57875,9.33625 15.9775,9.03375 16.28,8.75875 C16.3075,8.7175 16.32125,8.81375 16.32125,8.855 C16.32125,8.95125 16.3075,9.25375 16.3075,9.39125 C16.3075,9.5425 16.3075,9.61125 16.335,9.6525 C16.3625,9.69375 16.39,9.7075 16.5,9.6525 Z M23.03125,9.66625 C24.04875,9.66625 24.68125,9.08875 24.92875,8.75875 C25.01125,8.6625 25.03875,8.59375 25.03875,8.53875 C25.03875,8.4975 24.97,8.51125 24.9425,8.53875 C24.46125,8.965 24.10375,9.06125 23.5125,9.06125 C23.1,9.06125 22.59125,8.91 22.23375,8.58 C21.90375,8.29125 21.54625,7.71375 21.54625,6.7925 C21.54625,5.21125 22.495,4.66125 23.0725,4.66125 C23.22375,4.66125 23.43,4.68875 23.595,4.77125 C23.80125,4.88125 24.145,5.115 24.365,5.335 C24.4475,5.4175 24.54375,5.4725 24.59875,5.4725 C24.695,5.4725 24.9425,5.29375 24.9425,5.0325 C24.9425,4.96375 24.90125,4.85375 24.75,4.77125 C24.51625,4.5925 24.09,4.4275 23.49875,4.4275 C22.605,4.4275 21.89,4.82625 21.46375,5.225 C21.05125,5.61 20.625,6.27 20.625,7.13625 C20.625,7.8925 20.8725,8.5525 21.3125,8.9925 C21.76625,9.4325 22.4125,9.66625 23.03125,9.66625 Z M29.05375,9.66625 C29.49375,9.66625 29.92,9.46 30.1125,9.075 C30.1675,8.95125 30.1125,8.91 30.03,8.95125 C29.87875,9.03375 29.74125,9.075 29.63125,9.075 C29.24625,9.075 29.1225,8.81375 29.1225,8.5525 C29.1225,8.195 29.16375,6.88875 29.16375,6.38 C29.16375,5.95375 29.10875,5.39 28.97125,5.12875 C28.80625,4.7025 28.38,4.4275 27.9125,4.4275 C27.67875,4.4275 27.40375,4.51 27.0875,4.675 C26.8125,4.8125 26.35875,5.10125 26.0425,5.4725 C25.8775,5.665 25.78125,5.78875 25.78125,5.885 C25.78125,5.94 25.85,6.0225 25.91875,6.00875 C26.015,5.995 26.4275,5.8025 26.565,5.70625 C26.5925,5.67875 26.62,5.6375 26.62,5.59625 C26.62,5.5 26.62,5.39 26.63375,5.335 C26.66125,5.18375 26.74375,5.0875 26.84,5.005 C27.04625,4.88125 27.18375,4.84 27.39,4.84 C27.555,4.84 27.78875,4.9225 27.9675,5.06 C28.20125,5.23875 28.2975,5.62375 28.2975,6.1875 C28.2975,6.38 28.2975,6.655 28.27,6.82 C28.27,6.875 28.20125,6.99875 28.09125,7.02625 C27.8025,7.13625 26.55125,7.5075 26.22125,7.68625 C26.0975,7.755 25.72625,8.03 25.72625,8.47 C25.72625,9.185 26.27625,9.6525 26.82625,9.6525 C27.34875,9.6525 27.76125,9.41875 28.17375,9.03375 C28.1875,9.02 28.22875,9.02 28.2425,9.0475 C28.36625,9.36375 28.66875,9.66625 29.05375,9.66625 Z M27.43125,9.13 C27.005,9.13 26.60625,8.81375 26.60625,8.36 C26.60625,7.96125 26.785,7.755 26.95,7.6725 C27.23875,7.52125 28.03625,7.2325 28.215,7.205 C28.2425,7.19125 28.27,7.26 28.27,7.27375 C28.27,7.79625 28.2425,8.34625 28.20125,8.58 C28.1875,8.73125 28.105,8.855 28.05,8.91 C27.89875,9.0475 27.665,9.13 27.43125,9.13 Z M32.73875,9.4875 C32.73875,9.41875 32.67,9.39125 32.505,9.35 C32.285,9.28125 32.12,9.2125 32.07875,8.91 C32.05125,8.7175 32.01,8.36 31.99625,7.46625 C31.99625,6.64125 31.9825,5.94 31.9825,5.775 C31.9825,5.665 32.05125,5.45875 32.1475,5.3625 C32.505,5.06 32.8625,4.9225 33.22,4.9225 C33.53625,4.9225 33.7975,5.01875 34.00375,5.18375 C34.3475,5.445 34.44375,5.775 34.44375,6.88875 L34.44375,8.75875 C34.44375,9.1575 34.38875,9.25375 34.05875,9.33625 C33.88,9.3775 33.7975,9.4325 33.7975,9.4875 C33.7975,9.5425 33.89375,9.57 34.0175,9.57 C34.22375,9.57 34.4025,9.515 34.87,9.515 C35.1725,9.515 35.57125,9.57 35.75,9.57 C35.8875,9.57 35.9975,9.55625 35.9975,9.47375 C35.9975,9.41875 35.915,9.39125 35.79125,9.33625 C35.42,9.24 35.37875,9.1575 35.365,8.2225 C35.365,7.535 35.35125,7.425 35.35125,6.69625 C35.3375,5.9125 35.2275,5.225 34.91125,4.895 C34.7325,4.7025 34.4025,4.4275 33.83875,4.4275 C33.605,4.4275 33.31625,4.455 33.0275,4.5925 C32.725,4.71625 32.395,4.95 32.05125,5.21125 C32.02375,5.23875 31.9825,5.1975 31.9825,5.17 C31.96875,4.9775 31.99625,4.60625 32.01,4.44125 C32.02375,4.3725 31.955,4.3175 31.91375,4.33125 C31.68,4.4825 31.13,4.71625 30.8275,4.79875 C30.70375,4.84 30.635,4.88125 30.635,4.90875 C30.635,4.95 30.6625,4.9775 30.745,5.0325 C31.075,5.21125 31.1025,5.3625 31.1025,5.5 C31.1025,6.61375 31.1025,7.87875 31.075,8.86875 C31.06125,9.14375 31.00625,9.24 30.6625,9.30875 C30.4975,9.33625 30.37375,9.39125 30.37375,9.44625 C30.37375,9.515 30.48375,9.5425 30.635,9.5425 C30.89625,9.5425 31.185,9.515 31.36375,9.515 C31.68,9.515 32.35375,9.57 32.46375,9.57 C32.60125,9.57 32.73875,9.57 32.73875,9.4875 Z M40.6175,13.6125 C41.23625,13.6125 41.7725,13.4475 42.28125,13.15875 C43.0925,12.71875 43.82125,11.8525 43.82125,10.9175 C43.82125,10.45 43.67,10.01 43.35375,9.74875 C43.0925,9.5425 42.845,9.39125 42.28125,9.39125 C41.89625,9.39125 41.14,9.4325 40.71375,9.4325 C39.99875,9.4325 39.435,9.295 39.435,8.855 C39.435,8.8 39.4625,8.6625 39.58625,8.5525 C39.72375,8.3875 39.91625,8.18125 40.0675,8.09875 C40.08125,8.085 40.1775,8.04375 40.2325,8.0575 C40.35625,8.085 40.63125,8.12625 40.81,8.12625 C41.03,8.12625 41.45625,8.07125 41.8825,7.76875 C42.3775,7.41125 42.74875,6.7375 42.74875,5.9125 C42.74875,5.665 42.72125,5.445 42.72125,5.34875 C42.72125,5.32125 42.77625,5.26625 42.80375,5.26625 C42.955,5.26625 43.45,5.29375 43.6425,5.29375 C43.6975,5.29375 43.79375,5.18375 43.79375,5.04625 C43.79375,4.88125 43.73875,4.74375 43.67,4.74375 C43.46375,4.74375 42.91375,4.77125 42.6525,4.77125 C42.39125,4.77125 42.28125,4.7575 42.17125,4.7025 C42.03375,4.62 41.4425,4.345 40.76875,4.345 C40.26,4.345 39.71,4.52375 39.31125,4.90875 C38.9675,5.225 38.73375,5.61 38.73375,6.22875 C38.73375,7.0675 39.325,7.6725 39.7925,7.9475 C39.82,7.96125 39.83375,8.01625 39.82,8.03 C39.6275,8.29125 39.05,8.8 38.67875,9.0475 C38.65125,9.06125 38.59625,9.11625 38.59625,9.185 C38.59625,9.735 39.325,10.21625 39.71,10.29875 C39.75125,10.3125 39.7375,10.395 39.72375,10.4225 C39.44875,10.725 38.94,11.37125 38.84375,11.48125 C38.73375,11.605 38.59625,11.7975 38.59625,12.0725 C38.59625,13.09 39.5175,13.6125 40.6175,13.6125 Z M40.90625,7.92 C40.52125,7.92 40.26,7.74125 40.05375,7.52125 C39.8475,7.2875 39.6275,6.69625 39.6275,6.05 C39.6275,5.62375 39.75125,5.10125 39.99875,4.84 C40.205,4.6475 40.43875,4.52375 40.7,4.52375 C41.085,4.52375 41.2775,4.68875 41.525,4.99125 C41.8275,5.3625 41.95125,5.92625 41.95125,6.53125 C41.95125,7.16375 41.53875,7.92 40.90625,7.92 Z M41.18125,13.145 C40.52125,13.145 40.2325,12.99375 39.875,12.7325 C39.47625,12.43 39.33875,11.94875 39.33875,11.6875 C39.33875,11.1925 39.64125,10.71125 39.93,10.46375 C39.985,10.4225 40.08125,10.3675 40.3975,10.34 C40.76875,10.32625 41.4425,10.3125 41.965,10.3125 C42.845,10.3125 43.2025,10.82125 43.2025,11.39875 C43.2025,11.97625 42.845,12.55375 42.46,12.815 C42.02,13.13125 41.4975,13.145 41.18125,13.145 Z M46.48875,9.66625 C47.2725,9.66625 47.85,9.39125 48.4,8.8 C48.4825,8.70375 48.5375,8.62125 48.5375,8.58 C48.5375,8.51125 48.4825,8.48375 48.3725,8.59375 C48.0425,8.91 47.63,9.03375 47.06625,9.03375 C46.6125,9.03375 46.0625,8.8825 45.69125,8.47 C45.33375,8.07125 45.05875,7.5075 45.05875,6.80625 C45.05875,6.42125 45.1,6.215 45.16875,6.05 C45.19625,6.00875 45.265,5.94 45.2925,5.94 L46.035,5.94 C46.35125,5.94 48.13875,5.9675 48.24875,5.98125 C48.3175,5.98125 48.38625,5.89875 48.38625,5.83 C48.38625,4.99125 47.52,4.4275 46.70875,4.4275 C45.99375,4.4275 45.36125,4.7575 44.99,5.115 C44.4125,5.67875 44.1925,6.49 44.1925,7.1225 C44.1925,7.865 44.44,8.525 44.8525,8.965 C45.265,9.405 45.8425,9.66625 46.48875,9.66625 Z M45.3475,5.7475 C45.32,5.7475 45.2925,5.72 45.2925,5.6925 C45.2925,5.5825 45.41625,5.32125 45.58125,5.12875 C45.88375,4.8125 46.2275,4.62 46.585,4.62 C46.90125,4.62 47.135,4.74375 47.2725,4.88125 C47.42375,5.04625 47.465,5.29375 47.465,5.45875 C47.465,5.5825 47.4375,5.73375 47.135,5.73375 L45.3475,5.7475 Z M50.985,9.63875 C51.37,9.63875 51.79625,9.515 52.09875,9.28125 C52.2775,9.14375 52.40125,9.00625 52.40125,8.92375 C52.40125,8.86875 52.36,8.855 52.26375,8.92375 C52.14,9.00625 51.8925,9.13 51.5075,9.13 C51.15,9.13 50.86125,9.02 50.655,8.75875 C50.55875,8.62125 50.53125,8.45625 50.50375,8.01625 C50.49,7.59 50.47625,5.43125 50.47625,5.1975 C50.47625,5.115 50.50375,5.07375 50.66875,5.07375 C51.04,5.07375 51.71375,5.0875 52.195,5.0875 C52.26375,5.0875 52.3325,4.9775 52.3325,4.74375 C52.3325,4.6475 52.2775,4.55125 52.25,4.55125 C51.96125,4.55125 50.82,4.5925 50.5725,4.5925 C50.5175,4.5925 50.50375,4.51 50.50375,4.46875 C50.49,4.30375 50.5175,3.91875 50.5175,3.795 C50.5175,3.72625 50.42125,3.69875 50.2975,3.83625 C49.9675,4.2625 49.51375,4.63375 49.17,4.7575 C49.01875,4.82625 49.005,4.8675 49.005,4.895 C49.005,4.95 49.07375,4.99125 49.18375,5.01875 C49.3075,5.04625 49.45875,5.07375 49.51375,5.10125 C49.56875,5.12875 49.5825,5.225 49.5825,5.37625 L49.5825,8.2225 C49.5825,8.5525 49.6375,8.8275 49.7475,9.00625 C49.98125,9.44625 50.4075,9.63875 50.985,9.63875 Z M56.74625,9.63875 C57.13125,9.63875 57.5575,9.515 57.86,9.28125 C58.03875,9.14375 58.1625,9.00625 58.1625,8.92375 C58.1625,8.86875 58.12125,8.855 58.025,8.92375 C57.90125,9.00625 57.65375,9.13 57.26875,9.13 C56.91125,9.13 56.6225,9.02 56.41625,8.75875 C56.32,8.62125 56.2925,8.45625 56.265,8.01625 C56.25125,7.59 56.2375,5.43125 56.2375,5.1975 C56.2375,5.115 56.265,5.07375 56.43,5.07375 C56.80125,5.07375 57.475,5.0875 57.95625,5.0875 C58.025,5.0875 58.09375,4.9775 58.09375,4.74375 C58.09375,4.6475 58.03875,4.55125 58.01125,4.55125 C57.7225,4.55125 56.58125,4.5925 56.33375,4.5925 C56.27875,4.5925 56.265,4.51 56.265,4.46875 C56.25125,4.30375 56.27875,3.91875 56.27875,3.795 C56.27875,3.72625 56.1825,3.69875 56.05875,3.83625 C55.72875,4.2625 55.275,4.63375 54.93125,4.7575 C54.78,4.82625 54.76625,4.8675 54.76625,4.895 C54.76625,4.95 54.835,4.99125 54.945,5.01875 C55.06875,5.04625 55.22,5.07375 55.275,5.10125 C55.33,5.12875 55.34375,5.225 55.34375,5.37625 L55.34375,8.2225 C55.34375,8.5525 55.39875,8.8275 55.50875,9.00625 C55.7425,9.44625 56.16875,9.63875 56.74625,9.63875 Z M63.855,9.58375 C63.97875,9.58375 64.075,9.5425 64.075,9.4875 C64.075,9.4325 64.03375,9.405 63.855,9.36375 C63.4425,9.295 63.3875,9.19875 63.3875,8.92375 C63.37375,8.40125 63.37375,7.54875 63.36,6.5175 C63.34625,5.65125 63.195,5.225 63.0575,5.04625 C62.7275,4.57875 62.24625,4.4275 61.82,4.4275 C61.44875,4.4275 61.09125,4.5375 60.8575,4.66125 C60.5825,4.79875 60.1975,5.07375 60.0325,5.225 C60.01875,5.2525 59.9775,5.23875 59.9775,5.18375 C59.96375,4.9225 60.01875,0.66 60.0325,0.28875 C60.04625,0.09625 60.005,-1.82076576e-13 59.96375,-1.82076576e-13 C59.93625,-1.82076576e-13 59.895,0.01375 59.82625,0.055 C59.565,0.1925 59.24875,0.26125 58.8225,0.385 C58.67125,0.42625 58.58875,0.4675 58.58875,0.50875 C58.58875,0.55 58.63,0.5775 58.685,0.61875 C58.9875,0.78375 59.08375,0.825 59.0975,1.265 C59.125,1.7875 59.0975,2.62625 59.0975,4.7025 C59.0975,6.88875 59.08375,8.15375 59.0425,8.70375 C59.02875,9.22625 58.9325,9.2675 58.53375,9.36375 C58.36875,9.405 58.31375,9.4325 58.31375,9.4875 C58.31375,9.5425 58.3825,9.57 58.53375,9.57 C58.795,9.57 59.00125,9.515 59.4275,9.515 C59.82625,9.515 60.18375,9.57 60.56875,9.57 C60.6925,9.57 60.775,9.52875 60.775,9.4875 C60.775,9.41875 60.67875,9.39125 60.4725,9.35 C60.17,9.295 60.07375,9.13 60.0325,8.8825 C60.005,8.64875 59.95,7.98875 59.96375,5.92625 C59.96375,5.6375 60.0325,5.4725 60.10125,5.4175 C60.32125,5.18375 60.73375,4.90875 61.31125,4.90875 C61.77875,4.90875 62.08125,5.115 62.26,5.4175 C62.425,5.72 62.46625,6.105 62.46625,6.44875 C62.46625,7.87875 62.43875,8.48375 62.41125,8.8 C62.35625,9.19875 62.32875,9.295 61.9575,9.3775 C61.82,9.405 61.75125,9.4325 61.75125,9.4875 C61.75125,9.52875 61.80625,9.57 61.97125,9.57 C62.2875,9.57 62.3975,9.515 62.865,9.515 C63.23625,9.515 63.4975,9.58375 63.855,9.58375 Z M66.99,9.66625 C67.77375,9.66625 68.35125,9.39125 68.90125,8.8 C68.98375,8.70375 69.03875,8.62125 69.03875,8.58 C69.03875,8.51125 68.98375,8.48375 68.87375,8.59375 C68.54375,8.91 68.13125,9.03375 67.5675,9.03375 C67.11375,9.03375 66.56375,8.8825 66.1925,8.47 C65.835,8.07125 65.56,7.5075 65.56,6.80625 C65.56,6.42125 65.60125,6.215 65.67,6.05 C65.6975,6.00875 65.76625,5.94 65.79375,5.94 L66.53625,5.94 C66.8525,5.94 68.64,5.9675 68.75,5.98125 C68.81875,5.98125 68.8875,5.89875 68.8875,5.83 C68.8875,4.99125 68.02125,4.4275 67.21,4.4275 C66.495,4.4275 65.8625,4.7575 65.49125,5.115 C64.91375,5.67875 64.69375,6.49 64.69375,7.1225 C64.69375,7.865 64.94125,8.525 65.35375,8.965 C65.76625,9.405 66.34375,9.66625 66.99,9.66625 Z M65.84875,5.7475 C65.82125,5.7475 65.79375,5.72 65.79375,5.6925 C65.79375,5.5825 65.9175,5.32125 66.0825,5.12875 C66.385,4.8125 66.72875,4.62 67.08625,4.62 C67.4025,4.62 67.63625,4.74375 67.77375,4.88125 C67.925,5.04625 67.96625,5.29375 67.96625,5.45875 C67.96625,5.5825 67.93875,5.73375 67.63625,5.73375 L65.84875,5.7475 Z M73.0125,9.68 C73.3425,9.68 73.81,9.57 74.1125,9.3775 C74.3875,9.19875 74.8275,8.8275 74.8275,8.2225 C74.8275,7.52125 74.47,7.1775 73.57625,6.6 C73.2325,6.39375 72.71,6.06375 72.71,5.48625 C72.71,4.93625 73.095,4.63375 73.535,4.63375 C73.79625,4.63375 74.03,4.73 74.18125,4.84 C74.3875,5.005 74.4425,5.1975 74.51125,5.40375 C74.5525,5.5 74.58,5.56875 74.635,5.56875 C74.67625,5.56875 74.70375,5.5 74.70375,5.34875 C74.69,5.12875 74.635,4.85375 74.62125,4.7025 C74.62125,4.66125 74.58,4.60625 74.5525,4.57875 C74.3875,4.52375 73.98875,4.4275 73.6175,4.4275 C73.095,4.4275 72.71,4.60625 72.4625,4.8125 C72.16,5.0325 71.94,5.40375 71.94,5.89875 C71.94,6.50375 72.49,7.0125 73.08125,7.3975 C73.63125,7.74125 73.98875,8.03 73.98875,8.5525 C73.98875,9.11625 73.48,9.47375 73.095,9.47375 C72.88875,9.47375 72.6825,9.44625 72.47625,9.30875 C72.22875,9.1575 72.00875,8.91 71.89875,8.56625 C71.8025,8.305 71.76125,8.305 71.72,8.305 C71.6925,8.305 71.65125,8.34625 71.67875,8.525 C71.6925,8.67625 71.72,9.02 71.72,9.2125 C71.72,9.295 71.81625,9.39125 71.92625,9.4325 C72.33875,9.5975 72.655,9.68 73.0125,9.68 Z M77.495,9.63875 C77.88,9.63875 78.30625,9.515 78.60875,9.28125 C78.7875,9.14375 78.91125,9.00625 78.91125,8.92375 C78.91125,8.86875 78.87,8.855 78.77375,8.92375 C78.65,9.00625 78.4025,9.13 78.0175,9.13 C77.66,9.13 77.37125,9.02 77.165,8.75875 C77.06875,8.62125 77.04125,8.45625 77.01375,8.01625 C77,7.59 76.98625,5.43125 76.98625,5.1975 C76.98625,5.115 77.01375,5.07375 77.17875,5.07375 C77.55,5.07375 78.22375,5.0875 78.705,5.0875 C78.77375,5.0875 78.8425,4.9775 78.8425,4.74375 C78.8425,4.6475 78.7875,4.55125 78.76,4.55125 C78.47125,4.55125 77.33,4.5925 77.0825,4.5925 C77.0275,4.5925 77.01375,4.51 77.01375,4.46875 C77,4.30375 77.0275,3.91875 77.0275,3.795 C77.0275,3.72625 76.93125,3.69875 76.8075,3.83625 C76.4775,4.2625 76.02375,4.63375 75.68,4.7575 C75.52875,4.82625 75.515,4.8675 75.515,4.895 C75.515,4.95 75.58375,4.99125 75.69375,5.01875 C75.8175,5.04625 75.96875,5.07375 76.02375,5.10125 C76.07875,5.12875 76.0925,5.225 76.0925,5.37625 L76.0925,8.2225 C76.0925,8.5525 76.1475,8.8275 76.2575,9.00625 C76.49125,9.44625 76.9175,9.63875 77.495,9.63875 Z M81.895,9.68 C82.39,9.68 83.0225,9.4875 83.44875,9.1575 C83.88875,8.81375 84.5075,8.07125 84.5075,7.02625 C84.5075,5.56875 83.36625,4.4275 81.8675,4.4275 C81.2075,4.4275 80.58875,4.71625 80.2175,5.005 C79.70875,5.4175 79.2275,6.09125 79.2275,7.13625 C79.2275,8.56625 80.47875,9.68 81.895,9.68 Z M82.0875,9.44625 C81.66125,9.44625 81.16625,9.22625 80.795,8.7175 C80.355,8.14 80.2175,7.41125 80.2175,6.83375 C80.2175,5.40375 80.96,4.66125 81.66125,4.66125 C82.87125,4.66125 83.53125,5.95375 83.53125,7.26 C83.53125,8.25 83.16,8.91 82.95375,9.1025 C82.73375,9.295 82.4175,9.44625 82.0875,9.44625 Z M85.415,9.5975 C85.6075,9.5975 85.75875,9.515 86.25375,9.515 C86.83125,9.515 87.285,9.57 87.54625,9.57 C87.7525,9.57 87.87625,9.5425 87.87625,9.47375 C87.87625,9.405 87.8075,9.3775 87.615,9.35 C87.0925,9.295 86.9275,9.19875 86.8725,8.7725 C86.845,8.48375 86.8175,7.76875 86.8175,6.75125 C86.8175,6.47625 86.80375,6.0775 86.83125,5.9125 C86.845,5.7475 86.91375,5.59625 87.065,5.43125 C87.24375,5.26625 87.46375,5.15625 87.67,5.15625 C87.82125,5.15625 88,5.225 88.15125,5.32125 C88.3025,5.40375 88.37125,5.4175 88.39875,5.4175 C88.44,5.4175 88.495,5.40375 88.61875,5.29375 C88.78375,5.1425 88.92125,4.9225 88.92125,4.82625 C88.92125,4.7575 88.89375,4.68875 88.825,4.63375 C88.6875,4.52375 88.50875,4.455 88.34375,4.455 C87.79375,4.455 87.24375,4.96375 86.85875,5.445 C86.8175,5.48625 86.79,5.4725 86.79,5.43125 C86.79,5.21125 86.80375,4.68875 86.80375,4.5375 C86.80375,4.4 86.77625,4.345 86.74875,4.345 C86.7075,4.345 86.63875,4.35875 86.5425,4.41375 C86.3225,4.5375 85.9375,4.675 85.6625,4.74375 C85.53875,4.785 85.45625,4.84 85.45625,4.8675 C85.45625,4.895 85.47,4.93625 85.56625,5.005 C85.8275,5.225 85.92375,5.26625 85.92375,5.3625 L85.92375,6.88875 C85.92375,7.79625 85.91,8.58 85.8825,8.81375 C85.8275,9.185 85.67625,9.30875 85.3875,9.3775 C85.2775,9.405 85.18125,9.47375 85.18125,9.515 C85.18125,9.57 85.25,9.5975 85.415,9.5975 Z M90.2825,13.365 C90.43375,13.365 90.59875,13.32375 90.73625,13.13125 C90.8325,13.0075 90.90125,12.87 90.9975,12.6225 C91.19,12.155 91.7125,10.725 92.0425,9.9275 C92.33125,9.185 92.455,8.86875 92.62,8.415 C92.82625,7.8925 93.67875,5.775 93.84375,5.43125 C94.06375,4.9225 94.20125,4.82625 94.47625,4.74375 C94.61375,4.7025 94.66875,4.6475 94.66875,4.60625 C94.66875,4.565 94.58625,4.55125 94.50375,4.55125 C94.2975,4.55125 94.11875,4.5925 93.87125,4.5925 C93.665,4.5925 93.37625,4.55125 93.21125,4.55125 C93.0875,4.55125 93.01875,4.57875 93.01875,4.63375 C93.01875,4.675 93.06,4.71625 93.26625,4.7575 C93.5,4.82625 93.56875,4.93625 93.56875,5.0325 C93.56875,5.10125 93.56875,5.26625 93.5,5.43125 C93.39,5.7475 92.62,7.7275 92.44125,8.195 C92.4275,8.23625 92.38625,8.25 92.35875,8.195 C92.08375,7.6175 91.3275,5.76125 91.14875,5.28 C91.025,4.9225 91.0525,4.85375 91.355,4.7575 C91.4375,4.74375 91.53375,4.7025 91.53375,4.6475 C91.53375,4.5925 91.4375,4.55125 91.3,4.55125 C91.12125,4.55125 90.76375,4.5925 90.57125,4.5925 C90.24125,4.5925 89.85625,4.5375 89.60875,4.5375 C89.5125,4.5375 89.38875,4.565 89.38875,4.63375 C89.38875,4.675 89.47125,4.73 89.63625,4.77125 C89.87,4.82625 90.035,4.96375 90.13125,5.1425 C90.75,6.49 91.63,8.7175 91.83625,9.25375 C91.8775,9.3775 91.905,9.515 91.85,9.69375 C91.3825,10.89 90.98375,12.0175 90.84625,12.30625 C90.76375,12.49875 90.65375,12.54 90.48875,12.54 L90.21375,12.5125 L90.21375,12.5125 C90.0075,12.5125 89.82875,12.705 89.82875,12.91125 C89.82875,13.18625 90.0625,13.365 90.2825,13.365 Z M3.135,27.4300056 C3.63,27.4300056 4.2625,27.2375056 4.68875,26.9075056 C5.12875,26.5637556 5.7475,25.8212556 5.7475,24.7762556 C5.7475,23.3187556 4.60625,22.1775056 3.1075,22.1775056 C2.4475,22.1775056 1.82875,22.4662556 1.4575,22.7550056 C0.94875,23.1675056 0.4675,23.8412556 0.4675,24.8862556 C0.4675,26.3162556 1.71875,27.4300056 3.135,27.4300056 Z M3.3275,27.1962556 C2.90125,27.1962556 2.40625,26.9762556 2.035,26.4675056 C1.595,25.8900056 1.4575,25.1612556 1.4575,24.5837556 C1.4575,23.1537556 2.2,22.4112556 2.90125,22.4112556 C4.11125,22.4112556 4.77125,23.7037556 4.77125,25.0100056 C4.77125,26.0000056 4.4,26.6600056 4.19375,26.8525056 C3.97375,27.0450056 3.6575,27.1962556 3.3275,27.1962556 Z M6.69625,27.3200056 C6.93,27.3062556 7.2325,27.2650056 7.54875,27.2650056 C8.25,27.2650056 8.47,27.3062556 8.86875,27.3062556 C8.9925,27.3062556 9.08875,27.2787556 9.08875,27.2100056 C9.08875,27.1550056 9.00625,27.1275056 8.84125,27.0862556 C8.6625,27.0450056 8.51125,27.0450056 8.40125,27.0037556 C8.26375,26.9625056 8.15375,26.8525056 8.1125,26.3300056 C8.09875,25.9312556 8.07125,23.4287556 8.07125,22.9200056 C8.07125,22.9062556 8.09875,22.7962556 8.14,22.7962556 C8.3325,22.7962556 9.3225,22.8237556 9.5425,22.8237556 C9.7075,22.8237556 9.735,22.7687556 9.735,22.5762556 C9.735,22.4112556 9.68,22.3287556 9.625,22.3287556 C9.47375,22.3287556 8.305,22.3562556 8.18125,22.3562556 C8.1125,22.3562556 8.07125,22.3012556 8.07125,22.2737556 C8.0575,22.1912556 8.0575,21.9850056 8.0575,21.8337556 C8.0575,21.4075056 8.085,20.4312556 8.12625,20.0050056 C8.26375,18.5337556 8.745,18.1350056 9.36375,18.1350056 C9.85875,18.1350056 10.1475,18.4787556 10.34,18.6025056 C10.395,18.6575056 10.5325,18.6850056 10.615,18.6300056 C10.7525,18.5612556 10.95875,18.3412556 10.95875,18.1762556 C10.95875,17.9700056 10.5875,17.7362556 10.02375,17.7362556 C9.6525,17.7362556 9.19875,17.8325056 8.78625,18.1075056 C8.07125,18.5337556 7.63125,19.1937556 7.3975,19.9362556 C7.2325,20.4862556 7.1775,21.2287556 7.16375,22.1912556 C7.16375,22.2325056 7.1225,22.3287556 7.02625,22.3837556 L6.69625,22.5900056 C6.6,22.6450056 6.53125,22.6862556 6.53125,22.7275056 C6.53125,22.7550056 6.61375,22.8237556 6.71,22.8375056 C6.875,22.8512556 7.02625,22.8512556 7.095,22.8512556 C7.15,22.8650056 7.16375,22.9337556 7.16375,23.0300056 L7.16375,26.3300056 C7.16375,26.8250056 7.095,27.0175056 6.765,27.1000056 C6.58625,27.1412556 6.49,27.1825056 6.49,27.2375056 C6.49,27.2925056 6.5725,27.3200056 6.69625,27.3200056 Z M17.5175,27.3612556 C17.61375,27.3612556 17.7375,27.3337556 17.80625,27.2237556 C17.86125,27.1275056 18.1225,26.3712556 18.16375,26.2612556 C18.2325,26.0825056 18.24625,25.8762556 18.19125,25.8762556 C18.13625,25.8762556 18.0675,25.9312556 17.97125,26.0962556 C17.69625,26.5912556 17.39375,26.9350056 17.09125,26.9900056 C16.8575,27.0450056 16.5,27.0587556 15.88125,27.0587556 C14.7675,27.0587556 14.39625,26.9212556 14.245,26.7150056 C14.12125,26.5637556 14.09375,26.1787556 14.0525,25.6287556 C14.03875,25.3675056 14.025,23.9925056 14.025,22.6862556 C14.025,21.4350056 14.03875,20.1700056 14.0525,19.9362556 C14.09375,18.9875056 14.12125,18.9050056 14.685,18.7950056 C14.795,18.7675056 14.8775,18.7262556 14.8775,18.6575056 C14.8775,18.6162556 14.8225,18.5887556 14.6575,18.5887556 C14.34125,18.5887556 13.95625,18.6437556 13.53,18.6437556 C13.15875,18.6437556 12.71875,18.5750056 12.2925,18.5750056 C12.155,18.5750056 12.0725,18.6162556 12.0725,18.6575056 C12.0725,18.7125056 12.11375,18.7537556 12.27875,18.7812556 C12.87,18.8912556 12.91125,18.9737556 12.9525,19.7575056 C12.9765625,20.1665681 12.9900977,20.9440876 12.9931055,22.3848298 L12.9928906,24.2911384 C12.9903125,25.3726618 12.98,25.9862556 12.93875,26.3987556 C12.8975,26.8250056 12.815,27.0175056 12.22375,27.1275056 C12.1,27.1412556 11.97625,27.1825056 11.97625,27.2375056 C11.97625,27.3200056 12.1,27.3337556 12.265,27.3337556 C12.4575,27.3337556 13.07625,27.2650056 13.5025,27.2650056 C13.98375,27.2650056 14.97375,27.3062556 15.66125,27.3337556 C16.335,27.3750056 17.38,27.3612556 17.5175,27.3612556 Z M22.28875,27.4162556 C22.72875,27.4162556 23.155,27.2100056 23.3475,26.8250056 C23.4025,26.7012556 23.3475,26.6600056 23.265,26.7012556 C23.11375,26.7837556 22.97625,26.8250056 22.86625,26.8250056 C22.48125,26.8250056 22.3575,26.5637556 22.3575,26.3025056 C22.3575,25.9450056 22.39875,24.6387556 22.39875,24.1300056 C22.39875,23.7037556 22.34375,23.1400056 22.20625,22.8787556 C22.04125,22.4525056 21.615,22.1775056 21.1475,22.1775056 C20.91375,22.1775056 20.63875,22.2600056 20.3225,22.4250056 C20.0475,22.5625056 19.59375,22.8512556 19.2775,23.2225056 C19.1125,23.4150056 19.01625,23.5387556 19.01625,23.6350056 C19.01625,23.6900056 19.085,23.7725056 19.15375,23.7587556 C19.25,23.7450056 19.6625,23.5525056 19.8,23.4562556 C19.8275,23.4287556 19.855,23.3875056 19.855,23.3462556 C19.855,23.2500056 19.855,23.1400056 19.86875,23.0850056 C19.89625,22.9337556 19.97875,22.8375056 20.075,22.7550056 C20.28125,22.6312556 20.41875,22.5900056 20.625,22.5900056 C20.79,22.5900056 21.02375,22.6725056 21.2025,22.8100056 C21.43625,22.9887556 21.5325,23.3737556 21.5325,23.9375056 C21.5325,24.1300056 21.5325,24.4050056 21.505,24.5700056 C21.505,24.6250056 21.43625,24.7487556 21.32625,24.7762556 C21.0375,24.8862556 19.78625,25.2575056 19.45625,25.4362556 C19.3325,25.5050056 18.96125,25.7800056 18.96125,26.2200056 C18.96125,26.9350056 19.51125,27.4025056 20.06125,27.4025056 C20.58375,27.4025056 20.99625,27.1687556 21.40875,26.7837556 C21.4225,26.7700056 21.46375,26.7700056 21.4775,26.7975056 C21.60125,27.1137556 21.90375,27.4162556 22.28875,27.4162556 Z M20.66625,26.8800056 C20.24,26.8800056 19.84125,26.5637556 19.84125,26.1100056 C19.84125,25.7112556 20.02,25.5050056 20.185,25.4225056 C20.47375,25.2712556 21.27125,24.9825056 21.45,24.9550056 C21.4775,24.9412556 21.505,25.0100056 21.505,25.0237556 C21.505,25.5462556 21.4775,26.0962556 21.43625,26.3300056 C21.4225,26.4812556 21.34,26.6050056 21.285,26.6600056 C21.13375,26.7975056 20.9,26.8800056 20.66625,26.8800056 Z M35.915,27.3475056 C36.08,27.3475056 36.1625,27.3200056 36.1625,27.2650056 C36.1625,27.2100056 36.1009,27.1726056 36.0129,27.1387256 L35.9425,27.1137556 C35.40625,26.9487556 35.255,26.8250056 35.2,26.0275056 C35.1725,25.5875056 35.1175,24.2262556 35.1175,22.7275056 C35.1175,22.0400056 35.13125,20.3900056 35.15875,19.9225056 C35.2,19.1112556 35.255,18.9600056 36.06625,18.7675056 C36.1625,18.7537556 36.2725,18.6987556 36.2725,18.6437556 C36.2725,18.5887556 36.19,18.5612556 36.0525,18.5612556 C35.6675,18.5612556 34.93875,18.6437556 34.55375,18.6437556 C34.485,18.6437556 34.43,18.7950056 34.41625,18.8225056 C34.33375,19.0975056 34.155,19.5925056 34.00375,19.9362556 C33.67375,20.6100056 31.9275,24.0062556 31.11625,25.5600056 C31.06125,25.6425056 31.03375,25.6975056 30.9925,25.6150056 C30.12625,23.9925056 28.1875,20.1425056 27.59625,18.8362556 C27.54125,18.6987556 27.4725,18.6437556 27.4175,18.6437556 C26.9775,18.6437556 26.13875,18.5887556 25.8225,18.5750056 C25.69875,18.5750056 25.575,18.6025056 25.575,18.6575056 C25.575,18.7125056 25.67125,18.7537556 25.795,18.7812556 C26.05625,18.8500056 26.30375,18.8775056 26.55125,19.1525056 C26.785,19.4275056 26.8675,19.6200056 26.8675,20.4450056 C26.8675,21.3250056 26.675,24.3775056 26.5925,25.1887556 C26.51,26.0412556 26.44125,26.4675056 26.30375,26.6737556 C26.1525,26.8800056 25.9875,27.0312556 25.56125,27.1137556 C25.36875,27.1550056 25.31375,27.2100056 25.31375,27.2512556 C25.31375,27.3200056 25.3825,27.3475056 25.56125,27.3475056 C25.69875,27.3475056 26.07,27.2650056 26.565,27.2650056 C27.06,27.2650056 27.555,27.3200056 27.72,27.3337556 C27.87125,27.3475056 27.995,27.3200056 27.995,27.2375056 C27.995,27.1825056 27.9125,27.1275056 27.76125,27.1000056 C27.445,27.0312556 27.12875,26.8800056 27.06,26.5500056 C26.9775,26.2750056 26.9775,26.0000056 26.9775,25.5462556 C26.9775,24.9825056 27.12875,21.4075056 27.18375,20.6100056 C27.21125,20.4312556 27.23875,20.4312556 27.3075,20.5412556 C27.83,21.6137556 29.65875,25.4362556 30.305,26.8250056 C30.42875,27.0862556 30.525,27.3062556 30.59375,27.3062556 C30.67625,27.3062556 30.73125,27.2237556 30.8,27.0587556 C31.46,25.5875056 33.15125,22.2875056 34.0725,20.4450056 C34.1,20.3625056 34.14125,20.3625056 34.14125,20.5000056 L34.1401363,21.7225318 C34.1375375,23.0649306 34.128875,25.0265056 34.1,25.5462556 C34.05875,26.6875056 33.9625,26.9075056 33.385,27.0587556 C33.2475,27.0725056 33.11,27.1275056 33.11,27.1825056 C33.11,27.2787556 33.26125,27.2925056 33.39875,27.2925056 C33.605,27.2925056 33.97625,27.2650056 34.54,27.2650056 C34.91125,27.2650056 35.65375,27.3475056 35.915,27.3475056 Z M39.05,27.4162556 C39.83375,27.4162556 40.41125,27.1412556 40.96125,26.5500056 C41.04375,26.4537556 41.09875,26.3712556 41.09875,26.3300056 C41.09875,26.2612556 41.04375,26.2337556 40.93375,26.3437556 C40.60375,26.6600056 40.19125,26.7837556 39.6275,26.7837556 C39.17375,26.7837556 38.62375,26.6325056 38.2525,26.2200056 C37.895,25.8212556 37.62,25.2575056 37.62,24.5562556 C37.62,24.1712556 37.66125,23.9650056 37.73,23.8000056 C37.7575,23.7587556 37.82625,23.6900056 37.85375,23.6900056 L38.59625,23.6900056 C38.9125,23.6900056 40.7,23.7175056 40.81,23.7312556 C40.87875,23.7312556 40.9475,23.6487556 40.9475,23.5800056 C40.9475,22.7412556 40.08125,22.1775056 39.27,22.1775056 C38.555,22.1775056 37.9225,22.5075056 37.55125,22.8650056 C36.97375,23.4287556 36.75375,24.2400056 36.75375,24.8725056 C36.75375,25.6150056 37.00125,26.2750056 37.41375,26.7150056 C37.82625,27.1550056 38.40375,27.4162556 39.05,27.4162556 Z M37.90875,23.4975056 C37.88125,23.4975056 37.85375,23.4700056 37.85375,23.4425056 C37.85375,23.3325056 37.9775,23.0712556 38.1425,22.8787556 C38.445,22.5625056 38.78875,22.3700056 39.14625,22.3700056 C39.4625,22.3700056 39.69625,22.4937556 39.83375,22.6312556 C39.985,22.7962556 40.02625,23.0437556 40.02625,23.2087556 C40.02625,23.3325056 39.99875,23.4837556 39.69625,23.4837556 L37.90875,23.4975056 Z M41.7175,27.3475056 C41.91,27.3475056 42.06125,27.2650056 42.55625,27.2650056 C43.13375,27.2650056 43.5875,27.3200056 43.84875,27.3200056 C44.055,27.3200056 44.17875,27.2925056 44.17875,27.2237556 C44.17875,27.1550056 44.11,27.1275056 43.9175,27.1000056 C43.395,27.0450056 43.23,26.9487556 43.175,26.5225056 C43.1475,26.2337556 43.12,25.5187556 43.12,24.5012556 C43.12,24.2262556 43.10625,23.8275056 43.13375,23.6625056 C43.1475,23.4975056 43.21625,23.3462556 43.3675,23.1812556 C43.54625,23.0162556 43.76625,22.9062556 43.9725,22.9062556 C44.12375,22.9062556 44.3025,22.9750056 44.45375,23.0712556 C44.605,23.1537556 44.67375,23.1675056 44.70125,23.1675056 C44.7425,23.1675056 44.7975,23.1537556 44.92125,23.0437556 C45.08625,22.8925056 45.22375,22.6725056 45.22375,22.5762556 C45.22375,22.5075056 45.19625,22.4387556 45.1275,22.3837556 C44.99,22.2737556 44.81125,22.2050056 44.64625,22.2050056 C44.09625,22.2050056 43.54625,22.7137556 43.16125,23.1950056 C43.12,23.2362556 43.0925,23.2225056 43.0925,23.1812556 C43.0925,22.9612556 43.10625,22.4387556 43.10625,22.2875056 C43.10625,22.1500056 43.07875,22.0950056 43.05125,22.0950056 C43.01,22.0950056 42.94125,22.1087556 42.845,22.1637556 C42.625,22.2875056 42.24,22.4250056 41.965,22.4937556 C41.84125,22.5350056 41.75875,22.5900056 41.75875,22.6175056 C41.75875,22.6450056 41.7725,22.6862556 41.86875,22.7550056 C42.13,22.9750056 42.22625,23.0162556 42.22625,23.1125056 L42.22625,24.6387556 C42.22625,25.5462556 42.2125,26.3300056 42.185,26.5637556 C42.13,26.9350056 41.97875,27.0587556 41.69,27.1275056 C41.58,27.1550056 41.48375,27.2237556 41.48375,27.2650056 C41.48375,27.3200056 41.5525,27.3475056 41.7175,27.3475056 Z M47.905,27.4162556 C48.9225,27.4162556 49.555,26.8387556 49.8025,26.5087556 C49.885,26.4125056 49.9125,26.3437556 49.9125,26.2887556 C49.9125,26.2475056 49.84375,26.2612556 49.81625,26.2887556 C49.335,26.7150056 48.9775,26.8112556 48.38625,26.8112556 C47.97375,26.8112556 47.465,26.6600056 47.1075,26.3300056 C46.7775,26.0412556 46.42,25.4637556 46.42,24.5425056 C46.42,22.9612556 47.36875,22.4112556 47.94625,22.4112556 C48.0975,22.4112556 48.30375,22.4387556 48.46875,22.5212556 C48.675,22.6312556 49.01875,22.8650056 49.23875,23.0850056 C49.32125,23.1675056 49.4175,23.2225056 49.4725,23.2225056 C49.56875,23.2225056 49.81625,23.0437556 49.81625,22.7825056 C49.81625,22.7137556 49.775,22.6037556 49.62375,22.5212556 C49.39,22.3425056 48.96375,22.1775056 48.3725,22.1775056 C47.47875,22.1775056 46.76375,22.5762556 46.3375,22.9750056 C45.925,23.3600056 45.49875,24.0200056 45.49875,24.8862556 C45.49875,25.6425056 45.74625,26.3025056 46.18625,26.7425056 C46.64,27.1825056 47.28625,27.4162556 47.905,27.4162556 Z M52.78625,27.4162556 C53.57,27.4162556 54.1475,27.1412556 54.6975,26.5500056 C54.78,26.4537556 54.835,26.3712556 54.835,26.3300056 C54.835,26.2612556 54.78,26.2337556 54.67,26.3437556 C54.34,26.6600056 53.9275,26.7837556 53.36375,26.7837556 C52.91,26.7837556 52.36,26.6325056 51.98875,26.2200056 C51.63125,25.8212556 51.35625,25.2575056 51.35625,24.5562556 C51.35625,24.1712556 51.3975,23.9650056 51.46625,23.8000056 C51.49375,23.7587556 51.5625,23.6900056 51.59,23.6900056 L52.3325,23.6900056 C52.64875,23.6900056 54.43625,23.7175056 54.54625,23.7312556 C54.615,23.7312556 54.68375,23.6487556 54.68375,23.5800056 C54.68375,22.7412556 53.8175,22.1775056 53.00625,22.1775056 C52.29125,22.1775056 51.65875,22.5075056 51.2875,22.8650056 C50.71,23.4287556 50.49,24.2400056 50.49,24.8725056 C50.49,25.6150056 50.7375,26.2750056 51.15,26.7150056 C51.5625,27.1550056 52.14,27.4162556 52.78625,27.4162556 Z M51.645,23.4975056 C51.6175,23.4975056 51.59,23.4700056 51.59,23.4425056 C51.59,23.3325056 51.71375,23.0712556 51.87875,22.8787556 C52.18125,22.5625056 52.525,22.3700056 52.8825,22.3700056 C53.19875,22.3700056 53.4325,22.4937556 53.57,22.6312556 C53.72125,22.7962556 53.7625,23.0437556 53.7625,23.2087556 C53.7625,23.3325056 53.735,23.4837556 53.4325,23.4837556 L51.645,23.4975056 Z M59.4,27.4437556 C59.7575,27.3062556 60.3075,27.1687556 60.83,27.0862556 C61.0775,27.0450056 61.17375,26.9212556 61.17375,26.8250056 C61.17375,26.7837556 61.1325,26.7425056 61.05,26.7700056 C60.72,26.8662556 60.48625,26.9212556 60.40375,26.9212556 C60.3625,26.9212556 60.3075,26.8662556 60.3075,26.7975056 C60.2958654,26.4950056 60.2842308,25.7691846 60.2809263,24.8282953 L60.2810122,23.9501331 C60.289611,22.2748079 60.3507143,18.3942913 60.37625,18.0112556 C60.39,17.8462556 60.3625,17.7775056 60.32125,17.7775056 C60.28,17.7775056 60.1975,17.8050056 60.12875,17.8462556 C60.005,17.9150056 59.4275,18.0937556 58.94625,18.1762556 C58.85,18.1900056 58.78125,18.2312556 58.78125,18.2725056 C58.78125,18.3137556 58.85,18.3550056 58.94625,18.3825056 C59.0975,18.4237556 59.2625,18.5062556 59.33125,18.6025056 C59.3725,18.6575056 59.38625,18.7262556 59.38625,18.8362556 C59.4,19.5650056 59.41375,21.9987556 59.41375,22.2462556 C59.41375,22.2737556 59.3725,22.3287556 59.345,22.3150056 C59.16625,22.2600056 58.75375,22.1912556 58.4375,22.1912556 C57.79125,22.1912556 57.1725,22.4112556 56.7325,22.7137556 C56.1825,23.0987556 55.53625,23.8412556 55.53625,24.9825056 C55.53625,25.8212556 55.9075,26.5087556 56.25125,26.8250056 C56.705,27.2237556 57.24125,27.4025056 57.70875,27.4025056 C58.1625,27.4025056 58.67125,27.2237556 59.27625,26.7562556 C59.30375,26.7287556 59.33125,26.7562556 59.33125,26.7837556 C59.345,26.9487556 59.3175,27.1412556 59.30375,27.3475056 C59.30375,27.3887556 59.345,27.4575056 59.4,27.4437556 Z M58.2175,26.9350056 C57.37875,26.9350056 56.54,26.1650056 56.54,24.6800056 C56.54,23.6487556 56.8975,22.9887556 57.29625,22.6862556 C57.5025,22.5350056 57.6675,22.4525056 57.98375,22.4525056 C58.39625,22.4525056 58.89125,22.6450056 59.2075,23.0850056 C59.235,23.1262556 59.30375,23.2500056 59.33125,23.4150056 C59.41375,23.8825056 59.38625,25.6425056 59.345,26.0687556 C59.33125,26.2887556 59.27625,26.4812556 59.19375,26.5775056 C58.905,26.8387556 58.5475,26.9350056 58.2175,26.9350056 Z M64.735,20.8575056 C64.91375,20.8575056 65.24375,20.7062556 65.24375,20.3350056 C65.24375,20.1012556 65.07875,19.8125056 64.7625,19.8125056 C64.5425,19.8125056 64.28125,20.0050056 64.28125,20.3487556 C64.28125,20.6237556 64.4875,20.8575056 64.735,20.8575056 Z M65.49125,27.3200056 C65.60125,27.3200056 65.71125,27.2925056 65.71125,27.2237556 C65.71125,27.1687556 65.6425,27.1412556 65.505,27.1137556 C65.285,27.0587556 65.1475,26.9900056 65.12,26.7150056 C65.1003571,26.5480413 65.0947449,25.9812046 65.0931414,25.2500092 L65.0930579,23.6085593 C65.0945455,23.0131874 65.1,22.5150056 65.12,22.3150056 C65.13375,22.1637556 65.10625,22.1225056 65.065,22.1225056 C65.0375,22.1225056 64.96875,22.1500056 64.85875,22.2187556 C64.57,22.3425056 64.24,22.4800056 63.86875,22.5762556 C63.745,22.6037556 63.70375,22.6450056 63.70375,22.6862556 C63.70375,22.7137556 63.745,22.7550056 63.81375,22.7962556 C64.19875,23.0025056 64.2125,23.0850056 64.2125,23.2775056 C64.2125,23.4150056 64.185,25.9175056 64.17125,26.3300056 C64.1575,26.8937556 64.03375,27.0037556 63.73125,27.0862556 C63.53875,27.1137556 63.47,27.1550056 63.47,27.2100056 C63.47,27.2650056 63.56625,27.2925056 63.6625,27.2925056 C63.81375,27.2925056 64.03375,27.2650056 64.4875,27.2650056 C64.85875,27.2650056 65.3675,27.3200056 65.49125,27.3200056 Z M71.5825,27.3200056 C71.72,27.3200056 71.83,27.3062556 71.83,27.2237556 C71.83,27.1687556 71.7475,27.1412556 71.62375,27.0862556 C71.2525,26.9900056 71.21125,26.9075056 71.1975,25.9725056 C71.1975,25.2850056 71.18375,25.1750056 71.18375,24.4462556 C71.17,23.6625056 71.06,22.9750056 70.74375,22.6450056 C70.565,22.4525056 70.235,22.1775056 69.67125,22.1775056 C69.4375,22.1775056 69.14875,22.2050056 68.86,22.3425056 C68.5575,22.4662556 68.2275,22.7000056 67.88375,22.9612556 C67.85625,22.9887556 67.815,22.9475056 67.815,22.9200056 C67.80125,22.7275056 67.82875,22.3562556 67.8425,22.1912556 C67.85625,22.1225056 67.7875,22.0675056 67.74625,22.0812556 C67.5125,22.2325056 66.9625,22.4662556 66.66,22.5487556 C66.53625,22.5900056 66.4675,22.6312556 66.4675,22.6587556 C66.4675,22.7000056 66.495,22.7275056 66.5775,22.7825056 C66.9075,22.9612556 66.935,23.1125056 66.935,23.2500056 C66.935,24.3637556 66.935,25.6287556 66.9075,26.6187556 C66.89375,26.8937556 66.83875,26.9900056 66.495,27.0587556 C66.33,27.0862556 66.20625,27.1412556 66.20625,27.1962556 C66.20625,27.2650056 66.31625,27.2925056 66.4675,27.2925056 C66.72875,27.2925056 67.0175,27.2650056 67.19625,27.2650056 C67.5125,27.2650056 68.18625,27.3200056 68.29625,27.3200056 C68.43375,27.3200056 68.57125,27.3200056 68.57125,27.2375056 C68.57125,27.1687556 68.5025,27.1412556 68.3375,27.1000056 C68.1175,27.0312556 67.9525,26.9625056 67.91125,26.6600056 C67.88375,26.4675056 67.8425,26.1100056 67.82875,25.2162556 C67.82875,24.3912556 67.815,23.6900056 67.815,23.5250056 C67.815,23.4150056 67.88375,23.2087556 67.98,23.1125056 C68.3375,22.8100056 68.695,22.6725056 69.0525,22.6725056 C69.36875,22.6725056 69.63,22.7687556 69.83625,22.9337556 C70.18,23.1950056 70.27625,23.5250056 70.27625,24.6387556 L70.27625,26.5087556 C70.27625,26.9075056 70.22125,27.0037556 69.89125,27.0862556 C69.7125,27.1275056 69.63,27.1825056 69.63,27.2375056 C69.63,27.2925056 69.72625,27.3200056 69.85,27.3200056 C70.05625,27.3200056 70.235,27.2650056 70.7025,27.2650056 C71.005,27.2650056 71.40375,27.3200056 71.5825,27.3200056 Z"/>
      <path fill="#000" d="M2.9425,45.1525111 C3.96,45.1525111 4.60625,44.5612611 4.88125,44.1350111 C4.96375,44.0112611 4.99125,43.9425111 4.99125,43.8875111 C4.99125,43.8325111 4.93625,43.8325111 4.8675,43.8875111 C4.46875,44.2450111 4.125,44.3550111 3.53375,44.3550111 C3.2175,44.3550111 2.70875,44.2312611 2.3375,43.8737611 C1.98,43.5437611 1.76,42.8562611 1.76,42.1825111 C1.76,40.6287611 2.475,40.1750111 2.84625,40.1750111 C3.0525,40.1750111 3.17625,40.2025111 3.355,40.2850111 C3.5475,40.3675111 4.0425,40.7800111 4.22125,40.9312611 C4.30375,41.0000111 4.41375,41.0550111 4.455,41.0550111 C4.66125,41.0550111 4.895,40.8350111 4.895,40.5187611 C4.895,40.4500111 4.82625,40.3125111 4.73,40.2575111 C4.5375,40.1062611 4.13875,39.8862611 3.3825,39.8862611 C2.62625,39.8862611 1.815,40.2850111 1.36125,40.6700111 C0.935,41.0275111 0.44,41.7287611 0.44,42.5950111 C0.44,43.3650111 0.67375,43.9975111 1.11375,44.4512611 C1.5675,44.9050111 2.24125,45.1525111 2.9425,45.1525111 Z M8.305,45.1800111 C8.81375,45.1800111 9.4875,45.0012611 9.955,44.6437611 C10.38125,44.3137611 11.0275,43.5850111 11.0275,42.4850111 C11.0275,41.0550111 9.91375,39.8862611 8.2775,39.8862611 C7.71375,39.8862611 7.08125,40.0650111 6.5175,40.5187611 C6.09125,40.8487611 5.54125,41.5087611 5.54125,42.5537611 C5.54125,44.0250111 6.7375,45.1800111 8.305,45.1800111 Z M8.47,44.9600111 C8.09875,44.9600111 7.71375,44.6850111 7.425,44.2037611 C7.08125,43.6125111 6.99875,42.8425111 6.99875,42.1825111 C6.99875,40.9862611 7.5625,40.1200111 8.15375,40.1200111 C9.11625,40.1200111 9.55625,41.2062611 9.55625,42.7737611 C9.55625,43.7912611 9.2675,44.4512611 9.1025,44.6437611 C8.95125,44.8362611 8.7175,44.9600111 8.47,44.9600111 Z M14.08,45.0562611 C14.2175,45.0562611 14.355,45.0150111 14.355,44.9600111 C14.355,44.8912611 14.25875,44.8500111 14.17625,44.8362611 C13.81875,44.7537611 13.73625,44.6987611 13.7225,44.2587611 C13.70875,44.0112611 13.695,43.4612611 13.695,41.6737611 L13.695,40.6012611 C13.695,38.2225111 13.73625,35.9262611 13.73625,35.8300111 C13.73625,35.7612611 13.70875,35.6787611 13.68125,35.6787611 C13.62625,35.6787611 13.5575,35.7062611 13.48875,35.7337611 C13.2,35.8300111 12.66375,36.0362611 12.1,36.1187611 C11.97625,36.1462611 11.89375,36.1875111 11.89375,36.2287611 C11.89375,36.2700111 11.935,36.3250111 12.03125,36.3800111 C12.3475,36.5450111 12.41625,36.6412611 12.41625,36.9575111 C12.43,37.4250111 12.41625,38.8825111 12.41625,39.6387611 C12.4025,40.9587611 12.3475,43.5162611 12.32,44.0800111 C12.2925,44.6712611 12.21,44.7537611 11.83875,44.8225111 C11.72875,44.8500111 11.6325,44.8775111 11.6325,44.9462611 C11.6325,45.0150111 11.7425,45.0425111 11.88,45.0425111 C12.25125,45.0425111 12.54,45.0150111 12.91125,45.0150111 C13.1175,45.0150111 13.6675,45.0562611 14.08,45.0562611 Z M17.765,45.1800111 C18.27375,45.1800111 18.9475,45.0012611 19.415,44.6437611 C19.84125,44.3137611 20.4875,43.5850111 20.4875,42.4850111 C20.4875,41.0550111 19.37375,39.8862611 17.7375,39.8862611 C17.17375,39.8862611 16.54125,40.0650111 15.9775,40.5187611 C15.55125,40.8487611 15.00125,41.5087611 15.00125,42.5537611 C15.00125,44.0250111 16.1975,45.1800111 17.765,45.1800111 Z M17.93,44.9600111 C17.55875,44.9600111 17.17375,44.6850111 16.885,44.2037611 C16.54125,43.6125111 16.45875,42.8425111 16.45875,42.1825111 C16.45875,40.9862611 17.0225,40.1200111 17.61375,40.1200111 C18.57625,40.1200111 19.01625,41.2062611 19.01625,42.7737611 C19.01625,43.7912611 18.7275,44.4512611 18.5625,44.6437611 C18.41125,44.8362611 18.1775,44.9600111 17.93,44.9600111 Z M21.35375,45.0837611 C21.68375,45.0837611 21.67,45.0150111 22.495,45.0150111 C23.155,45.0150111 23.4025,45.0700111 23.7875,45.0700111 C23.96625,45.0700111 24.07625,45.0425111 24.07625,44.9737611 C24.07625,44.9050111 24.02125,44.8637611 23.82875,44.8362611 C23.32,44.7675111 23.22375,44.6712611 23.16875,44.2587611 C23.14125,43.9425111 23.11375,43.3650111 23.11375,42.3887611 C23.11375,42.1275111 23.1,41.5912611 23.14125,41.3300111 C23.16875,41.2062611 23.19625,41.1100111 23.2925,41.0137611 C23.43,40.8762611 23.595,40.8212611 23.76,40.8212611 C23.91125,40.8212611 24.145,40.9312611 24.29625,41.0412611 C24.43375,41.1375111 24.5025,41.1375111 24.53,41.1375111 C24.59875,41.1375111 24.6675,41.1100111 24.805,40.9725111 C25.03875,40.7387611 25.2175,40.4362611 25.2175,40.3125111 C25.2175,40.2025111 25.1625,40.1337611 25.025,40.0375111 C24.915,39.9550111 24.75,39.9000111 24.57125,39.9000111 C24.035,39.9000111 23.54,40.3950111 23.155,40.9037611 C23.14125,40.9450111 23.08625,40.9312611 23.08625,40.8625111 C23.08625,40.5600111 23.11375,40.1750111 23.11375,39.9275111 C23.11375,39.8587611 23.0725,39.7762611 23.045,39.7762611 C22.99,39.7762611 22.935,39.7900111 22.81125,39.8587611 C22.55,39.9962611 22.06875,40.1612611 21.49125,40.3125111 C21.43625,40.3400111 21.34,40.3950111 21.34,40.4362611 C21.34,40.4775111 21.3675,40.5050111 21.45,40.5737611 C21.76625,40.8487611 21.8075,40.8762611 21.8075,40.9587611 C21.82125,41.1237611 21.8075,41.4812611 21.8075,42.3475111 C21.79375,43.2550111 21.78,44.0387611 21.76625,44.2725111 C21.725,44.6575111 21.615,44.7675111 21.29875,44.8362611 C21.1475,44.8637611 21.0925,44.9325111 21.0925,44.9875111 C21.0925,45.0425111 21.175,45.0837611 21.35375,45.0837611 Z M26.7575,38.8137611 C27.06,38.8137611 27.43125,38.6075111 27.43125,38.1262611 C27.43125,37.8100111 27.17,37.4800111 26.82625,37.4800111 C26.5375,37.4800111 26.18,37.7000111 26.18,38.1812611 C26.18,38.5387611 26.46875,38.8137611 26.7575,38.8137611 Z M27.76125,45.0837611 C27.87125,45.0837611 27.9675,45.0562611 27.9675,44.9875111 C27.9675,44.9325111 27.92625,44.8912611 27.775,44.8500111 C27.5,44.7812611 27.43125,44.6575111 27.40375,44.4237611 C27.37625,44.2175111 27.37625,43.1175111 27.37625,41.5775111 C27.37625,41.0000111 27.37625,40.2987611 27.40375,40.0100111 C27.4175,39.8587611 27.39,39.8175111 27.34875,39.8175111 C27.3075,39.8175111 27.2525,39.8587611 27.1425,39.9000111 C26.66125,40.0925111 26.41375,40.1887611 25.795,40.3125111 C25.64375,40.3537611 25.6025,40.3950111 25.6025,40.4225111 C25.6025,40.4775111 25.64375,40.5187611 25.7125,40.5737611 C26.07,40.8212611 26.07,40.8762611 26.07,41.1375111 C26.07,41.2750111 26.02875,43.6675111 26.02875,44.0800111 C26.02875,44.5612611 25.9325,44.7400111 25.575,44.8225111 C25.41,44.8500111 25.3275,44.8775111 25.3275,44.9462611 C25.3275,45.0012611 25.4375,45.0425111 25.56125,45.0425111 C25.7125,45.0425111 26.02875,45.0150111 26.63375,45.0150111 C27.21125,45.0150111 27.5275,45.0837611 27.76125,45.0837611 Z M31.94125,45.0700111 C32.05125,45.0700111 32.29875,45.0150111 33.0825,45.0150111 C33.3575,45.0150111 33.81125,45.0562611 34.1275,45.0562611 C34.25125,45.0562611 34.32,45.0287611 34.32,44.9737611 C34.32,44.9050111 34.2375,44.8775111 34.16875,44.8500111 C33.7975,44.7537611 33.72875,44.6437611 33.715,43.7912611 C33.715,43.0212611 33.70125,42.8837611 33.6875,42.0862611 C33.6875,41.2887611 33.53625,40.6700111 33.20625,40.3537611 C32.9725,40.1062611 32.6425,39.8862611 32.10625,39.8862611 C31.8175,39.8862611 31.5425,39.9550111 31.295,40.0650111 C31.02,40.1887611 30.75875,40.3812611 30.48375,40.6012611 C30.45625,40.6287611 30.415,40.6150111 30.415,40.5875111 C30.40125,40.3950111 30.42875,40.0512611 30.4425,39.9000111 C30.4425,39.8312611 30.37375,39.7762611 30.3325,39.7900111 C30.1125,39.9137611 29.3425,40.2575111 28.875,40.3537611 C28.75125,40.3812611 28.6825,40.4225111 28.6825,40.4637611 C28.6825,40.4912611 28.66875,40.5187611 28.7925,40.6012611 C29.0675,40.7937611 29.10875,40.9037611 29.10875,41.0412611 C29.10875,42.3062611 29.095,43.5025111 29.0675,44.3000111 C29.05375,44.6162611 29.02625,44.7262611 28.64125,44.7950111 C28.5175,44.8225111 28.39375,44.8775111 28.39375,44.9325111 C28.39375,45.0012611 28.50375,45.0425111 28.655,45.0425111 C29.0675,45.0425111 29.425,45.0150111 29.60375,45.0150111 C29.92,45.0150111 30.70375,45.0700111 30.84125,45.0700111 C30.9375,45.0700111 31.08875,45.0562611 31.08875,44.9737611 C31.08875,44.9050111 31.03375,44.8775111 30.86875,44.8362611 C30.62125,44.7537611 30.525,44.6712611 30.48375,44.3687611 C30.47,44.2037611 30.4425,43.5162611 30.42875,42.6637611 C30.42875,41.9625111 30.415,41.3162611 30.415,41.0550111 C30.415,40.9450111 30.48375,40.8212611 30.5525,40.7662611 C30.7175,40.6287611 31.00625,40.5050111 31.295,40.5050111 C31.4875,40.5050111 31.735,40.5462611 31.94125,40.6975111 C32.27125,40.9587611 32.35375,41.2475111 32.35375,42.3062611 L32.35375,44.3275111 C32.35375,44.6437611 32.285,44.7400111 31.91375,44.8500111 C31.79,44.8775111 31.7075,44.9187611 31.7075,44.9737611 C31.7075,45.0287611 31.80375,45.0700111 31.94125,45.0700111 Z M36.905,48.9062611 C37.55125,48.9062611 38.21125,48.7137611 38.89875,48.2600111 C39.5175,47.8750111 40.2325,47.0362611 40.2325,46.1700111 C40.2325,45.6337611 40.05375,45.2350111 39.75125,44.9600111 C39.5175,44.7537611 39.16,44.5750111 38.59625,44.5750111 C38.10125,44.5750111 37.49625,44.5887611 37.08375,44.5887611 C36.3275,44.5887611 35.92875,44.3962611 35.92875,44.0662611 C35.92875,44.0112611 35.9425,43.9150111 36.03875,43.8050111 C36.135,43.6950111 36.2725,43.5712611 36.36875,43.5300111 C36.39625,43.5162611 36.465,43.4887611 36.52,43.5025111 C36.67125,43.5437611 36.97375,43.5850111 37.16625,43.5850111 C37.41375,43.5850111 37.93625,43.4887611 38.335,43.2000111 C38.83,42.8287611 39.17375,42.1412611 39.17375,41.3987611 L39.17287,41.1644611 C39.17155,41.0440111 39.16825,40.9285111 39.16,40.8625111 C39.16,40.8487611 39.20125,40.7937611 39.22875,40.7937611 C39.38,40.7937611 39.7925,40.8212611 39.99875,40.8212611 C40.05375,40.8212611 40.13625,40.6700111 40.13625,40.5325111 C40.13625,40.3262611 40.095,40.2025111 40.04,40.2025111 C39.80625,40.2025111 39.31125,40.2300111 39.06375,40.2300111 C38.87125,40.2300111 38.72,40.2162611 38.59625,40.1612611 C38.43125,40.0650111 37.79875,39.8037611 37.11125,39.8037611 C36.56125,39.8037611 35.95625,40.0100111 35.57125,40.3950111 C35.24125,40.7112611 34.99375,41.0550111 34.99375,41.7425111 C34.99375,42.5262611 35.54375,43.1175111 36.08,43.4062611 C36.1075,43.4200111 36.12125,43.4475111 36.1075,43.4612611 C35.9425,43.6812611 35.21375,44.2725111 34.91125,44.5062611 C34.88375,44.5200111 34.85625,44.5750111 34.85625,44.6712611 C34.85625,45.3450111 35.695,45.8262611 35.95625,45.9087611 C35.98375,45.9225111 35.9975,45.9775111 35.98375,46.0050111 C35.73625,46.2387611 35.2825,46.6925111 35.15875,46.8437611 C35.0075,46.9950111 34.88375,47.1462611 34.88375,47.4212611 C34.88375,48.3150111 35.6675,48.9062611 36.905,48.9062611 Z M37.30375,43.3787611 C37.015,43.3787611 36.7675,43.1725111 36.58875,42.9112611 C36.45125,42.6912611 36.245,42.1962611 36.245,41.3987611 C36.245,40.9725111 36.34125,40.5600111 36.52,40.2987611 C36.63,40.1612611 36.8225,40.0100111 37.02875,40.0100111 C37.27625,40.0100111 37.4275,40.0925111 37.675,40.4225111 C37.9225,40.7662611 38.07375,41.3850111 38.07375,42.0175111 C38.07375,42.6362611 37.8125,43.3787611 37.30375,43.3787611 Z M37.49625,48.3700111 C37.02875,48.3700111 36.64375,48.2462611 36.28625,47.9987611 C35.90125,47.7375111 35.7225,47.2837611 35.7225,47.0637611 C35.7225,46.7337611 35.84625,46.3487611 36.19,46.0600111 C36.2175,46.0462611 36.3275,45.9912611 36.53375,45.9775111 C36.91875,45.9775111 37.7025,45.9500111 38.1975,45.9500111 C39.1325,45.9500111 39.435,46.4312611 39.435,46.9675111 C39.435,47.3662611 39.16,47.8475111 38.775,48.0950111 C38.3625,48.3700111 37.8125,48.3700111 37.49625,48.3700111 Z M44.9075,45.1800111 C45.69125,45.1800111 46.5575,44.8775111 47.19,44.2312611 C47.4925,43.9287611 47.905,43.2687611 47.905,42.3200111 C47.905,41.7562611 47.69875,41.1375111 47.2725,40.6700111 C46.95625,40.3125111 46.40625,39.9275111 45.54,39.9275111 C45.0725,39.9275111 44.59125,40.0925111 44.275,40.3125111 C44.23375,40.3262611 44.1925,40.3125111 44.1925,40.2162611 C44.1925,38.9925111 44.23375,36.6962611 44.275,35.8300111 C44.275,35.6787611 44.2475,35.6237611 44.22,35.6237611 C44.165,35.6237611 44.09625,35.6375111 43.9725,35.6925111 C43.4775,35.8987611 42.72125,36.0362611 42.55625,36.0775111 C42.39125,36.1050111 42.33625,36.1600111 42.33625,36.2012611 C42.33625,36.2287611 42.3775,36.2700111 42.4875,36.3525111 C42.77625,36.5312611 42.80375,36.6137611 42.845,36.8337611 C42.88625,37.1087611 42.9,37.8237611 42.9,38.9650111 C42.88625,40.4087611 42.85875,42.5125111 42.83125,43.2550111 C42.80375,44.2037611 42.7625,44.5337611 42.72125,44.7812611 C42.72125,44.8225111 42.7625,44.9050111 42.8175,44.8775111 C43.065,44.7812611 43.1475,44.7812611 43.21625,44.8087611 C43.65625,45.0150111 44.37125,45.1800111 44.9075,45.1800111 Z M45.4025,44.9050111 C45.22375,44.9050111 44.94875,44.8500111 44.825,44.7812611 C44.64625,44.6850111 44.42625,44.5337611 44.3575,44.3687611 C44.22,44.0800111 44.1375,43.3100111 44.1375,42.8012611 C44.1375,42.2650111 44.12375,40.9862611 44.17875,40.7387611 C44.1925,40.6425111 44.22,40.5462611 44.275,40.5050111 C44.37125,40.4500111 44.5775,40.3812611 44.7975,40.3812611 C45.36125,40.3812611 45.80125,40.7525111 45.98,40.9725111 C46.37875,41.4675111 46.5025,42.3200111 46.5025,42.7875111 L46.48875,42.7875111 C46.48875,43.4200111 46.32375,44.1350111 46.10375,44.4650111 C45.91125,44.7675111 45.5675,44.9050111 45.4025,44.9050111 Z M51.52125,45.1800111 C52.03,45.1800111 52.70375,45.0012611 53.17125,44.6437611 C53.5975,44.3137611 54.24375,43.5850111 54.24375,42.4850111 C54.24375,41.0550111 53.13,39.8862611 51.49375,39.8862611 C50.93,39.8862611 50.2975,40.0650111 49.73375,40.5187611 C49.3075,40.8487611 48.7575,41.5087611 48.7575,42.5537611 C48.7575,44.0250111 49.95375,45.1800111 51.52125,45.1800111 Z M51.68625,44.9600111 C51.315,44.9600111 50.93,44.6850111 50.64125,44.2037611 C50.2975,43.6125111 50.215,42.8425111 50.215,42.1825111 C50.215,40.9862611 50.77875,40.1200111 51.37,40.1200111 C52.3325,40.1200111 52.7725,41.2062611 52.7725,42.7737611 C52.7725,43.7912611 52.48375,44.4512611 52.31875,44.6437611 C52.1675,44.8362611 51.93375,44.9600111 51.68625,44.9600111 Z M57.86,45.1800111 C58.36875,45.1800111 59.0425,45.0012611 59.51,44.6437611 C59.93625,44.3137611 60.5825,43.5850111 60.5825,42.4850111 C60.5825,41.0550111 59.46875,39.8862611 57.8325,39.8862611 C57.26875,39.8862611 56.63625,40.0650111 56.0725,40.5187611 C55.64625,40.8487611 55.09625,41.5087611 55.09625,42.5537611 C55.09625,44.0250111 56.2925,45.1800111 57.86,45.1800111 Z M58.025,44.9600111 C57.65375,44.9600111 57.26875,44.6850111 56.98,44.2037611 C56.63625,43.6125111 56.55375,42.8425111 56.55375,42.1825111 C56.55375,40.9862611 57.1175,40.1200111 57.70875,40.1200111 C58.67125,40.1200111 59.11125,41.2062611 59.11125,42.7737611 C59.11125,43.7912611 58.8225,44.4512611 58.6575,44.6437611 C58.50625,44.8362611 58.2725,44.9600111 58.025,44.9600111 Z M67.2375,45.0837611 C67.38875,45.0837611 67.49875,45.0425111 67.49875,44.9737611 C67.49875,44.9187611 67.44375,44.8775111 67.30625,44.8500111 C66.9075,44.7812611 66.77,44.6575111 66.37125,44.2175111 C65.835,43.6262611 64.91375,42.4850111 64.41875,41.8112611 C64.405,41.7837611 64.3775,41.7425111 64.405,41.7150111 C64.72125,41.3850111 65.10625,41.0412611 65.4225,40.7800111 C65.84875,40.4225111 66.15125,40.2850111 66.61875,40.1750111 C66.78375,40.1475111 66.83875,40.1062611 66.83875,40.0650111 C66.83875,40.0100111 66.75625,39.9687611 66.605,39.9687611 C66.12375,39.9687611 65.67,40.0512611 65.16125,40.0512611 C65.05125,40.0512611 64.845,40.0375111 64.6525,40.0375111 C64.52875,40.0375111 64.41875,40.0787611 64.41875,40.1337611 C64.41875,40.2025111 64.50125,40.2300111 64.63875,40.2575111 C65.05125,40.3262611 65.13375,40.4362611 65.13375,40.5050111 C65.13375,40.5600111 65.07875,40.6425111 65.01,40.7250111 C64.7625,41.1100111 64.02,41.8387611 63.53875,42.1687611 C63.45625,42.2237611 63.36,42.2925111 63.305,42.2925111 C63.26375,42.2925111 63.23625,42.2237611 63.23625,42.1000111 C63.2225,41.4125111 63.29125,39.0750111 63.29125,38.6075111 C63.29125,37.5762611 63.36,36.2012611 63.37375,35.7200111 C63.37375,35.6787611 63.3325,35.6237611 63.31875,35.6237611 C63.26375,35.6237611 63.1675,35.6512611 63.07125,35.6925111 C63.0575,35.7062611 62.645,35.9125111 61.7375,36.0775111 C61.5725,36.1050111 61.47625,36.1600111 61.47625,36.2150111 C61.47625,36.2562611 61.545,36.2975111 61.6,36.3387611 C61.80625,36.4487611 61.93,36.5450111 61.93,36.6412611 C61.97125,36.8612611 61.985,36.9850111 61.985,37.3012611 C61.985,38.0712611 61.9575,40.4912611 61.9575,41.0687611 C61.9575,42.1275111 61.94375,43.1587611 61.88875,44.1625111 C61.86125,44.6162611 61.80625,44.7537611 61.39375,44.8500111 C61.28375,44.8775111 61.20125,44.9187611 61.20125,44.9737611 C61.20125,45.0287611 61.325,45.0700111 61.435,45.0700111 C61.50375,45.0700111 61.985,45.0150111 62.52125,45.0150111 C62.87875,45.0150111 63.31875,45.0562611 63.7175,45.0562611 C63.81375,45.0562611 63.97875,45.0287611 63.97875,44.9462611 C63.97875,44.8912611 63.8825,44.8362611 63.745,44.8087611 C63.4425,44.7400111 63.26375,44.6987611 63.23625,44.0250111 C63.2225,43.5575111 63.20875,42.8012611 63.23625,42.5812611 C63.25,42.5125111 63.25,42.4712611 63.29125,42.4712611 C63.3325,42.4712611 63.42875,42.5812611 63.56625,42.7462611 C63.9925,43.2412611 64.735,44.1625111 64.94125,44.4375111 C65.065,44.6300111 65.01,44.7262611 64.79,44.7950111 C64.58375,44.8500111 64.52875,44.8775111 64.52875,44.9462611 C64.52875,45.0150111 64.5975,45.0425111 64.7625,45.0425111 C64.955,45.0425111 65.16125,45.0150111 65.4225,45.0150111 C66.0275,45.0150111 66.45375,45.0837611 67.2375,45.0837611 Z M69.53375,42.5537611 C69.58875,42.5537611 69.6575,42.4987611 69.69875,42.1550111 C69.86375,40.8212611 70.44125,39.0337611 70.44125,38.1262611 C70.44125,37.5900111 70.13875,36.9575111 69.53375,36.9575111 C68.98375,36.9575111 68.6125,37.6175111 68.6125,38.1675111 C68.62625,39.1575111 69.17625,40.5875111 69.355,42.1962611 C69.39625,42.4850111 69.45125,42.5537611 69.53375,42.5537611 Z M69.5475,45.1937611 C69.8775,45.1937611 70.33125,44.8775111 70.33125,44.3550111 C70.33125,43.9700111 70.05625,43.5025111 69.5475,43.5025111 C69.12125,43.5025111 68.73625,43.8737611 68.73625,44.3550111 C68.75,44.8225111 69.1075,45.1937611 69.5475,45.1937611 Z"/>
    </g>
    <g fill-rule="nonzero" stroke="#222F3C" stroke-width=".4" transform="translate(83 83)">
      <path stroke-linecap="round" stroke-linejoin="round" d="M5.27044616 2.33272537L3.2647045 2.33272537C3.00812376 2.33272537 2.8009318 2.1217404 2.8009318 1.86197279L2.8009318.469533011C2.8009318.209765397 3.00812376 0 3.2647045 0L8.54170005 0"/>
      <g stroke-linecap="round" stroke-linejoin="round" transform="translate(0 2.27)">
        <g transform="translate(.352 10.795)">
          <line x1="2" x2="3.413" y1="2" y2="2.2"/>
          <path/>
        </g>
        <line x1="4.128" x2="4.128" y1="3.936" y2=".677"/>
        <g transform="translate(1 4)">
          <line x1="2.638" x2=".848" y1="8.795" y2="8.92"/>
          <path/>
          <line x1=".065" x2=".189" y1="7.696" y2="7.571"/>
          <line x1=".072" x2="3.123" y1="7.571"/>
          <path d="M.0654250778 7.58651438C.0234897863 7.68895795 0 7.79993848 0 7.9185413 0 8.40179443.38735561 8.79388498.865960006 8.79388498"/>
          <line x1=".065" x2=".189" y1="7.695" y2="7.57"/>
        </g>
        <g transform="translate(1 4)">
          <line x1="2.638" x2=".848" y1="8.795" y2="8.92"/>
          <path/>
          <line x1=".065" x2=".189" y1="7.696" y2="7.571"/>
          <line x1=".072" x2="3.123" y1="7.571"/>
          <path d="M.0654250778 7.58651438C.0234897863 7.68895795 0 7.79993848 0 7.9185413 0 8.40179443.38735561 8.79388498.865960006 8.79388498"/>
          <line x1=".065" x2=".189" y1="7.695" y2="7.57"/>
        </g>
      </g>
      <g transform="translate(5.824 11.008)">
        <path/>
      </g>
      <g transform="translate(2.678 1.414)">
        <path stroke-linecap="round" stroke-linejoin="round" d="M6.03028654 2.33303026L8.82293603 2.33303026C9.05979137 2.33303026 9.25102233 2.1217404 9.25102233 1.86197279L9.25102233.469533011C9.25102233.209765397 9.05979137 0 8.82293603 0L3.49911149 0C3.26353604 0 3.07230508.209765397 3.07230508.469533011L3.07230508 1.86197279C3.07230508 2.1217404 3.26353604 2.33303026 3.49911149 2.33303026L4.42055859 2.33303026"/>
        <g stroke-linecap="round" stroke-linejoin="round" transform="translate(0 3.468)">
          <line x1="4.128" x2="4.128" y1="3.259"/>
          <g transform="translate(1 3.323)">
            <line x1="8.97" x2=".847" y1="8.796" y2="8.796"/>
            <path/>
            <line x1=".065" x2=".188" y1="7.696" y2="7.571"/>
            <line x1=".071" x2="3.123" y1="7.571"/>
            <path d="M.06534979 7.58614851C.0234144985 7.68859208 0 7.80109706 0 7.91848032 0 8.40173345.38735561 8.793824.864680113 8.793824"/>
            <line x1=".065" x2=".189" y1="7.696" y2="7.571"/>
          </g>
          <line x1="8.194" x2="8.318" y1="3.259"/>
          <g transform="translate(.975 3.323)">
            <line x1="1" x2="9.5" y1="8.796" y2="8.92"/>
            <path/>
            <line x1="10.399" x2="10.276" y1="7.696" y2="7.571"/>
            <line x1="10.275" x2="7.224" y1="7.571"/>
            <path d="M10.2814108 7.58614851C10.3233461 7.68859208 10.3467606 7.80109706 10.3467606 7.91848032 10.3467606 8.40173345 9.9594803 8.793824 9.48208051 8.793824"/>
            <line x1="10.399" x2="10.275" y1="7.696" y2="7.571"/>
          </g>
          <g transform="translate(.975 3.323)">
            <line x1="1" x2="9.5" y1="8.796" y2="8.92"/>
            <path/>
            <line x1="10.399" x2="10.276" y1="7.696" y2="7.571"/>
            <line x1="10.275" x2="7.224" y1="7.571"/>
            <path d="M10.2814108 7.58614851C10.3233461 7.68859208 10.3467606 7.80109706 10.3467606 7.91848032 10.3467606 8.40173345 9.9594803 8.793824 9.48208051 8.793824"/>
            <line x1="10.399" x2="10.275" y1="7.696" y2="7.571"/>
          </g>
        </g>
        <line x1="6.823" x2="8.224" y1="4.258" y2="4.383"/>
        <line x1="6.823" x2="8.224" y1="3.445" y2="3.569"/>
        <line x1="6.823" x2="8.224" y1="5.08" y2="5.205"/>
        <line x1="6.823" x2="8.224" y1="5.903" y2="6.028"/>
        <line x1="6.823" x2="8.224" y1="6.725" y2="6.85"/>
      </g>
      <g transform="translate(6.484 11.393)">
        <path d="M0,1.48238279 C0,1.17179992 0.278364006,0.67767232 0.835092017,0 C1.39182003,0.67767232 1.67018403,1.17179992 1.67018403,1.48238279 C1.67018403,1.94947667 1.29638022,2.3278471 0.835092017,2.3278471 C0.373728523,2.3278471 0,1.94947667 0,1.48238279 Z"/>
      </g>
      <g transform="translate(8.227 13.485)">
        <path d="M0,1.48360236 C0,1.17220644 0.277962471,0.67767232 0.833887413,0 C1.39061542,0.67767232 1.66897943,1.17220644 1.66897943,1.48360236 C1.66897943,1.94947667 1.29517562,2.3278471 0.833887413,2.3278471 C0.37380381,2.3278471 0,1.94947667 0,1.48360236 Z"/>
      </g>
      <g transform="translate(8.688 10.489)">
        <path d="M0,1.48238279 C0,1.17179992 0.278364006,0.67767232 0.835092017,0 C1.39182003,0.67767232 1.67018403,1.17179992 1.67018403,1.48238279 C1.67018403,1.94947667 1.29638022,2.3278471 0.835092017,2.3278471 C0.373728523,2.3278471 0,1.94947667 0,1.48238279 Z"/>
      </g>
    </g>
    <g fill-rule="nonzero" stroke="#222F3C" stroke-width=".4" transform="translate(205 57)">
      <path d="M2.39150132,11.9914354 L19.0205341,11.8795177 L18.9380222,24.129299 C18.9343376,24.6763199 18.4917959,25.1188592 17.944775,25.1225408 L3.31587831,25.220997 C2.76360607,25.2247139 2.31288779,24.780022 2.30917086,24.2277497 C2.30914065,24.2232612 2.30914066,24.2187725 2.30917089,24.214284 L2.39150132,11.9914354 L2.39150132,11.9914354 Z" transform="rotate(43.256 10.661 18.554)"/>
      <polygon stroke-linecap="round" stroke-linejoin="round" points="11.656 1.917 14.982 1.895 14.924 10.404 11.599 10.426" transform="rotate(43.256 13.29 6.16)"/>
      <polygon stroke-linecap="round" stroke-linejoin="round" points="13.599 5.401 16.925 5.379 16.877 12.47 13.551 12.492" transform="rotate(43.256 15.238 8.935)"/>
      <polygon stroke-linecap="round" stroke-linejoin="round" points="15.543 8.887 18.869 8.864 18.831 14.537 15.505 14.559" transform="rotate(43.256 17.187 11.712)"/>
      <polygon stroke-linecap="round" stroke-linejoin="round" points="17.486 12.372 20.812 12.35 20.783 16.604 17.457 16.627" transform="rotate(43.256 19.135 14.488)"/>
      <polygon stroke-linecap="round" stroke-linejoin="round" points="19.429 15.856 22.755 15.834 22.736 18.67 19.41 18.693" transform="rotate(43.256 21.082 17.263)"/>
      <g stroke-linejoin="round" transform="translate(20.844 13.156)">
        <path d="M4.15590819 0L1.84746199 1.08199915 3.20165455 2.33909861 4.15590819 0zM1.84669577 1.08199915L0 1.94783999 2.43750071 4.21055863 3.20088833 2.33909861 1.84669577 1.08199915z"/>
      </g>
      <g stroke-linejoin="round" transform="translate(19.385 9.868)">
        <path d="M4.15590819 0L1.84746199 1.08199915 3.20165455 2.33909861 4.15590819 0zM1.84669577 1.08199915L0 1.94753809 2.43750071 4.21025673 3.20088833 2.33909861 1.84669577 1.08199915z"/>
      </g>
      <g stroke-linejoin="round" transform="translate(17.928 6.579)">
        <path d="M4.15457833,0 L1.84620862,1.08199915 L3.20040118,2.33909861 L4.15457833,0 Z"/>
        <path d="M1.84669577,1.08199915 L0,1.94753809 L2.43750071,4.21025673 L3.20088833,2.33909861 L1.84669577,1.08199915 Z"/>
      </g>
      <g stroke-linejoin="round" transform="translate(16.469 3.29)">
        <path d="M4.15457833,0 L1.84620862,1.08169725 L3.20032468,2.33879671 L4.15457833,0 Z"/>
        <path d="M1.84677227,1.08199915 L0,1.94783999 L2.43750071,4.21055863 L3.20088833,2.33909861 L1.84677227,1.08199915 Z"/>
      </g>
      <g stroke-linejoin="round" transform="translate(15.01)">
        <path d="M4.15465483,0 L1.84620862,1.08199915 L3.20040118,2.33909861 L4.15465483,0 Z"/>
        <path d="M1.84669577,1.08199915 L0,1.94753809 L2.43750071,4.21025673 L3.20088833,2.33909861 L1.84669577,1.08199915 Z"/>
      </g>
    </g>
    <line x2="162" stroke="#222F3C" stroke-linecap="round" stroke-linejoin="round" stroke-width=".5" transform="translate(72 147)"/>
    <g fill-rule="nonzero" stroke="#222F3C" stroke-width=".5" transform="translate(99 87)">
      <g transform="translate(28.204 2.434)">
        <g transform="translate(26.558)">
          <path d="M5.2905886 14.1686045C5.2905886 19.3910339 9.70918287 23.626228 15.1603109 23.626228 20.6101419 23.626228 25.0287362 19.3910339 25.0287362 14.1686045 25.0287362 13.5936582 25.0225565 13.0861551 24.9200203 12.539895M17.8820435 55.6092707L21.421073 55.6092707C22.2856197 55.6092707 22.9864733 56.3101243 22.9864733 57.1746711L22.9864733 57.5660067 22.9864733 57.5660067 17.8820435 57.5660067 17.8820435 55.6092707z"/>
          <path d="M7.33303213,55.6095344 L12.437462,55.6095344 L12.437462,56.00087 C12.437462,56.8654168 11.7366084,57.5662704 10.8720616,57.5662704 L7.33303213,57.5662704 L7.33303213,57.5662704 L7.33303213,55.6095344 Z" transform="rotate(180 9.885 56.588)"/>
          <g transform="translate(3.59 13.85)">
            <path d="M1.70123165.318600848C1.70123165.211179872 1.70619062.106200283 1.70992892 0 .75246638.0787346923 0 .847466049 0 1.78617889 0 2.77616084.838752446 3.57998711 1.87243053 3.57998711L2.30492895 3.57998711C1.91492509 2.56223441 1.70123165 1.46483148 1.70123165.318600848zM21.430674 0C21.4344123.106200283 21.4393713.211179872 21.4393713.318600848 21.4393713 1.46483148 21.2256778 2.56223441 20.835674 3.57998711L21.2681724 3.57998711C22.3018505 3.57998711 23.1406029 2.77616084 23.1406029 1.78617889 23.1406029.847466049 22.3881365.0787346923 21.430674 0z"/>
          </g>
          <g transform="translate(9.374 14.902)">
            <path d="M11.5709545 0C11.5709545.584711901 11.0759731 1.05986661 10.4647229 1.05986661 9.85347271 1.05986661 9.35849127.584711901 9.35849127 0M2.21246325 0C2.21246325.584711901 1.71748182 1.05986661 1.10623162 1.05986661.496278394 1.05986661 0 .584711901 0 0"/>
          </g>
          <path d="M13.2878675 19.4185874C13.2878675 20.4100952 14.1265437 21.2123956 15.160298 21.2123956 16.1927555 21.2123956 17.0315079 20.4100952 17.0315079 19.4185874M26.6099589 27.8711192C25.5262334 25.6448805 23.6913384 23.9047828 21.3913684 22.8974059 21.0888713 22.7121658 20.7476179 22.5833827 20.3801202 22.5235687 20.2614101 22.4985445 20.1401823 22.4848117 20.0188783 22.4848117 20.0001868 22.4848117 19.9826397 22.4860324 19.9651689 22.4860324L19.923895 22.4848117 19.8639296 22.4848117C18.4651951 23.2123447 16.8627613 23.6261596 15.160309 23.6261596 13.4565597 23.6261596 11.854126 23.2123447 10.4553915 22.4848117L10.3954261 22.4848117 10.3541522 22.4860324C10.3366814 22.4860324 10.3192106 22.4848117 10.3004428 22.4848117 10.179215 22.4848117 10.057911 22.4985445 9.93920093 22.5235687 9.57170315 22.5833827 9.23044977 22.7121658 8.92795264 22.8974059 6.62805895 23.9047828 4.7930877 25.6448805 3.70936217 27.8711192 3.62185544 28.0508662 3.54190159 28.2333598 3.46438909 28.4170741L6.80055479 29.1598657C7.04049261 28.6798282 7.33551314 28.2333598 7.67302823 27.8247328L7.67302823 36.7510497 22.6463692 36.7510497 22.6463692 27.8247328C22.9838079 28.2333598 23.2788285 28.6798282 23.5188426 29.1598657L26.854932 28.4170741C26.7787165 28.2333598 26.6974657 28.0508662 26.6099589 27.8711192z"/>
          <path d="M10.3879477 22.3485629C10.3879477 24.8775334 12.5266367 26.927382 15.1640455 26.927382 17.8027512 26.927382 19.9414403 24.8775334 19.9414403 22.3485629M24.3512701 34.1097315C24.6012785 33.9894932 24.8825665 33.9208293 25.181249 33.9208293 25.9050297 33.9208293 26.5312331 34.3160286 26.8425038 34.8921956 27.4912132 32.7172261 27.3199381 30.4772546 26.4862209 28.4985114L23.8938243 29.0771198C24.6412554 30.6084791 24.8399956 32.3833665 24.3512701 34.1097315z"/>
          <ellipse cx="25.181" cy="35.715" rx="1.872" ry="1.794"/>
          <path d="M2.7057095,33.3633901 C2.43815403,33.2361328 1.98192885,33.1671637 1.70193781,33.1671637 C2.94190902,31.8311153 3.76311435,30.1673109 3.80568519,28.4772616 L6.39556415,29.0671614 C6.22184764,31.1936084 5.33312404,33.2721433 3.74190522,34.9423563 C3.73061403,34.2935581 3.35319831,33.6734461 2.7057095,33.3633901 Z"/>
          <ellipse cx="1.872" cy="34.97" rx="1.872" ry="1.794"/>
          <path d="M15.1628303,0.487361642 C13.900353,0.487361642 12.6903645,0.725091585 11.5678827,1.15996343 C8.18922245,1.53502133 5.0918502,1.14745133 2.58566338,0 L2.58566338,3.16861361 C2.58566338,5.28254854 3.46309579,7.3061522 4.92561029,8.8848133 L4.92561029,8.8848133 C4.68681684,9.83237617 4.55559488,10.8287668 4.55559488,11.8587264 C4.55559488,12.5600145 4.61685722,13.2448232 4.73060835,13.9110163 C4.91431909,13.8447937 5.10932103,13.8072574 5.31309652,13.8072574 L5.31683482,13.8072574 C5.33560261,12.4348934 5.59804653,11.1247848 6.0618246,9.92728504 C6.52056741,10.2861688 7.01554884,10.6075162 7.5430306,10.8836979 C9.78417958,12.0598355 12.5353395,12.0372527 15.0990503,11.5123548 C16.4827554,11.2297644 18.0252237,11.081145 19.5826453,11.0762622 C21.3663484,11.1049485 23.1175512,11.3924217 24.8325154,11.9624853 C24.9400106,12.5612352 25.0000523,13.1773799 25.0087495,13.8072574 L25.0124878,13.8072574 C25.2162633,13.8072574 25.4112652,13.8447937 25.594976,13.9110163 C25.7049888,13.2637439 25.7650305,12.5987715 25.7687688,11.9173196 L25.7699895,11.8587264 C25.7699895,5.57856657 21.0213567,0.487361642 15.1628303,0.487361642 Z"/>
          <g transform="translate(7.673 37.952)">
            <path d="M7.50353096,5.46473696 L7.50353096,17.6423694 L14.274584,17.6423694 L14.274584,5.34358319 C15.0745802,4.41372037 14.9970677,1.28874653 14.9970677,0 L0,0.0524897949"/>
            <path d="M7.4944402,7.44500602 L7.4944402,17.6423694 L0.724607828,17.6423694 L0.724607828,5.34358319 C-0.0766090354,4.41372037 0.00212413952,1.28874653 0.00212413952,0 L14.9979712,0.0524897949"/>
          </g>
        </g>
        <g transform="translate(0 1.267)">
          <path d="M0.593703069,0 C0.597517661,0.106200283 0.60247663,0.211485046 0.60247663,0.318906021 C0.60247663,1.46513666 0.390003866,2.56376027 0,3.57998711 L0.432498419,3.57998711 C1.4662528,3.57998711 2.30370828,2.77646601 2.30370828,1.78617889 C2.30370828,0.847466049 1.55246257,0.0787346923 0.593703069,0 Z" transform="translate(24.383 12.642)"/>
          <g transform="translate(9.333 13.695)">
            <path d="M11.5697339 1.06017179C11.5697339.475154713 11.0747524 0 10.4635022 0 9.85347271 0 9.35849127.475154713 9.35849127 1.06017179M2.21124258 1.06017179C2.21124258.475154713 1.71626115 0 1.10623162 0 .494981433 0 0 .475154713 0 1.06017179"/>
          </g>
          <path d="M13.2462195 18.2110975C13.2462195 19.2023002 14.083675 20.0049057 15.1173531 20.0049057 16.1511074 20.0049057 16.9885629 19.2023002 16.9885629 18.2110975M27.5583256 32.0947532C27.8258811 31.9671908 28.2808093 31.8960855 28.5595797 31.8936441 27.334638 30.5871975 26.5296065 28.9548259 26.4996238 27.2910215L23.9159245 27.8925179C24.0721702 29.9847856 24.9409053 32.0248686 26.5146533 33.6572402 26.5296065 33.0185126 26.9109131 32.4048092 27.5583256 32.0947532z"/>
          <line x1="7.715" x2="24.26" y1="23.434" y2="23.434"/>
          <g stroke-linecap="round" stroke-linejoin="round" transform="translate(21.036 16.444)">
            <path d="M0 5.04878585C2.0886416 3.83511193 3.26117083 2.32145273 4.08107919 0"/>
          </g>
          <path d="M4.45519116,12.6986437 C3.86522639,13.0059531 3.46149,13.6196565 3.46149,14.3310153 C3.46149,15.042374 3.86522639,15.6597395 4.45519116,15.9673541 L4.45519116,12.6986437 Z"/>
          <g transform="translate(4.533)">
            <path d="M3.34619411 22.5334783C3.34619411 25.1958095 2.3061838 25.9895651.964973322 27.6722903L2.224933 27.9533548C2.46616778 27.4720966 2.75996764 27.0259334 3.0987034 26.6185271L3.0987034 35.574751 18.0707474 35.574751 18.0707474 26.6185271C18.4094831 27.0259334 18.703283 27.4720966 18.9445178 27.9533548L22.2793865 27.2096477C22.203171 27.0259334 22.1094083 26.8495433 22.0356341 26.6633876 21.0444505 24.1685965 17.9170193 21.7534556 15.3920647 21.1498229"/>
            <path stroke-linecap="round" stroke-linejoin="round" d="M21.1243702,12.6012128 L21.1243702,11.7525261 L21.1243702,10.5626557 C21.1243702,4.72896431 16.3945053,0 10.5622233,0 C4.728568,0 0,4.72896431 0,10.5626557"/>
            <path/>
          </g>
          <g transform="translate(3.418 .028)">
            <path/>
            <g transform="translate(0 10.421)">
              <path d="M4.46118038,11.7711514 L4.46118038,12.0848695 C4.46118038,14.7472007 3.4349026,15.5147114 2.09369212,17.1974366"/>
              <line x1="4.461" x2="4.461" y1="11.754" y2="11.879"/>
              <path d="M6.89231861,10.7286602 C6.11231088,10.9148158 5.27607606,11.2898737 4.46112667,11.7711319"/>
              <line x1="1.117" x2="1.242" y1="17.009" y2="14.729" stroke-linecap="round" stroke-linejoin="round"/>
              <path stroke-linecap="square" d="M1.11618984,17.0085539 L1.11496918,18.5637166 C1.44622833,18.0473635 1.75871969,17.6161538 2.06869342,17.2285838"/>
              <line x1="1.12" x2="1.245" y1="14.729" stroke-linecap="round" stroke-linejoin="round"/>
              <path stroke-linecap="round" stroke-linejoin="round"/>
              <path d="M0,16.9345726 C0.155025011,16.4023505 0.801216863,15.19478 1.11500519,14.6723234"/>
            </g>
            <path stroke-linecap="round" stroke-linejoin="round" d="M1.1612179 10.5626557C1.1612179 4.72896431 5.88986219 0 11.7234412 0 17.5557994 0 22.2418729 4.67006588 22.2418729 10.5037573"/>
            <path/>
          </g>
          <g transform="translate(7.879 6.554)">
            <path d="M16.9845463 5.03352719C16.4495117 4.9160355 15.910815 4.78236962 15.5108169 4.63619165 12.4571599 3.52475076 10.68841 1.86125151 9.95967033 0 7.09605626 1.58751112 3.48112019 2.73496245 2.56737287 3.58609058 1.25248307 4.81349729 0 6.57495715 0 8.37486884L0 12.7461701M16.9932802 5.03120787L17.1182767 5.15620683 16.9932802 5.03120787"/>
            <line y1="12.746" y2="15.649"/>
            <path d="M16.8332596 4.86870923C16.9982788 5.36247951 17.1207272 5.84739977 17.1207272 6.34727351 17.1207272 11.5697029 12.702133 15.804897 7.25230194 15.804897 4.38113498 15.804897 1.80369159 14.6223507 0 12.7461457"/>
          </g>
          <line x1="4.685" x2="3.464" y1="27.502" y2="27.132"/>
          <path d="M17.8123127,54.3417813 L21.3513422,54.3417813 C22.215889,54.3417813 22.9167426,55.0426349 22.9167426,55.9071817 L22.9167426,56.2985173 L22.9167426,56.2985173 L17.8123127,56.2985173 L17.8123127,54.3417813 Z"/>
          <path d="M7.26263491,54.342045 L12.3670648,54.342045 L12.3670648,54.7333807 C12.3670648,55.5979274 11.6662112,56.298781 10.8016645,56.298781 L7.26263491,56.298781 L7.26263491,56.298781 L7.26263491,54.342045 Z" transform="rotate(180 9.815 55.32)"/>
          <g transform="translate(7.604 36.685)">
            <path d="M7.50353096,5.46473696 L7.50353096,17.6423694 L14.2746603,17.6423694 L14.2746603,5.34358319 C15.0745802,4.41372037 14.995847,1.28874653 14.995847,0 L0,0.0524897949"/>
            <path d="M7.49444562,7.44500602 L7.49444562,17.6423694 L0.723392578,17.6423694 L0.723392578,5.34358319 C-0.0766036158,4.41372037 0.00212955911,1.28874653 0.00212955911,0 L14.9979766,0.0524897949"/>
          </g>
          <path d="M3.8065067 27.2097722C3.76271519 28.8998215 2.94150986 30.5636259 1.70153865 31.8996743 1.98152969 31.8996743 2.43905183 31.9686435 2.70523405 32.0959007 3.35401982 32.4059567 3.73151183 33.0260687 3.74150606 33.674867 5.33394555 32.0046539 6.22266915 29.9273397 6.39516499 27.799672"/>
          <ellipse cx="1.872" cy="33.702" rx="1.872" ry="1.794"/>
        </g>
        <path/>
      </g>
      <g transform="translate(10.965 17.396)">
        <path d="M11.5697339 1.06017179C11.5697339.475154713 11.0747524 0 10.4635022 0 9.85347271 0 9.35849127.475154713 9.35849127 1.06017179M2.21246325 1.06017179C2.21246325.475154713 1.71626115 0 1.10623162 0 .494981433 0 0 .475154713 0 1.06017179"/>
      </g>
      <path d="M14.8783387,21.9123165 C14.8783387,22.9035192 15.7157942,23.7061247 16.7494722,23.7061247 C17.7832266,23.7061247 18.6206821,22.9035192 18.6206821,21.9123165"/>
      <ellipse cx="6.728" cy="38.209" rx="1.872" ry="1.794"/>
      <path d="M30.1916989,35.5948631 C28.9667572,34.2884165 28.1617257,32.6560449 28.131743,30.9922405 L25.5480437,31.5937369 C25.7042894,33.6860046 26.5730245,35.7260876 28.1467725,37.3584592"/>
      <g transform="translate(5.077 24.851)">
        <path d="M2.05244326 6.52246736L3.31240293 6.8035319C3.55363772 6.32227372 3.84743758 5.87611047 4.18617333 5.46870421L4.18617333 14.424928 19.1582173 14.424928 19.1582173 5.46870421C19.496953 5.87611047 19.7907529 6.32227372 20.0319877 6.8035319L23.3668564 6.05982475C23.2906409 5.87611047 23.1968782 5.69972034 23.123104 5.51356467 22.1319205 3.01877355 19.0044892.603632641 16.4795346 0"/>
        <path d="M3.33486874 6.8035319L0 6.05982475C.0762155443 5.87611047.169978211 5.69972034.243752416 5.51356467 1.23493595 3.01877355 4.36236719.603632641 6.88724551 0"/>
      </g>
      <g transform="translate(4.826 16.217)">
        <path/>
        <g transform="translate(0 14)">
          <path/>
          <path stroke-linecap="round" stroke-linejoin="round" d="M0.693610855,1 C-0.102647039,2.48497292 -0.153915153,5.8635457 0.239827014,7.16846642 C0.77608233,6.28865201 1.78481299,5.98347878 2.7322813,6.38600227 C2.26980019,4.71365299 2.43100484,2.91496199 3.18972715,1.35369577"/>
          <path stroke-linecap="square"/>
          <path/>
        </g>
        <path stroke-linecap="round" stroke-linejoin="round"/>
        <path/>
      </g>
      <path d="M19.4445137 58.0430003L22.9835432 58.0430003C23.84809 58.0430003 24.5489436 58.7438539 24.5489436 59.6084007L24.5489436 59.9997363 24.5489436 59.9997363 19.4445137 59.9997363 19.4445137 58.0430003z"/>
      <path d="M8.89475409,58.043264 L13.999184,58.043264 L13.999184,58.4345996 C13.999184,59.2991464 13.2983303,60 12.4337836,60 L8.89475409,60 L8.89475409,60 L8.89475409,58.043264 Z" transform="rotate(180 11.447 59.022)"/>
      <g transform="translate(9.236 40.386)">
        <path d="M7.50353096,5.46473696 L7.50353096,17.6423694 L14.274584,17.6423694 L14.274584,5.34358319 C15.0745802,4.41372037 14.995847,1.28874653 14.995847,0 L0,0.0524897949"/>
        <path d="M7.49444562,7.44500602 L7.49444562,17.6423694 L0.723392578,17.6423694 L0.723392578,5.34358319 C-0.0766036158,4.41372037 0.00212955911,1.28874653 0.00212955911,0 L14.9979766,0.0524897949"/>
      </g>
      <path d="M8.56728451,15.0773957 C11.4721725,14.0288205 13.2084221,12.4812871 13.9896505,10.7424101 C15.5833106,13.0498248 19.2082409,14.6623601 23.4306126,14.6623601 C24.3630514,14.6623601 25.3980265,14.5824048 26.3918039,14.4337854 C26.5230259,15.067325 26.5917648,15.7237526 26.5917648,16.3948285 C26.5917648,21.7448204 22.2206241,26.0822474 16.8270201,26.0822474 C11.4334162,26.0822474 7.06105479,21.7448204 7.06105479,16.3948285 C7.06105479,16.0899605 7.07730495,15.7887545 7.10477001,15.4912106 C7.61851924,15.368531 8.14104202,15.231203 8.56728451,15.0773957 Z"/>
      <path d="M3.00490655,18.7174946 L3.00490655,5.96247449 C3.00490655,2.66996055 5.69610107,0 9.01471965,0 C11.5933837,0 13.7908175,1.61253533 14.6433024,3.87631032 C14.1845596,3.77865488 13.709643,3.72616509 13.2208412,3.72616509 C9.48719499,3.72616509 6.45978235,6.72876446 6.45978235,10.4335674 C6.45978235,10.7585769 6.4873237,11.0787036 6.53233589,11.391201 L6.53233589,11.391201 C6.55858028,11.5660653 6.58856297,11.740014 6.62731922,11.9112162 L6.63853412,11.8687971 C6.42484069,12.6961217 6.3097926,13.5637292 6.3097926,14.4572764 C6.3097926,14.8637671 6.33603699,15.2635441 6.38104917,15.6575227 C6.40859053,15.8873181 6.44482915,16.1149774 6.48602674,16.33989 C5.77361357,16.5785355 5.25856739,17.2462545 5.25856739,18.0348221 C5.25856739,19.0223627 6.06604018,19.8222217 7.06103831,19.8222217 L7.69227696,19.8222217 L7.69227696,19.8222217 C8.01598322,20.6712136 8.4572552,21.4610019 8.99473119,22.1760228 C8.78225842,24.4510892 6.85482148,26.2311646 4.50739797,26.2311646 C2.01868198,26.2311646 0,24.2298386 0,21.7597665 L0,20.2699108 C1.2662156,21.1485046 3.00490655,20.2509901 3.00490655,18.7174946 Z"/>
      <path d="M16.8270366,4.0249663 C22.5718882,4.0249663 27.2380495,8.59493536 27.3392887,14.2699367 C27.3392887,14.3324972 27.343027,14.3950577 27.343027,14.457313 C27.343027,15.1012285 27.2817647,15.7298854 27.1692342,16.3411474 C26.9880411,16.2798075 26.7942599,16.2462385 26.5917813,16.2462385 L26.588043,16.2462385 C26.5792695,15.6261265 26.5130481,15.0200525 26.3918204,14.4338147 L26.3930411,14.4338147 C25.3993399,14.5824341 24.3630679,14.6623894 23.4306291,14.6623894 C19.2082574,14.6623894 15.5833271,13.0498541 13.9896669,10.7424393 C13.2084385,12.4813164 11.4721889,14.0288498 8.56730099,15.077425 C7.58232252,15.355743 7.09481769,15.4936813 7.10478649,15.4912399 C7.08235669,15.7399561 7.06854787,15.9923344 7.06480957,16.2462385 L7.06107127,16.2462385 C6.8598134,16.2462385 6.6673291,16.2798075 6.4860597,16.3399267 C6.44486211,16.115014 6.40862349,15.8873548 6.38108213,15.6575593 C6.33606995,15.2635807 6.30982556,14.8638038 6.30982556,14.457313 C6.30982556,8.69503218 11.0184814,4.0249663 16.8270366,4.0249663 Z"/>
      <path d="M0.167536872,8.18505109 C0.060041675,7.70867569 0,7.21490541 0,6.70740233 C0,3.00259937 3.02741264,0 6.76105881,0 C7.55479907,0 8.31603901,0.137633125 9.02349321,0.386349304 C4.7061382,0.932609379 1.20747089,4.07375739 0.167536872,8.18505109 Z" transform="translate(6.46 3.726)"/>
      <path d="M26.5917709,16.3947333 C26.5917709,16.3446849 26.5892533,16.2961624 26.5880326,16.246114 L26.5917709,16.246114 C27.5879897,16.246114 28.3954625,17.045973 28.3954625,18.0347342 C28.3954625,19.0222748 27.5879897,19.8221338 26.5917709,19.8221338 L25.9605323,19.8221338 C26.368007,18.7573844 26.5917709,17.6023038 26.5917709,16.3947333 Z"/>
      <g transform="translate(15.903 31.791)">
        <ellipse cx=".741" cy=".741" rx="1" ry="1"/>
        <ellipse cx=".741" cy="3.128" rx="1" ry="1"/>
      </g>
    </g>
    <g fill-rule="nonzero" stroke="#222F3C" stroke-width=".5" transform="translate(78 70)">
      <path d="M60,4.44905566 C60,1.99152877 58.0346183,0 55.61066,0 L4.39055013,0 C1.96659191,0 0,1.99152877 0,4.44905566 L0,33.5521707 C0,36.0084712 1.96659191,38 4.39055013,38 L19.4121629,38"/>
      <line x1="60.001" x2="60.001" y1="4.449" y2="19.415"/>
      <rect width="15" height="5.067" x="22.501" y=".128"/>
    </g>
  </g>
</svg>
