<svg id="Layer_1" data-name="Layer 1" xmlns="http://www.w3.org/2000/svg" viewBox="0 0 399 200"><defs><style>.cls-1{fill:#333838;}.cls-2,.cls-3,.cls-4,.cls-5,.cls-6,.cls-7,.cls-8{fill:none;stroke:#222f3c;}.cls-2,.cls-3,.cls-5{stroke-linecap:round;}.cls-2,.cls-3,.cls-5,.cls-6{stroke-linejoin:round;}.cls-2,.cls-7,.cls-8{stroke-width:0.5px;}.cls-3,.cls-4,.cls-6{stroke-width:0.4px;}.cls-4,.cls-7,.cls-8{stroke-miterlimit:10;}.cls-5{stroke-width:0.4px;}.cls-8{stroke-linecap:square;}</style></defs><path class="cls-1" d="M242.1136,81.308a2.9494,2.9494,0,0,0,2.926-2.9722,2.89,2.89,0,0,0-2.8676-2.9114c-.03,0-.0595,0-.0892.0007a3.1619,3.1619,0,0,0-1.8479.6468,2.9369,2.9369,0,0,0,1.8788,5.2361Zm.2156-.2618a1.8308,1.8308,0,0,1-1.4476-.8163,3.5245,3.5245,0,0,1-.6467-2.11c0-1.6016.8315-2.4332,1.617-2.4332,1.3552,0,2.0944,1.4476,2.0944,2.9106a3.0673,3.0673,0,0,1-.6468,2.0636A1.5236,1.5236,0,0,1,242.3292,81.0462Zm3.7731.1386c.2618-.0154.6-.0616.9548-.0616.7853,0,1.0317.0462,1.4784.0462.1386,0,.2464-.0308.2464-.1079,0-.0616-.0924-.0923-.2772-.1385-.2-.0463-.37-.0463-.4928-.0924-.154-.0462-.2772-.1694-.3235-.7546-.0153-.4466-.0461-3.2494-.0461-3.8193,0-.0153.0308-.1385.0769-.1385.2157,0,1.3244.0308,1.5708.0308.1848,0,.2156-.0616.2156-.2772,0-.1848-.0615-.2772-.1232-.2772-.1693,0-1.4784.0308-1.6169.0308a.121.121,0,0,1-.1232-.0924,4.4785,4.4785,0,0,1-.0154-.4928c0-.4775.0308-1.5708.077-2.0483.154-1.6477.693-2.0944,1.386-2.0944a1.8177,1.8177,0,0,1,1.0934.5236.277.277,0,0,0,.308.0308.7563.7563,0,0,0,.385-.5081c0-.2311-.4159-.4928-1.0472-.4928a2.519,2.519,0,0,0-1.386.4157,3.5469,3.5469,0,0,0-1.5554,2.0483,9.8109,9.8109,0,0,0-.2618,2.5256.3.3,0,0,1-.154.2156l-.37.2309c-.1078.0616-.1848.1079-.1848.154,0,.0308.0924.1079.2.1232.1847.0155.3542.0155.4311.0155.0616.0153.0771.0924.0771.2v3.696c0,.5544-.0771.77-.4467.8624-.2.0463-.3079.0924-.3079.154s.0923.0925.231.0925Zm12.12.0462a.3662.3662,0,0,0,.3235-.154c.0616-.1078.3541-.9548.4-1.078.0769-.2.0924-.4312.0308-.4312s-.1386.0616-.2464.2464c-.308.5544-.6468.9393-.9856,1.0009a6.7626,6.7626,0,0,1-1.3552.0771c-1.2475,0-1.6632-.154-1.8327-.3851a2.8513,2.8513,0,0,1-.2156-1.2165c-.0153-.2926-.0308-1.8326-.0308-3.2956,0-1.4014.0155-2.8182.0308-3.08.0463-1.0626.0771-1.1551.7084-1.2782.1232-.0308.2156-.077.2156-.154,0-.0462-.0616-.077-.2464-.077-.3541,0-.7853.0616-1.2628.0616-.4157,0-.9085-.077-1.386-.077-.154,0-.2464.0462-.2464.0924,0,.0616.0463.1078.2311.1386.6621.1232.7084.2156.7545,1.0934.027.4581.0421,1.3289.0456,2.9425v2.1351c-.0028,1.2114-.0144,1.8986-.0606,2.3606-.0462.4773-.1386.6929-.8008.8161-.1386.0155-.2772.0616-.2772.1232,0,.0924.1386.1079.3234.1079.2156,0,.9086-.0771,1.386-.0771.539,0,1.6478.0463,2.4178.0771C256.8976,81.2464,258.068,81.231,258.222,81.231Zm5.3439.0616a1.2971,1.2971,0,0,0,1.1857-.6623c.0616-.1385,0-.1848-.0924-.1385a.9775.9775,0,0,1-.4465.1385.5277.5277,0,0,1-.57-.5852c0-.4.0463-1.8633.0463-2.4332a3.7255,3.7255,0,0,0-.2156-1.4013,1.2624,1.2624,0,0,0-1.1859-.7855,2.0666,2.0666,0,0,0-.924.2772,4.0118,4.0118,0,0,0-1.17.8932c-.1848.2156-.2925.3543-.2925.462,0,.0616.0769.154.154.1387a3.3183,3.3183,0,0,0,.7237-.3388.19.19,0,0,0,.0616-.1232,1.5837,1.5837,0,0,1,.0155-.2927.6156.6156,0,0,1,.2309-.37,1.0622,1.0622,0,0,1,.616-.1848,1.1738,1.1738,0,0,1,.6468.2464c.2619.2.37.6315.37,1.2629a5.2227,5.2227,0,0,1-.0308.7084.2912.2912,0,0,1-.2.231c-.3235.1232-1.7248.539-2.0944.7392a1.0848,1.0848,0,0,0-.5544.8778,1.2776,1.2776,0,0,0,1.2291,1.3243l.0029,0a2.1553,2.1553,0,0,0,1.5092-.693.0535.0535,0,0,1,.0747.0121l.0022.0033A1.0344,1.0344,0,0,0,263.5659,81.2926Zm-1.8172-.6007a.8942.8942,0,0,1-.924-.8623.7969.7969,0,0,1,.385-.77,8.6719,8.6719,0,0,1,1.4168-.5236c.0308-.0154.0616.0616.0616.077a11.0555,11.0555,0,0,1-.077,1.463.6379.6379,0,0,1-.1694.37,1.0564,1.0564,0,0,1-.693.2464Zm17.0785.5236q.2772,0,.2772-.0923c0-.0617-.069-.1035-.168-.1415l-.0784-.0279c-.6005-.1848-.77-.3235-.8316-1.2167-.0308-.4928-.0923-2.0173-.0923-3.696,0-.77.0154-2.618.0462-3.1416.0461-.9085.1077-1.078,1.0164-1.2936.1077-.0153.231-.0769.231-.1385s-.0924-.0924-.2464-.0924c-.4313,0-1.2474.0924-1.6786.0924-.077,0-.1386.1693-.154.2a12.9551,12.9551,0,0,1-.462,1.2475c-.37.7545-2.3254,4.5584-3.234,6.2985-.0616.0924-.0924.154-.1387.0616-.97-1.8171-3.1416-6.1291-3.8037-7.5921-.0616-.154-.1387-.2156-.2-.2156-.4928,0-1.4321-.0616-1.7864-.0771-.1385,0-.2772.0308-.2772.0924s.1079.1079.2464.1387a1.42,1.42,0,0,1,.8471.4157c.2617.308.3541.5236.3541,1.4477,0,.9855-.2156,4.4044-.308,5.313a4.4039,4.4039,0,0,1-.3233,1.6632,1.1567,1.1567,0,0,1-.8316.4928c-.2156.0461-.2772.1077-.2772.154,0,.077.0769.1077.2772.1077.154,0,.57-.0923,1.1241-.0923s1.1088.0616,1.2936.077c.17.0154.308-.0154.308-.1078,0-.0616-.0924-.1232-.2618-.154a.9023.9023,0,0,1-.7854-.616,3.867,3.867,0,0,1-.0924-1.1242c0-.6314.1695-4.6354.2311-5.5286.0308-.2.0616-.2.1385-.077.5852,1.2012,2.6334,5.4824,3.3572,7.0377.1387.2927.2464.5391.3234.5391.0924,0,.154-.0924.231-.2772.7392-1.6478,2.6334-5.3439,3.6652-7.4074.0308-.0924.077-.0924.077.0616l-.0012,1.3692c-.0029,1.5034-.0127,3.7-.0448,4.2826-.0462,1.2782-.154,1.5246-.8008,1.694-.154.0154-.308.077-.308.1386,0,.1078.1694.1232.3234.1232.231,0,.6468-.0308,1.2782-.0308C277.7031,81.1232,278.5347,81.2156,278.8272,81.2155Zm3.5112.0771a2.7214,2.7214,0,0,0,2.1407-.97.5823.5823,0,0,0,.154-.2464c0-.0769-.0616-.1077-.1848.0155a1.966,1.966,0,0,1-1.4631.4928,2.08,2.08,0,0,1-1.54-.6314,2.7605,2.7605,0,0,1-.7084-1.8634,2.1212,2.1212,0,0,1,.1232-.847c.0308-.0462.1079-.1232.1387-.1232h.8316c.3541,0,2.3561.0307,2.4793.0462a.1809.1809,0,0,0,.154-.1694,1.7769,1.7769,0,0,0-1.8787-1.5708,2.8646,2.8646,0,0,0-1.925.77,3.21,3.21,0,0,0-.8932,2.2484,3.0113,3.0113,0,0,0,.7392,2.0636A2.4867,2.4867,0,0,0,282.3384,81.2926ZM281.06,76.9035a.0661.0661,0,0,1-.0616-.0616,1.3528,1.3528,0,0,1,.3233-.6313,1.5992,1.5992,0,0,1,1.1243-.57,1.0778,1.0778,0,0,1,.77.2926.991.991,0,0,1,.2156.6468c0,.1386-.0308.308-.37.308Zm4.2657,4.312a8.311,8.311,0,0,1,.9395-.0923c.6468,0,1.1549.0616,1.4476.0616.231,0,.37-.0308.37-.1078s-.0771-.1078-.2927-.1387c-.5851-.0616-.77-.1693-.8316-.6468-.0307-.3233-.0615-1.1241-.0615-2.2637a8.87,8.87,0,0,1,.0154-.9395.8834.8834,0,0,1,.2618-.5389,1.0526,1.0526,0,0,1,.6776-.308,1.0777,1.0777,0,0,1,.539.1848.6917.6917,0,0,0,.2772.1077c.0462,0,.1077-.0153.2464-.1385a1.0545,1.0545,0,0,0,.3388-.5236.2687.2687,0,0,0-.1079-.2156.8966.8966,0,0,0-.5389-.2,2.5146,2.5146,0,0,0-1.6632,1.1088c-.0462.0463-.077.0308-.077-.0153,0-.2464.0154-.8316.0154-1.0011,0-.154-.0308-.2156-.0616-.2156a.486.486,0,0,0-.231.0771,4.6781,4.6781,0,0,1-.9856.37c-.1386.0461-.231.1077-.231.1386s.0154.077.1232.1539c.2925.2464.4.2927.4.4v1.7095c0,1.0164-.0154,1.8941-.0462,2.156a.6363.6363,0,0,1-.5544.6313c-.1232.0308-.231.1079-.231.154C285.0643,81.1848,285.1413,81.2156,285.326,81.2155Zm6.93.0771a2.6627,2.6627,0,0,0,2.1252-1.0164.4.4,0,0,0,.1232-.2464c0-.0463-.0769-.0308-.1077,0a2.0668,2.0668,0,0,1-1.6016.5852,2.19,2.19,0,0,1-1.4323-.5391,2.5916,2.5916,0,0,1-.77-2.002c0-1.7709,1.0627-2.3869,1.7095-2.3869a1.3811,1.3811,0,0,1,.5852.1232,4.223,4.223,0,0,1,.8624.6313.4763.4763,0,0,0,.2617.154.5264.5264,0,0,0,.3851-.4928.3539.3539,0,0,0-.2156-.2925,2.3435,2.3435,0,0,0-1.4015-.3851,3.3758,3.3758,0,0,0-2.2792.8932,2.9422,2.9422,0,0,0-.9394,2.1407,2.902,2.902,0,0,0,.77,2.0789A2.8065,2.8065,0,0,0,292.256,81.2926Zm5.4671,0a2.7215,2.7215,0,0,0,2.1405-.97.5823.5823,0,0,0,.154-.2464c0-.0769-.0616-.1077-.1848.0155a1.9661,1.9661,0,0,1-1.4629.4928,2.08,2.08,0,0,1-1.54-.6314,2.76,2.76,0,0,1-.7085-1.8634,2.1176,2.1176,0,0,1,.1232-.847c.0308-.0462.1078-.1232.1386-.1232h.8315c.3543,0,2.3563.0307,2.48.0462a.1809.1809,0,0,0,.154-.1694,1.7772,1.7772,0,0,0-1.8788-1.5708,2.8648,2.8648,0,0,0-1.925.77,3.2088,3.2088,0,0,0-.8932,2.2484,3.01,3.01,0,0,0,.7392,2.0636,2.4866,2.4866,0,0,0,1.8327.7854Zm-1.2783-4.3891a.0662.0662,0,0,1-.0616-.0616,1.3531,1.3531,0,0,1,.3235-.6313,1.5989,1.5989,0,0,1,1.1241-.57,1.0773,1.0773,0,0,1,.77.2926.991.991,0,0,1,.2156.6468c0,.1386-.0308.308-.37.308Zm8.6856,4.42a8.66,8.66,0,0,1,1.6016-.4c.2772-.0463.3851-.1848.3851-.2927,0-.0461-.0463-.0923-.1387-.0616a4.0213,4.0213,0,0,1-.7237.1695.1366.1366,0,0,1-.1079-.1387c-.013-.3388-.026-1.1516-.03-2.2055v-.9835c.01-1.8764.0784-6.2225.1067-6.6515.0153-.1848-.0155-.2619-.0616-.2619a.5217.5217,0,0,0-.2156.0771,6.51,6.51,0,0,1-1.3244.37c-.1079.0154-.1848.0616-.1848.1077s.0769.0924.1848.1233a.8426.8426,0,0,1,.4312.2464.4124.4124,0,0,1,.0616.2618c.0153.8162.0308,3.542.0308,3.8192,0,.0308-.0463.0924-.0771.077a4.2487,4.2487,0,0,0-1.0164-.1386,3.463,3.463,0,0,0-1.91.5852,3.0648,3.0648,0,0,0-1.34,2.541,2.9185,2.9185,0,0,0,.8008,2.0636,2.5116,2.5116,0,0,0,1.6324.6468,2.8907,2.8907,0,0,0,1.7556-.7238c.0308-.0308.0616,0,.0616.0308a4.6885,4.6885,0,0,1-.0308.6313c0,.0463.0462.1233.1079.1079Zm-1.3244-.57c-.9393,0-1.8788-.8623-1.8788-2.5255a2.7338,2.7338,0,0,1,.8471-2.233,1.1356,1.1356,0,0,1,.77-.2618,1.7134,1.7134,0,0,1,1.37.7083,1.0148,1.0148,0,0,1,.1387.37,21.2872,21.2872,0,0,1,.0153,2.9722,1.0407,1.0407,0,0,1-.1693.57A1.6077,1.6077,0,0,1,303.806,80.7535Zm7.3-6.8068a.5864.5864,0,0,0,.57-.5852.5633.5633,0,0,0-.5391-.5851.5711.5711,0,0,0-.5389.6006.5489.5489,0,0,0,.5081.57Zm.8471,7.2381c.1231,0,.2464-.0308.2464-.1078,0-.0616-.0771-.0924-.2311-.1232-.2464-.0616-.4-.1387-.4312-.4467-.0224-.187-.0282-.8218-.03-1.6407V77.028c.0017-.6669.0077-1.2248.03-1.4489.0154-.1693-.0154-.2156-.0616-.2156a.6322.6322,0,0,0-.231.1079,7.6816,7.6816,0,0,1-1.1087.4c-.1387.0308-.1849.0769-.1849.1232,0,.0308.0462.0769.1232.1232.4312.2309.4466.3233.4466.5389,0,.154-.0308,2.9568-.0462,3.4188-.0154.6315-.154.7547-.4928.8471-.2156.0308-.2926.0769-.2926.1385s.1079.0924.2156.0924c.17,0,.4159-.0307.924-.0307.4158,0,.9856.0616,1.1242.0616Zm6.8221,0c.154,0,.2772-.0154.2772-.1078,0-.0616-.0924-.0924-.231-.154-.4158-.1078-.462-.2-.4774-1.2474,0-.77-.0154-.8932-.0154-1.7094a3.2138,3.2138,0,0,0-.4928-2.0174,1.5723,1.5723,0,0,0-1.2012-.5236,2.0812,2.0812,0,0,0-.9087.1848,5.2915,5.2915,0,0,0-1.0933.693c-.0308.0308-.077-.0154-.077-.0462a6.9713,6.9713,0,0,1,.0308-.8162c.0154-.077-.0616-.1386-.1078-.1232a5.8,5.8,0,0,1-1.2166.5236c-.1386.0462-.2156.0924-.2156.1232,0,.0462.0308.077.1231.1386.37.2.4.37.4.5236,0,1.2474,0,2.6642-.0308,3.773-.0154.308-.077.4158-.462.4928-.1849.0308-.3234.0924-.3234.154,0,.077.1232.1078.2926.1078.2926,0,.6159-.0308.8162-.0308.3541,0,1.1088.0616,1.232.0616.154,0,.308,0,.308-.0924,0-.077-.077-.1078-.2618-.154-.2464-.077-.4313-.154-.4774-.4928a12.6108,12.6108,0,0,1-.0924-1.617c0-.924-.0154-1.7094-.0154-1.8942a.7985.7985,0,0,1,.1848-.462,1.8417,1.8417,0,0,1,1.2012-.4928,1.37,1.37,0,0,1,.8779.2926c.3849.2926.4928.6622.4928,1.91v2.0944c0,.4466-.0616.5544-.4313.6468-.2.0462-.2926.1078-.2926.1694s.1079.0924.2464.0924c.2311,0,.4312-.0616.9548-.0616.3388,0,.7855.0616.9857.0616Z"/><path class="cls-1" d="M244.4158,64.5759c.1224,0,.2755-.0152.2755-.0918s-.0918-.1224-.3214-.153c-.5356-.1072-.6428-.2755-.6734-.9948-.03-.52-.03-.8111-.03-1.21,0-.7192,0-1.607.03-2.0967a1.7745,1.7745,0,0,1,.2143-.5969c.4592-.75,1.5-2.5558,2.296-3.5812a1.6862,1.6862,0,0,1,1.1325-.7805c.2449-.0306.3367-.0918.3367-.153s-.1072-.0918-.2755-.0918c-.23,0-.7193.0765-1.0864.0765-.4285,0-.6734-.0613-1.1019-.0613-.1531,0-.2449.0307-.2449.0766,0,.0765.1377.1224.26.153.3979.0765.5662.1989.5662.3826a1.7957,1.7957,0,0,1-.352.8111c-.3213.551-1.3008,2.158-1.8211,3.015-.0459.0765-.1531,0-.1837-.0153-.3674-.505-1.7136-2.8313-1.99-3.3057a1.6035,1.6035,0,0,1-.26-.5816c0-.1072.0918-.1989.4592-.2755.1531-.0306.2449-.0765.2449-.153,0-.0613-.0766-.0919-.2449-.0919-.2754,0-.75.046-1.24.046-.4592,0-1.2091-.0765-1.4846-.0765-.1989,0-.2912,0-.2912.0918,0,.0459.0765.1071.3214.153.4592.0918.7347.3214,1.2243.9948.4439.6272,1.7136,2.7552,2.2192,3.673a.8711.8711,0,0,1,.107.3367c.0154.199.0307.4744.0307,1.4233,0,.6581-.0307,1.6688-.0612,1.9743-.0459.5969-.1378.75-.75.8265-.1836.0306-.3368.0765-.3368.1376,0,.0766.1072.1226.3215.1226.4285,0,.7193-.0613,1.24-.0613C243.5129,64.4994,243.8036,64.5759,244.4158,64.5759Zm4.3924.1072a2.931,2.931,0,0,0,2.9075-2.9533,2.8719,2.8719,0,0,0-2.8506-2.8932c-.0293,0-.0585,0-.0878.0007a3.1416,3.1416,0,0,0-1.8368.6427,2.9187,2.9187,0,0,0,1.8672,5.2036Zm.2143-.26a1.82,1.82,0,0,1-1.4387-.8111,3.503,3.503,0,0,1-.6427-2.0967c0-1.5916.8264-2.4181,1.6069-2.4181,1.3467,0,2.0813,1.4386,2.0813,2.8925a3.0477,3.0477,0,0,1-.6427,2.0509,1.513,1.513,0,0,1-.9641.3825Zm7.9735.23a6.89,6.89,0,0,1,1.5764-.4131c.153-.0306.2912-.0613.2912-.1224a.1841.1841,0,0,0-.1837-.168,4.3074,4.3074,0,0,0-.6272.1377c-.1224.0153-.168-.0153-.199-.168a3.6167,3.6167,0,0,1-.03-.5744v-.206c0-1.7753.0306-3.3058.1072-4.0251.0152-.1071-.0154-.168-.0613-.168a8.1024,8.1024,0,0,1-1.056.0918H256.17c-.0918,0-.2295.0307-.2295.0918,0,.0459.0765.0919.2449.1224.505.1072.6581.1837.6733.7041,0,.3979.0153,1.1172.0153,1.3468,0,.5509,0,1.1477-.03,1.561a.9381.9381,0,0,1-.2756.704,1.7153,1.7153,0,0,1-1.3008.49,1.1252,1.1252,0,0,1-.8571-.3826,1.6913,1.6913,0,0,1-.23-1.01c-.0152-.7039,0-2.7853.046-3.6577.0153-.0918-.0306-.1837-.0765-.168a5.385,5.385,0,0,1-1.2856.1989c-.168,0-.2449.0307-.2449.0766s.0459.0919.1837.1836a.5954.5954,0,0,1,.3366.5051c.0307.26.0307,2.8466.0307,3.3516a1.6036,1.6036,0,0,0,.2912.9336,1.5044,1.5044,0,0,0,1.3315.551,2.6214,2.6214,0,0,0,.9029-.23,4.3949,4.3949,0,0,0,1.0561-.75c.0305-.0458.0459.0612.0459.1072,0,.1071-.0154.4438-.0154.5968,0,.168,0,.2449.0306.2912s.06.06.1824-.0009Zm7.27.0154a2.646,2.646,0,0,0,2.112-1.01.3975.3975,0,0,0,.1224-.2449c0-.0459-.0765-.03-.1071,0a2.0532,2.0532,0,0,1-1.5916.5816,2.175,2.175,0,0,1-1.4233-.5357,2.5755,2.5755,0,0,1-.7653-1.9895c0-1.76,1.056-2.3722,1.6988-2.3722a1.3717,1.3717,0,0,1,.5815.1224,4.1971,4.1971,0,0,1,.8571.6272.4739.4739,0,0,0,.26.153.5228.5228,0,0,0,.3826-.49.3516.3516,0,0,0-.2143-.2912,2.33,2.33,0,0,0-1.3927-.3825,3.3542,3.3542,0,0,0-2.2651.8876,2.9237,2.9237,0,0,0-.9335,2.1273,2.8839,2.8839,0,0,0,.7652,2.0661A2.7888,2.7888,0,0,0,264.2656,64.6678Zm6.7033,0a1.29,1.29,0,0,0,1.1784-.6581c.0612-.1377,0-.1836-.0918-.1377a.9746.9746,0,0,1-.4439.1377.5248.5248,0,0,1-.5663-.5815c0-.398.0459-1.8518.0459-2.4181a3.7,3.7,0,0,0-.2142-1.3927,1.2546,1.2546,0,0,0-1.1785-.7806,2.0528,2.0528,0,0,0-.9184.2756A3.9808,3.9808,0,0,0,267.6169,60c-.1836.2142-.2912.352-.2912.4592,0,.0612.0765.1531.1531.1377a3.2884,3.2884,0,0,0,.7192-.3366.1892.1892,0,0,0,.0613-.1225,1.5848,1.5848,0,0,1,.0152-.2912.6125.6125,0,0,1,.23-.3673,1.0545,1.0545,0,0,1,.6122-.1837,1.1657,1.1657,0,0,1,.6428.2449c.26.1989.3673.6272.3673,1.2544a5.2059,5.2059,0,0,1-.0306.704.29.29,0,0,1-.199.23c-.3214.1224-1.7141.5357-2.0814.7346a1.0782,1.0782,0,0,0-.5509.8723,1.2694,1.2694,0,0,0,1.2213,1.316l.003,0a2.142,2.142,0,0,0,1.5-.6887.0533.0533,0,0,1,.0745.0124l.002.0029a1.0277,1.0277,0,0,0,.9033.69Zm-1.8059-.5969a.8889.8889,0,0,1-.9184-.857.792.792,0,0,1,.3826-.7653,8.6274,8.6274,0,0,1,1.4081-.52c.0306-.0153.0611.0612.0611.0766a10.9659,10.9659,0,0,1-.0765,1.4538.6349.6349,0,0,1-.168.3674,1.05,1.05,0,0,1-.6889.2445Zm5.9074.398c0-.0766-.0764-.1072-.26-.1531-.2449-.0765-.4285-.153-.4745-.49a12.5626,12.5626,0,0,1-.0918-1.607c0-.9184-.0153-1.6988-.0153-1.8825a.7944.7944,0,0,1,.1836-.4592,1.8311,1.8311,0,0,1,1.1938-.49,1.3611,1.3611,0,0,1,.8723.2912c.3827.2913.49.6581.49,1.8978v2.0813c0,.4438-.0611.551-.4285.6428-.1989.046-.2912.1071-.2912.168s.1071.0919.2448.0919c.23,0,.4286-.0613.9489-.0613.3367,0,.7805.0613.98.0613.1529,0,.2754-.0154.2754-.1072,0-.0613-.0919-.0918-.23-.153-.4132-.1072-.4592-.199-.4745-1.24,0-.7652-.0152-.8876-.0152-1.6987a3.1931,3.1931,0,0,0-.49-2.0048,1.5624,1.5624,0,0,0-1.1936-.52,2.07,2.07,0,0,0-.903.1837,5.2652,5.2652,0,0,0-1.0864.6887c-.0307.0306-.0765-.0154-.0765-.0459a6.9061,6.9061,0,0,1,.0306-.8111c.0152-.0766-.0613-.1378-.1072-.1226a5.7486,5.7486,0,0,1-1.209.52c-.1378.0459-.2143.0918-.2143.1225,0,.0459.0307.0765.1224.1377.3674.199.3979.3673.3979.52,0,1.24,0,2.6477-.0305,3.75-.0154.3061-.0765.4131-.4593.49-.1836.0307-.3214.0919-.3214.1531,0,.0765.1225.1071.2912.1071.2912,0,.6122-.0306.8112-.0306.352,0,1.1019.0613,1.2243.0613.153,0,.306,0,.306-.0918Zm8.77,4.5913a3.6516,3.6516,0,0,0,1.8519-.5051,3.0888,3.0888,0,0,0,1.7136-2.4946,1.5809,1.5809,0,0,0-1.7136-1.6988c-.4286,0-1.27.0459-1.7447.0459-.7959,0-1.4233-.153-1.4233-.6427a.4863.4863,0,0,1,.168-.3367,2.3426,2.3426,0,0,1,.5356-.5051.2941.2941,0,0,1,.1837-.0458,3.715,3.715,0,0,0,.6428.0764,2.1082,2.1082,0,0,0,1.1938-.3979,2.5309,2.5309,0,0,0,.9641-2.0661c0-.2755-.0306-.52-.0306-.6272a.1379.1379,0,0,1,.0918-.0918c.168,0,.7193.0307.9335.0307.0613,0,.168-.1224.168-.2755,0-.1837-.0611-.3367-.1376-.3367-.23,0-.8418.0306-1.1326.0306a1.1185,1.1185,0,0,1-.5357-.0765,3.463,3.463,0,0,0-1.561-.3979,2.3539,2.3539,0,0,0-1.6222.6272,1.8477,1.8477,0,0,0-.6428,1.4692,2.3094,2.3094,0,0,0,1.1783,1.9129c.0307.0154.0459.0766.0307.0919a6.7089,6.7089,0,0,1-1.27,1.1325.19.19,0,0,0-.0918.1531c0,.6121.8111,1.1478,1.24,1.24.0459.0153.0306.1071.0153.1378-.3061.3367-.8724,1.0559-.98,1.1783a.9758.9758,0,0,0-.2755.6582c0,1.1325,1.0259,1.7141,2.25,1.7141Zm.3215-6.3361a1.2485,1.2485,0,0,1-.9489-.4438,2.7747,2.7747,0,0,1-.4745-1.6376,2.1414,2.1414,0,0,1,.4132-1.3468,1.1489,1.1489,0,0,1,.7805-.3519,1.0767,1.0767,0,0,1,.9184.52,2.739,2.739,0,0,1,.4745,1.7136c0,.7045-.46,1.5462-1.1634,1.5462Zm.306,5.8157a2.092,2.092,0,0,1-1.4539-.4592,1.5669,1.5669,0,0,1-.5969-1.1631,1.9354,1.9354,0,0,1,.6581-1.362.9432.9432,0,0,1,.52-.1378c.4131-.0153,1.1631-.0307,1.7447-.0307.9795,0,1.3776.5663,1.3776,1.21a2.0423,2.0423,0,0,1-.8264,1.5763,2.3794,2.3794,0,0,1-1.4238.3665Zm5.9075-3.872a2.7049,2.7049,0,0,0,2.1273-.9642.5783.5783,0,0,0,.153-.2449c0-.0764-.0611-.107-.1836.0154a1.9541,1.9541,0,0,1-1.4539.49,2.0676,2.0676,0,0,1-1.53-.6272,2.7424,2.7424,0,0,1-.704-1.8518,2.1062,2.1062,0,0,1,.1224-.8418c.0306-.046.1072-.1225.1377-.1225h.8265c.352,0,2.3416.0306,2.464.046a.18.18,0,0,0,.153-.168,1.7662,1.7662,0,0,0-1.8672-1.5611,2.8476,2.8476,0,0,0-1.9129.7652,3.189,3.189,0,0,0-.8877,2.2345,2.9922,2.9922,0,0,0,.7346,2.0507,2.4712,2.4712,0,0,0,1.821.78Zm-1.27-4.3617a.0659.0659,0,0,1-.0612-.0613,1.3451,1.3451,0,0,1,.3214-.6272,1.59,1.59,0,0,1,1.1173-.5663,1.072,1.072,0,0,1,.7652.2912.9856.9856,0,0,1,.2142.6428c0,.1377-.0306.3061-.3673.3061Zm6.2748,4.3311a2.1,2.1,0,0,0,1.24-.3979c.199-.153.3367-.3061.3367-.398,0-.0611-.0459-.0765-.1531,0a1.4955,1.4955,0,0,1-.8417.23,1.1312,1.1312,0,0,1-.9488-.4132,1.5665,1.5665,0,0,1-.168-.8264c-.0154-.4744-.0307-2.8773-.0307-3.1374,0-.0919.0307-.1378.2143-.1378.4132,0,1.1632.0153,1.6988.0153.0765,0,.1531-.1224.1531-.3825,0-.1072-.0613-.2143-.0919-.2143-.3214,0-1.5916.0459-1.8671.0459-.0613,0-.0765-.0918-.0765-.1377-.0154-.1837.0152-.6122.0152-.75,0-.0765-.1071-.1071-.2448.0459a3.263,3.263,0,0,1-1.255,1.0255c-.168.0764-.1837.1224-.1837.1529,0,.0613.0765.1071.1991.1378a2.5086,2.5086,0,0,1,.3672.0918c.0613.0306.0765.1377.0765.3061V63.06a1.7214,1.7214,0,0,0,.1837.8723,1.418,1.418,0,0,0,1.3768.7045Zm6.4126,0a2.1,2.1,0,0,0,1.24-.3979c.199-.153.3367-.3061.3367-.398,0-.0611-.0458-.0765-.153,0a1.4963,1.4963,0,0,1-.8418.23,1.1312,1.1312,0,0,1-.9489-.4132,1.57,1.57,0,0,1-.168-.8264c-.0152-.4744-.0306-2.8773-.0306-3.1374,0-.0919.0306-.1378.2143-.1378.4133,0,1.1632.0153,1.6988.0153.0765,0,.153-.1224.153-.3825,0-.1072-.0611-.2143-.0918-.2143-.3213,0-1.5916.0459-1.867.0459-.0613,0-.0766-.0918-.0766-.1377-.0153-.1837.0153-.6122.0153-.75,0-.0765-.1072-.1071-.2448.0459a3.2619,3.2619,0,0,1-1.2544,1.0255c-.168.0764-.1837.1224-.1837.1529,0,.0613.0765.1071.1989.1378a2.5112,2.5112,0,0,1,.3674.0918c.0611.0306.0765.1377.0765.3061V63.06a1.72,1.72,0,0,0,.1837.8723,1.4178,1.4178,0,0,0,1.3761.7045Zm7.9123-.0613c.1378,0,.2448-.0459.2448-.107s-.0459-.0919-.2448-.1378c-.4592-.0765-.52-.1837-.52-.49-.0154-.5815-.0154-1.53-.0306-2.6782a2.9521,2.9521,0,0,0-.3368-1.6376,1.63,1.63,0,0,0-1.3776-.6887,2.402,2.402,0,0,0-1.0713.26,5.0421,5.0421,0,0,0-.9184.6272c-.0153.0307-.0612.0154-.0612-.0458-.0153-.2912.0459-5.0352.0612-5.4483.0153-.2143-.0306-.3215-.0765-.3215a.3338.3338,0,0,0-.153.0613,6.361,6.361,0,0,1-1.1173.3672c-.168.046-.26.0919-.26.1378s.0459.0765.1072.1224c.3367.1837.4439.23.4592.7193.0307.5816,0,1.5151,0,3.8261,0,2.4334-.0152,3.8416-.0611,4.4536-.0154.5815-.1225.6272-.5663.7346-.1837.0459-.2448.0765-.2448.1378s.0765.0918.2448.0918c.2912,0,.52-.0613.9948-.0613.4439,0,.8417.0613,1.27.0613.1377,0,.23-.0459.23-.0918,0-.0767-.1071-.1072-.3367-.1532a.5409.5409,0,0,1-.49-.52,30.4357,30.4357,0,0,1-.0765-3.2905.7688.7688,0,0,1,.1531-.5661,1.8479,1.8479,0,0,1,1.3466-.5663,1.1453,1.1453,0,0,1,1.0561.5663,2.4507,2.4507,0,0,1,.23,1.1478c0,1.5916-.0307,2.2651-.0613,2.617-.0612.4438-.0918.551-.505.6428-.1531.0306-.23.0612-.23.1225,0,.0459.0613.0918.2449.0918.352,0,.4744-.0613.9948-.0613.4132,0,.7039.0767,1.1019.0767Zm3.4894.0919a2.7049,2.7049,0,0,0,2.1273-.9642.5783.5783,0,0,0,.153-.2449c0-.0764-.0611-.107-.1836.0154a1.9541,1.9541,0,0,1-1.4539.49,2.0676,2.0676,0,0,1-1.53-.6272,2.7424,2.7424,0,0,1-.704-1.8518,2.1062,2.1062,0,0,1,.1224-.8418c.0306-.046.1072-.1225.1378-.1225h.8264c.352,0,2.3416.0306,2.464.046a.18.18,0,0,0,.153-.168,1.766,1.766,0,0,0-1.867-1.5611,2.8483,2.8483,0,0,0-1.9131.7652,3.19,3.19,0,0,0-.8877,2.2345,2.9922,2.9922,0,0,0,.7346,2.0507,2.4712,2.4712,0,0,0,1.8209.78Zm-1.27-4.3617a.0657.0657,0,0,1-.0612-.0613,1.3437,1.3437,0,0,1,.3214-.6272,1.5892,1.5892,0,0,1,1.1172-.5663,1.0711,1.0711,0,0,1,.7652.2912.9856.9856,0,0,1,.2142.6428c0,.1377-.0306.3061-.3672.3061Zm7.9735,4.377a2.5425,2.5425,0,0,0,1.2244-.3366,1.5711,1.5711,0,0,0,.7952-1.2857c0-.7805-.3978-1.1631-1.3926-1.8059-.3827-.23-.9642-.5968-.9642-1.24a.8916.8916,0,0,1,.8318-.9475q.0432-.0027.0866-.0014a1.2567,1.2567,0,0,1,.7192.23,1.1618,1.1618,0,0,1,.3673.6272c.0459.1071.0766.1837.1377.1837.0459,0,.0766-.0766.0766-.2449-.0153-.2449-.0766-.551-.0918-.7193a.2487.2487,0,0,0-.0766-.1378,3.75,3.75,0,0,0-1.0406-.168,1.9788,1.9788,0,0,0-1.2856.4285,1.451,1.451,0,0,0-.5815,1.21c0,.6735.6122,1.24,1.27,1.6683.6121.3826,1.01.7039,1.01,1.2855a1.0493,1.0493,0,0,1-.9948,1.0254A1.1712,1.1712,0,0,1,319.3,64.27a1.49,1.49,0,0,1-.6428-.8265c-.1072-.2912-.1531-.2912-.199-.2912-.0306,0-.0765.046-.0459.245.0153.168.0459.5509.0459.7652,0,.0918.1072.1989.23.2448a3.115,3.115,0,0,0,1.2093.2754Zm4.9893-.0459a2.1,2.1,0,0,0,1.24-.3979c.1989-.153.3367-.3061.3367-.398,0-.0611-.0459-.0765-.153,0a1.496,1.496,0,0,1-.8418.23,1.131,1.131,0,0,1-.9488-.4133,1.5679,1.5679,0,0,1-.168-.8263c-.0154-.4744-.0306-2.8773-.0306-3.1374,0-.0919.0306-.1378.2142-.1378.4132,0,1.1632.0153,1.6989.0153.0765,0,.153-.1224.153-.3826,0-.1071-.0613-.2142-.0919-.2142-.3213,0-1.5916.0459-1.8671.0459-.0612,0-.0765-.0918-.0765-.1378-.0154-.1836.0153-.6121.0153-.75,0-.0765-.1072-.1071-.2449.0459a3.2607,3.2607,0,0,1-1.2544,1.0254c-.168.0765-.1836.1225-.1836.153,0,.0613.0765.1071.1989.1378a2.5112,2.5112,0,0,1,.3674.0918c.0611.0306.0765.1377.0765.3061V63.06a1.72,1.72,0,0,0,.1837.8724,1.4178,1.4178,0,0,0,1.3761.7045Zm4.8973.0459a2.9312,2.9312,0,0,0,2.908-2.9533,2.8719,2.8719,0,0,0-2.8507-2.8932q-.0438,0-.0877.0007a3.1416,3.1416,0,0,0-1.8368.6427,2.9187,2.9187,0,0,0,1.867,5.2036Zm.2143-.26a1.819,1.819,0,0,1-1.4391-.8115,3.5041,3.5041,0,0,1-.6428-2.0968c0-1.5916.8264-2.418,1.6069-2.418,1.3468,0,2.0814,1.4386,2.0814,2.8925a3.0475,3.0475,0,0,1-.6428,2.0508,1.5126,1.5126,0,0,1-.9639.383Zm3.7037.168a8.2744,8.2744,0,0,1,.9335-.0918c.6428,0,1.1479.0613,1.4386.0613.23,0,.3673-.0307.3673-.1072s-.0765-.1071-.2912-.1378c-.5815-.0611-.7652-.168-.8265-.6427-.0306-.3214-.0611-1.1172-.0611-2.25a8.8365,8.8365,0,0,1,.0152-.9335.8793.8793,0,0,1,.26-.5357,1.0458,1.0458,0,0,1,.6734-.3061,1.0708,1.0708,0,0,1,.5356.1837.69.69,0,0,0,.2756.1072c.0459,0,.107-.0154.2448-.1378a1.048,1.048,0,0,0,.3367-.52.2672.2672,0,0,0-.1071-.2143.8915.8915,0,0,0-.5357-.199,2.4977,2.4977,0,0,0-1.6528,1.1019c-.0459.046-.0766.0306-.0766-.0153,0-.2448.0153-.8265.0153-.9948,0-.153-.0306-.2142-.0612-.2142a.4822.4822,0,0,0-.2295.0765,4.6411,4.6411,0,0,1-.98.3673c-.1376.0459-.2294.1071-.2294.1378s.0152.0765.1224.153c.2912.2448.3979.2912.3979.3979v1.6992c0,1.01-.0153,1.8823-.0459,2.1425a.6327.6327,0,0,1-.551.6272c-.1225.0306-.2295.1071-.2295.153,0,.0616.0766.0922.26.0922Zm5.4177,4.1934a.5761.5761,0,0,0,.5051-.26,2.12,2.12,0,0,0,.2912-.5663c.2142-.52.7958-2.112,1.1631-3,.3214-.8263.4592-1.1784.6428-1.6835.23-.5815,1.1784-2.9384,1.3621-3.321.2448-.5663.3979-.6733.7039-.7652.1531-.0459.2143-.1072.2143-.1531s-.0917-.0611-.1836-.0611c-.23,0-.4285.0459-.704.0459-.23,0-.5509-.0459-.7346-.0459-.1378,0-.2143.0305-.2143.0918,0,.0459.0459.0918.2755.1378.26.0765.3367.1989.3367.306a1.1462,1.1462,0,0,1-.0765.4438c-.1225.352-.9795,2.5558-1.1784,3.0762-.0154.0459-.0613.0613-.0919,0-.3061-.6428-1.1479-2.7088-1.3468-3.2445-.1377-.398-.1071-.4745.23-.5815.0918-.0154.1989-.0613.1989-.1226s-.1071-.107-.26-.107c-.1989,0-.5968.0459-.8111.0459-.3672,0-.7959-.0613-1.0713-.0613-.1072,0-.2449.0306-.2449.1072,0,.0459.0918.1071.2755.153a.8189.8189,0,0,1,.551.4133c.6886,1.5,1.6682,3.9791,1.8977,4.576a.748.748,0,0,1,.0153.49c-.52,1.3316-.9642,2.5866-1.1172,2.9079a.37.37,0,0,1-.3979.26c-.1071,0-.1989-.0306-.3061-.0306a.4517.4517,0,0,0-.4285.4438.509.509,0,0,0,.5043.5054Z"/><path d="M241.9057,98.0442a2.5593,2.5593,0,0,0,2.1579-1.1325.5443.5443,0,0,0,.1224-.2755c0-.0612-.0613-.0612-.1378,0a1.93,1.93,0,0,1-1.4846.52,2.0274,2.0274,0,0,1-1.3314-.5356,2.7118,2.7118,0,0,1-.6428-1.8825c0-1.7294.7959-2.2344,1.2091-2.2344a1.18,1.18,0,0,1,.5662.1224,6.861,6.861,0,0,1,.9642.7193.6127.6127,0,0,0,.26.1378.5655.5655,0,0,0,.49-.5969.4146.4146,0,0,0-.1836-.2912,2.3454,2.3454,0,0,0-1.5-.4133,3.8127,3.8127,0,0,0-2.25.8724,2.77,2.77,0,0,0,1.76,4.9893Zm5.9687.0306a3.2372,3.2372,0,0,0,1.8368-.5968,3.0627,3.0627,0,0,0,1.1936-2.4029,2.9038,2.9038,0,0,0-2.9111-2.8967q-.0748,0-.15.0042a3.1173,3.1173,0,0,0-1.9589.704,2.8128,2.8128,0,0,0-1.0864,2.2651,2.96,2.96,0,0,0,2.9934,2.9252q.0411,0,.082-.0021Zm.1835-.2448a1.4812,1.4812,0,0,1-1.1631-.8418,4.5892,4.5892,0,0,1-.4744-2.25c0-1.3314.6272-2.296,1.2855-2.296,1.0714,0,1.5611,1.2091,1.5611,2.9538a3.6166,3.6166,0,0,1-.5051,2.0814.907.907,0,0,1-.704.3524Zm6.2442.107c.153,0,.3061-.0459.3061-.107,0-.0766-.1072-.1226-.199-.1378-.3978-.0918-.49-.1531-.505-.6428-.0154-.2755-.0306-.8877-.0306-2.8772V92.9785c0-2.6477.0459-5.2036.0459-5.3106,0-.0766-.0307-.168-.0612-.168a.6568.6568,0,0,0-.2143.0611,8.7346,8.7346,0,0,1-1.5456.4285c-.1377.0307-.23.0765-.23.1225s.0459.1071.1531.168c.3519.1835.4285.2912.4285.6427.0153.52,0,2.1426,0,2.9844-.0153,1.4692-.0766,4.3158-.1072,4.9432-.03.6581-.1224.75-.5355.8264-.1226.0306-.23.0613-.23.1378s.1224.1071.2754.1071c.4132,0,.7346-.0306,1.1479-.0306.23,0,.8415.046,1.3007.046Zm4.1016.1378a3.2372,3.2372,0,0,0,1.8368-.5968,3.0632,3.0632,0,0,0,1.1938-2.4029,2.9039,2.9039,0,0,0-2.9111-2.8967q-.0748,0-.15.0042a3.1173,3.1173,0,0,0-1.9589.704,2.8122,2.8122,0,0,0-1.0864,2.2651,2.9594,2.9594,0,0,0,2.9933,2.9252q.0413,0,.0823-.0021Zm.1837-.2448a1.4808,1.4808,0,0,1-1.1632-.8418,4.5892,4.5892,0,0,1-.4744-2.25c0-1.3314.6272-2.296,1.2855-2.296,1.0713,0,1.5611,1.2091,1.5611,2.9538a3.6174,3.6174,0,0,1-.5051,2.0814.9076.9076,0,0,1-.7039.3524Zm3.8108.1376c.3672,0,.3519-.0765,1.27-.0765.7347,0,1.01.0613,1.4387.0613.1989,0,.3213-.0307.3213-.1072s-.0612-.1224-.2754-.153c-.5663-.0765-.6735-.1837-.7347-.6428-.0305-.352-.0612-.9947-.0612-2.0814a10.097,10.097,0,0,1,.0307-1.1784.6322.6322,0,0,1,.168-.352.7166.7166,0,0,1,.52-.2143,1.2414,1.2414,0,0,1,.5969.2449.431.431,0,0,0,.26.1071c.0764,0,.1529-.0306.306-.1837a1.5667,1.5667,0,0,0,.4592-.7346c0-.1224-.0612-.1989-.2142-.3061a.8611.8611,0,0,0-.505-.153c-.597,0-1.1479.551-1.5764,1.1172-.0153.046-.0765.0306-.0765-.0459,0-.3367.0306-.7652.0306-1.0407,0-.0765-.0459-.168-.0765-.168a.5154.5154,0,0,0-.26.0919,7.8639,7.8639,0,0,1-1.4692.505c-.0613.0306-.168.0918-.168.1377s.0306.0765.1224.1531c.352.306.3979.3367.3979.4285.0153.1836,0,.5815,0,1.5456-.0153,1.01-.0306,1.8824-.0459,2.1426-.0459.4285-.168.551-.52.6272-.168.0306-.23.1071-.23.168s.0915.1075.2908.1075Zm6.0144-6.9787a.7327.7327,0,0,0,.7509-.714c0-.0171,0-.0341,0-.0512a.72.72,0,0,0-.6734-.7194.7325.7325,0,0,0-.7209.7437l.0015.0369a.6925.6925,0,0,0,.6425.704Zm1.1173,6.9787c.1224,0,.2294-.0306.2294-.107,0-.0613-.0459-.1072-.2142-.1532a.4624.4624,0,0,1-.4132-.4744c-.0307-.23-.0307-1.4539-.0307-3.1679,0-.6428,0-1.4233.0307-1.7447.0152-.168-.0154-.2143-.0613-.2143a1.3452,1.3452,0,0,0-.23.0918,6.9448,6.9448,0,0,1-1.5.4592c-.168.046-.2143.0919-.2143.1225,0,.0612.0459.1071.1224.168.3979.2754.3979.3366.3979.6272,0,.1529-.0459,2.816-.0459,3.2751,0,.5357-.1071.7346-.505.8264-.1837.0306-.2755.0613-.2755.1378,0,.0612.1224.107.26.107.168,0,.52-.03,1.1938-.03.6429,0,.9949.077,1.2551.077Zm4.6524-.0152a12.03,12.03,0,0,1,1.27-.0613c.306,0,.8111.0459,1.1631.0459.1377,0,.2143-.0305.2143-.0918,0-.0765-.0918-.1071-.168-.1378-.4132-.107-.49-.23-.5051-1.1783,0-.857-.0152-1.01-.0306-1.8977a2.7166,2.7166,0,0,0-.5357-1.9285,1.5856,1.5856,0,0,0-1.2243-.52,2.2223,2.2223,0,0,0-.9029.199,4.3745,4.3745,0,0,0-.9031.5969c-.0306.0305-.0765.0152-.0765-.0154a6.0357,6.0357,0,0,1,.0307-.7652c0-.0765-.0766-.1377-.1225-.1224a7.81,7.81,0,0,1-1.6222.6272c-.1378.0307-.2143.0765-.2143.1224,0,.0307-.0153.0613.1224.1531.3061.2143.3521.3367.3521.49,0,1.408-.0154,2.7394-.0459,3.6271-.0154.3519-.0459.4745-.4745.551-.1377.03-.2755.0918-.2755.1529,0,.0766.1224.1225.2912.1225.4592,0,.857-.0306,1.0559-.0306.3521,0,1.2244.0613,1.3777.0613.1071,0,.2755-.0154.2755-.1072,0-.0765-.0613-.1071-.2448-.153a.5169.5169,0,0,1-.4287-.52c-.0152-.1837-.0458-.9488-.0611-1.8977,0-.7805-.0154-1.5-.0154-1.7907a.46.46,0,0,1,.1531-.3213,1.3755,1.3755,0,0,1,.8265-.2912,1.2206,1.2206,0,0,1,.7193.2143c.3672.2912.4592.6122.4592,1.7906v2.25c0,.352-.0765.4592-.49.5815-.1377.0307-.23.0766-.23.1377s.1062.1078.26.1078Zm5.5249,4.27a3.9629,3.9629,0,0,0,2.2191-.7193,3.0836,3.0836,0,0,0,1.4845-2.3263,1.7358,1.7358,0,0,0-.5356-1.3467,1.8552,1.8552,0,0,0-1.2855-.4285c-.5511,0-1.2244.0152-1.6835.0152-.8418,0-1.2856-.2143-1.2856-.5815a.4344.4344,0,0,1,.1224-.2912,1.2993,1.2993,0,0,1,.3673-.3061.2793.2793,0,0,1,.168-.0306,3.4189,3.4189,0,0,0,.7193.0919,2.4738,2.4738,0,0,0,1.3009-.4286,2.54,2.54,0,0,0,.9336-2.0048l-.001-.2607c-.0014-.1344-.0051-.2626-.0143-.336,0-.0153.0459-.0765.0765-.0765.168,0,.6272.0306.857.0306.0613,0,.1531-.168.1531-.3214,0-.23-.0459-.3673-.1072-.3673-.26,0-.8111.0306-1.0864.0306a1.2872,1.2872,0,0,1-.52-.0765,3.8342,3.8342,0,0,0-1.6529-.398,2.5,2.5,0,0,0-1.7142.6581,1.85,1.85,0,0,0-.6428,1.5,2.1823,2.1823,0,0,0,1.2091,1.852c.0307.0152.0459.0459.0307.0611a11.6481,11.6481,0,0,1-1.3316,1.1631c-.0306.0154-.0611.0766-.0611.1837,0,.75.9335,1.2855,1.2243,1.3776a.0948.0948,0,0,1,.0306.1072c-.2755.26-.7805.7652-.9184.9335a.838.838,0,0,0-.3061.6428c0,.9947.8729,1.6528,2.25,1.6528Zm.4438-6.1524a1.0277,1.0277,0,0,1-.7959-.52,3.2428,3.2428,0,0,1-.3826-1.6834,2.2665,2.2665,0,0,1,.3064-1.2243.794.794,0,0,1,.5663-.3215c.2755,0,.4438.0919.7193.4593a3.2672,3.2672,0,0,1,.4438,1.7753c0,.6885-.2908,1.515-.8571,1.515Zm.2143,5.5552a2.2658,2.2658,0,0,1-1.3468-.4133,1.4637,1.4637,0,0,1-.6272-1.0407,1.4447,1.4447,0,0,1,.52-1.1172.9736.9736,0,0,1,.3826-.0918c.4285,0,1.3009-.0306,1.8519-.0306,1.0407,0,1.3776.5357,1.3776,1.1325a1.6333,1.6333,0,0,1-.7347,1.255,2.5855,2.5855,0,0,1-1.4237.3064Zm8.249-3.55a3.595,3.595,0,0,0,2.5405-1.0561,3.0412,3.0412,0,0,0,.7959-2.1272,2.7674,2.7674,0,0,0-.704-1.8368,2.4849,2.4849,0,0,0-1.9283-.8264,2.5975,2.5975,0,0,0-1.4081.4285c-.0459.0153-.0919,0-.0919-.1071,0-1.3621.0459-3.918.0919-4.8821,0-.168-.0306-.23-.0612-.23a.6778.6778,0,0,0-.2755.0765,10.6281,10.6281,0,0,1-1.5763.4285c-.1837.0307-.2449.0919-.2449.1378,0,.0306.0459.0765.168.168.3214.199.352.2912.3979.5357.0459.3061.0612,1.1019.0612,2.3722-.0153,1.6069-.0459,3.9485-.0764,4.775a11.98,11.98,0,0,1-.1226,1.6987c0,.0459.0459.1377.1072.1072.2755-.1072.3673-.1072.4439-.0765a5.0521,5.0521,0,0,0,1.8829.4138Zm.551-.3061a1.656,1.656,0,0,1-.6428-.1378,1.1828,1.1828,0,0,1-.52-.4592,5.5645,5.5645,0,0,1-.2448-1.7447c0-.5969-.0154-2.02.0459-2.296a.41.41,0,0,1,.1071-.26,1.2935,1.2935,0,0,1,.5816-.1376,1.8031,1.8031,0,0,1,1.3161.658,3.5923,3.5923,0,0,1,.5816,2.02h-.0153a3.9115,3.9115,0,0,1-.4285,1.8671,1.0759,1.0759,0,0,1-.78.49Zm6.81.3061a3.2366,3.2366,0,0,0,1.8368-.5969,3.0628,3.0628,0,0,0,1.1938-2.4028,2.9041,2.9041,0,0,0-2.9113-2.8968q-.0748,0-.15.0043a3.1173,3.1173,0,0,0-1.9589.704A2.8128,2.8128,0,0,0,292.9,95.1516a2.96,2.96,0,0,0,2.9933,2.9253q.0413,0,.0825-.0021Zm.1836-.2448a1.4812,1.4812,0,0,1-1.1632-.8418,4.59,4.59,0,0,1-.4744-2.25c0-1.3314.6272-2.296,1.2856-2.296,1.0713,0,1.5611,1.2091,1.5611,2.9538a3.6167,3.6167,0,0,1-.5052,2.0814.9071.9071,0,0,1-.7037.3525Zm6.8717.2448a3.2361,3.2361,0,0,0,1.8368-.5969,3.0621,3.0621,0,0,0,1.1937-2.4028,2.904,2.904,0,0,0-2.9112-2.8967q-.075,0-.15.0043a3.1171,3.1171,0,0,0-1.9588.704,2.8125,2.8125,0,0,0-1.0864,2.2651,2.96,2.96,0,0,0,2.9934,2.9252q.0413,0,.0825-.0021Zm.1836-.2448a1.4814,1.4814,0,0,1-1.1632-.8418,4.5908,4.5908,0,0,1-.4744-2.25c0-1.3314.6272-2.296,1.2855-2.296,1.0714,0,1.5611,1.2091,1.5611,2.9538a3.6165,3.6165,0,0,1-.505,2.0814.9073.9073,0,0,1-.7039.3525Zm10.2539.1376c.168,0,.2912-.0459.2912-.1224,0-.0612-.0611-.1071-.2142-.1378-.4438-.0765-.5969-.2142-1.0407-.7039-.5969-.6581-1.6222-1.9284-2.1728-2.6782-.0154-.0307-.0459-.0766-.0154-.1072a14.0087,14.0087,0,0,1,1.1326-1.0407,2.8284,2.8284,0,0,1,1.3314-.6734c.1837-.0305.2449-.0765.2449-.1224,0-.0613-.0918-.1072-.26-.1072-.5356,0-1.0407.0919-1.6069.0919-.1225,0-.352-.0154-.5662-.0154-.1378,0-.26.0459-.26.1072,0,.0765.0918.1071.2448.1378.4592.0765.551.1989.551.2754a.5044.5044,0,0,1-.1378.2449,7.7912,7.7912,0,0,1-1.6375,1.6069.7173.7173,0,0,1-.26.1377c-.0459,0-.0765-.0764-.0765-.2142-.0152-.7652.0612-3.367.0612-3.8873,0-1.1478.0765-2.6783.0919-3.2144a.1425.1425,0,0,0-.0613-.1072.84.84,0,0,0-.2755.0765,5.3488,5.3488,0,0,1-1.4844.4285c-.1837.0307-.2913.0918-.2913.1531,0,.0459.0766.0919.1378.1378.23.1224.3674.2295.3674.3366a3.2929,3.2929,0,0,1,.0611.7347c0,.857-.0306,3.55-.0306,4.1933,0,1.1785-.0153,2.3263-.0765,3.4435-.0306.505-.0918.6581-.5509.7652-.1226.0307-.2143.0766-.2143.1377s.1376.1072.26.1072c.0765,0,.6121-.0613,1.209-.0613.3978,0,.8876.046,1.3315.046.1071,0,.2912-.0306.2912-.1224,0-.0613-.1072-.1225-.26-.153-.3366-.0766-.5357-.1226-.5662-.8724-.0153-.52-.0306-1.3621,0-1.607.0153-.0765.0153-.1224.0612-.1224s.153.1224.3061.3061c.4744.5509,1.3009,1.5763,1.53,1.8824.1377.2142.0765.3214-.168.3979-.23.0612-.2912.0919-.2912.168s.0764.1071.26.1071c.2143,0,.4439-.0306.7347-.0306.6726.001,1.1471.0775,2.0194.0775Zm2.5559-2.8159c.0612,0,.1377-.0613.1837-.4439.1835-1.4845.8264-3.4741.8264-4.4841,0-.597-.3367-1.3009-1.01-1.3009-.6122,0-1.0253.7346-1.0253,1.3468.0152,1.1019.6272,2.6935.8264,4.4842.046.3214.1071.398.199.398ZM316.04,98.09a.9363.9363,0,0,0,.8723-.9336.9152.9152,0,0,0-.8723-.9489.942.942,0,0,0,0,1.8825Z"/><line class="cls-2" x1="198.4437" y1="118.5362" x2="193.0396" y2="113.4331"/><path class="cls-2" d="M200.6356,118.5661l5.1461-5.45-6.1336-6.1338h0a.0646.0646,0,0,0-.0742-.0147h-.0009a.0618.0618,0,0,0-.0408.0629v10.4328"/><path class="cls-2" d="M199.5163,117.4637v-3.9143a.066.066,0,0,0-.02-.0459l.0006-.0006a.0731.0731,0,0,0-.0495-.0212l-6.4081-.0486"/><path class="cls-2" d="M201.666,119.6392h3.9887a.0678.0678,0,0,0,.0461-.02h.0005a.0727.0727,0,0,0,.0211-.0493l.0487-6.4277-5.1281,5.43"/><line class="cls-2" x1="193.0214" y1="113.4343" x2="193.0226" y2="113.433"/><path class="cls-2" d="M193.0214,113.4343l-6.12,6.12h0a.0681.0681,0,0,0-.0192.0336.0706.0706,0,0,0,.0044.04v.001a.0617.0617,0,0,0,.063.0408h10.4643"/><polyline class="cls-2" points="193.021 113.435 193.02 113.433 193.022 113.433"/><line class="cls-2" x1="193.0214" y1="113.4343" x2="198.4343" y2="118.5457"/><polyline class="cls-2" points="193.04 113.433 193.031 113.425 193.022 113.433"/><line class="cls-2" x1="193.0396" y1="113.4331" x2="193.0226" y2="113.433"/><line class="cls-2" x1="200.5676" y1="120.7376" x2="206.0119" y2="125.8787"/><path class="cls-2" d="M198.452,120.7076l-5.1821,5.488,6.1337,6.1338h0a.0647.0647,0,0,0,.0741.0147h.0009c.0137-.0056.0241,17.4784.031,17.4681s.01-17.5151.01-17.531V121.7745"/><path class="cls-2" d="M199.5349,121.77v3.9925a.0656.0656,0,0,0,.02.0458v.0007a.0735.0735,0,0,0,.0494.0212l6.4081.0486"/><path class="cls-2" d="M198.4446,120.7l-5.1642,5.4686.0488-6.4277a.0725.0725,0,0,1,.0211-.0493h0a.0665.0665,0,0,1,.046-.02h4.02"/><line class="cls-2" x1="206.0303" y1="125.8776" x2="206.029" y2="125.8788"/><path class="cls-2" d="M206.03,125.8776l6.12-6.12h0a.0681.0681,0,0,0,.0192-.0336.0694.0694,0,0,0-.0045-.04v-.001a.0615.0615,0,0,0-.0629-.0408h-10.439"/><polyline class="cls-2" points="206.03 125.878 206.032 125.879 206.029 125.879"/><line class="cls-2" x1="206.0303" y1="125.8776" x2="200.5771" y2="120.728"/><polyline class="cls-2" points="206.012 125.879 206.021 125.887 206.029 125.879"/><line class="cls-2" x1="206.0119" y1="125.8787" x2="206.029" y2="125.8788"/><line class="cls-2" x1="198.452" y1="120.7076" x2="198.4446" y2="120.7003"/><line class="cls-2" x1="198.4437" y1="118.5362" x2="198.4343" y2="118.5457"/><line class="cls-2" x1="198.4446" y1="120.7003" x2="197.417" y2="119.6727"/><line class="cls-2" x1="197.4136" y1="119.6693" x2="197.417" y2="119.6727"/><polyline class="cls-2" points="201.666 119.639 201.688 119.618 200.643 118.573"/><polyline class="cls-2" points="199.535 121.77 199.525 121.781 199.519 121.775"/><line class="cls-2" x1="199.5353" y1="121.7699" x2="200.5676" y2="120.7376"/><polyline class="cls-2" points="199.516 117.463 199.525 117.455 199.533 117.463"/><line class="cls-2" x1="201.6626" y1="119.6425" x2="200.5771" y2="120.728"/><line class="cls-2" x1="198.452" y1="120.7076" x2="199.5192" y2="121.7748"/><polyline class="cls-2" points="197.414 119.67 197.362 119.618 198.434 118.546"/><line class="cls-2" x1="199.5163" y1="117.4637" x2="198.4437" y2="118.5362"/><line class="cls-2" x1="200.6356" y1="118.5661" x2="199.5325" y2="117.463"/><line class="cls-2" x1="200.5676" y1="120.7376" x2="200.5771" y2="120.728"/><line class="cls-2" x1="201.6626" y1="119.6425" x2="201.666" y2="119.6392"/><line class="cls-2" x1="200.6356" y1="118.5661" x2="200.6429" y2="118.5735"/><path class="cls-3" d="M74.3313,81.0422H72.055a.5274.5274,0,0,1-.5274-.5274h0v-1.56a.5274.5274,0,0,1,.5274-.5274h5.9883"/><line class="cls-3" x1="71.0189" y1="95.3155" x2="72.6228" y2="95.3155"/><line class="cls-3" x1="73.0344" y1="85.3834" x2="73.0344" y2="81.7297"/><line class="cls-3" x1="72.4777" y1="95.3155" x2="70.4461" y2="95.3155"/><line class="cls-3" x1="69.5582" y1="93.9603" x2="69.5653" y2="93.9427"/><line class="cls-3" x1="69.5653" y1="93.9427" x2="73.029" y2="85.4554"/><path class="cls-3" d="M69.5582,93.96a.98.98,0,0,0,.9079,1.3538"/><path class="cls-3" d="M69.5582,93.96l.0071-.0176"/><line class="cls-3" x1="72.4777" y1="95.3155" x2="70.4461" y2="95.3155"/><line class="cls-3" x1="69.5582" y1="93.9603" x2="69.5653" y2="93.9427"/><line class="cls-3" x1="69.5653" y1="93.9427" x2="73.029" y2="85.4554"/><path class="cls-3" d="M69.5582,93.96a.98.98,0,0,0,.9079,1.3538"/><path class="cls-3" d="M69.5582,93.96l.0071-.0176"/><path class="cls-3" d="M78.2332,82.6269h3.17a.5076.5076,0,0,0,.4848-.5274V80.539a.5077.5077,0,0,0-.4848-.5275H75.36a.5075.5075,0,0,0-.4848.5275V82.1a.5075.5075,0,0,0,.4848.5274h1.0456"/><line class="cls-3" x1="76.0735" y1="87.554" x2="76.0735" y2="83.9003"/><line class="cls-3" x1="82.7042" y1="97.486" x2="73.4851" y2="97.486"/><line class="cls-3" x1="72.5973" y1="96.1307" x2="72.6044" y2="96.1132"/><line class="cls-3" x1="72.6044" y1="96.1132" x2="76.068" y2="87.6259"/><path class="cls-3" d="M72.5973,96.1307a.98.98,0,0,0,.9078,1.354"/><path class="cls-3" d="M72.5973,96.1307l.0071-.0175"/><line class="cls-3" x1="80.6886" y1="87.554" x2="80.6886" y2="83.9003"/><line class="cls-3" x1="73.6304" y1="97.486" x2="83.277" y2="97.486"/><line class="cls-3" x1="84.1649" y1="96.1307" x2="84.1577" y2="96.1132"/><line class="cls-3" x1="84.1577" y1="96.1132" x2="80.6941" y2="87.6259"/><path class="cls-3" d="M84.1649,96.1307a.98.98,0,0,1-.9084,1.354"/><path class="cls-3" d="M84.1649,96.1307l-.0072-.0175"/><line class="cls-3" x1="73.6304" y1="97.486" x2="83.277" y2="97.486"/><line class="cls-3" x1="84.1649" y1="96.1307" x2="84.1577" y2="96.1132"/><line class="cls-3" x1="84.1577" y1="96.1132" x2="80.6941" y2="87.6259"/><path class="cls-3" d="M84.1649,96.1307a.98.98,0,0,1-.9084,1.354"/><path class="cls-3" d="M84.1649,96.1307l-.0072-.0175"/><line class="cls-4" x1="79.1318" y1="84.7852" x2="80.7226" y2="84.7852"/><line class="cls-4" x1="79.1318" y1="83.8738" x2="80.7226" y2="83.8738"/><line class="cls-4" x1="79.1318" y1="85.7073" x2="80.7226" y2="85.7073"/><line class="cls-4" x1="79.1318" y1="86.6295" x2="80.7226" y2="86.6295"/><line class="cls-4" x1="79.1318" y1="87.5516" x2="80.7226" y2="87.5516"/><path class="cls-4" d="M75.709,92.8618c0-.5233.9475-1.6623.9475-1.6623s.9475,1.139.9475,1.6623a.9475.9475,0,0,1-1.895,0Z"/><path class="cls-4" d="M77.6861,95.2072c0-.5234.9474-1.6623.9474-1.6623s.9475,1.1389.9475,1.6623a.9475.9475,0,0,1-1.8949,0Z"/><path class="cls-4" d="M78.21,91.8484c0-.5233.9475-1.6623.9475-1.6623s.9475,1.139.9475,1.6623a.9475.9475,0,1,1-1.895,0Z"/><path class="cls-4" d="M216.2151,59.3035l13.6138,12.81h0l-9.4367,10.0293a1.12,1.12,0,0,1-1.5831.0481L206.8261,70.916a1.12,1.12,0,0,1-.0482-1.5831l0,0,9.4366-10.0293Z"/><rect class="cls-5" x="216.0702" y="55.2298" width="9.5726" height="3.7384" transform="translate(27.9265 178.8197) rotate(-46.7436)"/><rect class="cls-5" x="219.044" y="58.3724" width="7.9772" height="3.7384" transform="translate(26.3226 181.3936) rotate(-46.7436)"/><rect class="cls-5" x="222.0178" y="61.5153" width="6.3818" height="3.7384" transform="translate(24.7186 183.9675) rotate(-46.7436)"/><rect class="cls-5" x="224.9914" y="64.6581" width="4.7863" height="3.7384" transform="translate(23.1145 186.5415) rotate(-46.7436)"/><rect class="cls-5" x="227.9653" y="67.8011" width="3.1909" height="3.7384" transform="translate(21.5104 189.1156) rotate(-46.7436)"/><polygon class="cls-6" points="233.936 65.02 231.357 66.246 232.87 67.668 233.936 65.02"/><polygon class="cls-6" points="231.357 66.246 229.294 67.226 232.017 69.787 232.87 67.668 231.357 66.246"/><polygon class="cls-6" points="232.306 61.296 229.728 62.522 231.24 63.945 232.306 61.296"/><polygon class="cls-6" points="229.728 62.522 227.665 63.502 230.388 66.063 231.24 63.945 229.728 62.522"/><polygon class="cls-6" points="230.677 57.572 228.098 58.798 229.611 60.221 230.677 57.572"/><polygon class="cls-6" points="228.098 58.798 226.035 59.778 228.758 62.339 229.611 60.221 228.098 58.798"/><polygon class="cls-6" points="229.048 53.849 226.469 55.074 227.982 56.497 229.048 53.849"/><polygon class="cls-6" points="226.469 55.074 224.407 56.054 227.13 58.616 227.982 56.497 226.469 55.074"/><polygon class="cls-6" points="227.418 50.125 224.84 51.351 226.352 52.773 227.418 50.125"/><polygon class="cls-6" points="224.84 51.351 222.777 52.331 225.5 54.892 226.352 52.773 224.84 51.351"/><line class="cls-2" x1="56.8425" y1="150.2446" x2="237.9908" y2="150.2446"/><path class="cls-7" d="M154.1678,101.5507a11.0631,11.0631,0,0,0,22.1062,0,9.5652,9.5652,0,0,0-.1216-1.8243"/><path class="cls-7" d="M168.27,147.9652h3.9639a1.7533,1.7533,0,0,1,1.7533,1.7533v.4383H168.27Z"/><path class="cls-7" d="M162.1717,150.1567h-5.717v-.4384a1.7531,1.7531,0,0,1,1.753-1.7532h3.964Z"/><path class="cls-7" d="M154.1678,101.5507c0-.12.0052-.2379.0094-.3565a2.0068,2.0068,0,0,0,.1812,4.01h.4844A10.1781,10.1781,0,0,1,154.1678,101.5507Z"/><path class="cls-7" d="M176.2646,101.1942c.0041.1186.0094.237.0094.3565a10.1807,10.1807,0,0,1-.675,3.6527h.4845a2.0068,2.0068,0,0,0,.1811-4.01h0Z"/><path class="cls-7" d="M171.7,102.3726a1.24,1.24,0,0,1-2.4774,0"/><path class="cls-7" d="M161.2189,102.3726a1.24,1.24,0,0,1-2.4774,0"/><path class="cls-7" d="M163.1246,107.4314a2.0982,2.0982,0,0,0,4.1926,0"/><path class="cls-7" d="M178.0455,116.8976a11.6289,11.6289,0,0,0-5.8456-5.57,3.1052,3.1052,0,0,0-1.1312-.4188,1.9511,1.9511,0,0,0-.4059-.0448c-.02,0-.04.0017-.06.0023-.0155,0-.0307-.0023-.0463-.0023H170.49a11.4942,11.4942,0,0,1-10.5369,0h-.0672c-.0157,0-.0307.002-.0463.0023-.02-.0006-.04-.0023-.06-.0023a1.9494,1.9494,0,0,0-.4058.0448,3.1052,3.1052,0,0,0-1.1312.4188,11.6289,11.6289,0,0,0-5.8456,5.57c-.0985.2016-.1884.4065-.274.6119l3.7356.8325a7.8683,7.8683,0,0,1,.978-1.4951v9.996h16.77v-9.996a7.863,7.863,0,0,1,.9779,1.4951l3.7355-.8325C178.2339,117.3042,178.1439,117.1,178.0455,116.8976Z"/><path class="cls-7" d="M159.8757,110.7133a5.3553,5.3553,0,0,0,10.7009,0"/><path class="cls-7" d="M175.5156,123.885a2.1582,2.1582,0,0,1,.93-.2105,2.107,2.107,0,0,1,1.8613,1.087,10.578,10.578,0,0,0-.4-7.16l-2.9032.6472A7.9009,7.9009,0,0,1,175.5156,123.885Z"/><ellipse class="cls-7" cx="176.4455" cy="125.6834" rx="2.0963" ry="2.0089"/><path class="cls-7" d="M151.2721,123.05a3.0956,3.0956,0,0,0-1.1242-.22,8.2372,8.2372,0,0,0,2.3567-5.2528l2.9.6608a10.7859,10.7859,0,0,1-2.9717,6.58A2.0015,2.0015,0,0,0,151.2721,123.05Z"/><ellipse class="cls-7" cx="150.3378" cy="124.8486" rx="2.0963" ry="2.0089"/><path class="cls-7" d="M165.2242,86.2279a11.1379,11.1379,0,0,0-4.0267.753,19.1587,19.1587,0,0,1-10.06-1.2992V89.23a9.4745,9.4745,0,0,0,2.6219,6.4022h0a13.5468,13.5468,0,0,0-.2188,5.63,1.9079,1.9079,0,0,1,.6519-.1161h.0042a12.5183,12.5183,0,0,1,.835-4.3456,11,11,0,0,0,1.6584,1.0709,12.8263,12.8263,0,0,0,8.4633.7047,25.9091,25.9091,0,0,1,5.0214-.4891,19.504,19.504,0,0,1,5.88.9929,12.7424,12.7424,0,0,1,.1974,2.0664h.0042a1.9092,1.9092,0,0,1,.6517.1162,13.7007,13.7007,0,0,0,.1954-2.2331c0-.0224.0015-.0441.0015-.0664C177.105,91.93,171.7858,86.2279,165.2242,86.2279Z"/><path class="cls-7" d="M165.2405,134.31v13.64h7.5835v-13.776c.8961-1.0411.8086-4.5414.8086-5.9845l-16.7963.0587"/><path class="cls-7" d="M165.2305,136.5275v11.4217h-7.5836v-13.776c-.896-1.0411-.8085-4.5414-.8085-5.9845l16.7963.0587"/><path class="cls-7" d="M146.4706,101.2618c.004.1186.0094.2368.0094.3565a10.18,10.18,0,0,1-.675,3.6525h.4843a2.0066,2.0066,0,0,0,.1813-4.009Z"/><path class="cls-7" d="M141.9062,103.6272a1.24,1.24,0,0,0-2.4774,0"/><path class="cls-7" d="M131.4248,103.6272a1.24,1.24,0,0,0-2.4773,0"/><path class="cls-7" d="M133.3305,107.4989a2.0982,2.0982,0,0,0,4.1926,0"/><path class="cls-7" d="M149.3611,123.0483a3.1413,3.1413,0,0,1,1.1216-.2253,7.9339,7.9339,0,0,1-2.3072-5.1544l-2.8938.6728a10.3885,10.3885,0,0,0,2.91,6.4566A2.0079,2.0079,0,0,1,149.3611,123.0483Z"/><line class="cls-7" x1="127.1358" y1="113.3487" x2="145.6667" y2="113.3487"/><path class="cls-2" d="M142.0559,111.1738a9.7,9.7,0,0,0,4.57-5.6553"/><path class="cls-7" d="M123.4848,101.324a2.0623,2.0623,0,0,0,0,3.661Z"/><path class="cls-7" d="M127.32,112.34c0,2.9826-1.1648,3.8706-2.6669,5.7555l1.4112.3145a7.88,7.88,0,0,1,.9778-1.4953v10.0322h16.77V116.9142a7.8729,7.8729,0,0,1,.978,1.4953l3.7356-.8325c-.0856-.2055-.191-.4032-.274-.6118a11.9366,11.9366,0,0,0-7.44-6.1755"/><path class="cls-2" d="M147.2309,101.2153V98.9322a11.83,11.83,0,1,0-23.66,0h0"/><path class="cls-7" d="M127.32,111.9889v.3506c0,2.9826-1.15,3.8416-2.6516,5.7266"/><line class="cls-7" x1="127.3198" y1="111.9688" x2="127.3198" y2="111.9889"/><path class="cls-7" d="M130.0424,110.82a10.1747,10.1747,0,0,0-2.7226,1.1686"/><line class="cls-2" x1="123.5735" y1="117.8546" x2="123.5773" y2="115.3014"/><path class="cls-8" d="M123.5735,117.8546l-.0026,1.7407a17.8066,17.8066,0,0,1,1.0684-1.4944"/><line class="cls-2" x1="123.5773" y1="115.3014" x2="123.6016" y2="98.8045"/><path class="cls-7" d="M122.3221,117.7711a16.1855,16.1855,0,0,1,1.2495-2.5336"/><path class="cls-2" d="M123.6228,98.963a11.8057,11.8057,0,0,1,23.6113-.0663"/><path class="cls-7" d="M146.3429,100.08a13.9334,13.9334,0,0,1-1.651-.4447c-3.4207-1.245-5.4007-3.1087-6.2167-5.1927-3.2083,1.7772-7.2565,3.0622-8.28,4.0166-1.4737,1.3748-2.8758,3.3474-2.8758,5.3629v4.8956"/><path class="cls-7" d="M146.3526,100.0767l.0413.0088-.0414-.0091"/><line class="cls-7" x1="127.3198" y1="108.7175" x2="127.3198" y2="111.9688"/><path class="cls-7" d="M146.1739,99.8954a5.2316,5.2316,0,0,1,.3213,1.6553,10.83,10.83,0,0,1-11.0531,10.5924,11.2325,11.2325,0,0,1-8.1223-3.4256"/><line class="cls-7" x1="123.7426" y1="117.9042" x2="122.3741" y2="117.4893"/><path class="cls-7" d="M138.4452,147.9652h3.9639a1.7535,1.7535,0,0,1,1.7533,1.7533v.4383h-5.7172Z"/><path class="cls-7" d="M132.3469,150.1567H126.63v-.4384a1.7531,1.7531,0,0,1,1.753-1.7532h3.9641Z"/><path class="cls-7" d="M135.4149,134.31v13.64h7.5836v-13.776c.896-1.0411.8086-4.5414.8086-5.9845l-16.7964.0587"/><path class="cls-7" d="M135.4056,136.5275v11.4217h-7.5835v-13.776c-.896-1.0411-.8086-4.5414-.8086-5.9845l16.7964.0587"/><path class="cls-7" d="M122.7578,117.577a8.2353,8.2353,0,0,1-2.3568,5.2528,3.1046,3.1046,0,0,1,1.1243.22,2.0018,2.0018,0,0,1,1.1606,1.7679,10.7858,10.7858,0,0,0,2.9718-6.58"/><ellipse class="cls-7" cx="120.5911" cy="124.8486" rx="2.0963" ry="2.0089"/><path class="cls-7" d="M112.1451,103.6272a1.24,1.24,0,0,0-2.4774,0"/><path class="cls-7" d="M101.6637,103.6272a1.24,1.24,0,0,0-2.4774,0"/><path class="cls-7" d="M103.5694,107.4989a2.0982,2.0982,0,0,0,4.1926,0"/><ellipse class="cls-7" cx="94.4411" cy="125.7509" rx="2.0963" ry="2.0089"/><path class="cls-7" d="M120.7217,122.823a7.9339,7.9339,0,0,1-2.3072-5.1544l-2.894.6728a10.3884,10.3884,0,0,0,2.91,6.4566"/><path class="cls-7" d="M94.8918,118.095l1.4112.3145a7.8848,7.8848,0,0,1,.9778-1.4953v10.0322h16.77V116.9142a7.8858,7.8858,0,0,1,.978,1.4953l3.7354-.8325c-.0856-.2055-.19-.4032-.2739-.6118a11.9375,11.9375,0,0,0-7.44-6.1755"/><path class="cls-7" d="M96.3275,118.41l-3.7354-.8325c.0855-.2055.19-.4032.2738-.6118a11.9368,11.9368,0,0,1,7.44-6.1755"/><path class="cls-2" d="M93.0876,117.9194a12.4123,12.4123,0,0,0-.5077,6.91,2.1742,2.1742,0,0,1,2.791-.8764,8.034,8.034,0,0,1,.5122-5.6365"/><path class="cls-7" d="M108.684,147.9652h3.9639a1.7535,1.7535,0,0,1,1.7533,1.7533v.4383H108.684Z"/><path class="cls-7" d="M102.5857,150.1567H96.8686v-.4384a1.7532,1.7532,0,0,1,1.7532-1.7532h3.9639Z"/><path class="cls-7" d="M105.6543,134.31v13.64h7.5835v-13.776c.896-1.0411.8085-4.5414.8085-5.9845l-16.7963.0587"/><path class="cls-7" d="M105.6444,136.5275v11.4217H98.0609v-13.776c-.896-1.0411-.8085-4.5414-.8085-5.9845l16.7963.0587"/><path class="cls-7" d="M96.5013,99.8434c3.2539-1.1749,5.1975-2.9079,6.0731-4.855,1.7846,2.584,5.8454,4.39,10.5746,4.39a23.1113,23.1113,0,0,0,3.3163-.255,10.929,10.929,0,1,1-21.6507,2.196c0-.3416.0178-.6789.049-1.0124A15.94,15.94,0,0,0,96.5013,99.8434Z"/><path class="cls-7" d="M90.2712,103.92V89.6338a6.7385,6.7385,0,0,1,13.0359-2.3358,7.6328,7.6328,0,0,0-1.5934-.168,7.5422,7.5422,0,0,0-7.5722,7.5118,7.3874,7.3874,0,0,0,.0811,1.0733h0c.0286.1961.0622.3906.1056.5817l.013-.0475a11.5232,11.5232,0,0,0-.288,4.2438c.03.2576.071.5122.1174.7647a2,2,0,0,0,.644,3.9h.7068v0A10.8012,10.8012,0,0,0,96.98,107.794a5.05,5.05,0,0,1-10.0738-.4658v-1.6688a2.1392,2.1392,0,0,0,3.3652-1.7392Z"/><path class="cls-7" d="M105.7522,87.4638a11.732,11.732,0,0,1,11.7735,11.475c.0013.07.0054.1395.0054.21a11.6557,11.6557,0,0,1-.1952,2.11,2.0282,2.0282,0,0,0-.6461-.1066h-.0044a10.7923,10.7923,0,0,0-.22-2.0291h.0008a23.107,23.107,0,0,1-3.3171.2551c-4.7292,0-8.79-1.8058-10.5746-4.39-.8756,1.9471-2.8191,3.68-6.0731,4.855,0,0-1.6546.4672-1.6376.4633q-.0393.4182-.0448.8455h-.004a2.024,2.024,0,0,0-.644.1058c-.0463-.2525-.0877-.5068-.1173-.7647a11.666,11.666,0,0,1,11.6989-13.0292Z"/><path class="cls-7" d="M94.3282,96.2967a7.504,7.504,0,0,1,7.3855-9.1668,7.6144,7.6144,0,0,1,2.533.4321A11.7545,11.7545,0,0,0,94.3282,96.2967Z"/><path class="cls-7" d="M116.69,101.3188c0-.056-.0035-.1111-.0044-.1669h.0044a2.0032,2.0032,0,0,1,.042,4.0062h-.7489A10.7443,10.7443,0,0,0,116.69,101.3188Z"/><circle class="cls-7" cx="105.5469" cy="119.3923" r="0.8297"/><circle class="cls-7" cx="105.5469" cy="122.0659" r="0.8297"/><path class="cls-7" d="M130.7136,69.2008a4.96,4.96,0,0,0-4.96-4.96H67.888a4.96,4.96,0,0,0-4.96,4.96v32.4464a4.96,4.96,0,0,0,4.96,4.96H84.86"/><line class="cls-7" x1="130.7136" y1="69.2008" x2="130.7136" y2="85.8862"/><rect class="cls-7" x="88.3479" y="64.3837" width="16.9463" height="5.6487"/></svg>