<svg xmlns="http://www.w3.org/2000/svg" width="399" height="200" viewBox="0 0 399 200">
  <g fill="none" fill-rule="evenodd" transform="translate(-18 -9)">
    <g fill-rule="nonzero" stroke="#222F3C" stroke-linecap="round" stroke-linejoin="round" transform="translate(93.214 93)">
      <ellipse cx="7.482" cy="7.589" stroke-width=".5" rx="7.482" ry="7.589" transform="translate(35.612)"/>
      <line x1="9.356" x2="74.778" y1="48.567" y2="48.567" stroke-width=".5"/>
      <line x1="76.124" x2="138.904" y1="41.399" y2="41.399" stroke-width=".5"/>
      <g stroke-width=".5" transform="translate(16.584 26.848)">
        <path d="M0,4.42905466 C0.128058725,2.20971956 2.31472382,0 4.63219176,0 C6.94965969,0 8.83931586,1.76200632 8.96602332,3.97999188 C10.8134575,4.46498644 12.1744973,6.09844811 12.1744973,8.04568018 C12.1744973,9.99004446 10.8161809,11.6221566 8.9701187,12.1098502 C8.97146997,12.1611331 8.97828868,12.2107291 8.97828868,12.262012 C8.97828868,14.590492 7.03277313,16.4781752 4.63219176,16.4781752 C2.23163117,16.4781752 0.286094833,14.590492 0.286094833,12.262012 C0.286094833,12.2107291 0.292913545,12.1611331 0.294285602,12.1098502"/>
        <line x1="4.581" x2="1.179" y1="9.24" y2="6.124"/>
        <line x1="4.82" x2="7.739" y1="11.066" y2="7.176"/>
        <line x1="4.86" x2="4.724" y1="6.858" y2="21.61"/>
      </g>
      <g stroke-width=".5" transform="translate(.027 14.01)">
        <g transform="translate(30.447 8.41)">
          <g transform="translate(0 7.136)">
            <line x1="28.892" x2="28.892" y1="5.928" y2="8.964"/>
            <g transform="translate(1.368 12.494)">
              <g transform="translate(15.224 1.474)">
                <line y2="5.013"/>
                <line x1="21.861" x2="21.861" y2="5.013"/>
              </g>
              <rect width="5.813" height="6.52" x="24.645" rx="1"/>
              <line y2="5.013" transform="translate(.887 1.474)"/>
            </g>
            <path d="M4.39765303,11.9116351 L18.4569419,11.9116351 L28.831528,0 L10.3746069,0 L0,11.9116351"/>
            <line x1="28.927" x2="39.302" y1=".016" y2="11.928"/>
          </g>
          <g transform="translate(18.68)">
            <line x1="24.805" x2="24.805" y1="5.928" y2="8.964"/>
            <g transform="translate(21.925 12.468)">
              <line y2="5.013" transform="translate(12.44 1.335)"/>
              <rect width="5.813" height="6.52" rx="1"/>
            </g>
            <path d="M14.3701015,11.9116351 L24.7446876,0 L6.28776655,0 L0,7.09019873"/>
            <line x1="24.84" x2="35.215" y1=".017" y2="11.928"/>
          </g>
        </g>
        <line x1=".174" x2="74.751" y1="34.557" y2="34.557"/>
        <g transform="translate(78.123)">
          <g transform="translate(10.755 8.35)">
            <line x1="10.546" x2="10.41" y1="5.928" y2="8.964"/>
            <g transform="translate(.849 12.494)">
              <g transform="translate(0 1.475)">
                <line x1="21.998" x2="21.861" y2="5.013"/>
                <line x1=".136" y2="5.013"/>
              </g>
              <path d="M7.62813333,1.24357937e-06 L11.4409893,1.24357937e-06 C11.993274,1.24357937e-06 12.4409893,0.447716494 12.4409893,1.00000124 L12.4409893,5.51984658 C12.4409893,6.07213133 11.993274,6.51984658 11.4409893,6.51984658 L7.62813333,6.51984658 C7.07584858,6.51984658 6.62813333,6.07213133 6.62813333,5.51984658 L6.62813333,1.00000124 C6.62813333,0.447716494 7.07584858,1.24357937e-06 7.62813333,1.24357937e-06 Z" transform="rotate(-180 9.535 3.26)"/>
              <line x1=".228" y2="5.013" transform="translate(36.198 1.475)"/>
            </g>
            <path d="M34.903641,11.9116351 L20.8443522,11.9116351 L10.469766,0 L28.9267079,0 L39.3012941,11.9116351"/>
            <line x1="10.375" y1=".016" y2="11.928"/>
          </g>
          <line x1="6.953" x2="6.817" y1="4.799" y2="7.257"/>
          <path d="M2.11856114,5.27758428 L4.17579545,5.27758428 C4.468709,5.27758428 4.70578395,5.03719567 4.70578395,4.74147551 L4.70578395,0.537627013 C4.70578395,0.240388608 4.468709,0 4.17579545,0 L0.529988496,0 C0.237074951,0 0,0.240388608 0,0.537627013 L0,2.93240363" transform="translate(4.53 10.182)"/>
          <path d="M15.264611,9.6428727 L6.86599594,0 L21.8075803,0 L26.8977483,5.73997387"/>
          <line x1="6.788" y1=".014" y2="8.023"/>
        </g>
      </g>
      <path stroke-width=".5" d="M0,0 C1.54088324,0.164307722 1.6417087,1.74800474 1.64443202,1.81581963 L1.68257939,2.54137149 L2.24934319,2.09905645 C4.09133074,0.655037869 6.47010472,1.25339464 6.49326339,1.26031108" transform="translate(53.063 2.41)"/>
      <path stroke-width=".5" d="M0,0 C1.53951118,0.164476416 1.64033664,1.74817343 1.64441123,1.81581963 L1.6825586,2.54137149 L2.2493224,2.0978756 C4.09130995,0.655037869 6.46871187,1.25339464 6.4932426,1.25896153" transform="translate(62.026 8.194)"/>
      <g stroke-width=".5" transform="translate(6.658 29.591)">
        <path d="M10.3693162,3.47424798 C10.2589695,1.5381497 8.60907001,0 6.58590847,0 C4.56135408,0 2.91282667,1.5381497 2.80112869,3.47424798 C1.18802532,3.89851279 0,5.32464984 0,7.02440816 C0,8.72281693 1.18665326,10.148954 2.79703331,10.5732188 C2.79566125,10.6187661 2.7902146,10.6616143 2.7902146,10.7058121 C2.7902146,12.7400901 4.48915474,14.3873847 6.58590847,14.3873847 C8.68129015,14.3873847 10.3802095,12.7400901 10.3802095,10.7058121 C10.3802095,10.6616143 10.3747628,10.6187661 10.3734116,10.5732188"/>
        <line x1="6.63" x2="9.601" y1="8.068" y2="5.348"/>
        <line x1="6.421" x2="3.873" y1="9.663" y2="6.266"/>
        <line x1="6.505" x2="6.642" y1="5.989" y2="18.869"/>
      </g>
      <g stroke-width=".4" transform="translate(113.535 45.165)">
        <g transform="translate(5.424)">
          <g transform="translate(0 1.72)">
            <path d="M8.4565951,11.7851148 L4.44428242,11.7851148 C4.41567709,11.7851148 4.38842303,11.7754992 4.36663642,11.757449 L1.82982634,9.63072675 C1.80257228,9.60710962 1.78623232,9.5726961 1.78623232,9.53524608 L1.78623232,7.19850012 C1.78623232,7.18179944 1.78895565,7.16526745 1.79575357,7.15008501 L2.48515023,5.46685868 L2.45924745,2.02027647 L0.121364953,2.02027647 C0.0723034933,2.02027647 0.027358207,1.98991159 0.00964618855,1.94436428 C-0.00943788768,1.89729872 0,1.84483496 0.0355281874,1.80890319 L0.699022062,1.13581509 C0.711287427,1.12350044 0.727627388,1.11236665 0.745339406,1.10679976 L1.20038444,0.946540687 L2.16225931,0.0330639769 C2.18404592,0.0123146445 2.2140233,0 2.24535196,0 L4.44293115,0 C4.51105589,0 4.56554322,0.0551628595 4.56554322,0.124327301 L4.56691528,6.54886045 L5.8802656,6.54886045 C7.39799017,6.54886045 8.89255607,6.81016709 10.3230926,7.32417697 L11.9143886,7.89486796 C11.96345,7.91291819 11.9961299,7.95981506 11.9961299,8.01244751 L11.9961299,8.66883493 C11.9961299,8.7074658 11.9784179,8.74491582 11.9470893,8.7670147 L10.1936618,10.1018884 L8.54243187,11.7505325 C8.5192732,11.7726314 8.48929581,11.7851148 8.4565951,11.7851148 Z M4.56691528,7.5315016 L4.56691528,8.31086677"/>
            <line y2="2.316" transform="translate(7.478 11.806)"/>
            <path d="M0,1.7490169 L1.51319262,0.699066941 L1.51319262,0" transform="translate(4.997 12.436)"/>
            <path d="M0,0 L1.50098962,1.60191594 L4.8334269,1.60191594" transform="translate(4.6 8.334)"/>
            <g transform="translate(.921 2.563)">
              <line x1="1.524"/>
            </g>
          </g>
          <path d="M0,1.70532522 L0,0.124327301 C0,0.0566811033 0.0544873244,0 0.121240014,0 L0.6920992,0 C0.72479991,0 0.756128563,0.0138328883 0.779287235,0.0372813209 L1.21526898,0.479427665 L1.54905322,0.479427665 C1.58175393,0.479427665 1.61173131,0.493260554 1.63488999,0.51687768 L2.00547032,0.891377827 C2.02862899,0.91482626 2.04087356,0.946540687 2.04087356,0.979773357 L2.04087356,1.70532522" transform="translate(2.37)"/>
          <path d="M1.08739942,2.04946049 L0.13188866,2.04946049 C0.05863209,2.04946049 0,1.99412894 0,1.92648274 L0,1.11253535 C0,1.09735291 0.00292936834,1.08352002 0.00733460165,1.06968713 L0.429387259,0" transform="translate(1.447 4.3)"/>
        </g>
        <line x2="20.349" transform="translate(0 15.92)"/>
        <line y1="1.147" transform="translate(5.332 14.694)"/>
        <line y2=".815" transform="translate(6.204 15.35)"/>
        <line y1="1.685" transform="translate(7.063 14.155)"/>
        <line y1=".933" transform="translate(14.858 15.356)"/>
        <line y1="1.098" transform="translate(15.696 14.783)"/>
      </g>
      <g stroke-width=".4" transform="translate(100.812 48.883)">
        <g transform="translate(2.941)">
          <g transform="translate(0 1.72)">
            <path d="M8.4576114,11.7852835 L4.44529871,11.7852835 C4.41669339,11.7852835 4.38943933,11.7754992 4.36765272,11.7562681 L1.83084264,9.6293772 C1.80221652,9.60592877 1.78722783,9.57134655 1.78722783,9.53406523 L1.78722783,7.19715057 C1.78722783,7.18196813 1.78995116,7.16543614 1.7954186,7.1502537 L2.48479447,5.46702737 L2.46026374,2.01909561 L0.122360461,2.01909561 C0.0733197902,2.01909561 0.0283537152,1.99008028 0.00929042769,1.94301473 C-0.00979364854,1.89746741 0.00112044734,1.84348541 0.0365444843,1.80907188 L0.700038359,1.13598378 C0.712282935,1.12215089 0.728643684,1.11253535 0.746355703,1.1056189 L1.20140074,0.94670938 L2.16325481,0.0332326707 C2.18506222,0.0111337882 2.2150396,0 2.24636825,0 L4.44394744,0 C4.5120514,0 4.56655952,0.0553315532 4.56655952,0.122977751 L4.56791078,6.54902914 L5.8812819,6.54902914 C7.39900647,6.54902914 8.89357236,6.80881753 10.3241089,7.32299611 L11.9154049,7.89503665 C11.9644455,7.91308689 11.9971462,7.95998375 11.9971462,8.01109796 L11.9971462,8.66748538 C11.9971462,8.7076345 11.978083,8.74356627 11.9481056,8.7670147 L10.1946781,10.1007076 L8.54342738,11.7493517 C8.52026871,11.7728001 8.49029132,11.7852835 8.4576114,11.7852835 Z M4.56791078,7.5316703 L4.56791078,8.31103547"/>
            <line y2="2.316" transform="translate(7.48 11.806)"/>
            <path d="M0,1.7490169 L1.51319262,0.699066941 L1.51319262,0" transform="translate(4.997 12.436)"/>
            <path d="M0,0 L1.50096883,1.60191594 L4.83340611,1.60191594" transform="translate(4.6 8.334)"/>
            <g transform="translate(.922 2.562)">
              <line x1="1.524"/>
            </g>
          </g>
          <path d="M0,1.70532522 L0,0.124495995 C0,0.0553315532 0.0545081131,0 0.121260802,0 L0.692119989,0 C0.72479991,0 0.756149351,0.0124833382 0.779308023,0.0359317708 L1.21526898,0.479596359 L1.54907401,0.479596359 C1.58177472,0.479596359 1.61173131,0.492079697 1.63491077,0.51552813 L2.00547032,0.891377827 C2.02862899,0.91482626 2.04089435,0.94535983 2.04089435,0.978423807 L2.04089435,1.70532522" transform="translate(2.372)"/>
          <path d="M1.08739942,2.05081004 L0.13188866,2.05081004 C0.0586097285,2.05081004 0,1.99547849 0,1.92631404 L0,1.11236665 C0,1.09853376 0.00292936834,1.08470088 0.00733460165,1.07086799 L0.429387259,0" transform="translate(1.448 4.3)"/>
        </g>
        <line x2="17.868" transform="translate(0 15.92)"/>
        <line y1="1.147" transform="translate(2.852 14.693)"/>
        <line y2=".815" transform="translate(3.723 15.35)"/>
        <line y1="1.685" transform="translate(4.582 14.155)"/>
        <line y1=".933" transform="translate(12.378 15.356)"/>
        <line y1="1.098" transform="translate(13.215 14.781)"/>
      </g>
    </g>
    <g fill-rule="nonzero" transform="translate(234.54 77)">
      <line x1=".847" x2="45.065" y1="57.003" y2="57.003" stroke="#222F3C" stroke-dasharray="0 3 0 3" stroke-linecap="round"/>
      <path fill="#333838" d="M9.51061299,9.76988162 C9.58567373,9.76988162 9.63071018,9.68039462 9.73579522,9.42684811 C10.426354,7.78625304 11.6423381,4.96741243 12.5881034,2.90921135 C13.5338688,0.791352264 13.8040874,0.478147752 14.4345977,0.314088245 C14.7048163,0.269344743 14.7798771,0.209686741 14.7798771,0.150028739 C14.7798771,0.0903707362 14.7048163,0.0754562356 14.5096584,0.0754562356 C14.2394397,0.0754562356 13.8341117,0.135114238 13.4137716,0.135114238 C12.9634071,0.135114238 12.753237,0.0754562356 12.3629212,0.0754562356 C12.1527511,0.0754562356 12.1077147,0.105285237 12.1077147,0.164943239 C12.1077147,0.224601242 12.1977875,0.254430243 12.4379819,0.329002746 C12.9333828,0.478147752 12.948395,0.731694262 12.8733342,1.05981327 C12.5580791,2.16348632 10.7416092,6.33954649 10.021026,7.89065455 C9.97598959,7.98014155 9.9459653,7.99505605 9.8859167,7.89065455 C9.37550366,6.772067 8.71496913,5.35518945 8.33966542,4.47523391 C8.30964113,4.40066141 8.30964113,4.32608891 8.32465327,4.2962599 C8.5798598,3.83391039 9.31545506,2.35737483 9.70577092,1.6116498 C10.2011718,0.746608762 10.4864026,0.43340425 11.0418521,0.314088245 C11.2520222,0.269344743 11.3270829,0.224601242 11.3270829,0.150028739 C11.3270829,0.0903707362 11.2520222,0.0754562356 11.0718764,0.0754562356 C10.726597,0.0754562356 10.4864026,0.135114238 9.96097744,0.135114238 C9.57066159,0.135114238 9.33046721,0.0903707362 8.9551635,0.0903707362 C8.77501772,0.0903707362 8.68494483,0.120199737 8.68494483,0.164943239 C8.68494483,0.224601242 8.72998128,0.284259244 9.00019995,0.343917246 C9.64572233,0.493062252 9.66073448,0.642207258 9.19535788,1.7309658 C8.88010276,2.46177633 8.56484765,3.14784336 8.20455609,3.87865389 C8.15951964,3.95322639 8.09947105,3.93831189 8.0844589,3.90848289 C7.589058,2.77498084 7.13869355,1.7607948 6.89849918,1.13438578 C6.67331695,0.582549256 6.82343844,0.403575249 7.22876644,0.329002746 C7.42392437,0.284259244 7.51399726,0.239515742 7.51399726,0.164943239 C7.51399726,0.105285237 7.40891222,0.0754562356 7.25879074,0.0754562356 C6.91351133,0.0754562356 6.56823192,0.135114238 6.02779458,0.135114238 C5.48735723,0.135114238 5.20212642,0.0754562356 4.76677411,0.0754562356 C4.57161619,0.0754562356 4.4815433,0.120199737 4.4815433,0.164943239 C4.4815433,0.239515742 4.55660404,0.299173744 4.79679841,0.343917246 C5.26217501,0.463233251 5.3822722,0.642207258 5.8176245,1.5669063 C6.14789176,2.28280232 7.1537057,4.54980641 7.39390008,5.11655744 C7.39390008,5.14638644 7.39390008,5.25078794 7.36387578,5.29553144 C6.95854777,6.25005948 6.59825621,6.99578451 6.17791606,7.84591105 C6.13287961,7.92048355 6.07283102,7.95031255 6.02779458,7.84591105 C5.00696849,5.60873596 3.5207658,2.43194733 2.89025557,0.880839268 C2.78517053,0.612378257 2.78517053,0.43340425 3.20551069,0.358831747 C3.38565647,0.329002746 3.47572936,0.284259244 3.47572936,0.209686741 C3.47572936,0.150028739 3.38565647,0.105285237 3.17548639,0.105285237 C2.86023127,0.105285237 2.49993971,0.135114238 2.16967245,0.135114238 C1.719308,0.135114238 1.10380992,0.0754562356 0.743518356,0.0754562356 C0.548360427,0.0754562356 0.443275389,0.135114238 0.443275389,0.17985774 C0.443275389,0.239515742 0.578384724,0.299173744 0.758530504,0.314088245 C1.32899214,0.388660748 1.44908933,0.657121759 1.98952667,1.82045281 C2.69509764,3.28207386 3.70091158,5.48941995 4.52657974,7.38356153 C4.72173767,7.83099654 5.18711427,8.91975509 5.3822722,9.41193361 C5.48735723,9.68039462 5.51738153,9.76988162 5.60745442,9.76988162 C5.66750302,9.76988162 5.75757591,9.65056562 5.8476488,9.41193361 C6.17791606,8.54689257 6.97355992,6.801896 7.54402156,5.69822296 C7.57404586,5.65347946 7.6190823,5.65347946 7.6491066,5.71313746 C8.0844589,6.6676655 8.94015136,8.51706357 9.25540647,9.42684811 C9.34547936,9.66548012 9.40552795,9.76988162 9.51061299,9.76988162 Z M16.6714078,9.65056562 C17.1517965,9.65056562 17.6171731,9.42684811 17.8273432,9.00924209 C17.8873918,8.87501159 17.8273432,8.83026808 17.7372703,8.87501159 C17.5721367,8.96449859 17.4220152,9.00924209 17.301918,9.00924209 C16.8815778,9.00924209 16.7464685,8.72586658 16.7464685,8.44249107 C16.7464685,8.05471405 16.7915049,6.6378365 16.7915049,6.08599998 C16.7915049,5.62365046 16.7314564,5.01215593 16.5813349,4.72878042 C16.4011891,4.2664309 15.9358125,3.96814089 15.4253994,3.96814089 C15.1701929,3.96814089 14.86995,4.05762789 14.5246705,4.2366019 C14.2244276,4.38574691 13.7290267,4.69895142 13.3837473,5.10164294 C13.2036015,5.31044594 13.0985164,5.44467645 13.0985164,5.54907795 C13.0985164,5.60873596 13.1735772,5.69822296 13.2486379,5.68330846 C13.353723,5.66839396 13.8040874,5.45959095 13.9542089,5.35518945 C13.9842332,5.32536044 14.0142575,5.28061694 14.0142575,5.23587344 C14.0142575,5.13147194 14.0142575,5.01215593 14.0292696,4.95249793 C14.0592939,4.78843842 14.1493668,4.68403692 14.2544519,4.59454992 C14.4796341,4.46031941 14.6297556,4.41557591 14.8549378,4.41557591 C15.0350836,4.41557591 15.2902901,4.50506291 15.485448,4.65420792 C15.7406546,4.84809643 15.8457396,5.26570244 15.8457396,5.87719697 C15.8457396,6.08599998 15.8457396,6.38428999 15.8157153,6.56326399 C15.8157153,6.622922 15.7406546,6.7571525 15.6205574,6.7869815 C15.3053023,6.90629751 13.9391968,7.30898902 13.5789052,7.50287753 C13.4437959,7.57745003 13.0384679,7.87574005 13.0384679,8.35300407 C13.0384679,9.1285581 13.6389538,9.63565112 14.2394397,9.63565112 C14.8099014,9.63565112 15.2602658,9.38210461 15.7106303,8.96449859 C15.7256424,8.94958409 15.7706789,8.94958409 15.785691,8.97941309 C15.9208003,9.3224466 16.2510676,9.65056562 16.6714078,9.65056562 Z M14.8999743,9.06890009 C14.4345977,9.06890009 13.9992454,8.72586658 13.9992454,8.23368806 C13.9992454,7.80116754 14.1944033,7.57745003 14.3745491,7.48796303 C14.6898042,7.32390352 15.5605088,7.01069901 15.7556667,6.98087001 C15.785691,6.96595551 15.8157153,7.04052801 15.8157153,7.05544251 C15.8157153,7.62219354 15.785691,8.21877356 15.7406546,8.47232007 C15.7256424,8.63637958 15.6355695,8.77061008 15.5755209,8.83026808 C15.4103873,8.97941309 15.1551808,9.06890009 14.8999743,9.06890009 Z M20.1992626,9.62073662 C20.6196028,9.62073662 21.0849794,9.48650611 21.4152466,9.2329596 C21.6104046,9.08381459 21.7455139,8.93466959 21.7455139,8.84518259 C21.7455139,8.78552458 21.7004775,8.77061008 21.5953924,8.84518259 C21.4602831,8.93466959 21.1900644,9.06890009 20.7697243,9.06890009 C20.3794084,9.06890009 20.0641533,8.94958409 19.8389711,8.66620858 C19.733886,8.51706357 19.7038617,8.33808956 19.6738374,7.86082555 C19.6588253,7.39847603 19.6438131,5.05689943 19.6438131,4.80335292 C19.6438131,4.71386592 19.6738374,4.66912242 19.8539832,4.66912242 C20.2593112,4.66912242 20.9949065,4.68403692 21.5203317,4.68403692 C21.5953924,4.68403692 21.6704532,4.56472091 21.6704532,4.3111744 C21.6704532,4.2067729 21.6104046,4.1023714 21.5803803,4.1023714 C21.2651252,4.1023714 20.0191168,4.1471149 19.7488982,4.1471149 C19.6888496,4.1471149 19.6738374,4.05762789 19.6738374,4.01288439 C19.6588253,3.83391039 19.6888496,3.41630437 19.6888496,3.28207386 C19.6888496,3.20750136 19.5837645,3.17767236 19.4486552,3.32681737 C19.0883636,3.78916688 18.5929627,4.1918584 18.217659,4.32608891 C18.0525254,4.40066141 18.0375133,4.44540491 18.0375133,4.47523391 C18.0375133,4.53489191 18.112574,4.57963542 18.2326712,4.60946442 L18.4409647,4.65420792 C18.5066429,4.66912242 18.5629384,4.68403692 18.5929627,4.69895142 C18.6530113,4.72878042 18.6680235,4.83318193 18.6680235,4.99724143 L18.6680235,8.08454305 C18.6680235,8.44249107 18.7280721,8.74078108 18.8481693,8.93466959 C19.1033758,9.41193361 19.5687524,9.62073662 20.1992626,9.62073662 Z M24.5978221,9.65056562 C25.4535145,9.65056562 26.0840248,9.35227561 26.6845107,8.71095208 C26.7745836,8.60655058 26.8346322,8.51706357 26.8346322,8.47232007 C26.8346322,8.39774757 26.7745836,8.36791857 26.6544864,8.48723457 C26.2941949,8.83026808 25.8438304,8.96449859 25.2283323,8.96449859 C24.7329314,8.96449859 24.1324455,8.80043908 23.7271175,8.35300407 C23.3368016,7.92048355 23.0365587,7.30898902 23.0365587,6.54834949 C23.0365587,6.13074348 23.0815951,5.90702597 23.1566558,5.72805196 C23.1866801,5.68330846 23.2617409,5.60873596 23.2917652,5.60873596 L24.1024212,5.60873596 C24.4477006,5.60873596 26.3992799,5.63856496 26.5193771,5.65347946 C26.5944378,5.65347946 26.6694986,5.56399245 26.6694986,5.48941995 C26.6694986,4.57963542 25.7237332,3.96814089 24.8380165,3.96814089 C24.0573847,3.96814089 23.3668259,4.32608891 22.9614979,4.71386592 C22.3309877,5.32536044 22.0907933,6.20531598 22.0907933,6.89138301 C22.0907933,7.69676604 22.361012,8.41266207 22.8113764,8.88992609 C23.2617409,9.36719011 23.8922511,9.65056562 24.5978221,9.65056562 Z M23.3518138,5.39993295 C23.3217895,5.39993295 23.2917652,5.37010395 23.2917652,5.34027495 C23.2917652,5.22095894 23.4268745,4.93758343 23.6070203,4.72878042 C23.9372876,4.38574691 24.3125913,4.1769439 24.7029071,4.1769439 C25.0481865,4.1769439 25.3033931,4.3111744 25.4535145,4.46031941 C25.6186482,4.63929342 25.6636846,4.90775443 25.6636846,5.08672844 C25.6636846,5.22095894 25.6336603,5.38501845 25.3033931,5.38501845 L23.3518138,5.39993295 Z M27.5101789,9.57599311 C27.7203489,9.57599311 27.8854826,9.48650611 28.4259199,9.48650611 C29.0564301,9.48650611 29.551831,9.54616411 29.8370619,9.54616411 C30.0622441,9.54616411 30.1973534,9.51633511 30.1973534,9.44176261 C30.1973534,9.36719011 30.1222927,9.3373611 29.9121226,9.3075321 C29.341661,9.2478741 29.1615152,9.1434726 29.1014666,8.68112308 C29.0714423,8.36791857 29.041418,7.59236454 29.041418,6.48869149 C29.041418,6.19040148 29.0264059,5.75788096 29.0564301,5.57890695 C29.0714423,5.39993295 29.146503,5.23587344 29.3116367,5.05689943 C29.5067946,4.87792543 29.746989,4.75860942 29.9721712,4.75860942 C30.1373048,4.75860942 30.3324628,4.83318193 30.4975964,4.93758343 C30.66273,5.02707043 30.7377908,5.04198493 30.7678151,5.04198493 C30.8128515,5.04198493 30.8729001,5.02707043 31.0080094,4.90775443 C31.1881552,4.74369492 31.3382767,4.50506291 31.3382767,4.40066141 C31.3382767,4.32608891 31.3082524,4.2515164 31.2331917,4.1918584 C31.0830702,4.07254239 30.8879122,3.99796989 30.7077665,3.99796989 C30.1072805,3.99796989 29.5067946,4.54980641 29.0864544,5.07181393 C29.041418,5.11655744 29.0113937,5.10164294 29.0113937,5.05689943 C29.0113937,4.81826742 29.0264059,4.2515164 29.0264059,4.0874569 C29.0264059,3.93831189 28.9963816,3.87865389 28.9663573,3.87865389 C28.9213208,3.87865389 28.8462601,3.89356839 28.741175,3.95322639 C28.5009807,4.0874569 28.0806405,4.2366019 27.7803975,4.3111744 C27.6452882,4.35591791 27.5552153,4.41557591 27.5552153,4.44540491 C27.5552153,4.47523391 27.5702275,4.51997741 27.6753125,4.59454992 C27.9605433,4.83318193 28.0656284,4.87792543 28.0656284,4.98232693 L28.0656284,6.6378365 C28.0656284,7.62219354 28.0506162,8.47232007 28.0205919,8.72586658 C27.9605433,9.1285581 27.7954097,9.2627886 27.4801546,9.3373611 C27.3600574,9.36719011 27.2549723,9.44176261 27.2549723,9.48650611 C27.2549723,9.54616411 27.3300331,9.57599311 27.5101789,9.57599311 Z M6.92852348,26.0253314 C8.14450749,26.0253314 8.9551635,25.7121269 9.85589241,25.2050339 C9.93095315,25.1602904 9.97598959,25.0708034 10.0060139,24.9813164 C10.0360382,24.8172569 10.216184,24.0566173 10.216184,23.8030708 C10.216184,23.7135838 10.1861597,23.5793533 10.1261111,23.5793533 C10.0660625,23.5793533 10.0360382,23.6390113 9.97598959,23.8328998 C9.75080737,24.4443943 9.39051581,24.9664019 8.82005417,25.2945209 C8.41472616,25.5480674 7.88930097,25.7121269 7.03360852,25.7121269 C6.23796465,25.7121269 5.20212642,25.3989224 4.46653115,24.6084538 C3.68589943,23.7732418 3.0854135,22.3414498 3.0854135,20.9991447 C3.0854135,19.5673526 3.58081439,18.2399621 4.22633677,17.5389806 C4.84183486,16.9125715 5.71253946,16.3756495 6.83845059,16.3756495 C7.70915519,16.3756495 8.5798598,16.6142815 9.13530928,17.1213746 C9.40552795,17.3301776 9.73579522,17.8074416 9.85589241,18.3145346 C9.8859167,18.4338506 9.93095315,18.5084231 9.99100174,18.5084231 C10.021026,18.5084231 10.0810746,18.4189361 10.0810746,18.2697911 C10.0810746,18.1206461 10.0060139,17.4793226 10.0360382,17.1213746 C10.0510503,17.046802 10.0060139,16.9424005 9.8859167,16.867828 C9.39051581,16.599367 8.15951964,16.1370175 6.94353563,16.1370175 C5.56241798,16.1370175 4.24134892,16.659025 3.44570506,17.3749211 C2.48492756,18.2399621 1.76434444,19.3585496 1.76434444,21.1482897 C1.76434444,22.4309368 2.39485467,23.8030708 3.02536491,24.4443943 C3.9561181,25.3690934 5.12706567,26.0253314 6.92852348,26.0253314 Z M14.7498528,25.9209299 C15.2302415,25.9209299 15.6956181,25.6972124 15.9057882,25.2796064 C15.9658368,25.1453759 15.9057882,25.1006324 15.8157153,25.1453759 C15.6505817,25.2348629 15.5004602,25.2796064 15.380363,25.2796064 C14.9600228,25.2796064 14.8249135,24.9962309 14.8249135,24.7128554 C14.8249135,24.3250783 14.86995,22.9082008 14.86995,22.3563643 C14.86995,21.8940147 14.8099014,21.2825202 14.6597799,20.9991447 C14.4796341,20.5367952 14.0142575,20.2385052 13.5038445,20.2385052 C13.2486379,20.2385052 12.948395,20.3279922 12.6031156,20.5069662 C12.3028726,20.6561112 11.8074717,20.9693157 11.4621923,21.3720072 C11.2820465,21.5808102 11.1769615,21.7150407 11.1769615,21.8194422 C11.1769615,21.8791002 11.2520222,21.9685872 11.3270829,21.9536727 C11.432168,21.9387582 11.8825324,21.7299552 12.0326539,21.6255537 C12.0626782,21.5957247 12.0927025,21.5509812 12.0927025,21.5062377 C12.0927025,21.4018362 12.0927025,21.2825202 12.1077147,21.2228622 C12.137739,21.0588027 12.2278118,20.9544012 12.3328969,20.8649142 C12.5580791,20.7306837 12.7082006,20.6859402 12.9333828,20.6859402 C13.1135286,20.6859402 13.3687351,20.7754272 13.563893,20.9245722 C13.8190996,21.1184607 13.9241846,21.5360667 13.9241846,22.1475613 C13.9241846,22.3563643 13.9241846,22.6546543 13.8941603,22.8336283 C13.8941603,22.8932863 13.8190996,23.0275168 13.6990024,23.0573458 C13.3837473,23.1766618 12.0176418,23.5793533 11.6573502,23.7732418 C11.5222409,23.8478143 11.1169129,24.1461043 11.1169129,24.6233684 C11.1169129,25.3989224 11.7173988,25.9060154 12.3178847,25.9060154 C12.8883464,25.9060154 13.3387108,25.6524689 13.7890753,25.2348629 C13.8040874,25.2199484 13.8491239,25.2199484 13.864136,25.2497774 C13.9992454,25.5928109 14.3295126,25.9209299 14.7498528,25.9209299 Z M12.9784193,25.3392644 C12.5130427,25.3392644 12.0776904,24.9962309 12.0776904,24.5040523 C12.0776904,24.0715318 12.2728483,23.8478143 12.4529941,23.7583273 C12.7682492,23.5942678 13.6389538,23.2810633 13.8341117,23.2512343 C13.864136,23.2363198 13.8941603,23.3108923 13.8941603,23.3258068 C13.8941603,23.8925578 13.864136,24.4891378 13.8190996,24.7426844 C13.8040874,24.9067439 13.7140145,25.0409744 13.6539659,25.1006324 C13.4888323,25.2497774 13.2336258,25.3392644 12.9784193,25.3392644 Z M22.060769,25.8165284 C22.2108905,25.8165284 22.3309877,25.8016139 22.3309877,25.7121269 C22.3309877,25.6524689 22.2409148,25.6226399 22.1058055,25.5629819 C21.7004775,25.4585804 21.655441,25.3690934 21.6404289,24.3549073 C21.6404289,23.6091823 21.6254167,23.4898663 21.6254167,22.6993978 C21.6104046,21.8492712 21.4903074,21.1035462 21.145028,20.7455982 C20.94987,20.5367952 20.5895785,20.2385052 19.9740804,20.2385052 C19.7188739,20.2385052 19.4036188,20.2683342 19.0883636,20.4174792 C18.7580964,20.5517097 18.3978048,20.8052562 18.0225011,21.0886317 C17.9924768,21.1184607 17.9474404,21.0737172 17.9474404,21.0438882 C17.9324282,20.8350852 17.9624525,20.4323937 17.9774647,20.2534197 C17.9924768,20.1788472 17.9174161,20.1191892 17.8723796,20.1341037 C17.6171731,20.2981632 17.0166872,20.5517097 16.6864199,20.6411967 C16.5513106,20.6859402 16.4762498,20.7306837 16.4762498,20.7605127 C16.4762498,20.8052562 16.5062741,20.8350852 16.596347,20.8947432 C16.9566386,21.0886317 16.9866629,21.2526912 16.9866629,21.4018362 C16.9866629,22.6099108 16.9866629,23.9820448 16.9566386,25.0558889 C16.9416264,25.3541789 16.8815778,25.4585804 16.5062741,25.5331529 C16.3261283,25.5629819 16.191019,25.6226399 16.191019,25.6822979 C16.191019,25.7568704 16.3111162,25.7866994 16.4762498,25.7866994 C16.7614806,25.7866994 17.0767358,25.7568704 17.2718937,25.7568704 C17.6171731,25.7568704 18.3527684,25.8165284 18.4728656,25.8165284 C18.622987,25.8165284 18.7731085,25.8165284 18.7731085,25.7270414 C18.7731085,25.6524689 18.6980478,25.6226399 18.517902,25.5778964 C18.2777076,25.5033239 18.0975619,25.4287514 18.0525254,25.1006324 C18.0225011,24.8918294 17.9774647,24.5040523 17.9624525,23.5346098 C17.9624525,22.6397398 17.9474404,21.8791002 17.9474404,21.7001262 C17.9474404,21.5808102 18.0225011,21.3570927 18.1275861,21.2526912 C18.517902,20.9245722 18.9082179,20.7754272 19.2985337,20.7754272 C19.6438131,20.7754272 19.9290439,20.8798287 20.1542262,21.0588027 C20.5295299,21.3421782 20.6346149,21.7001262 20.6346149,22.9082008 L20.6346149,24.9365729 C20.6346149,25.3690934 20.5745663,25.4734949 20.2142748,25.5629819 C20.0191168,25.6077254 19.9290439,25.6673834 19.9290439,25.7270414 C19.9290439,25.7866994 20.034129,25.8165284 20.1692383,25.8165284 C20.3944205,25.8165284 20.5895785,25.7568704 21.0999915,25.7568704 C21.4302588,25.7568704 21.8656111,25.8165284 22.060769,25.8165284 Z M26.5944378,25.9209299 C27.0748266,25.9209299 27.5402032,25.6972124 27.7503732,25.2796064 C27.8104218,25.1453759 27.7503732,25.1006324 27.6603004,25.1453759 C27.4951667,25.2348629 27.3450452,25.2796064 27.224948,25.2796064 C26.8046079,25.2796064 26.6694986,24.9962309 26.6694986,24.7128554 C26.6694986,24.3250783 26.714535,22.9082008 26.714535,22.3563643 C26.714535,21.8940147 26.6544864,21.2825202 26.5043649,20.9991447 C26.3242191,20.5367952 25.8588425,20.2385052 25.3484295,20.2385052 C25.093223,20.2385052 24.79298,20.3279922 24.4477006,20.5069662 C24.1474576,20.6561112 23.6520567,20.9693157 23.3067773,21.3720072 C23.1266315,21.5808102 23.0215465,21.7150407 23.0215465,21.8194422 C23.0215465,21.8791002 23.0966073,21.9685872 23.171668,21.9536727 C23.276753,21.9387582 23.7271175,21.7299552 23.877239,21.6255537 C23.9072633,21.5957247 23.9372876,21.5509812 23.9372876,21.5062377 C23.9372876,21.4018362 23.9372876,21.2825202 23.9522997,21.2228622 C23.982324,21.0588027 24.0723969,20.9544012 24.1774819,20.8649142 C24.4026642,20.7306837 24.5527856,20.6859402 24.7779679,20.6859402 C24.9581136,20.6859402 25.2133202,20.7754272 25.4084781,20.9245722 C25.6636846,21.1184607 25.7687697,21.5360667 25.7687697,22.1475613 C25.7687697,22.3563643 25.7687697,22.6546543 25.7387454,22.8336283 C25.7387454,22.8932863 25.6636846,23.0275168 25.5435874,23.0573458 C25.2283323,23.1766618 23.8622268,23.5793533 23.5019353,23.7732418 C23.3668259,23.8478143 22.9614979,24.1461043 22.9614979,24.6233684 C22.9614979,25.3989224 23.5619839,25.9060154 24.1624698,25.9060154 C24.7329314,25.9060154 25.1832959,25.6524689 25.6336603,25.2348629 C25.6486725,25.2199484 25.6937089,25.2199484 25.7087211,25.2497774 C25.8438304,25.5928109 26.1740977,25.9209299 26.5944378,25.9209299 Z M24.8230043,25.3392644 C24.3576277,25.3392644 23.9222754,24.9962309 23.9222754,24.5040523 C23.9222754,24.0715318 24.1174333,23.8478143 24.2975791,23.7583273 C24.6128342,23.5942678 25.4835388,23.2810633 25.6786968,23.2512343 C25.7087211,23.2363198 25.7387454,23.3108923 25.7387454,23.3258068 C25.7387454,23.8925578 25.7087211,24.4891378 25.6636846,24.7426844 C25.6486725,24.9067439 25.5585996,25.0409744 25.498551,25.1006324 C25.3334174,25.2497774 25.0782108,25.3392644 24.8230043,25.3392644 Z M30.3024385,25.7866994 C30.4975964,25.7866994 30.6026814,25.7419559 30.6026814,25.6822979 C30.6026814,25.6375544 30.4975964,25.5928109 30.4075235,25.5778964 C29.9871833,25.5033239 29.8971105,25.3989224 29.8820983,24.9962309 C29.8697354,24.7628628 29.8573724,24.246274 29.853394,23.0216336 L29.8532555,19.9869007 C29.8616651,17.9016929 29.9121226,15.7256259 29.9121226,15.6299245 C29.9121226,15.555352 29.8971105,15.465865 29.8670862,15.465865 C29.8070376,15.465865 29.7319768,15.495694 29.6869404,15.5106085 C29.3566731,15.6299245 28.9963816,15.764155 28.5610293,15.853642 C28.4259199,15.883471 28.335847,15.9282145 28.335847,15.972958 C28.335847,16.0177015 28.3808835,16.0475305 28.4859685,16.1071885 C28.8762844,16.3458205 28.9063087,16.420393 28.9063087,16.748512 C28.9213208,17.4047501 28.9063087,18.6277391 28.9063087,19.8358137 C28.8912965,21.6255537 28.8312479,24.1461043 28.8012236,24.6979409 C28.741175,25.3541789 28.6511021,25.4884094 28.2757984,25.5629819 C28.0806405,25.6077254 28.0055798,25.6226399 28.0055798,25.6972124 C28.0055798,25.7717849 28.0806405,25.7866994 28.2607863,25.7866994 C28.4859685,25.7866994 28.8762844,25.7568704 29.2666002,25.7568704 C29.5218067,25.7568704 30.0622441,25.7866994 30.3024385,25.7866994 Z" transform="translate(60.87 75.658)"/>
      <path fill="#333838" d="M6.93314842,10.840566 C8.14913243,10.840566 8.95978844,10.5273615 9.86051734,10.0202685 C9.93557809,9.97552498 9.98061453,9.88603798 10.0106388,9.79655098 C10.0406631,9.63249147 10.2208089,8.87185194 10.2208089,8.61830543 C10.2208089,8.52881843 10.1907846,8.39458792 10.130736,8.39458792 C10.0706874,8.39458792 10.0406631,8.45424592 9.98061453,8.64813443 C9.75543231,9.25962896 9.39514074,9.78163648 8.82467911,10.1097555 C8.4193511,10.363302 7.89392591,10.5273615 7.03823345,10.5273615 C6.24258959,10.5273615 5.20675135,10.214157 4.47115609,9.42368846 C3.69052437,8.58847643 3.09003844,7.15668437 3.09003844,5.81437932 C3.09003844,4.38258726 3.58543933,3.05519671 4.23096171,2.35421518 C4.84645979,1.72780615 5.7171644,1.19088413 6.84307553,1.19088413 C7.71378013,1.19088413 8.58448473,1.42951614 9.13993422,1.93660916 C9.41015289,2.14541217 9.74042016,2.62267619 9.86051734,3.12976921 C9.89054164,3.24908522 9.93557809,3.32365772 9.99562668,3.32365772 C10.025651,3.32365772 10.0856996,3.23417071 10.0856996,3.08502571 C10.0856996,2.9358807 10.0106388,2.29455718 10.0406631,1.93660916 C10.0556753,1.86203666 10.0106388,1.75763516 9.89054164,1.68306265 C9.39514074,1.41460164 8.16414458,0.952252124 6.94816056,0.952252124 C5.56704292,0.952252124 4.24597386,1.47425964 3.45033,2.19015567 C2.4895525,3.05519671 1.76896938,4.17378425 1.76896938,5.96352432 C1.76896938,7.24617137 2.39947961,8.61830543 3.02998984,9.25962896 C3.96074304,10.184328 5.13169061,10.840566 6.93314842,10.840566 Z M13.1331657,10.601934 C13.3283236,10.601934 13.4334087,10.5571905 13.4334087,10.4975325 C13.4334087,10.452789 13.3283236,10.4080455 13.2382507,10.393131 C12.8179106,10.3185585 12.7278377,10.214157 12.7128255,9.81146548 C12.7004626,9.57809741 12.6880996,9.06150865 12.6841213,7.83686817 L12.6839827,4.80213527 C12.6923923,2.71692755 12.7428498,0.540860483 12.7428498,0.445159104 C12.7428498,0.370586601 12.7278377,0.281099597 12.6978134,0.281099597 C12.6377648,0.281099597 12.562704,0.310928598 12.5176676,0.325843099 C12.1874003,0.445159104 11.8271088,0.579389609 11.3917565,0.668876613 C11.2566471,0.698705614 11.1665743,0.743449116 11.1665743,0.788192617 C11.1665743,0.832936119 11.2116107,0.86276512 11.3166957,0.922423123 C11.7070116,1.16105513 11.7370359,1.23562764 11.7370359,1.56374665 C11.752048,2.21998467 11.7370359,3.44297372 11.7370359,4.65104827 C11.7220237,6.44078834 11.6619751,8.96133894 11.6319508,9.51317547 C11.5719023,10.1694135 11.4818294,10.303644 11.1065257,10.3782165 C10.9113677,10.42296 10.836307,10.4378745 10.836307,10.512447 C10.836307,10.5870195 10.9113677,10.601934 11.0915135,10.601934 C11.3166957,10.601934 11.7070116,10.572105 12.0973274,10.572105 C12.352534,10.572105 12.8929713,10.601934 13.1331657,10.601934 Z M17.0813607,10.751079 C17.621798,10.751079 18.3123569,10.542276 18.7777335,10.184328 C19.2581222,9.81146548 19.9336689,9.00608245 19.9336689,7.8725804 C19.9336689,6.29164334 18.6876606,5.05373979 17.0513364,5.05373979 C16.3307533,5.05373979 15.6552066,5.3669443 15.2498786,5.68014881 C14.6944291,6.12758383 14.1690039,6.85839436 14.1690039,7.9918964 C14.1690039,9.54300447 15.5351094,10.751079 17.0813607,10.751079 Z M17.2915308,10.4975325 C16.8261542,10.4975325 16.2857168,10.2589005 15.8803888,9.70706397 C15.4000001,9.08065495 15.2498786,8.29018642 15.2498786,7.66377739 C15.2498786,6.11266933 16.0605346,5.3072863 16.8261542,5.3072863 C18.1472232,5.3072863 18.8678064,6.70924935 18.8678064,8.12612691 C18.8678064,9.19997095 18.4624783,9.91586698 18.2372961,10.12467 C17.9971018,10.333473 17.6518223,10.4975325 17.2915308,10.4975325 Z M22.275564,10.751079 C22.6358556,10.751079 23.1462686,10.631763 23.4765359,10.42296 C23.7767789,10.2290715 24.2571676,9.82637998 24.2571676,9.17014195 C24.2571676,8.40950242 23.8668518,8.03663991 22.8910621,7.41023088 C22.5157584,7.18651337 21.9452968,6.82856536 21.9452968,6.20215633 C21.9452968,5.60557631 22.3656369,5.2774573 22.8460257,5.2774573 C23.1312565,5.2774573 23.386463,5.3818588 23.5515966,5.50117481 C23.7767789,5.68014881 23.8368275,5.88895182 23.9118882,6.11266933 C23.9569246,6.21707083 23.9869489,6.29164334 24.0469975,6.29164334 C24.092034,6.29164334 24.1220583,6.21707083 24.1220583,6.05301133 C24.1070461,5.81437932 24.0469975,5.51608931 24.0319854,5.3520298 C24.0319854,5.3072863 23.9869489,5.2476283 23.9569246,5.21779929 C23.7767789,5.15814129 23.3414266,5.05373979 22.9360986,5.05373979 C22.3656369,5.05373979 21.9452968,5.2476283 21.6750781,5.4713458 C21.3448108,5.70997781 21.1046165,6.11266933 21.1046165,6.64959135 C21.1046165,7.30582938 21.7051024,7.8576659 22.3506248,8.27527192 C22.9511107,8.64813443 23.3414266,8.96133894 23.3414266,9.52808997 C23.3414266,10.1395845 22.7859771,10.5273615 22.3656369,10.5273615 C22.1404547,10.5273615 21.9152725,10.4975325 21.6900902,10.3483875 C21.4198716,10.184328 21.1796772,9.91586698 21.05958,9.54300447 C20.954495,9.25962896 20.9094585,9.25962896 20.8644221,9.25962896 C20.8343978,9.25962896 20.7893613,9.30437246 20.8193856,9.49826096 C20.8343978,9.66232047 20.8644221,10.035183 20.8644221,10.243986 C20.8644221,10.333473 20.9695071,10.4378745 21.0896043,10.482618 C21.5399688,10.661592 21.8852482,10.751079 22.275564,10.751079 Z M27.6949496,10.7361645 C28.550642,10.7361645 29.1811523,10.4378745 29.7816382,9.79655098 C29.8717111,9.69214947 29.9317597,9.60266247 29.9317597,9.55791897 C29.9317597,9.48334646 29.8717111,9.45351746 29.7516139,9.57283347 C29.3913223,9.91586698 28.9409579,10.0500975 28.3254598,10.0500975 C27.8300589,10.0500975 27.229573,9.88603798 26.824245,9.43860296 C26.4339291,9.00608245 26.1336862,8.39458792 26.1336862,7.63394839 C26.1336862,7.21634237 26.1787226,6.99262486 26.2537833,6.81365086 C26.2838076,6.76890736 26.3588684,6.69433485 26.3888927,6.69433485 L27.1995487,6.69433485 C27.5448281,6.69433485 29.4964074,6.72416385 29.6165046,6.73907835 C29.6915653,6.73907835 29.7666261,6.64959135 29.7666261,6.57501885 C29.7666261,5.66523431 28.8208607,5.05373979 27.935144,5.05373979 C27.1545122,5.05373979 26.4639534,5.4116878 26.0586254,5.79946482 C25.4281152,6.41095934 25.1879208,7.29091488 25.1879208,7.9769819 C25.1879208,8.78236494 25.4581395,9.49826096 25.9085039,9.97552498 C26.3588684,10.452789 26.9893786,10.7361645 27.6949496,10.7361645 Z M26.4489413,6.48553184 C26.418917,6.48553184 26.3888927,6.45570284 26.3888927,6.42587384 C26.3888927,6.30655784 26.524002,6.02318233 26.7041478,5.81437932 C27.0344151,5.4713458 27.4097188,5.2625428 27.8000346,5.2625428 C28.145314,5.2625428 28.4005206,5.3967733 28.550642,5.54591831 C28.7157757,5.72489231 28.7608121,5.99335332 28.7608121,6.17232733 C28.7608121,6.30655784 28.7307878,6.47061734 28.4005206,6.47061734 L26.4489413,6.48553184 Z M34.9007808,10.7063355 C35.3211209,10.7063355 35.7864975,10.572105 36.1167648,10.3185585 C36.3119227,10.1694135 36.4470321,10.0202685 36.4470321,9.93078148 C36.4470321,9.87112348 36.4019956,9.85620898 36.2969106,9.93078148 C36.1618013,10.0202685 35.8915826,10.154499 35.4712424,10.154499 C35.0809266,10.154499 34.7656715,10.035183 34.5404892,9.75180747 C34.4354042,9.60266247 34.4053799,9.42368846 34.3753556,8.94642444 C34.3603435,8.48407492 34.3453313,6.14249833 34.3453313,5.88895182 C34.3453313,5.79946482 34.3753556,5.75472132 34.5555014,5.75472132 C34.9608294,5.75472132 35.6964247,5.76963582 36.2218499,5.76963582 C36.2969106,5.76963582 36.3719713,5.65031981 36.3719713,5.3967733 C36.3719713,5.2923718 36.3119227,5.18797029 36.2818984,5.18797029 C35.9666433,5.18797029 34.720635,5.23271379 34.4504163,5.23271379 C34.3903678,5.23271379 34.3753556,5.14322679 34.3753556,5.09848329 C34.3603435,4.91950928 34.3903678,4.50190327 34.3903678,4.36767276 C34.3903678,4.29310026 34.2852827,4.26327126 34.1501734,4.41241626 C33.7898818,4.87476578 33.2944809,5.2774573 32.9191772,5.4116878 C32.7540436,5.4862603 32.7390314,5.53100381 32.7390314,5.56083281 C32.7390314,5.62049081 32.8140922,5.66523431 32.9341894,5.69506331 C33.0692987,5.72489231 33.2344323,5.75472132 33.2944809,5.78455032 C33.3545295,5.81437932 33.3695417,5.91878082 33.3695417,6.08284033 L33.3695417,9.17014195 C33.3695417,9.52808997 33.4295903,9.82637998 33.5496874,10.0202685 C33.804894,10.4975325 34.2702706,10.7063355 34.9007808,10.7063355 Z M39.7046683,10.751079 C40.2451056,10.751079 40.9356644,10.542276 41.401041,10.184328 C41.8814298,9.81146548 42.5569765,9.00608245 42.5569765,7.8725804 C42.5569765,6.29164334 41.3109681,5.05373979 39.674644,5.05373979 C38.9540609,5.05373979 38.2785142,5.3669443 37.8731862,5.68014881 C37.3177367,6.12758383 36.7923115,6.85839436 36.7923115,7.9918964 C36.7923115,9.54300447 38.158417,10.751079 39.7046683,10.751079 Z M39.9148383,10.4975325 C39.4494617,10.4975325 38.9090244,10.2589005 38.5036964,9.70706397 C38.0233077,9.08065495 37.8731862,8.29018642 37.8731862,7.66377739 C37.8731862,6.11266933 38.6838422,5.3072863 39.4494617,5.3072863 C40.7705308,5.3072863 41.4911139,6.70924935 41.4911139,8.12612691 C41.4911139,9.19997095 41.0857859,9.91586698 40.8606037,10.12467 C40.6204093,10.333473 40.2751299,10.4975325 39.9148383,10.4975325 Z M4.36607105,27.0214433 C4.80142335,27.0214433 5.20675135,26.9021273 5.55203077,26.6784098 C6.30263818,26.1862313 7.0832699,24.9334132 7.0832699,22.3382901 C7.0832699,20.638037 6.45275967,17.9235979 4.41110749,17.9235979 C4.03580378,17.9235979 3.72054867,17.9981704 3.40529355,18.1622299 C2.20432168,18.848297 1.5888236,20.280089 1.5888236,22.6216656 C1.5888236,24.3517477 2.32441887,27.0214433 4.36607105,27.0214433 Z M4.45614394,26.8126403 C3.54040289,26.8126403 3.22514777,24.5008927 3.22514777,22.0698291 C3.22514777,20.071286 3.52539074,19.0720145 3.79560941,18.520178 C3.9157066,18.281546 4.11086453,18.1473154 4.29101031,18.1473154 C5.08665417,18.1473154 5.47697003,20.4143195 5.47697003,22.6962381 C5.47697003,24.1876882 5.2818121,25.5001642 5.10166632,26.0818298 C4.89149624,26.7231533 4.66631401,26.8126403 4.45614394,26.8126403 Z M9.00482489,27.0363578 C9.36511645,27.0363578 9.8154809,26.7231533 9.8154809,26.1564023 C9.8154809,25.7387962 9.51523793,25.3211902 9.01983704,25.3211902 C8.56947259,25.3211902 8.19416888,25.6940527 8.19416888,26.1713168 C8.19416888,26.6187518 8.53944829,27.0363578 9.00482489,27.0363578 Z M15.3099272,26.9170418 C15.5050851,26.9170418 15.595158,26.8722983 15.595158,26.8126403 C15.595158,26.7529823 15.5200973,26.6933243 15.3549636,26.6634953 C14.7244534,26.5590938 14.6493927,26.4696068 14.6043562,25.5449077 C14.5743319,24.9035842 14.5443076,21.7715391 14.5593198,20.518721 C14.5893441,19.5492785 14.6043562,18.2218879 14.6043562,18.0279994 C14.6043562,17.9385124 14.5743319,17.9235979 14.5443076,17.9235979 C14.4692469,17.9235979 14.3491497,17.9832559 14.2140404,18.0279994 C13.7937002,18.2069734 12.9680321,18.3262895 12.3074975,18.4157765 C12.1874003,18.430691 12.0973274,18.4754345 12.0973274,18.520178 C12.0973274,18.579836 12.2324368,18.6245795 12.3225097,18.639494 C12.4726312,18.669323 12.5777162,18.6842375 12.6978134,18.728981 C12.8179106,18.788639 12.8779592,18.8930405 12.8929713,19.0571 C12.9229956,19.4299625 12.9380078,19.922141 12.9380078,21.7267956 C12.9380078,24.2771752 12.9079835,25.0825582 12.862947,25.5449077 C12.8329227,26.4248633 12.6978134,26.5590938 11.9922424,26.6784098 C11.8421209,26.7082388 11.752048,26.7380678 11.752048,26.7977258 C11.752048,26.8872128 11.8721452,26.9170418 12.0072546,26.9170418 C12.5326798,26.9170418 12.8179106,26.8424693 13.5535058,26.8424693 C14.078931,26.8424693 14.5443076,26.9170418 15.3099272,26.9170418 Z M30.5022213,26.9319563 C30.667355,26.9319563 30.77244,26.8872128 30.77244,26.8275548 C30.77244,26.7529823 30.667355,26.7082388 30.5322456,26.6634953 C29.9167475,26.4845213 29.7666261,26.3055473 29.7065775,25.4554207 L29.6924505,25.2020996 C29.6605313,24.5985197 29.6100371,23.4374954 29.6024577,22.1542916 L29.6023031,21.0063506 C29.6041946,20.270842 29.6104997,19.4001335 29.6315167,18.9825275 C29.6765532,18.1622299 29.7065775,17.9683414 30.5772821,17.7893674 C30.6823671,17.7744529 30.8174764,17.7147949 30.8174764,17.6402224 C30.8174764,17.5805644 30.7424157,17.5358209 30.5472578,17.5358209 C29.6315167,17.5358209 29.1811523,17.6253079 28.5056056,17.6253079 C28.4305449,17.6253079 28.3254598,17.8191964 28.3254598,17.8490254 C28.2353869,18.1473154 28.1002776,18.490349 27.8600832,19.0571 C27.529816,19.7879105 25.7283582,23.4717922 25.308018,24.2175172 C25.2779937,24.2771752 25.2329573,24.3219187 25.202933,24.2324317 C24.6775078,23.2779037 22.5607948,19.0123565 22.0503818,17.8191964 C22.0053454,17.7297094 21.9302846,17.6253079 21.870236,17.6253079 C21.05958,17.6253079 20.0837904,17.5507354 19.5133287,17.5358209 C19.4232558,17.5358209 19.2581222,17.5656499 19.2581222,17.6402224 C19.2581222,17.7297094 19.3932315,17.7744529 19.4983166,17.8042819 C19.7835474,17.8639399 20.0237418,17.9086834 20.2789483,18.1622299 C20.5641791,18.46052 20.6092156,18.6544085 20.6092156,19.5492785 C20.6092156,20.6827805 20.4140576,23.7253387 20.3239847,24.5754652 C20.2188997,25.6343947 20.143839,25.9774283 19.9787053,26.2160603 C19.8285838,26.4397778 19.6034016,26.5292648 19.1680493,26.6485808 C18.9578792,26.7082388 18.9128428,26.7678968 18.9128428,26.8126403 C18.9128428,26.8872128 18.9728914,26.9170418 19.1980736,26.9170418 C19.3782194,26.9170418 19.7985596,26.8424693 20.2789483,26.8424693 C20.7893613,26.8424693 21.3147865,26.9170418 21.5850052,26.9021273 C21.7351267,26.9170418 21.870236,26.8872128 21.870236,26.7828113 C21.870236,26.7231533 21.7801631,26.6634953 21.6300417,26.6336663 C21.1796772,26.5441793 20.8944464,26.3204618 20.8343978,25.9774283 C20.7949909,25.7686252 20.7785714,25.594079 20.7750822,25.154043 L20.7743492,24.9483277 C20.7743492,23.9192272 20.9094585,20.369576 20.9695071,19.743167 C20.9995314,19.534364 21.0295557,19.534364 21.0896043,19.6685945 C21.4799202,20.429234 23.6566817,25.2018742 24.197119,26.4845213 C24.2721798,26.6485808 24.3472405,26.8722983 24.4373134,26.8722983 C24.5273863,26.8722983 24.5874349,26.7678968 24.7075321,26.5292648 C25.2930058,25.1273017 26.9143179,21.7864536 27.9051197,19.743167 C27.935144,19.623851 27.9801804,19.7282525 27.9801804,19.7879105 C27.9801804,20.608208 27.9651683,24.2175172 27.9201318,24.9930712 C27.8750954,26.1414878 27.7850225,26.4696068 27.1695244,26.6038373 C27.0644394,26.6336663 26.9143179,26.7082388 26.9143179,26.7678968 C26.9143179,26.8722983 27.0794515,26.8872128 27.1845365,26.8872128 C27.3947066,26.8872128 28.1303019,26.8424693 28.7157757,26.8424693 C29.3012495,26.8424693 29.961784,26.9319563 30.5022213,26.9319563 Z M32.8140922,20.1160295 C33.1443594,20.1160295 33.5496874,19.892312 33.5496874,19.3703045 C33.5496874,19.027271 33.2644566,18.669323 32.8891529,18.669323 C32.5738978,18.669323 32.1835819,18.907955 32.1835819,19.4299625 C32.1835819,19.8177395 32.4988371,20.1160295 32.8140922,20.1160295 Z M33.909979,26.9170418 C34.0300762,26.9170418 34.1351612,26.8872128 34.1351612,26.8126403 C34.1351612,26.7529823 34.0901248,26.7082388 33.9249912,26.6634953 C33.6247482,26.5889228 33.5496874,26.4546923 33.5196631,26.2011458 C33.4990214,26.04734 33.4925709,25.4353211 33.4905551,24.5250232 L33.490108,22.6279577 C33.4915154,22.13508 33.4971449,21.6484945 33.5196631,21.4135911 C33.5346753,21.2495316 33.504651,21.2047881 33.4596146,21.2047881 C33.4145781,21.2047881 33.3545295,21.2495316 33.2344323,21.2942751 C32.7090071,21.5030781 32.4387885,21.6074796 31.7632418,21.7417101 C31.5981082,21.7864536 31.5530717,21.8311971 31.5530717,21.8610261 C31.5530717,21.9206841 31.5981082,21.9654276 31.6731689,22.0250856 C32.0634848,22.2935466 32.0634848,22.3532046 32.0634848,22.6365801 C32.0634848,22.7857251 32.0184483,25.3808482 32.0184483,25.8282833 C32.0184483,26.3502908 31.9133633,26.5441793 31.5230474,26.6336663 C31.3429016,26.6634953 31.2528287,26.6933243 31.2528287,26.7678968 C31.2528287,26.8275548 31.3729259,26.8722983 31.5080353,26.8722983 C31.6731689,26.8722983 32.0184483,26.8424693 32.6789828,26.8424693 C33.3094931,26.8424693 33.6547725,26.9170418 33.909979,26.9170418 Z M37.3027245,26.8872128 C37.452846,26.8872128 37.6029675,26.8424693 37.6029675,26.7828113 C37.6029675,26.7082388 37.4978825,26.6634953 37.4078096,26.6485808 C37.0174937,26.5590938 36.9274208,26.4994358 36.9124087,26.0221718 C36.8998986,25.7984543 36.8873884,25.3468763 36.8835659,24.0805247 L36.883203,21.4385587 C36.889302,19.091463 36.9274208,16.9756323 36.9274208,16.8795829 C36.9274208,16.8050104 36.8973965,16.7155234 36.8673722,16.7155234 C36.8073236,16.7155234 36.7322629,16.7453524 36.6572022,16.7751814 C36.341947,16.8795829 35.7564733,17.1033004 35.1409752,17.1927874 C35.0058658,17.2226164 34.9157929,17.2673599 34.9157929,17.3121034 C34.9157929,17.3568469 34.9608294,17.4165049 35.0659144,17.4761629 C35.4111938,17.6551369 35.4862546,17.7595384 35.4862546,18.1025719 C35.5012667,18.609665 35.4862546,20.190602 35.4862546,21.0108996 C35.4712424,22.4426916 35.4111938,25.2167887 35.3811695,25.8282833 C35.3511452,26.4696068 35.2610724,26.5590938 34.8557443,26.6336663 C34.7356472,26.6634953 34.6305621,26.6933243 34.6305621,26.7678968 C34.6305621,26.8424693 34.7506593,26.8722983 34.9007808,26.8722983 C35.3061088,26.8722983 35.6213639,26.8424693 36.0266919,26.8424693 C36.2518741,26.8424693 36.8523601,26.8872128 37.3027245,26.8872128 Z M40.890628,27.0214433 C41.8664176,27.0214433 42.6320372,26.5441793 43.0974138,25.8879413 C43.1724745,25.7835398 43.2024988,25.7387962 43.2024988,25.6642237 C43.2024988,25.5896512 43.1424502,25.5598222 43.0373652,25.6791382 C42.6620615,26.0370863 42.1966849,26.1265733 41.6412354,26.1265733 C41.2659317,26.1265733 40.6954701,25.9475993 40.3351785,25.5449077 C39.9298505,25.1123872 39.674644,24.5605507 39.674644,23.7849967 C39.674644,23.5612792 39.7046683,23.3077327 39.7497047,23.1735021 C39.779729,23.1287586 39.8397776,23.0541861 39.884814,23.0541861 L40.4252514,23.0541861 C40.8305794,23.0541861 42.6920858,23.0840151 42.8572194,23.0989296 C42.9322802,23.0989296 43.0373652,22.9945281 43.0373652,22.8901266 C43.0373652,22.0400001 42.2417213,21.2793606 41.1458345,21.2793606 C40.3501906,21.2793606 39.7196804,21.6074796 39.3143524,21.9505131 C38.6388057,22.5172641 38.3085385,23.4270487 38.3085385,24.2324317 C38.3085385,25.0079857 38.563745,25.7537107 39.0291216,26.2458893 C39.4944982,26.7380678 40.1250084,27.0214433 40.890628,27.0214433 Z M39.8998262,22.8304686 C39.8547898,22.8304686 39.8247655,22.7708106 39.8247655,22.7409816 C39.8247655,22.5918366 39.9748869,22.2189741 40.1550327,21.9803421 C40.4102392,21.6969666 40.6654458,21.4881636 40.995713,21.4881636 C41.2509195,21.4881636 41.4460775,21.6223941 41.5511625,21.7417101 C41.701284,21.9505131 41.7613326,22.1742306 41.7613326,22.4576061 C41.7613326,22.5918366 41.7313083,22.8155541 41.3259803,22.8155541 L39.8998262,22.8304686 Z M6.79803908,43.3067221 C6.84307553,43.3067221 6.90312412,43.2470641 6.99319701,43.0233466 C7.17334279,42.5460826 7.44356146,41.87493 7.69876798,41.27835 C8.16414458,40.2194205 8.61450903,39.1903199 8.8847277,38.6533979 C9.07988563,38.2507064 9.26003141,38.0419034 9.53025008,37.9673309 C9.75543231,37.9076729 9.80046875,37.8629294 9.80046875,37.8032714 C9.80046875,37.7436134 9.72540801,37.7286989 9.59029867,37.7286989 C9.36511645,37.7286989 8.98981274,37.7734424 8.83969126,37.7734424 C8.59949688,37.7734424 8.32927821,37.7286989 8.07407169,37.7286989 C7.96898665,37.7286989 7.87891376,37.7585279 7.87891376,37.8181859 C7.87891376,37.8629294 7.92395021,37.9076729 8.11910814,37.9673309 C8.50942399,38.0717324 8.56947259,38.2059629 8.56947259,38.3401934 C8.56947259,38.4445949 8.46438755,38.7130559 8.32927821,39.0560894 C8.14913243,39.5631824 7.42854931,41.2634355 7.24840353,41.636298 C7.24840353,41.666127 7.21837923,41.725785 7.17334279,41.6512125 C6.96317271,41.188863 6.16752885,39.0262604 6.00239522,38.5639109 C5.82224944,38.1015614 5.91232233,38.0419034 6.25760174,37.9673309 C6.37769893,37.9375019 6.48278396,37.8778439 6.48278396,37.8181859 C6.48278396,37.7734424 6.42273537,37.7436134 6.25760174,37.7436134 C5.98738307,37.7436134 5.80723729,37.7734424 5.37188499,37.7734424 C5.05662987,37.7734424 4.66631401,37.7137844 4.3510589,37.7137844 C4.20093742,37.7137844 4.12587667,37.7585279 4.12587667,37.8181859 C4.12587667,37.8778439 4.20093742,37.9076729 4.33604675,37.9375019 C4.65130187,38.0120744 4.7864112,38.1761339 4.90650839,38.4296804 L5.16171491,39.0411749 C5.19173921,39.1157474 5.14670276,39.2201489 5.13169061,39.2947214 C4.98156913,39.6824984 4.3210346,41.129205 4.08084023,41.636298 C4.06582808,41.6810415 4.00577949,41.666127 3.99076734,41.6213835 C3.64548793,40.7861715 2.99996555,39.0859184 2.77478332,38.3998514 C2.71473473,38.1612194 2.69972258,38.0269889 3.06001414,37.9673309 C3.16509918,37.9524164 3.31522066,37.8927584 3.31522066,37.8480149 C3.31522066,37.7734424 3.19512348,37.7286989 3.06001414,37.7286989 C2.75977117,37.7286989 2.45952821,37.7734424 2.18930954,37.7734424 C1.76896938,37.7734424 1.31860493,37.7137844 1.123447,37.7137844 C0.958313371,37.7137844 0.853228333,37.7436134 0.853228333,37.8181859 C0.853228333,37.8778439 0.943301223,37.9225874 1.06339841,37.9524164 C1.43870212,38.0419034 1.6188479,38.2507064 1.72393294,38.5340819 C1.88906657,38.8025429 2.74475903,41.009889 3.0149777,41.755614 C3.27018422,42.4565956 3.36025711,42.8294581 3.43531785,43.0382611 C3.48035429,43.2023206 3.52539074,43.3067221 3.58543933,43.3067221 C3.64548793,43.3067221 3.72054867,43.2172351 3.79560941,43.0233466 C3.96074304,42.5759116 4.09585238,42.2477925 4.3210346,41.755614 C4.53120468,41.2336065 5.16171491,39.8465579 5.29682424,39.5780969 C5.32684854,39.5035244 5.35687284,39.5333534 5.37188499,39.5780969 L6.27261389,42.0091605 L6.63290545,43.0382611 C6.69295404,43.2470641 6.73799049,43.3067221 6.79803908,43.3067221 Z M13.6135544,43.2768931 C14.0939432,43.2768931 14.5593198,43.0531756 14.7694899,42.6355696 C14.8295384,42.5013391 14.7694899,42.4565956 14.679417,42.5013391 C14.5142833,42.5908261 14.3641618,42.6355696 14.2440647,42.6355696 C13.8237245,42.6355696 13.6886152,42.352194 13.6886152,42.0688185 C13.6886152,41.6810415 13.7336516,40.264164 13.7336516,39.7123274 C13.7336516,39.2499779 13.673603,38.6384834 13.5234815,38.3551079 C13.3433358,37.8927584 12.8779592,37.5944684 12.3675461,37.5944684 C12.1123396,37.5944684 11.8120966,37.6839554 11.4668172,37.8629294 C11.1665743,38.0120744 10.6711734,38.3252789 10.3258939,38.7279704 C10.1457482,38.9367734 10.0406631,39.0710039 10.0406631,39.1754054 C10.0406631,39.2350634 10.1157239,39.3245504 10.1907846,39.3096359 C10.2958696,39.2947214 10.7462341,39.0859184 10.8963556,38.9815169 C10.9263799,38.9516879 10.9564042,38.9069444 10.9564042,38.8622009 C10.9564042,38.7577994 10.9564042,38.6384834 10.9714163,38.5788254 C11.0014406,38.4147659 11.0915135,38.3103644 11.1965985,38.2208774 C11.4217808,38.0866469 11.5719023,38.0419034 11.7970845,38.0419034 C11.9772303,38.0419034 12.2324368,38.1313904 12.4275947,38.2805354 C12.6828012,38.4744239 12.7878863,38.8920299 12.7878863,39.5035244 C12.7878863,39.7123274 12.7878863,40.0106175 12.757862,40.1895915 C12.757862,40.2492495 12.6828012,40.38348 12.562704,40.413309 C12.2474489,40.532625 10.8813434,40.9353165 10.5210519,41.129205 C10.3859425,41.2037775 9.98061453,41.5020675 9.98061453,41.9793315 C9.98061453,42.7548856 10.5811005,43.2619786 11.1815864,43.2619786 C11.752048,43.2619786 12.2024125,43.0084321 12.6527769,42.5908261 C12.6677891,42.5759116 12.7128255,42.5759116 12.7278377,42.6057406 C12.862947,42.9487741 13.1932143,43.2768931 13.6135544,43.2768931 Z M11.8421209,42.6952276 C11.3767443,42.6952276 10.941392,42.352194 10.941392,41.8600155 C10.941392,41.427495 11.13655,41.2037775 11.3166957,41.1142905 C11.6319508,40.950231 12.5026555,40.6370265 12.6978134,40.6071975 C12.7278377,40.592283 12.757862,40.6668555 12.757862,40.68177 C12.757862,41.248521 12.7278377,41.845101 12.6828012,42.0986475 C12.6677891,42.262707 12.5777162,42.3969375 12.5176676,42.4565956 C12.352534,42.6057406 12.0973274,42.6952276 11.8421209,42.6952276 Z M17.3215551,43.1426626 C17.516713,43.1426626 17.621798,43.0979191 17.621798,43.0382611 C17.621798,42.9935176 17.516713,42.9487741 17.4266401,42.9338596 C17.0063,42.8592871 16.9162271,42.7548856 16.9012149,42.352194 C16.888852,42.118826 16.876489,41.6022372 16.8725106,40.3775967 L16.8723721,37.3428638 C16.8807817,35.2576561 16.9312392,33.0815891 16.9312392,32.9858877 C16.9312392,32.9113152 16.9162271,32.8218282 16.8862028,32.8218282 C16.8261542,32.8218282 16.7510934,32.8516572 16.706057,32.8665717 C16.3757897,32.9858877 16.0154982,33.1201182 15.5801459,33.2096052 C15.4450365,33.2394342 15.3549636,33.2841777 15.3549636,33.3289212 C15.3549636,33.3736647 15.4000001,33.4034937 15.5050851,33.4631517 C15.895401,33.7017837 15.9254253,33.7763562 15.9254253,34.1044752 C15.9404374,34.7607132 15.9254253,35.9837023 15.9254253,37.1917768 C15.9104131,38.9815169 15.8503645,41.5020675 15.8203402,42.053904 C15.7602916,42.7101421 15.6702188,42.8443726 15.294915,42.9189451 C15.0997571,42.9636886 15.0246964,42.9786031 15.0246964,43.0531756 C15.0246964,43.1277481 15.0997571,43.1426626 15.2799029,43.1426626 C15.5050851,43.1426626 15.895401,43.1128336 16.2857168,43.1128336 C16.5409234,43.1128336 17.0813607,43.1426626 17.3215551,43.1426626 Z M24.3472405,43.1874061 C24.4673377,43.1874061 24.602447,43.1724916 24.602447,43.0830046 C24.602447,43.0233466 24.5123741,42.9786031 24.3772648,42.9487741 C23.9269003,42.8443726 23.7167303,42.6803131 23.2963901,42.2477925 C22.5908191,41.5318965 21.5099445,40.38348 21.05958,39.8614724 C21.0445679,39.8316434 21.0145436,39.7868999 21.0445679,39.7570709 C21.3297987,39.4886099 22.065394,38.8472864 22.4557098,38.5639109 C23.0712079,38.0866469 23.3264144,37.9971599 23.8368275,37.9076729 C24.0169732,37.8778439 24.0620097,37.8181859 24.0620097,37.7883569 C24.0620097,37.7286989 24.0019611,37.6839554 23.8368275,37.6839554 C23.4465116,37.6839554 22.8460257,37.7734424 22.5157584,37.7734424 C22.3506248,37.7734424 22.0053454,37.7585279 21.765151,37.7585279 C21.6300417,37.7585279 21.5249566,37.8032714 21.5249566,37.8629294 C21.5249566,37.9225874 21.6450538,37.9673309 21.7801631,37.9822454 C22.1104304,38.0419034 22.2155154,38.1313904 22.2155154,38.2208774 C22.2155154,38.2805354 22.1404547,38.3849369 22.0503818,38.4744239 C21.7801631,38.8323719 21.0295557,39.5035244 20.4290698,39.9807885 C20.3089726,40.0702755 20.1888754,40.144848 20.1288268,40.144848 C20.0837904,40.144848 20.0537661,40.0702755 20.0537661,39.9062159 C20.0537661,38.2656209 20.1288268,36.2969068 20.1288268,35.8345573 C20.1288268,34.7308842 20.1738633,33.4184082 20.2038876,32.9262297 C20.2038876,32.8516572 20.1738633,32.8069137 20.1588511,32.8069137 C20.0988025,32.8069137 20.0237418,32.8367427 19.9186567,32.8814862 C19.843596,32.9113152 19.4532801,33.0753747 18.8527942,33.2394342 C18.7026727,33.2841777 18.6125998,33.3140067 18.6125998,33.3736647 C18.6125998,33.4034937 18.6726484,33.4333227 18.7477092,33.4780662 C18.9278549,33.5675532 19.0629643,33.6570402 19.0929886,33.7763562 C19.138025,33.9404157 19.1530372,34.1193897 19.1530372,34.4624232 C19.1530372,35.6257543 19.1080007,37.5348104 19.0929886,38.6981414 C19.0929886,39.8614724 19.0779764,41.1142905 19.0179278,42.203049 C18.9879035,42.6952276 18.8828185,42.8294581 18.4174419,42.9487741 C18.3123569,42.9636886 18.222284,43.0084321 18.222284,43.0531756 C18.222284,43.1128336 18.3123569,43.1575771 18.4624783,43.1575771 C18.6426241,43.1575771 18.9578792,43.1128336 19.438268,43.1128336 C19.8285838,43.1128336 20.143839,43.1575771 20.5641791,43.1575771 C20.7293128,43.1575771 20.8494099,43.1277481 20.8494099,43.0531756 C20.8494099,42.9935176 20.7743492,42.9636886 20.6242277,42.9189451 C20.1588511,42.8145436 20.0387539,42.7698001 20.0387539,42.053904 C20.0237418,41.2336065 20.0387539,40.741428 20.0537661,40.472967 C20.0537661,40.413309 20.0687782,40.323822 20.1138147,40.323822 C20.1618535,40.323822 20.2387157,40.3906389 20.3290288,40.4784555 L20.3990455,40.5475395 C20.8494099,40.9949745 21.9152725,42.113562 22.2305276,42.4715101 C22.3656369,42.6803131 22.3356126,42.8145436 22.0804061,42.8742016 C21.8101874,42.9338596 21.7351267,42.9636886 21.7351267,43.0382611 C21.7351267,43.1277481 21.8402117,43.1277481 22.0053454,43.1277481 C22.2305276,43.1277481 22.4256855,43.1128336 22.680892,43.1128336 C23.2663658,43.1128336 23.8368275,43.1874061 24.3472405,43.1874061 Z M26.6741235,40.651941 C26.7491842,40.651941 26.8092328,40.5177105 26.8392571,40.204506 C26.8993057,39.4289519 27.334658,36.1477618 27.334658,35.4616948 C27.334658,34.9396873 27.0944637,34.4176797 26.6591113,34.4176797 C26.2537833,34.4176797 25.9835647,35.0739178 25.9985768,35.5213528 C26.0286011,36.4460518 26.3588684,38.8622009 26.4939777,40.2492495 C26.524002,40.562454 26.5840506,40.651941 26.6741235,40.651941 Z M26.6891356,43.2619786 C26.9143179,43.2619786 27.2896216,43.0382611 27.2896216,42.6206551 C27.2896216,42.411852 27.1395001,41.904759 26.6891356,41.904759 C26.3588684,41.904759 25.9985768,42.203049 25.9985768,42.6057406 C25.9985768,43.0531756 26.4039048,43.2619786 26.6891356,43.2619786 Z"/>
      <path stroke="#222F3C" stroke-linecap="round" stroke-width=".5" d="M40.969783,52.6567581 L45.4324702,57.0904588 L40.969783,61.5241596"/>
      <g stroke="#222F3C" stroke-linecap="round" transform="translate(47.291 48.546)">
        <g stroke-linejoin="round" stroke-width=".5">
          <line x1="59.864" y1=".228"/>
          <line x2="59.864" y1=".228" transform="translate(0 16.383)"/>
          <line x2="59.864" y1=".228" transform="translate(0 16.383)"/>
        </g>
        <g stroke-width=".4" transform="translate(21.456 3.855)">
          <g transform="translate(2.233 2.689)">
            <path d="M.160397316 2.00938999L.981131718 2.97216576.0809132803 3.98426371M.0794840358 4.0106448L.900151701 4.97342056 0 5.98551852M.241310596 0L1.06197826.962775767.161826561 1.97487372"/>
          </g>
          <path d="M.160397316 2.00938999L.981064981 2.97216576.0809132803 3.98426371M.0794840358 4.0106448L.900218438 4.97342056 0 5.98535301M.241310596 0L1.062045.962775767.161826561 1.97487372"/>
          <g transform="translate(5.43)">
            <g transform="translate(2.231 2.689)">
              <path d="M.160397316 2.00938999L.981064981 2.97216576.0809132803 3.98426371M.0794840358 4.0106448L.900151701 4.97342056 0 5.98551852M.241310596 0L1.062045.962775767.161826561 1.97487372"/>
            </g>
            <path d="M.158210471 2.00938999L.978878135 2.97216576.0787264349 3.98426371M.0794840358 4.0106448L.900151701 4.97342056 0 5.98535301M.239123751 0L1.05979142.962775767.159639715 1.97487372"/>
          </g>
          <g transform="translate(10.86)">
            <g transform="translate(2.233 2.689)">
              <path d="M.158210471 2.00938999L.978944873 2.97216576.0787264349 3.98426371M.0794840358 4.0106448L.900151701 4.97342056 0 5.98551852M.241310596 0L1.06197826.962775767.161826561 1.97487372"/>
            </g>
            <path d="M.160397316 2.00938999L.981064981 2.97216576.0809132803 3.98426371M.0794840358 4.0106448L.900218438 4.97342056 0 5.98535301M.241310596 0L1.06197826.962775767.161826561 1.97487372"/>
          </g>
          <g transform="translate(16.288)">
            <path d="M.160397316 2.00938999L.981064981 2.97216576.0809132803 3.98426371M.0794840358 4.0106448L.900151701 4.97342056 0 5.98535301M.241310596 0L1.06197826.962775767.161826561 1.97487372"/>
          </g>
        </g>
      </g>
    </g>
    <rect width="435" height="218" stroke="#979797"/>
  </g>
</svg>
