<svg xmlns="http://www.w3.org/2000/svg" width="399" height="200" viewBox="0 0 399 200">
  <g fill="none" transform="translate(72 57)">
    <g stroke="#222F3C" stroke-linecap="round" stroke-linejoin="round" stroke-width=".5" transform="translate(116 51)">
      <line x1="10.516" x2="5.601" y1="10.264" y2="5.738"/>
      <path d="M12.5097255 10.291746L17.1902005 5.45829669 11.6107461.0192264396 11.6119895.0180139852C11.6020422.00922369115 11.5917842.00285830578 11.5802827.000433397065 11.5687813-.000779057292 11.5560364.000433397065 11.5445349.00558632808L11.5432915.00558632808C11.5305467.0104361455 11.5218428.0180139852 11.515315.0265011657 11.509098.0352914598 11.5063003.0465066626 11.5063003.0613592285L11.5063003 5.44708148 11.5063003 5.55529303 11.5063003 6.02815023 11.5063003 9.31329531M11.4909916 9.31277462L11.4909916 5.84273025 11.4909916 5.8415178C11.4909916 5.82545278 11.4847745 5.81181266 11.4732731 5.80059746L11.4745165 5.80059746C11.4617716 5.78938226 11.4465399 5.78180442 11.4288215 5.78180442L5.60099758 5.73845918M13.4466685 11.2421314L17.0727388 11.2421314 17.0739822 11.2421314C17.0907681 11.2421314 17.1047564 11.2348567 17.115947 11.2248539L17.115947 11.2248539C17.1274485 11.2136387 17.1352197 11.1975737 17.1352197 11.1815087L17.1796713 5.48145765 12.5159823 10.2973264"/>
      <line x1="5.584" x2="5.712" y1="5.863" y2="5.738"/>
      <path d="M5.584428,5.73970073 L0.0189618763,11.1666464 L0.0177184746,11.1666464 C0.00901466252,11.1751336 0.00248680345,11.1863488 0.00124340173,11.1963516 C-0.00124340173,11.2075668 0,11.2199944 0.00497360691,11.2324221 L0.00497360691,11.2324221 C0.0102580642,11.2448497 0.0177184746,11.2545494 0.0267331371,11.2609148 C0.0357477996,11.2657646 0.0484926673,11.2697051 0.0624809368,11.2697051 L5.5806978,11.2697051 L5.69136055,11.2697051 L6.17784148,11.2697051 L9.5785452,11.2697051"/>
      <path d="M5.65592893,5.8626145 L5.58317217,5.73845918 L5.71049651,5.73845918"/>
      <line x1="5.584" x2="10.507" y1="5.74" y2="10.273"/>
      <path d="M5.71304299,5.85516518 L5.64938082,5.73100986 L5.58571866,5.85516518"/>
      <line x1="5.713" x2="5.585" y1="5.863" y2="5.738"/>
      <line x1="12.447" x2="17.399" y1="12.216" y2="16.776"/>
      <path d="M10.5232346 12.1895699L5.80980949 17.0563617 11.3892639 22.4957351 11.3880205 22.4969475C11.3979677 22.5054347 11.4082258 22.5118001 11.4197272 22.5130125 11.4312287 22.5154375 11.4439736 22.514225 11.455475 22.5093752L11.4567184 22.5093752C11.4694633 22.5042223 11.4781671 38.0099979 11.484695 38 11.490912 37.9927204 11.4937096 22.4684548 11.4937096 22.4532992L11.4937096 17.0675769 11.4937096 16.9596685 11.4937096 16.4865082 11.4937096 13.1355874M11.5088468 13.1319088L11.5088468 16.6713662 11.5088468 16.6725787C11.5088468 16.6877344 11.5150638 16.7025869 11.5265653 16.7138021L11.5253219 16.7138021C11.5380667 16.7247142 11.5532984 16.7322921 11.5710169 16.7322921L17.3988408 16.7756373M10.5169455 12.1832215L5.81999544 17.0327358 5.86444705 11.3329879C5.86444705 11.3166198 5.87221831 11.3005547 5.88371977 11.2893395L5.88371977 11.2893395C5.89491039 11.2781243 5.90889866 11.2720621 5.92568458 11.2720621L5.92692798 11.2720621 9.58221821 11.2720621"/>
      <line x1="17.542" x2="17.414" y1="16.775" y2="16.899"/>
      <path d="M17.415572 16.7744491L22.9810381 11.3478065 22.9822815 11.3478065C22.9909853 11.3390162 22.9975132 11.327801 22.9987566 11.3177983 23.0012434 11.3065831 23 11.2944585 22.9950264 11.2820309L22.9950264 11.2820309C22.9897419 11.2696032 22.9822815 11.2596005 22.9732669 11.2532351 22.9642522 11.2483853 22.9530616 11.2447479 22.9375191 11.2447479L17.4193022 11.2447479 17.3086394 11.2447479 16.8221585 11.2447479 13.4429035 11.2447479M17.4687171 16.7746261L17.5414739 16.8987814 17.4141495 16.8987814"/>
      <line x1="17.416" x2="12.456" y1="16.775" y2="12.208"/>
      <path d="M17.3988706,16.7758677 L17.4650793,16.900023 L17.526195,16.7808339"/>
      <line x1="17.399" x2="17.526" y1="16.775" y2="16.9"/>
      <line x1="10.644" x2="10.517" y1="12.307" y2="12.183"/>
      <line x1="10.635" x2="10.507" y1="10.264" y2="10.388"/>
      <line x1="10.517" x2="9.582" y1="12.183" y2="11.272"/>
      <line x1="9.579" x2="9.706" y1="11.269" y2="11.393"/>
      <path d="M13.4466685 11.2422478L13.4659412 11.2234548 12.5159823 10.2974428M11.6208922 13.1319088L11.5386619 13.2560642 11.4935679 13.191984"/>
      <line x1="11.509" x2="12.448" y1="13.132" y2="12.216"/>
      <path d="M11.4910214,9.42959702 L11.5573362,9.3054417 L11.6183457,9.4196646"/>
      <line x1="13.443" x2="12.456" y1="11.245" y2="12.208"/>
      <line x1="10.523" x2="11.494" y1="12.19" y2="13.136"/>
      <path d="M9.57940066,11.2692492 L9.5327731,11.223479 L10.5079109,10.2726117"/>
      <line x1="11.491" x2="10.516" y1="9.313" y2="10.264"/>
      <line x1="12.509" x2="11.506" y1="10.291" y2="9.312"/>
      <line x1="12.447" x2="12.575" y1="12.332" y2="12.208"/>
      <line x1="13.443" x2="13.571" y1="11.366" y2="11.242"/>
      <line x1="12.509" x2="12.637" y1="10.291" y2="10.415"/>
    </g>
    <g transform="translate(162 2)">
      <path fill="#333838" d="M5.1975,9.63851429 C5.3075,9.63851429 5.445,9.62468571 5.445,9.55554286 C5.445,9.4864 5.3625,9.44491429 5.15625,9.41725714 C4.675,9.32045714 4.57875,9.16834286 4.55125,8.5184 C4.52375,8.04822857 4.52375,7.78548571 4.52375,7.42594286 C4.52375,6.776 4.52375,5.97394286 4.55125,5.53142857 C4.565,5.40697143 4.63375,5.18571429 4.74375,4.99211429 C5.15625,4.31451429 6.09125,2.68274286 6.80625,1.75622857 C7.08125,1.38285714 7.32875,1.14777143 7.82375,1.05097143 C8.04375,1.02331429 8.12625,0.968 8.12625,0.912685714 C8.12625,0.857371429 8.03,0.829714286 7.87875,0.829714286 C7.6725,0.829714286 7.2325,0.898857143 6.9025,0.898857143 C6.5175,0.898857143 6.2975,0.843542857 5.9125,0.843542857 C5.775,0.843542857 5.6925,0.8712 5.6925,0.912685714 C5.6925,0.981828571 5.81625,1.02331429 5.92625,1.05097143 C6.28375,1.12011429 6.435,1.23074286 6.435,1.39668571 C6.435,1.5488 6.3525,1.7424 6.11875,2.1296 C5.83,2.62742857 4.95,4.07942857 4.4825,4.85382857 C4.44125,4.92297143 4.345,4.85382857 4.3175,4.84 C3.9875,4.38365714 2.7775,2.28171429 2.53,1.85302857 C2.37875,1.60411429 2.29625,1.41051429 2.29625,1.32754286 C2.29625,1.23074286 2.37875,1.14777143 2.70875,1.07862857 C2.84625,1.05097143 2.92875,1.00948571 2.92875,0.940342857 C2.92875,0.885028571 2.86,0.857371429 2.70875,0.857371429 C2.46125,0.857371429 2.035,0.898857143 1.595,0.898857143 C1.1825,0.898857143 0.50875,0.829714286 0.26125,0.829714286 C0.0825,0.829714286 3.73034936e-13,0.829714286 3.73034936e-13,0.912685714 C3.73034936e-13,0.954171429 0.06875,1.00948571 0.28875,1.05097143 C0.70125,1.13394286 0.94875,1.34137143 1.38875,1.94982857 C1.7875,2.5168 2.92875,4.43897143 3.3825,5.26868571 C3.42375,5.324 3.465,5.46228571 3.47875,5.57291429 C3.4925,5.75268571 3.50625,6.0016 3.50625,6.85897143 C3.50625,7.4536 3.47875,8.36628571 3.45125,8.64285714 C3.41,9.18217143 3.3275,9.32045714 2.7775,9.3896 C2.6125,9.41725714 2.475,9.45874286 2.475,9.51405714 C2.475,9.5832 2.57125,9.62468571 2.76375,9.62468571 C3.14875,9.62468571 3.41,9.56937143 3.8775,9.56937143 C4.38625,9.56937143 4.6475,9.63851429 5.1975,9.63851429 Z M9.14375,9.73531429 C9.63875,9.73531429 10.27125,9.54171429 10.6975,9.20982857 C11.1375,8.86411429 11.75625,8.11737143 11.75625,7.0664 C11.75625,5.60057143 10.615,4.4528 9.11625,4.4528 C8.45625,4.4528 7.8375,4.7432 7.46625,5.0336 C6.9575,5.44845714 6.47625,6.12605714 6.47625,7.17702857 C6.47625,8.6152 7.7275,9.73531429 9.14375,9.73531429 Z M9.33625,9.50022857 C8.91,9.50022857 8.415,9.27897143 8.04375,8.76731429 C7.60375,8.18651429 7.46625,7.4536 7.46625,6.8728 C7.46625,5.43462857 8.20875,4.68788571 8.91,4.68788571 C10.12,4.68788571 10.78,5.98777143 10.78,7.30148571 C10.78,8.29714286 10.40875,8.96091429 10.2025,9.15451429 C9.9825,9.34811429 9.66625,9.50022857 9.33625,9.50022857 Z M16.5,9.70765714 C16.89875,9.51405714 17.75125,9.34811429 17.91625,9.33428571 C18.05375,9.30662857 18.1775,9.27897143 18.1775,9.22365714 C18.1775,9.15451429 18.10875,9.07154286 18.0125,9.07154286 C17.93,9.07154286 17.58625,9.15451429 17.44875,9.196 C17.33875,9.20982857 17.2975,9.18217143 17.27,9.04388571 C17.248,8.92219429 17.2436,8.75625143 17.24272,8.52481646 L17.2425,8.33862857 C17.2425,6.73451429 17.27,5.35165714 17.33875,4.70171429 C17.3525,4.60491429 17.325,4.5496 17.28375,4.5496 C17.1325,4.5496 16.9125,4.63257143 16.335,4.63257143 L15.7575,4.63257143 C15.675,4.63257143 15.55125,4.66022857 15.55125,4.71554286 C15.55125,4.75702857 15.62,4.79851429 15.77125,4.82617143 C16.225,4.92297143 16.3625,4.99211429 16.37625,5.46228571 C16.37625,5.82182857 16.39,6.47177143 16.39,6.6792 C16.39,7.17702857 16.39,7.71634286 16.3625,8.08971429 C16.34875,8.39394286 16.26625,8.58754286 16.115,8.72582857 C15.7575,9.05771429 15.4275,9.16834286 14.94625,9.16834286 C14.6575,9.16834286 14.355,9.04388571 14.17625,8.82262857 C14.09375,8.712 13.98375,8.49074286 13.97,7.90994286 C13.95625,7.27382857 13.97,5.39314286 14.01125,4.60491429 C14.025,4.52194286 13.98375,4.43897143 13.9425,4.4528 C13.73625,4.50811429 13.24125,4.63257143 12.7875,4.63257143 C12.63625,4.63257143 12.5675,4.66022857 12.5675,4.70171429 C12.5675,4.7432 12.60875,4.78468571 12.7325,4.86765714 C12.88375,4.96445714 13.02125,5.07508571 13.035,5.324 C13.0625,5.55908571 13.0625,7.89611429 13.0625,8.35245714 C13.07625,8.6152 13.13125,8.97474286 13.32375,9.196 C13.62625,9.5832 13.9975,9.69382857 14.52,9.69382857 C14.75375,9.69382857 15.07,9.59702857 15.33125,9.4864 C15.57875,9.3896 15.9775,9.08537143 16.28,8.8088 C16.3075,8.76731429 16.32125,8.86411429 16.32125,8.9056 C16.32125,9.0024 16.3075,9.30662857 16.3075,9.44491429 C16.3075,9.59702857 16.3075,9.66617143 16.335,9.70765714 C16.3625,9.74914286 16.39,9.76297143 16.5,9.70765714 Z M23.03125,9.72148571 C24.04875,9.72148571 24.68125,9.14068571 24.92875,8.8088 C25.01125,8.712 25.03875,8.64285714 25.03875,8.58754286 C25.03875,8.54605714 24.97,8.55988571 24.9425,8.58754286 C24.46125,9.01622857 24.10375,9.11302857 23.5125,9.11302857 C23.1,9.11302857 22.59125,8.96091429 22.23375,8.62902857 C21.90375,8.33862857 21.54625,7.75782857 21.54625,6.83131429 C21.54625,5.24102857 22.495,4.68788571 23.0725,4.68788571 C23.22375,4.68788571 23.43,4.71554286 23.595,4.79851429 C23.80125,4.90914286 24.145,5.14422857 24.365,5.36548571 C24.4475,5.44845714 24.54375,5.50377143 24.59875,5.50377143 C24.695,5.50377143 24.9425,5.324 24.9425,5.06125714 C24.9425,4.99211429 24.90125,4.88148571 24.75,4.79851429 C24.51625,4.61874286 24.09,4.4528 23.49875,4.4528 C22.605,4.4528 21.89,4.85382857 21.46375,5.25485714 C21.05125,5.64205714 20.625,6.30582857 20.625,7.17702857 C20.625,7.9376 20.8725,8.60137143 21.3125,9.04388571 C21.76625,9.4864 22.4125,9.72148571 23.03125,9.72148571 Z M29.05375,9.72148571 C29.49375,9.72148571 29.92,9.51405714 30.1125,9.12685714 C30.1675,9.0024 30.1125,8.96091429 30.03,9.0024 C29.87875,9.08537143 29.74125,9.12685714 29.63125,9.12685714 C29.24625,9.12685714 29.1225,8.86411429 29.1225,8.60137143 C29.1225,8.24182857 29.16375,6.92811429 29.16375,6.41645714 C29.16375,5.98777143 29.10875,5.4208 28.97125,5.15805714 C28.80625,4.72937143 28.38,4.4528 27.9125,4.4528 C27.67875,4.4528 27.40375,4.53577143 27.0875,4.70171429 C26.8125,4.84 26.35875,5.1304 26.0425,5.50377143 C25.8775,5.69737143 25.78125,5.82182857 25.78125,5.91862857 C25.78125,5.97394286 25.85,6.05691429 25.91875,6.04308571 C26.015,6.02925714 26.4275,5.83565714 26.565,5.73885714 C26.5925,5.7112 26.62,5.66971429 26.62,5.62822857 C26.62,5.53142857 26.62,5.4208 26.63375,5.36548571 C26.66125,5.21337143 26.74375,5.11657143 26.84,5.0336 C27.04625,4.90914286 27.18375,4.86765714 27.39,4.86765714 C27.555,4.86765714 27.78875,4.95062857 27.9675,5.08891429 C28.20125,5.26868571 28.2975,5.65588571 28.2975,6.22285714 C28.2975,6.41645714 28.2975,6.69302857 28.27,6.85897143 C28.27,6.91428571 28.20125,7.03874286 28.09125,7.0664 C27.8025,7.17702857 26.55125,7.5504 26.22125,7.73017143 C26.0975,7.79931429 25.72625,8.07588571 25.72625,8.5184 C25.72625,9.23748571 26.27625,9.70765714 26.82625,9.70765714 C27.34875,9.70765714 27.76125,9.47257143 28.17375,9.08537143 C28.1875,9.07154286 28.22875,9.07154286 28.2425,9.0992 C28.36625,9.41725714 28.66875,9.72148571 29.05375,9.72148571 Z M27.43125,9.18217143 C27.005,9.18217143 26.60625,8.86411429 26.60625,8.40777143 C26.60625,8.00674286 26.785,7.79931429 26.95,7.71634286 C27.23875,7.56422857 28.03625,7.27382857 28.215,7.24617143 C28.2425,7.23234286 28.27,7.30148571 28.27,7.31531429 C28.27,7.8408 28.2425,8.39394286 28.20125,8.62902857 C28.1875,8.78114286 28.105,8.9056 28.05,8.96091429 C27.89875,9.0992 27.665,9.18217143 27.43125,9.18217143 Z M32.73875,9.54171429 C32.73875,9.47257143 32.67,9.44491429 32.505,9.40342857 C32.285,9.33428571 32.12,9.26514286 32.07875,8.96091429 C32.05125,8.76731429 32.01,8.40777143 31.99625,7.50891429 C31.99625,6.6792 31.9825,5.97394286 31.9825,5.808 C31.9825,5.69737143 32.05125,5.48994286 32.1475,5.39314286 C32.505,5.08891429 32.8625,4.95062857 33.22,4.95062857 C33.53625,4.95062857 33.7975,5.04742857 34.00375,5.21337143 C34.3475,5.47611429 34.44375,5.808 34.44375,6.92811429 L34.44375,8.8088 C34.44375,9.20982857 34.38875,9.30662857 34.05875,9.3896 C33.88,9.43108571 33.7975,9.4864 33.7975,9.54171429 C33.7975,9.59702857 33.89375,9.62468571 34.0175,9.62468571 C34.22375,9.62468571 34.4025,9.56937143 34.87,9.56937143 C35.1725,9.56937143 35.57125,9.62468571 35.75,9.62468571 C35.8875,9.62468571 35.9975,9.61085714 35.9975,9.52788571 C35.9975,9.47257143 35.915,9.44491429 35.79125,9.3896 C35.42,9.2928 35.37875,9.20982857 35.365,8.26948571 C35.365,7.57805714 35.35125,7.46742857 35.35125,6.73451429 C35.3375,5.94628571 35.2275,5.25485714 34.91125,4.92297143 C34.7325,4.72937143 34.4025,4.4528 33.83875,4.4528 C33.605,4.4528 33.31625,4.48045714 33.0275,4.61874286 C32.725,4.7432 32.395,4.97828571 32.05125,5.24102857 C32.02375,5.26868571 31.9825,5.2272 31.9825,5.19954286 C31.96875,5.00594286 31.99625,4.63257143 32.01,4.46662857 C32.02375,4.39748571 31.955,4.34217143 31.91375,4.356 C31.68,4.50811429 31.13,4.7432 30.8275,4.82617143 C30.70375,4.86765714 30.635,4.90914286 30.635,4.9368 C30.635,4.97828571 30.6625,5.00594286 30.745,5.06125714 C31.075,5.24102857 31.1025,5.39314286 31.1025,5.53142857 C31.1025,6.65154286 31.1025,7.92377143 31.075,8.91942857 C31.06125,9.196 31.00625,9.2928 30.6625,9.36194286 C30.4975,9.3896 30.37375,9.44491429 30.37375,9.50022857 C30.37375,9.56937143 30.48375,9.59702857 30.635,9.59702857 C30.89625,9.59702857 31.185,9.56937143 31.36375,9.56937143 C31.68,9.56937143 32.35375,9.62468571 32.46375,9.62468571 C32.60125,9.62468571 32.73875,9.62468571 32.73875,9.54171429 Z M40.6175,13.6902857 C41.23625,13.6902857 41.7725,13.5243429 42.28125,13.2339429 C43.0925,12.7914286 43.82125,11.9202286 43.82125,10.9798857 C43.82125,10.5097143 43.67,10.0672 43.35375,9.80445714 C43.0925,9.59702857 42.845,9.44491429 42.28125,9.44491429 C41.89625,9.44491429 41.14,9.4864 40.71375,9.4864 C39.99875,9.4864 39.435,9.34811429 39.435,8.9056 C39.435,8.85028571 39.4625,8.712 39.58625,8.60137143 C39.72375,8.43542857 39.91625,8.228 40.0675,8.14502857 C40.08125,8.1312 40.1775,8.08971429 40.2325,8.10354286 C40.35625,8.1312 40.63125,8.17268571 40.81,8.17268571 C41.03,8.17268571 41.45625,8.11737143 41.8825,7.81314286 C42.3775,7.4536 42.74875,6.776 42.74875,5.94628571 C42.74875,5.69737143 42.72125,5.47611429 42.72125,5.37931429 C42.72125,5.35165714 42.77625,5.29634286 42.80375,5.29634286 C42.955,5.29634286 43.45,5.324 43.6425,5.324 C43.6975,5.324 43.79375,5.21337143 43.79375,5.07508571 C43.79375,4.90914286 43.73875,4.77085714 43.67,4.77085714 C43.46375,4.77085714 42.91375,4.79851429 42.6525,4.79851429 C42.39125,4.79851429 42.28125,4.78468571 42.17125,4.72937143 C42.03375,4.6464 41.4425,4.36982857 40.76875,4.36982857 C40.26,4.36982857 39.71,4.5496 39.31125,4.9368 C38.9675,5.25485714 38.73375,5.64205714 38.73375,6.26434286 C38.73375,7.10788571 39.325,7.71634286 39.7925,7.99291429 C39.82,8.00674286 39.83375,8.06205714 39.82,8.07588571 C39.6275,8.33862857 39.05,8.85028571 38.67875,9.0992 C38.65125,9.11302857 38.59625,9.16834286 38.59625,9.23748571 C38.59625,9.79062857 39.325,10.2746286 39.71,10.3576 C39.75125,10.3714286 39.7375,10.4544 39.72375,10.4820571 C39.44875,10.7862857 38.94,11.4362286 38.84375,11.5468571 C38.73375,11.6713143 38.59625,11.8649143 38.59625,12.1414857 C38.59625,13.1648 39.5175,13.6902857 40.6175,13.6902857 Z M40.90625,7.96525714 C40.52125,7.96525714 40.26,7.78548571 40.05375,7.56422857 C39.8475,7.32914286 39.6275,6.73451429 39.6275,6.08457143 C39.6275,5.65588571 39.75125,5.1304 39.99875,4.86765714 C40.205,4.67405714 40.43875,4.5496 40.7,4.5496 C41.085,4.5496 41.2775,4.71554286 41.525,5.01977143 C41.8275,5.39314286 41.95125,5.96011429 41.95125,6.56857143 C41.95125,7.20468571 41.53875,7.96525714 40.90625,7.96525714 Z M41.18125,13.2201143 C40.52125,13.2201143 40.2325,13.068 39.875,12.8052571 C39.47625,12.5010286 39.33875,12.0170286 39.33875,11.7542857 C39.33875,11.2564571 39.64125,10.7724571 39.93,10.5235429 C39.985,10.4820571 40.08125,10.4267429 40.3975,10.3990857 C40.76875,10.3852571 41.4425,10.3714286 41.965,10.3714286 C42.845,10.3714286 43.2025,10.8830857 43.2025,11.4638857 C43.2025,12.0446857 42.845,12.6254857 42.46,12.8882286 C42.02,13.2062857 41.4975,13.2201143 41.18125,13.2201143 Z M46.48875,9.72148571 C47.2725,9.72148571 47.85,9.44491429 48.4,8.85028571 C48.4825,8.75348571 48.5375,8.67051429 48.5375,8.62902857 C48.5375,8.55988571 48.4825,8.53222857 48.3725,8.64285714 C48.0425,8.96091429 47.63,9.08537143 47.06625,9.08537143 C46.6125,9.08537143 46.0625,8.93325714 45.69125,8.5184 C45.33375,8.11737143 45.05875,7.5504 45.05875,6.84514286 C45.05875,6.45794286 45.1,6.25051429 45.16875,6.08457143 C45.19625,6.04308571 45.265,5.97394286 45.2925,5.97394286 L46.035,5.97394286 C46.35125,5.97394286 48.13875,6.0016 48.24875,6.01542857 C48.3175,6.01542857 48.38625,5.93245714 48.38625,5.86331429 C48.38625,5.01977143 47.52,4.4528 46.70875,4.4528 C45.99375,4.4528 45.36125,4.78468571 44.99,5.14422857 C44.4125,5.7112 44.1925,6.52708571 44.1925,7.1632 C44.1925,7.90994286 44.44,8.57371429 44.8525,9.01622857 C45.265,9.45874286 45.8425,9.72148571 46.48875,9.72148571 Z M45.3475,5.78034286 C45.32,5.78034286 45.2925,5.75268571 45.2925,5.72502857 C45.2925,5.6144 45.41625,5.35165714 45.58125,5.15805714 C45.88375,4.84 46.2275,4.6464 46.585,4.6464 C46.90125,4.6464 47.135,4.77085714 47.2725,4.90914286 C47.42375,5.07508571 47.465,5.324 47.465,5.48994286 C47.465,5.6144 47.4375,5.76651429 47.135,5.76651429 L45.3475,5.78034286 Z M50.985,9.69382857 C51.37,9.69382857 51.79625,9.56937143 52.09875,9.33428571 C52.2775,9.196 52.40125,9.05771429 52.40125,8.97474286 C52.40125,8.91942857 52.36,8.9056 52.26375,8.97474286 C52.14,9.05771429 51.8925,9.18217143 51.5075,9.18217143 C51.15,9.18217143 50.86125,9.07154286 50.655,8.8088 C50.55875,8.67051429 50.53125,8.50457143 50.50375,8.06205714 C50.49,7.63337143 50.47625,5.46228571 50.47625,5.2272 C50.47625,5.14422857 50.50375,5.10274286 50.66875,5.10274286 C51.04,5.10274286 51.71375,5.11657143 52.195,5.11657143 C52.26375,5.11657143 52.3325,5.00594286 52.3325,4.77085714 C52.3325,4.67405714 52.2775,4.57725714 52.25,4.57725714 C51.96125,4.57725714 50.82,4.61874286 50.5725,4.61874286 C50.5175,4.61874286 50.50375,4.53577143 50.50375,4.49428571 C50.49,4.32834286 50.5175,3.94114286 50.5175,3.81668571 C50.5175,3.74754286 50.42125,3.71988571 50.2975,3.85817143 C49.9675,4.28685714 49.51375,4.66022857 49.17,4.78468571 C49.01875,4.85382857 49.005,4.89531429 49.005,4.92297143 C49.005,4.97828571 49.07375,5.01977143 49.18375,5.04742857 C49.3075,5.07508571 49.45875,5.10274286 49.51375,5.1304 C49.56875,5.15805714 49.5825,5.25485714 49.5825,5.40697143 L49.5825,8.26948571 C49.5825,8.60137143 49.6375,8.87794286 49.7475,9.05771429 C49.98125,9.50022857 50.4075,9.69382857 50.985,9.69382857 Z M56.74625,9.69382857 C57.13125,9.69382857 57.5575,9.56937143 57.86,9.33428571 C58.03875,9.196 58.1625,9.05771429 58.1625,8.97474286 C58.1625,8.91942857 58.12125,8.9056 58.025,8.97474286 C57.90125,9.05771429 57.65375,9.18217143 57.26875,9.18217143 C56.91125,9.18217143 56.6225,9.07154286 56.41625,8.8088 C56.32,8.67051429 56.2925,8.50457143 56.265,8.06205714 C56.25125,7.63337143 56.2375,5.46228571 56.2375,5.2272 C56.2375,5.14422857 56.265,5.10274286 56.43,5.10274286 C56.80125,5.10274286 57.475,5.11657143 57.95625,5.11657143 C58.025,5.11657143 58.09375,5.00594286 58.09375,4.77085714 C58.09375,4.67405714 58.03875,4.57725714 58.01125,4.57725714 C57.7225,4.57725714 56.58125,4.61874286 56.33375,4.61874286 C56.27875,4.61874286 56.265,4.53577143 56.265,4.49428571 C56.25125,4.32834286 56.27875,3.94114286 56.27875,3.81668571 C56.27875,3.74754286 56.1825,3.71988571 56.05875,3.85817143 C55.72875,4.28685714 55.275,4.66022857 54.93125,4.78468571 C54.78,4.85382857 54.76625,4.89531429 54.76625,4.92297143 C54.76625,4.97828571 54.835,5.01977143 54.945,5.04742857 C55.06875,5.07508571 55.22,5.10274286 55.275,5.1304 C55.33,5.15805714 55.34375,5.25485714 55.34375,5.40697143 L55.34375,8.26948571 C55.34375,8.60137143 55.39875,8.87794286 55.50875,9.05771429 C55.7425,9.50022857 56.16875,9.69382857 56.74625,9.69382857 Z M63.855,9.63851429 C63.97875,9.63851429 64.075,9.59702857 64.075,9.54171429 C64.075,9.4864 64.03375,9.45874286 63.855,9.41725714 C63.4425,9.34811429 63.3875,9.25131429 63.3875,8.97474286 C63.37375,8.44925714 63.37375,7.59188571 63.36,6.55474286 C63.34625,5.68354286 63.195,5.25485714 63.0575,5.07508571 C62.7275,4.60491429 62.24625,4.4528 61.82,4.4528 C61.44875,4.4528 61.09125,4.56342857 60.8575,4.68788571 C60.5825,4.82617143 60.1975,5.10274286 60.0325,5.25485714 C60.01875,5.28251429 59.9775,5.26868571 59.9775,5.21337143 C59.96375,4.95062857 60.01875,0.663771429 60.0325,0.2904 C60.04625,0.0968 60.005,2.63509849e-13 59.96375,2.63509849e-13 C59.93625,2.63509849e-13 59.895,0.0138285714 59.82625,0.0553142857 C59.565,0.1936 59.24875,0.262742857 58.8225,0.3872 C58.67125,0.428685714 58.58875,0.470171429 58.58875,0.511657143 C58.58875,0.553142857 58.63,0.5808 58.685,0.622285714 C58.9875,0.788228571 59.08375,0.829714286 59.0975,1.27222857 C59.125,1.79771429 59.0975,2.64125714 59.0975,4.72937143 C59.0975,6.92811429 59.08375,8.20034286 59.0425,8.75348571 C59.02875,9.27897143 58.9325,9.32045714 58.53375,9.41725714 C58.36875,9.45874286 58.31375,9.4864 58.31375,9.54171429 C58.31375,9.59702857 58.3825,9.62468571 58.53375,9.62468571 C58.795,9.62468571 59.00125,9.56937143 59.4275,9.56937143 C59.82625,9.56937143 60.18375,9.62468571 60.56875,9.62468571 C60.6925,9.62468571 60.775,9.5832 60.775,9.54171429 C60.775,9.47257143 60.67875,9.44491429 60.4725,9.40342857 C60.17,9.34811429 60.07375,9.18217143 60.0325,8.93325714 C60.005,8.69817143 59.95,8.0344 59.96375,5.96011429 C59.96375,5.66971429 60.0325,5.50377143 60.10125,5.44845714 C60.32125,5.21337143 60.73375,4.9368 61.31125,4.9368 C61.77875,4.9368 62.08125,5.14422857 62.26,5.44845714 C62.425,5.75268571 62.46625,6.13988571 62.46625,6.4856 C62.46625,7.92377143 62.43875,8.53222857 62.41125,8.85028571 C62.35625,9.25131429 62.32875,9.34811429 61.9575,9.43108571 C61.82,9.45874286 61.75125,9.4864 61.75125,9.54171429 C61.75125,9.5832 61.80625,9.62468571 61.97125,9.62468571 C62.2875,9.62468571 62.3975,9.56937143 62.865,9.56937143 C63.23625,9.56937143 63.4975,9.63851429 63.855,9.63851429 Z M66.99,9.72148571 C67.77375,9.72148571 68.35125,9.44491429 68.90125,8.85028571 C68.98375,8.75348571 69.03875,8.67051429 69.03875,8.62902857 C69.03875,8.55988571 68.98375,8.53222857 68.87375,8.64285714 C68.54375,8.96091429 68.13125,9.08537143 67.5675,9.08537143 C67.11375,9.08537143 66.56375,8.93325714 66.1925,8.5184 C65.835,8.11737143 65.56,7.5504 65.56,6.84514286 C65.56,6.45794286 65.60125,6.25051429 65.67,6.08457143 C65.6975,6.04308571 65.76625,5.97394286 65.79375,5.97394286 L66.53625,5.97394286 C66.8525,5.97394286 68.64,6.0016 68.75,6.01542857 C68.81875,6.01542857 68.8875,5.93245714 68.8875,5.86331429 C68.8875,5.01977143 68.02125,4.4528 67.21,4.4528 C66.495,4.4528 65.8625,4.78468571 65.49125,5.14422857 C64.91375,5.7112 64.69375,6.52708571 64.69375,7.1632 C64.69375,7.90994286 64.94125,8.57371429 65.35375,9.01622857 C65.76625,9.45874286 66.34375,9.72148571 66.99,9.72148571 Z M65.84875,5.78034286 C65.82125,5.78034286 65.79375,5.75268571 65.79375,5.72502857 C65.79375,5.6144 65.9175,5.35165714 66.0825,5.15805714 C66.385,4.84 66.72875,4.6464 67.08625,4.6464 C67.4025,4.6464 67.63625,4.77085714 67.77375,4.90914286 C67.925,5.07508571 67.96625,5.324 67.96625,5.48994286 C67.96625,5.6144 67.93875,5.76651429 67.63625,5.76651429 L65.84875,5.78034286 Z M73.0125,9.73531429 C73.3425,9.73531429 73.81,9.62468571 74.1125,9.43108571 C74.3875,9.25131429 74.8275,8.87794286 74.8275,8.26948571 C74.8275,7.56422857 74.47,7.21851429 73.57625,6.63771429 C73.2325,6.43028571 72.71,6.0984 72.71,5.5176 C72.71,4.96445714 73.095,4.66022857 73.535,4.66022857 C73.79625,4.66022857 74.03,4.75702857 74.18125,4.86765714 C74.3875,5.0336 74.4425,5.2272 74.51125,5.43462857 C74.5525,5.53142857 74.58,5.60057143 74.635,5.60057143 C74.67625,5.60057143 74.70375,5.53142857 74.70375,5.37931429 C74.69,5.15805714 74.635,4.88148571 74.62125,4.72937143 C74.62125,4.68788571 74.58,4.63257143 74.5525,4.60491429 C74.3875,4.5496 73.98875,4.4528 73.6175,4.4528 C73.095,4.4528 72.71,4.63257143 72.4625,4.84 C72.16,5.06125714 71.94,5.43462857 71.94,5.93245714 C71.94,6.54091429 72.49,7.05257143 73.08125,7.43977143 C73.63125,7.78548571 73.98875,8.07588571 73.98875,8.60137143 C73.98875,9.16834286 73.48,9.52788571 73.095,9.52788571 C72.88875,9.52788571 72.6825,9.50022857 72.47625,9.36194286 C72.22875,9.20982857 72.00875,8.96091429 71.89875,8.6152 C71.8025,8.35245714 71.76125,8.35245714 71.72,8.35245714 C71.6925,8.35245714 71.65125,8.39394286 71.67875,8.57371429 C71.6925,8.72582857 71.72,9.07154286 71.72,9.26514286 C71.72,9.34811429 71.81625,9.44491429 71.92625,9.4864 C72.33875,9.65234286 72.655,9.73531429 73.0125,9.73531429 Z M77.495,9.69382857 C77.88,9.69382857 78.30625,9.56937143 78.60875,9.33428571 C78.7875,9.196 78.91125,9.05771429 78.91125,8.97474286 C78.91125,8.91942857 78.87,8.9056 78.77375,8.97474286 C78.65,9.05771429 78.4025,9.18217143 78.0175,9.18217143 C77.66,9.18217143 77.37125,9.07154286 77.165,8.8088 C77.06875,8.67051429 77.04125,8.50457143 77.01375,8.06205714 C77,7.63337143 76.98625,5.46228571 76.98625,5.2272 C76.98625,5.14422857 77.01375,5.10274286 77.17875,5.10274286 C77.55,5.10274286 78.22375,5.11657143 78.705,5.11657143 C78.77375,5.11657143 78.8425,5.00594286 78.8425,4.77085714 C78.8425,4.67405714 78.7875,4.57725714 78.76,4.57725714 C78.47125,4.57725714 77.33,4.61874286 77.0825,4.61874286 C77.0275,4.61874286 77.01375,4.53577143 77.01375,4.49428571 C77,4.32834286 77.0275,3.94114286 77.0275,3.81668571 C77.0275,3.74754286 76.93125,3.71988571 76.8075,3.85817143 C76.4775,4.28685714 76.02375,4.66022857 75.68,4.78468571 C75.52875,4.85382857 75.515,4.89531429 75.515,4.92297143 C75.515,4.97828571 75.58375,5.01977143 75.69375,5.04742857 C75.8175,5.07508571 75.96875,5.10274286 76.02375,5.1304 C76.07875,5.15805714 76.0925,5.25485714 76.0925,5.40697143 L76.0925,8.26948571 C76.0925,8.60137143 76.1475,8.87794286 76.2575,9.05771429 C76.49125,9.50022857 76.9175,9.69382857 77.495,9.69382857 Z M81.895,9.73531429 C82.39,9.73531429 83.0225,9.54171429 83.44875,9.20982857 C83.88875,8.86411429 84.5075,8.11737143 84.5075,7.0664 C84.5075,5.60057143 83.36625,4.4528 81.8675,4.4528 C81.2075,4.4528 80.58875,4.7432 80.2175,5.0336 C79.70875,5.44845714 79.2275,6.12605714 79.2275,7.17702857 C79.2275,8.6152 80.47875,9.73531429 81.895,9.73531429 Z M82.0875,9.50022857 C81.66125,9.50022857 81.16625,9.27897143 80.795,8.76731429 C80.355,8.18651429 80.2175,7.4536 80.2175,6.8728 C80.2175,5.43462857 80.96,4.68788571 81.66125,4.68788571 C82.87125,4.68788571 83.53125,5.98777143 83.53125,7.30148571 C83.53125,8.29714286 83.16,8.96091429 82.95375,9.15451429 C82.73375,9.34811429 82.4175,9.50022857 82.0875,9.50022857 Z M85.415,9.65234286 C85.6075,9.65234286 85.75875,9.56937143 86.25375,9.56937143 C86.83125,9.56937143 87.285,9.62468571 87.54625,9.62468571 C87.7525,9.62468571 87.87625,9.59702857 87.87625,9.52788571 C87.87625,9.45874286 87.8075,9.43108571 87.615,9.40342857 C87.0925,9.34811429 86.9275,9.25131429 86.8725,8.82262857 C86.845,8.53222857 86.8175,7.81314286 86.8175,6.78982857 C86.8175,6.51325714 86.80375,6.11222857 86.83125,5.94628571 C86.845,5.78034286 86.91375,5.62822857 87.065,5.46228571 C87.24375,5.29634286 87.46375,5.18571429 87.67,5.18571429 C87.82125,5.18571429 88,5.25485714 88.15125,5.35165714 C88.3025,5.43462857 88.37125,5.44845714 88.39875,5.44845714 C88.44,5.44845714 88.495,5.43462857 88.61875,5.324 C88.78375,5.17188571 88.92125,4.95062857 88.92125,4.85382857 C88.92125,4.78468571 88.89375,4.71554286 88.825,4.66022857 C88.6875,4.5496 88.50875,4.48045714 88.34375,4.48045714 C87.79375,4.48045714 87.24375,4.99211429 86.85875,5.47611429 C86.8175,5.5176 86.79,5.50377143 86.79,5.46228571 C86.79,5.24102857 86.80375,4.71554286 86.80375,4.56342857 C86.80375,4.42514286 86.77625,4.36982857 86.74875,4.36982857 C86.7075,4.36982857 86.63875,4.38365714 86.5425,4.43897143 C86.3225,4.56342857 85.9375,4.70171429 85.6625,4.77085714 C85.53875,4.81234286 85.45625,4.86765714 85.45625,4.89531429 C85.45625,4.92297143 85.47,4.96445714 85.56625,5.0336 C85.8275,5.25485714 85.92375,5.29634286 85.92375,5.39314286 L85.92375,6.92811429 C85.92375,7.8408 85.91,8.62902857 85.8825,8.86411429 C85.8275,9.23748571 85.67625,9.36194286 85.3875,9.43108571 C85.2775,9.45874286 85.18125,9.52788571 85.18125,9.56937143 C85.18125,9.62468571 85.25,9.65234286 85.415,9.65234286 Z M90.2825,13.4413714 C90.43375,13.4413714 90.59875,13.3998857 90.73625,13.2062857 C90.8325,13.0818286 90.90125,12.9435429 90.9975,12.6946286 C91.19,12.2244571 91.7125,10.7862857 92.0425,9.98422857 C92.33125,9.23748571 92.455,8.91942857 92.62,8.46308571 C92.82625,7.9376 93.67875,5.808 93.84375,5.46228571 C94.06375,4.95062857 94.20125,4.85382857 94.47625,4.77085714 C94.61375,4.72937143 94.66875,4.67405714 94.66875,4.63257143 C94.66875,4.59108571 94.58625,4.57725714 94.50375,4.57725714 C94.2975,4.57725714 94.11875,4.61874286 93.87125,4.61874286 C93.665,4.61874286 93.37625,4.57725714 93.21125,4.57725714 C93.0875,4.57725714 93.01875,4.60491429 93.01875,4.66022857 C93.01875,4.70171429 93.06,4.7432 93.26625,4.78468571 C93.5,4.85382857 93.56875,4.96445714 93.56875,5.06125714 C93.56875,5.1304 93.56875,5.29634286 93.5,5.46228571 C93.39,5.78034286 92.62,7.77165714 92.44125,8.24182857 C92.4275,8.28331429 92.38625,8.29714286 92.35875,8.24182857 C92.08375,7.66102857 91.3275,5.79417143 91.14875,5.31017143 C91.025,4.95062857 91.0525,4.88148571 91.355,4.78468571 C91.4375,4.77085714 91.53375,4.72937143 91.53375,4.67405714 C91.53375,4.61874286 91.4375,4.57725714 91.3,4.57725714 C91.12125,4.57725714 90.76375,4.61874286 90.57125,4.61874286 C90.24125,4.61874286 89.85625,4.56342857 89.60875,4.56342857 C89.5125,4.56342857 89.38875,4.59108571 89.38875,4.66022857 C89.38875,4.70171429 89.47125,4.75702857 89.63625,4.79851429 C89.87,4.85382857 90.035,4.99211429 90.13125,5.17188571 C90.75,6.52708571 91.63,8.76731429 91.83625,9.30662857 C91.8775,9.43108571 91.905,9.56937143 91.85,9.74914286 C91.3825,10.9522286 90.98375,12.0861714 90.84625,12.3765714 C90.76375,12.5701714 90.65375,12.6116571 90.48875,12.6116571 C90.3925,12.6116571 90.31,12.584 90.21375,12.584 C90.0075,12.584 89.82875,12.7776 89.82875,12.9850286 C89.82875,13.2616 90.0625,13.4413714 90.2825,13.4413714 Z M3.135,24.8210286 C3.63,24.8210286 4.2625,24.6274286 4.68875,24.2955429 C5.12875,23.9498286 5.7475,23.2030857 5.7475,22.1521143 C5.7475,20.6862857 4.60625,19.5385143 3.1075,19.5385143 C2.4475,19.5385143 1.82875,19.8289143 1.4575,20.1193143 C0.94875,20.5341714 0.4675,21.2117714 0.4675,22.2627429 C0.4675,23.7009143 1.71875,24.8210286 3.135,24.8210286 Z M3.3275,24.5859429 C2.90125,24.5859429 2.40625,24.3646857 2.035,23.8530286 C1.595,23.2722286 1.4575,22.5393143 1.4575,21.9585143 C1.4575,20.5203429 2.2,19.7736 2.90125,19.7736 C4.11125,19.7736 4.77125,21.0734857 4.77125,22.3872 C4.77125,23.3828571 4.4,24.0466286 4.19375,24.2402286 C3.97375,24.4338286 3.6575,24.5859429 3.3275,24.5859429 Z M6.69625,24.7104 C6.93,24.6965714 7.2325,24.6550857 7.54875,24.6550857 C8.25,24.6550857 8.47,24.6965714 8.86875,24.6965714 C8.9925,24.6965714 9.08875,24.6689143 9.08875,24.5997714 C9.08875,24.5444571 9.00625,24.5168 8.84125,24.4753143 C8.6625,24.4338286 8.51125,24.4338286 8.40125,24.3923429 C8.26375,24.3508571 8.15375,24.2402286 8.1125,23.7147429 C8.09875,23.3137143 8.07125,20.7969143 8.07125,20.2852571 C8.07125,20.2714286 8.09875,20.1608 8.14,20.1608 C8.3325,20.1608 9.3225,20.1884571 9.5425,20.1884571 C9.7075,20.1884571 9.735,20.1331429 9.735,19.9395429 C9.735,19.7736 9.68,19.6906286 9.625,19.6906286 C9.47375,19.6906286 8.305,19.7182857 8.18125,19.7182857 C8.1125,19.7182857 8.07125,19.6629714 8.07125,19.6353143 C8.0575,19.5523429 8.0575,19.3449143 8.0575,19.1928 C8.0575,18.7641143 8.085,17.7822857 8.12625,17.3536 C8.26375,15.8739429 8.745,15.4729143 9.36375,15.4729143 C9.85875,15.4729143 10.1475,15.8186286 10.34,15.9430857 C10.395,15.9984 10.5325,16.0260571 10.615,15.9707429 C10.7525,15.9016 10.95875,15.6803429 10.95875,15.5144 C10.95875,15.3069714 10.5875,15.0718857 10.02375,15.0718857 C9.6525,15.0718857 9.19875,15.1686857 8.78625,15.4452571 C8.07125,15.8739429 7.63125,16.5377143 7.3975,17.2844571 C7.2325,17.8376 7.1775,18.5843429 7.16375,19.5523429 C7.16375,19.5938286 7.1225,19.6906286 7.02625,19.7459429 L6.69625,19.9533714 C6.6,20.0086857 6.53125,20.0501714 6.53125,20.0916571 C6.53125,20.1193143 6.61375,20.1884571 6.71,20.2022857 C6.875,20.2161143 7.02625,20.2161143 7.095,20.2161143 C7.15,20.2299429 7.16375,20.2990857 7.16375,20.3958857 L7.16375,23.7147429 C7.16375,24.2125714 7.095,24.4061714 6.765,24.4891429 C6.58625,24.5306286 6.49,24.5721143 6.49,24.6274286 C6.49,24.6827429 6.5725,24.7104 6.69625,24.7104 Z M16.5825,24.7380571 C16.76125,24.7380571 16.8575,24.7242286 16.8575,24.6412571 C16.8575,24.5721143 16.78875,24.5444571 16.62375,24.5029714 C16.15625,24.3646857 16.01875,24.2678857 15.96375,23.7977143 C15.9225,23.3690286 15.8675,21.6542857 15.88125,20.8798857 C15.88125,20.2990857 15.90875,17.0770286 15.90875,16.5653714 C15.90875,16.4685714 15.9225,16.3579429 15.99125,16.3441143 C16.15625,16.3233714 16.5842188,16.3181857 16.9677148,16.3168893 L17.325,16.3164571 C18.2875,16.3164571 18.46625,16.3717714 18.59,16.4824 C18.7,16.5930286 18.81,16.8834286 18.8375,17.1323429 C18.85125,17.2014857 18.8925,17.3259429 18.9475,17.3259429 C18.98875,17.3259429 19.0575,17.2291429 19.0575,17.0217143 C19.04375,16.5515429 19.04375,16.1366857 19.09875,15.9707429 C19.1125,15.8601143 19.09875,15.8324571 19.085,15.7909714 C19.07125,15.7633143 19.03,15.7771429 18.975,15.8186286 C18.74125,15.9430857 18.49375,15.9707429 17.8475,15.9707429 L15.4825,15.9845714 C14.06625,15.9845714 12.705,15.9430857 12.485,15.9292571 C12.2925,15.9154286 12.1,15.8601143 12.045,15.7909714 C12.00375,15.7494857 11.9625,15.7218286 11.935,15.7356571 C11.86625,15.7633143 11.86625,15.8324571 11.8525,15.9430857 C11.8525,16.3026286 11.7425,16.7174857 11.67375,17.1323429 C11.66,17.2291429 11.66,17.3397714 11.715,17.3397714 C11.77,17.3397714 11.83875,17.2706286 11.9075,17.1046857 C12.1,16.5653714 12.27875,16.3994286 12.54,16.3441143 C12.815,16.3164571 13.145,16.2888 13.70875,16.2888 C14.34125,16.2888 14.6575,16.3164571 14.74,16.3302857 C14.78125,16.3302857 14.8225,16.3717714 14.83625,16.4962286 C14.86375,16.6898286 14.86375,22.1936 14.7675,23.5349714 C14.72625,24.1710857 14.64375,24.3923429 13.98375,24.4891429 C13.8325,24.5168 13.70875,24.5582857 13.70875,24.6136 C13.70875,24.6827429 13.7775,24.7380571 13.95625,24.7380571 C14.17625,24.7380571 14.58875,24.6550857 15.29,24.6550857 C15.84,24.6550857 16.26625,24.7380571 16.5825,24.7380571 Z M20.68,24.8210286 C21.175,24.8210286 21.8075,24.6274286 22.23375,24.2955429 C22.67375,23.9498286 23.2925,23.2030857 23.2925,22.1521143 C23.2925,20.6862857 22.15125,19.5385143 20.6525,19.5385143 C19.9925,19.5385143 19.37375,19.8289143 19.0025,20.1193143 C18.49375,20.5341714 18.0125,21.2117714 18.0125,22.2627429 C18.0125,23.7009143 19.26375,24.8210286 20.68,24.8210286 Z M20.8725,24.5859429 C20.44625,24.5859429 19.95125,24.3646857 19.58,23.8530286 C19.14,23.2722286 19.0025,22.5393143 19.0025,21.9585143 C19.0025,20.5203429 19.745,19.7736 20.44625,19.7736 C21.65625,19.7736 22.31625,21.0734857 22.31625,22.3872 C22.31625,23.3828571 21.945,24.0466286 21.73875,24.2402286 C21.51875,24.4338286 21.2025,24.5859429 20.8725,24.5859429 Z M26.015,24.7795429 C26.4,24.7795429 26.82625,24.6550857 27.12875,24.42 C27.3075,24.2817143 27.43125,24.1434286 27.43125,24.0604571 C27.43125,24.0051429 27.39,23.9913143 27.29375,24.0604571 C27.17,24.1434286 26.9225,24.2678857 26.5375,24.2678857 C26.18,24.2678857 25.89125,24.1572571 25.685,23.8945143 C25.58875,23.7562286 25.56125,23.5902857 25.53375,23.1477714 C25.52,22.7190857 25.50625,20.548 25.50625,20.3129143 C25.50625,20.2299429 25.53375,20.1884571 25.69875,20.1884571 C26.07,20.1884571 26.74375,20.2022857 27.225,20.2022857 C27.29375,20.2022857 27.3625,20.0916571 27.3625,19.8565714 C27.3625,19.7597714 27.3075,19.6629714 27.28,19.6629714 C26.99125,19.6629714 25.85,19.7044571 25.6025,19.7044571 C25.5475,19.7044571 25.53375,19.6214857 25.53375,19.58 C25.52,19.4140571 25.5475,19.0268571 25.5475,18.9024 C25.5475,18.8332571 25.45125,18.8056 25.3275,18.9438857 C24.9975,19.3725714 24.54375,19.7459429 24.2,19.8704 C24.04875,19.9395429 24.035,19.9810286 24.035,20.0086857 C24.035,20.064 24.10375,20.1054857 24.21375,20.1331429 C24.3375,20.1608 24.48875,20.1884571 24.54375,20.2161143 C24.59875,20.2437714 24.6125,20.3405714 24.6125,20.4926857 L24.6125,23.3552 C24.6125,23.6870857 24.6675,23.9636571 24.7775,24.1434286 C25.01125,24.5859429 25.4375,24.7795429 26.015,24.7795429 Z M30.415,24.8210286 C30.91,24.8210286 31.5425,24.6274286 31.96875,24.2955429 C32.40875,23.9498286 33.0275,23.2030857 33.0275,22.1521143 C33.0275,20.6862857 31.88625,19.5385143 30.3875,19.5385143 C29.7275,19.5385143 29.10875,19.8289143 28.7375,20.1193143 C28.22875,20.5341714 27.7475,21.2117714 27.7475,22.2627429 C27.7475,23.7009143 28.99875,24.8210286 30.415,24.8210286 Z M30.6075,24.5859429 C30.18125,24.5859429 29.68625,24.3646857 29.315,23.8530286 C28.875,23.2722286 28.7375,22.5393143 28.7375,21.9585143 C28.7375,20.5203429 29.48,19.7736 30.18125,19.7736 C31.39125,19.7736 32.05125,21.0734857 32.05125,22.3872 C32.05125,23.3828571 31.68,24.0466286 31.47375,24.2402286 C31.25375,24.4338286 30.9375,24.5859429 30.6075,24.5859429 Z M33.935,24.7380571 C34.1275,24.7380571 34.27875,24.6550857 34.77375,24.6550857 C35.35125,24.6550857 35.805,24.7104 36.06625,24.7104 C36.2725,24.7104 36.39625,24.6827429 36.39625,24.6136 C36.39625,24.5444571 36.3275,24.5168 36.135,24.4891429 C35.6125,24.4338286 35.4475,24.3370286 35.3925,23.9083429 C35.365,23.6179429 35.3375,22.8988571 35.3375,21.8755429 C35.3375,21.5989714 35.32375,21.1979429 35.35125,21.032 C35.365,20.8660571 35.43375,20.7139429 35.585,20.548 C35.76375,20.3820571 35.98375,20.2714286 36.19,20.2714286 C36.34125,20.2714286 36.52,20.3405714 36.67125,20.4373714 C36.8225,20.5203429 36.89125,20.5341714 36.91875,20.5341714 C36.96,20.5341714 37.015,20.5203429 37.13875,20.4097143 C37.30375,20.2576 37.44125,20.0363429 37.44125,19.9395429 C37.44125,19.8704 37.41375,19.8012571 37.345,19.7459429 C37.2075,19.6353143 37.02875,19.5661714 36.86375,19.5661714 C36.31375,19.5661714 35.76375,20.0778286 35.37875,20.5618286 C35.3375,20.6033143 35.31,20.5894857 35.31,20.548 C35.31,20.3267429 35.32375,19.8012571 35.32375,19.6491429 C35.32375,19.5108571 35.29625,19.4555429 35.26875,19.4555429 C35.2275,19.4555429 35.15875,19.4693714 35.0625,19.5246857 C34.8425,19.6491429 34.4575,19.7874286 34.1825,19.8565714 C34.05875,19.8980571 33.97625,19.9533714 33.97625,19.9810286 C33.97625,20.0086857 33.99,20.0501714 34.08625,20.1193143 C34.3475,20.3405714 34.44375,20.3820571 34.44375,20.4788571 L34.4426042,22.4578153 C34.4387847,23.1738921 34.4254167,23.7539238 34.4025,23.9498286 C34.3475,24.3232 34.19625,24.4476571 33.9075,24.5168 C33.7975,24.5444571 33.70125,24.6136 33.70125,24.6550857 C33.70125,24.7104 33.77,24.7380571 33.935,24.7380571 Z M41.09875,24.8072 C41.53875,24.8072 41.965,24.5997714 42.1575,24.2125714 C42.2125,24.0881143 42.1575,24.0466286 42.075,24.0881143 C41.92375,24.1710857 41.78625,24.2125714 41.67625,24.2125714 C41.29125,24.2125714 41.1675,23.9498286 41.1675,23.6870857 C41.1675,23.3275429 41.20875,22.0138286 41.20875,21.5021714 C41.20875,21.0734857 41.15375,20.5065143 41.01625,20.2437714 C40.85125,19.8150857 40.425,19.5385143 39.9575,19.5385143 C39.72375,19.5385143 39.44875,19.6214857 39.1325,19.7874286 C38.8575,19.9257143 38.40375,20.2161143 38.0875,20.5894857 C37.9225,20.7830857 37.82625,20.9075429 37.82625,21.0043429 C37.82625,21.0596571 37.895,21.1426286 37.96375,21.1288 C38.06,21.1149714 38.4725,20.9213714 38.61,20.8245714 C38.6375,20.7969143 38.665,20.7554286 38.665,20.7139429 C38.665,20.6171429 38.665,20.5065143 38.67875,20.4512 C38.70625,20.2990857 38.78875,20.2022857 38.885,20.1193143 C39.09125,19.9948571 39.22875,19.9533714 39.435,19.9533714 C39.6,19.9533714 39.83375,20.0363429 40.0125,20.1746286 C40.24625,20.3544 40.3425,20.7416 40.3425,21.3085714 C40.3425,21.5021714 40.3425,21.7787429 40.315,21.9446857 C40.315,22 40.24625,22.1244571 40.13625,22.1521143 C39.8475,22.2627429 38.59625,22.6361143 38.26625,22.8158857 C38.1425,22.8850286 37.77125,23.1616 37.77125,23.6041143 C37.77125,24.3232 38.32125,24.7933714 38.87125,24.7933714 C39.39375,24.7933714 39.80625,24.5582857 40.21875,24.1710857 C40.2325,24.1572571 40.27375,24.1572571 40.2875,24.1849143 C40.41125,24.5029714 40.71375,24.8072 41.09875,24.8072 Z M39.47625,24.2678857 C39.05,24.2678857 38.65125,23.9498286 38.65125,23.4934857 C38.65125,23.0924571 38.83,22.8850286 38.995,22.8020571 C39.28375,22.6499429 40.08125,22.3595429 40.26,22.3318857 C40.2875,22.3180571 40.315,22.3872 40.315,22.4010286 C40.315,22.9265143 40.2875,23.4796571 40.24625,23.7147429 C40.2325,23.8668571 40.15,23.9913143 40.095,24.0466286 C39.94375,24.1849143 39.71,24.2678857 39.47625,24.2678857 Z M44.495,24.6827429 C44.67375,24.6827429 44.77,24.6412571 44.77,24.5859429 C44.77,24.5444571 44.67375,24.5029714 44.59125,24.4891429 C44.20625,24.42 44.12375,24.3232 44.11,23.9498286 C44.09625,23.6870857 44.0825,23.0371429 44.0825,21.2947429 L44.0825,19.8289143 C44.0825,17.7546286 44.1375,15.3622857 44.1375,15.2654857 C44.1375,15.1963429 44.12375,15.1133714 44.09625,15.1133714 C44.04125,15.1133714 43.9725,15.1410286 43.93125,15.1548571 C43.62875,15.2654857 43.29875,15.3899429 42.9,15.4729143 C42.77625,15.5005714 42.69375,15.5420571 42.69375,15.5835429 C42.69375,15.6250286 42.735,15.6526857 42.83125,15.708 C43.18875,15.9292571 43.21625,15.9984 43.21625,16.3026286 C43.23,16.9110857 43.21625,18.0450286 43.21625,19.1651429 C43.2025,20.8245714 43.1475,23.1616 43.12,23.6732571 C43.065,24.2817143 42.9825,24.4061714 42.63875,24.4753143 C42.46,24.5168 42.39125,24.5306286 42.39125,24.5997714 C42.39125,24.6689143 42.46,24.6827429 42.625,24.6827429 C42.83125,24.6827429 43.18875,24.6550857 43.54625,24.6550857 C43.78,24.6550857 44.275,24.6827429 44.495,24.6827429 Z M50.58625,24.7380571 C51.43875,24.7380571 51.975,24.5721143 52.25,24.4476571 C53.19875,24.0189714 53.79,23.2998857 53.79,22.2350857 C53.79,21.516 53.50125,20.9213714 53.06125,20.548 C52.745,20.2990857 52.42875,20.0778286 51.865,19.8565714 C51.82375,19.8289143 51.76875,19.7874286 51.85125,19.7459429 C52.09875,19.6353143 52.34625,19.4832 52.59375,19.2896 C52.84125,19.0821714 53.17125,18.5843429 53.17125,18.0450286 C53.17125,16.4962286 51.93375,15.8186286 50.435,15.8186286 C49.995,15.8186286 49.4725,15.8739429 49.0875,15.9292571 C48.77125,15.9707429 47.96,15.9845714 47.7675,15.9707429 C47.63,15.9707429 47.52,16.0122286 47.52,16.0675429 C47.52,16.0952 47.56125,16.1505143 47.72625,16.1781714 C48.27625,16.3026286 48.3725,16.4132571 48.4,16.9110857 C48.4114583,17.3605143 48.4229167,18.5493873 48.4264178,19.365337 L48.4266159,21.1389675 C48.4243171,22.3110575 48.4160417,23.4174286 48.38625,23.6870857 C48.345,24.1849143 48.13875,24.42 47.58875,24.4753143 C47.465,24.5029714 47.36875,24.5306286 47.36875,24.5997714 C47.36875,24.6412571 47.45125,24.6965714 47.6575,24.6965714 L48.613105,24.6972165 C48.8484184,24.6988292 49.1248214,24.7044735 49.5275,24.7242286 C50.0775,24.7380571 50.3525,24.7380571 50.58625,24.7380571 Z M49.5825,19.7321143 C49.45875,19.7321143 49.43125,19.5938286 49.43125,19.5385143 C49.4175,18.4875429 49.43125,16.5792 49.45875,16.3302857 C49.45875,16.2888 49.5275,16.1228571 49.5825,16.1090286 C49.65125,16.0813714 49.9125,16.0537143 50.11875,16.0537143 C51.2325,16.0537143 52.09875,16.7728 52.09875,18.0865143 C52.09875,19.1098286 51.19125,19.6768 50.5175,19.7459429 C50.3525,19.7736 49.78875,19.7736 49.5825,19.7321143 Z M50.875,24.5029714 C50.16,24.5029714 49.8025,24.1849143 49.665,23.9774857 C49.56875,23.8253714 49.5275,23.4658286 49.4725,22.8297143 C49.4175,22.3733714 49.37625,20.5203429 49.43125,20.2161143 C49.445,20.1469714 49.48625,20.064 49.555,20.0501714 C49.6925,20.0363429 49.95375,20.0225143 50.22875,20.0225143 C51.1225,20.0225143 51.535,20.1331429 52.085,20.8245714 C52.51125,21.2947429 52.62125,21.9585143 52.62125,22.3872 C52.62125,23.5488 52.1125,24.0328 51.645,24.3093714 C51.38375,24.4476571 51.095,24.5029714 50.875,24.5029714 Z M58.06625,24.8072 C58.50625,24.8072 58.9325,24.5997714 59.125,24.2125714 C59.18,24.0881143 59.125,24.0466286 59.0425,24.0881143 C58.89125,24.1710857 58.75375,24.2125714 58.64375,24.2125714 C58.25875,24.2125714 58.135,23.9498286 58.135,23.6870857 C58.135,23.3275429 58.17625,22.0138286 58.17625,21.5021714 C58.17625,21.0734857 58.12125,20.5065143 57.98375,20.2437714 C57.81875,19.8150857 57.3925,19.5385143 56.925,19.5385143 C56.69125,19.5385143 56.41625,19.6214857 56.1,19.7874286 C55.825,19.9257143 55.37125,20.2161143 55.055,20.5894857 C54.89,20.7830857 54.79375,20.9075429 54.79375,21.0043429 C54.79375,21.0596571 54.8625,21.1426286 54.93125,21.1288 C55.0275,21.1149714 55.44,20.9213714 55.5775,20.8245714 C55.605,20.7969143 55.6325,20.7554286 55.6325,20.7139429 C55.6325,20.6171429 55.6325,20.5065143 55.64625,20.4512 C55.67375,20.2990857 55.75625,20.2022857 55.8525,20.1193143 C56.05875,19.9948571 56.19625,19.9533714 56.4025,19.9533714 C56.5675,19.9533714 56.80125,20.0363429 56.98,20.1746286 C57.21375,20.3544 57.31,20.7416 57.31,21.3085714 C57.31,21.5021714 57.31,21.7787429 57.2825,21.9446857 C57.2825,22 57.21375,22.1244571 57.10375,22.1521143 C56.815,22.2627429 55.56375,22.6361143 55.23375,22.8158857 C55.11,22.8850286 54.73875,23.1616 54.73875,23.6041143 C54.73875,24.3232 55.28875,24.7933714 55.83875,24.7933714 C56.36125,24.7933714 56.77375,24.5582857 57.18625,24.1710857 C57.2,24.1572571 57.24125,24.1572571 57.255,24.1849143 C57.37875,24.5029714 57.68125,24.8072 58.06625,24.8072 Z M56.44375,24.2678857 C56.0175,24.2678857 55.61875,23.9498286 55.61875,23.4934857 C55.61875,23.0924571 55.7975,22.8850286 55.9625,22.8020571 C56.25125,22.6499429 57.04875,22.3595429 57.2275,22.3318857 C57.255,22.3180571 57.2825,22.3872 57.2825,22.4010286 C57.2825,22.9265143 57.255,23.4796571 57.21375,23.7147429 C57.2,23.8668571 57.1175,23.9913143 57.0625,24.0466286 C56.91125,24.1849143 56.6775,24.2678857 56.44375,24.2678857 Z M60.51375,18.1971429 C60.87125,18.1971429 61.0225,17.9067429 61.0225,17.6301714 C61.0225,17.3536 60.78875,17.1323429 60.59625,17.1323429 C60.3625,17.1323429 60.06,17.3259429 60.06,17.6854857 C60.06,17.9482286 60.2525,18.1971429 60.51375,18.1971429 Z M58.96,28.6100571 C59.7025,28.2228571 60.775,27.0889143 60.89875,25.3326857 C60.9125,25.0561143 60.95375,24.3093714 60.95375,23.5764571 C60.9675,22.4148571 60.98125,20.9490286 60.98125,19.6768 C60.98125,19.5523429 60.95375,19.4832 60.9125,19.4832 C60.8575,19.4832 60.8025,19.4970286 60.72,19.5523429 C60.51375,19.6768 60.12875,19.8150857 59.73,19.9533714 C59.5925,19.9948571 59.49625,20.0225143 59.49625,20.0916571 C59.49625,20.1193143 59.5375,20.1469714 59.63375,20.2022857 C59.73,20.2437714 59.8675,20.2990857 59.93625,20.3958857 C59.99125,20.4788571 60.01875,20.6448 60.0325,21.4192 C60.04625,21.9446857 60.06,23.2722286 60.06,23.936 C60.07375,24.6965714 60.04625,25.4433143 60.01875,25.9411429 C59.96375,26.9506286 59.57875,28.0569143 58.7675,28.4994286 C58.67125,28.5547429 58.61625,28.5824 58.61625,28.6377143 C58.61625,28.7206857 58.8225,28.6930286 58.96,28.6100571 Z M64.94125,24.8210286 C65.43625,24.8210286 66.06875,24.6274286 66.495,24.2955429 C66.935,23.9498286 67.55375,23.2030857 67.55375,22.1521143 C67.55375,20.6862857 66.4125,19.5385143 64.91375,19.5385143 C64.25375,19.5385143 63.635,19.8289143 63.26375,20.1193143 C62.755,20.5341714 62.27375,21.2117714 62.27375,22.2627429 C62.27375,23.7009143 63.525,24.8210286 64.94125,24.8210286 Z M65.13375,24.5859429 C64.7075,24.5859429 64.2125,24.3646857 63.84125,23.8530286 C63.40125,23.2722286 63.26375,22.5393143 63.26375,21.9585143 C63.26375,20.5203429 64.00625,19.7736 64.7075,19.7736 C65.9175,19.7736 66.5775,21.0734857 66.5775,22.3872 C66.5775,23.3828571 66.20625,24.0466286 66,24.2402286 C65.78,24.4338286 65.46375,24.5859429 65.13375,24.5859429 Z M71.555,18.2109714 C71.73375,18.2109714 72.06375,18.0588571 72.06375,17.6854857 C72.06375,17.4504 71.89875,17.16 71.5825,17.16 C71.3625,17.16 71.10125,17.3536 71.10125,17.6993143 C71.10125,17.9758857 71.3075,18.2109714 71.555,18.2109714 Z M72.31125,24.7104 C72.42125,24.7104 72.53125,24.6827429 72.53125,24.6136 C72.53125,24.5582857 72.4625,24.5306286 72.325,24.5029714 C72.105,24.4476571 71.9675,24.3785143 71.94,24.1019429 C71.9203571,23.9340245 71.9147449,23.3639487 71.9131414,22.6285751 L71.9130579,20.9777455 C71.9145455,20.3789714 71.92,19.8779429 71.94,19.6768 C71.95375,19.5246857 71.92625,19.4832 71.885,19.4832 C71.8575,19.4832 71.78875,19.5108571 71.67875,19.58 C71.39,19.7044571 71.06,19.8427429 70.68875,19.9395429 C70.565,19.9672 70.52375,20.0086857 70.52375,20.0501714 C70.52375,20.0778286 70.565,20.1193143 70.63375,20.1608 C71.01875,20.3682286 71.0325,20.4512 71.0325,20.6448 C71.0325,20.7830857 71.005,23.2998857 70.99125,23.7147429 C70.9775,24.2817143 70.85375,24.3923429 70.55125,24.4753143 C70.35875,24.5029714 70.29,24.5444571 70.29,24.5997714 C70.29,24.6550857 70.38625,24.6827429 70.4825,24.6827429 C70.63375,24.6827429 70.85375,24.6550857 71.3075,24.6550857 C71.67875,24.6550857 72.1875,24.7104 72.31125,24.7104 Z M78.4025,24.7104 C78.54,24.7104 78.65,24.6965714 78.65,24.6136 C78.65,24.5582857 78.5675,24.5306286 78.44375,24.4753143 C78.0725,24.3785143 78.03125,24.2955429 78.0175,23.3552 C78.0175,22.6637714 78.00375,22.5531429 78.00375,21.8202286 C77.99,21.032 77.88,20.3405714 77.56375,20.0086857 C77.385,19.8150857 77.055,19.5385143 76.49125,19.5385143 C76.2575,19.5385143 75.96875,19.5661714 75.68,19.7044571 C75.3775,19.8289143 75.0475,20.064 74.70375,20.3267429 C74.67625,20.3544 74.635,20.3129143 74.635,20.2852571 C74.62125,20.0916571 74.64875,19.7182857 74.6625,19.5523429 C74.67625,19.4832 74.6075,19.4278857 74.56625,19.4417143 C74.3325,19.5938286 73.7825,19.8289143 73.48,19.9118857 C73.35625,19.9533714 73.2875,19.9948571 73.2875,20.0225143 C73.2875,20.064 73.315,20.0916571 73.3975,20.1469714 C73.7275,20.3267429 73.755,20.4788571 73.755,20.6171429 C73.755,21.7372571 73.755,23.0094857 73.7275,24.0051429 C73.71375,24.2817143 73.65875,24.3785143 73.315,24.4476571 C73.15,24.4753143 73.02625,24.5306286 73.02625,24.5859429 C73.02625,24.6550857 73.13625,24.6827429 73.2875,24.6827429 C73.54875,24.6827429 73.8375,24.6550857 74.01625,24.6550857 C74.3325,24.6550857 75.00625,24.7104 75.11625,24.7104 C75.25375,24.7104 75.39125,24.7104 75.39125,24.6274286 C75.39125,24.5582857 75.3225,24.5306286 75.1575,24.4891429 C74.9375,24.42 74.7725,24.3508571 74.73125,24.0466286 C74.70375,23.8530286 74.6625,23.4934857 74.64875,22.5946286 C74.64875,21.7649143 74.635,21.0596571 74.635,20.8937143 C74.635,20.7830857 74.70375,20.5756571 74.8,20.4788571 C75.1575,20.1746286 75.515,20.0363429 75.8725,20.0363429 C76.18875,20.0363429 76.45,20.1331429 76.65625,20.2990857 C77,20.5618286 77.09625,20.8937143 77.09625,22.0138286 L77.09625,23.8945143 C77.09625,24.2955429 77.04125,24.3923429 76.71125,24.4753143 C76.5325,24.5168 76.45,24.5721143 76.45,24.6274286 C76.45,24.6827429 76.54625,24.7104 76.67,24.7104 C76.87625,24.7104 77.055,24.6550857 77.5225,24.6550857 C77.825,24.6550857 78.22375,24.7104 78.4025,24.7104 Z"/>
      <path fill="#000" d="M2.9425,39.8790857 C3.96,39.8790857 4.60625,39.2844571 4.88125,38.8557714 C4.96375,38.7313143 4.99125,38.6621714 4.99125,38.6068571 C4.99125,38.5515429 4.93625,38.5515429 4.8675,38.6068571 C4.46875,38.9664 4.125,39.0770286 3.53375,39.0770286 C3.2175,39.0770286 2.70875,38.9525714 2.3375,38.5930286 C1.98,38.2611429 1.76,37.5697143 1.76,36.8921143 C1.76,35.3294857 2.475,34.8731429 2.84625,34.8731429 C3.0525,34.8731429 3.17625,34.9008 3.355,34.9837714 C3.5475,35.0667429 4.0425,35.4816 4.22125,35.6337143 C4.30375,35.7028571 4.41375,35.7581714 4.455,35.7581714 C4.66125,35.7581714 4.895,35.5369143 4.895,35.2188571 C4.895,35.1497143 4.82625,35.0114286 4.73,34.9561143 C4.5375,34.804 4.13875,34.5827429 3.3825,34.5827429 C2.62625,34.5827429 1.815,34.9837714 1.36125,35.3709714 C0.935,35.7305143 0.44,36.4357714 0.44,37.3069714 C0.44,38.0813714 0.67375,38.7174857 1.11375,39.1738286 C1.5675,39.6301714 2.24125,39.8790857 2.9425,39.8790857 Z M8.305,39.9067429 C8.81375,39.9067429 9.4875,39.7269714 9.955,39.3674286 C10.38125,39.0355429 11.0275,38.3026286 11.0275,37.1963429 C11.0275,35.7581714 9.91375,34.5827429 8.2775,34.5827429 C7.71375,34.5827429 7.08125,34.7625143 6.5175,35.2188571 C6.09125,35.5507429 5.54125,36.2145143 5.54125,37.2654857 C5.54125,38.7451429 6.7375,39.9067429 8.305,39.9067429 Z M8.47,39.6854857 C8.09875,39.6854857 7.71375,39.4089143 7.425,38.9249143 C7.08125,38.3302857 6.99875,37.5558857 6.99875,36.8921143 C6.99875,35.6890286 7.5625,34.8178286 8.15375,34.8178286 C9.11625,34.8178286 9.55625,35.9102857 9.55625,37.4867429 C9.55625,38.5100571 9.2675,39.1738286 9.1025,39.3674286 C8.95125,39.5610286 8.7175,39.6854857 8.47,39.6854857 Z M14.08,39.7822857 C14.2175,39.7822857 14.355,39.7408 14.355,39.6854857 C14.355,39.6163429 14.25875,39.5748571 14.17625,39.5610286 C13.81875,39.4780571 13.73625,39.4227429 13.7225,38.9802286 C13.70875,38.7313143 13.695,38.1781714 13.695,36.3804571 L13.695,35.3018286 C13.695,32.9094857 13.73625,30.6001143 13.73625,30.5033143 C13.73625,30.4341714 13.70875,30.3512 13.68125,30.3512 C13.62625,30.3512 13.5575,30.3788571 13.48875,30.4065143 C13.2,30.5033143 12.66375,30.7107429 12.1,30.7937143 C11.97625,30.8213714 11.89375,30.8628571 11.89375,30.9043429 C11.89375,30.9458286 11.935,31.0011429 12.03125,31.0564571 C12.3475,31.2224 12.41625,31.3192 12.41625,31.6372571 C12.43,32.1074286 12.41625,33.5732571 12.41625,34.3338286 C12.4025,35.6613714 12.3475,38.2334857 12.32,38.8004571 C12.2925,39.3950857 12.21,39.4780571 11.83875,39.5472 C11.72875,39.5748571 11.6325,39.6025143 11.6325,39.6716571 C11.6325,39.7408 11.7425,39.7684571 11.88,39.7684571 C12.25125,39.7684571 12.54,39.7408 12.91125,39.7408 C13.1175,39.7408 13.6675,39.7822857 14.08,39.7822857 Z M17.765,39.9067429 C18.27375,39.9067429 18.9475,39.7269714 19.415,39.3674286 C19.84125,39.0355429 20.4875,38.3026286 20.4875,37.1963429 C20.4875,35.7581714 19.37375,34.5827429 17.7375,34.5827429 C17.17375,34.5827429 16.54125,34.7625143 15.9775,35.2188571 C15.55125,35.5507429 15.00125,36.2145143 15.00125,37.2654857 C15.00125,38.7451429 16.1975,39.9067429 17.765,39.9067429 Z M17.93,39.6854857 C17.55875,39.6854857 17.17375,39.4089143 16.885,38.9249143 C16.54125,38.3302857 16.45875,37.5558857 16.45875,36.8921143 C16.45875,35.6890286 17.0225,34.8178286 17.61375,34.8178286 C18.57625,34.8178286 19.01625,35.9102857 19.01625,37.4867429 C19.01625,38.5100571 18.7275,39.1738286 18.5625,39.3674286 C18.41125,39.5610286 18.1775,39.6854857 17.93,39.6854857 Z M21.35375,39.8099429 C21.68375,39.8099429 21.67,39.7408 22.495,39.7408 C23.155,39.7408 23.4025,39.7961143 23.7875,39.7961143 C23.96625,39.7961143 24.07625,39.7684571 24.07625,39.6993143 C24.07625,39.6301714 24.02125,39.5886857 23.82875,39.5610286 C23.32,39.4918857 23.22375,39.3950857 23.16875,38.9802286 C23.14125,38.6621714 23.11375,38.0813714 23.11375,37.0995429 C23.11375,36.8368 23.1,36.2974857 23.14125,36.0347429 C23.16875,35.9102857 23.19625,35.8134857 23.2925,35.7166857 C23.43,35.5784 23.595,35.5230857 23.76,35.5230857 C23.91125,35.5230857 24.145,35.6337143 24.29625,35.7443429 C24.43375,35.8411429 24.5025,35.8411429 24.53,35.8411429 C24.59875,35.8411429 24.6675,35.8134857 24.805,35.6752 C25.03875,35.4401143 25.2175,35.1358857 25.2175,35.0114286 C25.2175,34.9008 25.1625,34.8316571 25.025,34.7348571 C24.915,34.6518857 24.75,34.5965714 24.57125,34.5965714 C24.035,34.5965714 23.54,35.0944 23.155,35.6060571 C23.14125,35.6475429 23.08625,35.6337143 23.08625,35.5645714 C23.08625,35.2603429 23.11375,34.8731429 23.11375,34.6242286 C23.11375,34.5550857 23.0725,34.4721143 23.045,34.4721143 C22.99,34.4721143 22.935,34.4859429 22.81125,34.5550857 C22.55,34.6933714 22.06875,34.8593143 21.49125,35.0114286 C21.43625,35.0390857 21.34,35.0944 21.34,35.1358857 C21.34,35.1773714 21.3675,35.2050286 21.45,35.2741714 C21.76625,35.5507429 21.8075,35.5784 21.8075,35.6613714 C21.82125,35.8273143 21.8075,36.1868571 21.8075,37.0580571 C21.79375,37.9707429 21.78,38.7589714 21.76625,38.9940571 C21.725,39.3812571 21.615,39.4918857 21.29875,39.5610286 C21.1475,39.5886857 21.0925,39.6578286 21.0925,39.7131429 C21.0925,39.7684571 21.175,39.8099429 21.35375,39.8099429 Z M26.7575,33.5041143 C27.06,33.5041143 27.43125,33.2966857 27.43125,32.8126857 C27.43125,32.4946286 27.17,32.1627429 26.82625,32.1627429 C26.5375,32.1627429 26.18,32.384 26.18,32.868 C26.18,33.2275429 26.46875,33.5041143 26.7575,33.5041143 Z M27.76125,39.8099429 C27.87125,39.8099429 27.9675,39.7822857 27.9675,39.7131429 C27.9675,39.6578286 27.92625,39.6163429 27.775,39.5748571 C27.5,39.5057143 27.43125,39.3812571 27.40375,39.1461714 C27.37625,38.9387429 27.37625,37.8324571 27.37625,36.2836571 C27.37625,35.7028571 27.37625,34.9976 27.40375,34.7072 C27.4175,34.5550857 27.39,34.5136 27.34875,34.5136 C27.3075,34.5136 27.2525,34.5550857 27.1425,34.5965714 C26.66125,34.7901714 26.41375,34.8869714 25.795,35.0114286 C25.64375,35.0529143 25.6025,35.0944 25.6025,35.1220571 C25.6025,35.1773714 25.64375,35.2188571 25.7125,35.2741714 C26.07,35.5230857 26.07,35.5784 26.07,35.8411429 C26.07,35.9794286 26.02875,38.3856 26.02875,38.8004571 C26.02875,39.2844571 25.9325,39.4642286 25.575,39.5472 C25.41,39.5748571 25.3275,39.6025143 25.3275,39.6716571 C25.3275,39.7269714 25.4375,39.7684571 25.56125,39.7684571 C25.7125,39.7684571 26.02875,39.7408 26.63375,39.7408 C27.21125,39.7408 27.5275,39.8099429 27.76125,39.8099429 Z M31.94125,39.7961143 C32.05125,39.7961143 32.29875,39.7408 33.0825,39.7408 C33.3575,39.7408 33.81125,39.7822857 34.1275,39.7822857 C34.25125,39.7822857 34.32,39.7546286 34.32,39.6993143 C34.32,39.6301714 34.2375,39.6025143 34.16875,39.5748571 C33.7975,39.4780571 33.72875,39.3674286 33.715,38.5100571 C33.715,37.7356571 33.70125,37.5973714 33.6875,36.7953143 C33.6875,35.9932571 33.53625,35.3709714 33.20625,35.0529143 C32.9725,34.804 32.6425,34.5827429 32.10625,34.5827429 C31.8175,34.5827429 31.5425,34.6518857 31.295,34.7625143 C31.02,34.8869714 30.75875,35.0805714 30.48375,35.3018286 C30.45625,35.3294857 30.415,35.3156571 30.415,35.288 C30.40125,35.0944 30.42875,34.7486857 30.4425,34.5965714 C30.4425,34.5274286 30.37375,34.4721143 30.3325,34.4859429 C30.1125,34.6104 29.3425,34.9561143 28.875,35.0529143 C28.75125,35.0805714 28.6825,35.1220571 28.6825,35.1635429 C28.6825,35.1912 28.66875,35.2188571 28.7925,35.3018286 C29.0675,35.4954286 29.10875,35.6060571 29.10875,35.7443429 C29.10875,37.0165714 29.095,38.2196571 29.0675,39.0217143 C29.05375,39.3397714 29.02625,39.4504 28.64125,39.5195429 C28.5175,39.5472 28.39375,39.6025143 28.39375,39.6578286 C28.39375,39.7269714 28.50375,39.7684571 28.655,39.7684571 C29.0675,39.7684571 29.425,39.7408 29.60375,39.7408 C29.92,39.7408 30.70375,39.7961143 30.84125,39.7961143 C30.9375,39.7961143 31.08875,39.7822857 31.08875,39.6993143 C31.08875,39.6301714 31.03375,39.6025143 30.86875,39.5610286 C30.62125,39.4780571 30.525,39.3950857 30.48375,39.0908571 C30.47,38.9249143 30.4425,38.2334857 30.42875,37.3761143 C30.42875,36.6708571 30.415,36.0209143 30.415,35.7581714 C30.415,35.6475429 30.48375,35.5230857 30.5525,35.4677714 C30.7175,35.3294857 31.00625,35.2050286 31.295,35.2050286 C31.4875,35.2050286 31.735,35.2465143 31.94125,35.3986286 C32.27125,35.6613714 32.35375,35.9517714 32.35375,37.0165714 L32.35375,39.0493714 C32.35375,39.3674286 32.285,39.4642286 31.91375,39.5748571 C31.79,39.6025143 31.7075,39.644 31.7075,39.6993143 C31.7075,39.7546286 31.80375,39.7961143 31.94125,39.7961143 Z M36.905,43.6542857 C37.55125,43.6542857 38.21125,43.4606857 38.89875,43.0043429 C39.5175,42.6171429 40.2325,41.7736 40.2325,40.9024 C40.2325,40.3630857 40.05375,39.9620571 39.75125,39.6854857 C39.5175,39.4780571 39.16,39.2982857 38.59625,39.2982857 C38.10125,39.2982857 37.49625,39.3121143 37.08375,39.3121143 C36.3275,39.3121143 35.92875,39.1185143 35.92875,38.7866286 C35.92875,38.7313143 35.9425,38.6345143 36.03875,38.5238857 C36.135,38.4132571 36.2725,38.2888 36.36875,38.2473143 C36.39625,38.2334857 36.465,38.2058286 36.52,38.2196571 C36.67125,38.2611429 36.97375,38.3026286 37.16625,38.3026286 C37.41375,38.3026286 37.93625,38.2058286 38.335,37.9154286 C38.83,37.5420571 39.17375,36.8506286 39.17375,36.1038857 L39.17287,35.8682469 C39.17155,35.7471086 39.16825,35.6309486 39.16,35.5645714 C39.16,35.5507429 39.20125,35.4954286 39.22875,35.4954286 C39.38,35.4954286 39.7925,35.5230857 39.99875,35.5230857 C40.05375,35.5230857 40.13625,35.3709714 40.13625,35.2326857 C40.13625,35.0252571 40.095,34.9008 40.04,34.9008 C39.80625,34.9008 39.31125,34.9284571 39.06375,34.9284571 C38.87125,34.9284571 38.72,34.9146286 38.59625,34.8593143 C38.43125,34.7625143 37.79875,34.4997714 37.11125,34.4997714 C36.56125,34.4997714 35.95625,34.7072 35.57125,35.0944 C35.24125,35.4124571 34.99375,35.7581714 34.99375,36.4496 C34.99375,37.2378286 35.54375,37.8324571 36.08,38.1228571 C36.1075,38.1366857 36.12125,38.1643429 36.1075,38.1781714 C35.9425,38.3994286 35.21375,38.9940571 34.91125,39.2291429 C34.88375,39.2429714 34.85625,39.2982857 34.85625,39.3950857 C34.85625,40.0726857 35.695,40.5566857 35.95625,40.6396571 C35.98375,40.6534857 35.9975,40.7088 35.98375,40.7364571 C35.73625,40.9715429 35.2825,41.4278857 35.15875,41.58 C35.0075,41.7321143 34.88375,41.8842286 34.88375,42.1608 C34.88375,43.0596571 35.6675,43.6542857 36.905,43.6542857 Z M37.30375,38.0952 C37.015,38.0952 36.7675,37.8877714 36.58875,37.6250286 C36.45125,37.4037714 36.245,36.9059429 36.245,36.1038857 C36.245,35.6752 36.34125,35.2603429 36.52,34.9976 C36.63,34.8593143 36.8225,34.7072 37.02875,34.7072 C37.27625,34.7072 37.4275,34.7901714 37.675,35.1220571 C37.9225,35.4677714 38.07375,36.0900571 38.07375,36.7261714 C38.07375,37.3484571 37.8125,38.0952 37.30375,38.0952 Z M37.49625,43.1149714 C37.02875,43.1149714 36.64375,42.9905143 36.28625,42.7416 C35.90125,42.4788571 35.7225,42.0225143 35.7225,41.8012571 C35.7225,41.4693714 35.84625,41.0821714 36.19,40.7917714 C36.2175,40.7779429 36.3275,40.7226286 36.53375,40.7088 C36.91875,40.7088 37.7025,40.6811429 38.1975,40.6811429 C39.1325,40.6811429 39.435,41.1651429 39.435,41.7044571 C39.435,42.1054857 39.16,42.5894857 38.775,42.8384 C38.3625,43.1149714 37.8125,43.1149714 37.49625,43.1149714 Z M44.9075,39.9067429 C45.69125,39.9067429 46.5575,39.6025143 47.19,38.9525714 C47.4925,38.6483429 47.905,37.9845714 47.905,37.0304 C47.905,36.4634286 47.69875,35.8411429 47.2725,35.3709714 C46.95625,35.0114286 46.40625,34.6242286 45.54,34.6242286 C45.0725,34.6242286 44.59125,34.7901714 44.275,35.0114286 C44.23375,35.0252571 44.1925,35.0114286 44.1925,34.9146286 C44.1925,33.6838857 44.23375,31.3745143 44.275,30.5033143 C44.275,30.3512 44.2475,30.2958857 44.22,30.2958857 C44.165,30.2958857 44.09625,30.3097143 43.9725,30.3650286 C43.4775,30.5724571 42.72125,30.7107429 42.55625,30.7522286 C42.39125,30.7798857 42.33625,30.8352 42.33625,30.8766857 C42.33625,30.9043429 42.3775,30.9458286 42.4875,31.0288 C42.77625,31.2085714 42.80375,31.2915429 42.845,31.5128 C42.88625,31.7893714 42.9,32.5084571 42.9,33.6562286 C42.88625,35.1082286 42.85875,37.224 42.83125,37.9707429 C42.80375,38.9249143 42.7625,39.2568 42.72125,39.5057143 C42.72125,39.5472 42.7625,39.6301714 42.8175,39.6025143 C43.065,39.5057143 43.1475,39.5057143 43.21625,39.5333714 C43.65625,39.7408 44.37125,39.9067429 44.9075,39.9067429 Z M45.4025,39.6301714 C45.22375,39.6301714 44.94875,39.5748571 44.825,39.5057143 C44.64625,39.4089143 44.42625,39.2568 44.3575,39.0908571 C44.22,38.8004571 44.1375,38.0260571 44.1375,37.5144 C44.1375,36.9750857 44.12375,35.6890286 44.17875,35.4401143 C44.1925,35.3433143 44.22,35.2465143 44.275,35.2050286 C44.37125,35.1497143 44.5775,35.0805714 44.7975,35.0805714 C45.36125,35.0805714 45.80125,35.4539429 45.98,35.6752 C46.37875,36.1730286 46.5025,37.0304 46.5025,37.5005714 L46.48875,37.5005714 C46.48875,38.1366857 46.32375,38.8557714 46.10375,39.1876571 C45.91125,39.4918857 45.5675,39.6301714 45.4025,39.6301714 Z M51.52125,39.9067429 C52.03,39.9067429 52.70375,39.7269714 53.17125,39.3674286 C53.5975,39.0355429 54.24375,38.3026286 54.24375,37.1963429 C54.24375,35.7581714 53.13,34.5827429 51.49375,34.5827429 C50.93,34.5827429 50.2975,34.7625143 49.73375,35.2188571 C49.3075,35.5507429 48.7575,36.2145143 48.7575,37.2654857 C48.7575,38.7451429 49.95375,39.9067429 51.52125,39.9067429 Z M51.68625,39.6854857 C51.315,39.6854857 50.93,39.4089143 50.64125,38.9249143 C50.2975,38.3302857 50.215,37.5558857 50.215,36.8921143 C50.215,35.6890286 50.77875,34.8178286 51.37,34.8178286 C52.3325,34.8178286 52.7725,35.9102857 52.7725,37.4867429 C52.7725,38.5100571 52.48375,39.1738286 52.31875,39.3674286 C52.1675,39.5610286 51.93375,39.6854857 51.68625,39.6854857 Z M57.86,39.9067429 C58.36875,39.9067429 59.0425,39.7269714 59.51,39.3674286 C59.93625,39.0355429 60.5825,38.3026286 60.5825,37.1963429 C60.5825,35.7581714 59.46875,34.5827429 57.8325,34.5827429 C57.26875,34.5827429 56.63625,34.7625143 56.0725,35.2188571 C55.64625,35.5507429 55.09625,36.2145143 55.09625,37.2654857 C55.09625,38.7451429 56.2925,39.9067429 57.86,39.9067429 Z M58.025,39.6854857 C57.65375,39.6854857 57.26875,39.4089143 56.98,38.9249143 C56.63625,38.3302857 56.55375,37.5558857 56.55375,36.8921143 C56.55375,35.6890286 57.1175,34.8178286 57.70875,34.8178286 C58.67125,34.8178286 59.11125,35.9102857 59.11125,37.4867429 C59.11125,38.5100571 58.8225,39.1738286 58.6575,39.3674286 C58.50625,39.5610286 58.2725,39.6854857 58.025,39.6854857 Z M67.2375,39.8099429 C67.38875,39.8099429 67.49875,39.7684571 67.49875,39.6993143 C67.49875,39.644 67.44375,39.6025143 67.30625,39.5748571 C66.9075,39.5057143 66.77,39.3812571 66.37125,38.9387429 C65.835,38.3441143 64.91375,37.1963429 64.41875,36.5187429 C64.405,36.4910857 64.3775,36.4496 64.405,36.4219429 C64.72125,36.0900571 65.10625,35.7443429 65.4225,35.4816 C65.84875,35.1220571 66.15125,34.9837714 66.61875,34.8731429 C66.78375,34.8454857 66.83875,34.804 66.83875,34.7625143 C66.83875,34.7072 66.75625,34.6657143 66.605,34.6657143 C66.12375,34.6657143 65.67,34.7486857 65.16125,34.7486857 C65.05125,34.7486857 64.845,34.7348571 64.6525,34.7348571 C64.52875,34.7348571 64.41875,34.7763429 64.41875,34.8316571 C64.41875,34.9008 64.50125,34.9284571 64.63875,34.9561143 C65.05125,35.0252571 65.13375,35.1358857 65.13375,35.2050286 C65.13375,35.2603429 65.07875,35.3433143 65.01,35.4262857 C64.7625,35.8134857 64.02,36.5464 63.53875,36.8782857 C63.45625,36.9336 63.36,37.0027429 63.305,37.0027429 C63.26375,37.0027429 63.23625,36.9336 63.23625,36.8091429 C63.2225,36.1177143 63.29125,33.7668571 63.29125,33.2966857 C63.29125,32.2595429 63.36,30.8766857 63.37375,30.3926857 C63.37375,30.3512 63.3325,30.2958857 63.31875,30.2958857 C63.26375,30.2958857 63.1675,30.3235429 63.07125,30.3650286 C63.0575,30.3788571 62.645,30.5862857 61.7375,30.7522286 C61.5725,30.7798857 61.47625,30.8352 61.47625,30.8905143 C61.47625,30.932 61.545,30.9734857 61.6,31.0149714 C61.80625,31.1256 61.93,31.2224 61.93,31.3192 C61.97125,31.5404571 61.985,31.6649143 61.985,31.9829714 C61.985,32.7573714 61.9575,35.1912 61.9575,35.772 C61.9575,36.8368 61.94375,37.8739429 61.88875,38.8834286 C61.86125,39.3397714 61.80625,39.4780571 61.39375,39.5748571 C61.28375,39.6025143 61.20125,39.644 61.20125,39.6993143 C61.20125,39.7546286 61.325,39.7961143 61.435,39.7961143 C61.50375,39.7961143 61.985,39.7408 62.52125,39.7408 C62.87875,39.7408 63.31875,39.7822857 63.7175,39.7822857 C63.81375,39.7822857 63.97875,39.7546286 63.97875,39.6716571 C63.97875,39.6163429 63.8825,39.5610286 63.745,39.5333714 C63.4425,39.4642286 63.26375,39.4227429 63.23625,38.7451429 C63.2225,38.2749714 63.20875,37.5144 63.23625,37.2931429 C63.25,37.224 63.25,37.1825143 63.29125,37.1825143 C63.3325,37.1825143 63.42875,37.2931429 63.56625,37.4590857 C63.9925,37.9569143 64.735,38.8834286 64.94125,39.16 C65.065,39.3536 65.01,39.4504 64.79,39.5195429 C64.58375,39.5748571 64.52875,39.6025143 64.52875,39.6716571 C64.52875,39.7408 64.5975,39.7684571 64.7625,39.7684571 C64.955,39.7684571 65.16125,39.7408 65.4225,39.7408 C66.0275,39.7408 66.45375,39.8099429 67.2375,39.8099429 Z M69.53375,37.2654857 C69.58875,37.2654857 69.6575,37.2101714 69.69875,36.8644571 C69.86375,35.5230857 70.44125,33.7253714 70.44125,32.8126857 C70.44125,32.2733714 70.13875,31.6372571 69.53375,31.6372571 C68.98375,31.6372571 68.6125,32.3010286 68.6125,32.8541714 C68.62625,33.8498286 69.17625,35.288 69.355,36.9059429 C69.39625,37.1963429 69.45125,37.2654857 69.53375,37.2654857 Z M69.5475,39.9205714 C69.8775,39.9205714 70.33125,39.6025143 70.33125,39.0770286 C70.33125,38.6898286 70.05625,38.2196571 69.5475,38.2196571 C69.12125,38.2196571 68.73625,38.5930286 68.73625,39.0770286 C68.75,39.5472 69.1075,39.9205714 69.5475,39.9205714 Z"/>
    </g>
    <g stroke="#222F3C" stroke-width=".4" transform="translate(12 26)">
      <path stroke-linecap="round" stroke-linejoin="round" d="M4.27029668 2.33272537L2.26466516 2.33272537C2.00808887 2.33272537 1.80090051 2.1217404 1.80090051 1.86197279L1.80090051.469533011C1.80090051.209765397 2.00808887 0 2.26466516 0L7.5416443 0"/>
      <g stroke-linecap="round" stroke-linejoin="round" transform="translate(0 2.946)">
        <g transform="translate(0 11.281)">
          <line x1="1.352" x2="2.766" y1="1" y2="1.149"/>
          <path/>
        </g>
        <line x1="3.128" x2="3.128" y1="3.259"/>
        <g transform="translate(0 3.323)">
          <line x1="2.638" x2=".848" y1="8.795" y2="8.92"/>
          <path/>
          <line x1=".065" x2=".189" y1="7.696" y2="7.571"/>
          <line x1=".072" x2="3.123" y1="7.571"/>
          <path d="M.0653486546 7.58651438C.0234893782 7.68895795 0 7.79993848 0 7.9185413 0 8.40179443.387273594 8.79388498.865794388 8.79388498"/>
          <line x1=".065" x2=".189" y1="7.695" y2="7.57"/>
        </g>
        <g transform="translate(0 3.323)">
          <line x1="2.638" x2=".848" y1="8.795" y2="8.92"/>
          <path/>
          <line x1=".065" x2=".189" y1="7.696" y2="7.571"/>
          <line x1=".072" x2="3.123" y1="7.571"/>
          <path d="M.0653486546 7.58651438C.0234893782 7.68895795 0 7.79993848 0 7.9185413 0 8.40179443.387273594 8.79388498.865794388 8.79388498"/>
          <line x1=".065" x2=".189" y1="7.695" y2="7.57"/>
        </g>
      </g>
      <g transform="translate(4.824 11.008)">
        <path/>
      </g>
      <g transform="translate(2.678 1.414)">
        <path stroke-linecap="round" stroke-linejoin="round" d="M5.03012385 2.33303026L7.82264954 2.33303026C8.05965135 2.33303026 8.25057783 2.1217404 8.25057783 1.86197279L8.25057783.469533011C8.25057783.209765397 8.05965135 0 7.82264954 0L2.49899278 0C2.26319556 0 2.07226908.209765397 2.07226908.469533011L2.07226908 1.86197279C2.07226908 2.1217404 2.26319556 2.33303026 2.49899278 2.33303026L3.42019801 2.33303026"/>
        <g stroke-linecap="round" stroke-linejoin="round" transform="translate(0 3.468)">
          <line x1="3.128" x2="3.128" y1="3.259"/>
          <g transform="translate(0 3.323)">
            <line x1="8.97" x2=".847" y1="8.796" y2="8.796"/>
            <path/>
            <line x1=".065" x2=".188" y1="7.696" y2="7.571"/>
            <line x1=".071" x2="3.123" y1="7.571"/>
            <path d="M.0653486546 7.58614851C.0234893782 7.68859208 0 7.80109706 0 7.91848032 0 8.40173345.387273594 8.793824.86489095 8.793824"/>
            <line x1=".065" x2=".189" y1="7.696" y2="7.571"/>
          </g>
          <line x1="7.194" x2="7.317" y1="3.259"/>
          <g transform="translate(0 3.323)">
            <line x1=".975" x2="9.475" y1="8.796" y2="8.92"/>
            <path/>
            <line x1="10.374" x2="10.251" y1="7.696" y2="7.571"/>
            <line x1="10.251" x2="7.199" y1="7.571"/>
            <path d="M10.2564358 7.58614851C10.2985962 7.68859208 10.3220856 7.80109706 10.3220856 7.91848032 10.3220856 8.40173345 9.93451087 8.793824 9.45719466 8.793824"/>
            <line x1="10.374" x2="10.25" y1="7.696" y2="7.571"/>
          </g>
          <g transform="translate(0 3.323)">
            <line x1=".975" x2="9.475" y1="8.796" y2="8.92"/>
            <path/>
            <line x1="10.374" x2="10.251" y1="7.696" y2="7.571"/>
            <line x1="10.251" x2="7.199" y1="7.571"/>
            <path d="M10.2564358 7.58614851C10.2985962 7.68859208 10.3220856 7.80109706 10.3220856 7.91848032 10.3220856 8.40173345 9.93451087 8.793824 9.45719466 8.793824"/>
            <line x1="10.374" x2="10.25" y1="7.696" y2="7.571"/>
          </g>
        </g>
        <line x1="5.823" x2="7.224" y1="4.258" y2="4.383"/>
        <line x1="5.823" x2="7.224" y1="3.445" y2="3.569"/>
        <line x1="5.823" x2="7.224" y1="5.08" y2="5.205"/>
        <line x1="5.823" x2="7.224" y1="5.903" y2="6.028"/>
        <line x1="5.823" x2="7.224" y1="6.725" y2="6.85"/>
      </g>
      <g transform="translate(5.484 11.393)">
        <path d="M0,1.48238279 C0,1.17179992 0.278359169,0.67767232 0.835077508,0 C1.39179585,0.67767232 1.67015502,1.17179992 1.67015502,1.48238279 C1.67015502,1.94947667 1.29643299,2.3278471 0.835077508,2.3278471 C0.37372203,2.3278471 0,1.94947667 0,1.48238279 Z"/>
      </g>
      <g transform="translate(7.227 13.485)">
        <path d="M0,1.48360236 C0,1.17220644 0.277957642,0.67767232 0.833872925,0 C1.39059126,0.67767232 1.66895043,1.17220644 1.66895043,1.48360236 C1.66895043,1.94947667 1.2952284,2.3278471 0.833872925,2.3278471 C0.37372203,2.3278471 0,1.94947667 0,1.48360236 Z"/>
      </g>
      <g transform="translate(7.688 10.489)">
        <path d="M0,1.48238279 C0,1.17179992 0.278359169,0.67767232 0.835077508,0 C1.39179585,0.67767232 1.67015502,1.17179992 1.67015502,1.48238279 C1.67015502,1.94947667 1.29643299,2.3278471 0.835077508,2.3278471 C0.37372203,2.3278471 0,1.94947667 0,1.48238279 Z"/>
      </g>
    </g>
    <g stroke="#222F3C" stroke-width=".4" transform="translate(133)">
      <path d="M2.39161821,11.9914482 L19.0207596,11.8794283 L18.9381723,24.1292983 C18.9344844,24.6763145 18.4919474,25.118849 17.9449312,25.1225339 L3.31592611,25.2210801 C2.76365389,25.2248004 2.31293289,24.7801112 2.30921259,24.227839 C2.30918233,24.2233464 2.30918234,24.2188537 2.30921263,24.2143611 L2.39161821,11.9914482 L2.39161821,11.9914482 Z" transform="rotate(43.256 10.662 18.554)"/>
      <polygon stroke-linecap="round" stroke-linejoin="round" points="11.656 1.917 14.982 1.895 14.925 10.404 11.599 10.426" transform="rotate(43.256 13.29 6.16)"/>
      <polygon stroke-linecap="round" stroke-linejoin="round" points="13.599 5.401 16.925 5.379 16.877 12.47 13.551 12.492" transform="rotate(43.256 15.238 8.935)"/>
      <polygon stroke-linecap="round" stroke-linejoin="round" points="15.543 8.887 18.869 8.864 18.831 14.537 15.505 14.559" transform="rotate(43.256 17.187 11.712)"/>
      <polygon stroke-linecap="round" stroke-linejoin="round" points="17.486 12.372 20.812 12.35 20.783 16.604 17.458 16.627" transform="rotate(43.256 19.135 14.488)"/>
      <polygon stroke-linecap="round" stroke-linejoin="round" points="19.429 15.856 22.755 15.834 22.736 18.67 19.41 18.693" transform="rotate(43.256 21.083 17.263)"/>
      <g stroke-linejoin="round" transform="translate(20.844 13.156)">
        <path d="M4.15565306 0L1.8474846 1.08199915 3.20154074 2.33909861 4.15565306 0zM1.84671837 1.08199915L0 1.94783999 2.43730105 4.21055863 3.20077451 2.33909861 1.84671837 1.08199915z"/>
      </g>
      <g stroke-linejoin="round" transform="translate(19.385 9.868)">
        <path d="M4.15565306 0L1.8474846 1.08199915 3.20154074 2.33909861 4.15565306 0zM1.84702437 1.08199915L0 1.94753809 2.43760705 4.21025673 3.20108051 2.33909861 1.84702437 1.08199915z"/>
      </g>
      <g stroke-linejoin="round" transform="translate(17.928 6.579)">
        <path d="M4.15470568,0 L1.84623122,1.08199915 L3.20059336,2.33909861 L4.15470568,0 Z"/>
        <path d="M1.84671837,1.08199915 L0,1.94753809 L2.43760705,4.21025673 L3.20108051,2.33909861 L1.84671837,1.08199915 Z"/>
      </g>
      <g stroke-linejoin="round" transform="translate(16.469 3.29)">
        <path d="M4.15470568,0 L1.84623122,1.08169725 L3.20059336,2.33879671 L4.15470568,0 Z"/>
        <path d="M1.84671837,1.08199915 L0,1.94783999 L2.43760705,4.21055863 L3.20108051,2.33909861 L1.84671837,1.08199915 Z"/>
      </g>
      <g stroke-linejoin="round" transform="translate(15.01)">
        <path d="M4.15470568,0 L1.84623122,1.08199915 L3.20059336,2.33909861 L4.15470568,0 Z"/>
        <path d="M1.84671837,1.08199915 L0,1.94753809 L2.43760705,4.21025673 L3.20108051,2.33909861 L1.84671837,1.08199915 Z"/>
      </g>
    </g>
    <line x2="162" stroke="#222F3C" stroke-linecap="round" stroke-linejoin="round" stroke-width=".5" transform="translate(0 90)"/>
    <g stroke="#222F3C" stroke-width=".5" transform="translate(27 30)">
      <g transform="translate(28.204 2.434)">
        <g transform="translate(26.558)">
          <path d="M5.29057302 14.1686045C5.29057302 19.3910339 9.70907798 23.626228 15.1602662 23.626228 20.6099286 23.626228 25.0287387 19.3910339 25.0287387 14.1686045 25.0287387 13.5936582 25.0223302 13.0861551 24.9197943 12.539895M17.8821434 55.6092707L21.4211577 55.6092707C22.2857045 55.6092707 22.9865582 56.3101244 22.9865582 57.1746712L22.9865582 57.5660067 22.9865582 57.5660067 17.8821434 57.5660067 17.8821434 55.6092707z"/>
          <path d="M7.33301053,55.6095344 L12.437426,55.6095344 L12.437426,56.0008703 C12.437426,56.8654169 11.7365725,57.5662704 10.8720258,57.5662704 L7.33301053,57.5662704 L7.33301053,57.5662704 L7.33301053,55.6095344 Z" transform="rotate(180 9.885 56.588)"/>
          <g transform="translate(3.59 13.85)">
            <path d="M1.70130293.318600848C1.70130293.211179872 1.7061856.106200283 1.7098476 0 .752540455.0787346923 0 .847466049 0 1.78617889 0 2.77616084.838597393 3.57998711 1.87250131 3.57998711L2.30492216 3.57998711C1.91491945 2.56223441 1.70130293 1.46483148 1.70130293.318600848zM21.4306872 0C21.4343492.106200283 21.439537.211179872 21.439537.318600848 21.439537 1.46483148 21.2256153 2.56223441 20.8356126 3.57998711L21.2680335 3.57998711C22.3019374 3.57998711 23.1405348 2.77616084 23.1405348 1.78617889 23.1405348.847466049 22.3879943.0787346923 21.4306872 0z"/>
          </g>
          <g transform="translate(9.374 14.902)">
            <path d="M11.5709204 0C11.5709204.584711901 11.0759405 1.05986661 10.4646921 1.05986661 9.85344368 1.05986661 9.35846371.584711901 9.35846371 0M2.21245673 0C2.21245673.584711901 1.71747676 1.05986661 1.10622837 1.05986661.496200641 1.05986661 0 .584711901 0 0"/>
          </g>
          <path d="M13.2878284 19.4185874C13.2878284 20.4100952 14.1264258 21.2123956 15.1603297 21.2123956 16.1927078 21.2123956 17.0313052 20.4100952 17.0313052 19.4185874M26.6100331 27.8711192C25.5263871 25.6448805 23.6914212 23.9047828 21.3913817 22.8974059 21.0889618 22.7121658 20.7477857 22.5833827 20.3803653 22.5235687 20.2613504 22.4985445 20.1401993 22.4848117 20.0190482 22.4848117 20.0001279 22.4848117 19.9827334 22.4860324 19.9653389 22.4860324L19.9241415 22.4848117 19.8640237 22.4848117C18.4654459 23.2123447 16.8627117 23.6261596 15.1604932 23.6261596 13.456749 23.6261596 11.85432 23.2123447 10.455437 22.4848117L10.3956244 22.4848117 10.3544269 22.4860324C10.3367272 22.4860324 10.3193328 22.4848117 10.3004124 22.4848117 10.1792614 22.4848117 10.0581103 22.4985445 9.93940053 22.5235687 9.57167496 22.5833827 9.23049887 22.7121658 8.92807893 22.8974059 6.62803942 23.9047828 4.79307359 25.6448805 3.70942754 27.8711192 3.62214993 28.0508662 3.54189116 28.2333598 3.46437888 28.4170741L6.80076363 29.1598657C7.04062446 28.6798282 7.33572041 28.2333598 7.6732345 27.8247328L7.6732345 36.7510497 22.6465313 36.7510497 22.6465313 27.8247328C22.9840454 28.2333598 23.2788362 28.6798282 23.5190022 29.1598657L26.8550818 28.4170741C26.7787902 28.2333598 26.6976159 28.0508662 26.6100331 27.8711192z"/>
          <path d="M10.3879171 22.3485629C10.3879171 24.8775334 12.5265235 26.927382 15.1640771 26.927382 17.8028514 26.927382 19.9414578 24.8775334 19.9414578 22.3485629M24.3515036 34.1097315C24.6014349 33.9894932 24.8824932 33.9208293 25.1812511 33.9208293 25.905106 33.9208293 26.5313075 34.3160286 26.8425773 34.8921956 27.4913611 32.7172261 27.3201628 30.4772546 26.486448 28.4985114L23.8937539 29.0771198C24.6414117 30.6084791 24.8400751 32.3833665 24.3515036 34.1097315z"/>
          <ellipse cx="25.181" cy="35.715" rx="1.872" ry="1.794"/>
          <path d="M2.70562524,33.3633901 C2.43829943,33.2361328 1.9820756,33.1671637 1.7019328,33.1671637 C2.94182407,31.8311153 3.76302697,30.1673109 3.80575027,28.4772616 L6.3956979,29.0671614 C6.22175303,31.1936084 5.33310834,33.2721433 3.74197049,34.9423563 C3.73067933,34.2935581 3.35318844,33.6734461 2.70562524,33.3633901 Z"/>
          <ellipse cx="1.872" cy="34.97" rx="1.872" ry="1.794"/>
          <path d="M15.1627857,0.487361642 C13.9003121,0.487361642 12.6903271,0.725091585 11.5679249,1.15996343 C8.18912204,1.53502133 5.09168262,1.14745133 2.58565576,0 L2.58565576,3.16861361 C2.58565576,5.28254854 3.4630093,7.3061522 4.92567207,8.8848133 L4.92567207,8.8848133 C4.68672674,9.83237617 4.55550517,10.8287668 4.55550517,11.8587264 C4.55550517,12.5600145 4.61684363,13.2448232 4.73067071,13.9110163 C4.91438091,13.8447937 5.10938227,13.8072574 5.31292829,13.8072574 L5.31689545,13.8072574 C5.33551061,12.4348934 5.59795375,11.1247848 6.06180675,9.92728504 C6.52047191,10.2861688 7.01545189,10.6075162 7.54308467,10.8836979 C9.78422705,12.0598355 12.5353026,12.0372527 15.0990059,11.5123548 C16.4826305,11.2297644 18.0252469,11.081145 19.5825113,11.0762622 C21.3662092,11.1049485 23.1175594,11.3924217 24.8325948,11.9624853 C24.9400134,12.5612352 24.999826,13.1773799 25.0086759,13.8072574 L25.0123379,13.8072574 C25.216189,13.8072574 25.4111904,13.8447937 25.5949006,13.9110163 C25.7050657,13.2637439 25.7648783,12.5987715 25.7685403,11.9173196 L25.7700661,11.8587264 C25.7700661,5.57856657 21.0213711,0.487361642 15.1627857,0.487361642 Z"/>
          <g transform="translate(7.673 37.952)">
            <path d="M7.50343257,5.46473696 L7.50343257,17.6423694 L14.2744657,17.6423694 L14.2744657,5.34358319 C15.0743069,4.41372037 14.9967946,1.28874653 14.9967946,0 L0,0.0524897949"/>
            <path d="M7.49426622,7.44500602 L7.49426622,17.6423694 L0.724453787,17.6423694 L0.724453787,5.34358319 C-0.0766081334,4.41372037 0.00212480958,1.28874653 0.00212480958,0 L14.998004,0.0524897949"/>
          </g>
        </g>
        <g transform="translate(0 1.267)">
          <path d="M0.593853903,0 C0.597515901,0.106200283 0.60270373,0.211485046 0.60270373,0.318906021 C0.60270373,1.46513666 0.390002718,2.56376027 0,3.57998711 L0.432420854,3.57998711 C1.46632477,3.57998711 2.3037015,2.77646601 2.3037015,1.78617889 C2.3037015,0.847466049 1.55268688,0.0787346923 0.593853903,0 Z" transform="translate(24.383 12.642)"/>
          <g transform="translate(9.333 13.695)">
            <path d="M11.5696998 1.06017179C11.5696998.475154713 11.0747198 0 10.4634714 0 9.85344368 0 9.35846371.475154713 9.35846371 1.06017179M2.21123607 1.06017179C2.21123607.475154713 1.71625609 0 1.10622837 0 .494979975 0 0 .475154713 0 1.06017179"/>
          </g>
          <path d="M13.2463331 18.2110975C13.2463331 19.2023002 14.0837098 20.0049057 15.1176137 20.0049057 16.1512125 20.0049057 16.9885892 19.2023002 16.9885892 18.2110975M27.5584733 32.0947532C27.8261043 31.9671908 28.2811075 31.8960855 28.5597245 31.8936441 27.3347863 30.5871975 26.5297573 28.9548259 26.4998509 27.2910215L23.9160067 27.8925179C24.0722519 29.9847856 24.9410607 32.0248686 26.5148041 33.6572402 26.5297573 33.0185126 26.9109101 32.4048092 27.5584733 32.0947532z"/>
          <line x1="7.715" x2="24.26" y1="23.434" y2="23.434"/>
          <g stroke-linecap="round" stroke-linejoin="round" transform="translate(21.036 16.444)">
            <path d="M0 5.04878585C2.08886432 3.83511193 3.26131381 2.32145273 4.08129604 0"/>
          </g>
          <path d="M4.4555595,12.6986437 C3.86536759,13.0059531 3.46163238,13.6196565 3.46163238,14.3310153 C3.46163238,15.042374 3.86536759,15.6597395 4.4555595,15.9673541 L4.4555595,12.6986437 Z"/>
          <g transform="translate(4.533)">
            <path d="M3.34618426 22.5334783C3.34618426 25.1958095 2.30617701 25.9895651.96497048 27.6722903L2.22500273 27.9533548C2.46608423 27.4720966 2.75995951 27.0259334 3.09869427 26.6185271L3.09869427 35.574751 18.0707704 35.574751 18.0707704 26.6185271C18.4095052 27.0259334 18.7030753 27.4720966 18.944462 27.9533548L22.2793209 27.2096477C22.2030293 27.0259334 22.1093432 26.8495433 22.0354929 26.6633876 21.0443123 24.1685965 17.9169665 21.7534556 15.3920194 21.1498229"/>
            <path stroke-linecap="round" stroke-linejoin="round" d="M21.1242317,12.6012128 L21.1242317,11.7525261 L21.1242317,10.5626557 C21.1242317,4.72896431 16.394457,0 10.5621159,0 C4.72855408,0 0,4.72896431 0,10.5626557"/>
            <path/>
          </g>
          <g transform="translate(3.418 .028)">
            <path/>
            <g transform="translate(0 10.421)">
              <path d="M4.46116724,11.7711514 L4.46116724,12.0848695 C4.46116724,14.7472007 3.43489248,15.5147114 2.09368595,17.1974366"/>
              <line x1="4.462" x2="4.462" y1="11.754" y2="11.879"/>
              <path d="M6.89206943,10.7286602 C6.11236916,10.9148158 5.27590794,11.2898737 4.46111353,11.7711319"/>
              <line x1="1.117" x2="1.242" y1="17.009" y2="14.729" stroke-linecap="round" stroke-linejoin="round"/>
              <path stroke-linecap="square" d="M1.11618656,17.0085539 L1.11496589,18.5637166 C1.44607148,18.0473635 1.75856193,17.6161538 2.06861103,17.2285838"/>
              <line x1="1.12" x2="1.245" y1="14.729" stroke-linecap="round" stroke-linejoin="round"/>
              <path stroke-linecap="round" stroke-linejoin="round"/>
              <path d="M0,16.9345726 C0.155024554,16.4023505 0.801367086,15.19478 1.11507819,14.6723234"/>
            </g>
            <path stroke-linecap="round" stroke-linejoin="round" d="M1.16121448 10.5626557C1.16121448 4.72896431 5.88976855 0 11.7233303 0 17.5556714 0 22.2418074 4.67006588 22.2418074 10.5037573"/>
            <path/>
          </g>
          <g transform="translate(7.879 6.554)">
            <path d="M16.9843437 5.03352719C16.4493869 4.9160355 15.9107681 4.78236962 15.5106949 4.63619165 12.4568943 3.52475076 10.6884548 1.86125151 9.95971729 0 7.09603536 1.58751112 3.48103365 2.73496245 2.56736531 3.58609058 1.25240309 4.81349729 0 6.57495715 0 8.37486884L0 12.7461701M16.9932301 5.03120787L17.1182263 5.15620683 16.9932301 5.03120787"/>
            <line y1="12.746" y2="15.649"/>
            <path d="M16.8332863 4.86870923C16.9980762 5.36247951 17.1207531 5.84739977 17.1207531 6.34727351 17.1207531 11.5697029 12.701943 15.804897 7.25228058 15.804897 4.38096949 15.804897 1.80353369 14.6223507 0 12.7461457"/>
          </g>
          <line x1="4.686" x2="3.464" y1="27.502" y2="27.132"/>
          <path d="M17.8125654,54.3417813 L21.3515798,54.3417813 C22.2161266,54.3417813 22.9169803,55.042635 22.9169803,55.9071818 L22.9169803,56.2985173 L22.9169803,56.2985173 L17.8125654,56.2985173 L17.8125654,54.3417813 Z"/>
          <path d="M7.2627661,54.342045 L12.3671809,54.342045 L12.3671809,54.7333806 C12.3671809,55.5979274 11.6663273,56.298781 10.8017806,56.298781 L7.2627661,56.298781 L7.2627661,56.298781 L7.2627661,54.342045 Z" transform="rotate(180 9.815 55.32)"/>
          <g transform="translate(7.604 36.685)">
            <path d="M7.50343257,5.46473696 L7.50343257,17.6423694 L14.2744657,17.6423694 L14.2744657,5.34358319 C15.0743069,4.41372037 14.995574,1.28874653 14.995574,0 L0,0.0524897949"/>
            <path d="M7.49427164,7.44500602 L7.49427164,17.6423694 L0.723238543,17.6423694 L0.723238543,5.34358319 C-0.0766027113,4.41372037 0.00213023174,1.28874653 0.00213023174,0 L14.9977042,0.0524897949"/>
          </g>
          <path d="M3.80672437 27.2097722C3.76308556 28.8998215 2.94157749 30.5636259 1.70168622 31.8996743 1.98182902 31.8996743 2.43927352 31.9686435 2.70537866 32.0959007 3.35416253 32.4059567 3.73165342 33.0260687 3.74172391 33.674867 5.33408243 32.0046539 6.22272712 29.9273397 6.39545133 27.799672"/>
          <ellipse cx="1.872" cy="33.702" rx="1.872" ry="1.794"/>
        </g>
        <path/>
      </g>
      <g transform="translate(10.965 17.396)">
        <path d="M11.5696998 1.06017179C11.5696998.475154713 11.0747198 0 10.4634714 0 9.85344368 0 9.35846371.475154713 9.35846371 1.06017179M2.21215156 1.06017179C2.21215156.475154713 1.71595092 0 1.10622837 0 .494979975 0 0 .475154713 0 1.06017179"/>
      </g>
      <path d="M14.8782948,21.9123165 C14.8782948,22.9035192 15.7156716,23.7061247 16.7495755,23.7061247 C17.7831742,23.7061247 18.6208561,22.9035192 18.6208561,21.9123165"/>
      <ellipse cx="6.728" cy="38.209" rx="1.872" ry="1.794"/>
      <path d="M30.1913811,35.5948631 C28.966443,34.2884165 28.1614139,32.6560449 28.1315076,30.9922405 L25.5479684,31.5937369 C25.7042137,33.6860046 26.5727174,35.7260876 28.1464607,37.3584592"/>
      <g transform="translate(5.077 24.851)">
        <path d="M2.05243721 6.52246736L3.31246947 6.8035319C3.55355096 6.32227372 3.84742625 5.87611047 4.186161 5.46870421L4.186161 14.424928 19.1582372 14.424928 19.1582372 5.46870421C19.4969719 5.87611047 19.790542 6.32227372 20.0319287 6.8035319L23.3667876 6.05982475C23.290496 5.87611047 23.1968099 5.69972034 23.1229596 5.51356467 22.131779 3.01877355 19.0044333.603632641 16.4794861 0"/>
        <path d="M3.33516409 6.8035319L0 6.05982475C.0762916114 5.87611047.16997771 5.69972034.24382799 5.51356467 1.23500861 3.01877355 4.36235434.603632641 6.88730151 0"/>
      </g>
      <g transform="translate(4.826 16.33)">
        <path/>
        <g transform="translate(0 14.755)">
          <path/>
          <path stroke-linecap="round" stroke-linejoin="round" d="M0.693485368,0.132498891 C-0.102693889,1.61747181 -0.153961852,4.99604459 0.24000803,6.30096531 C0.776185475,5.4211509 1.78476058,5.11597767 2.73230239,5.51850116 C2.26967006,3.84615188 2.43110311,2.04746088 3.18974689,0.486194659"/>
          <path stroke-linecap="square"/>
          <path/>
        </g>
        <path stroke-linecap="round" stroke-linejoin="round"/>
        <path/>
      </g>
      <path d="M19.4444564 58.0430003L22.9834709 58.0430003C23.8480176 58.0430003 24.5488713 58.7438539 24.5488713 59.6084007L24.5488713 59.9997363 24.5488713 59.9997363 19.4444564 59.9997363 19.4444564 58.0430003z"/>
      <path d="M8.8947279,58.043264 L13.9991427,58.043264 L13.9991427,58.4345996 C13.9991427,59.2991464 13.2982891,60 12.4337424,60 L8.8947279,60 L8.8947279,60 L8.8947279,58.043264 Z" transform="rotate(180 11.447 59.022)"/>
      <g transform="translate(9.236 40.386)">
        <path d="M7.50343257,5.46473696 L7.50343257,17.6423694 L14.2744657,17.6423694 L14.2744657,5.34358319 C15.0746121,4.41372037 14.9958791,1.28874653 14.9958791,0 L0,0.0524897949"/>
        <path d="M7.49427164,7.44500602 L7.49427164,17.6423694 L0.723238543,17.6423694 L0.723238543,5.34358319 C-0.0766027113,4.41372037 0.00213023174,1.28874653 0.00213023174,0 L14.9980094,0.0524897949"/>
      </g>
      <path d="M8.5670304,15.0773957 C11.472215,14.0288205 13.2083069,12.4812871 13.989533,10.7424101 C15.5831122,13.0498248 19.2081844,14.6623601 23.4304673,14.6623601 C24.363056,14.6623601 25.3978754,14.5824048 26.3914973,14.4337854 C26.5227189,15.067325 26.5916865,15.7237526 26.5916865,16.3948285 C26.5916865,21.7448204 22.2204823,26.0822474 16.8269706,26.0822474 C11.4334588,26.0822474 7.06103399,21.7448204 7.06103399,16.3948285 C7.06103399,16.0899605 7.07720781,15.7887545 7.10467279,15.4912106 C7.61857309,15.368531 8.14101804,15.231203 8.5670304,15.0773957 Z"/>
      <path d="M3.00497399,18.7174946 L3.00497399,5.96247449 C3.00497399,2.66996055 5.69623688,0 9.01492197,0 C11.5935784,0 13.791082,1.61253533 14.6434119,3.87631032 C14.1847467,3.77865488 13.7096026,3.72616509 13.2210311,3.72616509 C9.48731963,3.72616509 6.46006849,6.72876446 6.46006849,10.4335674 C6.46006849,10.7585769 6.48753347,11.0787036 6.53239294,11.391201 L6.53239294,11.391201 C6.55863725,11.5660653 6.58854356,11.740014 6.6272997,11.9112162 L6.63859086,11.8687971 C6.42497435,12.6961217 6.3099266,13.5637292 6.3099266,14.4572764 C6.3099266,14.8637671 6.33617091,15.2635441 6.38133555,15.6575227 C6.40880053,15.8873181 6.44481017,16.1149774 6.4863128,16.33989 C5.77374915,16.5785355 5.25862819,17.2462545 5.25862819,18.0348221 C5.25862819,19.0223627 6.06609861,19.8222217 7.06124639,19.8222217 L7.6923306,19.8222217 L7.6923306,19.8222217 C8.0161122,20.6712136 8.45738288,21.4610019 8.99478099,22.1760228 C8.78238514,24.4510892 6.85495387,26.2311646 4.50761357,26.2311646 C2.01867604,26.2311646 0,24.2298386 0,21.7597665 L0,20.2699108 C1.26644075,21.1485046 3.00497399,20.2509901 3.00497399,18.7174946 Z"/>
      <path d="M16.8270634,4.0249663 C22.5718217,4.0249663 27.2378167,8.59493536 27.3391319,14.2699367 C27.3391319,14.3324972 27.3427939,14.3950577 27.3427939,14.457313 C27.3427939,15.1012285 27.2817606,15.7298854 27.1691542,16.3411474 C26.9878853,16.2798075 26.7941046,16.2462385 26.5917793,16.2462385 L26.5878121,16.2462385 C26.5792675,15.6261265 26.5130463,15.0200525 26.3915901,14.4338147 L26.3928108,14.4338147 C25.3991888,14.5824341 24.3631487,14.6623894 23.4305601,14.6623894 C19.2082771,14.6623894 15.5832049,13.0498541 13.9896257,10.7424393 C13.2083996,12.4813164 11.4723077,14.0288498 8.56712317,15.077425 C7.58224933,15.355743 7.09479679,15.4936813 7.10476556,15.4912399 C7.08218325,15.7399561 7.06845076,15.9923344 7.06478876,16.2462385 L7.06112676,16.2462385 C6.85971691,16.2462385 6.66746205,16.2798075 6.48619318,16.3399267 C6.44469054,16.115014 6.4086809,15.8873548 6.38121592,15.6575593 C6.33605129,15.2635807 6.30980697,14.8638038 6.30980697,14.457313 C6.30980697,8.69503218 11.0185252,4.0249663 16.8270634,4.0249663 Z"/>
      <path d="M0.167231212,8.18505109 C0.0598126234,7.70867569 0,7.21490541 0,6.70740233 C0,3.00259937 3.02725114,0 6.7609626,0 C7.55470053,0 8.31578565,0.137633125 9.02346663,0.386349304 C4.70597176,0.932609379 1.20723846,4.07375739 0.167231212,8.18505109 Z" transform="translate(6.46 3.726)"/>
      <path d="M26.5918452,16.3947333 C26.5918452,16.3446849 26.5894039,16.2961624 26.587878,16.246114 L26.5918452,16.246114 C27.5879085,16.246114 28.3953789,17.045973 28.3953789,18.0347342 C28.3953789,19.0222748 27.5879085,19.8221338 26.5918452,19.8221338 L25.9604558,19.8221338 C26.3681582,18.7573844 26.5918452,17.6023038 26.5918452,16.3947333 Z"/>
      <g transform="translate(15.903 31.791)">
        <ellipse cx=".741" cy=".741" rx="1" ry="1"/>
        <ellipse cx=".741" cy="3.128" rx="1" ry="1"/>
      </g>
    </g>
    <g stroke="#222F3C" stroke-width=".5" transform="translate(6 13)">
      <path d="M59.9994748,4.44905566 C59.9994748,1.99152877 58.0341834,0 55.6102433,0 L4.3904416,0 C1.96680408,0 0,1.99152877 0,4.44905566 L0,33.5521707 C0,36.0084712 1.96680408,38 4.3904416,38 L19.4120931,38"/>
      <line x1="60" x2="60" y1="4.449" y2="19.415"/>
      <rect width="15" height="5.067" x="22.5" y=".128"/>
    </g>
  </g>
</svg>
