<svg xmlns="http://www.w3.org/2000/svg" width="399" height="200" viewBox="0 0 399 200">
  <g fill="none" fill-rule="evenodd" transform="translate(-20 -10)">
    <g fill-rule="nonzero" transform="translate(250.57 71.162)">
      <g stroke="#222F3C" stroke-linecap="round" stroke-linejoin="round" stroke-width=".5" transform="translate(2.205 48.543)">
        <line x1="9.014" y1="11.092" y2="11.092"/>
        <line x1="35.845" x2="26.832" y1="11.092" y2="11.092"/>
        <line x1="25.85" x2="35.845" y1="7.62" y2="7.62"/>
        <line x2="9.996" y1="7.62" y2="7.62"/>
        <g transform="translate(5.319 32.536)">
          <line x2="2.289"/>
          <line x1="11.46" x2="13.749"/>
          <line x1="22.92" x2="25.209"/>
          <g transform="translate(5.73 3.144)">
            <line x2="2.289"/>
            <line x1="11.46" x2="13.749"/>
          </g>
        </g>
        <g transform="translate(0 20.633)">
          <path d="M0 7.56917656L5.97370078 5.25387114 11.9474016 7.56917656 16.2020156 5.92046514 16.2020156 0M35.8450599 7.56887051L29.8713591 5.2535651 23.8973229 7.56887051 19.6430443 5.9201591 19.6430443.00138667802"/>
        </g>
        <ellipse cx="17.923" cy="11.782" rx="9.006" ry="8.947" transform="rotate(-67.5 17.923 11.782)"/>
        <path d="M11.6885101 18.2398264L.0000617194085 18.2398264.0000617194085 39.0342414 35.8452853 39.0342414 35.8452853 18.2398264 24.1568369 18.2398264M14.2669269 13.3697373C14.2669269 12.01082 15.4856616 9.852712 17.923131 6.89541349 20.3603768 9.852712 21.5789997 12.01082 21.5789997 13.3697373 21.5789997 15.4081134 19.9414228 17.0598717 17.923131 17.0598717 15.9031621 17.0598717 14.2669269 15.4081134 14.2669269 13.3697373zM43.1946795 3.20045287L39.6005302 3.20045287 37.7563275 4.86541442 36.0147668 4.86541442 36.0147668 13.5396 37.7563275 13.5396 39.6005302 15.2045616 43.1946795 15.2045616"/>
      </g>
      <g transform="translate(50.888 49.402)">
        <path fill="#333838" d="M9.57487778,10.0043697 C9.6504438,10.0043697 9.69578342,9.91284897 9.80157585,9.65354018 C10.4967833,7.97565977 11.7209528,5.09275617 12.6730847,2.98777894 C13.6252166,0.821787869 13.8972543,0.501465247 14.5320089,0.333677206 C14.8040466,0.287916832 14.8796126,0.226902999 14.8796126,0.165889166 C14.8796126,0.104875333 14.8040466,0.0896218749 14.6075749,0.0896218749 C14.3355373,0.0896218749 13.9274807,0.150635708 13.504311,0.150635708 C13.0509149,0.150635708 12.83933,0.0896218749 12.4463867,0.0896218749 C12.2348018,0.0896218749 12.1894622,0.120128791 12.1894622,0.181142624 C12.1894622,0.242156457 12.2801414,0.272663374 12.5219527,0.348930665 C13.0206884,0.501465247 13.0358017,0.760774037 12.9602356,1.09635012 C12.6428583,2.22510603 10.8141606,6.49607433 10.0887267,8.08243398 C10.0433871,8.17395473 10.0131607,8.18920819 9.9527079,8.08243398 C9.43885894,6.93842462 8.77387793,5.48934608 8.39604781,4.58939205 C8.3658214,4.51312476 8.3658214,4.43685747 8.38093461,4.40635055 C8.63785909,3.93349335 9.37840612,2.42340098 9.77134944,1.66072807 C10.2700852,0.776027495 10.5572361,0.455704872 11.1164247,0.333677206 C11.3280095,0.287916832 11.4035755,0.242156457 11.4035755,0.165889166 C11.4035755,0.104875333 11.3280095,0.0896218749 11.1466511,0.0896218749 C10.7990474,0.0896218749 10.5572361,0.150635708 10.0282739,0.150635708 C9.6353306,0.150635708 9.39351932,0.104875333 9.0156892,0.104875333 C8.83433075,0.104875333 8.74365152,0.13538225 8.74365152,0.181142624 C8.74365152,0.242156457 8.78899113,0.30317029 9.06102882,0.364184123 C9.71089662,0.516718705 9.72600983,0.669253287 9.25750048,1.78275574 C8.94012318,2.53017519 8.62274588,3.23183427 8.26002897,3.97925372 C8.21468936,4.05552101 8.15423654,4.04026755 8.13912333,4.00976064 C7.64038758,2.85049781 7.18699144,1.81326265 6.94518016,1.17261741 C6.71848209,0.608239454 6.86961414,0.425197956 7.27767067,0.348930665 C7.47414233,0.30317029 7.56482155,0.257409915 7.56482155,0.181142624 C7.56482155,0.120128791 7.45902912,0.0896218749 7.30789707,0.0896218749 C6.96029337,0.0896218749 6.61268966,0.150635708 6.06861429,0.150635708 C5.52453892,0.150635708 5.23738803,0.0896218749 4.7991051,0.0896218749 C4.60263344,0.0896218749 4.51195421,0.13538225 4.51195421,0.181142624 C4.51195421,0.257409915 4.58752023,0.318423748 4.82933151,0.364184123 C5.29784085,0.486211789 5.41874649,0.669253287 5.85702942,1.6149677 C6.18951993,2.34713369 7.20210464,4.66565934 7.44391592,5.24529075 C7.44391592,5.27579767 7.44391592,5.38257188 7.41368951,5.42833225 C7.00563298,6.40455358 6.64291607,7.16722649 6.21974634,8.03667361 C6.17440672,8.1129409 6.1139539,8.14344781 6.06861429,8.03667361 C5.04091637,5.74865487 3.54470911,2.49966827 2.90995451,0.913308619 C2.80416208,0.638746371 2.80416208,0.455704872 3.22733181,0.379437581 C3.40869026,0.348930665 3.49936949,0.30317029 3.49936949,0.226902999 C3.49936949,0.165889166 3.40869026,0.120128791 3.1971054,0.120128791 C2.8797281,0.120128791 2.51701119,0.150635708 2.18452068,0.150635708 C1.73112454,0.150635708 1.11148315,0.0896218749 0.748766239,0.0896218749 C0.552294578,0.0896218749 0.446502145,0.150635708 0.446502145,0.196396082 C0.446502145,0.257409915 0.582520987,0.318423748 0.763879444,0.333677206 C1.33818122,0.409944498 1.45908686,0.684506745 2.00316223,1.87427649 C2.71348285,3.36911539 3.72606756,5.62662721 4.55729382,7.5638164 C4.75376548,8.02142015 5.22227483,9.1349226 5.41874649,9.63828672 C5.52453892,9.91284897 5.55476533,10.0043697 5.64544456,10.0043697 C5.70589738,10.0043697 5.79657661,9.88234205 5.88725583,9.63828672 C6.21974634,8.75358614 7.02074619,6.96893153 7.59504796,5.84017562 C7.62527437,5.79441525 7.67061399,5.79441525 7.7008404,5.85542908 C8.13912333,6.83165041 9.000576,8.72307923 9.3179533,9.65354018 C9.40863253,9.89759551 9.46908535,10.0043697 9.57487778,10.0043697 Z M16.7838764,9.88234205 C17.267499,9.88234205 17.7360083,9.65354018 17.9475932,9.22644335 C18.008046,9.08916222 17.9475932,9.04340185 17.8569139,9.08916222 C17.6906687,9.18068297 17.5395367,9.22644335 17.418631,9.22644335 C16.9954613,9.22644335 16.8594424,8.93662764 16.8594424,8.64681194 C16.8594424,8.25022202 16.9047821,6.80114349 16.9047821,6.23676554 C16.9047821,5.76390833 16.8443292,5.13851655 16.6931972,4.84870084 C16.5118387,4.37584363 16.0433294,4.07077447 15.5294804,4.07077447 C15.2725559,4.07077447 14.9702919,4.16229522 14.6226881,4.34533672 C14.3204241,4.4978713 13.8216883,4.81819392 13.4740846,5.23003729 C13.2927261,5.44358571 13.1869337,5.58086683 13.1869337,5.68764104 C13.1869337,5.74865487 13.2624997,5.84017562 13.3380657,5.82492217 C13.4438582,5.80966871 13.8972543,5.59612029 14.0483864,5.48934608 C14.0786128,5.45883917 14.1088392,5.41307879 14.1088392,5.36731842 C14.1088392,5.26054421 14.1088392,5.13851655 14.1239524,5.07750271 C14.1541788,4.90971467 14.244858,4.80294046 14.3506505,4.71141972 C14.5773485,4.57413859 14.7284806,4.52837822 14.9551786,4.52837822 C15.1365371,4.52837822 15.3934616,4.61989897 15.5899332,4.77243355 C15.8468577,4.97072851 15.9526502,5.39782534 15.9526502,6.02321712 C15.9526502,6.23676554 15.9526502,6.5418347 15.9224237,6.7248762 C15.9224237,6.78589003 15.8468577,6.92317116 15.7259521,6.95367807 C15.4085748,7.07570574 14.0332732,7.48754911 13.6705562,7.68584407 C13.5345374,7.76211136 13.1264809,8.06718052 13.1264809,8.55529119 C13.1264809,9.34847101 13.7310091,9.86708859 14.3355373,9.86708859 C14.909839,9.86708859 15.3632352,9.6077798 15.8166313,9.18068297 C15.8317445,9.16542952 15.8770841,9.16542952 15.8921973,9.19593643 C16.0282162,9.54676597 16.3607067,9.88234205 16.7838764,9.88234205 Z M15.0005183,9.28745718 C14.5320089,9.28745718 14.093726,8.93662764 14.093726,8.43326352 C14.093726,7.99091323 14.2901976,7.76211136 14.4715561,7.67059061 C14.7889334,7.50280257 15.6654993,7.18247995 15.8619709,7.15197303 C15.8921973,7.13671957 15.9224237,7.21298686 15.9224237,7.22824032 C15.9224237,7.80787173 15.8921973,8.41801006 15.8468577,8.67731885 C15.8317445,8.84510689 15.7410653,8.98238802 15.6806125,9.04340185 C15.5143672,9.19593643 15.2574427,9.28745718 15.0005183,9.28745718 Z M20.3354795,9.85183514 C20.7586492,9.85183514 21.2271586,9.71455401 21.5596491,9.45524522 C21.7561208,9.30271064 21.8921396,9.15017606 21.8921396,9.05865531 C21.8921396,8.99764148 21.8468,8.98238802 21.7410076,9.05865531 C21.6049887,9.15017606 21.332951,9.28745718 20.9097813,9.28745718 C20.516838,9.28745718 20.1994607,9.16542952 19.9727626,8.87561381 C19.8669702,8.72307923 19.8367438,8.54003773 19.8065174,8.05192707 C19.7914041,7.57906986 19.7762909,5.18427692 19.7762909,4.92496813 C19.7762909,4.83344738 19.8065174,4.78768701 19.9878758,4.78768701 C20.3959323,4.78768701 21.1364794,4.80294046 21.6654415,4.80294046 C21.7410076,4.80294046 21.8165736,4.6809128 21.8165736,4.42160401 C21.8165736,4.3148298 21.7561208,4.20805559 21.7258943,4.20805559 C21.4085171,4.20805559 20.1541211,4.25381597 19.8820834,4.25381597 C19.8216306,4.25381597 19.8065174,4.16229522 19.8065174,4.11653484 C19.7914041,3.93349335 19.8216306,3.50639652 19.8216306,3.36911539 C19.8216306,3.2928481 19.7158381,3.26234118 19.5798193,3.41487577 C19.2171024,3.88773297 18.7183666,4.29957634 18.3405365,4.43685747 C18.1742912,4.51312476 18.159178,4.55888513 18.159178,4.58939205 C18.159178,4.65040588 18.2347441,4.69616626 18.3556497,4.72667317 L18.5653454,4.77243355 C18.6314657,4.78768701 18.6881402,4.80294046 18.7183666,4.81819392 C18.7788194,4.84870084 18.7939326,4.95547505 18.7939326,5.12326309 L18.7939326,8.28072894 C18.7939326,8.64681194 18.8543855,8.9518811 18.9752911,9.15017606 C19.2322156,9.63828672 19.7007249,9.85183514 20.3354795,9.85183514 Z M24.7636485,9.88234205 C25.6251012,9.88234205 26.2598558,9.57727289 26.8643839,8.92137418 C26.9550632,8.81459998 27.015516,8.72307923 27.015516,8.67731885 C27.015516,8.60105156 26.9550632,8.57054465 26.8341575,8.69257231 C26.4714406,9.04340185 26.0180445,9.18068297 25.3984031,9.18068297 C24.8996673,9.18068297 24.2951391,9.01289493 23.8870826,8.55529119 C23.4941393,8.1129409 23.1918752,7.48754911 23.1918752,6.70962274 C23.1918752,6.28252591 23.2372148,6.05372404 23.3127808,5.87068254 C23.3430073,5.82492217 23.4185733,5.74865487 23.4487997,5.74865487 L24.2649127,5.74865487 C24.6125164,5.74865487 26.5772331,5.77916179 26.6981387,5.79441525 C26.7737047,5.79441525 26.8492707,5.7028945 26.8492707,5.62662721 C26.8492707,4.69616626 25.8971388,4.07077447 25.0054598,4.07077447 C24.2195731,4.07077447 23.5243657,4.43685747 23.1163092,4.83344738 C22.4815546,5.45883917 22.2397433,6.3587932 22.2397433,7.06045228 C22.2397433,7.88413903 22.511781,8.61630502 22.9651771,9.10441568 C23.4185733,9.59252635 24.0533279,9.88234205 24.7636485,9.88234205 Z M23.5092525,5.53510646 C23.4790261,5.53510646 23.4487997,5.50459954 23.4487997,5.47409263 C23.4487997,5.35206496 23.5848185,5.06224925 23.766177,4.84870084 C24.0986675,4.4978713 24.4764976,4.28432289 24.8694409,4.28432289 C25.2170446,4.28432289 25.4739691,4.42160401 25.6251012,4.57413859 C25.7913464,4.75718009 25.836686,5.03174234 25.836686,5.21478384 C25.836686,5.35206496 25.8064596,5.519853 25.4739691,5.519853 L23.5092525,5.53510646 Z M27.6956102,9.80607476 C27.9071951,9.80607476 28.0734403,9.71455401 28.6175157,9.71455401 C29.2522703,9.71455401 29.751006,9.77556784 30.0381569,9.77556784 C30.264855,9.77556784 30.4008738,9.74506093 30.4008738,9.66879364 C30.4008738,9.59252635 30.3253078,9.56201943 30.113723,9.53151251 C29.5394212,9.47049868 29.3580627,9.36372447 29.2976099,8.89086727 C29.2673835,8.57054465 29.2371571,7.77736482 29.2371571,6.64860891 C29.2371571,6.34353974 29.2220439,5.90118946 29.2522703,5.71814796 C29.2673835,5.53510646 29.3429495,5.36731842 29.5091948,5.18427692 C29.7056664,5.00123542 29.9474777,4.87920776 30.1741758,4.87920776 C30.340421,4.87920776 30.5368927,4.95547505 30.7031379,5.06224925 C30.8693832,5.15377 30.9449492,5.16902346 30.9751756,5.16902346 C31.0205152,5.16902346 31.0809681,5.15377 31.2169869,5.03174234 C31.3983454,4.8639543 31.5494774,4.61989897 31.5494774,4.51312476 C31.5494774,4.43685747 31.519251,4.36059018 31.443685,4.29957634 C31.2925529,4.17754868 31.0960813,4.10128139 30.9147228,4.10128139 C30.3101946,4.10128139 29.7056664,4.66565934 29.2824967,5.19953038 C29.2371571,5.24529075 29.2069307,5.23003729 29.2069307,5.18427692 C29.2069307,4.94022159 29.2220439,4.36059018 29.2220439,4.19280214 C29.2220439,4.04026755 29.1918175,3.97925372 29.1615911,3.97925372 C29.1162514,3.97925372 29.0406854,3.99450718 28.934893,4.05552101 C28.6930817,4.19280214 28.269912,4.34533672 27.9676479,4.42160401 C27.831629,4.46736438 27.7409498,4.52837822 27.7409498,4.55888513 C27.7409498,4.58939205 27.756063,4.63515242 27.8618555,4.71141972 C28.1490063,4.95547505 28.2547988,5.00123542 28.2547988,5.10800963 L28.2547988,6.80114349 C28.2547988,7.80787173 28.2396856,8.67731885 28.2094592,8.93662764 C28.1490063,9.34847101 27.9827611,9.48575214 27.6653838,9.56201943 C27.5444782,9.59252635 27.4386857,9.66879364 27.4386857,9.71455401 C27.4386857,9.77556784 27.5142517,9.80607476 27.6956102,9.80607476 Z M6.97540657,26.6292525 C8.19957615,26.6292525 9.0156892,26.3089299 9.92248149,25.7903123 C9.99804751,25.7445519 10.0433871,25.6530312 10.0736135,25.5615104 C10.1038399,25.3937224 10.2851984,24.615796 10.2851984,24.3564872 C10.2851984,24.2649665 10.254972,24.1276854 10.1945192,24.1276854 C10.1340664,24.1276854 10.1038399,24.1886992 10.0433871,24.3869941 C9.81668905,25.0123859 9.45397214,25.546257 8.87967036,25.881833 C8.47161384,26.1411418 7.94265167,26.3089299 7.081199,26.3089299 C6.28019916,26.3089299 5.23738803,25.9886073 4.496841,25.180174 C3.71095436,24.3259803 3.10642617,22.8616483 3.10642617,21.4888371 C3.10642617,20.0245051 3.60516193,18.6669473 4.25502973,17.9500348 C4.87467112,17.3093895 5.75123699,16.760265 6.88472734,16.760265 C7.76129322,16.760265 8.63785909,17.0043204 9.19704766,17.5229379 C9.46908535,17.7364864 9.80157585,18.224597 9.92248149,18.7432146 C9.9527079,18.8652423 9.99804751,18.9415096 10.0585003,18.9415096 C10.0887267,18.9415096 10.1491796,18.8499888 10.1491796,18.6974542 C10.1491796,18.5449196 10.0736135,17.8890209 10.1038399,17.5229379 C10.1189531,17.4466707 10.0736135,17.3398964 9.9527079,17.2636292 C9.45397214,16.9890669 8.21468936,16.5162097 6.99051978,16.5162097 C5.60010494,16.5162097 4.27014293,17.0500807 3.46914308,17.7822467 C2.50189798,18.6669473 1.77646416,19.8109567 1.77646416,21.6413717 C1.77646416,22.9531691 2.41121876,24.3564872 3.04597335,25.0123859 C3.98299204,25.9581003 5.16182201,26.6292525 6.97540657,26.6292525 Z M14.8493862,26.5224783 C15.3330088,26.5224783 15.8015181,26.2936764 16.013103,25.8665796 C16.0735558,25.7292985 16.013103,25.6835381 15.9224237,25.7292985 C15.7561785,25.8208192 15.6050465,25.8665796 15.4841408,25.8665796 C15.0609711,25.8665796 14.9249522,25.5767639 14.9249522,25.2869482 C14.9249522,24.8903583 14.9702919,23.4412797 14.9702919,22.8769018 C14.9702919,22.4040446 14.909839,21.7786528 14.758707,21.4888371 C14.5773485,21.0159799 14.1088392,20.7109107 13.5949902,20.7109107 C13.3380657,20.7109107 13.0358017,20.8024315 12.6881979,20.985473 C12.3859339,21.1380075 11.8871981,21.4583302 11.5395944,21.8701735 C11.3582359,22.0837219 11.2524435,22.2210031 11.2524435,22.3277773 C11.2524435,22.3887911 11.3280095,22.4803119 11.4035755,22.4650584 C11.509368,22.4498049 11.9627641,22.2362565 12.1138962,22.1294823 C12.1441226,22.0989754 12.174349,22.053215 12.174349,22.0074547 C12.174349,21.9006805 12.174349,21.7786528 12.1894622,21.717639 C12.2196886,21.5498509 12.3103678,21.4430767 12.4161603,21.351556 C12.6428583,21.2142748 12.7939904,21.1685145 13.0206884,21.1685145 C13.2020469,21.1685145 13.4589714,21.2600352 13.655443,21.4125698 C13.9123675,21.6108647 14.01816,22.0379616 14.01816,22.6633534 C14.01816,22.8769018 14.01816,23.1819709 13.9879335,23.3650124 C13.9879335,23.4260263 13.9123675,23.5633074 13.7914619,23.5938143 C13.4740846,23.715842 12.098783,24.1276854 11.736066,24.3259803 C11.6000472,24.4022476 11.1919907,24.7073168 11.1919907,25.1954274 C11.1919907,25.9886073 11.7965189,26.5072248 12.4010471,26.5072248 C12.9753488,26.5072248 13.428745,26.247916 13.8821411,25.8208192 C13.8972543,25.8055658 13.9425939,25.8055658 13.9577071,25.8360727 C14.093726,26.1869022 14.4262165,26.5224783 14.8493862,26.5224783 Z M13.0660281,25.9275934 C12.5975187,25.9275934 12.1592358,25.5767639 12.1592358,25.0733998 C12.1592358,24.6310495 12.3557074,24.4022476 12.5370659,24.3107268 C12.8544432,24.1429388 13.7310091,23.8226162 13.9274807,23.7921093 C13.9577071,23.7768558 13.9879335,23.8531231 13.9879335,23.8683766 C13.9879335,24.448008 13.9577071,25.0581463 13.9123675,25.3174551 C13.8972543,25.4852431 13.8065751,25.6225243 13.7461223,25.6835381 C13.579877,25.8360727 13.3229525,25.9275934 13.0660281,25.9275934 Z M22.2095169,26.4157041 C22.3606489,26.4157041 22.4815546,26.4004506 22.4815546,26.3089299 C22.4815546,26.247916 22.3908754,26.2174091 22.2548565,26.1563953 C21.8468,26.0496211 21.8014604,25.9581003 21.7863472,24.9208652 C21.7863472,24.1581923 21.771234,24.0361646 21.771234,23.2277313 C21.7561208,22.3582842 21.6352151,21.5956113 21.2876114,21.2295283 C21.0911398,21.0159799 20.7284228,20.7109107 20.1087814,20.7109107 C19.851857,20.7109107 19.5344797,20.7414176 19.2171024,20.8939522 C18.8846119,21.0312333 18.521895,21.2905421 18.1440648,21.5803578 C18.1138384,21.6108647 18.0684988,21.5651044 18.0684988,21.5345975 C18.0533856,21.321049 18.083612,20.9092057 18.0987252,20.7261642 C18.1138384,20.6498969 18.0382724,20.588883 17.9929328,20.6041365 C17.7360083,20.7719245 17.1314801,21.0312333 16.7989896,21.1227541 C16.6629708,21.1685145 16.5874048,21.2142748 16.5874048,21.2447817 C16.5874048,21.2905421 16.6176312,21.321049 16.7083104,21.3820629 C17.0710273,21.5803578 17.1012537,21.7481459 17.1012537,21.9006805 C17.1012537,23.1362106 17.1012537,24.5395287 17.0710273,25.6377777 C17.0559141,25.9428469 16.9954613,26.0496211 16.6176312,26.1258884 C16.4362727,26.1563953 16.3002539,26.2174091 16.3002539,26.278423 C16.3002539,26.3546903 16.4211595,26.3851972 16.5874048,26.3851972 C16.8745556,26.3851972 17.1919329,26.3546903 17.3884046,26.3546903 C17.7360083,26.3546903 18.4765553,26.4157041 18.597461,26.4157041 C18.748593,26.4157041 18.8997251,26.4157041 18.8997251,26.3241833 C18.8997251,26.247916 18.824159,26.2174091 18.6428006,26.1716488 C18.4009893,26.0953815 18.2196309,26.0191142 18.1742912,25.6835381 C18.1440648,25.4699897 18.0987252,25.0733998 18.083612,24.081925 C18.083612,23.1667175 18.0684988,22.3887911 18.0684988,22.2057496 C18.0684988,22.0837219 18.1440648,21.8549201 18.2498573,21.7481459 C18.6428006,21.4125698 19.0357439,21.2600352 19.4286872,21.2600352 C19.7762909,21.2600352 20.0634418,21.3668094 20.2901399,21.5498509 C20.66797,21.8396666 20.7737625,22.2057496 20.7737625,23.4412797 L20.7737625,25.51575 C20.7737625,25.9581003 20.7133096,26.0648745 20.3505927,26.1563953 C20.1541211,26.2021557 20.0634418,26.2631695 20.0634418,26.3241833 C20.0634418,26.3851972 20.1692343,26.4157041 20.3052531,26.4157041 C20.5319512,26.4157041 20.7284228,26.3546903 21.2422718,26.3546903 C21.5747623,26.3546903 22.0130452,26.4157041 22.2095169,26.4157041 Z M26.7737047,26.5224783 C27.2573273,26.5224783 27.7258366,26.2936764 27.9374215,25.8665796 C27.9978743,25.7292985 27.9374215,25.6835381 27.8467422,25.7292985 C27.680497,25.8208192 27.529365,25.8665796 27.4084593,25.8665796 C26.9852896,25.8665796 26.8492707,25.5767639 26.8492707,25.2869482 C26.8492707,24.8903583 26.8946104,23.4412797 26.8946104,22.8769018 C26.8946104,22.4040446 26.8341575,21.7786528 26.6830255,21.4888371 C26.501667,21.0159799 26.0331577,20.7109107 25.5193087,20.7109107 C25.2623842,20.7109107 24.9601202,20.8024315 24.6125164,20.985473 C24.3102524,21.1380075 23.8115166,21.4583302 23.4639129,21.8701735 C23.2825544,22.0837219 23.176762,22.2210031 23.176762,22.3277773 C23.176762,22.3887911 23.252328,22.4803119 23.327894,22.4650584 C23.4336865,22.4498049 23.8870826,22.2362565 24.0382147,22.1294823 C24.0684411,22.0989754 24.0986675,22.053215 24.0986675,22.0074547 C24.0986675,21.9006805 24.0986675,21.7786528 24.1137807,21.717639 C24.1440071,21.5498509 24.2346863,21.4430767 24.3404788,21.351556 C24.5671768,21.2142748 24.7183089,21.1685145 24.9450069,21.1685145 C25.1263654,21.1685145 25.3832899,21.2600352 25.5797615,21.4125698 C25.836686,21.6108647 25.9424785,22.0379616 25.9424785,22.6633534 C25.9424785,22.8769018 25.9424785,23.1819709 25.912252,23.3650124 C25.912252,23.4260263 25.836686,23.5633074 25.7157804,23.5938143 C25.3984031,23.715842 24.0231015,24.1276854 23.6603846,24.3259803 C23.5243657,24.4022476 23.1163092,24.7073168 23.1163092,25.1954274 C23.1163092,25.9886073 23.7208374,26.5072248 24.3253656,26.5072248 C24.8996673,26.5072248 25.3530635,26.247916 25.8064596,25.8208192 C25.8215728,25.8055658 25.8669124,25.8055658 25.8820256,25.8360727 C26.0180445,26.1869022 26.350535,26.5224783 26.7737047,26.5224783 Z M24.9903466,25.9275934 C24.5218372,25.9275934 24.0835543,25.5767639 24.0835543,25.0733998 C24.0835543,24.6310495 24.2800259,24.4022476 24.4613844,24.3107268 C24.7787617,24.1429388 25.6553276,23.8226162 25.8517992,23.7921093 C25.8820256,23.7768558 25.912252,23.8531231 25.912252,23.8683766 C25.912252,24.448008 25.8820256,25.0581463 25.836686,25.3174551 C25.8215728,25.4852431 25.7308936,25.6225243 25.6704408,25.6835381 C25.5041955,25.8360727 25.247271,25.9275934 24.9903466,25.9275934 Z M30.5066663,26.3851972 C30.7031379,26.3851972 30.8089304,26.3394368 30.8089304,26.278423 C30.8089304,26.2326626 30.7031379,26.1869022 30.6124587,26.1716488 C30.189289,26.0953815 30.0986097,25.9886073 30.0834965,25.5767639 C30.0710504,25.3380921 30.0586042,24.809763 30.054599,23.5572905 L30.0544596,20.453588 C30.0629258,18.3209904 30.113723,16.0954685 30.113723,15.9975921 C30.113723,15.9213248 30.0986097,15.8298041 30.0683833,15.8298041 C30.0079305,15.8298041 29.9323645,15.860311 29.8870249,15.8755645 C29.5545344,15.9975921 29.1918175,16.1348732 28.7535345,16.226394 C28.6175157,16.2569009 28.5268365,16.3026613 28.5268365,16.3484217 C28.5268365,16.394182 28.5721761,16.424689 28.6779685,16.4857028 C29.0709118,16.7297581 29.1011382,16.8060254 29.1011382,17.1416015 C29.1162514,17.8127536 29.1011382,19.0635372 29.1011382,20.2990673 C29.086025,22.1294823 29.0255722,24.7073168 28.9953458,25.2716947 C28.934893,25.9428469 28.8442138,26.080128 28.4663836,26.1563953 C28.269912,26.2021557 28.194346,26.2174091 28.194346,26.2936764 C28.194346,26.3699437 28.269912,26.3851972 28.4512704,26.3851972 C28.6779685,26.3851972 29.0709118,26.3546903 29.4638552,26.3546903 C29.7207796,26.3546903 30.264855,26.3851972 30.5066663,26.3851972 Z" transform="translate(14.514 27.694)"/>
        <g stroke="#222F3C" stroke-linecap="round">
          <g stroke-linejoin="round" stroke-width=".5">
            <line x1="60.267" y1=".222"/>
            <line x2="60.267" y1=".222" transform="translate(0 16.754)"/>
            <line x2="60.267" y1=".222" transform="translate(0 16.754)"/>
          </g>
          <g stroke-width=".4" transform="translate(21.6 3.94)">
            <g transform="translate(2.248 2.75)">
              <path d="M.161508609 2.0564435L.987451315 3.04126928.0814399929 4.07619962M.0800686163 4.10318026L.906011323 5.08800603 0 6.12293638M.240747521 0L1.06669023.984487227.160678905 2.01975612"/>
            </g>
            <path d="M.160971236 2.0564435L.987451315 3.04126928.0814399929 4.07619962M.0800686163 4.10318026L.906011323 5.08800603 0 6.12293638M.242948602 0L1.06889131.984487227.162879986 2.01975612"/>
            <g transform="translate(5.465)">
              <g transform="translate(2.248 2.75)">
                <path d="M.161508609 2.0564435L.987451315 3.04126928.0814399929 4.07619962M.0800686163 4.10318026L.906011323 5.08800603 0 6.12293638M.242948602 0L1.06889131.984487227.162879986 2.01975612"/>
              </g>
              <path d="M.161508609 2.0564435L.987451315 3.04126928.0814399929 4.07619962M.079531243 4.10318026L.906011323 5.08800603 0 6.12293638M.242948602 0L1.06889131.984487227.162879986 2.01975612"/>
            </g>
            <g transform="translate(10.931)">
              <g transform="translate(2.248 2.75)">
                <path d="M.161508609 2.0564435L.987451315 3.04126928.0814399929 4.07619962M.079531243 4.10318026L.906011323 5.08800603 0 6.12293638M.242948602 0L1.06889131.984487227.162879986 2.01975612"/>
              </g>
              <path d="M.161508609 2.0564435L.987451315 3.04126928.0814399929 4.07619962M.0800686163 4.10318026L.906011323 5.08800603 0 6.12293638M.242948602 0L1.06889131.984487227.162879986 2.01975612"/>
            </g>
            <g transform="translate(16.398)">
              <path d="M.159307528 2.0564435L.985250234 3.04126928.079238912 4.07619962M.0800686163 4.10318026L.906011323 5.08800603 0 6.12293638M.240747521 0L1.0672276.984487227.160678905 2.01975612"/>
            </g>
          </g>
        </g>
      </g>
      <path fill="#333838" d="M10.0475576,10.8332534 C10.1231236,10.8332534 10.1684633,10.7417326 10.2742557,10.4824238 C10.9694631,8.80454344 12.1936327,5.92163983 13.1457646,3.8166626 C14.0978965,1.65067153 14.3699342,1.33034891 15.0046888,1.16256087 C15.2767264,1.1168005 15.3522925,1.05578666 15.3522925,0.994772829 C15.3522925,0.933758996 15.2767264,0.918505538 15.0802548,0.918505538 C14.8082171,0.918505538 14.4001606,0.979519371 13.9769908,0.979519371 C13.5235947,0.979519371 13.3120098,0.918505538 12.9190665,0.918505538 C12.7074816,0.918505538 12.662142,0.949012455 12.662142,1.01002629 C12.662142,1.07104012 12.7528213,1.10154704 12.9946325,1.17781433 C13.4933683,1.33034891 13.5084815,1.5896577 13.4329155,1.92523378 C13.1155382,3.05398969 11.2868404,7.32495799 10.5614066,8.91131765 C10.516067,9.00283839 10.4858406,9.01809185 10.4253877,8.91131765 C9.91153878,7.76730828 9.24655777,6.31822975 8.86872765,5.41827571 C8.83850125,5.34200842 8.83850125,5.26574113 8.85361445,5.23523421 C9.11053893,4.76237701 9.85108596,3.25228465 10.2440293,2.48961173 C10.742765,1.60491116 11.0299159,1.28458854 11.5891045,1.16256087 C11.8006894,1.1168005 11.8762554,1.07104012 11.8762554,0.994772829 C11.8762554,0.933758996 11.8006894,0.918505538 11.6193309,0.918505538 C11.2717272,0.918505538 11.0299159,0.979519371 10.5009538,0.979519371 C10.1080104,0.979519371 9.86619916,0.933758996 9.48836905,0.933758996 C9.30701059,0.933758996 9.21633136,0.964265913 9.21633136,1.01002629 C9.21633136,1.07104012 9.26167098,1.13205395 9.53370866,1.19306779 C10.1835765,1.34560237 10.1986897,1.49813695 9.73018032,2.6116394 C9.41280302,3.35905885 9.09542573,4.06071793 8.73270881,4.80813738 C8.6873692,4.88440468 8.62691638,4.86915122 8.61180318,4.8386443 C8.11306742,3.67938148 7.65967128,2.64214632 7.41786,2.00150107 C7.19116193,1.43712312 7.34229398,1.25408162 7.75035051,1.17781433 C7.94682217,1.13205395 8.0375014,1.08629358 8.0375014,1.01002629 C8.0375014,0.949012455 7.93170896,0.918505538 7.78057692,0.918505538 C7.43297321,0.918505538 7.0853695,0.979519371 6.54129413,0.979519371 C5.99721876,0.979519371 5.71006787,0.918505538 5.27178494,0.918505538 C5.07531328,0.918505538 4.98463405,0.964265913 4.98463405,1.01002629 C4.98463405,1.08629358 5.06020007,1.14730741 5.30201135,1.19306779 C5.77052069,1.31509545 5.89142633,1.49813695 6.32970927,2.44385136 C6.66219977,3.17601735 7.67478448,5.494543 7.91659576,6.07417442 C7.91659576,6.10468133 7.91659576,6.21145554 7.88636935,6.25721592 C7.47831282,7.23343724 7.11559591,7.99611015 6.69242618,8.86555727 C6.64708657,8.94182456 6.58663375,8.97233148 6.54129413,8.86555727 C5.51359621,6.57753854 4.01738895,3.32855194 3.38263435,1.74219228 C3.27684192,1.46763003 3.27684192,1.28458854 3.70001165,1.20832124 C3.88137011,1.17781433 3.97204934,1.13205395 3.97204934,1.05578666 C3.97204934,0.994772829 3.88137011,0.949012455 3.66978524,0.949012455 C3.35240794,0.949012455 2.98969103,0.979519371 2.65720053,0.979519371 C2.20380439,0.979519371 1.58416299,0.918505538 1.22144608,0.918505538 C1.02497442,0.918505538 0.919181988,0.979519371 0.919181988,1.02527975 C0.919181988,1.08629358 1.05520083,1.14730741 1.23655929,1.16256087 C1.81086106,1.23882816 1.9317667,1.51339041 2.47584207,2.70316015 C3.18616269,4.19799906 4.19874741,6.45551087 5.02997366,8.39270007 C5.22644532,8.85030381 5.69495467,9.96380626 5.89142633,10.4671704 C5.99721876,10.7417326 6.02744517,10.8332534 6.1181244,10.8332534 C6.17857722,10.8332534 6.26925645,10.7112257 6.35993568,10.4671704 C6.69242618,9.58246981 7.49342603,7.7978152 8.06772781,6.66905929 C8.09795422,6.62329891 8.14329383,6.62329891 8.17352024,6.68431275 C8.61180318,7.66053407 9.47325584,9.55196289 9.79063314,10.4824238 C9.88131237,10.7264792 9.94176519,10.8332534 10.0475576,10.8332534 Z M17.2565563,10.7112257 C17.7401788,10.7112257 18.2086882,10.4824238 18.420273,10.055327 C18.4807258,9.91804589 18.420273,9.87228551 18.3295938,9.91804589 C18.1633485,10.0095666 18.0122165,10.055327 17.8913109,10.055327 C17.4681411,10.055327 17.3321223,9.76551131 17.3321223,9.4756956 C17.3321223,9.07910569 17.3774619,7.63002715 17.3774619,7.0656492 C17.3774619,6.592792 17.3170091,5.96740021 17.165877,5.6775845 C16.9845186,5.2047273 16.5160092,4.89965813 16.0021603,4.89965813 C15.7452358,4.89965813 15.4429717,4.99117888 15.095368,5.17422038 C14.7931039,5.32675496 14.2943681,5.64707759 13.9467644,6.05892096 C13.765406,6.27246937 13.6596135,6.4097505 13.6596135,6.5165247 C13.6596135,6.57753854 13.7351796,6.66905929 13.8107456,6.65380583 C13.916538,6.63855237 14.3699342,6.42500396 14.5210662,6.31822975 C14.5512926,6.28772283 14.581519,6.24196246 14.581519,6.19620208 C14.581519,6.08942787 14.581519,5.96740021 14.5966322,5.90638638 C14.6268586,5.73859834 14.7175379,5.63182413 14.8233303,5.54030338 C15.0500284,5.40302225 15.2011604,5.35726188 15.4278585,5.35726188 C15.6092169,5.35726188 15.8661414,5.44878263 16.0626131,5.60131721 C16.3195376,5.79961217 16.42533,6.226709 16.42533,6.85210079 C16.42533,7.0656492 16.42533,7.37071837 16.3951036,7.55375986 C16.3951036,7.6147737 16.3195376,7.75205482 16.1986319,7.78256174 C15.8812546,7.9045894 14.505953,8.31643277 14.1432361,8.51472773 C14.0072172,8.59099502 13.5991607,8.89606419 13.5991607,9.38417485 C13.5991607,10.1773547 14.2036889,10.6959723 14.8082171,10.6959723 C15.3825189,10.6959723 15.835915,10.4366635 16.2893112,10.0095666 C16.3044244,9.99431318 16.349764,9.99431318 16.3648772,10.0248201 C16.500896,10.3756496 16.8333865,10.7112257 17.2565563,10.7112257 Z M15.4731981,10.1163408 C15.0046888,10.1163408 14.5664058,9.76551131 14.5664058,9.26214718 C14.5664058,8.8197969 14.7628775,8.59099502 14.9442359,8.49947427 C15.2616132,8.33168623 16.1381791,8.01136361 16.3346508,7.98085669 C16.3648772,7.96560324 16.3951036,8.04187053 16.3951036,8.05712398 C16.3951036,8.6367554 16.3648772,9.24689373 16.3195376,9.50620252 C16.3044244,9.67399056 16.2137451,9.81127168 16.1532923,9.87228551 C15.9870471,10.0248201 15.7301226,10.1163408 15.4731981,10.1163408 Z M20.8081594,10.6807188 C21.2313291,10.6807188 21.6998384,10.5434377 22.0323289,10.2841289 C22.2288006,10.1315943 22.3648194,9.97905972 22.3648194,9.88753897 C22.3648194,9.82652514 22.3194798,9.81127168 22.2136874,9.88753897 C22.0776686,9.97905972 21.8056309,10.1163408 21.3824611,10.1163408 C20.9895178,10.1163408 20.6721405,9.99431318 20.4454424,9.70449747 C20.33965,9.55196289 20.3094236,9.36892139 20.2791972,8.88081073 C20.264084,8.40795352 20.2489708,6.01316058 20.2489708,5.75385179 C20.2489708,5.66233104 20.2791972,5.61657067 20.4605557,5.61657067 C20.8686122,5.61657067 21.6091592,5.63182413 22.1381214,5.63182413 C22.2136874,5.63182413 22.2892534,5.50979646 22.2892534,5.25048767 C22.2892534,5.14371347 22.2288006,5.03693926 22.1985742,5.03693926 C21.8811969,5.03693926 20.6268009,5.08269963 20.3547632,5.08269963 C20.2943104,5.08269963 20.2791972,4.99117888 20.2791972,4.94541851 C20.264084,4.76237701 20.2943104,4.33528018 20.2943104,4.19799906 C20.2943104,4.12173176 20.188518,4.09122485 20.0524991,4.24375943 C19.6897822,4.71661663 19.1910465,5.12846001 18.8132163,5.26574113 C18.6469711,5.34200842 18.6318579,5.3877688 18.6318579,5.41827571 C18.6318579,5.47928955 18.7074239,5.52504992 18.8283295,5.55555684 C18.9643484,5.58606375 19.1305936,5.61657067 19.1910465,5.64707759 C19.2514993,5.6775845 19.2666125,5.78435871 19.2666125,5.95214675 L19.2666125,9.1096126 C19.2666125,9.4756956 19.3270653,9.78076476 19.4479709,9.97905972 C19.7048954,10.4671704 20.1734048,10.6807188 20.8081594,10.6807188 Z M25.2363283,10.7112257 C26.097781,10.7112257 26.7325356,10.4061566 27.3370638,9.75025785 C27.427743,9.64348364 27.4881958,9.55196289 27.4881958,9.50620252 C27.4881958,9.42993522 27.427743,9.39942831 27.3068374,9.52145597 C26.9441205,9.87228551 26.4907243,10.0095666 25.8710829,10.0095666 C25.3723472,10.0095666 24.767819,9.8417786 24.3597625,9.38417485 C23.9668191,8.94182456 23.664555,8.31643277 23.664555,7.53850641 C23.664555,7.11140958 23.7098947,6.8826077 23.7854607,6.6995662 C23.8156871,6.65380583 23.8912531,6.57753854 23.9214795,6.57753854 L24.7375926,6.57753854 C25.0851963,6.57753854 27.0499129,6.60804545 27.1708185,6.62329891 C27.2463846,6.62329891 27.3219506,6.53177816 27.3219506,6.45551087 C27.3219506,5.52504992 26.3698187,4.89965813 25.4781396,4.89965813 C24.692253,4.89965813 23.9970456,5.26574113 23.588989,5.66233104 C22.9542344,6.28772283 22.7124232,7.18767687 22.7124232,7.88933594 C22.7124232,8.71302269 22.9844608,9.44518868 23.437857,9.93329935 C23.8912531,10.42141 24.5260077,10.7112257 25.2363283,10.7112257 Z M23.9819323,6.36399012 C23.9517059,6.36399012 23.9214795,6.33348321 23.9214795,6.30297629 C23.9214795,6.18094862 24.0574984,5.89113292 24.2388568,5.6775845 C24.5713473,5.32675496 24.9491774,5.11320655 25.3421208,5.11320655 C25.6897245,5.11320655 25.946649,5.25048767 26.097781,5.40302225 C26.2640263,5.58606375 26.3093659,5.860626 26.3093659,6.0436675 C26.3093659,6.18094862 26.2791395,6.34873666 25.946649,6.34873666 L23.9819323,6.36399012 Z M28.16829,10.6349584 C28.3798749,10.6349584 28.5461202,10.5434377 29.0901955,10.5434377 C29.7249501,10.5434377 30.2236859,10.6044515 30.5108368,10.6044515 C30.7375348,10.6044515 30.8735537,10.5739446 30.8735537,10.4976773 C30.8735537,10.42141 30.7979877,10.3909031 30.5864028,10.3603962 C30.012101,10.2993823 29.8307426,10.1926081 29.7702897,9.71975093 C29.7400633,9.39942831 29.7098369,8.60624848 29.7098369,7.47749257 C29.7098369,7.17242341 29.6947237,6.73007312 29.7249501,6.54703162 C29.7400633,6.36399012 29.8156294,6.19620208 29.9818746,6.01316058 C30.1783463,5.83011908 30.4201575,5.70809142 30.6468556,5.70809142 C30.8131009,5.70809142 31.0095725,5.78435871 31.1758178,5.89113292 C31.342063,5.98265367 31.4176291,5.99790713 31.4478555,5.99790713 C31.4931951,5.99790713 31.5536479,5.98265367 31.6896667,5.860626 C31.8710252,5.69283796 32.0221572,5.44878263 32.0221572,5.34200842 C32.0221572,5.26574113 31.9919308,5.18947384 31.9163648,5.12846001 C31.7652328,5.00643234 31.5687611,4.93016505 31.3874026,4.93016505 C30.7828745,4.93016505 30.1783463,5.494543 29.7551765,6.02841404 C29.7098369,6.07417442 29.6796105,6.05892096 29.6796105,6.01316058 C29.6796105,5.76910525 29.6947237,5.18947384 29.6947237,5.0216858 C29.6947237,4.86915122 29.6644973,4.80813738 29.6342709,4.80813738 C29.5889313,4.80813738 29.5133653,4.82339084 29.4075728,4.88440468 C29.1657616,5.0216858 28.7425918,5.17422038 28.4403277,5.25048767 C28.3043089,5.29624805 28.2136297,5.35726188 28.2136297,5.3877688 C28.2136297,5.41827571 28.2287429,5.46403609 28.3345353,5.54030338 C28.6216862,5.78435871 28.7274786,5.83011908 28.7274786,5.93689329 L28.7274786,7.63002715 C28.7274786,8.6367554 28.7123654,9.50620252 28.682139,9.76551131 C28.6216862,10.1773547 28.4554409,10.3146358 28.1380636,10.3909031 C28.017158,10.42141 27.9113656,10.4976773 27.9113656,10.5434377 C27.9113656,10.6044515 27.9869316,10.6349584 28.16829,10.6349584 Z M6.58663375,25.8884166 C6.78310541,25.8884166 6.88889784,25.8731632 6.88889784,25.7816424 C6.88889784,25.7053751 6.81333182,25.6748682 6.63197336,25.6291079 C6.1181244,25.4765733 5.96699235,25.3697991 5.90653954,24.8511815 C5.86119992,24.3783243 5.8007471,22.4868955 5.81586031,21.6327018 L5.81689688,21.3193468 C5.82220412,20.239176 5.84608672,17.3752921 5.84608672,16.8736228 C5.84608672,16.7668486 5.86119992,16.644821 5.93676594,16.6295675 C6.1181244,16.6066873 6.5885229,16.6009673 7.01003962,16.5995373 L7.4027468,16.5990606 C8.46067113,16.5990606 8.65714279,16.6600744 8.79316163,16.7821021 C8.91406727,16.9041298 9.03497291,17.2244524 9.06519932,17.4990146 C9.08031252,17.5752819 9.12565213,17.712563 9.18610495,17.712563 C9.23144457,17.712563 9.30701059,17.6057888 9.30701059,17.376987 C9.29189739,16.8583694 9.29189739,16.4007656 9.35235021,16.2177241 C9.36746341,16.0956965 9.35235021,16.0651896 9.337237,16.0194292 C9.3221238,15.9889223 9.27678418,16.0041757 9.21633136,16.0499361 C8.95940688,16.1872172 8.6873692,16.2177241 7.97704858,16.2177241 L5.37757737,16.2329776 C3.82091729,16.2329776 2.32471002,16.1872172 2.08289875,16.1719638 C1.87131388,16.1567103 1.65972902,16.0956965 1.5992762,16.0194292 C1.55393658,15.9736688 1.50859697,15.9431619 1.47837056,15.9584153 C1.40280454,15.9889223 1.40280454,16.0651896 1.38769133,16.1872172 C1.38769133,16.5838071 1.2667857,17.0414109 1.19121967,17.4990146 C1.17610647,17.6057888 1.17610647,17.7278165 1.23655929,17.7278165 C1.2970121,17.7278165 1.37257813,17.6515492 1.44814415,17.4685077 C1.65972902,16.8736228 1.85620068,16.6905813 2.14335157,16.6295675 C2.44561566,16.5990606 2.80833257,16.5685537 3.42797397,16.5685537 C4.12318138,16.5685537 4.47078509,16.5990606 4.56146432,16.614314 C4.60680393,16.614314 4.65214355,16.6600744 4.66725675,16.7973555 C4.69748316,17.010904 4.69748316,23.0817803 4.59169073,24.5613658 C4.54635111,25.2630249 4.45567189,25.5070802 3.73023806,25.6138544 C3.56399281,25.6443613 3.42797397,25.6901217 3.42797397,25.7511355 C3.42797397,25.8274028 3.50353999,25.8884166 3.70001165,25.8884166 C3.94182293,25.8884166 4.39521907,25.7968959 5.16599251,25.7968959 C5.77052069,25.7968959 6.23903004,25.8884166 6.58663375,25.8884166 Z M8.30953908,25.8884166 C8.52112395,25.8884166 8.6873692,25.7968959 9.23144457,25.7968959 C9.86619916,25.7968959 10.3649349,25.8579097 10.6520858,25.8579097 C10.8787839,25.8579097 11.0148027,25.8274028 11.0148027,25.7511355 C11.0148027,25.6748682 10.9392367,25.6443613 10.7276518,25.6138544 C10.1533501,25.5528406 9.9719916,25.4460664 9.91153878,24.9732092 C9.88131237,24.6528865 9.85108596,23.8597067 9.85108596,22.7309508 C9.85108596,22.4258816 9.83597276,21.9835313 9.86619916,21.8004898 C9.88131237,21.6174483 9.95687839,21.4496603 10.1231236,21.2666188 C10.3195953,21.0835773 10.5614066,20.9615496 10.7881047,20.9615496 C10.9543499,20.9615496 11.1508216,21.0378169 11.3170668,21.1445911 C11.4833121,21.2361119 11.5588781,21.2513653 11.5891045,21.2513653 C11.6344441,21.2513653 11.6948969,21.2361119 11.8309158,21.1140842 C12.0122742,20.9462962 12.1634063,20.7022408 12.1634063,20.5954666 C12.1634063,20.5191994 12.1331799,20.4429321 12.0576138,20.3819182 C11.9064818,20.2598906 11.7100101,20.1836233 11.5286517,20.1836233 C10.9241235,20.1836233 10.3195953,20.7480012 9.89642557,21.2818723 C9.85108596,21.3276326 9.82085955,21.3123792 9.82085955,21.2666188 C9.82085955,21.0225635 9.83597276,20.4429321 9.83597276,20.275144 C9.83597276,20.1226094 9.80574635,20.0615956 9.77551994,20.0615956 C9.73018032,20.0615956 9.6546143,20.0768491 9.54882187,20.1378629 C9.30701059,20.275144 8.88384086,20.4276786 8.58157677,20.5039459 C8.44555792,20.5497063 8.3548787,20.6107201 8.3548787,20.641227 C8.3548787,20.6717339 8.3699919,20.7174943 8.47578433,20.7937616 C8.76293522,21.0378169 8.86872765,21.0835773 8.86872765,21.1903515 L8.86746822,23.3732202 C8.86327011,24.163081 8.84857672,24.8028789 8.82338804,25.0189695 C8.76293522,25.4308129 8.59668997,25.568094 8.27931267,25.6443613 C8.15840703,25.6748682 8.0526146,25.7511355 8.0526146,25.7968959 C8.0526146,25.8579097 8.12818063,25.8884166 8.30953908,25.8884166 Z M14.9895756,25.9646839 C15.8510282,25.9646839 16.4857828,25.6596148 17.090311,25.0037161 C17.1809902,24.8969419 17.2414431,24.8054211 17.2414431,24.7596607 C17.2414431,24.6833934 17.1809902,24.6528865 17.0600846,24.7749142 C16.6973677,25.1257437 16.2439715,25.2630249 15.6243302,25.2630249 C15.1255944,25.2630249 14.5210662,25.0952368 14.1130097,24.6376331 C13.7200664,24.1952828 13.4178023,23.569891 13.4178023,22.7919646 C13.4178023,22.3648678 13.4631419,22.1360659 13.5387079,21.9530244 C13.5689343,21.907264 13.6445003,21.8309968 13.6747267,21.8309968 L14.4908398,21.8309968 C14.8384435,21.8309968 16.8031601,21.8615037 16.9240658,21.8767571 C16.9996318,21.8767571 17.0751978,21.7852364 17.0751978,21.7089691 C17.0751978,20.7785081 16.1230659,20.1531164 15.2313868,20.1531164 C14.4455002,20.1531164 13.7502928,20.5191994 13.3422362,20.9157893 C12.7074816,21.5411811 12.4656704,22.4411351 12.4656704,23.1427942 C12.4656704,23.9664809 12.7377081,24.6986469 13.1911042,25.1867576 C13.6445003,25.6748682 14.2792549,25.9646839 14.9895756,25.9646839 Z M13.7351796,21.6174483 C13.7049532,21.6174483 13.6747267,21.5869414 13.6747267,21.5564345 C13.6747267,21.4344068 13.8107456,21.1445911 13.992104,20.9310427 C14.3245945,20.5802132 14.7024247,20.3666648 15.095368,20.3666648 C15.4429717,20.3666648 15.6998962,20.5039459 15.8510282,20.6564805 C16.0172735,20.839522 16.0626131,21.1140842 16.0626131,21.2971257 C16.0626131,21.4344068 16.0323867,21.6021949 15.6998962,21.6021949 L13.7351796,21.6174483 Z M21.6242724,25.9646839 C22.107895,25.9646839 22.5764043,25.7358821 22.7879892,25.3087852 C22.848442,25.1715041 22.7879892,25.1257437 22.6973099,25.1715041 C22.5310647,25.2630249 22.3799326,25.3087852 22.259027,25.3087852 C21.8358573,25.3087852 21.6998384,25.0189695 21.6998384,24.7291538 C21.6998384,24.3325639 21.7451781,22.8834854 21.7451781,22.3191074 C21.7451781,21.8462502 21.6847252,21.2208584 21.5335932,20.9310427 C21.3522347,20.4581855 20.8837254,20.1531164 20.3698764,20.1531164 C20.1129519,20.1531164 19.8106879,20.2446371 19.4630841,20.4276786 C19.16082,20.5802132 18.6620843,20.9005358 18.3144806,21.3123792 C18.1331221,21.5259276 18.0273297,21.6632087 18.0273297,21.7699829 C18.0273297,21.8309968 18.1028957,21.9225175 18.1784617,21.907264 C18.2842542,21.8920106 18.7376503,21.6784622 18.8887824,21.571688 C18.9190088,21.5411811 18.9492352,21.4954207 18.9492352,21.4496603 C18.9492352,21.3428861 18.9492352,21.2208584 18.9643484,21.1598446 C18.9945748,20.9920566 19.085254,20.8852823 19.1910465,20.7937616 C19.4177445,20.6564805 19.5688766,20.6107201 19.7955746,20.6107201 C19.9769331,20.6107201 20.2338576,20.7022408 20.4303292,20.8547754 C20.6872537,21.0530704 20.7930462,21.4801672 20.7930462,22.105559 C20.7930462,22.3191074 20.7930462,22.6241766 20.7628197,22.8072181 C20.7628197,22.8682319 20.6872537,23.005513 20.5663481,23.03602 C20.2489708,23.1580476 18.8736692,23.569891 18.5109522,23.768186 C18.3749334,23.8444532 17.9668769,24.1495224 17.9668769,24.6376331 C17.9668769,25.4308129 18.5714051,25.9494305 19.1759333,25.9494305 C19.750235,25.9494305 20.2036312,25.6901217 20.6570273,25.2630249 C20.6721405,25.2477714 20.7174801,25.2477714 20.7325933,25.2782783 C20.8686122,25.6291079 21.2011027,25.9646839 21.6242724,25.9646839 Z M19.8409143,25.3697991 C19.3724049,25.3697991 18.934122,25.0189695 18.934122,24.5156054 C18.934122,24.0732551 19.1305936,23.8444532 19.3119521,23.7529325 C19.6293294,23.5851445 20.5058953,23.2648218 20.7023669,23.2343149 C20.7325933,23.2190615 20.7628197,23.2953287 20.7628197,23.3105822 C20.7628197,23.8902136 20.7325933,24.5003519 20.6872537,24.7596607 C20.6721405,24.9274488 20.5814613,25.0647299 20.5210085,25.1257437 C20.3547632,25.2782783 20.0978387,25.3697991 19.8409143,25.3697991 Z M25.1758755,25.934177 C25.5990452,25.934177 26.0675546,25.7968959 26.4000451,25.5375871 C26.5965168,25.3850525 26.7325356,25.2325179 26.7325356,25.1409972 C26.7325356,25.0799834 26.687196,25.0647299 26.5814036,25.1409972 C26.4453847,25.2325179 26.173347,25.3697991 25.7501773,25.3697991 C25.357234,25.3697991 25.0398567,25.2477714 24.8131586,24.9579557 C24.7073662,24.8054211 24.6771398,24.6223796 24.6469134,24.1342689 C24.6318001,23.6614117 24.6166869,21.2666188 24.6166869,21.00731 C24.6166869,20.9157893 24.6469134,20.8700289 24.8282718,20.8700289 C25.2363283,20.8700289 25.9768754,20.8852823 26.5058375,20.8852823 C26.5814036,20.8852823 26.6569696,20.7632547 26.6569696,20.5039459 C26.6569696,20.3971717 26.5965168,20.2903975 26.5662903,20.2903975 C26.248913,20.2903975 24.9945171,20.3361579 24.7224794,20.3361579 C24.6620266,20.3361579 24.6469134,20.2446371 24.6469134,20.1988767 C24.6318001,20.0158352 24.6620266,19.5887384 24.6620266,19.4514573 C24.6620266,19.37519 24.5562341,19.3446831 24.4202153,19.4972176 C24.0574984,19.9700749 23.5587626,20.3819182 23.1809325,20.5191994 C23.0146872,20.5954666 22.999574,20.641227 22.999574,20.6717339 C22.999574,20.7327478 23.0751401,20.7785081 23.1960457,20.8090151 C23.3320645,20.839522 23.4983098,20.8700289 23.5587626,20.9005358 C23.6192154,20.9310427 23.6343286,21.0378169 23.6343286,21.205605 L23.6343286,24.3630708 C23.6343286,24.7291538 23.6947815,25.034223 23.8156871,25.2325179 C24.0726116,25.7206286 24.5411209,25.934177 25.1758755,25.934177 Z M34.7878737,25.8426563 C35.0145718,25.8426563 35.3470623,25.7968959 35.7097792,25.7968959 C36.0573829,25.7968959 36.5863451,25.8274028 36.7525903,25.8274028 C36.9339488,25.8274028 37.0095148,25.7968959 37.0095148,25.7206286 C37.0095148,25.6748682 36.949062,25.6291079 36.7374771,25.5833475 C36.4049866,25.5223336 36.3143074,25.4155594 36.2991942,24.9121953 L36.2387413,22.7156973 C36.2387413,22.1513194 36.1631753,21.571688 36.0573829,21.2666188 C35.8609112,20.6717339 35.3621755,20.1531164 34.5309492,20.1531164 C33.775289,20.1531164 33.0800816,20.5649597 32.4604402,21.1750981 C32.4302138,21.1903515 32.3697609,21.1750981 32.3546477,21.1445911 C32.0221572,20.4886924 31.5385347,20.1683698 30.8433273,20.1683698 C30.1934595,20.1683698 29.4680256,20.6107201 28.9692899,21.0683238 C28.9088371,21.1140842 28.8937239,21.0225635 28.8937239,20.9768031 C28.8786107,20.8090151 28.8937239,20.4124251 28.8937239,20.2446371 C28.8937239,20.1531164 28.8634975,20.0921025 28.8181578,20.0921025 C28.757705,20.0921025 28.682139,20.1226094 28.5914598,20.1836233 C28.3496485,20.3819182 27.8811392,20.5649597 27.5637619,20.641227 C27.4428562,20.6717339 27.3824034,20.7022408 27.3824034,20.7480012 L27.3975166,20.7480012 C27.3975166,20.8242685 27.427743,20.8547754 27.5335354,20.9157893 C27.7753467,21.0530704 27.866026,21.1903515 27.8811392,21.4496603 C27.9113656,21.739476 27.8962524,22.1208125 27.8962524,22.6851904 L27.8953078,23.3947146 C27.8924741,24.1304556 27.8811392,24.8855018 27.8357995,25.1257437 C27.8055731,25.3087852 27.8055731,25.4765733 27.3370638,25.5833475 C27.1254789,25.6138544 27.0347997,25.6596148 27.0347997,25.7206286 C27.0347997,25.7816424 27.1708185,25.8274028 27.3068374,25.8274028 C27.503309,25.8274028 27.8206863,25.7968959 28.2891957,25.7968959 C28.6519126,25.7968959 29.1506483,25.8274028 29.4377992,25.8274028 C29.5435917,25.8274028 29.6644973,25.7968959 29.6644973,25.7206286 C29.6644973,25.6748682 29.6040445,25.6291079 29.4377992,25.5986009 C29.0750823,25.5223336 28.9844031,25.3392921 28.9541767,25.0952368 C28.9239503,24.8206746 28.8634975,23.7529325 28.8634975,22.6241766 C28.8634975,22.105559 28.9088371,21.7547295 28.9239503,21.5869414 C28.9390635,21.4801672 28.9692899,21.3276326 29.1053087,21.205605 C29.3320068,20.9920566 29.7098369,20.7327478 30.2387991,20.7327478 C30.7073084,20.7327478 30.9491197,20.8700289 31.1607046,21.0835773 C31.4629687,21.4191534 31.5385347,21.7699829 31.5385347,22.6089231 L31.5234215,25.0799834 C31.5234215,25.4460664 31.3722894,25.5223336 31.0549121,25.5833475 C30.8584405,25.6291079 30.7828745,25.6901217 30.7828745,25.7358821 C30.7828745,25.7968959 30.8584405,25.8274028 31.0246857,25.8274028 C31.190931,25.8274028 31.5536479,25.7968959 31.8861384,25.7968959 C32.3244213,25.7968959 32.7778175,25.8274028 33.0498552,25.8274028 C33.2161004,25.8274028 33.3067796,25.7968959 33.3067796,25.7358821 C33.3067796,25.6748682 33.2312136,25.6596148 33.0649684,25.5986009 C32.6871382,25.5070802 32.6417986,25.400306 32.596459,24.9732092 C32.5662326,24.5613658 32.520893,22.2275867 32.4906666,21.8004898 C32.4906666,21.5259276 32.5360062,21.3581396 32.596459,21.2971257 C32.8533835,21.0378169 33.3218928,20.7327478 33.8810814,20.7327478 C34.6216284,20.7327478 35.0145718,21.1140842 35.1505906,21.8920106 C35.2110434,22.3496143 35.2866095,23.0817803 35.256383,24.9121953 C35.256383,25.3697991 35.180817,25.5070802 34.7425341,25.5986009 C34.6216284,25.6291079 34.4856096,25.6748682 34.4856096,25.7511355 C34.4856096,25.8121494 34.591402,25.8426563 34.7878737,25.8426563 Z M40.2588538,25.9646839 C41.1203065,25.9646839 41.7550611,25.6596148 42.3595892,25.0037161 C42.4502685,24.8969419 42.5107213,24.8054211 42.5107213,24.7596607 C42.5107213,24.6833934 42.4502685,24.6528865 42.3293628,24.7749142 C41.9666459,25.1257437 41.5132498,25.2630249 40.8936084,25.2630249 C40.3948726,25.2630249 39.7903445,25.0952368 39.3822879,24.6376331 C38.9893446,24.1952828 38.6870805,23.569891 38.6870805,22.7919646 C38.6870805,22.3648678 38.7324201,22.1360659 38.8079861,21.9530244 C38.8382126,21.907264 38.9137786,21.8309968 38.944005,21.8309968 L39.760118,21.8309968 C40.1077218,21.8309968 42.0724384,21.8615037 42.193344,21.8767571 C42.26891,21.8767571 42.344476,21.7852364 42.344476,21.7089691 C42.344476,20.7785081 41.3923441,20.1531164 40.5006651,20.1531164 C39.7147784,20.1531164 39.019571,20.5191994 38.6115145,20.9157893 C37.9767599,21.5411811 37.7349486,22.4411351 37.7349486,23.1427942 C37.7349486,23.9664809 38.0069863,24.6986469 38.4603824,25.1867576 C38.9137786,25.6748682 39.5485332,25.9646839 40.2588538,25.9646839 Z M39.0044578,21.6174483 C38.9742314,21.6174483 38.944005,21.5869414 38.944005,21.5564345 C38.944005,21.4344068 39.0800238,21.1445911 39.2613823,20.9310427 C39.5938728,20.5802132 39.9717029,20.3666648 40.3646462,20.3666648 C40.7122499,20.3666648 40.9691744,20.5039459 41.1203065,20.6564805 C41.2865517,20.839522 41.3318913,21.1140842 41.3318913,21.2971257 C41.3318913,21.4344068 41.3016649,21.6021949 40.9691744,21.6021949 L39.0044578,21.6174483 Z M48.8582673,25.8579097 C49.0093993,25.8579097 49.130305,25.8426563 49.130305,25.7511355 C49.130305,25.6901217 49.0396257,25.6596148 48.9036069,25.5986009 C48.4955504,25.4918267 48.4502107,25.400306 48.4350975,24.3630708 C48.4350975,23.6003979 48.4199843,23.4783702 48.4199843,22.669937 C48.4048711,21.8004898 48.2839655,21.0378169 47.9363618,20.6717339 C47.7398901,20.4581855 47.3771732,20.1531164 46.7575318,20.1531164 C46.5006073,20.1531164 46.18323,20.1836233 45.8658527,20.3361579 C45.5333622,20.473439 45.1706453,20.7327478 44.7928152,21.0225635 C44.7625888,21.0530704 44.7172492,21.00731 44.7172492,20.9768031 C44.702136,20.7632547 44.7323624,20.3514113 44.7474756,20.1683698 C44.7625888,20.0921025 44.6870228,20.0310887 44.6416832,20.0463421 C44.3847587,20.2141302 43.7802305,20.473439 43.44774,20.5649597 C43.3117211,20.6107201 43.2361551,20.6564805 43.2361551,20.6869874 C43.2361551,20.7327478 43.2663815,20.7632547 43.3570608,20.8242685 C43.7197777,21.0225635 43.7500041,21.1903515 43.7500041,21.3428861 L43.7488846,22.6168323 C43.7466456,23.4800651 43.7399286,24.3478174 43.7197777,25.0799834 C43.7046645,25.3850525 43.6442116,25.4918267 43.2663815,25.568094 C43.0850231,25.5986009 42.9490042,25.6596148 42.9490042,25.7206286 C42.9490042,25.7968959 43.0699099,25.8274028 43.2361551,25.8274028 C43.523306,25.8274028 43.8406833,25.7968959 44.037155,25.7968959 C44.3847587,25.7968959 45.1253057,25.8579097 45.2462113,25.8579097 C45.3973434,25.8579097 45.5484754,25.8579097 45.5484754,25.766389 C45.5484754,25.6901217 45.4729094,25.6596148 45.291551,25.6138544 C45.0497397,25.5375871 44.8683812,25.4613198 44.8230416,25.1257437 C44.7928152,24.9121953 44.7474756,24.5156054 44.7323624,23.5241306 L44.7310452,23.0412916 C44.7273663,22.3457064 44.7172492,21.7977165 44.7172492,21.6479553 C44.7172492,21.5259276 44.7928152,21.2971257 44.8986076,21.1903515 C45.291551,20.8547754 45.6844943,20.7022408 46.0774376,20.7022408 C46.4250413,20.7022408 46.7121922,20.8090151 46.9388903,20.9920566 C47.3167204,21.2818723 47.4225128,21.6479553 47.4225128,22.8834854 L47.4225128,24.9579557 C47.4225128,25.400306 47.36206,25.5070802 46.9993431,25.5986009 C46.8028714,25.6443613 46.7121922,25.7053751 46.7121922,25.766389 C46.7121922,25.8274028 46.8179846,25.8579097 46.9540035,25.8579097 C47.1807015,25.8579097 47.3771732,25.7968959 47.8910222,25.7968959 C48.2235127,25.7968959 48.6617956,25.8579097 48.8582673,25.8579097 Z M51.865795,25.934177 C52.2889647,25.934177 52.7574741,25.7968959 53.0899646,25.5375871 C53.2864362,25.3850525 53.4224551,25.2325179 53.4224551,25.1409972 C53.4224551,25.0799834 53.3771155,25.0647299 53.271323,25.1409972 C53.1353042,25.2325179 52.8632665,25.3697991 52.4400968,25.3697991 C52.0471535,25.3697991 51.7297762,25.2477714 51.5030781,24.9579557 C51.3972857,24.8054211 51.3670592,24.6223796 51.3368328,24.1342689 C51.3217196,23.6614117 51.3066064,21.2666188 51.3066064,21.00731 C51.3066064,20.9157893 51.3368328,20.8700289 51.5181913,20.8700289 C51.9262478,20.8700289 52.6667948,20.8852823 53.195757,20.8852823 C53.271323,20.8852823 53.3468891,20.7632547 53.3468891,20.5039459 C53.3468891,20.3971717 53.2864362,20.2903975 53.2562098,20.2903975 C52.9388325,20.2903975 51.6844365,20.3361579 51.4123989,20.3361579 C51.351946,20.3361579 51.3368328,20.2446371 51.3368328,20.1988767 C51.3217196,20.0158352 51.351946,19.5887384 51.351946,19.4514573 C51.351946,19.37519 51.2461536,19.3446831 51.1101348,19.4972176 C50.7474179,19.9700749 50.2486821,20.3819182 49.870852,20.5191994 C49.7046067,20.5954666 49.6894935,20.641227 49.6894935,20.6717339 C49.6894935,20.7327478 49.7650595,20.7785081 49.8859652,20.8090151 C50.021984,20.839522 50.1882293,20.8700289 50.2486821,20.9005358 C50.3091349,20.9310427 50.3242481,21.0378169 50.3242481,21.205605 L50.3242481,24.3630708 C50.3242481,24.7291538 50.3847009,25.034223 50.5056066,25.2325179 C50.7625311,25.7206286 51.2310404,25.934177 51.865795,25.934177 Z M4.53123791,41.1418749 C4.68236996,41.1418749 4.84861521,41.1266214 4.84861521,41.0351007 C4.84861521,40.9740868 4.75793598,40.9283264 4.63703034,40.8978195 C3.94182293,40.7300315 3.8511437,40.6385107 3.83603049,40.0588793 C3.80580408,39.3724737 3.77557767,36.9929342 3.79069088,36.718372 C3.79069088,36.6421047 3.91159652,36.520077 3.94182293,36.520077 L4.50089563,36.520894 C6.11884408,36.5260262 6.33762571,36.5549421 6.55640734,36.5963443 C6.73776579,36.6421047 6.88889784,36.7946393 7.00980348,37.1302154 C7.10048271,37.3437638 7.16093552,37.4657914 7.22138834,37.4657914 C7.29695437,37.4657914 7.32718078,37.4047776 7.32718078,37.2064826 C7.31206757,37.0081877 7.26672796,36.7946393 7.26672796,36.4743166 C7.26672796,36.153994 7.32718078,35.6963903 7.34229398,35.5286022 C7.35740719,35.3760677 7.32718078,35.2998004 7.26672796,35.2998004 C7.22138834,35.2998004 7.17604873,35.3608142 7.10048271,35.5133488 C6.87378464,36.0319664 6.66219977,36.0777267 6.4506149,36.1082337 C6.20880363,36.1387406 5.4833698,36.153994 3.94182293,36.153994 C3.91159652,36.153994 3.80580408,36.0929802 3.80580408,35.9709525 C3.77557767,34.2168048 3.80580408,32.4626571 3.82091729,32.0355603 C3.82091729,31.959293 3.92670972,31.7609981 4.03250215,31.7609981 L5.11226049,31.7623311 C5.79198323,31.7653304 6.20647852,31.7750782 6.54129413,31.8067584 C7.0853695,31.8525188 7.41786,32.0813207 7.67478448,32.6762056 C7.75035051,32.8745005 7.79569012,32.9812747 7.85614294,32.9812747 C7.93170896,32.9812747 7.96193537,32.8439936 7.93170896,32.691459 C7.90148255,32.5084175 7.85614294,31.8372653 7.82591653,31.6237169 C7.82591653,31.5169427 7.7201241,31.4406754 7.4027468,31.4406754 C6.82844502,31.4406754 5.22644532,31.4864358 3.63955883,31.4864358 C2.97457783,31.4864358 2.14335157,31.425422 1.96199311,31.425422 C1.82597427,31.425422 1.73529504,31.4559289 1.73529504,31.5169427 C1.73529504,31.59321 1.84108747,31.6389704 1.97710632,31.6694773 C2.52118168,31.8067584 2.5665213,31.9440396 2.59674771,32.4931641 C2.64208732,33.423625 2.64208732,34.354086 2.64208732,35.9709525 C2.64208732,37.6488329 2.64208732,39.5402618 2.59674771,40.0436259 C2.5665213,40.6080038 2.49095528,40.7300315 1.9166535,40.8520592 C1.72018184,40.8978195 1.64461581,40.9435799 1.64461581,41.0045937 C1.64461581,41.080861 1.75040825,41.1113679 1.88642709,41.1113679 C2.09801195,41.1113679 2.47584207,41.0503541 3.05014385,41.0503541 C3.66978524,41.0503541 4.31965304,41.1418749 4.53123791,41.1418749 Z M11.7553498,41.2181422 C12.2389723,41.2181422 12.7074816,40.9893403 12.9190665,40.5622435 C12.9795193,40.4249623 12.9190665,40.379202 12.8283873,40.4249623 C12.662142,40.5164831 12.51101,40.5622435 12.3901043,40.5622435 C11.9669346,40.5622435 11.8309158,40.2724277 11.8309158,39.982612 C11.8309158,39.5860221 11.8762554,38.1369436 11.8762554,37.5725656 C11.8762554,37.0997084 11.8158026,36.4743166 11.6646705,36.1845009 C11.4833121,35.7116437 11.0148027,35.4065746 10.5009538,35.4065746 C10.2440293,35.4065746 9.94176519,35.4980953 9.59416148,35.6811368 C9.29189739,35.8336714 8.79316163,36.153994 8.44555792,36.5658374 C8.26419947,36.7793858 8.15840703,36.9166669 8.15840703,37.0234411 C8.15840703,37.084455 8.23397306,37.1759757 8.30953908,37.1607223 C8.41533151,37.1454688 8.86872765,36.9319204 9.0198597,36.8251462 C9.05008611,36.7946393 9.08031252,36.7488789 9.08031252,36.7031185 C9.08031252,36.5963443 9.08031252,36.4743166 9.09542573,36.4133028 C9.12565213,36.2455148 9.21633136,36.1387406 9.3221238,36.0472198 C9.54882187,35.9099387 9.69995391,35.8641783 9.92665198,35.8641783 C10.1080104,35.8641783 10.3649349,35.9556991 10.5614066,36.1082337 C10.8183311,36.3065286 10.9241235,36.7336254 10.9241235,37.3590172 C10.9241235,37.5725656 10.9241235,37.8776348 10.8938971,38.0606763 C10.8938971,38.1216901 10.8183311,38.2589713 10.6974254,38.2894782 C10.3800481,38.4115058 9.0047465,38.8233492 8.64202958,39.0216442 C8.50601074,39.0979115 8.09795422,39.4029806 8.09795422,39.8910913 C8.09795422,40.6842711 8.7024824,41.2028887 9.30701059,41.2028887 C9.88131237,41.2028887 10.3347085,40.9435799 10.7881047,40.5164831 C10.8032179,40.5012296 10.8485575,40.5012296 10.8636707,40.5317365 C10.9996895,40.8825661 11.33218,41.2181422 11.7553498,41.2181422 Z M9.9719916,40.6232573 C9.50348225,40.6232573 9.06519932,40.2724277 9.06519932,39.7690636 C9.06519932,39.3267133 9.26167098,39.0979115 9.44302943,39.0063907 C9.76040673,38.8386027 10.6369726,38.51828 10.8334443,38.4877731 C10.8636707,38.4725197 10.8938971,38.548787 10.8938971,38.5640404 C10.8938971,39.1436718 10.8636707,39.7538102 10.8183311,40.013119 C10.8032179,40.180907 10.7125386,40.3181881 10.6520858,40.379202 C10.4858406,40.5317365 10.2289161,40.6232573 9.9719916,40.6232573 Z M16.0323867,41.2181422 C17.1507638,41.2181422 17.8459712,40.5774969 18.1180089,40.2114139 C18.2086882,40.1046397 18.2389146,40.0283724 18.2389146,39.9673586 C18.2389146,39.9215982 18.1633485,39.9368517 18.1331221,39.9673586 C17.60416,40.4402158 17.2112166,40.54699 16.5613488,40.54699 C16.1079527,40.54699 15.5487641,40.379202 15.1558208,40.013119 C14.7931039,39.6927963 14.4001606,39.0521511 14.4001606,38.0301694 C14.4001606,36.2760217 15.4429717,35.6658834 16.0777263,35.6658834 C16.2439715,35.6658834 16.4706696,35.6963903 16.6520281,35.787911 C16.8787261,35.9099387 17.2565563,36.1692475 17.4983675,36.4133028 C17.5890468,36.5048236 17.6948392,36.5658374 17.755292,36.5658374 C17.8610844,36.5658374 18.1331221,36.3675424 18.1331221,36.0777267 C18.1331221,36.0014594 18.0877825,35.8794318 17.9215373,35.787911 C17.6646128,35.5896161 17.1961034,35.4065746 16.5462356,35.4065746 C15.5638773,35.4065746 14.7779907,35.8489249 14.3094813,36.2912751 C13.8560852,36.718372 13.3875759,37.450538 13.3875759,38.4115058 C13.3875759,39.250446 13.6596135,39.982612 14.1432361,40.4707227 C14.6419718,40.9588334 15.3522925,41.2181422 16.0323867,41.2181422 Z M20.1129519,33.9422426 C20.3094236,33.9422426 20.6721405,33.7744545 20.6721405,33.3626112 C20.6721405,33.1033024 20.4907821,32.7829798 20.1431784,32.7829798 C19.9013671,32.7829798 19.6142162,32.9965282 19.6142162,33.3778646 C19.6142162,33.6829338 19.8409143,33.9422426 20.1129519,33.9422426 Z M20.9441782,41.1113679 C21.0650838,41.1113679 21.1859895,41.080861 21.1859895,41.0045937 C21.1859895,40.9435799 21.1104235,40.913073 20.9592914,40.8825661 C20.7174801,40.8215522 20.5663481,40.7452849 20.5361217,40.4402158 C20.5058953,40.180907 20.5058953,39.0521511 20.5058953,37.7708606 C20.5058953,36.7946393 20.5058953,35.8641783 20.5361217,35.5591092 C20.5512349,35.3913211 20.5210085,35.3455607 20.4756689,35.3455607 C20.4454424,35.3455607 20.3698764,35.3760677 20.2489708,35.4523349 C19.9315935,35.5896161 19.5688766,35.7421507 19.16082,35.8489249 C19.0248012,35.8794318 18.9794616,35.9251922 18.9794616,35.9709525 C18.9794616,36.0014594 19.0248012,36.0472198 19.1003672,36.0929802 C19.4765181,36.2963596 19.5302539,36.39127 19.5375514,36.5598323 L19.5374689,36.7815777 C19.5317472,37.4005024 19.5066457,39.6093509 19.4933106,40.013119 C19.4781973,40.6385107 19.3421785,40.7605384 19.009688,40.8520592 C18.7981031,40.8825661 18.7225371,40.9283264 18.7225371,40.9893403 C18.7225371,41.0503541 18.8283295,41.080861 18.934122,41.080861 C19.1003672,41.080861 19.3421785,41.0503541 19.8409143,41.0503541 C20.2489708,41.0503541 20.8081594,41.1113679 20.9441782,41.1113679 Z M24.0877248,41.080861 C24.2841964,41.080861 24.3899889,41.0351007 24.3899889,40.9740868 C24.3899889,40.9283264 24.2841964,40.8825661 24.1935172,40.8673126 C23.7703475,40.7910453 23.6796683,40.6842711 23.664555,40.2724277 C23.6494418,39.982612 23.6343286,39.2656995 23.6343286,37.3437638 L23.6343286,35.7268972 C23.6343286,33.4388785 23.6947815,30.8000302 23.6947815,30.693256 C23.6947815,30.6169887 23.6796683,30.5254679 23.6494418,30.5254679 C23.588989,30.5254679 23.513423,30.5559749 23.4680834,30.5712283 C23.1355929,30.693256 22.772876,30.8305371 22.334593,30.9220579 C22.1985742,30.9525648 22.107895,30.9983251 22.107895,31.0440855 C22.107895,31.0898459 22.1532346,31.1203528 22.259027,31.1813666 C22.6519703,31.425422 22.6821967,31.5016893 22.6821967,31.8372653 C22.6973099,32.5084175 22.6821967,33.7592011 22.6821967,34.9947312 C22.6670835,36.8251462 22.6066307,39.4029806 22.5764043,39.9673586 C22.5159515,40.6385107 22.4252723,40.7757919 22.0474421,40.8520592 C21.8509705,40.8978195 21.7754045,40.913073 21.7754045,40.9893403 C21.7754045,41.0656076 21.8509705,41.080861 22.0323289,41.080861 C22.259027,41.080861 22.6519703,41.0503541 23.0449137,41.0503541 C23.3018381,41.0503541 23.8459135,41.080861 24.0877248,41.080861 Z M26.5058375,33.9422426 C26.7023092,33.9422426 27.0650261,33.7744545 27.0650261,33.3626112 C27.0650261,33.1033024 26.8836676,32.7829798 26.5360639,32.7829798 C26.2942527,32.7829798 26.0071018,32.9965282 26.0071018,33.3778646 C26.0071018,33.6829338 26.2337998,33.9422426 26.5058375,33.9422426 Z M27.3370638,41.1113679 C27.4579694,41.1113679 27.5788751,41.080861 27.5788751,41.0045937 C27.5788751,40.9435799 27.503309,40.913073 27.352177,40.8825661 C27.1103657,40.8215522 26.9592337,40.7452849 26.9290073,40.4402158 C26.8987809,40.180907 26.8987809,39.0521511 26.8987809,37.7708606 C26.8987809,36.7946393 26.8987809,35.8641783 26.9290073,35.5591092 C26.9441205,35.3913211 26.9138941,35.3455607 26.8685544,35.3455607 C26.838328,35.3455607 26.762762,35.3760677 26.6418564,35.4523349 C26.3244791,35.5896161 25.9617622,35.7421507 25.5537056,35.8489249 C25.4176868,35.8794318 25.3723472,35.9251922 25.3723472,35.9709525 C25.3723472,36.0014594 25.4176868,36.0472198 25.4932528,36.0929802 C25.9164225,36.3217821 25.9315358,36.4133028 25.9315358,36.6268512 C25.9315358,36.7793858 25.9013093,39.5555152 25.8861961,40.013119 C25.8710829,40.6385107 25.7350641,40.7605384 25.4025736,40.8520592 C25.1909887,40.8825661 25.1154227,40.9283264 25.1154227,40.9893403 C25.1154227,41.0503541 25.2212151,41.080861 25.3270076,41.080861 C25.4932528,41.080861 25.7350641,41.0503541 26.2337998,41.0503541 C26.6418564,41.0503541 27.2010449,41.1113679 27.3370638,41.1113679 Z M30.3597047,41.1876352 C30.7828745,41.1876352 31.2513838,41.0503541 31.5838743,40.7910453 C31.780346,40.6385107 31.9163648,40.4859762 31.9163648,40.3944554 C31.9163648,40.3334416 31.8710252,40.3181881 31.7652328,40.3944554 C31.6292139,40.4859762 31.3571762,40.6232573 30.9340065,40.6232573 C30.5410632,40.6232573 30.2236859,40.5012296 29.9969878,40.2114139 C29.8911954,40.0588793 29.860969,39.8758378 29.8307426,39.3877272 C29.8156294,38.91487 29.8005162,36.520077 29.8005162,36.2607682 C29.8005162,36.1692475 29.8307426,36.1234871 30.012101,36.1234871 C30.4201575,36.1234871 31.1607046,36.1387406 31.6896667,36.1387406 C31.7652328,36.1387406 31.8407988,36.0167129 31.8407988,35.7574041 C31.8407988,35.6506299 31.780346,35.5438557 31.7501196,35.5438557 C31.4327423,35.5438557 30.1783463,35.5896161 29.9063086,35.5896161 C29.8458558,35.5896161 29.8307426,35.4980953 29.8307426,35.4523349 C29.8156294,35.2692934 29.8458558,34.8421966 29.8458558,34.7049155 C29.8458558,34.6286482 29.7400633,34.5981413 29.6040445,34.7506759 C29.2413276,35.2235331 28.7425918,35.6353764 28.3647617,35.7726576 C28.1985165,35.8489249 28.1834032,35.8946852 28.1834032,35.9251922 C28.1834032,35.986206 28.2589693,36.0319664 28.3798749,36.0624733 C28.5158938,36.0929802 28.682139,36.1234871 28.7425918,36.153994 C28.8030446,36.1845009 28.8181578,36.2912751 28.8181578,36.4590632 L28.8181578,39.616529 C28.8181578,39.982612 28.8786107,40.2876812 28.9995163,40.4859762 C29.2564408,40.9740868 29.7249501,41.1876352 30.3597047,41.1876352 Z M33.2312136,45.3213224 C33.3974589,45.3213224 33.5788173,45.275562 33.7299494,45.0620136 C33.8357418,44.9247325 33.9113078,44.7721979 34.0171003,44.4976357 C34.2286851,43.9790181 34.8029869,42.3926584 35.1657038,41.5079579 C35.4830811,40.6842711 35.6191,40.3334416 35.8004584,39.8300775 C36.0271565,39.250446 36.9641752,36.9014135 37.1455336,36.520077 C37.3873449,35.9556991 37.538477,35.8489249 37.840741,35.7574041 C37.9918731,35.7116437 38.0523259,35.6506299 38.0523259,35.6048695 C38.0523259,35.5591092 37.9616467,35.5438557 37.8709675,35.5438557 C37.6442694,35.5438557 37.4477977,35.5896161 37.17576,35.5896161 C36.949062,35.5896161 36.6316847,35.5438557 36.4503262,35.5438557 C36.3143074,35.5438557 36.2387413,35.5743626 36.2387413,35.6353764 C36.2387413,35.6811368 36.284081,35.7268972 36.510779,35.7726576 C36.7677035,35.8489249 36.8432695,35.9709525 36.8432695,36.0777267 C36.8432695,36.153994 36.8432695,36.3370355 36.7677035,36.520077 C36.6467979,36.8709066 35.8004584,39.0674045 35.6039868,39.5860221 C35.5888735,39.6317825 35.5435339,39.647036 35.5133075,39.5860221 C35.2110434,38.9453769 34.3798172,36.88616 34.1833455,36.352289 C34.0473267,35.9556991 34.0775531,35.8794318 34.4100436,35.7726576 C34.5007228,35.7574041 34.6065152,35.7116437 34.6065152,35.6506299 C34.6065152,35.5896161 34.5007228,35.5438557 34.3495908,35.5438557 C34.1531191,35.5438557 33.7601758,35.5896161 33.5485909,35.5896161 C33.185874,35.5896161 32.7627043,35.5286022 32.4906666,35.5286022 C32.3848742,35.5286022 32.2488553,35.5591092 32.2488553,35.6353764 C32.2488553,35.6811368 32.3395345,35.7421507 32.520893,35.787911 C32.7778175,35.8489249 32.9591759,36.0014594 33.0649684,36.1997544 C33.7450626,37.6945933 34.7123077,40.1656535 34.9390057,40.7605384 C34.9843454,40.8978195 35.0145718,41.0503541 34.954119,41.2486491 C34.44027,42.5756999 34.0019871,43.8264835 33.850855,44.1468061 C33.7601758,44.3603545 33.6392701,44.4061149 33.4579117,44.4061149 L33.1556476,44.375608 L33.1556476,44.375608 C32.9289495,44.375608 32.7324779,44.5891564 32.7324779,44.8179583 C32.7324779,45.1230275 32.9894023,45.3213224 33.2312136,45.3213224 Z"/>
    </g>
    <g fill-rule="nonzero" stroke-linecap="round" stroke-linejoin="round" transform="translate(77.175 66.15)">
      <g stroke="#222F3C" stroke-width=".5" transform="translate(49.874 34.512)">
        <g transform="translate(47.168 10.3)">
          <g transform="translate(0 7.098)">
            <line x1="26.886" x2="26.886" y1="5.895" y2="8.915"/>
            <g transform="translate(0 12.545)">
              <g transform="translate(14.47 1.401)">
                <line y2="4.986"/>
                <line x1="22.066" x2="22.066" y2="4.986"/>
              </g>
              <rect width="5.867" height="6.485" x="23.98" rx="1"/>
              <line y2="4.986" transform="translate(0 1.401)"/>
            </g>
            <g transform="translate(5.074)">
              <path d="M0,11.8472676 L11.2785565,11.8472676 L21.7503507,0 L3.12062221,0 L1.42685792,2.00234091"/>
              <line x1="21.847" x2="32.319" y1=".016" y2="11.863"/>
            </g>
          </g>
          <g transform="translate(16.579)">
            <line x1="25.036" x2="25.036" y1="5.896" y2="8.916"/>
            <g transform="translate(22.13 12.4)">
              <line y2="4.986" transform="translate(12.556 1.415)"/>
              <rect width="5.867" height="6.485" rx="1"/>
            </g>
            <path d="M14.5042626,11.8476032 L24.9760568,0 L6.34632832,0 L0,7.05232051"/>
            <line x1="25.072" x2="35.544" y1=".016" y2="11.864"/>
          </g>
        </g>
        <g transform="translate(0 3.168)">
          <g transform="translate(14.73 7.098)">
            <line x1="10.644" x2="10.507" y1="5.896" y2="8.916"/>
            <g transform="translate(.857 12.4)">
              <g transform="translate(0 1.55)">
                <line x1="22.203" x2="22.066" y2="4.986"/>
                <line x1=".138" y2="4.986"/>
              </g>
              <path d="M7.68875542,6.9909967e-07 L11.5559827,6.9909967e-07 C12.1082675,6.9909967e-07 12.5559827,0.447715949 12.5559827,1.0000007 L12.5559827,5.48470601 C12.5559827,6.03699076 12.1082675,6.48470601 11.5559827,6.48470601 L7.68875542,6.48470601 C7.13647067,6.48470601 6.68875542,6.03699076 6.68875542,5.48470601 L6.68875542,1.0000007 C6.68875542,0.447715949 7.13647067,6.9909967e-07 7.68875542,6.9909967e-07 Z" transform="rotate(-180 9.622 3.242)"/>
            </g>
            <path d="M33.9172065,11.8476032 L21.0398977,11.8476032 L10.5684392,0 L29.197832,0 L33.8806118,5.51272941"/>
            <line x1="10.472" y1=".016" y2="11.864"/>
          </g>
          <line x1="10.644" x2="10.507" y1="5.896" y2="8.916"/>
          <path d="M0.999999765,2.13136965e-07 L4.86722733,2.13136965e-07 C5.41951208,2.13136964e-07 5.86722733,0.447715463 5.86722733,1.00000021 L5.86722733,5.48470601 C5.86722733,6.03699076 5.41951208,6.48470601 4.86722733,6.48470601 L0.999999765,6.48470601 C0.447715015,6.48470601 -2.3526544e-07,6.03699076 -2.3526544e-07,5.48470601 L-2.3526544e-07,1.00000021 C-2.3526544e-07,0.447715463 0.447715015,2.13136965e-07 0.999999765,2.13136965e-07 Z" transform="rotate(-180 6.706 9.48)"/>
          <path d="M21.0401475,11.8472676 L10.5683532,0 L29.1980818,0 L35.5447458,7.05198494"/>
          <line x1="10.472" y1=".017" y2="11.864"/>
        </g>
        <g transform="translate(51.51)">
          <path d="M17.2656524,0 L4.65491415,0 L0,4.84092004" transform="translate(0 7.098)"/>
          <g transform="translate(13.038)">
            <path d="M19.6866106,5.64527921 L24.9760568,0 L6.34666405,0 L0,7.05198494"/>
            <line x1="25.073" x2="35.544" y1=".017" y2="11.864"/>
          </g>
        </g>
      </g>
      <g stroke="#222F3C" stroke-width=".5" transform="translate(5.1 63.698)">
        <line x2="134.378" y1="7.407" y2="7.269"/>
        <line x1="135.231" x2="162.183"/>
      </g>
      <g stroke="#222F3C" stroke-width=".5" transform="translate(32.265 49.564)">
        <g transform="translate(11.676)">
          <path d="M0.0124220572,3.92414522 C0.139999942,1.73757687 2.02949557,0 4.34805576,0 C6.66795888,0 8.5574545,1.73757687 8.68536812,3.92414522 C10.5335688,4.40400906 11.896302,6.01474081 11.896302,7.933525 C11.896302,9.85096692 10.5362546,11.460692 8.6893969,11.9415625 C8.69073982,11.9912267 8.69779018,12.0405554 8.69779018,12.0915619 C8.69779018,14.3868546 6.75054877,16.2479209 4.34805576,16.2479209 C1.9472414,16.2479209 0,14.3868546 0,12.0915619 C0,12.0405554 0.00671462553,11.9912267 0.00805755063,11.9415625"/>
          <line x1="4.298" x2=".893" y1="9.112" y2="6.04"/>
          <line x1="4.537" x2="7.457" y1="10.912" y2="7.077"/>
          <line x1="4.578" x2="4.441" y1="6.763" y2="21.308"/>
        </g>
        <g transform="translate(0 4.813)">
          <path d="M11.6129449,7.10903169 C11.2704989,8.14828923 10.4002835,8.96472889 9.28498418,9.25197605 C9.28632711,9.29157321 9.29169881,9.32882138 9.29169881,9.3687541 C9.29169881,11.1472704 7.77083612,12.5892109 5.89510548,12.5892109 C4.01803192,12.5892109 2.49851216,11.1472704 2.49851216,9.3687541 C2.49851216,9.32882138 2.50254093,9.29157321 2.50388386,9.25197605 C1.0615823,8.88083661 0,7.63285508 0,6.14695504 C0,4.65971272 1.06292522,3.41173119 2.50824837,3.04193402 C2.60728909,1.34730999 4.08282805,0 5.89510548,0 C7.12589634,0 8.19318607,0.628185382 8.78575177,1.56006081"/>
          <line x1="5.859" x2="3.196" y1="7.342" y2="4.68"/>
          <line x1="6.042" x2="8.323" y1="8.455" y2="5.483"/>
          <line x1="6.104" x2="5.966" y1="5.24" y2="16.51"/>
        </g>
      </g>
      <g stroke="#222F3C" stroke-width=".4" transform="translate(96.865 78.004)">
        <g transform="translate(0 .03)">
          <g transform="translate(21.754)">
            <g transform="translate(0 1.71)">
              <path d="M3.48455492,11.6858588 L1.81932779,10.0462681 L0.0480095725,8.71976344 C0.0177937576,8.69660917 0,8.66070327 0,8.62211282 L0,7.9694309 C0,7.91708211 0.03155874,7.87043801 0.0812469689,7.85265284 L1.6873854,7.28352763 C3.13102988,6.77346257 4.63980624,6.51373208 6.17309098,6.51373208 L7.49855806,6.51373208 L7.49855806,0.123825003 C7.49855806,0.0550333348 7.55496091,0 7.6224429,0 L9.84196237,0 C9.87217818,0 9.902394,0.0124160572 9.92589519,0.0328857732 L10.89683,0.941606935 L11.3561104,1.09965999 C11.3725613,1.10637137 11.3890121,1.11610287 11.4027771,1.12986121 L12.072561,1.79932159 C12.1068056,1.83354964 12.1178847,1.8872407 12.0984123,1.93254253 C12.0792756,1.97918664 12.0339519,2.00972343 11.9845994,2.00972343 L9.62474423,2.00972343 L9.59990012,5.43756193 L10.2958711,7.11171624 C10.3012428,7.12681685 10.3052715,7.14325974 10.3052715,7.15970262 L10.3052715,9.48418988 C10.3052715,9.51976021 10.2888207,9.5556661 10.2599478,9.57882037 L7.69932536,11.6942481 C7.67750283,11.7120332 7.64997286,11.7217647 7.62109997,11.7217647 L3.57117359,11.7217647 C3.53961485,11.7217647 3.50805611,11.7093487 3.48455492,11.6858588 Z M7.49855806,8.26640956 L7.49855806,7.49090934"/>
              <line x1=".22" y2="2.303" transform="translate(4.559 11.742)"/>
              <path d="M1.52757731,1.73959029 L0,0.695299205 L0,0" transform="translate(5.536 12.369)"/>
              <path d="M4.87851118,0 L3.36369166,1.59328215 L0,1.59328215" transform="translate(2.587 8.29)"/>
              <g transform="translate(9.64 2.55)">
                <line x2="1.538" y2=".221"/>
              </g>
            </g>
            <path d="M2.06139004,1.6959663 L2.06139004,0.123489434 C2.06139004,0.0550333348 2.00498718,0 1.9375052,0 L1.36139033,0 C1.32848866,0 1.29692992,0.0137583337 1.27477166,0.0355703261 L0.833285028,0.476843711 L0.497889483,0.476843711 C0.464987818,0.476843711 0.433093347,0.490602045 0.409927888,0.512749607 L0.0372661717,0.8865736 C0.0137649823,0.909727869 0,0.939929089 0,0.973150432 L0,1.6959663" transform="translate(7.654)"/>
            <path d="M0,2.03992465 L0.968548114,2.03992465 C1.04107137,2.03992465 1.10054044,1.98489131 1.10054044,1.91609964 L1.10054044,1.10670694 C1.10054044,1.09294861 1.09763951,1.07919027 1.09328812,1.06543194 L0.665400894,0" transform="translate(9.627 4.276)"/>
          </g>
          <line x1="36.832" y1=".221" transform="translate(0 15.834)"/>
          <line x2=".22" y1="1.141" transform="translate(33.954 14.615)"/>
          <line x1=".22" y2=".784" transform="translate(33.074 15.266)"/>
          <line x2=".22" y1="1.676" transform="translate(32.208 14.079)"/>
          <line x2=".22" y1=".899" transform="translate(24.339 15.273)"/>
          <line x2=".22" y1="1.105" transform="translate(23.492 14.703)"/>
        </g>
        <g transform="translate(4.916)">
          <g transform="translate(2.886)">
            <g transform="translate(0 1.713)">
              <path d="M3.40498661,11.7093487 L1.77803284,10.0667379 L0.0480095725,8.73788417 C0.0177937576,8.71439433 0,8.67714616 0,8.63889128 L0,7.98453151 C0,7.93218273 0.0329016651,7.88553862 0.0812469689,7.86775346 L1.65011922,7.29862824 C3.05985485,6.78587863 4.53371516,6.52614814 6.03006946,6.52614814 L7.32397779,6.52614814 L7.32532072,0.123825003 C7.32532072,0.0550333348 7.37903772,0 7.44651971,0 L9.6136651,0 C9.64388091,0 9.6727538,0.0124160572 9.69491207,0.0332213423 L10.6436887,0.942949211 L11.0918899,1.10234454 C11.1100194,1.10804922 11.1251273,1.11878743 11.1372136,1.13120348 L11.7918896,1.80200614 C11.8264699,1.83791204 11.8358704,1.88992525 11.8180767,1.93690493 C11.79894,1.98354903 11.7549592,2.01240798 11.7066139,2.01240798 L9.40181866,2.01240798 L9.37731028,5.44863571 L10.0564947,7.12547457 C10.0632093,7.14057518 10.0662309,7.15701807 10.0662309,7.17346096 L10.0662309,9.50197504 C10.0662309,9.53888764 10.04978,9.57345126 10.0222501,9.5969411 L7.52205925,11.7163956 C7.50023671,11.7341808 7.47270675,11.7452546 7.44517679,11.7452546 L3.49026235,11.7452546 C3.45836788,11.7452546 3.42815206,11.7314962 3.40498661,11.7093487 Z M7.32397779,8.28285245 L7.32397779,7.50466767"/>
              <line x1=".22" y2="2.308" transform="translate(4.454 11.766)"/>
              <path d="M1.49165406,1.74294598 L0,0.696641481 L0,0" transform="translate(5.408 12.394)"/>
              <path d="M4.76503401,0 L3.28513054,1.59663785 L0,1.59663785" transform="translate(2.528 8.305)"/>
              <g transform="translate(9.416 2.554)">
                <line x2="1.502" y2=".221"/>
              </g>
            </g>
            <path d="M2.01304473,1.69865086 L2.01304473,0.122147158 C2.01304473,0.0546977656 1.95966346,0 1.89218147,0 L1.32983159,0 C1.29827285,0 1.2677213,0.0124160572 1.24455584,0.0355703261 L0.814148345,0.476843711 L0.485467426,0.476843711 C0.453908686,0.476843711 0.42335714,0.490602045 0.400191681,0.514091883 L0.0355875153,0.887915877 C0.0137649823,0.911070145 0,0.941271366 0,0.974492708 L0,1.69865086" transform="translate(7.477)"/>
            <path d="M0,2.04395148 L0.967141602,2.04395148 C1.03976986,2.04395148 1.10054044,1.98757586 1.10054044,1.92012647 L1.10054044,1.10771365 C1.10054044,1.09395531 1.09757603,1.08019698 1.0931294,1.06643865 L0.666623656,0" transform="translate(9.403 4.284)"/>
          </g>
          <line x1="17.615" y1=".221" transform="translate(0 15.864)"/>
          <line x1=".22" y2=".786" transform="translate(13.944 15.297)"/>
          <line x2=".22" y1="1.679" transform="translate(13.097 14.106)"/>
          <line x2=".22" y1=".9" transform="translate(5.413 15.302)"/>
          <line x2=".22" y1="1.105" transform="translate(4.586 14.73)"/>
        </g>
      </g>
      <g stroke="#231F20" stroke-width=".4" transform="translate(0 57.301)">
        <path d="M0,5.05534871 C0,2.26777607 2.26887197,0 5.0591346,0 C7.84805432,0 10.1169263,2.26777607 10.1169263,5.05534871 C10.1169263,7.84426362 7.84805432,10.1120397 5.0591346,10.1120397 C2.26887197,10.1120397 0,7.84426362 0,5.05534871 Z" transform="translate(15.081 3.552)"/>
        <path d="M0,3.84562205 C0,1.72616752 1.72599449,0 3.84781616,0 C5.9682949,0 7.69395366,1.72616752 7.69395366,3.84562205 C7.69395366,5.96675442 5.9682949,7.69157967 3.84781616,7.69157967 C1.72599449,7.69157967 0,5.96675442 0,3.84562205 Z" transform="translate(1.289 5.972)"/>
        <path d="M3.05683327,0 C1.3707908,0 0,1.37046426 0,3.05569236 C0,4.74092045 1.3707908,6.11104914 3.05683327,6.11104914 C4.74287574,6.11104914 6.11400227,4.74092045 6.11400227,3.05569236 C6.11400227,2.47012425 5.94747956,1.90234131 5.63256362,1.41173926" transform="translate(17.084 5.552)"/>
        <path d="M0,1.84999253 C0,0.830197989 0.830599178,0 1.85122226,0 C2.87150961,0 3.70076586,0.830197989 3.70076586,1.84999253 C3.70076586,2.87012264 2.87150961,3.70032062 1.85122226,3.70032062 C0.830599178,3.70032062 0,2.87012264 0,1.84999253 Z" transform="translate(3.285 7.968)"/>
        <line x2="6.815" y2=".221" transform="translate(8.82 10.924)"/>
        <line x2="2.307" y1=".221" transform="translate(8.939 9.215)"/>
        <path d="M11.2335685,5.02246293 C11.3326092,5.02246293 11.4138562,4.94159078 11.4138562,4.84125561 L11.4138562,0.180200614 C11.4138562,0.0798654492 11.3326092,0 11.2335685,0 L1.10287724,0 C0.495203633,0 0,0.493622167 0,1.10234454 L0,4.70367228 C0,5.31273022 0.495203633,5.80735909 1.10287724,5.80735909 L1.30364455,5.80735909" transform="translate(0 4.192)"/>
        <path d="M0.199424378,8.21942989 L1.15088682,8.21942989 C1.75856043,8.21942989 2.25376406,7.72446544 2.25376406,7.11708535 L2.25376406,1.10234454 C2.25376406,0.494628875 1.75856043,0 1.15088682,0 L0,0" transform="translate(25.018 1.03)"/>
        <path d="M4.78249203,0 L1.02968782,0 C0.57611487,0 0.162158207,0.442854571 0,1.1047836" transform="translate(17.726 1.03)"/>
        <path d="M0,2.05636753 L0,0.1553685 C0,0.0687916684 0.0812469689,0 0.181630621,0 L1.56350055,0 C1.66254128,0 1.74378825,0.0687916684 1.74378825,0.1553685 L1.74378825,2.05636753 C1.74378825,2.14160209 1.66254128,2.21140046 1.56350055,2.21140046 L0.181630621,2.21140046 C0.0812469689,2.21140046 0,2.14160209 0,2.05636753 Z" transform="translate(5.916 1.98)"/>
        <line x2=".22" y1="1.978" transform="translate(6.97)"/>
        <line x1=".22" y2="2.011" transform="translate(3.694 2.16)"/>
        <line x1="1.101" y2="1.105" transform="translate(11.404 3.328)"/>
        <line x2="2.055" y2="2.054" transform="translate(11.363 2.434)"/>
        <path d="M3.55774434,0 L1.88647404,4.38051922 L0,4.38051922" transform="translate(14.676 .307)"/>
        <line x2=".22" y1="1.401" transform="translate(10.38 5.488)"/>
        <line x2=".22" y1="1.401" transform="translate(9.559 5.488)"/>
        <line x2=".22" y1="1.401" transform="translate(8.738 5.488)"/>
      </g>
      <g stroke="#222F3C" stroke-width=".4" transform="translate(78.776 83.942)">
        <path d="M0,0.680534164 L2.08892,0 L3.77126943,1.73019435" transform="translate(0 2.41)"/>
        <path d="M3.79542865,4.14427856 L17.1222817,0 L16.9104352,4.64461211 C16.7825216,4.66508183 16.654608,4.6925985 16.5266944,4.73253122 C15.3442488,5.10903977 14.6096688,6.23353187 14.6744649,7.41809084 L6.65048743,9.96506042 L3.79542865,4.14427856 Z"/>
        <path d="M14.7922972,8.07917474 C15.2391555,9.48252477 16.7381956,10.2576894 18.1408809,9.81238921 C19.5449091,9.367089 20.3204484,7.8687729 19.874933,6.46542286 C19.4693696,5.18992466 18.193255,4.436572 16.9100901,4.64428928 C16.7821764,4.664759 16.6542628,4.69227566 16.5263492,4.73220839 C15.3439036,5.10871694 14.6093236,6.23320904 14.6741197,7.41776801 C14.6865418,7.63790135 14.7234722,7.8590414 14.7922972,8.07917474 Z M15.9049106,7.72582046 C15.8320569,7.49763346 15.8182919,7.26541963 15.8525365,7.04394402 C15.9364693,6.50804014 16.3077881,6.03790781 16.8550301,5.85233809 L16.8798742,5.84428443 C17.6691785,5.5926076 18.5121997,6.02985415 18.7636624,6.81877714 C19.014118,7.60770013 18.5766601,8.45031418 17.7873559,8.70165544 C16.9980516,8.95199 16.1550304,8.51474345 15.9049106,7.72582046 Z"/>
        <path d="M15.8527591,7.04368584 C15.936692,6.50778196 16.3080108,6.03764963 16.8552527,5.85207991 L16.8800968,5.84402626 C17.6694011,5.59234942 18.5124223,6.02959598 18.763885,6.81851896 C19.0143406,7.60744195 18.5768827,8.450056 17.7875785,8.70139726 C16.9982743,8.95173182 16.155253,8.51448527 15.9051332,7.72556228 C15.8322795,7.49737528 15.8185145,7.26516146 15.8527591,7.04368584 Z"/>
        <line x1="12.539" y2="3.878" transform="translate(4.445 1.486)"/>
      </g>
      <path stroke="#222F3C" stroke-width=".5" d="M6.5554889,0 C5.0000459,0.162079882 4.89831932,1.7372413 4.89429055,1.8046907 L4.85568145,2.52750657 L4.28359536,2.08623318 C2.42431555,0.649997374 0.0248441145,1.24663926 0,1.25200837" transform="translate(34.877 45.089)"/>
      <g stroke="#222F3C" stroke-width=".5" transform="translate(79.007)">
        <g transform="translate(0 7.161)">
          <path d="M16.6515998,11.786194 L1.50306892,11.786194 C0.96791327,11.786194 0,11.0341836 0,9.84123542 C0,8.64694494 0.96791327,7.89627683 2.16311661,7.89627683 L3.0679124,7.89627683 C2.84767269,7.89627683 2.72278065,6.87514001 2.72278065,6.32111541 C2.72278065,4.29260011 4.36752817,2.63488869 6.39568082,2.63488869 C7.36090824,2.63488869 8.23582394,3.00166573 8.89150712,3.60938139 C9.54752604,2.46039275 10.7836886,1.68086569 12.2031604,1.68086569 C12.8148628,1.68086569 13.3926563,1.82650269 13.905318,2.08354863 C14.8363008,0.821808761 16.3286264,0 18.0170189,0 C20.8401833,0 23.1285276,2.31442018 23.1285276,5.13487859 C23.1285276,6.14259264 22.8330841,7.40970161 22.3294872,7.89627683"/>
          <path d="M15.6685787,1.20972666 C15.6685787,2.76676735 14.4048861,4.039581 12.8467573,4.039581 C12.1068056,4.039581 11.4343358,3.75669624 10.9310746,3.29059074 C10.4264705,4.17313751 9.47903686,4.77212838 8.38858167,4.77212838 C7.91822215,4.77212838 7.4753926,4.65971272 7.08057262,4.46306922 C6.36714366,5.43051498 5.22028562,6.06306276 3.92469862,6.06306276 C1.75621031,6.06306276 0,4.28555316 0,2.11945453 C0,1.34697443 0.226954343,0.372481717 0.612038117,0" transform="translate(16.638 9.127)"/>
          <path d="M36.0783759,5.30691011 C36.0783759,8.17434819 33.7531011,10.4998422 30.8846131,10.4998422"/>
        </g>
        <g transform="translate(24.846)">
          <g transform="translate(3.773)">
            <path d="M23.1275204,0 C23.1275204,1.19462605 22.1592714,1.94495859 20.9657467,1.94495859 L20.060951,1.94495859 C20.279512,1.94495859 20.4060827,2.9660954 20.4060827,3.52012001 C20.4060827,5.54897087 18.7613352,7.20634673 16.7315039,7.20634673 C15.7676194,7.20634673 14.8930394,6.83822741 14.2370205,6.23051175 C13.5796587,7.38117824 12.344839,8.16036972 10.9257029,8.16036972 C10.3123219,8.16036972 9.73486409,8.01473273 9.2218667,7.75768679 C8.29088387,9.01808438 6.79889408,9.84123542 5.11016576,9.84123542 C2.28834438,9.84123542 0,7.52681523 0,4.70501455 C0,3.69864278 0.294436329,2.4315338 0.797697513,1.94495859" transform="translate(9.178 5.348)"/>
            <path d="M0,4.8533361 C0,3.29595984 1.2623496,2.02314619 2.82014272,2.02314619 C3.56143738,2.02314619 4.2325642,2.30502425 4.73582538,2.77213645 C5.24042949,1.88992525 6.18954181,1.29059881 7.27865407,1.29059881 C7.75035652,1.29059881 8.19318607,1.40335004 8.58632739,1.59965797 C9.30143501,0.632212211 10.4469501,0 11.7435443,0 C13.9110254,0 15.6682429,1.77717403 15.6682429,3.94327266 C15.6682429,4.71575276 15.4416243,5.6889032 15.0551976,6.06272719"/>
          </g>
          <path d="M5.1954415,15.0739499 C2.32695348,15.0739499 0,12.7497982 0,9.88269565 C0,7.01391529 2.32695348,4.68976361 5.1954415,4.68976361"/>
        </g>
        <line x1="14.762" x2="14.762" y1="22.857" y2="25.828"/>
        <g transform="translate(11.256 25.058)">
          <line x1="7.012" x2="7.012" y2="2.751"/>
          <line y1="1.037" y2="4.008"/>
          <line x1="3.506" x2="3.506" y1="3.237" y2="5.988"/>
        </g>
        <line x1="4.397" x2="4.397" y1="20.267" y2="23.238"/>
        <g transform="translate(.891 22.467)">
          <line x1="7.012" x2="7.012" y2="2.751"/>
          <line y1="1.037" y2="4.008"/>
          <line x1="3.506" x2="3.506" y1="3.237" y2="5.988"/>
        </g>
        <line x1="51.193" x2="51.193" y1="14.934" y2="17.905"/>
        <g transform="translate(47.688 17.134)">
          <line x1="7.012" x2="7.012" y2="2.751"/>
          <line y1="1.037" y2="4.008"/>
          <line x1="3.506" x2="3.506" y1="3.237" y2="5.988"/>
        </g>
        <line x1="37.932" x2="37.932" y1="17.981" y2="20.952"/>
        <g transform="translate(34.426 20.182)">
          <line x1="7.012" x2="7.012" y2="2.751"/>
          <line y1="1.037" y2="4.008"/>
          <line x1="3.506" x2="3.506" y1="3.237" y2="5.988"/>
        </g>
      </g>
    </g>
    <rect width="440" height="220.501" stroke="#979797"/>
  </g>
</svg>
