<svg id="Layer_1" data-name="Layer 1" xmlns="http://www.w3.org/2000/svg" viewBox="0 0 399 200"><defs><style>.cls-1{fill:#333838;}.cls-2,.cls-3,.cls-4,.cls-5,.cls-6,.cls-7,.cls-8{fill:none;stroke:#222f3c;}.cls-2,.cls-3,.cls-5{stroke-linecap:round;}.cls-2,.cls-3,.cls-5,.cls-6{stroke-linejoin:round;}.cls-2,.cls-7,.cls-8{stroke-width:0.5px;}.cls-3,.cls-4,.cls-6{stroke-width:0.4px;}.cls-4,.cls-7,.cls-8{stroke-miterlimit:10;}.cls-5{stroke-width:0.4px;}.cls-8{stroke-linecap:square;}</style></defs><path class="cls-1" d="M241.5186,81.8573a3.0556,3.0556,0,0,0,1.74-.5885,3.1155,3.1155,0,0,0,1.1858-2.4007,2.898,2.898,0,0,0-2.8682-2.9276c-.03,0-.0591,0-.0886,0a3.15,3.15,0,0,0-1.848.65,2.9568,2.9568,0,0,0,1.8788,5.2659Zm.2156-.2633a1.8279,1.8279,0,0,1-1.4476-.8208,3.5614,3.5614,0,0,1-.6468-2.1219c0-1.6108.8316-2.4471,1.617-2.4471,1.3552,0,2.0944,1.456,2.0944,2.9273a3.0952,3.0952,0,0,1-.6468,2.0753A1.5178,1.5178,0,0,1,241.7342,81.594Zm3.773.1394c.2618-.0154.6006-.0619.9548-.0619.7854,0,1.0318.0465,1.4784.0465.1386,0,.2464-.031.2464-.1084,0-.062-.0923-.093-.2771-.1395-.2-.0465-.37-.0465-.4928-.0929-.1539-.0464-.2771-.17-.3234-.7589-.0153-.4492-.0462-3.268-.0462-3.841,0-.0155.0309-.1394.077-.1394.2156,0,1.3244.031,1.5708.031.1848,0,.2156-.062.2156-.2789,0-.1858-.0616-.2787-.1232-.2787-.1693,0-1.4784.031-1.617.031a.121.121,0,0,1-.1232-.093,4.5538,4.5538,0,0,1-.0154-.4956c0-.48.0308-1.5792.0771-2.06.154-1.6576.6929-2.1063,1.386-2.1063a1.812,1.812,0,0,1,1.0933.5264.276.276,0,0,0,.308.0309.76.76,0,0,0,.385-.5111c0-.2323-.4158-.4956-1.0471-.4956a2.5077,2.5077,0,0,0-1.386.4182,3.5639,3.5639,0,0,0-1.5555,2.06,9.9222,9.9222,0,0,0-.2617,2.54.3016.3016,0,0,1-.1541.2168l-.37.2324c-.1078.0619-.1848.1084-.1848.1549,0,.0309.0924.1084.2.1239.1848.0154.3542.0154.4312.0154.0616.0155.0771.093.0771.2016v3.7171c0,.5576-.0771.7745-.4467.8673-.2.0465-.308.093-.308.1549s.0923.0925.2309.0925Zm11.0726.0311c.2,0,.308-.0156.308-.1085,0-.0775-.077-.1084-.2617-.1548-.5237-.1549-.6777-.2634-.7392-.79-.0462-.48-.1078-2.4006-.0923-3.2679,0-.65.0307-4.2593.0307-4.8323,0-.1084.0154-.2324.0925-.2478.1847-.0232.664-.029,1.0935-.0305h.4c1.078,0,1.2782.062,1.4168.1858a1.4389,1.4389,0,0,1,.2772.728c.0154.0775.0616.2169.1232.2169.0463,0,.1232-.1084.1232-.3407a4.91,4.91,0,0,1,.0462-1.1772.3506.3506,0,0,0-.0154-.2016c-.0153-.031-.0616-.0155-.1232.031a2.5688,2.5688,0,0,1-1.2628.17l-2.6488.0156c-1.5863,0-3.1108-.0465-3.3572-.062a.8379.8379,0,0,1-.4928-.1548c-.0463-.0465-.0924-.0775-.1232-.062-.0769.0309-.0769.1084-.0924.2323a9.02,9.02,0,0,1-.2,1.3319c-.0153.1084-.0153.2324.0463.2324s.1386-.0775.2156-.2633c.2156-.604.4159-.79.7084-.8519a11.9958,11.9958,0,0,1,1.309-.0619,9.32,9.32,0,0,1,1.155.0465c.0462,0,.0924.0464.1079.1858.0308.2168.0308,6.3811-.0771,7.8834-.0463.7125-.1385.96-.8777,1.0686-.1695.0311-.3082.0775-.3082.1395,0,.0774.0771.1394.2774.1394.2464,0,.7083-.093,1.4937-.093C255.7482,81.6715,256.2257,81.7645,256.58,81.7645Zm4.5892.0928a3.0556,3.0556,0,0,0,1.74-.5885,3.1155,3.1155,0,0,0,1.1858-2.4007,2.8979,2.8979,0,0,0-2.868-2.9276q-.0444,0-.0888,0a3.1506,3.1506,0,0,0-1.848.65,2.9568,2.9568,0,0,0,1.8788,5.2659Zm.2156-.2633a1.8281,1.8281,0,0,1-1.4476-.8208,3.5614,3.5614,0,0,1-.6468-2.1219c0-1.6108.8316-2.4471,1.6171-2.4471,1.3552,0,2.0944,1.456,2.0944,2.9273a3.0953,3.0953,0,0,1-.6467,2.0753,1.5183,1.5183,0,0,1-.97.3872Zm5.76.2168a2.1042,2.1042,0,0,0,1.2474-.4026c.2-.1549.3388-.31.3388-.4026,0-.0621-.0462-.0775-.1539,0a1.5009,1.5009,0,0,1-.847.2322,1.1352,1.1352,0,0,1-.9548-.4182,1.5949,1.5949,0,0,1-.1694-.8363c-.0155-.48-.0308-2.912-.0308-3.175,0-.093.0308-.1394.2155-.1394.4159,0,1.17.0155,1.7095.0155.077,0,.154-.1239.154-.3872,0-.1084-.0616-.2168-.0924-.2168-.3235,0-1.6016.0464-1.8788.0464-.0616,0-.0769-.0929-.0769-.1394-.0155-.1858.0153-.6195.0153-.7589,0-.0774-.1077-.1084-.2464.0465a3.2843,3.2843,0,0,1-1.2629,1.0372c-.1694.0774-.1848.1239-.1848.1549,0,.0619.0771.1084.2.1393a2.5434,2.5434,0,0,1,.37.093c.0615.031.0769.1394.0769.31v3.206a1.75,1.75,0,0,0,.1848.8828,1.4246,1.4246,0,0,0,1.386.7134Zm4.928.0465a3.0556,3.0556,0,0,0,1.74-.5885,3.116,3.116,0,0,0,1.1857-2.4007,2.898,2.898,0,0,0-2.8682-2.9276c-.0295,0-.0591,0-.0886,0a3.15,3.15,0,0,0-1.848.65,2.9568,2.9568,0,0,0,1.8788,5.2659Zm.2156-.2633a1.8281,1.8281,0,0,1-1.4476-.8208,3.5614,3.5614,0,0,1-.6468-2.1219c0-1.6108.8316-2.4471,1.6169-2.4471,1.3552,0,2.0944,1.456,2.0944,2.9273a3.0942,3.0942,0,0,1-.6469,2.0753A1.5171,1.5171,0,0,1,272.2878,81.594Zm3.7269.1705a8.2646,8.2646,0,0,1,.9394-.093c.6467,0,1.1549.0619,1.4475.0619.231,0,.37-.031.37-.1084s-.0771-.1084-.2927-.1394c-.5852-.062-.77-.17-.8316-.6505-.0308-.3248-.0616-1.13-.0616-2.2768a8.9955,8.9955,0,0,1,.0154-.9447.8924.8924,0,0,1,.2618-.5421,1.05,1.05,0,0,1,.6777-.31,1.0729,1.0729,0,0,1,.5389.1859.6928.6928,0,0,0,.2773.1084c.0461,0,.1077-.0156.2464-.1394a1.0611,1.0611,0,0,0,.3388-.5264.2717.2717,0,0,0-.1077-.2169.8935.8935,0,0,0-.539-.2016,2.5131,2.5131,0,0,0-1.6633,1.1151c-.0461.0465-.0769.031-.0769-.0155,0-.2478.0153-.8363.0153-1.0067,0-.1548-.0308-.2169-.0616-.2169a.4858.4858,0,0,0-.2309.0775,4.6624,4.6624,0,0,1-.9856.3718c-.1386.0464-.2311.1084-.2311.1393s.0154.0775.1232.1549c.2925.2478.4.2943.4.4032l-.0013,2.2163c-.0042.8021-.0192,1.4517-.0448,1.6711a.6383.6383,0,0,1-.5544.635c-.1232.031-.231.1084-.231.1549,0,.0612.077.0927.2618.0927Zm8.0234.0774a1.296,1.296,0,0,0,1.1857-.666c.0616-.1394,0-.1859-.0924-.1394a.9742.9742,0,0,1-.4465.1394.5294.5294,0,0,1-.57-.5886c0-.4032.0463-1.874.0463-2.447a3.7653,3.7653,0,0,0-.2156-1.4094,1.2624,1.2624,0,0,0-1.1859-.79,2.0574,2.0574,0,0,0-.924.2788,4.01,4.01,0,0,0-1.17.8983c-.1848.2169-.2927.3562-.2927.4646,0,.0621.0771.1549.154.1395a3.3108,3.3108,0,0,0,.7239-.3407.1925.1925,0,0,0,.0616-.124,1.6181,1.6181,0,0,1,.0153-.2943.62.62,0,0,1,.2311-.3717,1.057,1.057,0,0,1,.616-.1858,1.1686,1.1686,0,0,1,.6468.2477c.2619.2016.37.6351.37,1.27a5.2832,5.2832,0,0,1-.0308.7125.2924.2924,0,0,1-.2.2322c-.3233.1239-1.7248.5421-2.0944.7435a1.0917,1.0917,0,0,0-.5544.8828,1.2817,1.2817,0,0,0,1.2295,1.3319l.0026,0a2.15,2.15,0,0,0,1.5092-.697.0535.0535,0,0,1,.0746.012l.0023.0035a1.0351,1.0351,0,0,0,.9088.697Zm-1.8173-.6041a.8966.8966,0,0,1-.924-.8673.8026.8026,0,0,1,.3851-.7744,8.6236,8.6236,0,0,1,1.4168-.5264c.0308-.0154.0616.062.0616.0774a11.1814,11.1814,0,0,1-.077,1.4714.6425.6425,0,0,1-.1694.3717,1.0523,1.0523,0,0,1-.6931.2476Zm5.6211.4646c.2,0,.3079-.0463.3079-.1084,0-.0464-.1077-.0928-.2-.1084-.4313-.0774-.5237-.1858-.5391-.604-.0154-.2943-.0308-1.0223-.0308-2.9737V76.2662c0-2.3233.0616-5.0026.0616-5.111,0-.0775-.0154-.17-.0462-.17a.6411.6411,0,0,0-.1847.0465,7.9264,7.9264,0,0,1-1.155.3561c-.1387.0311-.2311.0775-.2311.1239s.0462.0775.154.1395c.4.2478.4313.3248.4313.6659.0154.6815,0,1.9515,0,3.206-.0154,1.8592-.077,4.4761-.1078,5.0492-.0616.6814-.1541.8208-.5391.8982-.2.0465-.2771.062-.2771.1395s.0769.0928.2618.0928c.2309,0,.6314-.0309,1.0317-.0309.2618,0,.8162.0309,1.0626.0309Zm6.8222.0621a4.57,4.57,0,0,0,1.8634-.3248,2.6155,2.6155,0,0,0,1.7248-2.4782,2.437,2.437,0,0,0-.8163-1.8895,4.7949,4.7949,0,0,0-1.34-.7744c-.0463-.031-.1079-.0775-.0155-.124a4.02,4.02,0,0,0,.8318-.511,1.9855,1.9855,0,0,0,.6466-1.394c0-1.7346-1.3858-2.4935-3.0645-2.4935a11.4164,11.4164,0,0,0-1.5092.124,12.6219,12.6219,0,0,1-1.4784.0463c-.154,0-.2772.0465-.2772.1084,0,.0311.0461.093.2309.124.616.1393.7239.2633.7547.8209.0129.5033.0256,1.8349.03,2.7487v1.9865c-.0026,1.3128-.0119,2.5518-.0449,2.8539-.0461.5575-.2772.8208-.8931.8828-.1386.031-.2464.0619-.2464.1394,0,.0465.0922.1084.3233.1084l1.07.0007c.2635.0018.5731.0082,1.0241.03.6158.0152.9238.0152,1.1857.0152ZM293.54,76.1577c-.1385,0-.1693-.1548-.1693-.2168-.0155-1.1771,0-3.3144.0308-3.5932,0-.0464.0769-.2323.1385-.2478a2.528,2.528,0,0,1,.6007-.062,2.1115,2.1115,0,0,1,2.2176,2.2768,1.9453,1.9453,0,0,1-1.7711,1.8585,4.7684,4.7684,0,0,1-1.0472-.0155Zm1.4477,5.3435a1.5455,1.5455,0,0,1-1.3552-.5886,3.8306,3.8306,0,0,1-.2156-1.2855,23.671,23.671,0,0,1-.0462-2.9273c.0154-.0774.0616-.17.1385-.1858.1541-.0155.4467-.031.7546-.031a2.1411,2.1411,0,0,1,2.079.8983,2.6811,2.6811,0,0,1,.6007,1.75,2.2217,2.2217,0,0,1-1.0935,2.1528,1.914,1.914,0,0,1-.8624.2169Zm8.0541.3407a1.2962,1.2962,0,0,0,1.1859-.666c.0615-.1394,0-.1859-.0924-.1394a.9754.9754,0,0,1-.4467.1394.5295.5295,0,0,1-.57-.5886c0-.4032.0462-1.874.0462-2.447a3.7614,3.7614,0,0,0-.2157-1.4094,1.262,1.262,0,0,0-1.1857-.79,2.0562,2.0562,0,0,0-.924.2788,4.012,4.012,0,0,0-1.1705.8983c-.1848.2169-.2925.3562-.2925.4646,0,.0621.0769.1549.154.1395a3.31,3.31,0,0,0,.7238-.3407.1925.1925,0,0,0,.0616-.124,1.6,1.6,0,0,1,.0154-.2943.62.62,0,0,1,.231-.3717,1.0577,1.0577,0,0,1,.616-.1858,1.1692,1.1692,0,0,1,.6468.2477c.2617.2016.37.6351.37,1.27a5.2832,5.2832,0,0,1-.0308.7125.2926.2926,0,0,1-.2.2322c-.3233.1239-1.7248.5421-2.0944.7435a1.0916,1.0916,0,0,0-.5543.8828,1.2816,1.2816,0,0,0,1.2293,1.3319l.0027,0a2.149,2.149,0,0,0,1.5092-.697.0536.0536,0,0,1,.0748.0121l.0023.0034a1.035,1.035,0,0,0,.9084.697Zm-1.8172-.6041a.896.896,0,0,1-.9239-.8672v0a.8026.8026,0,0,1,.385-.7744,8.6327,8.6327,0,0,1,1.4168-.5264c.0308-.0154.0616.062.0616.0774a11.1643,11.1643,0,0,1-.0771,1.4714.6423.6423,0,0,1-.1693.3717,1.0523,1.0523,0,0,1-.6931.2476Zm4.5584-6.7993a.5749.5749,0,0,0,.573-.5768.564.564,0,0,0-.0032-.0581.5567.5567,0,0,0-.4774-.5576.6144.6144,0,0,0-.6005.62.55.55,0,0,0,.5081.573Zm-1.74,11.6625a4.5481,4.5481,0,0,0,2.1715-3.6707c.0153-.31.0616-1.1461.0616-1.9669.0153-1.301.0308-2.9428.0308-4.368,0-.1395-.0308-.2169-.0771-.2169a.3648.3648,0,0,0-.2156.0774,7.0513,7.0513,0,0,1-1.1088.4492c-.154.0465-.2617.0774-.2617.1549,0,.031.0461.062.154.1239a.7961.7961,0,0,1,.3387.2169c.0616.0929.0924.2787.1079,1.1461.0153.5885.0308,2.0753.0308,2.8188.0153.8518-.0155,1.6881-.0463,2.2457a3.45,3.45,0,0,1-1.4013,2.8653c-.1079.0619-.1695.0929-.1695.1549C303.6576,86.225,303.8886,86.194,304.0426,86.101Zm6.6991-4.2438a3.0547,3.0547,0,0,0,1.74-.5886,3.1153,3.1153,0,0,0,1.1857-2.4006A2.8978,2.8978,0,0,0,310.8,75.94c-.03,0-.0592,0-.0888,0a3.1509,3.1509,0,0,0-1.848.6505,2.9568,2.9568,0,0,0,1.879,5.2659Zm.2156-.2633a1.8274,1.8274,0,0,1-1.4476-.8209,3.559,3.559,0,0,1-.647-2.1218c0-1.6108.8316-2.4471,1.6171-2.4471,1.3552,0,2.0944,1.456,2.0944,2.9272a3.0952,3.0952,0,0,1-.6468,2.0753,1.5175,1.5175,0,0,1-.97.3874Zm7.1917-7.14a.5881.5881,0,0,0,.57-.5886.5654.5654,0,0,0-.5391-.5885.5727.5727,0,0,0-.539.604.55.55,0,0,0,.5082.5732Zm.847,7.2793c.1231,0,.2464-.031.2464-.1084,0-.0619-.077-.093-.231-.1239-.2464-.0619-.4-.1394-.4312-.4492-.0224-.188-.0283-.8266-.03-1.65V77.5528c.0016-.6705.0077-1.232.03-1.457.0154-.17-.0155-.2168-.0616-.2168a.6274.6274,0,0,0-.2311.1084,7.6311,7.6311,0,0,1-1.1087.4026c-.1387.0311-.1849.0775-.1849.124,0,.0309.0462.0774.1232.1239.4312.2323.4466.3248.4466.5421,0,.1549-.0308,2.9737-.0463,3.4384-.0153.635-.1538.7589-.4928.8518-.2156.0311-.2925.0775-.2925.1395s.1079.0928.2156.0928c.17,0,.4159-.0309.924-.0309.4159,0,.9857.0614,1.1243.0614Zm6.8222,0c.154,0,.2772-.0154.2772-.1084,0-.0619-.0924-.093-.231-.1549-.4158-.1084-.462-.2016-.4774-1.2544,0-.7744-.0153-.8983-.0153-1.7192a3.2472,3.2472,0,0,0-.4928-2.0289,1.57,1.57,0,0,0-1.2014-.5264,2.073,2.073,0,0,0-.9085.1859,5.2937,5.2937,0,0,0-1.0933.6969c-.0309.031-.0771-.0154-.0771-.0464a7.0525,7.0525,0,0,1,.0308-.8209c.0154-.0774-.0616-.1393-.1077-.1239a5.781,5.781,0,0,1-1.2167.5264c-.1386.0465-.2156.093-.2156.1239,0,.0465.0308.0775.1232.1394.37.2016.4.3718.4.5264,0,1.2544,0,2.68-.0308,3.7946-.0153.31-.0769.4182-.462.4957-.1848.0309-.3233.0928-.3233.1548,0,.0775.1232.1084.2925.1084.2927,0,.616-.0309.8163-.0309.3541,0,1.1088.0619,1.232.0619.1541,0,.3081,0,.3081-.093,0-.0773-.0771-.1084-.2619-.1548-.2464-.0774-.4312-.1548-.4774-.4956a12.7923,12.7923,0,0,1-.0923-1.6263c0-.93-.0155-1.7191-.0155-1.905a.8076.8076,0,0,1,.1848-.4646,1.8372,1.8372,0,0,1,1.2013-.4957,1.3637,1.3637,0,0,1,.8777.2944c.3851.2942.4928.6659.4928,1.92V80.82c0,.4491-.0616.5575-.4312.65-.2.0465-.2927.1084-.2927.17s.1078.0929.2464.0929c.2311,0,.4312-.0619.9548-.0619.3388,0,.7854.0616.9856.0616Z"/><line class="cls-2" x1="198.4218" y1="118.5362" x2="193.0177" y2="113.4331"/><path class="cls-2" d="M200.6136,118.5661l5.1462-5.45-6.1337-6.1338h0a.0644.0644,0,0,0-.0741-.0147h-.0009a.062.062,0,0,0-.0409.0629v10.4328"/><path class="cls-2" d="M199.4944,117.4637v-3.9143a.066.066,0,0,0-.02-.0459l.0006-.0006a.0731.0731,0,0,0-.0495-.0212l-6.4081-.0486"/><path class="cls-2" d="M201.644,119.6392h3.9888a.0678.0678,0,0,0,.0461-.02h0a.0727.0727,0,0,0,.0211-.0493l.0487-6.4277-5.1282,5.43"/><line class="cls-2" x1="192.9994" y1="113.4343" x2="193.0007" y2="113.433"/><path class="cls-2" d="M192.9994,113.4343l-6.12,6.12h0a.0681.0681,0,0,0-.0192.0336.0705.0705,0,0,0,.0043.04v.001a.0619.0619,0,0,0,.0631.0408H197.392"/><polyline class="cls-2" points="192.999 113.435 192.998 113.433 193 113.433"/><line class="cls-2" x1="192.9994" y1="113.4343" x2="198.4124" y2="118.5457"/><polyline class="cls-2" points="193.018 113.433 193.009 113.425 193 113.433"/><line class="cls-2" x1="193.0177" y1="113.4331" x2="193.0007" y2="113.433"/><line class="cls-2" x1="200.5457" y1="120.7376" x2="205.99" y2="125.8787"/><path class="cls-2" d="M198.43,120.7076l-5.1821,5.488,6.1336,6.1338h0a.0649.0649,0,0,0,.0742.0147h.0009c.0136-.0056.024,17.4784.031,17.4681s.01-17.5151.01-17.531V121.7745"/><path class="cls-2" d="M199.513,121.77v3.9925a.0656.0656,0,0,0,.02.0458v.0007a.0735.0735,0,0,0,.0494.0212l6.4081.0486"/><path class="cls-2" d="M198.4227,120.7l-5.1642,5.4686.0488-6.4277a.0725.0725,0,0,1,.0211-.0493h0a.0663.0663,0,0,1,.046-.02h4.02"/><line class="cls-2" x1="206.0083" y1="125.8776" x2="206.0071" y2="125.8788"/><path class="cls-2" d="M206.0083,125.8776l6.12-6.12h0a.0676.0676,0,0,0,.0193-.0336.07.07,0,0,0-.0045-.04v-.001a.0615.0615,0,0,0-.0629-.0408H201.641"/><polyline class="cls-2" points="206.008 125.878 206.01 125.879 206.007 125.879"/><line class="cls-2" x1="206.0083" y1="125.8776" x2="200.5552" y2="120.728"/><polyline class="cls-2" points="205.99 125.879 205.999 125.887 206.007 125.879"/><line class="cls-2" x1="205.99" y1="125.8787" x2="206.0071" y2="125.8788"/><line class="cls-2" x1="198.4301" y1="120.7076" x2="198.4227" y2="120.7003"/><line class="cls-2" x1="198.4218" y1="118.5362" x2="198.4124" y2="118.5457"/><line class="cls-2" x1="198.4227" y1="120.7003" x2="197.3951" y2="119.6727"/><line class="cls-2" x1="197.3917" y1="119.6693" x2="197.3951" y2="119.6727"/><polyline class="cls-2" points="201.644 119.639 201.666 119.618 200.621 118.573"/><polyline class="cls-2" points="199.513 121.77 199.503 121.781 199.497 121.775"/><line class="cls-2" x1="199.5134" y1="121.7699" x2="200.5457" y2="120.7376"/><polyline class="cls-2" points="199.494 117.463 199.503 117.455 199.511 117.463"/><line class="cls-2" x1="201.6407" y1="119.6425" x2="200.5552" y2="120.728"/><line class="cls-2" x1="198.4301" y1="120.7076" x2="199.4972" y2="121.7748"/><polyline class="cls-2" points="197.392 119.67 197.34 119.618 198.412 118.546"/><line class="cls-2" x1="199.4944" y1="117.4637" x2="198.4218" y2="118.5362"/><line class="cls-2" x1="200.6136" y1="118.5661" x2="199.5106" y2="117.463"/><line class="cls-2" x1="200.5457" y1="120.7376" x2="200.5552" y2="120.728"/><line class="cls-2" x1="201.6407" y1="119.6425" x2="201.644" y2="119.6392"/><line class="cls-2" x1="200.6136" y1="118.5661" x2="200.621" y2="118.5735"/><path class="cls-3" d="M74.3093,81.0422H72.0331a.5275.5275,0,0,1-.5275-.5274h0v-1.56a.5275.5275,0,0,1,.5275-.5274h5.9883"/><line class="cls-3" x1="70.9969" y1="95.3155" x2="72.6009" y2="95.3155"/><line class="cls-3" x1="73.0125" y1="85.3834" x2="73.0125" y2="81.7297"/><line class="cls-3" x1="72.4557" y1="95.3155" x2="70.4242" y2="95.3155"/><line class="cls-3" x1="69.5362" y1="93.9603" x2="69.5434" y2="93.9427"/><line class="cls-3" x1="69.5434" y1="93.9427" x2="73.0071" y2="85.4554"/><path class="cls-3" d="M69.5362,93.96a.98.98,0,0,0,.908,1.3538"/><path class="cls-3" d="M69.5362,93.96l.0072-.0176"/><line class="cls-3" x1="72.4557" y1="95.3155" x2="70.4242" y2="95.3155"/><line class="cls-3" x1="69.5362" y1="93.9603" x2="69.5434" y2="93.9427"/><line class="cls-3" x1="69.5434" y1="93.9427" x2="73.0071" y2="85.4554"/><path class="cls-3" d="M69.5362,93.96a.98.98,0,0,0,.908,1.3538"/><path class="cls-3" d="M69.5362,93.96l.0072-.0176"/><path class="cls-3" d="M78.2113,82.6269h3.17a.5076.5076,0,0,0,.4847-.5274V80.539a.5077.5077,0,0,0-.4847-.5275H75.3376a.5075.5075,0,0,0-.4848.5275V82.1a.5075.5075,0,0,0,.4848.5274h1.0455"/><line class="cls-3" x1="76.0516" y1="87.554" x2="76.0516" y2="83.9003"/><line class="cls-3" x1="82.6822" y1="97.486" x2="73.4632" y2="97.486"/><line class="cls-3" x1="72.5754" y1="96.1307" x2="72.5825" y2="96.1132"/><line class="cls-3" x1="72.5825" y1="96.1132" x2="76.0461" y2="87.6259"/><path class="cls-3" d="M72.5754,96.1307a.98.98,0,0,0,.9078,1.354"/><path class="cls-3" d="M72.5754,96.1307l.0071-.0175"/><line class="cls-3" x1="80.6667" y1="87.554" x2="80.6667" y2="83.9003"/><line class="cls-3" x1="73.6085" y1="97.486" x2="83.2551" y2="97.486"/><line class="cls-3" x1="84.1429" y1="96.1307" x2="84.1358" y2="96.1132"/><line class="cls-3" x1="84.1358" y1="96.1132" x2="80.6722" y2="87.6259"/><path class="cls-3" d="M84.1429,96.1307a.98.98,0,0,1-.9083,1.354"/><path class="cls-3" d="M84.1429,96.1307l-.0071-.0175"/><line class="cls-3" x1="73.6085" y1="97.486" x2="83.2551" y2="97.486"/><line class="cls-3" x1="84.1429" y1="96.1307" x2="84.1358" y2="96.1132"/><line class="cls-3" x1="84.1358" y1="96.1132" x2="80.6722" y2="87.6259"/><path class="cls-3" d="M84.1429,96.1307a.98.98,0,0,1-.9083,1.354"/><path class="cls-3" d="M84.1429,96.1307l-.0071-.0175"/><line class="cls-4" x1="79.1099" y1="84.7852" x2="80.7007" y2="84.7852"/><line class="cls-4" x1="79.1099" y1="83.8738" x2="80.7007" y2="83.8738"/><line class="cls-4" x1="79.1099" y1="85.7073" x2="80.7007" y2="85.7073"/><line class="cls-4" x1="79.1099" y1="86.6295" x2="80.7007" y2="86.6295"/><line class="cls-4" x1="79.1099" y1="87.5516" x2="80.7007" y2="87.5516"/><path class="cls-4" d="M75.6871,92.8618c0-.5233.9475-1.6623.9475-1.6623s.9475,1.139.9475,1.6623a.9475.9475,0,0,1-1.895,0Z"/><path class="cls-4" d="M77.6642,95.2072c0-.5234.9474-1.6623.9474-1.6623s.9475,1.1389.9475,1.6623a.9475.9475,0,0,1-1.8949,0Z"/><path class="cls-4" d="M78.1882,91.8484c0-.5233.9476-1.6623.9476-1.6623s.9475,1.139.9475,1.6623a.9476.9476,0,0,1-1.8951,0Z"/><path class="cls-4" d="M216.1932,59.3035l13.6138,12.81h0L220.37,82.1424a1.12,1.12,0,0,1-1.5831.0481L206.8042,70.916a1.12,1.12,0,0,1-.0482-1.5831l0,0,9.4366-10.0293Z"/><rect class="cls-5" x="216.0483" y="55.2298" width="9.5726" height="3.7384" transform="translate(27.9196 178.8037) rotate(-46.7436)"/><rect class="cls-5" x="219.0221" y="58.3724" width="7.9772" height="3.7384" transform="translate(26.3157 181.3776) rotate(-46.7436)"/><rect class="cls-5" x="221.9958" y="61.5153" width="6.3818" height="3.7384" transform="translate(24.7117 183.9516) rotate(-46.7436)"/><rect class="cls-5" x="224.9695" y="64.6581" width="4.7863" height="3.7384" transform="translate(23.1076 186.5255) rotate(-46.7436)"/><rect class="cls-5" x="227.9434" y="67.8011" width="3.1909" height="3.7384" transform="translate(21.5036 189.0996) rotate(-46.7436)"/><polygon class="cls-6" points="233.914 65.02 231.336 66.246 232.848 67.668 233.914 65.02"/><polygon class="cls-6" points="231.336 66.246 229.273 67.226 231.995 69.787 232.848 67.668 231.336 66.246"/><polygon class="cls-6" points="232.284 61.296 229.706 62.522 231.218 63.945 232.284 61.296"/><polygon class="cls-6" points="229.706 62.522 227.643 63.502 230.366 66.063 231.218 63.945 229.706 62.522"/><polygon class="cls-6" points="230.655 57.572 228.076 58.798 229.589 60.221 230.655 57.572"/><polygon class="cls-6" points="228.076 58.798 226.013 59.778 228.736 62.339 229.589 60.221 228.076 58.798"/><polygon class="cls-6" points="229.026 53.849 226.447 55.074 227.96 56.497 229.026 53.849"/><polygon class="cls-6" points="226.447 55.074 224.385 56.054 227.108 58.616 227.96 56.497 226.447 55.074"/><polygon class="cls-6" points="227.397 50.125 224.818 51.351 226.33 52.773 227.397 50.125"/><polygon class="cls-6" points="224.818 51.351 222.755 52.331 225.478 54.892 226.33 52.773 224.818 51.351"/><line class="cls-2" x1="56.8205" y1="150.2446" x2="237.9689" y2="150.2446"/><path class="cls-7" d="M154.1459,101.5507a11.0631,11.0631,0,0,0,22.1062,0,9.5653,9.5653,0,0,0-.1217-1.8243"/><path class="cls-7" d="M168.2481,147.9652h3.9639a1.7533,1.7533,0,0,1,1.7533,1.7533v.4383h-5.7172Z"/><path class="cls-7" d="M162.15,150.1567h-5.717v-.4384a1.7531,1.7531,0,0,1,1.753-1.7532h3.964Z"/><path class="cls-7" d="M154.1459,101.5507c0-.12.0052-.2379.0094-.3565a2.0068,2.0068,0,1,0,.1812,4.01h.4844A10.176,10.176,0,0,1,154.1459,101.5507Z"/><path class="cls-7" d="M176.2427,101.1942c.0041.1186.0094.237.0094.3565a10.1807,10.1807,0,0,1-.675,3.6527h.4845a2.0068,2.0068,0,0,0,.1811-4.01h0Z"/><path class="cls-7" d="M171.6783,102.3726a1.24,1.24,0,0,1-2.4773,0"/><path class="cls-7" d="M161.197,102.3726a1.24,1.24,0,0,1-2.4774,0"/><path class="cls-7" d="M163.1027,107.4314a2.0982,2.0982,0,0,0,4.1926,0"/><path class="cls-7" d="M178.0236,116.8976a11.6289,11.6289,0,0,0-5.8456-5.57,3.1052,3.1052,0,0,0-1.1312-.4188,1.9511,1.9511,0,0,0-.4059-.0448c-.02,0-.04.0017-.0595.0023-.0156,0-.0307-.0023-.0464-.0023h-.0672a11.494,11.494,0,0,1-10.5368,0h-.0672c-.0157,0-.0307.002-.0464.0023-.02-.0006-.04-.0023-.0594-.0023a1.9494,1.9494,0,0,0-.4058.0448,3.1052,3.1052,0,0,0-1.1312.4188,11.6289,11.6289,0,0,0-5.8456,5.57c-.0985.2016-.1884.4065-.274.6119l3.7356.8325a7.8726,7.8726,0,0,1,.9779-1.4951v9.996h16.77v-9.996a7.8678,7.8678,0,0,1,.9779,1.4951l3.7355-.8325C178.212,117.3042,178.122,117.1,178.0236,116.8976Z"/><path class="cls-7" d="M159.8538,110.7133a5.3553,5.3553,0,0,0,10.7008,0"/><path class="cls-7" d="M175.4937,123.885a2.1578,2.1578,0,0,1,.93-.2105,2.1071,2.1071,0,0,1,1.8613,1.087,10.578,10.578,0,0,0-.4-7.16l-2.9033.6472A7.9,7.9,0,0,1,175.4937,123.885Z"/><ellipse class="cls-7" cx="176.4236" cy="125.6834" rx="2.0963" ry="2.0089"/><path class="cls-7" d="M151.25,123.05a3.0957,3.0957,0,0,0-1.1243-.22,8.2368,8.2368,0,0,0,2.3568-5.2528l2.9.6608a10.7859,10.7859,0,0,1-2.9717,6.58A2.0016,2.0016,0,0,0,151.25,123.05Z"/><ellipse class="cls-7" cx="150.3159" cy="124.8486" rx="2.0963" ry="2.0089"/><path class="cls-7" d="M165.2023,86.2279a11.1388,11.1388,0,0,0-4.0268.753,19.1589,19.1589,0,0,1-10.06-1.2992V89.23a9.4751,9.4751,0,0,0,2.622,6.4022h0a13.5468,13.5468,0,0,0-.2188,5.63,1.9079,1.9079,0,0,1,.6519-.1161h.0042a12.516,12.516,0,0,1,.835-4.3456,11,11,0,0,0,1.6584,1.0709,12.8261,12.8261,0,0,0,8.4632.7047,25.9109,25.9109,0,0,1,5.0215-.4891,19.504,19.504,0,0,1,5.88.9929,12.7424,12.7424,0,0,1,.1974,2.0664h.0041a1.91,1.91,0,0,1,.6518.1162,13.7007,13.7007,0,0,0,.1954-2.2331c0-.0224.0015-.0441.0015-.0664C177.0831,91.93,171.7639,86.2279,165.2023,86.2279Z"/><path class="cls-7" d="M165.2186,134.31v13.64h7.5835v-13.776c.896-1.0411.8086-4.5414.8086-5.9845l-16.7964.0587"/><path class="cls-7" d="M165.2086,136.5275v11.4217H157.625v-13.776c-.896-1.0411-.8085-4.5414-.8085-5.9845l16.7963.0587"/><path class="cls-7" d="M146.4487,101.2618c.004.1186.0094.2368.0094.3565a10.18,10.18,0,0,1-.6751,3.6525h.4844a2.0066,2.0066,0,0,0,.1813-4.009Z"/><path class="cls-7" d="M141.8843,103.6272a1.24,1.24,0,0,0-2.4774,0"/><path class="cls-7" d="M131.4029,103.6272a1.24,1.24,0,0,0-2.4773,0"/><path class="cls-7" d="M133.3086,107.4989a2.0982,2.0982,0,0,0,4.1926,0"/><path class="cls-7" d="M149.3391,123.0483a3.1423,3.1423,0,0,1,1.1217-.2253,7.9339,7.9339,0,0,1-2.3072-5.1544l-2.8938.6728a10.3885,10.3885,0,0,0,2.91,6.4566A2.008,2.008,0,0,1,149.3391,123.0483Z"/><line class="cls-7" x1="127.1139" y1="113.3487" x2="145.6448" y2="113.3487"/><path class="cls-2" d="M142.034,111.1738a9.7,9.7,0,0,0,4.57-5.6553"/><path class="cls-7" d="M123.4629,101.324a2.0623,2.0623,0,0,0,0,3.661Z"/><path class="cls-7" d="M127.2979,112.34c0,2.9826-1.1648,3.8706-2.6669,5.7555l1.4111.3145a7.8853,7.8853,0,0,1,.9779-1.4953v10.0322h16.77V116.9142a7.8729,7.8729,0,0,1,.978,1.4953l3.7355-.8325c-.0855-.2055-.1909-.4032-.2739-.6118a11.9366,11.9366,0,0,0-7.44-6.1755"/><path class="cls-2" d="M147.209,101.2153V98.9322a11.83,11.83,0,0,0-23.66,0h0"/><path class="cls-7" d="M127.2979,111.9889v.3506c0,2.9826-1.15,3.8416-2.6516,5.7266"/><line class="cls-7" x1="127.2979" y1="111.9688" x2="127.2979" y2="111.9889"/><path class="cls-7" d="M130.0205,110.82a10.1747,10.1747,0,0,0-2.7226,1.1686"/><line class="cls-2" x1="123.5516" y1="117.8546" x2="123.5554" y2="115.3014"/><path class="cls-8" d="M123.5516,117.8546l-.0026,1.7407a17.8066,17.8066,0,0,1,1.0684-1.4944"/><line class="cls-2" x1="123.5554" y1="115.3014" x2="123.5797" y2="98.8045"/><path class="cls-7" d="M122.3,117.7711a16.1767,16.1767,0,0,1,1.2495-2.5336"/><path class="cls-2" d="M123.6009,98.963a11.8057,11.8057,0,0,1,23.6113-.0663"/><path class="cls-7" d="M146.321,100.08a13.9334,13.9334,0,0,1-1.651-.4447c-3.4207-1.245-5.4007-3.1087-6.2167-5.1927-3.2083,1.7772-7.2565,3.0622-8.28,4.0166-1.4737,1.3748-2.8758,3.3474-2.8758,5.3629v4.8956"/><path class="cls-7" d="M146.3307,100.0767l.0412.0088-.0413-.0091"/><line class="cls-7" x1="127.2979" y1="108.7175" x2="127.2979" y2="111.9688"/><path class="cls-7" d="M146.152,99.8954a5.2316,5.2316,0,0,1,.3213,1.6553A10.83,10.83,0,0,1,135.42,112.1431a11.2325,11.2325,0,0,1-8.1223-3.4256"/><line class="cls-7" x1="123.7207" y1="117.9042" x2="122.3522" y2="117.4893"/><path class="cls-7" d="M138.4233,147.9652h3.9639a1.7533,1.7533,0,0,1,1.7532,1.7533v.4383h-5.7171Z"/><path class="cls-7" d="M132.325,150.1567h-5.7171v-.4384a1.7531,1.7531,0,0,1,1.753-1.7532h3.9641Z"/><path class="cls-7" d="M135.393,134.31v13.64h7.5835v-13.776c.896-1.0411.8087-4.5414.8087-5.9845l-16.7964.0587"/><path class="cls-7" d="M135.3837,136.5275v11.4217H127.8v-13.776c-.896-1.0411-.8086-4.5414-.8086-5.9845l16.7964.0587"/><path class="cls-7" d="M122.7359,117.577a8.2353,8.2353,0,0,1-2.3568,5.2528,3.1036,3.1036,0,0,1,1.1242.22,2.0018,2.0018,0,0,1,1.1607,1.7679,10.7858,10.7858,0,0,0,2.9718-6.58"/><ellipse class="cls-7" cx="120.5691" cy="124.8486" rx="2.0963" ry="2.0089"/><path class="cls-7" d="M112.1232,103.6272a1.24,1.24,0,0,0-2.4774,0"/><path class="cls-7" d="M101.6418,103.6272a1.24,1.24,0,0,0-2.4774,0"/><path class="cls-7" d="M103.5475,107.4989a2.0982,2.0982,0,0,0,4.1926,0"/><ellipse class="cls-7" cx="94.4192" cy="125.7509" rx="2.0963" ry="2.0089"/><path class="cls-7" d="M120.7,122.823a7.9349,7.9349,0,0,1-2.3072-5.1544l-2.8939.6728a10.3884,10.3884,0,0,0,2.91,6.4566"/><path class="cls-7" d="M94.87,118.095l1.4112.3145a7.88,7.88,0,0,1,.9778-1.4953v10.0322h16.77V116.9142a7.88,7.88,0,0,1,.9779,1.4953l3.7355-.8325c-.0856-.2055-.19-.4032-.2739-.6118a11.9375,11.9375,0,0,0-7.44-6.1755"/><path class="cls-7" d="M96.3056,118.41,92.57,117.577c.0855-.2055.19-.4032.2738-.6118a11.9366,11.9366,0,0,1,7.44-6.1755"/><path class="cls-2" d="M93.0656,117.9194a12.4114,12.4114,0,0,0-.5076,6.91,2.1742,2.1742,0,0,1,2.791-.8764,8.034,8.034,0,0,1,.5122-5.6365"/><path class="cls-7" d="M108.6621,147.9652h3.9639a1.7533,1.7533,0,0,1,1.7532,1.7533v.4383h-5.7171Z"/><path class="cls-7" d="M102.5638,150.1567H96.8467v-.4384A1.7532,1.7532,0,0,1,98.6,147.9651h3.9639Z"/><path class="cls-7" d="M105.6324,134.31v13.64h7.5835v-13.776c.896-1.0411.8085-4.5414.8085-5.9845l-16.7963.0587"/><path class="cls-7" d="M105.6225,136.5275v11.4217H98.039v-13.776c-.896-1.0411-.8085-4.5414-.8085-5.9845l16.7963.0587"/><path class="cls-7" d="M96.4794,99.8434c3.2539-1.1749,5.1975-2.9079,6.0731-4.855,1.7846,2.584,5.8454,4.39,10.5746,4.39a23.1113,23.1113,0,0,0,3.3163-.255,10.9291,10.9291,0,1,1-21.6507,2.196c0-.3416.0178-.6789.049-1.0124A15.9475,15.9475,0,0,0,96.4794,99.8434Z"/><path class="cls-7" d="M90.2493,103.92V89.6338a6.7385,6.7385,0,0,1,13.0359-2.3358,7.6335,7.6335,0,0,0-1.5934-.168A7.5422,7.5422,0,0,0,94.12,94.6418a7.3874,7.3874,0,0,0,.0811,1.0733h0c.0286.1961.0622.3906.1056.5817l.013-.0475a11.521,11.521,0,0,0-.288,4.2438c.03.2576.071.5122.1174.7647a2,2,0,0,0,.644,3.9H95.5v0a10.8012,10.8012,0,0,0,1.4584,2.6363,5.05,5.05,0,0,1-10.0738-.4658v-1.6688a2.1392,2.1392,0,0,0,3.3652-1.7392Z"/><path class="cls-7" d="M105.73,87.4638a11.732,11.732,0,0,1,11.7735,11.475c.0013.07.0054.1395.0054.21a11.6557,11.6557,0,0,1-.1952,2.11,2.0282,2.0282,0,0,0-.6461-.1066h-.0044a10.7923,10.7923,0,0,0-.22-2.0291h.0008a23.107,23.107,0,0,1-3.3171.2551c-4.7292,0-8.79-1.8058-10.5746-4.39-.8756,1.9471-2.8191,3.68-6.0731,4.855,0,0-1.6546.4672-1.6376.4633q-.0393.4182-.0448.8455h-.004a2.0235,2.0235,0,0,0-.644.1058c-.0463-.2525-.0877-.5068-.1173-.7647a11.666,11.666,0,0,1,11.6989-13.0292Z"/><path class="cls-7" d="M94.3063,96.2967a7.504,7.504,0,0,1,7.3855-9.1668,7.6144,7.6144,0,0,1,2.533.4321A11.7545,11.7545,0,0,0,94.3063,96.2967Z"/><path class="cls-7" d="M116.6679,101.3188c0-.056-.0035-.1111-.0044-.1669h.0044a2.0032,2.0032,0,0,1,.042,4.0062h-.7489A10.7464,10.7464,0,0,0,116.6679,101.3188Z"/><circle class="cls-7" cx="105.525" cy="119.3923" r="0.8297"/><circle class="cls-7" cx="105.525" cy="122.0659" r="0.8297"/><path class="cls-7" d="M130.6917,69.2008a4.96,4.96,0,0,0-4.96-4.96H67.8661a4.96,4.96,0,0,0-4.96,4.96v32.4464a4.96,4.96,0,0,0,4.96,4.96H84.8376"/><line class="cls-7" x1="130.6917" y1="69.2008" x2="130.6917" y2="85.8862"/><rect class="cls-7" x="88.326" y="64.3837" width="16.9463" height="5.6487"/><path class="cls-1" d="M244.1811,64.49c.1232,0,.2772-.0154.2772-.0929s-.0924-.1239-.3235-.1548c-.5389-.1084-.6466-.2789-.6776-1.0068-.0308-.5264-.0308-.8208-.0308-1.2236,0-.728,0-1.6262.0308-2.1218a1.8049,1.8049,0,0,1,.2157-.604c.4619-.759,1.5091-2.5866,2.31-3.6243a1.6971,1.6971,0,0,1,1.14-.79c.2464-.031.3389-.0929.3389-.1549s-.1079-.0929-.2774-.0929c-.2309,0-.7237.0775-1.0933.0775-.4312,0-.6776-.0621-1.1088-.0621-.154,0-.2464.031-.2464.0775,0,.0774.1385.1239.2617.1549.4006.0774.57.2016.57.3872a1.8229,1.8229,0,0,1-.3541.8208c-.3235.5576-1.309,2.184-1.8327,3.0512-.0463.0775-.154,0-.1848-.0155-.37-.5111-1.7248-2.8653-2.002-3.3454a1.631,1.631,0,0,1-.2617-.5886c0-.1084.0924-.2016.462-.2788.154-.0309.2464-.0774.2464-.1549,0-.0619-.0771-.0928-.2464-.0928-.2772,0-.7547.0465-1.2475.0465-.462,0-1.2165-.0775-1.4939-.0775-.2,0-.2925,0-.2925.0929,0,.0465.0771.1084.3233.1549.4622.0929.7392.3248,1.232,1.0067.4467.635,1.7248,2.7879,2.2331,3.7171a.8843.8843,0,0,1,.1079.3407c.0153.2016.0308.48.0308,1.4405,0,.6659-.0308,1.6882-.0615,1.9979-.0464.6041-.1387.759-.7547.8363-.1848.0311-.3389.0774-.3389.1395,0,.0774.1079.1239.3236.1239.4311,0,.7236-.062,1.2472-.062C243.2725,64.4125,243.5651,64.49,244.1811,64.49Zm4.42.1084a3.0553,3.0553,0,0,0,1.74-.5885,3.1158,3.1158,0,0,0,1.1859-2.4006,2.8981,2.8981,0,0,0-2.8681-2.9277H248.57a3.15,3.15,0,0,0-1.848.6505,2.9568,2.9568,0,0,0,1.8789,5.2659Zm.2156-.2633a1.8285,1.8285,0,0,1-1.4478-.8208,3.5627,3.5627,0,0,1-.6468-2.1219c0-1.6108.8316-2.4471,1.6171-2.4471,1.3552,0,2.0944,1.4561,2.0944,2.9273a3.0952,3.0952,0,0,1-.6468,2.0753,1.5175,1.5175,0,0,1-.97.387Zm8.0233.2324a6.8976,6.8976,0,0,1,1.5863-.4182c.154-.031.2925-.0619.2925-.1239a.1856.1856,0,0,0-.1847-.17,4.2834,4.2834,0,0,0-.6314.1394c-.1232.0155-.1694-.0154-.2-.17a3.6574,3.6574,0,0,1-.0305-.5814V63.034c0-1.7966.0307-3.3453.1078-4.0733.0154-.1084-.0154-.17-.0616-.17a8.1175,8.1175,0,0,1-1.0626.093h-.6468c-.0925,0-.231.0309-.231.0929,0,.0464.0768.0929.2464.1239.5083.1085.6621.1858.6776.7125,0,.4032.0153,1.1312.0153,1.3629,0,.5575,0,1.1616-.0308,1.5792a.9516.9516,0,0,1-.277.7124,1.7209,1.7209,0,0,1-1.3091.4956,1.1282,1.1282,0,0,1-.8624-.3872,1.72,1.72,0,0,1-.2311-1.0222c-.0153-.7124,0-2.8188.0462-3.7016.0153-.0929-.0308-.1858-.077-.17a5.4011,5.4011,0,0,1-1.2935.2016c-.1695,0-.2465.0309-.2465.0774s.0463.0929.1848.1859a.6027.6027,0,0,1,.3388.5115c.0308.2633.0308,2.8807.0308,3.3919a1.6291,1.6291,0,0,0,.2926.9447,1.51,1.51,0,0,0,1.34.5576,2.6273,2.6273,0,0,0,.9087-.2323,4.4283,4.4283,0,0,0,1.0625-.7589c.0307-.0465.0463.0619.0463.1084,0,.1084-.0155.4491-.0155.604,0,.17,0,.2479.0308.2944s.0613.0618.1845,0Zm7.315.0155a2.6582,2.6582,0,0,0,2.1251-1.0222.4032.4032,0,0,0,.1232-.2479c0-.0464-.0769-.0309-.1077,0a2.06,2.06,0,0,1-1.6016.5886,2.1832,2.1832,0,0,1-1.4323-.5421,2.6142,2.6142,0,0,1-.77-2.0134c0-1.7808,1.0627-2.4006,1.7095-2.4006a1.3717,1.3717,0,0,1,.5852.1238,4.2168,4.2168,0,0,1,.8624.6351.477.477,0,0,0,.2617.1549.5282.5282,0,0,0,.3851-.4956.3557.3557,0,0,0-.2156-.2944,2.3339,2.3339,0,0,0-1.4013-.3872,3.365,3.365,0,0,0-2.2793.8984,2.9662,2.9662,0,0,0-.9394,2.1527,2.9282,2.9282,0,0,0,.77,2.091,2.7986,2.7986,0,0,0,1.9249.7589Zm6.7451,0a1.296,1.296,0,0,0,1.1859-.666c.0616-.1394,0-.1859-.0924-.1394a.9758.9758,0,0,1-.4465.1394.53.53,0,0,1-.57-.5885c0-.4032.0462-1.8741.0462-2.4471a3.7655,3.7655,0,0,0-.2155-1.4094,1.2624,1.2624,0,0,0-1.1859-.79,2.0591,2.0591,0,0,0-.924.2788,4.0088,4.0088,0,0,0-1.17.8984c-.1848.2168-.2927.3561-.2927.4645,0,.062.0771.1549.1541.1395a3.31,3.31,0,0,0,.7238-.3407.1923.1923,0,0,0,.0616-.124,1.5911,1.5911,0,0,1,.0154-.2942.6183.6183,0,0,1,.231-.3718,1.057,1.057,0,0,1,.616-.1858,1.169,1.169,0,0,1,.6468.2478c.2618.2016.37.635.37,1.27a5.281,5.281,0,0,1-.0308.7124.293.293,0,0,1-.2.2323c-.3233.1238-1.7248.5421-2.0944.7434a1.0916,1.0916,0,0,0-.5545.8828,1.2819,1.2819,0,0,0,1.23,1.3319h.0022a2.15,2.15,0,0,0,1.5091-.697.0536.0536,0,0,1,.0747.0112l.0024.0037a1.0351,1.0351,0,0,0,.9089.697Zm-1.8172-.604a.896.896,0,0,1-.9238-.8672h0a.8027.8027,0,0,1,.3849-.7745,8.63,8.63,0,0,1,1.4168-.5264c.0308-.0156.0616.0619.0616.0774a11.197,11.197,0,0,1-.0769,1.4713.6432.6432,0,0,1-.17.3717,1.0531,1.0531,0,0,1-.693.2478Zm5.9445.4032c0-.0774-.077-.1085-.2618-.1549-.2464-.0774-.4312-.1549-.4774-.4956a12.7924,12.7924,0,0,1-.0924-1.6263c0-.93-.0154-1.7192-.0154-1.905a.8065.8065,0,0,1,.1848-.4647,1.8376,1.8376,0,0,1,1.2012-.4956,1.364,1.364,0,0,1,.8778.2944c.385.2942.4928.6659.4928,1.92v2.1064c0,.4491-.0616.5576-.4311.65-.2.0465-.2926.1084-.2926.17s.1077.0929.2464.0929c.2311,0,.4313-.0619.9548-.0619.3388,0,.7855.0619.9857.0619.154,0,.2772-.0154.2772-.1084,0-.0619-.0924-.093-.2311-.1549-.4157-.1084-.462-.2016-.4774-1.2544,0-.7744-.0154-.8983-.0154-1.7192a3.2466,3.2466,0,0,0-.4928-2.0289,1.569,1.569,0,0,0-1.2013-.5264,2.0736,2.0736,0,0,0-.9086.1858,5.29,5.29,0,0,0-1.0933.697c-.0308.031-.077-.0154-.077-.0465a7.0516,7.0516,0,0,1,.0308-.8208c.0154-.0774-.0616-.1393-.1079-.1239a5.78,5.78,0,0,1-1.2166.5264c-.1385.0465-.2156.0929-.2156.1239,0,.0465.0308.0774.1232.1394.37.2016.4.3716.4.5264,0,1.2544,0,2.6795-.0308,3.7946-.0153.31-.0769.4182-.462.4956-.1849.031-.3233.0929-.3233.1549,0,.0775.1232.1084.2925.1084.2926,0,.616-.0309.8162-.0309.3541,0,1.1088.0619,1.232.0619.1539-.0006.308-.0006.308-.0935Zm8.8242,4.6464a3.658,3.658,0,0,0,1.8633-.5112,3.1258,3.1258,0,0,0,1.7248-2.5244,1.6866,1.6866,0,0,0-.5237-1.3165,1.6592,1.6592,0,0,0-1.2012-.4032c-.4311,0-1.2781.0465-1.7556.0465-.8008,0-1.4321-.1549-1.4321-.6505a.4928.4928,0,0,1,.1694-.3407,2.3639,2.3639,0,0,1,.539-.5112.2955.2955,0,0,1,.1848-.0465,3.7038,3.7038,0,0,0,.6468.0775,2.1129,2.1129,0,0,0,1.2013-.4032,2.5664,2.5664,0,0,0,.97-2.0908c0-.2787-.0308-.5264-.0308-.635a.1393.1393,0,0,1,.0924-.093c.1694,0,.7238.031.9394.031.0616,0,.1695-.1238.1695-.2787,0-.1859-.0616-.3407-.1387-.3407-.231,0-.847.0309-1.14.0309a1.121,1.121,0,0,1-.539-.0774,3.4692,3.4692,0,0,0-1.5708-.4032,2.362,2.362,0,0,0-1.6324.635,1.8755,1.8755,0,0,0-.6468,1.4868,2.3392,2.3392,0,0,0,1.1859,1.9361c.0308.0154.0462.0775.0308.0929a6.7756,6.7756,0,0,1-1.2783,1.1461.1931.1931,0,0,0-.0924.1549c0,.6195.8163,1.1616,1.2475,1.2544.0462.0155.0308.1084.0154.1395-.3081.3407-.8778,1.0685-.9856,1.1925a.9891.9891,0,0,0-.2773.666c0,1.147,1.0319,1.7352,2.2639,1.7352Zm.3233-6.412a1.2545,1.2545,0,0,1-.9548-.4492,2.8191,2.8191,0,0,1-.4773-1.6576,2.1737,2.1737,0,0,1,.4157-1.363,1.153,1.153,0,0,1,.7855-.3559,1.0816,1.0816,0,0,1,.924.5264,2.7831,2.7831,0,0,1,.4774,1.7347c0,.7122-.4621,1.564-1.1705,1.564Zm.3081,5.8854a2.0979,2.0979,0,0,1-1.463-.4646,1.5889,1.5889,0,0,1-.6007-1.1771,1.9636,1.9636,0,0,1,.6623-1.3785.9451.9451,0,0,1,.5236-.1393c.4157-.0155,1.17-.0311,1.7556-.0311.9856,0,1.386.5731,1.386,1.2236a2.07,2.07,0,0,1-.8316,1.5952,2.3829,2.3829,0,0,1-1.4322.3711Zm5.9444-3.9185a2.715,2.715,0,0,0,2.14-.9766.5871.5871,0,0,0,.1541-.2479c0-.0773-.0615-.1084-.1849.0156a1.96,1.96,0,0,1-1.463.4956,2.0745,2.0745,0,0,1-1.54-.635,2.786,2.786,0,0,1-.7083-1.8741,2.1412,2.1412,0,0,1,.1232-.8518c.0308-.0465.1077-.124.1385-.124h.8316c.3542,0,2.3562.0311,2.4794.0465a.1814.1814,0,0,0,.154-.17,1.78,1.78,0,0,0-1.8787-1.5792,2.8571,2.8571,0,0,0-1.9251.7743,3.2385,3.2385,0,0,0-.8931,2.2613,3.0389,3.0389,0,0,0,.7392,2.0754,2.48,2.48,0,0,0,1.8326.79Zm-1.2782-4.415a.0664.0664,0,0,1-.0615-.0619,1.3631,1.3631,0,0,1,.3232-.635,1.5966,1.5966,0,0,1,1.1246-.5731,1.0752,1.0752,0,0,1,.77.2943,1.0007,1.0007,0,0,1,.2156.6505c0,.1394-.0308.31-.37.31Zm6.3143,4.3831a2.1054,2.1054,0,0,0,1.2475-.4026c.2-.1549.3387-.31.3387-.4032,0-.0619-.0462-.0774-.1542,0a1.4988,1.4988,0,0,1-.8469.2324,1.1363,1.1363,0,0,1-.9548-.4182,1.596,1.596,0,0,1-.17-.8363c-.0153-.48-.0308-2.912-.0308-3.1751,0-.093.0308-.1395.2157-.1395.4158,0,1.17.0156,1.7094.0156.0769,0,.1541-.124.1541-.3872,0-.1084-.0616-.2168-.0924-.2168-.3233,0-1.6016.0464-1.8788.0464-.0616,0-.077-.0929-.077-.1394-.0154-.1859.0154-.62.0154-.7589,0-.0775-.1078-.1084-.2464.0465a3.2838,3.2838,0,0,1-1.2628,1.0377c-.1694.0774-.1848.1239-.1848.1549,0,.0619.077.1084.2.1393a2.5147,2.5147,0,0,1,.37.093c.0616.031.077.1394.077.31v3.2073a1.7484,1.7484,0,0,0,.1848.8828,1.4246,1.4246,0,0,0,1.3859.7122Zm6.4526,0a2.106,2.106,0,0,0,1.2474-.4026c.2-.1549.3387-.31.3387-.4032,0-.0619-.0461-.0774-.154,0a1.4994,1.4994,0,0,1-.8471.2324,1.1365,1.1365,0,0,1-.9548-.4182,1.5962,1.5962,0,0,1-.1693-.8363c-.0154-.48-.0308-2.912-.0308-3.1751,0-.093.0308-.1395.2156-.1395.4158,0,1.17.0156,1.7093.0156.0771,0,.1543-.124.1543-.3872,0-.1084-.0619-.2168-.0927-.2168-.3233,0-1.6016.0464-1.8787.0464-.0615,0-.0769-.0929-.0769-.1394-.0153-.1859.0154-.62.0154-.7589,0-.0775-.1079-.1084-.2464.0465a3.2885,3.2885,0,0,1-1.2628,1.0377c-.1695.0774-.1849.1239-.1849.1549,0,.0619.077.1084.2.1393a2.5147,2.5147,0,0,1,.37.093c.0616.031.077.1394.077.31v3.2073a1.7507,1.7507,0,0,0,.1848.8828,1.4252,1.4252,0,0,0,1.386.7119Zm7.9618-.0619c.1384,0,.2464-.0465.2464-.1084s-.0461-.093-.2464-.1394c-.4621-.0775-.5236-.1859-.5236-.4957-.0154-.5884-.0154-1.5487-.0308-2.71a3.0026,3.0026,0,0,0-.3388-1.6576,1.6367,1.6367,0,0,0-1.386-.6969,2.4021,2.4021,0,0,0-1.078.2633,5.0677,5.0677,0,0,0-.924.635c-.0154.0309-.0616.0155-.0616-.0465-.0154-.2943.0462-5.096.0616-5.5137.0154-.2169-.0308-.3248-.077-.3248a.3327.3327,0,0,0-.154.0619,6.3618,6.3618,0,0,1-1.1242.3717c-.1694.0465-.2618.093-.2618.1395s.0462.0774.1079.1239c.3387.1858.4466.2322.462.728.0308.5885,0,1.5333,0,3.872,0,2.4626-.0154,3.8874-.0616,4.507-.0154.5886-.1232.6351-.57.7435-.1846.0463-.2464.0774-.2464.1393s.077.093.2464.093c.2927,0,.5237-.062,1.0011-.062.4465,0,.847.062,1.2781.062.1387,0,.2311-.0465.2311-.093,0-.0774-.1079-.1084-.3388-.1549a.5462.5462,0,0,1-.4928-.5264,31.0136,31.0136,0,0,1-.077-3.33.7815.7815,0,0,1,.1541-.573,1.855,1.855,0,0,1,1.3552-.5731,1.1507,1.1507,0,0,1,1.0625.5731,2.4921,2.4921,0,0,1,.2311,1.1616c0,1.6108-.0308,2.2922-.0616,2.6485-.0615.4491-.0923.5575-.5082.65-.1541.0309-.231.0619-.231.1238,0,.0465.0616.093.2464.093.3543,0,.4774-.0619,1.001-.0619.4156,0,.7082.0775,1.1088.0775Zm3.5112.0929a2.7157,2.7157,0,0,0,2.1406-.9757.5871.5871,0,0,0,.1538-.2479c0-.0773-.0616-.1084-.1848.0156a1.96,1.96,0,0,1-1.4629.4956,2.0744,2.0744,0,0,1-1.54-.635,2.7845,2.7845,0,0,1-.7084-1.8741,2.1394,2.1394,0,0,1,.1231-.8518c.0308-.0465.1079-.124.1386-.124h.8316c.3542,0,2.3562.0311,2.4794.0465a.1815.1815,0,0,0,.154-.17,1.7807,1.7807,0,0,0-1.8788-1.5792,2.857,2.857,0,0,0-1.925.7743,3.2378,3.2378,0,0,0-.8932,2.2613,3.0384,3.0384,0,0,0,.7392,2.0754,2.48,2.48,0,0,0,1.8326.79Zm-1.2783-4.4141a.0664.0664,0,0,1-.0616-.0619,1.3644,1.3644,0,0,1,.3234-.635,1.5963,1.5963,0,0,1,1.1243-.5731,1.0752,1.0752,0,0,1,.77.2943,1.0007,1.0007,0,0,1,.2156.6505c0,.1394-.0307.31-.37.31Zm8.0234,4.43a2.5473,2.5473,0,0,0,1.232-.3407,1.59,1.59,0,0,0,.8008-1.301c0-.79-.4-1.1771-1.4015-1.8276-.3849-.2323-.97-.604-.97-1.2544a.9.9,0,0,1,.8368-.9586q.0435-.003.0872-.0017a1.2589,1.2589,0,0,1,.7238.2324,1.1787,1.1787,0,0,1,.37.6349c.0461.1085.0769.186.1385.186.0462,0,.0771-.0775.0771-.2479-.0155-.2477-.0771-.5575-.0926-.728a.2519.2519,0,0,0-.0769-.1394,3.7446,3.7446,0,0,0-1.0472-.17,1.9833,1.9833,0,0,0-1.2936.4337,1.4717,1.4717,0,0,0-.5852,1.2236c0,.6814.616,1.2544,1.2783,1.6882.616.3871,1.0163.7124,1.0163,1.3009a1.0588,1.0588,0,0,1-1.001,1.0377,1.1735,1.1735,0,0,1-.693-.1859,1.508,1.508,0,0,1-.6467-.8363c-.1079-.2942-.154-.2942-.2-.2942-.0308,0-.0769.0463-.0462.2477.0154.17.0462.5576.0462.7744,0,.0929.1079.2016.231.2478a3.1226,3.1226,0,0,0,1.2167.2791Zm5.02-.0465a2.106,2.106,0,0,0,1.2474-.4026c.2-.1549.3388-.31.3388-.4032,0-.0619-.0462-.0774-.1539,0a1.4993,1.4993,0,0,1-.847.2324,1.1362,1.1362,0,0,1-.9549-.4182,1.5949,1.5949,0,0,1-.1694-.8363c-.0154-.48-.0307-2.912-.0307-3.1751,0-.093.0307-.1394.2156-.1394.4158,0,1.17.0155,1.7094.0155.077,0,.1541-.124.1541-.3872,0-.1084-.0616-.2168-.0924-.2168-.3234,0-1.6016.0464-1.8788.0464-.0616,0-.0771-.0929-.0771-.1394-.0153-.1859.0155-.62.0155-.7589,0-.0775-.1077-.1084-.2464.0465a3.2852,3.2852,0,0,1-1.2628,1.0377c-.1695.0774-.1848.1239-.1848.1549,0,.0619.0769.1084.2.1393a2.54,2.54,0,0,1,.37.093c.0616.031.077.1394.077.31v3.2073a1.7484,1.7484,0,0,0,.1848.8828,1.4247,1.4247,0,0,0,1.386.7119Zm4.928.0465a3.0553,3.0553,0,0,0,1.74-.5886,3.1156,3.1156,0,0,0,1.1857-2.4006,2.8979,2.8979,0,0,0-2.868-2.9276h-.0888a3.15,3.15,0,0,0-1.848.6505,2.9568,2.9568,0,0,0,1.8788,5.2659Zm.2156-.2633a1.828,1.828,0,0,1-1.4476-.8209,3.56,3.56,0,0,1-.6468-2.1218c0-1.6108.8316-2.4471,1.6169-2.4471,1.3552,0,2.0944,1.456,2.0944,2.9273a3.0958,3.0958,0,0,1-.6467,2.0753,1.5184,1.5184,0,0,1-.97.3873Zm3.7268.17a8.2677,8.2677,0,0,1,.94-.0928c.6468,0,1.1548.0619,1.4474.0619.231,0,.37-.031.37-.1084s-.0771-.1084-.2927-.1394c-.5852-.062-.77-.17-.8316-.65-.0307-.3248-.0615-1.1312-.0615-2.2768a8.9411,8.9411,0,0,1,.0154-.9447.89.89,0,0,1,.2618-.5421,1.0488,1.0488,0,0,1,.6776-.31,1.0746,1.0746,0,0,1,.5391.1859.6918.6918,0,0,0,.2772.1084c.0461,0,.1076-.0156.2464-.1395a1.0623,1.0623,0,0,0,.3387-.5264.2714.2714,0,0,0-.1078-.2168.8939.8939,0,0,0-.5389-.2016,2.5129,2.5129,0,0,0-1.6633,1.1151c-.0462.0465-.077.031-.077-.0155,0-.2478.0154-.8364.0154-1.0067,0-.1549-.0307-.2169-.0616-.2169a.4837.4837,0,0,0-.231.0775,4.6583,4.6583,0,0,1-.9856.3718c-.1387.0463-.231.1084-.231.1393s.0154.0775.1232.1549c.2925.2478.4.2942.4.4032v1.7192c0,1.0222-.0154,1.905-.0462,2.1683a.6383.6383,0,0,1-.5544.635c-.1231.031-.2309.1085-.2309.1549,0,.0624.0769.0933.2617.0933Zm5.4516,4.2438a.5788.5788,0,0,0,.5083-.2633,2.1417,2.1417,0,0,0,.2925-.5731c.2156-.5264.8008-2.1373,1.17-3.0352.3234-.8363.462-1.1926.6469-1.7036.2309-.5886,1.1857-2.9737,1.3706-3.3609.2464-.5731.4-.6815.7082-.7744.154-.0465.2156-.1084.2156-.1549s-.0923-.0619-.1846-.0619c-.2311,0-.4313.0464-.7085.0464-.2311,0-.5543-.0464-.7392-.0464-.1388,0-.2157.0309-.2157.0928,0,.0465.0461.093.2772.14.2617.0774.3387.2016.3387.31a1.1655,1.1655,0,0,1-.077.4491c-.1232.3561-.9856,2.5865-1.1856,3.113-.0155.0465-.0616.062-.0925,0-.308-.6505-1.155-2.7413-1.3552-3.2834-.1387-.4032-.108-.48.2309-.5885.0924-.0155.2-.062.2-.1239s-.1079-.1084-.2619-.1084c-.2,0-.6006.0464-.8161.0464-.37,0-.8009-.062-1.0781-.062-.1077,0-.2464.031-.2464.1084,0,.0465.0925.1085.2773.1549a.8245.8245,0,0,1,.5543.4182c.6931,1.5179,1.6787,4.0269,1.91,4.6309a.764.764,0,0,1,.0154.4956c-.5236,1.3475-.97,2.6176-1.1242,2.9428a.3727.3727,0,0,1-.4.2633c-.1077,0-.2-.031-.3079-.031a.4558.4558,0,0,0-.4312.4491.5135.5135,0,0,0,.5083.5111Z"/><path d="M241.74,98.1044a2.5717,2.5717,0,0,0,2.1713-1.1461.5528.5528,0,0,0,.1232-.2788c0-.062-.0616-.062-.1386,0a1.9356,1.9356,0,0,1-1.4938.5264,2.0321,2.0321,0,0,1-1.34-.5421,2.754,2.754,0,0,1-.6473-1.9052c0-1.75.8008-2.2613,1.2167-2.2613a1.1813,1.1813,0,0,1,.57.124,6.8945,6.8945,0,0,1,.97.728.6151.6151,0,0,0,.2617.1394.5711.5711,0,0,0,.4928-.604.4191.4191,0,0,0-.1847-.2943,2.35,2.35,0,0,0-1.5093-.4182,3.8224,3.8224,0,0,0-2.2636.8829,3.0027,3.0027,0,0,0-.2976,4.236h0l.02.0231A2.8929,2.8929,0,0,0,241.74,98.1044Zm6.006.0309a3.2447,3.2447,0,0,0,1.848-.604A3.1048,3.1048,0,0,0,250.7956,95.1a2.93,2.93,0,0,0-2.9285-2.9311h0c-.0506,0-.1008.0013-.1515.0039a3.1247,3.1247,0,0,0-1.9712.7126,2.8512,2.8512,0,0,0-1.0934,2.2921,2.9858,2.9858,0,0,0,3.0112,2.96h0Q247.7044,98.1372,247.7464,98.1353Zm.1848-.2478a1.49,1.49,0,0,1-1.17-.8518,4.6688,4.6688,0,0,1-.4774-2.2768c0-1.3474.6314-2.3232,1.2936-2.3232,1.078,0,1.5707,1.2236,1.5707,2.9892a3.675,3.675,0,0,1-.5081,2.1064.9108.9108,0,0,1-.7084.3562Zm6.2832.1085c.154,0,.308-.0465.308-.1085,0-.0775-.1079-.1238-.2-.1394-.4-.0928-.4928-.1549-.5082-.65-.0155-.2788-.0308-.8982-.0308-2.912V92.9778c0-2.6794.0461-5.2659.0461-5.3743,0-.0774-.0308-.17-.0616-.17a.6577.6577,0,0,0-.2155.062,8.7745,8.7745,0,0,1-1.5554.4336c-.1387.031-.231.0775-.231.1239s.0462.1084.1539.1705c.3543.1858.4313.2942.4313.65.0154.5264,0,2.1683,0,3.02-.0154,1.487-.077,4.368-.1078,5.0027-.0308.666-.1232.7589-.5391.8363-.1232.0311-.2309.062-.2309.1395s.1232.1084.2772.1084c.4159,0,.7392-.031,1.155-.031.231,0,.847.0465,1.309.0465Zm4.1272.1393a3.2447,3.2447,0,0,0,1.848-.604A3.1054,3.1054,0,0,0,261.3908,95.1a2.93,2.93,0,0,0-2.9285-2.9311h0q-.0759,0-.1514.0039a3.1247,3.1247,0,0,0-1.9712.7126,2.8512,2.8512,0,0,0-1.0934,2.2921,2.9858,2.9858,0,0,0,3.0112,2.96h0c.0281,0,.0562-.0009.0842-.0019Zm.1848-.2478a1.49,1.49,0,0,1-1.17-.8518,4.6678,4.6678,0,0,1-.4775-2.2768c0-1.3474.6315-2.3232,1.2937-2.3232,1.078,0,1.5708,1.2236,1.5708,2.9892a3.6759,3.6759,0,0,1-.5082,2.1064.9114.9114,0,0,1-.7084.3562Zm3.8346.1394c.37,0,.3542-.0774,1.2781-.0774.7393,0,1.0164.0619,1.4477.0619.2,0,.3234-.0309.3234-.1084s-.0617-.1239-.2772-.1549c-.57-.0774-.6777-.1858-.7392-.65-.0308-.3562-.0616-1.0067-.0616-2.1064a10.2518,10.2518,0,0,1,.0308-1.1926.6416.6416,0,0,1,.1694-.3561.7193.7193,0,0,1,.5236-.2169,1.2451,1.2451,0,0,1,.6005.2478.434.434,0,0,0,.2619.1084c.0769,0,.154-.0309.3079-.1858a1.5894,1.5894,0,0,0,.4621-.7435c0-.1238-.0616-.2016-.2157-.31a.8616.8616,0,0,0-.5081-.1549c-.6006,0-1.1551.5575-1.5862,1.1312-.0154.0463-.077.0309-.077-.0465,0-.3408.0308-.7745.0308-1.0528,0-.0774-.0462-.17-.077-.17a.5145.5145,0,0,0-.2618.093,7.8753,7.8753,0,0,1-1.4784.5111c-.0615.031-.1693.0929-.1693.1394s.0308.0774.1232.1549c.3542.31.4.3407.4.4336.0154.1859,0,.5886,0,1.5644-.0154,1.0221-.0308,1.905-.0462,2.1683-.0462.4336-.1694.5575-.5237.6349-.1693.031-.2309.1084-.2309.17s.0923.1075.2925.1075Zm6.0522-7.0625a.7393.7393,0,0,0,.7552-.7229h0c0-.0172,0-.0344-.0007-.0515a.727.727,0,0,0-.6775-.728.7391.7391,0,0,0-.7255.7526h0l.0016.0373A.6992.6992,0,0,0,268.4132,90.9644Zm1.1241,7.0625c.1232,0,.2311-.0309.2311-.1084,0-.062-.0462-.1085-.2157-.1548a.4676.4676,0,0,1-.4158-.48c-.0308-.2324-.0308-1.4713-.0308-3.206,0-.65,0-1.44.0308-1.7657.0154-.17-.0154-.2168-.0616-.2168a1.3265,1.3265,0,0,0-.231.093,6.9647,6.9647,0,0,1-1.5092.4645c-.1694.0465-.2156.093-.2156.124,0,.062.0462.1084.1232.17.4.2787.4.3407.4.6349,0,.1549-.0462,2.85-.0462,3.3145,0,.5421-.1078.7434-.5082.8363-.1848.0311-.2772.0619-.2772.1394,0,.0619.1232.1084.2619.1084.1693,0,.5235-.0311,1.2012-.0311.6468,0,1.001.0777,1.2627.0777Zm4.6816-.0155a12.0194,12.0194,0,0,1,1.2782-.0619c.308,0,.8162.0465,1.1705.0465.1386,0,.2156-.0311.2156-.093,0-.0774-.0924-.1084-.1694-.1393-.4159-.1085-.4928-.2324-.5083-1.1926,0-.8673-.0154-1.0222-.0307-1.9206a2.76,2.76,0,0,0-.5391-1.9515,1.5912,1.5912,0,0,0-1.232-.5264,2.2288,2.2288,0,0,0-.9087.2016,4.4041,4.4041,0,0,0-.9086.604c-.0308.0311-.077.0156-.077-.0154a6.1241,6.1241,0,0,1,.0308-.7744c0-.0775-.0769-.1394-.1232-.124a7.8416,7.8416,0,0,1-1.6324.6351c-.1386.031-.2156.0775-.2156.1239,0,.031-.0153.062.1232.1548.308.2169.3542.3409.3542.4956,0,1.425-.0154,2.7725-.0462,3.6707-.0154.3563-.0461.48-.4773.5576-.1388.031-.2773.0929-.2773.1549,0,.0775.1232.1239.2926.1239.462,0,.8624-.031,1.0627-.031.354,0,1.232.062,1.3857.062.108,0,.2773-.0155.2773-.1085,0-.0774-.0615-.1084-.2464-.1549a.5222.5222,0,0,1-.4312-.5264c-.0153-.1859-.0461-.96-.0616-1.9205,0-.79-.0153-1.5179-.0153-1.8121a.4659.4659,0,0,1,.154-.3248,1.3791,1.3791,0,0,1,.8316-.2943,1.2231,1.2231,0,0,1,.7238.2168c.37.2944.4621.62.4621,1.8122v2.2767c0,.3562-.077.4646-.4928.5886-.1386.0309-.2311.0774-.2311.1393s.1079.1074.2619.1074Zm5.5595,4.3212a3.9719,3.9719,0,0,0,2.233-.728,3.1223,3.1223,0,0,0,1.4938-2.3541,1.7618,1.7618,0,0,0-.539-1.363,1.8607,1.8607,0,0,0-1.2937-.4336c-.5544,0-1.232.0154-1.6939.0154-.847,0-1.2937-.2168-1.2937-.5885a.4414.4414,0,0,1,.1232-.2943,1.31,1.31,0,0,1,.37-.31.2777.2777,0,0,1,.1694-.0309,3.4341,3.4341,0,0,0,.7237.0929,2.48,2.48,0,0,0,1.3091-.4337,2.5765,2.5765,0,0,0,.9394-2.0289l-.001-.2639c-.0014-.1358-.0051-.2658-.0144-.34,0-.0155.0461-.0775.0769-.0775.1695,0,.6315.031.8624.031.0616,0,.154-.17.154-.3248,0-.2322-.0461-.3717-.1077-.3717-.2618,0-.8163.031-1.0933.031a1.29,1.29,0,0,1-.5237-.0775,3.8365,3.8365,0,0,0-1.663-.4032,2.5064,2.5064,0,0,0-1.7248.666,1.8754,1.8754,0,0,0-.6469,1.5178,2.2091,2.2091,0,0,0,1.216,1.8741c.0308.0155.0463.0464.0308.0619a11.7692,11.7692,0,0,1-1.34,1.1771c-.0308.0155-.0616.0775-.0616.1859,0,.7589.94,1.301,1.232,1.3939a.096.096,0,0,1,.0307.1084c-.2771.2632-.7854.7744-.924.9448a.8489.8489,0,0,0-.3079.6505c0,1.0072.8777,1.6728,2.2637,1.6728Zm.4465-6.2262a1.0339,1.0339,0,0,1-.8008-.5264,3.2949,3.2949,0,0,1-.3849-1.7036,2.3046,2.3046,0,0,1,.308-1.2391.7981.7981,0,0,1,.57-.3248c.2771,0,.4466.093.7238.4647a3.32,3.32,0,0,1,.4465,1.7966c0,.6963-.2925,1.5326-.8624,1.5326Zm.2157,5.6224a2.2713,2.2713,0,0,1-1.3552-.4182,1.4837,1.4837,0,0,1-.6314-1.0528,1.4648,1.4648,0,0,1,.5236-1.1312.9688.9688,0,0,1,.3849-.093c.4313,0,1.309-.031,1.8634-.031,1.0472,0,1.386.5421,1.386,1.1462a1.6546,1.6546,0,0,1-.7392,1.27,2.59,2.59,0,0,1-1.432.31Zm8.3006-3.5933a3.6074,3.6074,0,0,0,2.5564-1.0686,3.0889,3.0889,0,0,0,.8008-2.1529,2.81,2.81,0,0,0-.7085-1.8585,2.4942,2.4942,0,0,0-1.94-.8364,2.6028,2.6028,0,0,0-1.4169.4337c-.0461.0155-.0923,0-.0923-.1085,0-1.3783.0462-3.9648.0923-4.9407,0-.17-.0307-.2322-.0615-.2322a.676.676,0,0,0-.2772.0774,10.6668,10.6668,0,0,1-1.5861.4337c-.1848.031-.2464.0929-.2464.1393,0,.031.0461.0774.1693.17.3234.2016.3542.2944.4.5421.0461.31.0615,1.1152.0615,2.4007-.0154,1.6263-.0462,3.996-.077,4.8322a12.1812,12.1812,0,0,1-.1232,1.7193c0,.0463.0463.1393.1079.1084.2772-.1084.37-.1084.4467-.0774a5.0617,5.0617,0,0,0,1.8941.4179Zm.5543-.31a1.6569,1.6569,0,0,1-.6468-.1394,1.1949,1.1949,0,0,1-.5236-.4646,5.6583,5.6583,0,0,1-.2464-1.7657c0-.604-.0154-2.0444.0462-2.3232a.4153.4153,0,0,1,.1078-.2633,1.2935,1.2935,0,0,1,.5852-.1393,1.8105,1.8105,0,0,1,1.3244.6659,3.6515,3.6515,0,0,1,.5852,2.0445h-.0153a3.9784,3.9784,0,0,1-.4313,1.8895,1.0823,1.0823,0,0,1-.7854.4952Zm6.8531.31a3.2445,3.2445,0,0,0,1.848-.604A3.1044,3.1044,0,0,0,299.1979,95.1a2.93,2.93,0,0,0-2.9286-2.9312q-.0758,0-.1514.0039a3.1249,3.1249,0,0,0-1.9712.7126,2.8515,2.8515,0,0,0-1.0933,2.2922,2.9858,2.9858,0,0,0,3.0115,2.96h0c.0279,0,.056-.0009.0837-.0019Zm.1847-.2477a1.49,1.49,0,0,1-1.17-.8519,4.6663,4.6663,0,0,1-.4775-2.2767c0-1.3475.6315-2.3233,1.2936-2.3233,1.078,0,1.5708,1.2236,1.5708,2.9892a3.6757,3.6757,0,0,1-.5082,2.1064.9109.9109,0,0,1-.7084.356Zm6.9146.2477a3.2445,3.2445,0,0,0,1.848-.604A3.1047,3.1047,0,0,0,306.2971,95.1a2.93,2.93,0,0,0-2.9285-2.9312q-.0757,0-.1515.0039a3.1249,3.1249,0,0,0-1.9712.7126,2.8513,2.8513,0,0,0-1.0934,2.2922,2.9858,2.9858,0,0,0,3.0116,2.96h0q.0419,0,.0838-.0019Zm.1848-.2477a1.49,1.49,0,0,1-1.17-.8519,4.665,4.665,0,0,1-.4774-2.2767c0-1.3475.6314-2.3233,1.2937-2.3233,1.0779,0,1.5708,1.2236,1.5708,2.9892a3.6777,3.6777,0,0,1-.5083,2.1064.9112.9112,0,0,1-.7084.356Zm10.318.1393c.1694,0,.2926-.0464.2926-.1239,0-.0619-.0616-.1084-.2155-.1393-.4467-.0775-.6007-.2168-1.0473-.7126-.6006-.6659-1.6324-1.9514-2.1868-2.71-.0154-.0309-.0462-.0773-.0154-.1084a14.0946,14.0946,0,0,1,1.1395-1.0528,2.8421,2.8421,0,0,1,1.34-.6815c.1849-.0309.2464-.0774.2464-.1239,0-.0619-.0925-.1084-.2618-.1084-.5391,0-1.0472.093-1.617.093-.1232,0-.3541-.0155-.57-.0155-.1388,0-.2618.0464-.2618.1084,0,.0774.0925.1085.2464.1394.462.0775.5544.2016.5544.2787a.5115.5115,0,0,1-.1387.2479,7.8655,7.8655,0,0,1-1.6479,1.6262.7244.7244,0,0,1-.2617.1394c-.0463,0-.077-.0774-.077-.217-.0154-.7742.0615-3.4071.0615-3.9338,0-1.1616.0771-2.71.0924-3.2524a.1437.1437,0,0,0-.0616-.1085.8423.8423,0,0,0-.2771.0773,5.3621,5.3621,0,0,1-1.4938.4337c-.1848.0311-.2927.0929-.2927.1549,0,.0464.0771.0929.1387.1394.231.1239.37.2323.37.3407a3.36,3.36,0,0,1,.0616.7435c0,.8673-.0308,3.5932-.0308,4.2437,0,1.1925-.0155,2.3541-.0771,3.4847-.0307.5112-.0923.6661-.5544.7745-.1231.0309-.2156.0774-.2156.1393s.1387.1084.2619.1084c.0769,0,.616-.0619,1.2166-.0619.4,0,.8931.0465,1.34.0465.1079,0,.2925-.031.2925-.1239,0-.062-.1077-.124-.2617-.1549-.3388-.0775-.5391-.124-.57-.8829-.0154-.5264-.0308-1.3784,0-1.6262.0154-.0774.0154-.1239.0615-.1239s.154.1239.308.31c.4775.5575,1.3091,1.5952,1.54,1.905.1386.2168.077.3248-.1694.4032-.2311.062-.2927.093-.2927.17s.0771.1084.2619.1084c.2156,0,.4465-.031.7392-.031.6777,0,1.1551.077,2.0329.077Zm2.5719-2.85c.0616,0,.1385-.062.1848-.4492.1847-1.5023.8316-3.5158.8316-4.538,0-.604-.3389-1.3164-1.0164-1.3164-.616,0-1.0319.7433-1.0319,1.3629.0155,1.1151.6314,2.7259.8316,4.5379.0462.3248.1078.4025.2.4025Zm.0153,2.9737a.9453.9453,0,0,0,.8779-.9449.9239.9239,0,0,0-.8779-.96.9536.9536,0,0,0,0,1.905Z"/><line class="cls-2" x1="198.4218" y1="118.5362" x2="193.0177" y2="113.4331"/><path class="cls-2" d="M200.6136,118.5661l5.1462-5.45-6.1337-6.1338h0a.0644.0644,0,0,0-.0741-.0147h-.0009a.062.062,0,0,0-.0409.0629v10.4328"/><path class="cls-2" d="M199.4944,117.4637v-3.9143a.066.066,0,0,0-.02-.0459l.0006-.0006a.0731.0731,0,0,0-.0495-.0212l-6.4081-.0486"/><path class="cls-2" d="M201.644,119.6392h3.9888a.0678.0678,0,0,0,.0461-.02h0a.0727.0727,0,0,0,.0211-.0493l.0487-6.4277-5.1282,5.43"/><line class="cls-2" x1="192.9994" y1="113.4343" x2="193.0007" y2="113.433"/><path class="cls-2" d="M192.9994,113.4343l-6.12,6.12h0a.0681.0681,0,0,0-.0192.0336.0705.0705,0,0,0,.0043.04v.001a.0619.0619,0,0,0,.0631.0408H197.392"/><polyline class="cls-2" points="192.999 113.435 192.998 113.433 193 113.433"/><line class="cls-2" x1="192.9994" y1="113.4343" x2="198.4124" y2="118.5457"/><polyline class="cls-2" points="193.018 113.433 193.009 113.425 193 113.433"/><line class="cls-2" x1="193.0177" y1="113.4331" x2="193.0007" y2="113.433"/><line class="cls-2" x1="200.5457" y1="120.7376" x2="205.99" y2="125.8787"/><path class="cls-2" d="M198.43,120.7076l-5.1821,5.488,6.1336,6.1338h0a.0649.0649,0,0,0,.0742.0147h.0009c.0136-.0056.024,17.4784.031,17.4681s.01-17.5151.01-17.531V121.7745"/><path class="cls-2" d="M199.513,121.77v3.9925a.0656.0656,0,0,0,.02.0458v.0007a.0735.0735,0,0,0,.0494.0212l6.4081.0486"/><path class="cls-2" d="M198.4227,120.7l-5.1642,5.4686.0488-6.4277a.0725.0725,0,0,1,.0211-.0493h0a.0663.0663,0,0,1,.046-.02h4.02"/><line class="cls-2" x1="206.0083" y1="125.8776" x2="206.0071" y2="125.8788"/><path class="cls-2" d="M206.0083,125.8776l6.12-6.12h0a.0676.0676,0,0,0,.0193-.0336.07.07,0,0,0-.0045-.04v-.001a.0615.0615,0,0,0-.0629-.0408H201.641"/><polyline class="cls-2" points="206.008 125.878 206.01 125.879 206.007 125.879"/><line class="cls-2" x1="206.0083" y1="125.8776" x2="200.5552" y2="120.728"/><polyline class="cls-2" points="205.99 125.879 205.999 125.887 206.007 125.879"/><line class="cls-2" x1="205.99" y1="125.8787" x2="206.0071" y2="125.8788"/><line class="cls-2" x1="198.4301" y1="120.7076" x2="198.4227" y2="120.7003"/><line class="cls-2" x1="198.4218" y1="118.5362" x2="198.4124" y2="118.5457"/><line class="cls-2" x1="198.4227" y1="120.7003" x2="197.3951" y2="119.6727"/><line class="cls-2" x1="197.3917" y1="119.6693" x2="197.3951" y2="119.6727"/><polyline class="cls-2" points="201.644 119.639 201.666 119.618 200.621 118.573"/><polyline class="cls-2" points="199.513 121.77 199.503 121.781 199.497 121.775"/><line class="cls-2" x1="199.5134" y1="121.7699" x2="200.5457" y2="120.7376"/><polyline class="cls-2" points="199.494 117.463 199.503 117.455 199.511 117.463"/><line class="cls-2" x1="201.6407" y1="119.6425" x2="200.5552" y2="120.728"/><line class="cls-2" x1="198.4301" y1="120.7076" x2="199.4972" y2="121.7748"/><polyline class="cls-2" points="197.392 119.67 197.34 119.618 198.412 118.546"/><line class="cls-2" x1="199.4944" y1="117.4637" x2="198.4218" y2="118.5362"/><line class="cls-2" x1="200.6136" y1="118.5661" x2="199.5106" y2="117.463"/><line class="cls-2" x1="200.5457" y1="120.7376" x2="200.5552" y2="120.728"/><line class="cls-2" x1="201.6407" y1="119.6425" x2="201.644" y2="119.6392"/><line class="cls-2" x1="200.6136" y1="118.5661" x2="200.621" y2="118.5735"/><path class="cls-3" d="M74.3093,81.0422H72.0331a.5275.5275,0,0,1-.5275-.5274h0v-1.56a.5275.5275,0,0,1,.5275-.5274h5.9883"/><line class="cls-3" x1="70.9969" y1="95.3155" x2="72.6009" y2="95.3155"/><line class="cls-3" x1="73.0125" y1="85.3834" x2="73.0125" y2="81.7297"/><line class="cls-3" x1="72.4557" y1="95.3155" x2="70.4242" y2="95.3155"/><line class="cls-3" x1="69.5362" y1="93.9603" x2="69.5434" y2="93.9427"/><line class="cls-3" x1="69.5434" y1="93.9427" x2="73.0071" y2="85.4554"/><path class="cls-3" d="M69.5362,93.96a.98.98,0,0,0,.908,1.3538"/><path class="cls-3" d="M69.5362,93.96l.0072-.0176"/><line class="cls-3" x1="72.4557" y1="95.3155" x2="70.4242" y2="95.3155"/><line class="cls-3" x1="69.5362" y1="93.9603" x2="69.5434" y2="93.9427"/><line class="cls-3" x1="69.5434" y1="93.9427" x2="73.0071" y2="85.4554"/><path class="cls-3" d="M69.5362,93.96a.98.98,0,0,0,.908,1.3538"/><path class="cls-3" d="M69.5362,93.96l.0072-.0176"/><path class="cls-3" d="M78.2113,82.6269h3.17a.5076.5076,0,0,0,.4847-.5274V80.539a.5077.5077,0,0,0-.4847-.5275H75.3376a.5075.5075,0,0,0-.4848.5275V82.1a.5075.5075,0,0,0,.4848.5274h1.0455"/><line class="cls-3" x1="76.0516" y1="87.554" x2="76.0516" y2="83.9003"/><line class="cls-3" x1="82.6822" y1="97.486" x2="73.4632" y2="97.486"/><line class="cls-3" x1="72.5754" y1="96.1307" x2="72.5825" y2="96.1132"/><line class="cls-3" x1="72.5825" y1="96.1132" x2="76.0461" y2="87.6259"/><path class="cls-3" d="M72.5754,96.1307a.98.98,0,0,0,.9078,1.354"/><path class="cls-3" d="M72.5754,96.1307l.0071-.0175"/><line class="cls-3" x1="80.6667" y1="87.554" x2="80.6667" y2="83.9003"/><line class="cls-3" x1="73.6085" y1="97.486" x2="83.2551" y2="97.486"/><line class="cls-3" x1="84.1429" y1="96.1307" x2="84.1358" y2="96.1132"/><line class="cls-3" x1="84.1358" y1="96.1132" x2="80.6722" y2="87.6259"/><path class="cls-3" d="M84.1429,96.1307a.98.98,0,0,1-.9083,1.354"/><path class="cls-3" d="M84.1429,96.1307l-.0071-.0175"/><line class="cls-3" x1="73.6085" y1="97.486" x2="83.2551" y2="97.486"/><line class="cls-3" x1="84.1429" y1="96.1307" x2="84.1358" y2="96.1132"/><line class="cls-3" x1="84.1358" y1="96.1132" x2="80.6722" y2="87.6259"/><path class="cls-3" d="M84.1429,96.1307a.98.98,0,0,1-.9083,1.354"/><path class="cls-3" d="M84.1429,96.1307l-.0071-.0175"/><line class="cls-4" x1="79.1099" y1="84.7852" x2="80.7007" y2="84.7852"/><line class="cls-4" x1="79.1099" y1="83.8738" x2="80.7007" y2="83.8738"/><line class="cls-4" x1="79.1099" y1="85.7073" x2="80.7007" y2="85.7073"/><line class="cls-4" x1="79.1099" y1="86.6295" x2="80.7007" y2="86.6295"/><line class="cls-4" x1="79.1099" y1="87.5516" x2="80.7007" y2="87.5516"/><path class="cls-4" d="M75.6871,92.8618c0-.5233.9475-1.6623.9475-1.6623s.9475,1.139.9475,1.6623a.9475.9475,0,0,1-1.895,0Z"/><path class="cls-4" d="M77.6642,95.2072c0-.5234.9474-1.6623.9474-1.6623s.9475,1.1389.9475,1.6623a.9475.9475,0,0,1-1.8949,0Z"/><path class="cls-4" d="M78.1882,91.8484c0-.5233.9476-1.6623.9476-1.6623s.9475,1.139.9475,1.6623a.9476.9476,0,0,1-1.8951,0Z"/><path class="cls-4" d="M216.1932,59.3035l13.6138,12.81h0L220.37,82.1424a1.12,1.12,0,0,1-1.5831.0481L206.8042,70.916a1.12,1.12,0,0,1-.0482-1.5831l0,0,9.4366-10.0293Z"/><rect class="cls-5" x="216.0483" y="55.2298" width="9.5726" height="3.7384" transform="translate(27.9196 178.8037) rotate(-46.7436)"/><rect class="cls-5" x="219.0221" y="58.3724" width="7.9772" height="3.7384" transform="translate(26.3157 181.3776) rotate(-46.7436)"/><rect class="cls-5" x="221.9958" y="61.5153" width="6.3818" height="3.7384" transform="translate(24.7117 183.9516) rotate(-46.7436)"/><rect class="cls-5" x="224.9695" y="64.6581" width="4.7863" height="3.7384" transform="translate(23.1076 186.5255) rotate(-46.7436)"/><rect class="cls-5" x="227.9434" y="67.8011" width="3.1909" height="3.7384" transform="translate(21.5036 189.0996) rotate(-46.7436)"/><polygon class="cls-6" points="233.914 65.02 231.336 66.246 232.848 67.668 233.914 65.02"/><polygon class="cls-6" points="231.336 66.246 229.273 67.226 231.995 69.787 232.848 67.668 231.336 66.246"/><polygon class="cls-6" points="232.284 61.296 229.706 62.522 231.218 63.945 232.284 61.296"/><polygon class="cls-6" points="229.706 62.522 227.643 63.502 230.366 66.063 231.218 63.945 229.706 62.522"/><polygon class="cls-6" points="230.655 57.572 228.076 58.798 229.589 60.221 230.655 57.572"/><polygon class="cls-6" points="228.076 58.798 226.013 59.778 228.736 62.339 229.589 60.221 228.076 58.798"/><polygon class="cls-6" points="229.026 53.849 226.447 55.074 227.96 56.497 229.026 53.849"/><polygon class="cls-6" points="226.447 55.074 224.385 56.054 227.108 58.616 227.96 56.497 226.447 55.074"/><polygon class="cls-6" points="227.397 50.125 224.818 51.351 226.33 52.773 227.397 50.125"/><polygon class="cls-6" points="224.818 51.351 222.755 52.331 225.478 54.892 226.33 52.773 224.818 51.351"/><line class="cls-2" x1="56.8205" y1="150.2446" x2="237.9689" y2="150.2446"/><path class="cls-7" d="M154.1459,101.5507a11.0631,11.0631,0,0,0,22.1062,0,9.5653,9.5653,0,0,0-.1217-1.8243"/><path class="cls-7" d="M168.2481,147.9652h3.9639a1.7533,1.7533,0,0,1,1.7533,1.7533v.4383h-5.7172Z"/><path class="cls-7" d="M162.15,150.1567h-5.717v-.4384a1.7531,1.7531,0,0,1,1.753-1.7532h3.964Z"/><path class="cls-7" d="M154.1459,101.5507c0-.12.0052-.2379.0094-.3565a2.0068,2.0068,0,1,0,.1812,4.01h.4844A10.176,10.176,0,0,1,154.1459,101.5507Z"/><path class="cls-7" d="M176.2427,101.1942c.0041.1186.0094.237.0094.3565a10.1807,10.1807,0,0,1-.675,3.6527h.4845a2.0068,2.0068,0,0,0,.1811-4.01h0Z"/><path class="cls-7" d="M171.6783,102.3726a1.24,1.24,0,0,1-2.4773,0"/><path class="cls-7" d="M161.197,102.3726a1.24,1.24,0,0,1-2.4774,0"/><path class="cls-7" d="M163.1027,107.4314a2.0982,2.0982,0,0,0,4.1926,0"/><path class="cls-7" d="M178.0236,116.8976a11.6289,11.6289,0,0,0-5.8456-5.57,3.1052,3.1052,0,0,0-1.1312-.4188,1.9511,1.9511,0,0,0-.4059-.0448c-.02,0-.04.0017-.0595.0023-.0156,0-.0307-.0023-.0464-.0023h-.0672a11.494,11.494,0,0,1-10.5368,0h-.0672c-.0157,0-.0307.002-.0464.0023-.02-.0006-.04-.0023-.0594-.0023a1.9494,1.9494,0,0,0-.4058.0448,3.1052,3.1052,0,0,0-1.1312.4188,11.6289,11.6289,0,0,0-5.8456,5.57c-.0985.2016-.1884.4065-.274.6119l3.7356.8325a7.8726,7.8726,0,0,1,.9779-1.4951v9.996h16.77v-9.996a7.8678,7.8678,0,0,1,.9779,1.4951l3.7355-.8325C178.212,117.3042,178.122,117.1,178.0236,116.8976Z"/><path class="cls-7" d="M159.8538,110.7133a5.3553,5.3553,0,0,0,10.7008,0"/><path class="cls-7" d="M175.4937,123.885a2.1578,2.1578,0,0,1,.93-.2105,2.1071,2.1071,0,0,1,1.8613,1.087,10.578,10.578,0,0,0-.4-7.16l-2.9033.6472A7.9,7.9,0,0,1,175.4937,123.885Z"/><ellipse class="cls-7" cx="176.4236" cy="125.6834" rx="2.0963" ry="2.0089"/><path class="cls-7" d="M151.25,123.05a3.0957,3.0957,0,0,0-1.1243-.22,8.2368,8.2368,0,0,0,2.3568-5.2528l2.9.6608a10.7859,10.7859,0,0,1-2.9717,6.58A2.0016,2.0016,0,0,0,151.25,123.05Z"/><ellipse class="cls-7" cx="150.3159" cy="124.8486" rx="2.0963" ry="2.0089"/><path class="cls-7" d="M165.2023,86.2279a11.1388,11.1388,0,0,0-4.0268.753,19.1589,19.1589,0,0,1-10.06-1.2992V89.23a9.4751,9.4751,0,0,0,2.622,6.4022h0a13.5468,13.5468,0,0,0-.2188,5.63,1.9079,1.9079,0,0,1,.6519-.1161h.0042a12.516,12.516,0,0,1,.835-4.3456,11,11,0,0,0,1.6584,1.0709,12.8261,12.8261,0,0,0,8.4632.7047,25.9109,25.9109,0,0,1,5.0215-.4891,19.504,19.504,0,0,1,5.88.9929,12.7424,12.7424,0,0,1,.1974,2.0664h.0041a1.91,1.91,0,0,1,.6518.1162,13.7007,13.7007,0,0,0,.1954-2.2331c0-.0224.0015-.0441.0015-.0664C177.0831,91.93,171.7639,86.2279,165.2023,86.2279Z"/><path class="cls-7" d="M165.2186,134.31v13.64h7.5835v-13.776c.896-1.0411.8086-4.5414.8086-5.9845l-16.7964.0587"/><path class="cls-7" d="M165.2086,136.5275v11.4217H157.625v-13.776c-.896-1.0411-.8085-4.5414-.8085-5.9845l16.7963.0587"/><path class="cls-7" d="M146.4487,101.2618c.004.1186.0094.2368.0094.3565a10.18,10.18,0,0,1-.6751,3.6525h.4844a2.0066,2.0066,0,0,0,.1813-4.009Z"/><path class="cls-7" d="M141.8843,103.6272a1.24,1.24,0,0,0-2.4774,0"/><path class="cls-7" d="M131.4029,103.6272a1.24,1.24,0,0,0-2.4773,0"/><path class="cls-7" d="M133.3086,107.4989a2.0982,2.0982,0,0,0,4.1926,0"/><path class="cls-7" d="M149.3391,123.0483a3.1423,3.1423,0,0,1,1.1217-.2253,7.9339,7.9339,0,0,1-2.3072-5.1544l-2.8938.6728a10.3885,10.3885,0,0,0,2.91,6.4566A2.008,2.008,0,0,1,149.3391,123.0483Z"/><line class="cls-7" x1="127.1139" y1="113.3487" x2="145.6448" y2="113.3487"/><path class="cls-2" d="M142.034,111.1738a9.7,9.7,0,0,0,4.57-5.6553"/><path class="cls-7" d="M123.4629,101.324a2.0623,2.0623,0,0,0,0,3.661Z"/><path class="cls-7" d="M127.2979,112.34c0,2.9826-1.1648,3.8706-2.6669,5.7555l1.4111.3145a7.8853,7.8853,0,0,1,.9779-1.4953v10.0322h16.77V116.9142a7.8729,7.8729,0,0,1,.978,1.4953l3.7355-.8325c-.0855-.2055-.1909-.4032-.2739-.6118a11.9366,11.9366,0,0,0-7.44-6.1755"/><path class="cls-2" d="M147.209,101.2153V98.9322a11.83,11.83,0,0,0-23.66,0h0"/><path class="cls-7" d="M127.2979,111.9889v.3506c0,2.9826-1.15,3.8416-2.6516,5.7266"/><line class="cls-7" x1="127.2979" y1="111.9688" x2="127.2979" y2="111.9889"/><path class="cls-7" d="M130.0205,110.82a10.1747,10.1747,0,0,0-2.7226,1.1686"/><line class="cls-2" x1="123.5516" y1="117.8546" x2="123.5554" y2="115.3014"/><path class="cls-8" d="M123.5516,117.8546l-.0026,1.7407a17.8066,17.8066,0,0,1,1.0684-1.4944"/><line class="cls-2" x1="123.5554" y1="115.3014" x2="123.5797" y2="98.8045"/><path class="cls-7" d="M122.3,117.7711a16.1767,16.1767,0,0,1,1.2495-2.5336"/><path class="cls-2" d="M123.6009,98.963a11.8057,11.8057,0,0,1,23.6113-.0663"/><path class="cls-7" d="M146.321,100.08a13.9334,13.9334,0,0,1-1.651-.4447c-3.4207-1.245-5.4007-3.1087-6.2167-5.1927-3.2083,1.7772-7.2565,3.0622-8.28,4.0166-1.4737,1.3748-2.8758,3.3474-2.8758,5.3629v4.8956"/><path class="cls-7" d="M146.3307,100.0767l.0412.0088-.0413-.0091"/><line class="cls-7" x1="127.2979" y1="108.7175" x2="127.2979" y2="111.9688"/><path class="cls-7" d="M146.152,99.8954a5.2316,5.2316,0,0,1,.3213,1.6553A10.83,10.83,0,0,1,135.42,112.1431a11.2325,11.2325,0,0,1-8.1223-3.4256"/><line class="cls-7" x1="123.7207" y1="117.9042" x2="122.3522" y2="117.4893"/><path class="cls-7" d="M138.4233,147.9652h3.9639a1.7533,1.7533,0,0,1,1.7532,1.7533v.4383h-5.7171Z"/><path class="cls-7" d="M132.325,150.1567h-5.7171v-.4384a1.7531,1.7531,0,0,1,1.753-1.7532h3.9641Z"/><path class="cls-7" d="M135.393,134.31v13.64h7.5835v-13.776c.896-1.0411.8087-4.5414.8087-5.9845l-16.7964.0587"/><path class="cls-7" d="M135.3837,136.5275v11.4217H127.8v-13.776c-.896-1.0411-.8086-4.5414-.8086-5.9845l16.7964.0587"/><path class="cls-7" d="M122.7359,117.577a8.2353,8.2353,0,0,1-2.3568,5.2528,3.1036,3.1036,0,0,1,1.1242.22,2.0018,2.0018,0,0,1,1.1607,1.7679,10.7858,10.7858,0,0,0,2.9718-6.58"/><ellipse class="cls-7" cx="120.5691" cy="124.8486" rx="2.0963" ry="2.0089"/><path class="cls-7" d="M112.1232,103.6272a1.24,1.24,0,0,0-2.4774,0"/><path class="cls-7" d="M101.6418,103.6272a1.24,1.24,0,0,0-2.4774,0"/><path class="cls-7" d="M103.5475,107.4989a2.0982,2.0982,0,0,0,4.1926,0"/><ellipse class="cls-7" cx="94.4192" cy="125.7509" rx="2.0963" ry="2.0089"/><path class="cls-7" d="M120.7,122.823a7.9349,7.9349,0,0,1-2.3072-5.1544l-2.8939.6728a10.3884,10.3884,0,0,0,2.91,6.4566"/><path class="cls-7" d="M94.87,118.095l1.4112.3145a7.88,7.88,0,0,1,.9778-1.4953v10.0322h16.77V116.9142a7.88,7.88,0,0,1,.9779,1.4953l3.7355-.8325c-.0856-.2055-.19-.4032-.2739-.6118a11.9375,11.9375,0,0,0-7.44-6.1755"/><path class="cls-7" d="M96.3056,118.41,92.57,117.577c.0855-.2055.19-.4032.2738-.6118a11.9366,11.9366,0,0,1,7.44-6.1755"/><path class="cls-2" d="M93.0656,117.9194a12.4114,12.4114,0,0,0-.5076,6.91,2.1742,2.1742,0,0,1,2.791-.8764,8.034,8.034,0,0,1,.5122-5.6365"/><path class="cls-7" d="M108.6621,147.9652h3.9639a1.7533,1.7533,0,0,1,1.7532,1.7533v.4383h-5.7171Z"/><path class="cls-7" d="M102.5638,150.1567H96.8467v-.4384A1.7532,1.7532,0,0,1,98.6,147.9651h3.9639Z"/><path class="cls-7" d="M105.6324,134.31v13.64h7.5835v-13.776c.896-1.0411.8085-4.5414.8085-5.9845l-16.7963.0587"/><path class="cls-7" d="M105.6225,136.5275v11.4217H98.039v-13.776c-.896-1.0411-.8085-4.5414-.8085-5.9845l16.7963.0587"/><path class="cls-7" d="M96.4794,99.8434c3.2539-1.1749,5.1975-2.9079,6.0731-4.855,1.7846,2.584,5.8454,4.39,10.5746,4.39a23.1113,23.1113,0,0,0,3.3163-.255,10.9291,10.9291,0,1,1-21.6507,2.196c0-.3416.0178-.6789.049-1.0124A15.9475,15.9475,0,0,0,96.4794,99.8434Z"/><path class="cls-7" d="M90.2493,103.92V89.6338a6.7385,6.7385,0,0,1,13.0359-2.3358,7.6335,7.6335,0,0,0-1.5934-.168A7.5422,7.5422,0,0,0,94.12,94.6418a7.3874,7.3874,0,0,0,.0811,1.0733h0c.0286.1961.0622.3906.1056.5817l.013-.0475a11.521,11.521,0,0,0-.288,4.2438c.03.2576.071.5122.1174.7647a2,2,0,0,0,.644,3.9H95.5v0a10.8012,10.8012,0,0,0,1.4584,2.6363,5.05,5.05,0,0,1-10.0738-.4658v-1.6688a2.1392,2.1392,0,0,0,3.3652-1.7392Z"/><path class="cls-7" d="M105.73,87.4638a11.732,11.732,0,0,1,11.7735,11.475c.0013.07.0054.1395.0054.21a11.6557,11.6557,0,0,1-.1952,2.11,2.0282,2.0282,0,0,0-.6461-.1066h-.0044a10.7923,10.7923,0,0,0-.22-2.0291h.0008a23.107,23.107,0,0,1-3.3171.2551c-4.7292,0-8.79-1.8058-10.5746-4.39-.8756,1.9471-2.8191,3.68-6.0731,4.855,0,0-1.6546.4672-1.6376.4633q-.0393.4182-.0448.8455h-.004a2.0235,2.0235,0,0,0-.644.1058c-.0463-.2525-.0877-.5068-.1173-.7647a11.666,11.666,0,0,1,11.6989-13.0292Z"/><path class="cls-7" d="M94.3063,96.2967a7.504,7.504,0,0,1,7.3855-9.1668,7.6144,7.6144,0,0,1,2.533.4321A11.7545,11.7545,0,0,0,94.3063,96.2967Z"/><path class="cls-7" d="M116.6679,101.3188c0-.056-.0035-.1111-.0044-.1669h.0044a2.0032,2.0032,0,0,1,.042,4.0062h-.7489A10.7464,10.7464,0,0,0,116.6679,101.3188Z"/><circle class="cls-7" cx="105.525" cy="119.3923" r="0.8297"/><circle class="cls-7" cx="105.525" cy="122.0659" r="0.8297"/><path class="cls-7" d="M130.6917,69.2008a4.96,4.96,0,0,0-4.96-4.96H67.8661a4.96,4.96,0,0,0-4.96,4.96v32.4464a4.96,4.96,0,0,0,4.96,4.96H84.8376"/><line class="cls-7" x1="130.6917" y1="69.2008" x2="130.6917" y2="85.8862"/><rect class="cls-7" x="88.326" y="64.3837" width="16.9463" height="5.6487"/></svg>